g 079Cables_lp.004
v 0.005388868 -0.003712539 -2.384186E-09
v 0.005338356 -0.003713392 0.0001219273
v 0.004969718 -0.0006674179 0.0001219285
v 0.005017926 -0.0006523174 -5.960464E-10
v 0.004066493 0.001029228 0.0001219296
v 0.004101555 0.001065603 5.960464E-10
v 0.004066493 0.001029228 -0.000121929
v 0.004969718 -0.0006674179 -0.0001219302
v 0.005338356 -0.003713392 -0.000121932
v 0.003981879 0.0009414381 -0.0001724482
v 0.00485336 -0.0007038635 -0.0001724493
v 0.005216443 -0.003715452 -0.0001724511
v 0.003897269 0.0008536476 -0.000121929
v 0.004737007 -0.0007403084 -0.0001219302
v 0.005094535 -0.003717511 -0.000121932
v 0.003862207 0.0008172726 5.960464E-10
v 0.004688795 -0.0007554093 -5.960464E-10
v 0.005044024 -0.003718365 -2.384186E-09
v 0.005094535 -0.003717511 0.0001219273
v 0.004737007 -0.0007403084 0.0001219285
v 0.003897269 0.0008536476 0.0001219296
v 0.005216448 -0.003715452 0.0001724464
v 0.00485336 -0.0007038635 0.0001724482
v 0.005338356 -0.003713392 0.0001219273
v 0.003981879 0.0009414381 0.0001724493
v 0.004969718 -0.0006674179 0.0001219285
v 0.004066493 0.001029228 0.0001219296
v 0.002758477 0.001663527 0.0001219308
v 0.004066493 0.001029228 0.0001219296
v 0.003981879 0.0009414381 0.0001724493
v 0.002735965 0.001543693 0.0001724505
v 0.001225884 0.001545751 0.0001219314
v 0.003897269 0.0008536476 0.0001219296
v 0.001249578 0.001426146 0.0001724511
v -0.0003834748 0.001027166 0.000121932
v 0.002713458 0.00142386 0.0001219308
v 0.003862207 0.0008172726 5.960464E-10
v -0.0003433204 0.0009120387 0.0001724511
v -0.001944506 0.0004411876 0.000121932
v -0.001908772 0.0003246123 0.0001724511
v 0.001273272 0.001306541 0.0001219314
v -0.0003031659 0.0007969111 0.0001219314
v -0.001873033 0.0002080369 0.0001219314
v 0.002704132 0.001374209 1.192093E-09
v 0.001283085 0.001256984 1.788139E-09
v -0.000286529 0.0007492095 2.384186E-09
v -0.001858232 0.0001597357 2.384186E-09
v -0.001873033 0.0002080369 -0.0001219273
v -0.0003031659 0.0007969111 -0.0001219273
v -0.001908772 0.0003246123 -0.0001724464
v 0.002713458 0.00142386 -0.0001219279
v 0.003897269 0.0008536476 -0.000121929
v 0.001273272 0.001306541 -0.0001219273
v -0.0003433204 0.0009120387 -0.0001724464
v -0.001944506 0.0004411876 -0.0001219273
v 0.002735965 0.001543693 -0.0001724476
v 0.003981879 0.0009414381 -0.0001724482
v 0.001249578 0.001426146 -0.000172447
v -0.0003834748 0.001027166 -0.0001219267
v -0.001959312 0.0004894885 2.384186E-09
v 0.002758477 0.001663528 -0.0001219279
v 0.004066493 0.001029228 -0.000121929
v 0.001225884 0.001545751 -0.0001219273
v -0.0004001117 0.001074867 2.384186E-09
v 0.002767804 0.001713178 1.788139E-09
v 0.004101555 0.001065603 5.960464E-10
v 0.004066493 0.001029228 0.0001219296
v 0.002758477 0.001663527 0.0001219308
v 0.001216071 0.001595308 2.384186E-09
v 0.001225884 0.001545751 0.0001219314
v -0.0003834748 0.001027166 0.000121932
v -0.001944506 0.0004411876 0.000121932
v -0.003314421 0.0001090288 0.0001219314
v -0.001944506 0.0004411876 0.000121932
v -0.001908772 0.0003246123 0.0001724511
v -0.003312805 -1.28901E-05 0.0001724505
v -0.001873033 0.0002080369 0.0001219314
v -0.004350636 0.0003220189 0.0001219302
v -0.003311193 -0.000134809 0.0001219314
v -0.001858232 0.0001597357 2.384186E-09
v -0.00442147 0.000222775 0.0001724499
v -0.005100801 0.001354848 0.0001724482
v -0.004984133 0.001390285 0.000121929
v -0.005216825 0.003706578 0.0001724464
v -0.005095184 0.003698245 0.0001219273
v -0.005338471 0.003714912 0.0001219267
v -0.005217464 0.001319412 0.0001219285
v -0.005388868 0.003718365 -2.980232E-09
v -0.004492304 0.0001235312 0.0001219302
v -0.003310525 -0.000185324 1.788139E-09
v -0.005265805 0.001304729 -5.960464E-10
v -0.003311193 -0.000134809 -0.0001219279
v -0.001873033 0.0002080369 -0.0001219273
v -0.004521654 8.241028E-05 5.960464E-10
v -0.004492304 0.0001235312 -0.0001219285
v -0.005217464 0.001319412 -0.0001219302
v -0.005338466 0.003714911 -0.000121932
v -0.003312805 -1.28901E-05 -0.000172447
v -0.001908772 0.0003246123 -0.0001724464
v -0.00442147 0.000222775 -0.0001724482
v -0.005100796 0.001354848 -0.0001724493
v -0.005216825 0.003706578 -0.0001724511
v -0.003314421 0.0001090288 -0.0001219273
v -0.001944506 0.0004411876 -0.0001219273
v -0.004350636 0.0003220189 -0.0001219285
v -0.004321286 0.0003631389 1.192093E-09
v -0.004984128 0.001390284 -0.0001219296
v -0.005095179 0.003698245 -0.0001219314
v -0.003315089 0.0001595443 1.788139E-09
v -0.001959312 0.0004894885 2.384186E-09
v -0.001944506 0.0004411876 0.000121932
v -0.003314421 0.0001090288 0.0001219314
v -0.004350636 0.0003220189 0.0001219302
v -0.004984133 0.001390285 0.000121929
v -0.004935791 0.001404967 0
v -0.005044782 0.003694792 -1.788139E-09
v -0.005095184 0.003698245 0.0001219273
vt 0.7268785 0.8690706
vt 0.7270984 0.875125
vt 0.8679431 0.875586
vt 0.8679485 0.8695716
vt 0.9560381 0.8755851
vt 0.9567732 0.8693145
vt 0.9559979 0.8630482
vt 0.8679422 0.8635586
vt 0.7271514 0.8628249
vt 0.9541724 0.8570833
vt 0.8679627 0.8575473
vt 0.7277579 0.8567919
vt 0.9523944 0.8512926
vt 0.8679953 0.8514284
vt 0.7283393 0.8509324
vt 0.9516842 0.8454578
vt 0.8680288 0.8451539
vt 0.7285753 0.8451155
vt 0.7283402 0.8392989
vt 0.8680297 0.8388787
vt 0.9524331 0.8396292
vt 0.7277598 0.8334387
vt 0.8680269 0.8327566
vt 0.727154 0.8274032
vt 0.9542491 0.8338535
vt 0.8680259 0.8267399
vt 0.9560661 0.8280869
vt 0.6941392 0.7185532
vt 0.7621164 0.7171141
vt 0.7602223 0.7112388
vt 0.6941919 0.7124751
vt 0.6233336 0.7170202
vt 0.7583365 0.7053545
vt 0.623452 0.7109906
vt 0.5472966 0.715893
vt 0.6942598 0.7061467
vt 0.7575775 0.6994992
vt 0.5473644 0.7099693
vt 0.4729332 0.7152484
vt 0.4726484 0.7093672
vt 0.6235542 0.7049758
vt 0.5474245 0.7040766
vt 0.4723617 0.7035068
vt 0.6943184 0.6995283
vt 0.6236394 0.6989133
vt 0.5474786 0.6981881
vt 0.4722631 0.6976485
vt 0.4724364 0.6917912
vt 0.5475245 0.6922987
vt 0.4727978 0.6859332
vt 0.6942841 0.6929142
vt 0.7583461 0.6936409
vt 0.6236839 0.6928531
vt 0.5475642 0.6864029
vt 0.4731576 0.680053
vt 0.6942425 0.686599
vt 0.7602425 0.6877481
vt 0.6237107 0.686843
vt 0.5475978 0.6804735
vt 0.4733218 0.6741405
vt 0.6942251 0.680485
vt 0.7622136 0.6815968
vt 0.6237275 0.6808043
vt 0.5476249 0.6745021
vt 0.6942593 0.6743716
vt 0.7630847 0.6750895
vt 0.7623608 0.6685649
vt 0.6942555 0.668251
vt 0.6237429 0.6746783
vt 0.6237325 0.6686901
vt 0.5476437 0.6685902
vt 0.4732099 0.6682498
vt 0.06987762 0.8274479
vt 0.002832371 0.8262523
vt 0.002375366 0.8325143
vt 0.06974337 0.8335732
vt 0.001928809 0.8387606
vt 0.1217536 0.8283715
vt 0.06963162 0.8394524
vt 0.001729154 0.8452311
vt 0.1217454 0.8342705
vt 0.182085 0.8337635
vt 0.1819853 0.8277441
vt 0.2905771 0.8328122
vt 0.2898561 0.8266929
vt 0.2912928 0.838921
vt 0.1821713 0.8395824
vt 0.2916079 0.8453109
vt 0.121737 0.8399488
vt 0.0695896 0.8454705
vt 0.1821997 0.845597
vt 0.0695419 0.8514879
vt 0.001935623 0.851701
vt 0.1217306 0.8456752
vt 0.1217165 0.8514053
vt 0.182237 0.8516117
vt 0.2912958 0.8517019
vt 0.06956666 0.8573667
vt 0.002387177 0.8579414
vt 0.1217054 0.8570953
vt 0.1822111 0.8574342
vt 0.2905839 0.8578126
vt 0.06961981 0.8632992
vt 0.002821241 0.8639706
vt 0.1216934 0.8630132
vt 0.1216886 0.8693343
vt 0.1821677 0.8632694
vt 0.2899018 0.863691
vt 0.06966615 0.8694472
vt 0.003029755 0.869928
vt 0.002937082 0.8758829
vt 0.06965547 0.875594
vt 0.1217009 0.8758829
vt 0.182179 0.8753587
vt 0.1821429 0.8693138
vt 0.2896147 0.8695119
vt 0.2898652 0.8753326
vn 0.9927554 0.1201536 0
vn 0.7159551 0.08655308 0.6927603
vn 0.6946859 0.2184284 0.685347
vn 0.953889 0.3001599 0
vn 0.5140963 0.5340253 0.6712093
vn 0.6935666 0.7203925 0
vn 0.5140963 0.5340253 -0.6712093
vn 0.6946859 0.2184284 -0.685347
vn 0.7159551 0.08655308 -0.6927603
vn 0.05301208 0.05520947 -0.9970666
vn 0.04236047 0.01348943 -0.9990113
vn 0.02496462 0.003082429 -0.9996836
vn -0.4608991 -0.4779593 -0.747748
vn -0.6526426 -0.2032851 -0.7298855
vn -0.6911638 -0.0828896 -0.7179289
vn -0.6942813 -0.7197038 0
vn -0.9548544 -0.2970739 0
vn -0.9928916 -0.1190225 0
vn -0.6911638 -0.0828896 0.7179289
vn -0.6526426 -0.2032851 0.7298855
vn -0.4608991 -0.4779593 0.747748
vn 0.02499512 0.003082426 0.9996828
vn 0.04236047 0.01348943 0.9990113
vn 0.7159551 0.08655308 0.6927603
vn 0.05301208 0.05520947 0.9970666
vn 0.6946859 0.2184284 0.685347
vn 0.5140963 0.5340253 0.6712093
vn 0.1373655 0.7234499 0.6765729
vn 0.5140963 0.5340253 0.6712093
vn 0.05301208 0.05520947 0.9970666
vn 0.0122077 0.06283914 0.9979491
vn -0.1392578 0.707337 0.6930236
vn -0.4608991 -0.4779593 0.747748
vn -0.00521882 0.02771163 0.9996024
vn -0.2337475 0.670418 0.704203
vn -0.1229316 -0.6605589 0.7406415
vn -0.6942813 -0.7197038 0
vn -0.001831137 0.005340817 0.9999841
vn -0.2059114 0.6686703 0.7144793
vn 0.004150567 -0.01425231 0.9998899
vn 0.1356886 -0.6791452 0.7213532
vn 0.2320986 -0.6649526 0.7099074
vn 0.208904 -0.6834167 0.6995003
vn -0.1822576 -0.9832509 0
vn 0.1962687 -0.9805501 0
vn 0.3295727 -0.9441302 0
vn 0.292065 -0.9563984 0
vn 0.208904 -0.6834167 -0.6995003
vn 0.2320986 -0.6649526 -0.7099074
vn 0.004150567 -0.01425231 -0.9998899
vn -0.1229316 -0.6605589 -0.7406415
vn -0.4608991 -0.4779593 -0.747748
vn 0.1356886 -0.6791452 -0.7213532
vn -0.001831137 0.005371335 -0.9999839
vn -0.2059114 0.6686703 -0.7144793
vn 0.0122077 0.06283914 -0.9979491
vn 0.05301208 0.05520947 -0.9970666
vn -0.00521882 0.02771163 -0.9996024
vn -0.2337475 0.670418 -0.704203
vn -0.2944826 0.9556568 0
vn 0.1373655 0.7234499 -0.6765729
vn 0.5140963 0.5340253 -0.6712093
vn -0.1392578 0.707337 -0.6930236
vn -0.3291811 0.9442669 0
vn 0.1866226 0.9824317 0
vn 0.6935666 0.7203925 0
vn 0.5140963 0.5340253 0.6712093
vn 0.1373655 0.7234499 0.6765729
vn -0.1929106 0.9812164 0
vn -0.1392578 0.707337 0.6930236
vn -0.2337475 0.670418 0.704203
vn -0.2059114 0.6686703 0.7144793
vn -0.01232961 0.6784338 0.734558
vn -0.2059114 0.6686703 0.7144793
vn 0.004150567 -0.01425231 0.9998899
vn 0 -0.053592 0.998563
vn 0.208904 -0.6834167 0.6995003
vn 0.376607 0.5281653 0.7610574
vn 0.007019449 -0.7325253 0.6807035
vn 0.292065 -0.9563984 0
vn -0.05737614 -0.08002141 0.9951404
vn -0.0565515 -0.01773147 0.9982423
vn 0.6467999 0.1937988 0.7376258
vn -0.02865732 -0.001617506 0.999588
vn 0.6941257 0.03314371 0.7190904
vn -0.7226318 -0.03625672 0.6902815
vn -0.7025573 -0.2154367 0.6782333
vn -0.9987267 -0.05044753 0
vn -0.4358454 -0.6095915 0.6621457
vn 0.009094695 -0.9999586 0
vn -0.9559577 -0.2935046 0
vn 0.007019449 -0.7325253 -0.6807035
vn 0.208904 -0.6834167 -0.6995003
vn -0.5815759 -0.8134921 0
vn -0.4358454 -0.6095915 -0.6621457
vn -0.7025573 -0.2154367 -0.6782333
vn -0.7226318 -0.03625672 -0.6902815
vn 0 -0.053592 -0.998563
vn 0.004150567 -0.01425231 -0.9998899
vn -0.05737614 -0.08002141 -0.9951404
vn -0.05652108 -0.0177315 -0.9982439
vn -0.02868781 -0.001617504 -0.9995871
vn -0.01232961 0.6784338 -0.734558
vn -0.2059114 0.6686703 -0.7144793
vn 0.376607 0.5281653 -0.7610574
vn 0.5802244 0.8144566 0
vn 0.646796 0.1938282 -0.7376215
vn 0.6941257 0.03314371 -0.7190904
vn -0.01947128 0.9998104 0
vn -0.2944826 0.9556568 0
vn -0.2059114 0.6686703 0.7144793
vn -0.01232961 0.6784338 0.734558
vn 0.376607 0.5281653 0.7610574
vn 0.6467999 0.1937988 0.7376258
vn 0.958185 0.2861493 0
vn 0.9988703 0.04751875 0
vn 0.6941257 0.03314371 0.7190904
g 079Cables_lp.004_0
f 3/3/3 2/2/2 1/1/1
f 4/4/4 3/3/3 1/1/1
f 5/5/5 3/3/3 4/4/4
f 6/6/6 5/5/5 4/4/4
f 6/6/6 4/4/4 7/7/7
f 4/4/4 1/1/1 8/8/8
f 4/4/4 8/8/8 7/7/7
f 1/1/1 9/9/9 8/8/8
f 7/7/7 8/8/8 10/10/10
f 8/8/8 9/9/9 11/11/11
f 8/8/8 11/11/11 10/10/10
f 9/9/9 12/12/12 11/11/11
f 10/10/10 11/11/11 13/13/13
f 11/11/11 12/12/12 14/14/14
f 11/11/11 14/14/14 13/13/13
f 12/12/12 15/15/15 14/14/14
f 13/13/13 14/14/14 16/16/16
f 14/14/14 15/15/15 17/17/17
f 14/14/14 17/17/17 16/16/16
f 15/15/15 18/18/18 17/17/17
f 17/17/17 18/18/18 19/19/19
f 16/16/16 17/17/17 20/20/20
f 20/20/20 17/17/17 19/19/19
f 21/21/21 16/16/16 20/20/20
f 20/20/20 19/19/19 22/22/22
f 21/21/21 20/20/20 23/23/23
f 23/23/23 20/20/20 22/22/22
f 23/23/23 22/22/22 24/24/24
f 25/25/25 21/21/21 23/23/23
f 26/26/26 23/23/23 24/24/24
f 25/25/25 23/23/23 26/26/26
f 27/27/27 25/25/25 26/26/26
f 30/30/30 29/29/29 28/28/28
f 31/31/31 30/30/30 28/28/28
f 31/31/31 28/28/28 32/32/32
f 33/33/33 30/30/30 31/31/31
f 34/34/34 31/31/31 32/32/32
f 34/34/34 32/32/32 35/35/35
f 36/36/36 33/33/33 31/31/31
f 36/36/36 31/31/31 34/34/34
f 37/37/37 33/33/33 36/36/36
f 38/38/38 34/34/34 35/35/35
f 38/38/38 35/35/35 39/39/39
f 40/40/40 38/38/38 39/39/39
f 41/41/41 36/36/36 34/34/34
f 41/41/41 34/34/34 38/38/38
f 42/42/42 38/38/38 40/40/40
f 42/42/42 41/41/41 38/38/38
f 43/43/43 42/42/42 40/40/40
f 44/44/44 37/37/37 36/36/36
f 44/44/44 36/36/36 41/41/41
f 45/45/45 41/41/41 42/42/42
f 45/45/45 44/44/44 41/41/41
f 46/46/46 42/42/42 43/43/43
f 46/46/46 45/45/45 42/42/42
f 47/47/47 46/46/46 43/43/43
f 47/47/47 48/48/48 46/46/46
f 48/48/48 49/49/49 46/46/46
f 46/46/46 49/49/49 45/45/45
f 48/48/48 50/50/50 49/49/49
f 44/44/44 51/51/51 37/37/37
f 51/51/51 52/52/52 37/37/37
f 45/45/45 53/53/53 44/44/44
f 49/49/49 53/53/53 45/45/45
f 53/53/53 51/51/51 44/44/44
f 50/50/50 54/54/54 49/49/49
f 49/49/49 54/54/54 53/53/53
f 50/50/50 55/55/55 54/54/54
f 51/51/51 56/56/56 52/52/52
f 56/56/56 57/57/57 52/52/52
f 53/53/53 58/58/58 51/51/51
f 54/54/54 58/58/58 53/53/53
f 58/58/58 56/56/56 51/51/51
f 55/55/55 59/59/59 54/54/54
f 54/54/54 59/59/59 58/58/58
f 55/55/55 60/60/60 59/59/59
f 56/56/56 61/61/61 57/57/57
f 61/61/61 62/62/62 57/57/57
f 58/58/58 63/63/63 56/56/56
f 59/59/59 63/63/63 58/58/58
f 63/63/63 61/61/61 56/56/56
f 60/60/60 64/64/64 59/59/59
f 59/59/59 64/64/64 63/63/63
f 61/61/61 65/65/65 62/62/62
f 65/65/65 66/66/66 62/62/62
f 67/67/67 66/66/66 65/65/65
f 68/68/68 67/67/67 65/65/65
f 63/63/63 69/69/69 61/61/61
f 69/69/69 65/65/65 61/61/61
f 68/68/68 65/65/65 69/69/69
f 64/64/64 69/69/69 63/63/63
f 70/70/70 68/68/68 69/69/69
f 70/70/70 69/69/69 64/64/64
f 71/71/71 70/70/70 64/64/64
f 71/71/71 64/64/64 60/60/60
f 72/72/72 71/71/71 60/60/60
f 75/75/75 74/74/74 73/73/73
f 76/76/76 75/75/75 73/73/73
f 77/77/77 75/75/75 76/76/76
f 76/76/76 73/73/73 78/78/78
f 79/79/79 77/77/77 76/76/76
f 80/80/80 77/77/77 79/79/79
f 81/81/81 76/76/76 78/78/78
f 79/79/79 76/76/76 81/81/81
f 82/82/82 81/81/81 78/78/78
f 83/83/83 82/82/82 78/78/78
f 84/84/84 82/82/82 83/83/83
f 85/85/85 84/84/84 83/83/83
f 84/84/84 86/86/86 82/82/82
f 86/86/86 87/87/87 82/82/82
f 82/82/82 87/87/87 81/81/81
f 86/86/86 88/88/88 87/87/87
f 89/89/89 79/79/79 81/81/81
f 87/87/87 89/89/89 81/81/81
f 90/90/90 80/80/80 79/79/79
f 90/90/90 79/79/79 89/89/89
f 88/88/88 91/91/91 87/87/87
f 87/87/87 91/91/91 89/89/89
f 90/90/90 92/92/92 80/80/80
f 92/92/92 93/93/93 80/80/80
f 94/94/94 90/90/90 89/89/89
f 91/91/91 94/94/94 89/89/89
f 94/94/94 95/95/95 90/90/90
f 95/95/95 94/94/94 91/91/91
f 95/95/95 92/92/92 90/90/90
f 96/96/96 91/91/91 88/88/88
f 96/96/96 95/95/95 91/91/91
f 97/97/97 96/96/96 88/88/88
f 92/92/92 98/98/98 93/93/93
f 98/98/98 99/99/99 93/93/93
f 95/95/95 100/100/100 92/92/92
f 100/100/100 95/95/95 96/96/96
f 100/100/100 98/98/98 92/92/92
f 101/101/101 96/96/96 97/97/97
f 101/101/101 100/100/100 96/96/96
f 102/102/102 101/101/101 97/97/97
f 98/98/98 103/103/103 99/99/99
f 103/103/103 104/104/104 99/99/99
f 100/100/100 105/105/105 98/98/98
f 105/105/105 100/100/100 101/101/101
f 105/105/105 103/103/103 98/98/98
f 105/105/105 106/106/106 103/103/103
f 107/107/107 101/101/101 102/102/102
f 107/107/107 105/105/105 101/101/101
f 106/106/106 105/105/105 107/107/107
f 108/108/108 107/107/107 102/102/102
f 103/103/103 109/109/109 104/104/104
f 106/106/106 109/109/109 103/103/103
f 109/109/109 110/110/110 104/104/104
f 111/111/111 110/110/110 109/109/109
f 112/112/112 111/111/111 109/109/109
f 112/112/112 109/109/109 106/106/106
f 113/113/113 112/112/112 106/106/106
f 114/114/114 113/113/113 106/106/106
f 115/115/115 107/107/107 108/108/108
f 115/115/115 106/106/106 107/107/107
f 115/115/115 114/114/114 106/106/106
f 116/116/116 115/115/115 108/108/108
f 117/117/117 114/114/114 115/115/115
f 116/116/116 117/117/117 115/115/115
