g 079Crt_lp.001
v 0.008396591 0.0005526027 0.00589651
v 0.007900341 0.0005526027 0.00652532
v 0.008263621 0.0005526027 0.006259554
v 0.007404093 0.0005526027 0.006622597
v 0.0052868 -0.0001020935 0.003745536
v 0.004590676 0.0005526027 0.006712237
v 0.00852684 0.0005526027 0.003478488
v 1.490116E-10 -0.0001020935 0.004012584
v 1.490116E-10 -0.0005526027 0
v 1.490116E-10 0.0005526027 0.006801876
v -0.004590676 0.0005526027 0.006712237
v 0.00531888 -0.0003167251 -6.466705E-11
v 0.008578581 0.0005526027 -1.293341E-10
v 0.008526842 0.0005526027 -0.003478488
v -0.0052868 -0.0001020935 0.003745536
v -0.007404094 0.0005526027 0.006622597
v 0.005286801 -0.0001020935 -0.003745536
v 0.008396591 0.0005526027 -0.00589651
v -0.008396591 0.0005526027 0.00589651
v -0.007900342 0.0005526027 0.00652532
v -0.008263621 0.0005526027 0.006259554
v -0.008526842 0.0005526027 0.003478488
v -0.005318879 -0.0003167251 6.466705E-11
v -0.008578581 0.0005526027 1.293341E-10
v -0.00852684 0.0005526027 -0.003478488
v -0.0052868 -0.0001020935 -0.003745536
v -0.008396591 0.0005526027 -0.00589651
v 1.490116E-10 -0.0001020935 -0.004012584
v 0.007404093 0.0005526027 -0.006622597
v 0.007900341 0.0005526027 -0.00652532
v 0.008263621 0.0005526027 -0.006259554
v 0.004590675 0.0005526027 -0.006712237
v 0 0.0005526027 -0.006801876
v -0.004590676 0.0005526027 -0.006712237
v -0.007404094 0.0005526027 -0.006622597
v -0.007900342 0.0005526027 -0.00652532
v -0.008263621 0.0005526027 -0.006259554
vt 0.9792125 0.8022966
vt 0.9508708 0.838429
vt 0.9716514 0.8231314
vt 0.9224389 0.8440899
vt 0.7990913 0.6773389
vt 0.7611356 0.8511186
vt 0.9880362 0.6636515
vt 0.498524 0.6937402
vt 0.4984498 0.4645358
vt 0.4985768 0.85711
vt 0.2360141 0.8512884
vt 0.7999864 0.4644383
vt 0.9918531 0.4643763
vt 0.9879073 0.2651036
vt 0.197946 0.6775333
vt 0.07470647 0.8443641
vt 0.7989537 0.2515385
vt 0.978994 0.1264641
vt 0.01790577 0.8026077
vt 0.04627082 0.8387215
vt 0.02548036 0.8234377
vt 0.008992314 0.6639681
vt 0.1969133 0.4646334
vt 0.005046457 0.4646955
vt 0.008863479 0.2654203
vt 0.1978084 0.2517329
vt 0.01768708 0.1267751
vt 0.4983757 0.2353315
vt 0.9221932 0.08470753
vt 0.9506288 0.09035015
vt 0.9714195 0.1056341
vt 0.7608855 0.0777832
vt 0.4983228 0.0719617
vt 0.235764 0.07795313
vt 0.07446074 0.0849818
vt 0.04602879 0.09064278
vt 0.0252482 0.1059402
vn 0.1184066 -0.9906748 0.06740525
vn 0 -1 0
vn 0 -1 0
vn 0.05847979 -0.987232 0.1481658
vn 0.06982685 -0.9917108 0.1078611
vn 0.005648236 -0.975199 0.221258
vn 0.2140773 -0.9765502 0.02281749
vn 1.607175E-06 -0.9881258 0.1536468
vn 0 -1 0
vn 0 -0.9735422 0.2285075
vn -0.005648251 -0.975199 0.2212579
vn 0.1107244 -0.9935098 -0.02604159
vn 0.2576832 -0.9662294 0
vn 0.2142879 -0.9765065 -0.02271087
vn -0.06988794 -0.9917167 0.1077676
vn -0.0584798 -0.987232 0.1481657
vn 0.09850889 -0.9861128 -0.133707
vn 0.1184066 -0.9906748 -0.06740534
vn -0.1184065 -0.9906748 0.06740525
vn 0 -1 0
vn 0 -1 0
vn -0.2142878 -0.9765065 0.02271091
vn -0.1005447 -0.9949325 0.0002787137
vn -0.2576831 -0.9662294 0
vn -0.2144141 -0.9764802 -0.02264697
vn -0.0666398 -0.9906219 -0.1192785
vn -0.1184065 -0.9906748 -0.06740522
vn -0.0003609643 -0.9881252 -0.1536507
vn 0.05847981 -0.987232 -0.1481658
vn 0 -1 0
vn 0 -1 -1.205786E-07
vn 0.00564825 -0.975199 -0.2212579
vn 0 -0.9735422 -0.2285076
vn -0.005648057 -0.975199 -0.2212577
vn -0.0584798 -0.987232 -0.1481657
vn 0 -1 0
vn 0 -1 0
g 079Crt_lp.001_0
f 3/3/3 2/2/2 1/1/1
f 4/4/4 1/1/1 2/2/2
f 5/5/5 1/1/1 4/4/4
f 6/6/6 5/5/5 4/4/4
f 7/7/7 1/1/1 5/5/5
f 5/5/5 6/6/6 8/8/8
f 8/8/8 9/9/9 5/5/5
f 6/6/6 10/10/10 8/8/8
f 8/8/8 10/10/10 11/11/11
f 5/5/5 12/12/12 7/7/7
f 9/9/9 12/12/12 5/5/5
f 12/12/12 13/13/13 7/7/7
f 14/14/14 13/13/13 12/12/12
f 15/15/15 8/8/8 11/11/11
f 9/9/9 8/8/8 15/15/15
f 11/11/11 16/16/16 15/15/15
f 17/17/17 14/14/14 12/12/12
f 17/17/17 12/12/12 9/9/9
f 14/14/14 17/17/17 18/18/18
f 15/15/15 16/16/16 19/19/19
f 20/20/20 19/19/19 16/16/16
f 21/21/21 19/19/19 20/20/20
f 22/22/22 15/15/15 19/19/19
f 15/15/15 22/22/22 23/23/23
f 23/23/23 9/9/9 15/15/15
f 22/22/22 24/24/24 23/23/23
f 23/23/23 24/24/24 25/25/25
f 26/26/26 23/23/23 25/25/25
f 9/9/9 23/23/23 26/26/26
f 25/25/25 27/27/27 26/26/26
f 28/28/28 17/17/17 9/9/9
f 28/28/28 9/9/9 26/26/26
f 17/17/17 29/29/29 18/18/18
f 30/30/30 18/18/18 29/29/29
f 31/31/31 18/18/18 30/30/30
f 32/32/32 29/29/29 17/17/17
f 17/17/17 28/28/28 32/32/32
f 28/28/28 33/33/33 32/32/32
f 33/33/33 28/28/28 34/34/34
f 28/28/28 26/26/26 34/34/34
f 34/34/34 26/26/26 35/35/35
f 26/26/26 27/27/27 35/35/35
f 35/35/35 27/27/27 36/36/36
f 36/36/36 27/27/27 37/37/37
