g 079Cables_lp.009
v 0.002340922 -0.004502369 -3.72529E-11
v 0.001812837 -0.006988639 -3.72529E-11
v 0.001849856 -0.006998281 -9.232841E-05
v 0.002378788 -0.004507815 -9.232841E-05
v 0.001939204 -0.007021552 -0.0001305831
v 0.002470176 -0.004520962 -0.0001305831
v 0.002028551 -0.007044824 -9.232845E-05
v 0.002561564 -0.004534108 -9.232841E-05
v 0.00206557 -0.007054466 -3.72529E-11
v 0.002599428 -0.004539554 -3.72529E-11
v 0.002561564 -0.004534108 9.232834E-05
v 0.002028551 -0.007044824 9.232834E-05
v 0.002470176 -0.004520962 0.0001305831
v 0.001939204 -0.007021552 0.0001305831
v 0.002378788 -0.004507815 9.232834E-05
v 0.001849856 -0.006998281 9.232834E-05
v 0.002340922 -0.004502369 -3.72529E-11
v 0.001812837 -0.006988639 -3.72529E-11
v 0.002480612 -0.00268617 -3.72529E-11
v 0.002340922 -0.004502369 -3.72529E-11
v 0.002378788 -0.004507815 -9.232841E-05
v 0.002518849 -0.002684983 -9.232841E-05
v 0.002304556 -0.00141712 -7.45058E-11
v 0.002470176 -0.004520962 -0.0001305831
v 0.002341139 -0.001405936 -9.232841E-05
v 0.001886625 -0.0005618691 -7.45058E-11
v 0.002611132 -0.00268212 -0.0001305831
v 0.002561564 -0.004534108 -9.232841E-05
v 0.002703416 -0.002679257 -9.232841E-05
v 0.002599428 -0.004539554 -3.72529E-11
v 0.002429433 -0.001378943 -0.0001305831
v 0.001917622 -0.0005394513 -9.232845E-05
v 0.001310925 5.179107E-05 -9.232849E-05
v 0.001287484 2.15596E-05 -7.45058E-11
v 0.001367502 0.0001247555 -0.0001305832
v 0.001992438 -0.0004853463 -0.0001305832
v 0.001424077 0.0001977193 -9.232849E-05
v 0.002517729 -0.001351951 -9.232845E-05
v 0.002067251 -0.0004312414 -9.232845E-05
v 0.001447518 0.0002279508 -7.45058E-11
v 0.002741654 -0.002678071 -3.72529E-11
v 0.002554312 -0.001340767 -3.72529E-11
v 0.002098248 -0.0004088241 -7.45058E-11
v 0.002067251 -0.0004312414 9.232834E-05
v 0.001424077 0.0001977193 9.232826E-05
v 0.002703416 -0.002679257 9.232834E-05
v 0.002561564 -0.004534108 9.232834E-05
v 0.002517729 -0.001351951 9.23283E-05
v 0.001992438 -0.0004853463 0.0001305831
v 0.001367502 0.0001247555 0.000130583
v 0.002611132 -0.00268212 0.0001305831
v 0.002470176 -0.004520962 0.0001305831
v 0.002429433 -0.001378943 0.0001305831
v 0.001917622 -0.0005394513 9.232834E-05
v 0.001310925 5.179107E-05 9.23283E-05
v 0.002518849 -0.002684983 9.232834E-05
v 0.002378788 -0.004507815 9.232834E-05
v 0.002341139 -0.001405936 9.232834E-05
v 0.001886625 -0.0005618691 -7.45058E-11
v 0.001287484 2.15596E-05 -7.45058E-11
v 0.002304556 -0.00141712 -7.45058E-11
v 0.002480612 -0.00268617 -3.72529E-11
v 0.002340922 -0.004502369 -3.72529E-11
v -0.002341666 0.003291858 -3.72529E-11
v -0.001770937 0.002176322 -7.45058E-11
v -0.001739743 0.002198465 -9.232845E-05
v -0.002305643 0.003304732 -9.232841E-05
v -0.002686384 0.004877144 3.72529E-11
v -0.001664452 0.002251906 -0.0001305832
v -0.002648404 0.004881705 -9.232834E-05
v -0.002741654 0.007054466 1.117587E-10
v -0.002703435 0.007052785 -9.232826E-05
v -0.002218699 0.003335804 -0.0001305831
v -0.001589162 0.002305348 -9.232849E-05
v -0.002556732 0.004892715 -0.0001305831
v -0.002611196 0.007048732 -0.000130583
v -0.002131755 0.003366877 -9.232841E-05
v -0.001557968 0.002327491 -7.45058E-11
v -0.002465064 0.004903725 -9.232834E-05
v -0.002518957 0.007044676 -9.23283E-05
v -0.002095733 0.003379751 -3.72529E-11
v -0.002427082 0.004908286 0
v -0.002480738 0.007042998 1.117587E-10
v -0.002518957 0.007044676 9.232849E-05
v -0.002465064 0.004903725 9.232841E-05
v -0.002611196 0.007048732 0.0001305832
v -0.002131755 0.003366877 9.232834E-05
v -0.001589162 0.002305348 9.23283E-05
v -0.002556732 0.004892715 0.0001305831
v -0.002703435 0.007052785 9.232853E-05
v -0.002218699 0.003335804 0.0001305831
v -0.001664452 0.002251906 0.000130583
v -0.002648404 0.004881705 9.232841E-05
v -0.002741654 0.007054466 1.117587E-10
v -0.002686384 0.004877144 3.72529E-11
v -0.002305643 0.003304732 9.232834E-05
v -0.001739743 0.002198465 9.232834E-05
v -0.002341666 0.003291858 -3.72529E-11
v -0.001770937 0.002176322 -7.45058E-11
v -0.00104501 0.001414675 -1.117587E-10
v -0.001739743 0.002198465 -9.232845E-05
v -0.001770937 0.002176322 -7.45058E-11
v -0.001020503 0.001444047 -9.232849E-05
v -0.000243175 0.000886386 -1.117587E-10
v -0.001664452 0.002251906 -0.0001305832
v -0.0002237153 0.0009193217 -9.232849E-05
v 0.0005576038 0.0004638386 -1.117587E-10
v -0.000961349 0.001514938 -0.0001305832
v -0.001589162 0.002305348 -9.232849E-05
v 0.0005764651 0.0004971206 -9.232849E-05
v 0.001287484 2.15596E-05 -7.45058E-11
v 0.001310925 5.179107E-05 -9.232849E-05
v -0.0001767516 0.0009988128 -0.0001305832
v -0.0009021973 0.001585829 -9.232849E-05
v -0.001557968 0.002327491 -7.45058E-11
v 0.0006219864 0.0005774468 -0.0001305832
v 0.001367502 0.0001247555 -0.0001305832
v -0.0001297855 0.001078304 -9.232853E-05
v 0.0006675076 0.0006577736 -9.232849E-05
v 0.001424077 0.0001977193 -9.232849E-05
v -0.0008776879 0.001615201 -1.117587E-10
v 0.0006863665 0.0006910556 -1.117587E-10
v 0.001447518 0.0002279508 -7.45058E-11
v 0.001424077 0.0001977193 9.232826E-05
v -0.0001103258 0.001111239 -1.117587E-10
v 0.0006675076 0.0006577736 9.232826E-05
v 0.001367502 0.0001247555 0.000130583
v -0.0009021973 0.001585829 9.232826E-05
v -0.001589162 0.002305348 9.23283E-05
v -0.0001297855 0.001078304 9.232826E-05
v 0.0006219864 0.0005774468 0.000130583
v 0.001310925 5.179107E-05 9.23283E-05
v -0.000961349 0.001514938 0.000130583
v -0.001664452 0.002251906 0.000130583
v -0.0001767516 0.0009988128 0.000130583
v 0.0005764651 0.00049712 9.232826E-05
v 0.001287484 2.15596E-05 -7.45058E-11
v 0.0005576038 0.0004638386 -1.117587E-10
v -0.0002237153 0.0009193217 9.23283E-05
v -0.000243175 0.000886386 -1.117587E-10
v -0.001020503 0.001444047 9.23283E-05
v -0.001739743 0.002198465 9.232834E-05
v -0.00104501 0.001414675 -1.117587E-10
v -0.001770937 0.002176322 -7.45058E-11
vt 0.8680831 0.879863
vt 0.7506285 0.8798416
vt 0.7505473 0.8844588
vt 0.8681995 0.8844798
vt 0.7503523 0.8890732
vt 0.8684818 0.8890895
vt 0.7501573 0.8936873
vt 0.8687641 0.893699
vt 0.7500762 0.8983048
vt 0.8688809 0.8983158
vt 0.8687633 0.9029321
vt 0.7501564 0.9029225
vt 0.8684801 0.9075419
vt 0.7503506 0.9075366
vt 0.868197 0.9121514
vt 0.7505447 0.9121509
vt 0.8680797 0.9167683
vt 0.7506252 0.9167683
vt 0.8321111 0.3972553
vt 0.7477203 0.3967384
vt 0.7475748 0.4013664
vt 0.8320847 0.4018957
vt 0.8921396 0.397463
vt 0.7472676 0.4059026
vt 0.8921246 0.4021271
vt 0.937813 0.397338
vt 0.8320565 0.4064182
vt 0.7469547 0.4105167
vt 0.8320354 0.4109413
vt 0.7468122 0.4152189
vt 0.8920936 0.4066491
vt 0.9378405 0.4020706
vt 0.9786045 0.4015721
vt 0.9783248 0.3967384
vt 0.9791696 0.4062524
vt 0.9378542 0.4067355
vt 0.9797396 0.4110514
vt 0.892071 0.411157
vt 0.9378557 0.4113197
vt 0.9799778 0.4159964
vt 0.8320244 0.4155029
vt 0.8920665 0.415703
vt 0.9378452 0.4158558
vt 0.9378254 0.4203918
vt 0.9797066 0.4209396
vt 0.8320051 0.4200647
vt 0.7469233 0.4199218
vt 0.8920407 0.4202488
vt 0.9377933 0.4249759
vt 0.9791046 0.4257344
vt 0.831996 0.4245877
vt 0.7472054 0.4245376
vt 0.8920332 0.4247572
vt 0.9377486 0.4296405
vt 0.9785083 0.4304111
vt 0.8319939 0.4291101
vt 0.7474824 0.4290761
vt 0.892034 0.4292789
vt 0.9376895 0.4343728
vt 0.9781962 0.4352429
vt 0.892018 0.433943
vt 0.8319895 0.4337504
vt 0.7475969 0.433705
vt 0.8043037 0.4387012
vt 0.7468122 0.4391026
vt 0.7470968 0.4436791
vt 0.8043108 0.4432904
vt 0.8786214 0.4389479
vt 0.7477548 0.4483197
vt 0.8786088 0.4435717
vt 0.977951 0.4392265
vt 0.9778131 0.443857
vt 0.8043082 0.447938
vt 0.7483994 0.4528667
vt 0.8785975 0.4481615
vt 0.9775063 0.4484088
vt 0.8042963 0.4526234
vt 0.7486643 0.457356
vt 0.8785864 0.4527456
vt 0.9772081 0.4528922
vt 0.8042837 0.4573559
vt 0.8785785 0.4573559
vt 0.9770867 0.457356
vt 0.9772081 0.4618193
vt 0.8785864 0.4619661
vt 0.9775062 0.4663029
vt 0.8042963 0.4620883
vt 0.7483994 0.4618454
vt 0.8785974 0.4665505
vt 0.9778131 0.4708548
vt 0.8043083 0.466774
vt 0.7477548 0.4663922
vt 0.8786088 0.4711402
vt 0.9779509 0.4754854
vt 0.8786213 0.4757639
vt 0.8043108 0.4714215
vt 0.7470968 0.4710326
vt 0.8043037 0.4760107
vt 0.7468122 0.4756093
vt 0.7955155 0.6389644
vt 0.7471073 0.6339189
vt 0.7468122 0.6385358
vt 0.7955183 0.6343503
vt 0.8395196 0.6385705
vt 0.7477764 0.629252
vt 0.8394846 0.633954
vt 0.8807473 0.6381996
vt 0.7955135 0.629679
vt 0.7484326 0.624666
vt 0.8807327 0.6336328
vt 0.9196164 0.6382867
vt 0.9198256 0.6337613
vt 0.8394557 0.6293635
vt 0.7954989 0.6249359
vt 0.7487035 0.6201242
vt 0.8807225 0.6290978
vt 0.9203163 0.6292387
vt 0.8394342 0.6247588
vt 0.8807191 0.6246006
vt 0.9208042 0.6246963
vt 0.795482 0.620124
vt 0.880722 0.6201242
vt 0.9210048 0.6201242
vt 0.920804 0.6155522
vt 0.8394223 0.6201241
vt 0.8807191 0.6156477
vt 0.9203164 0.6110098
vt 0.795499 0.6153124
vt 0.7484326 0.6155824
vt 0.8394342 0.6154895
vt 0.8807225 0.6111506
vt 0.9198256 0.6064871
vt 0.7955136 0.6105692
vt 0.7477764 0.6109963
vt 0.8394558 0.6108848
vt 0.8807327 0.6066155
vt 0.9196164 0.6019617
vt 0.8807474 0.6020488
vt 0.8394846 0.6062942
vt 0.8395198 0.6016776
vt 0.7955183 0.6058978
vt 0.7471073 0.6063293
vt 0.7955156 0.6012837
vt 0.7468123 0.6017125
vn -0.9897914 0.1425236 0
vn -0.9781827 0.2077467 0
vn -0.6865381 0.1457921 -0.7123272
vn -0.6917129 0.09958346 -0.7152736
vn 0.01086491 -0.002288957 -0.9999384
vn 0.01599205 -0.00225842 -0.9998696
vn 0.6974042 -0.1480508 -0.7012191
vn 0.7077442 -0.1017211 -0.6991072
vn 0.9782026 -0.2076529 0
vn 0.9898308 -0.1422502 0
vn 0.7077442 -0.1017211 0.6991072
vn 0.6974042 -0.1480508 0.7012191
vn 0.01599205 -0.00225842 0.9998696
vn 0.01086491 -0.002288957 0.9999384
vn -0.6917129 0.09958346 0.7152736
vn -0.6865381 0.1457921 0.7123272
vn -0.9897914 0.1425236 0
vn -0.9781827 0.2077467 0
vn -0.9995333 -0.03054969 0
vn -0.9897914 0.1425236 0
vn -0.6917129 0.09958346 -0.7152736
vn -0.6932359 -0.02124113 -0.7203977
vn -0.9564352 -0.2919448 0
vn 0.01599205 -0.00225842 -0.9998696
vn -0.6568459 -0.2005758 -0.7268582
vn -0.8100946 -0.5862992 0
vn 0.02612449 0.0008545393 -0.9996583
vn 0.7077442 -0.1017211 -0.6991072
vn 0.7193894 0.02252288 -0.6942418
vn 0.9898308 -0.1422502 0
vn 0.03671468 0.01129213 -0.9992619
vn -0.5549055 -0.401484 -0.7286224
vn -0.4240325 -0.5477875 -0.7211971
vn -0.6119737 -0.7908781 0
vn 0.01702959 0.02172952 -0.9996189
vn 0.03375412 0.02432372 -0.9991341
vn 0.4418907 0.5690346 -0.6934928
vn 0.6935481 0.2122914 -0.688421
vn 0.5889937 0.4255929 -0.6869914
vn 0.6134356 0.7897449 0
vn 0.9995087 0.03134337 0
vn 0.9561925 0.2927388 0
vn 0.8105561 0.5856611 0
vn 0.5889937 0.4255929 0.6869914
vn 0.4418907 0.5690346 0.6934928
vn 0.7193894 0.02252288 0.6942418
vn 0.7077442 -0.1017211 0.6991072
vn 0.6935481 0.2122914 0.688421
vn 0.03375412 0.02432372 0.9991341
vn 0.01702959 0.02172952 0.9996189
vn 0.02612449 0.0008545393 0.9996583
vn 0.01599205 -0.00225842 0.9998696
vn 0.03671468 0.01129213 0.9992619
vn -0.5549055 -0.401484 0.7286224
vn -0.4240325 -0.5477875 0.7211971
vn -0.6932359 -0.02124113 0.7203977
vn -0.6917129 0.09958346 0.7152736
vn -0.6568459 -0.2005758 0.7268582
vn -0.8100946 -0.5862992 0
vn -0.6119737 -0.7908781 0
vn -0.9564352 -0.2919448 0
vn -0.9995333 -0.03054969 0
vn -0.9897914 0.1425236 0
vn -0.9415962 -0.3367443 0
vn -0.815536 -0.5787063 0
vn -0.5902748 -0.4188781 -0.6900121
vn -0.6799963 -0.2431763 -0.6917156
vn -0.9928474 -0.1193907 0
vn -0.02868805 -0.02032579 -0.9993818
vn -0.7131026 -0.08572735 -0.6957985
vn -0.9996791 -0.02533074 0
vn -0.7159516 -0.01812845 -0.6979146
vn -0.02963416 -0.01062069 -0.9995044
vn 0.5614625 0.3986119 -0.7251678
vn -0.02273657 -0.0027467 -0.9997377
vn -0.0168769 -0.0004272634 -0.9998574
vn 0.6504025 0.232315 -0.7231917
vn 0.815384 0.5789205 0
vn 0.690331 0.08276647 -0.7187439
vn 0.6991261 0.01757886 -0.7147822
vn 0.9417489 0.3363171 0
vn 0.9928916 0.1190225 0
vn 0.9996845 0.02511724 0
vn 0.6991261 0.01757886 0.7147822
vn 0.690331 0.08276647 0.7187439
vn -0.0168769 -0.0004272634 0.9998574
vn 0.6504025 0.232315 0.7231917
vn 0.5614625 0.3986119 0.7251678
vn -0.02273657 -0.0027467 0.9997377
vn -0.7159516 -0.01812845 0.6979146
vn -0.02963416 -0.01062069 0.9995044
vn -0.02868805 -0.02032579 0.9993818
vn -0.7131026 -0.08572735 0.6957985
vn -0.9996791 -0.02533074 0
vn -0.9928474 -0.1193907 0
vn -0.6799963 -0.2431763 0.6917156
vn -0.5902748 -0.4188781 0.6900121
vn -0.9415962 -0.3367443 0
vn -0.815536 -0.5787063 0
vn -0.6410875 -0.7674678 0
vn -0.5902748 -0.4188781 -0.6900121
vn -0.815536 -0.5787063 0
vn -0.4617825 -0.5529121 -0.6935741
vn -0.5089421 -0.8608007 0
vn -0.02868805 -0.02032579 -0.9993818
vn -0.3627838 -0.6137142 -0.7012437
vn -0.4926676 -0.8702176 0
vn -0.01773155 -0.02111916 -0.9996197
vn 0.5614625 0.3986119 -0.7251678
vn -0.3466052 -0.6121518 -0.7107285
vn -0.6119737 -0.7908781 0
vn -0.4240325 -0.5477875 -0.7211971
vn -0.005981767 -0.01004082 -0.9999317
vn 0.4435951 0.53207 -0.7211968
vn 0.815384 0.5789205 0
vn 0.003631717 0.006317357 -0.9999735
vn 0.01702959 0.02172952 -0.9996189
vn 0.3564603 0.6038157 -0.7129816
vn 0.3505747 0.6183507 -0.7033773
vn 0.4418907 0.5690346 -0.6934928
vn 0.6402565 0.7681612 0
vn 0.4932505 0.8698874 0
vn 0.6134356 0.7897449 0
vn 0.4418907 0.5690346 0.6934928
vn 0.5083066 0.8611761 0
vn 0.3505747 0.6183507 0.7033773
vn 0.01702959 0.02172952 0.9996189
vn 0.4435951 0.53207 0.7211968
vn 0.5614625 0.3986119 0.7251678
vn 0.3564603 0.6038157 0.7129816
vn 0.003631717 0.006317357 0.9999735
vn -0.4240325 -0.5477875 0.7211971
vn -0.01773155 -0.02111916 0.9996197
vn -0.02868805 -0.02032579 0.9993818
vn -0.005981767 -0.01004082 0.9999317
vn -0.3466052 -0.6121518 0.7107285
vn -0.6119737 -0.7908781 0
vn -0.4926676 -0.8702176 0
vn -0.3627838 -0.6137142 0.7012437
vn -0.5089421 -0.8608007 0
vn -0.4617825 -0.5529121 0.6935741
vn -0.5902748 -0.4188781 0.6900121
vn -0.6410875 -0.7674678 0
vn -0.815536 -0.5787063 0
g 079Cables_lp.009_0
f 3/3/3 2/2/2 1/1/1
f 4/4/4 3/3/3 1/1/1
f 5/5/5 3/3/3 4/4/4
f 6/6/6 5/5/5 4/4/4
f 7/7/7 5/5/5 6/6/6
f 8/8/8 7/7/7 6/6/6
f 9/9/9 7/7/7 8/8/8
f 10/10/10 9/9/9 8/8/8
f 10/10/10 11/11/11 9/9/9
f 11/11/11 12/12/12 9/9/9
f 11/11/11 13/13/13 12/12/12
f 13/13/13 14/14/14 12/12/12
f 13/13/13 15/15/15 14/14/14
f 15/15/15 16/16/16 14/14/14
f 15/15/15 17/17/17 16/16/16
f 17/17/17 18/18/18 16/16/16
f 21/21/21 20/20/20 19/19/19
f 22/22/22 21/21/21 19/19/19
f 22/22/22 19/19/19 23/23/23
f 24/24/24 21/21/21 22/22/22
f 25/25/25 22/22/22 23/23/23
f 25/25/25 23/23/23 26/26/26
f 27/27/27 24/24/24 22/22/22
f 27/27/27 22/22/22 25/25/25
f 28/28/28 24/24/24 27/27/27
f 29/29/29 28/28/28 27/27/27
f 30/30/30 28/28/28 29/29/29
f 31/31/31 27/27/27 25/25/25
f 29/29/29 27/27/27 31/31/31
f 32/32/32 25/25/25 26/26/26
f 31/31/31 25/25/25 32/32/32
f 33/33/33 32/32/32 26/26/26
f 34/34/34 33/33/33 26/26/26
f 33/33/33 35/35/35 32/32/32
f 35/35/35 36/36/36 32/32/32
f 36/36/36 31/31/31 32/32/32
f 35/35/35 37/37/37 36/36/36
f 38/38/38 29/29/29 31/31/31
f 38/38/38 31/31/31 36/36/36
f 37/37/37 39/39/39 36/36/36
f 39/39/39 38/38/38 36/36/36
f 37/37/37 40/40/40 39/39/39
f 41/41/41 30/30/30 29/29/29
f 41/41/41 29/29/29 38/38/38
f 42/42/42 38/38/38 39/39/39
f 42/42/42 41/41/41 38/38/38
f 40/40/40 43/43/43 39/39/39
f 43/43/43 42/42/42 39/39/39
f 44/44/44 43/43/43 40/40/40
f 43/43/43 44/44/44 42/42/42
f 45/45/45 44/44/44 40/40/40
f 41/41/41 46/46/46 30/30/30
f 46/46/46 47/47/47 30/30/30
f 42/42/42 48/48/48 41/41/41
f 44/44/44 48/48/48 42/42/42
f 48/48/48 46/46/46 41/41/41
f 49/49/49 44/44/44 45/45/45
f 44/44/44 49/49/49 48/48/48
f 50/50/50 49/49/49 45/45/45
f 46/46/46 51/51/51 47/47/47
f 51/51/51 52/52/52 47/47/47
f 48/48/48 53/53/53 46/46/46
f 49/49/49 53/53/53 48/48/48
f 53/53/53 51/51/51 46/46/46
f 54/54/54 49/49/49 50/50/50
f 49/49/49 54/54/54 53/53/53
f 55/55/55 54/54/54 50/50/50
f 51/51/51 56/56/56 52/52/52
f 56/56/56 57/57/57 52/52/52
f 53/53/53 58/58/58 51/51/51
f 54/54/54 58/58/58 53/53/53
f 58/58/58 56/56/56 51/51/51
f 59/59/59 54/54/54 55/55/55
f 54/54/54 59/59/59 58/58/58
f 60/60/60 59/59/59 55/55/55
f 59/59/59 61/61/61 58/58/58
f 58/58/58 61/61/61 56/56/56
f 61/61/61 62/62/62 56/56/56
f 56/56/56 62/62/62 57/57/57
f 62/62/62 63/63/63 57/57/57
f 66/66/66 65/65/65 64/64/64
f 67/67/67 66/66/66 64/64/64
f 67/67/67 64/64/64 68/68/68
f 69/69/69 66/66/66 67/67/67
f 70/70/70 67/67/67 68/68/68
f 70/70/70 68/68/68 71/71/71
f 72/72/72 70/70/70 71/71/71
f 73/73/73 69/69/69 67/67/67
f 73/73/73 67/67/67 70/70/70
f 74/74/74 69/69/69 73/73/73
f 75/75/75 70/70/70 72/72/72
f 75/75/75 73/73/73 70/70/70
f 76/76/76 75/75/75 72/72/72
f 77/77/77 74/74/74 73/73/73
f 77/77/77 73/73/73 75/75/75
f 78/78/78 74/74/74 77/77/77
f 79/79/79 75/75/75 76/76/76
f 79/79/79 77/77/77 75/75/75
f 80/80/80 79/79/79 76/76/76
f 81/81/81 78/78/78 77/77/77
f 81/81/81 77/77/77 79/79/79
f 82/82/82 79/79/79 80/80/80
f 82/82/82 81/81/81 79/79/79
f 83/83/83 82/82/82 80/80/80
f 83/83/83 84/84/84 82/82/82
f 84/84/84 85/85/85 82/82/82
f 82/82/82 85/85/85 81/81/81
f 84/84/84 86/86/86 85/85/85
f 81/81/81 87/87/87 78/78/78
f 85/85/85 87/87/87 81/81/81
f 87/87/87 88/88/88 78/78/78
f 86/86/86 89/89/89 85/85/85
f 85/85/85 89/89/89 87/87/87
f 86/86/86 90/90/90 89/89/89
f 87/87/87 91/91/91 88/88/88
f 89/89/89 91/91/91 87/87/87
f 91/91/91 92/92/92 88/88/88
f 90/90/90 93/93/93 89/89/89
f 89/89/89 93/93/93 91/91/91
f 90/90/90 94/94/94 93/93/93
f 94/94/94 95/95/95 93/93/93
f 91/91/91 96/96/96 92/92/92
f 93/93/93 96/96/96 91/91/91
f 93/93/93 95/95/95 96/96/96
f 96/96/96 97/97/97 92/92/92
f 95/95/95 98/98/98 96/96/96
f 96/96/96 98/98/98 97/97/97
f 98/98/98 99/99/99 97/97/97
f 102/102/102 101/101/101 100/100/100
f 101/101/101 103/103/103 100/100/100
f 100/100/100 103/103/103 104/104/104
f 101/101/101 105/105/105 103/103/103
f 103/103/103 106/106/106 104/104/104
f 104/104/104 106/106/106 107/107/107
f 105/105/105 108/108/108 103/103/103
f 103/103/103 108/108/108 106/106/106
f 105/105/105 109/109/109 108/108/108
f 106/106/106 110/110/110 107/107/107
f 107/107/107 110/110/110 111/111/111
f 110/110/110 112/112/112 111/111/111
f 108/108/108 113/113/113 106/106/106
f 106/106/106 113/113/113 110/110/110
f 109/109/109 114/114/114 108/108/108
f 108/108/108 114/114/114 113/113/113
f 109/109/109 115/115/115 114/114/114
f 110/110/110 116/116/116 112/112/112
f 113/113/113 116/116/116 110/110/110
f 116/116/116 117/117/117 112/112/112
f 114/114/114 118/118/118 113/113/113
f 113/113/113 118/118/118 116/116/116
f 116/116/116 119/119/119 117/117/117
f 118/118/118 119/119/119 116/116/116
f 119/119/119 120/120/120 117/117/117
f 115/115/115 121/121/121 114/114/114
f 114/114/114 121/121/121 118/118/118
f 119/119/119 122/122/122 120/120/120
f 122/122/122 123/123/123 120/120/120
f 124/124/124 123/123/123 122/122/122
f 118/118/118 125/125/125 119/119/119
f 125/125/125 122/122/122 119/119/119
f 121/121/121 125/125/125 118/118/118
f 126/126/126 124/124/124 122/122/122
f 126/126/126 122/122/122 125/125/125
f 127/127/127 124/124/124 126/126/126
f 128/128/128 121/121/121 115/115/115
f 129/129/129 128/128/128 115/115/115
f 130/130/130 125/125/125 121/121/121
f 130/130/130 126/126/126 125/125/125
f 128/128/128 130/130/130 121/121/121
f 131/131/131 127/127/127 126/126/126
f 131/131/131 126/126/126 130/130/130
f 132/132/132 127/127/127 131/131/131
f 133/133/133 128/128/128 129/129/129
f 134/134/134 133/133/133 129/129/129
f 135/135/135 130/130/130 128/128/128
f 135/135/135 131/131/131 130/130/130
f 133/133/133 135/135/135 128/128/128
f 136/136/136 132/132/132 131/131/131
f 136/136/136 131/131/131 135/135/135
f 137/137/137 132/132/132 136/136/136
f 138/138/138 137/137/137 136/136/136
f 139/139/139 136/136/136 135/135/135
f 138/138/138 136/136/136 139/139/139
f 139/139/139 135/135/135 133/133/133
f 140/140/140 138/138/138 139/139/139
f 141/141/141 133/133/133 134/134/134
f 141/141/141 139/139/139 133/133/133
f 140/140/140 139/139/139 141/141/141
f 142/142/142 141/141/141 134/134/134
f 143/143/143 140/140/140 141/141/141
f 143/143/143 141/141/141 142/142/142
f 144/144/144 143/143/143 142/142/142
