g 079Cables_lp.008
v -0.002056457 -0.003342156 7.45058E-11
v -0.00242695 -0.004552774 7.45058E-11
v -0.002389728 -0.004561605 -9.232826E-05
v -0.002020665 -0.003355668 -9.232834E-05
v -0.001586372 -0.002303402 3.72529E-11
v -0.002299892 -0.00458292 -0.000130583
v -0.001552464 -0.002321114 -9.232834E-05
v -0.001045948 -0.00139698 3.72529E-11
v -0.001934291 -0.00338828 -0.0001305831
v -0.00221006 -0.004604234 -9.232826E-05
v -0.001013924 -0.001417907 -9.232834E-05
v -0.0004647791 -0.0005826849 0
v -0.0004340994 -0.0006055379 -9.232834E-05
v -0.001847912 -0.003420891 -9.23283E-05
v -0.002172838 -0.004613066 1.117587E-10
v -0.001470624 -0.002363862 -0.0001305831
v -0.0009366381 -0.001468416 -0.0001305831
v -0.0003600561 -0.000660693 -0.0001305831
v -0.001388789 -0.00240661 -9.232834E-05
v -0.0008593476 -0.001518924 -9.232834E-05
v -0.0002860129 -0.0007158482 -9.232837E-05
v -0.001812121 -0.003434404 7.45058E-11
v -0.001354881 -0.002424321 7.45058E-11
v -0.000827328 -0.001539851 3.72529E-11
v -0.0002553379 -0.0007387006 3.72529E-11
v -0.0002860129 -0.0007158482 9.232841E-05
v -0.0008593476 -0.001518924 9.232841E-05
v -0.0003600561 -0.000660693 0.0001305831
v -0.001847912 -0.003420891 9.232849E-05
v -0.00221006 -0.004604234 9.232849E-05
v -0.002299892 -0.00458292 0.0001305832
v -0.001388789 -0.00240661 9.232845E-05
v -0.0009366381 -0.001468416 0.0001305831
v -0.0004340994 -0.0006055379 9.232841E-05
v -0.001470624 -0.002363862 0.0001305832
v -0.001013924 -0.001417907 9.232841E-05
v -0.0004647791 -0.0005826849 0
v -0.001045948 -0.00139698 3.72529E-11
v -0.001552464 -0.002321114 9.232845E-05
v -0.001586372 -0.002303402 3.72529E-11
v -0.001934291 -0.00338828 0.0001305832
v -0.002020665 -0.003355668 9.232845E-05
v -0.002056457 -0.003342156 7.45058E-11
v -0.002389728 -0.004561605 9.232849E-05
v -0.00242695 -0.004552774 7.45058E-11
v 0.0001279676 0.0001802957 0
v -0.0004647791 -0.0005826849 0
v -0.0004340994 -0.0006055379 -9.232834E-05
v 0.0001582658 0.0001569354 -9.232837E-05
v 0.0007040345 0.000932979 0
v -0.0003600561 -0.000660693 -0.0001305831
v 0.0007350623 0.0009105992 -9.232841E-05
v 0.00123629 0.001716442 -3.72529E-11
v 0.001268986 0.001696578 -9.232841E-05
v 0.0002313793 0.0001005572 -0.0001305831
v -0.0002860129 -0.0007158482 -9.232837E-05
v 0.0008099401 0.0008565843 -0.0001305831
v 0.001347893 0.001648639 -0.0001305831
v 0.0003044975 4.417896E-05 -9.232837E-05
v -0.0002553379 -0.0007387006 3.72529E-11
v 0.0008848226 0.0008025705 -9.232841E-05
v 0.001426801 0.001600699 -9.232841E-05
v 0.0003347909 2.081871E-05 0
v 0.0009158456 0.0007801902 0
v 0.001459492 0.001580836 0
v 0.001426801 0.001600699 9.232837E-05
v 0.0008848226 0.0008025705 9.232837E-05
v 0.001347893 0.001648639 0.0001305831
v 0.0003044975 4.417896E-05 9.232841E-05
v -0.0002860129 -0.0007158482 9.232841E-05
v 0.0008099401 0.0008565843 0.0001305831
v 0.001268986 0.001696578 9.232837E-05
v 0.0002313793 0.0001005572 0.0001305831
v -0.0003600561 -0.000660693 0.0001305831
v 0.0007350623 0.0009105992 9.232837E-05
v 0.00123629 0.001716442 -3.72529E-11
v 0.0007040345 0.000932979 0
v 0.0001582658 0.0001569354 9.232841E-05
v -0.0004340994 -0.0006055379 9.232841E-05
v 0.0001279676 0.0001802957 0
v -0.0004647791 -0.0005826849 0
v 0.001698717 0.002572214 -3.72529E-11
v 0.00123629 0.001716442 -3.72529E-11
v 0.001268986 0.001696578 -9.232841E-05
v 0.001733516 0.002556323 -9.232841E-05
v 0.001347893 0.001648639 -0.0001305831
v 0.002065824 0.003542901 -3.72529E-11
v 0.001817502 0.002517968 -0.0001305831
v 0.001426801 0.001600699 -9.232841E-05
v 0.002102503 0.00353204 -9.232845E-05
v 0.001901487 0.002479614 -9.232841E-05
v 0.001459492 0.001580836 0
v 0.002349373 0.004666659 -9.232845E-05
v 0.00231151 0.004672128 -3.72529E-11
v 0.002440752 0.00465346 -0.0001305832
v 0.002191032 0.003505826 -0.0001305832
v 0.002532133 0.004640258 -9.232845E-05
v 0.002279562 0.003479612 -9.232845E-05
v 0.002569994 0.004634789 -3.72529E-11
v 0.001936282 0.002463723 -3.72529E-11
v 0.002316242 0.003468751 -3.72529E-11
v 0.002279562 0.003479612 9.232834E-05
v 0.002532133 0.004640258 9.232834E-05
v 0.001901487 0.002479614 9.232834E-05
v 0.001426801 0.001600699 9.232837E-05
v 0.002191032 0.003505826 0.0001305831
v 0.002440752 0.00465346 0.0001305831
v 0.001817502 0.002517968 0.0001305831
v 0.001347893 0.001648639 0.0001305831
v 0.002102503 0.00353204 9.232834E-05
v 0.002349373 0.004666659 9.232834E-05
v 0.001733516 0.002556323 9.232837E-05
v 0.001268986 0.001696578 9.232837E-05
v 0.002065824 0.003542901 -3.72529E-11
v 0.00231151 0.004672128 -3.72529E-11
v 0.001698717 0.002572214 -3.72529E-11
v 0.00123629 0.001716442 -3.72529E-11
v -0.002669507 -0.005974766 1.117587E-10
v -0.002389728 -0.004561605 -9.232826E-05
v -0.00242695 -0.004552774 7.45058E-11
v -0.002631479 -0.005978945 -9.232826E-05
v -0.002299892 -0.00458292 -0.000130583
v -0.002539707 -0.005989032 -0.000130583
v -0.00221006 -0.004604234 -9.232826E-05
v -0.002447931 -0.005999119 -9.232826E-05
v -0.002172838 -0.004613066 1.117587E-10
v -0.002409903 -0.006003297 1.117587E-10
v -0.002447931 -0.005999119 9.232849E-05
v -0.00221006 -0.004604234 9.232849E-05
v -0.002539707 -0.005989032 0.0001305832
v -0.002299892 -0.00458292 0.0001305832
v -0.002631479 -0.005978945 9.232849E-05
v -0.002389728 -0.004561605 9.232849E-05
v -0.002669507 -0.005974766 1.117587E-10
v -0.00242695 -0.004552774 7.45058E-11
v 0.00231151 0.004672128 -3.72529E-11
v 0.002446605 0.006002952 -9.232845E-05
v 0.002408351 0.006003297 -7.45058E-11
v 0.002349373 0.004666659 -9.232845E-05
v 0.002538928 0.006002122 -0.0001305832
v 0.002440752 0.00465346 -0.0001305832
v 0.002631253 0.006001292 -9.232845E-05
v 0.002532133 0.004640258 -9.232845E-05
v 0.002669507 0.006000947 -7.45058E-11
v 0.002569994 0.004634789 -3.72529E-11
v 0.002532133 0.004640258 9.232834E-05
v 0.002631253 0.006001292 9.232834E-05
v 0.002440752 0.00465346 0.0001305831
v 0.002538928 0.006002122 0.0001305831
v 0.002349373 0.004666659 9.232834E-05
v 0.002446605 0.006002952 9.232834E-05
v 0.00231151 0.004672128 -3.72529E-11
v 0.002408351 0.006003297 -7.45058E-11
vt 0.8052683 0.519895
vt 0.7468122 0.5200842
vt 0.7469402 0.5246965
vt 0.8052711 0.5245043
vt 0.8576474 0.5200444
vt 0.7472323 0.5293524
vt 0.857637 0.5246518
vt 0.9057975 0.5202214
vt 0.8052707 0.5291575
vt 0.7475213 0.5339615
vt 0.9057807 0.5247982
vt 0.951237 0.520459
vt 0.9511762 0.5250295
vt 0.8052658 0.5338327
vt 0.7476417 0.5385318
vt 0.8576271 0.5292767
vt 0.9057664 0.5293742
vt 0.9510665 0.5295705
vt 0.8576167 0.533907
vt 0.9057541 0.5339624
vt 0.9509645 0.534083
vt 0.8052585 0.538524
vt 0.8576077 0.5385488
vt 0.9057452 0.5385677
vt 0.9509234 0.5385854
vt 0.950961 0.5430875
vt 0.9057505 0.543173
vt 0.9510595 0.5476001
vt 0.805263 0.543215
vt 0.7475232 0.5431021
vt 0.7472388 0.5476651
vt 0.8576132 0.5431909
vt 0.9057593 0.5477614
vt 0.9511658 0.5521413
vt 0.85762 0.5478213
vt 0.90577 0.5523373
vt 0.951223 0.5567116
vt 0.9057833 0.5569142
vt 0.8576262 0.5524466
vt 0.8576329 0.5570541
vt 0.8052602 0.5478992
vt 0.8052572 0.5525522
vt 0.8052509 0.5571611
vt 0.7469435 0.5523192
vt 0.7468122 0.5569305
vt 0.3397799 0.8263202
vt 0.2950662 0.8263038
vt 0.2951004 0.8309286
vt 0.3397751 0.8309458
vt 0.3836769 0.8263913
vt 0.2951851 0.8355504
vt 0.3836798 0.8310181
vt 0.4276138 0.8262523
vt 0.4277189 0.8308659
vt 0.3397708 0.8355582
vt 0.2952701 0.8401743
vt 0.3836818 0.8356306
vt 0.427951 0.8354943
vt 0.3397684 0.8401766
vt 0.2953049 0.8448018
vt 0.3836852 0.8402231
vt 0.4281791 0.8401418
vt 0.3397676 0.8448018
vt 0.3836894 0.8448018
vt 0.4282723 0.8448018
vt 0.4281791 0.8494619
vt 0.3836853 0.8493807
vt 0.4279509 0.8541093
vt 0.3397684 0.8494273
vt 0.29527 0.8494294
vt 0.3836818 0.8539728
vt 0.4277189 0.8587378
vt 0.3397708 0.8540455
vt 0.2951851 0.8540534
vt 0.3836798 0.8585854
vt 0.4276138 0.8633514
vt 0.383677 0.8632124
vt 0.339775 0.8586576
vt 0.2951004 0.8586751
vt 0.3397799 0.8632838
vt 0.2950662 0.8632998
vt 0.8125157 0.6685076
vt 0.7672505 0.6682498
vt 0.7671342 0.6728993
vt 0.8125041 0.6731569
vt 0.7668916 0.6774923
vt 0.8610059 0.6684394
vt 0.812492 0.6777374
vt 0.7666484 0.6821314
vt 0.8610154 0.6730785
vt 0.8124874 0.6822931
vt 0.766543 0.6868223
vt 0.9151883 0.6729211
vt 0.9150454 0.6682498
vt 0.9155083 0.6775273
vt 0.8610209 0.677704
vt 0.9158303 0.682185
vt 0.8610241 0.6823013
vt 0.9159651 0.6869038
vt 0.8124906 0.6868473
vt 0.8610243 0.6868739
vt 0.8610191 0.6914462
vt 0.9158252 0.6916227
vt 0.8124825 0.6914012
vt 0.7666432 0.6915134
vt 0.8610107 0.6960437
vt 0.9154982 0.6962799
vt 0.8124821 0.6959572
vt 0.7668814 0.6961525
vt 0.8610004 0.7006687
vt 0.915173 0.7008857
vt 0.8124892 0.7005377
vt 0.767119 0.7007459
vt 0.8609857 0.7053078
vt 0.9150251 0.7055568
vt 0.8124956 0.7051872
vt 0.7672302 0.7053953
vt 0.5985582 0.3233178
vt 0.6651047 0.3279373
vt 0.665218 0.3233205
vt 0.5986632 0.3279349
vt 0.6648316 0.3325476
vt 0.5989166 0.3325462
vt 0.6645585 0.3371574
vt 0.59917 0.3371574
vt 0.6644453 0.3417747
vt 0.5992751 0.3417745
vt 0.59917 0.3463915
vt 0.6645586 0.3463913
vt 0.5989166 0.3510031
vt 0.6648316 0.3510013
vt 0.5986632 0.3556141
vt 0.6651047 0.3556116
vt 0.5985582 0.3602311
vt 0.665218 0.3602287
vt 0.623521 0.1820894
vt 0.6853099 0.1867062
vt 0.6851976 0.1820894
vt 0.623396 0.186706
vt 0.6855814 0.1913163
vt 0.6230941 0.191314
vt 0.6858527 0.1959263
vt 0.6227921 0.1959227
vt 0.6859648 0.2005436
vt 0.6226668 0.2005393
vt 0.6227915 0.2051559
vt 0.685852 0.2051606
vt 0.6230929 0.2097643
vt 0.68558 0.2097707
vt 0.6233941 0.2143727
vt 0.685308 0.2143807
vt 0.6235185 0.2189892
vt 0.685195 0.2189978
vn -0.9355606 0.3531662 0
vn -0.9729897 0.2308489 0
vn -0.6954145 0.1649877 -0.6994125
vn -0.6686698 0.2524221 -0.6994025
vn -0.8863894 0.4629404 0
vn -0.01516771 0.003570668 -0.9998786
vn -0.6327245 0.3304621 -0.7003245
vn -0.8371373 0.5469928 0
vn -0.01458786 0.005493335 -0.9998785
vn 0.6802554 -0.1613886 -0.7149869
vn -0.596077 0.3894903 -0.7021323
vn -0.8019806 0.5973501 0
vn -0.5690546 0.4238459 -0.7046499
vn 0.6540583 -0.2469314 -0.7150053
vn 0.9729897 -0.2308489 0
vn -0.01214671 0.006317511 -0.9999063
vn -0.008392682 0.005462873 -0.9999499
vn -0.00393696 0.002929831 -0.999988
vn 0.620546 -0.3241745 -0.7140262
vn 0.5876513 -0.3840868 -0.71214
vn 0.5650665 -0.4209539 -0.7095758
vn 0.9355366 -0.3532296 0
vn 0.8863388 -0.4630373 0
vn 0.837054 -0.5471202 0
vn 0.8019295 -0.5974186 0
vn 0.5650665 -0.4209539 0.7095758
vn 0.5876513 -0.3840868 0.71214
vn -0.00393696 0.002929831 0.999988
vn 0.6540583 -0.2469314 0.7150053
vn 0.6802554 -0.1613886 0.7149869
vn -0.01516771 0.003570668 0.9998786
vn 0.620546 -0.3241745 0.7140262
vn -0.008392682 0.005462873 0.9999499
vn -0.5690546 0.4238459 0.7046499
vn -0.01214671 0.006317511 0.9999063
vn -0.596077 0.3894903 0.7021323
vn -0.8019806 0.5973501 0
vn -0.8371373 0.5469928 0
vn -0.6327245 0.3304621 0.7003245
vn -0.8863894 0.4629404 0
vn -0.01458786 0.005493335 0.9998785
vn -0.6686698 0.2524221 0.6994025
vn -0.9355606 0.3531662 0
vn -0.6954145 0.1649877 0.6994125
vn -0.9729897 0.2308489 0
vn -0.7919154 0.6106307 0
vn -0.8019806 0.5973501 0
vn -0.5690546 0.4238459 -0.7046499
vn -0.5596025 0.4315129 -0.7075603
vn -0.8109777 0.5850771 0
vn -0.00393696 0.002929831 -0.999988
vn -0.5706171 0.4116733 -0.7105781
vn -0.854579 0.5193213 0
vn -0.5989154 0.3639455 -0.7133331
vn 0.0006714275 -0.0005188303 -0.9999996
vn 0.5650665 -0.4209539 -0.7095758
vn 0.005584926 -0.003997952 -0.9999764
vn 0.01052905 -0.00637847 -0.9999243
vn 0.560335 -0.4320622 -0.7066448
vn 0.8019295 -0.5974186 0
vn 0.5762623 -0.4156401 -0.7036796
vn 0.6095257 -0.3702567 -0.7009912
vn 0.7919154 -0.6106307 0
vn 0.8110565 -0.5849679 0
vn 0.8546932 -0.5191334 0
vn 0.6095325 -0.3702303 0.700999
vn 0.5762623 -0.4156401 0.7036796
vn 0.01052905 -0.00637847 0.9999243
vn 0.5603229 -0.4320529 0.70666
vn 0.5650665 -0.4209539 0.7095758
vn 0.005584926 -0.003997952 0.9999764
vn -0.5989154 0.3639455 0.7133331
vn 0.0006714275 -0.0005188303 0.9999996
vn -0.00393696 0.002929831 0.999988
vn -0.5706171 0.4116733 0.7105781
vn -0.854579 0.5193213 0
vn -0.8109777 0.5850771 0
vn -0.5596025 0.4315129 0.7075603
vn -0.5690546 0.4238459 0.7046499
vn -0.7919154 0.6106307 0
vn -0.8019806 0.5973501 0
vn -0.9095978 0.41549 0
vn -0.854579 0.5193213 0
vn -0.5989154 0.3639455 -0.7133331
vn -0.6356048 0.2903041 -0.715353
vn 0.01052905 -0.00637847 -0.9999243
vn -0.9588483 0.2839189 0
vn 0.01480178 -0.006744727 -0.9998677
vn 0.6095257 -0.3702567 -0.7009912
vn -0.6691867 0.1981589 -0.7161857
vn 0.6504892 -0.2969837 -0.6990455
vn 0.8546932 -0.5191334 0
vn -0.6911079 0.09979787 -0.7158284
vn -0.9897341 0.1429209 0
vn 0.01705992 -0.002441491 -0.9998515
vn 0.01718231 -0.005066187 -0.9998395
vn 0.7081721 -0.102301 -0.698589
vn 0.6863886 -0.2032308 -0.6982607
vn 0.9897255 -0.1429807 0
vn 0.9096711 -0.4153291 0
vn 0.9588565 -0.2838909 0
vn 0.6863886 -0.2032308 0.6982607
vn 0.7081721 -0.102301 0.698589
vn 0.6504892 -0.2969837 0.6990455
vn 0.6095325 -0.3702303 0.700999
vn 0.01718231 -0.005066187 0.9998395
vn 0.01705992 -0.002441491 0.9998515
vn 0.01480178 -0.006744727 0.9998677
vn 0.01052905 -0.00637847 0.9999243
vn -0.6691867 0.1981589 0.7161857
vn -0.6911079 0.09979787 0.7158284
vn -0.6356048 0.2903041 0.715353
vn -0.5989154 0.3639455 0.7133331
vn -0.9588483 0.2839189 0
vn -0.9897341 0.1429209 0
vn -0.9095978 0.41549 0
vn -0.854579 0.5193213 0
vn -0.9857649 0.1681294 0
vn -0.6954145 0.1649877 -0.6994125
vn -0.9729897 0.2308489 0
vn -0.7046468 0.1201827 -0.6993061
vn -0.01516771 0.003570668 -0.9998786
vn -0.01428291 0.002441522 -0.999895
vn 0.6802554 -0.1613886 -0.7149869
vn 0.6903736 -0.1177123 -0.7138123
vn 0.9729897 -0.2308489 0
vn 0.985775 -0.16807 0
vn 0.6903736 -0.1177123 0.7138123
vn 0.6802554 -0.1613886 0.7149869
vn -0.01428291 0.002441522 0.999895
vn -0.01516771 0.003570668 0.9998786
vn -0.7046468 0.1201827 0.6993061
vn -0.6954145 0.1649877 0.6994125
vn -0.9857649 0.1681294 0
vn -0.9729897 0.2308489 0
vn -0.9897341 0.1429209 0
vn -0.6980605 0.05078357 -0.7142356
vn -0.9973652 0.07254397 0
vn -0.6911079 0.09979787 -0.7158284
vn 0.01547291 -0.001129187 -0.9998796
vn 0.01705992 -0.002441491 -0.9998515
vn 0.7135144 -0.05194412 -0.6987125
vn 0.7081721 -0.102301 -0.698589
vn 0.9973585 -0.07263505 0
vn 0.9897255 -0.1429807 0
vn 0.7081721 -0.102301 0.698589
vn 0.7135144 -0.05194412 0.6987125
vn 0.01705992 -0.002441491 0.9998515
vn 0.01547291 -0.001129187 0.9998796
vn -0.6911079 0.09979787 0.7158284
vn -0.6980605 0.05078357 0.7142356
vn -0.9897341 0.1429209 0
vn -0.9973652 0.07254397 0
g 079Cables_lp.008_0
f 3/3/3 2/2/2 1/1/1
f 4/4/4 3/3/3 1/1/1
f 4/4/4 1/1/1 5/5/5
f 6/6/6 3/3/3 4/4/4
f 7/7/7 4/4/4 5/5/5
f 7/7/7 5/5/5 8/8/8
f 9/9/9 6/6/6 4/4/4
f 9/9/9 4/4/4 7/7/7
f 10/10/10 6/6/6 9/9/9
f 11/11/11 7/7/7 8/8/8
f 11/11/11 8/8/8 12/12/12
f 13/13/13 11/11/11 12/12/12
f 14/14/14 10/10/10 9/9/9
f 15/15/15 10/10/10 14/14/14
f 16/16/16 9/9/9 7/7/7
f 16/16/16 7/7/7 11/11/11
f 14/14/14 9/9/9 16/16/16
f 17/17/17 11/11/11 13/13/13
f 17/17/17 16/16/16 11/11/11
f 18/18/18 17/17/17 13/13/13
f 19/19/19 14/14/14 16/16/16
f 19/19/19 16/16/16 17/17/17
f 20/20/20 17/17/17 18/18/18
f 20/20/20 19/19/19 17/17/17
f 21/21/21 20/20/20 18/18/18
f 22/22/22 15/15/15 14/14/14
f 22/22/22 14/14/14 19/19/19
f 23/23/23 19/19/19 20/20/20
f 23/23/23 22/22/22 19/19/19
f 24/24/24 20/20/20 21/21/21
f 24/24/24 23/23/23 20/20/20
f 25/25/25 24/24/24 21/21/21
f 25/25/25 26/26/26 24/24/24
f 26/26/26 27/27/27 24/24/24
f 24/24/24 27/27/27 23/23/23
f 26/26/26 28/28/28 27/27/27
f 22/22/22 29/29/29 15/15/15
f 29/29/29 30/30/30 15/15/15
f 31/31/31 30/30/30 29/29/29
f 23/23/23 32/32/32 22/22/22
f 27/27/27 32/32/32 23/23/23
f 32/32/32 29/29/29 22/22/22
f 28/28/28 33/33/33 27/27/27
f 27/27/27 33/33/33 32/32/32
f 28/28/28 34/34/34 33/33/33
f 32/32/32 35/35/35 29/29/29
f 33/33/33 35/35/35 32/32/32
f 34/34/34 36/36/36 33/33/33
f 33/33/33 36/36/36 35/35/35
f 34/34/34 37/37/37 36/36/36
f 37/37/37 38/38/38 36/36/36
f 36/36/36 38/38/38 39/39/39
f 36/36/36 39/39/39 35/35/35
f 38/38/38 40/40/40 39/39/39
f 35/35/35 41/41/41 29/29/29
f 41/41/41 31/31/31 29/29/29
f 35/35/35 39/39/39 41/41/41
f 39/39/39 40/40/40 42/42/42
f 39/39/39 42/42/42 41/41/41
f 41/41/41 42/42/42 31/31/31
f 40/40/40 43/43/43 42/42/42
f 42/42/42 44/44/44 31/31/31
f 42/42/42 43/43/43 44/44/44
f 43/43/43 45/45/45 44/44/44
f 48/48/48 47/47/47 46/46/46
f 49/49/49 48/48/48 46/46/46
f 49/49/49 46/46/46 50/50/50
f 51/51/51 48/48/48 49/49/49
f 52/52/52 49/49/49 50/50/50
f 52/52/52 50/50/50 53/53/53
f 54/54/54 52/52/52 53/53/53
f 55/55/55 51/51/51 49/49/49
f 55/55/55 49/49/49 52/52/52
f 56/56/56 51/51/51 55/55/55
f 57/57/57 52/52/52 54/54/54
f 57/57/57 55/55/55 52/52/52
f 58/58/58 57/57/57 54/54/54
f 59/59/59 56/56/56 55/55/55
f 59/59/59 55/55/55 57/57/57
f 60/60/60 56/56/56 59/59/59
f 61/61/61 57/57/57 58/58/58
f 61/61/61 59/59/59 57/57/57
f 62/62/62 61/61/61 58/58/58
f 63/63/63 60/60/60 59/59/59
f 63/63/63 59/59/59 61/61/61
f 64/64/64 61/61/61 62/62/62
f 64/64/64 63/63/63 61/61/61
f 65/65/65 64/64/64 62/62/62
f 65/65/65 66/66/66 64/64/64
f 66/66/66 67/67/67 64/64/64
f 64/64/64 67/67/67 63/63/63
f 66/66/66 68/68/68 67/67/67
f 63/63/63 69/69/69 60/60/60
f 67/67/67 69/69/69 63/63/63
f 69/69/69 70/70/70 60/60/60
f 68/68/68 71/71/71 67/67/67
f 67/67/67 71/71/71 69/69/69
f 68/68/68 72/72/72 71/71/71
f 69/69/69 73/73/73 70/70/70
f 71/71/71 73/73/73 69/69/69
f 73/73/73 74/74/74 70/70/70
f 72/72/72 75/75/75 71/71/71
f 71/71/71 75/75/75 73/73/73
f 72/72/72 76/76/76 75/75/75
f 76/76/76 77/77/77 75/75/75
f 73/73/73 78/78/78 74/74/74
f 75/75/75 78/78/78 73/73/73
f 75/75/75 77/77/77 78/78/78
f 78/78/78 79/79/79 74/74/74
f 77/77/77 80/80/80 78/78/78
f 78/78/78 80/80/80 79/79/79
f 80/80/80 81/81/81 79/79/79
f 84/84/84 83/83/83 82/82/82
f 85/85/85 84/84/84 82/82/82
f 86/86/86 84/84/84 85/85/85
f 85/85/85 82/82/82 87/87/87
f 88/88/88 86/86/86 85/85/85
f 89/89/89 86/86/86 88/88/88
f 90/90/90 85/85/85 87/87/87
f 88/88/88 85/85/85 90/90/90
f 91/91/91 89/89/89 88/88/88
f 92/92/92 89/89/89 91/91/91
f 93/93/93 90/90/90 87/87/87
f 94/94/94 93/93/93 87/87/87
f 93/93/93 95/95/95 90/90/90
f 96/96/96 88/88/88 90/90/90
f 95/95/95 96/96/96 90/90/90
f 91/91/91 88/88/88 96/96/96
f 95/95/95 97/97/97 96/96/96
f 97/97/97 98/98/98 96/96/96
f 98/98/98 91/91/91 96/96/96
f 97/97/97 99/99/99 98/98/98
f 100/100/100 92/92/92 91/91/91
f 100/100/100 91/91/91 98/98/98
f 99/99/99 101/101/101 98/98/98
f 101/101/101 100/100/100 98/98/98
f 102/102/102 101/101/101 99/99/99
f 101/101/101 102/102/102 100/100/100
f 103/103/103 102/102/102 99/99/99
f 100/100/100 104/104/104 92/92/92
f 102/102/102 104/104/104 100/100/100
f 104/104/104 105/105/105 92/92/92
f 106/106/106 102/102/102 103/103/103
f 102/102/102 106/106/106 104/104/104
f 107/107/107 106/106/106 103/103/103
f 104/104/104 108/108/108 105/105/105
f 106/106/106 108/108/108 104/104/104
f 108/108/108 109/109/109 105/105/105
f 110/110/110 106/106/106 107/107/107
f 106/106/106 110/110/110 108/108/108
f 111/111/111 110/110/110 107/107/107
f 108/108/108 112/112/112 109/109/109
f 110/110/110 112/112/112 108/108/108
f 112/112/112 113/113/113 109/109/109
f 114/114/114 110/110/110 111/111/111
f 110/110/110 114/114/114 112/112/112
f 115/115/115 114/114/114 111/111/111
f 114/114/114 116/116/116 112/112/112
f 112/112/112 116/116/116 113/113/113
f 116/116/116 117/117/117 113/113/113
f 120/120/120 119/119/119 118/118/118
f 119/119/119 121/121/121 118/118/118
f 119/119/119 122/122/122 121/121/121
f 122/122/122 123/123/123 121/121/121
f 122/122/122 124/124/124 123/123/123
f 124/124/124 125/125/125 123/123/123
f 124/124/124 126/126/126 125/125/125
f 126/126/126 127/127/127 125/125/125
f 128/128/128 127/127/127 126/126/126
f 129/129/129 128/128/128 126/126/126
f 130/130/130 128/128/128 129/129/129
f 131/131/131 130/130/130 129/129/129
f 132/132/132 130/130/130 131/131/131
f 133/133/133 132/132/132 131/131/131
f 134/134/134 132/132/132 133/133/133
f 135/135/135 134/134/134 133/133/133
f 138/138/138 137/137/137 136/136/136
f 137/137/137 139/139/139 136/136/136
f 137/137/137 140/140/140 139/139/139
f 140/140/140 141/141/141 139/139/139
f 140/140/140 142/142/142 141/141/141
f 142/142/142 143/143/143 141/141/141
f 142/142/142 144/144/144 143/143/143
f 144/144/144 145/145/145 143/143/143
f 146/146/146 145/145/145 144/144/144
f 147/147/147 146/146/146 144/144/144
f 148/148/148 146/146/146 147/147/147
f 149/149/149 148/148/148 147/147/147
f 150/150/150 148/148/148 149/149/149
f 151/151/151 150/150/150 149/149/149
f 152/152/152 150/150/150 151/151/151
f 153/153/153 152/152/152 151/151/151
