g 079Cables_lp.001
v -0.001502367 0.01856863 -0.0001182577
v -0.007976666 0.01899094 -0.0001182578
v -0.007977852 0.01907922 -0.0003313418
v -0.001486624 0.0186555 -0.0003313418
v 0.003080643 0.01718138 -0.0001182578
v -0.001502367 0.01856863 -0.0005444259
v -0.007976666 0.01899094 -0.0005444259
v 0.003120736 0.01726004 -0.0003313418
v 0.006019476 0.01494822 -0.0001182577
v 0.006087035 0.01500506 -0.0003313418
v 0.006019476 0.01494822 -0.0005444258
v 0.003080643 0.01718138 -0.0005444259
v 0.005856425 0.01481105 -0.0006327135
v 0.002983874 0.01699154 -0.0006327135
v 0.00569337 0.01467386 -0.0005444259
v -0.001540362 0.01835896 -0.0006327137
v -0.0079738 0.01877788 -0.0006327137
v 0.002887105 0.0168017 -0.0005444259
v 0.005625812 0.01461703 -0.0003313418
v -0.001578356 0.01814929 -0.000544426
v -0.007970935 0.01856481 -0.000544426
v 0.00284701 0.01672304 -0.0003313418
v -0.001594099 0.01806241 -0.0003313418
v -0.00796975 0.01847653 -0.0003313418
v -0.007970935 0.01856481 -0.0001182578
v -0.001578356 0.01814929 -0.0001182578
v -0.0079738 0.01877788 -2.996998E-05
v 0.002887105 0.0168017 -0.0001182578
v 0.00569337 0.01467386 -0.0001182578
v -0.001540362 0.01835896 -2.996996E-05
v -0.007976666 0.01899094 -0.0001182578
v -0.001502367 0.01856863 -0.0001182577
v 0.002983874 0.01699154 -2.997002E-05
v 0.005856425 0.01481104 -2.996998E-05
v 0.003080643 0.01718138 -0.0001182578
v 0.006019476 0.01494822 -0.0001182577
v 0.005856425 0.01481104 -2.996998E-05
v 0.006019476 0.01494822 -0.0001182577
v 0.007539068 0.01201356 -0.0001182577
v 0.007334807 0.01195289 -2.996996E-05
v 0.00569337 0.01467386 -0.0001182578
v 0.007889582 0.008548215 -0.0001182578
v 0.007130545 0.01189221 -0.0001182578
v 0.005625812 0.01461703 -0.0003313418
v 0.00767654 0.008552483 -2.997004E-05
v 0.00734761 0.004701138 -0.0001182577
v 0.007139143 0.004745255 -2.996998E-05
v 0.006182941 0.0006012446 -0.0001182578
v 0.005980133 0.0006666178 -2.997002E-05
v 0.007463499 0.008556752 -0.0001182578
v 0.006930677 0.004789372 -0.0001182578
v 0.005777324 0.0007319909 -0.0001182578
v 0.007045912 0.01186707 -0.0003313418
v 0.00737523 0.00855852 -0.0003313418
v 0.0068443 0.00480765 -0.0003313418
v 0.005693294 0.0007590777 -0.0003313418
v 0.005777324 0.0007319909 -0.0005444259
v 0.006930677 0.004789372 -0.0005444259
v 0.005980133 0.0006666178 -0.0006327135
v 0.007130545 0.01189221 -0.0005444259
v 0.00569337 0.01467386 -0.0005444259
v 0.007463499 0.008556752 -0.0005444259
v 0.007139143 0.004745255 -0.0006327135
v 0.006182941 0.0006012446 -0.0005444258
v 0.007334807 0.01195289 -0.0006327137
v 0.005856425 0.01481105 -0.0006327135
v 0.00767654 0.008552483 -0.0006327135
v 0.00734761 0.004701138 -0.0005444258
v 0.006266972 0.0005741578 -0.0003313418
v 0.007539068 0.01201356 -0.0005444259
v 0.006019476 0.01494822 -0.0005444258
v 0.007889582 0.008548215 -0.0005444258
v 0.007433985 0.00468286 -0.0003313418
v 0.007623701 0.0120387 -0.0003313418
v 0.006087035 0.01500506 -0.0003313418
v 0.006019476 0.01494822 -0.0001182577
v 0.007539068 0.01201356 -0.0001182577
v 0.007977852 0.008546446 -0.0003313418
v 0.007889582 0.008548215 -0.0001182578
v 0.00734761 0.004701138 -0.0001182577
v 0.006182941 0.0006012446 -0.0001182578
v 0.005980133 0.0006666178 -2.997002E-05
v 0.006182941 0.0006012446 -0.0001182578
v 0.004656611 -0.003622644 -0.0001182577
v 0.004457027 -0.003548009 -2.996992E-05
v 0.005777324 0.0007319909 -0.0001182578
v 0.003026894 -0.007837932 -0.0001182578
v 0.004257441 -0.003473373 -0.0001182578
v 0.005693294 0.0007590777 -0.0003313418
v 0.002827343 -0.007763206 -2.997004E-05
v 0.001551479 -0.01190872 -0.0001182578
v 0.001348602 -0.01184356 -2.997E-05
v 0.002627791 -0.007688481 -0.0001182578
v 0.001145724 -0.0117784 -0.0001182578
v 0.004174746 -0.00344245 -0.0003313418
v 0.002545112 -0.00765752 -0.0003313418
v 0.001061667 -0.0117514 -0.0003313418
v 0.001145724 -0.0117784 -0.0005444259
v 0.002627791 -0.007688481 -0.0005444259
v 0.001348602 -0.01184356 -0.0006327137
v 0.004257441 -0.003473373 -0.000544426
v 0.005777324 0.0007319909 -0.0005444259
v 0.002827343 -0.007763206 -0.0006327135
v 0.001551479 -0.01190872 -0.0005444258
v 0.004457027 -0.003548009 -0.0006327137
v 0.005980133 0.0006666178 -0.0006327135
v 0.003026897 -0.007837932 -0.0005444258
v 0.001635538 -0.01193571 -0.0003313418
v 0.004656611 -0.003622644 -0.0005444259
v 0.006182941 0.0006012446 -0.0005444258
v 0.003109578 -0.007868893 -0.0003313418
v 0.004739307 -0.003653567 -0.0003313418
v 0.006266972 0.0005741578 -0.0003313418
v 0.006182941 0.0006012446 -0.0001182578
v 0.004656611 -0.003622644 -0.0001182577
v 0.003026894 -0.007837932 -0.0001182578
v 0.001551479 -0.01190872 -0.0001182578
v 0.001348602 -0.01184356 -2.997E-05
v 0.001551479 -0.01190872 -0.0001182578
v 0.0004873216 -0.01568232 0.0002195123
v 0.0002783191 -0.01563247 0.0003033708
v 8.711695E-05 -0.01902848 0.0005447451
v 0.001145724 -0.0117784 -0.0001182578
v -0.0001259673 -0.01902091 0.0006327137
v 6.931662E-05 -0.0155997 0.000211482
v -0.0003390467 -0.01903043 0.0005449346
v 0.001061667 -0.0117514 -0.0003313418
v -1.728177E-05 -0.0156032 -2.265982E-06
v -0.0004273355 -0.01905145 0.0003328896
v -0.0003390467 -0.01907166 0.0001207655
v 6.931662E-05 -0.01564093 -0.0002126871
v 0.001145724 -0.0117784 -0.0005444259
v -0.0001259673 -0.01907922 3.279704E-05
v 0.0002783191 -0.01569078 -0.0002965457
v 0.001348602 -0.01184356 -0.0006327137
v 8.711695E-05 -0.01906971 0.000120576
v 0.0004873216 -0.01572355 -0.0002046569
v 0.001551479 -0.01190872 -0.0005444258
v 0.0001754034 -0.01904869 0.0003326211
v 0.00057392 -0.01572005 9.091086E-06
v 0.001635538 -0.01193571 -0.0003313418
v 0.001551479 -0.01190872 -0.0001182578
v 0.0004873216 -0.01568232 0.0002195123
v 8.711695E-05 -0.01902848 0.0005447451
vt 0.297181 0.09292121
vt 0.002059982 0.09248591
vt 0.001729154 0.102972
vt 0.297184 0.1034449
vt 0.517502 0.09238146
vt 0.2971616 0.1141316
vt 0.002041243 0.1136657
vt 0.517518 0.1031216
vt 0.6887874 0.09238148
vt 0.6897055 0.1034994
vt 0.6887184 0.1146126
vt 0.5175103 0.1138605
vt 0.6864046 0.1253968
vt 0.5175378 0.1245635
vt 0.684149 0.1358739
vt 0.2971412 0.124675
vt 0.002796937 0.1241378
vt 0.5175816 0.1353491
vt 0.6832277 0.1462373
vt 0.2971197 0.1351579
vt 0.003531165 0.1344162
vt 0.5176178 0.146292
vt 0.2970906 0.1456969
vt 0.003812137 0.1446379
vt 0.00346768 0.1548565
vt 0.2970306 0.1562384
vt 0.002669739 0.1651274
vt 0.5175889 0.1572363
vt 0.6841304 0.1565973
vt 0.2969639 0.1667253
vt 0.001849538 0.175591
vt 0.2968919 0.1772717
vt 0.5175508 0.1680252
vt 0.686366 0.1670648
vt 0.5175197 0.1786311
vt 0.6886044 0.1775189
vt 0.6828083 0.01353462
vt 0.6850852 0.002990233
vt 0.5305293 0.001729154
vt 0.5305716 0.01241811
vt 0.6805364 0.0240932
vt 0.3694503 0.003291419
vt 0.5306235 0.02334796
vt 0.6796189 0.0345272
vt 0.3695521 0.01386954
vt 0.1931832 0.004649373
vt 0.1932609 0.01508155
vt 0.001729154 0.005945091
vt 0.002133689 0.01630447
vt 0.3696434 0.02443902
vt 0.1933326 0.02548693
vt 0.00252559 0.0265529
vt 0.530667 0.03448495
vt 0.3697201 0.03504326
vt 0.1933986 0.03592115
vt 0.002707728 0.03676168
vt 0.00260418 0.04697263
vt 0.1934398 0.04635515
vt 0.002291068 0.05722594
vt 0.5306274 0.04561967
vt 0.6805552 0.04496403
vt 0.369745 0.04564602
vt 0.1934749 0.05676064
vt 0.001966003 0.06759214
vt 0.5305806 0.05654281
vt 0.6828474 0.05553238
vt 0.3697549 0.0562113
vt 0.1935067 0.06719453
vt 0.001838351 0.0780769
vt 0.5305539 0.06732842
vt 0.6852018 0.06642736
vt 0.369762 0.06684484
vt 0.1935353 0.07769734
vt 0.5305674 0.07812403
vt 0.686211 0.07766385
vt 0.6852869 0.08890668
vt 0.5305407 0.08892316
vt 0.3697729 0.07761535
vt 0.3697472 0.08821527
vt 0.1935424 0.0880933
vt 0.001996213 0.08844139
vt 0.6187298 0.1928444
vt 0.6190789 0.1821907
vt 0.411525 0.1820894
vt 0.4115261 0.192753
vt 0.6183808 0.2034987
vt 0.2026591 0.182213
vt 0.4115275 0.2034263
vt 0.6182351 0.2141392
vt 0.2026587 0.1928658
vt 0.002622494 0.1820913
vt 0.00225271 0.1927398
vt 0.2026573 0.2035001
vt 0.001883495 0.2034065
vt 0.4115295 0.2141164
vt 0.202655 0.2141241
vt 0.001729154 0.2140855
vt 0.001878384 0.2247648
vt 0.2026558 0.2247485
vt 0.002242375 0.2354317
vt 0.4115283 0.224806
vt 0.6183766 0.2247797
vt 0.2026556 0.235383
vt 0.002606934 0.2460805
vt 0.4115275 0.2354788
vt 0.6187213 0.2354337
vt 0.2026544 0.2460365
vt 0.002758323 0.256717
vt 0.4115272 0.2461327
vt 0.6190664 0.2461066
vt 0.2026519 0.2567065
vt 0.411527 0.2567766
vt 0.6192085 0.2567918
vt 0.6190635 0.2674768
vt 0.4115241 0.2674211
vt 0.2026511 0.2673666
vt 0.002607843 0.2673718
vt 0.3446994 0.3882702
vt 0.3443255 0.3775975
vt 0.1622228 0.3777837
vt 0.162201 0.3884149
vt 0.004825407 0.3768394
vt 0.3450708 0.3989361
vt 0.003548996 0.3874788
vt 0.162177 0.3989624
vt 0.002270654 0.3982483
vt 0.3452198 0.4097389
vt 0.1621455 0.409474
vt 0.001729154 0.4091344
vt 0.002226476 0.4200228
vt 0.1621391 0.419986
vt 0.3450412 0.4205415
vt 0.003461093 0.4307976
vt 0.1621242 0.4305346
vt 0.3446406 0.4312065
vt 0.004694234 0.441442
vt 0.1621038 0.4411683
vt 0.3442464 0.4417431
vt 0.005207569 0.4520164
vt 0.1620838 0.4518848
vt 0.3440734 0.4522342
vt 0.3442078 0.4627261
vt 0.162087 0.4625999
vt 0.004712177 0.4627261
vn 0.1286376 0.7089258 0.6934527
vn 0.04666448 0.7159901 0.6965491
vn 0.06506658 0.9978809 0
vn 0.1785658 0.983928 0
vn 0.3306744 0.6479814 0.6861302
vn 0.1286376 0.7089258 -0.6934527
vn 0.04666448 0.7159901 -0.6965491
vn 0.454584 0.8907039 0
vn 0.5601866 0.4712526 0.6812577
vn 0.7652411 0.6437438 0
vn 0.5601866 0.4712526 -0.6812577
vn 0.3306744 0.6479814 -0.6861302
vn 0.04126146 0.03469991 -0.9985456
vn 0.01968469 0.0384538 -0.9990665
vn -0.5187368 -0.4364262 -0.7351492
vn 0.004974573 0.02731437 -0.9996145
vn 0.001251297 0.01910517 -0.9998167
vn -0.3104084 -0.6096775 -0.7293423
vn -0.7651857 -0.6438096 0
vn -0.1232991 -0.6816244 -0.7212388
vn -0.04525992 -0.6969661 -0.7156743
vn -0.4535746 -0.8912182 0
vn -0.1779239 -0.9840443 0
vn -0.06479109 -0.9978988 0
vn -0.04526088 -0.6969504 0.7156895
vn -0.1232991 -0.6816244 0.7212388
vn 0.001251297 0.01910517 0.9998167
vn -0.3104084 -0.6096775 0.7293423
vn -0.5187368 -0.4364262 0.7351492
vn 0.004974573 0.02731437 0.9996145
vn 0.04666448 0.7159901 0.6965491
vn 0.1286376 0.7089258 0.6934527
vn 0.01968469 0.0384538 0.9990665
vn 0.04126146 0.03469991 0.9985456
vn 0.3306744 0.6479814 0.6861302
vn 0.5601866 0.4712526 0.6812577
vn 0.04126146 0.03469991 0.9985456
vn 0.5601866 0.4712526 0.6812577
vn 0.6983129 0.2078672 0.6849454
vn 0.04385595 0.01315373 0.9989512
vn -0.5187368 -0.4364262 0.7351492
vn 0.7210402 -0.01413026 0.6927491
vn -0.6544844 -0.1940411 0.7307518
vn -0.7651857 -0.6438096 0
vn 0.02917573 -0.0004882968 0.9995741
vn 0.6997817 -0.1479585 0.6988662
vn 0.0162666 -0.003387604 0.999862
vn 0.6770408 -0.2181827 0.7028601
vn 0.008087607 -0.002594138 0.999964
vn -0.6917827 0.01419151 0.7219664
vn -0.6834531 0.1447539 0.7154986
vn -0.6689002 0.2156522 0.7113836
vn -0.9588018 -0.2840759 0
vn -0.9997866 0.02066103 0
vn -0.978287 0.2072546 0
vn -0.9517532 0.3068646 0
vn -0.6689002 0.2156522 -0.7113836
vn -0.6834531 0.1447539 -0.7154986
vn 0.008087607 -0.002594138 -0.999964
vn -0.6544844 -0.1940411 -0.7307518
vn -0.5187368 -0.4364262 -0.7351492
vn -0.6917827 0.01419151 -0.7219664
vn 0.0162666 -0.003387604 -0.999862
vn 0.6770408 -0.2181827 -0.7028601
vn 0.04385595 0.01315373 -0.9989512
vn 0.04126146 0.03469991 -0.9985456
vn 0.02917573 -0.0004882968 -0.9995741
vn 0.6997817 -0.1479585 -0.6988662
vn 0.9518006 -0.3067174 0
vn 0.6983129 0.2078672 -0.6849454
vn 0.5601866 0.4712526 -0.6812577
vn 0.7210402 -0.01413026 -0.6927491
vn 0.9783775 -0.2068271 0
vn 0.9584139 0.2853817 0
vn 0.7652411 0.6437438 0
vn 0.5601866 0.4712526 0.6812577
vn 0.6983129 0.2078672 0.6849454
vn 0.9998098 -0.01950178 0
vn 0.7210402 -0.01413026 0.6927491
vn 0.6997817 -0.1479585 0.6988662
vn 0.6770408 -0.2181827 0.7028601
vn 0.008087607 -0.002594138 0.999964
vn 0.6770408 -0.2181827 0.7028601
vn 0.6635813 -0.2481219 0.7057589
vn 0.002502585 -0.00091558 0.9999964
vn -0.6689002 0.2156522 0.7113836
vn 0.6609817 -0.2475095 0.7084084
vn -0.6610516 0.2472077 0.7084484
vn -0.9517532 0.3068646 0
vn -0.002411028 0.0008850609 0.9999968
vn 0.6830251 -0.1870536 0.7060367
vn 0.004425216 0.04379438 0.9990307
vn -0.6634219 0.2483941 0.7058128
vn -0.6732652 0.2469351 0.6969484
vn -0.9366511 0.3502637 0
vn -0.9365021 0.3506618 0
vn -0.9524199 0.3046145 -0.01031557
vn -0.6816479 0.1874799 -0.7072535
vn -0.6634219 0.2483941 -0.7058128
vn -0.02127191 -0.03729451 -0.9990779
vn -0.6610516 0.2472077 -0.7084484
vn -0.6689002 0.2156522 -0.7113836
vn -0.002411028 0.0008850609 -0.9999968
vn 0.6543379 -0.2425994 -0.7162315
vn 0.002502585 -0.00091558 -0.9999964
vn 0.008087607 -0.002594138 -0.999964
vn 0.6609817 -0.2475095 -0.7084084
vn 0.951809 -0.3065065 -0.01065128
vn 0.6635813 -0.2481219 -0.7057589
vn 0.6770408 -0.2181827 -0.7028601
vn 0.9364884 -0.3506986 0
vn 0.9366611 -0.350237 0
vn 0.9518006 -0.3067174 0
vn 0.6770408 -0.2181827 0.7028601
vn 0.6635813 -0.2481219 0.7057589
vn 0.6609817 -0.2475095 0.7084084
vn 0.6830251 -0.1870536 0.7060367
vn 0.004425216 0.04379438 0.9990307
vn 0.6830251 -0.1870536 0.7060367
vn 0.6840377 -0.06921866 0.726155
vn -0.01934932 0.09552582 0.9952388
vn 0.6893367 -0.01196352 0.7243422
vn -0.6732652 0.2469351 0.6969484
vn -0.02987809 0.1001633 0.9945223
vn -0.703875 0.2023454 0.6808938
vn -0.7189671 0.1514354 0.6783463
vn -0.9524199 0.3046145 -0.01031557
vn -0.9810354 0.192789 -0.02005102
vn -0.9930693 0.1169807 -0.0113532
vn -0.7189596 0.01797551 -0.6948193
vn -0.7014191 0.07400867 -0.7088963
vn -0.6816479 0.1874799 -0.7072535
vn -0.02987824 -0.09320544 -0.9951985
vn -0.01736526 -0.08816914 -0.9959542
vn -0.02127191 -0.03729451 -0.9990779
vn 0.6893414 -0.1512236 -0.7084771
vn 0.684387 -0.2003568 -0.7010503
vn 0.6543379 -0.2425994 -0.7162315
vn 0.9929895 -0.1176499 0.01141402
vn 0.9809605 -0.1934271 0.01739562
vn 0.951809 -0.3065065 -0.01065128
vn 0.6830251 -0.1870536 0.7060367
vn 0.6840377 -0.06921866 0.726155
vn 0.6893367 -0.01196352 0.7243422
g 079Cables_lp.001_0
f 3/3/3 2/2/2 1/1/1
f 4/4/4 3/3/3 1/1/1
f 4/4/4 1/1/1 5/5/5
f 4/4/4 6/6/6 3/3/3
f 6/6/6 7/7/7 3/3/3
f 8/8/8 4/4/4 5/5/5
f 8/8/8 5/5/5 9/9/9
f 10/10/10 8/8/8 9/9/9
f 10/10/10 11/11/11 8/8/8
f 8/8/8 12/12/12 4/4/4
f 11/11/11 12/12/12 8/8/8
f 12/12/12 6/6/6 4/4/4
f 11/11/11 13/13/13 12/12/12
f 13/13/13 14/14/14 12/12/12
f 12/12/12 14/14/14 6/6/6
f 13/13/13 15/15/15 14/14/14
f 6/6/6 16/16/16 7/7/7
f 14/14/14 16/16/16 6/6/6
f 16/16/16 17/17/17 7/7/7
f 15/15/15 18/18/18 14/14/14
f 14/14/14 18/18/18 16/16/16
f 15/15/15 19/19/19 18/18/18
f 16/16/16 20/20/20 17/17/17
f 18/18/18 20/20/20 16/16/16
f 20/20/20 21/21/21 17/17/17
f 19/19/19 22/22/22 18/18/18
f 18/18/18 22/22/22 20/20/20
f 20/20/20 23/23/23 21/21/21
f 22/22/22 23/23/23 20/20/20
f 23/23/23 24/24/24 21/21/21
f 25/25/25 24/24/24 23/23/23
f 26/26/26 25/25/25 23/23/23
f 26/26/26 23/23/23 22/22/22
f 27/27/27 25/25/25 26/26/26
f 28/28/28 22/22/22 19/19/19
f 28/28/28 26/26/26 22/22/22
f 29/29/29 28/28/28 19/19/19
f 30/30/30 27/27/27 26/26/26
f 30/30/30 26/26/26 28/28/28
f 31/31/31 27/27/27 30/30/30
f 32/32/32 31/31/31 30/30/30
f 33/33/33 28/28/28 29/29/29
f 33/33/33 30/30/30 28/28/28
f 32/32/32 30/30/30 33/33/33
f 34/34/34 33/33/33 29/29/29
f 35/35/35 32/32/32 33/33/33
f 35/35/35 33/33/33 34/34/34
f 36/36/36 35/35/35 34/34/34
f 39/39/39 38/38/38 37/37/37
f 40/40/40 39/39/39 37/37/37
f 40/40/40 37/37/37 41/41/41
f 42/42/42 39/39/39 40/40/40
f 43/43/43 40/40/40 41/41/41
f 43/43/43 41/41/41 44/44/44
f 45/45/45 42/42/42 40/40/40
f 45/45/45 40/40/40 43/43/43
f 46/46/46 42/42/42 45/45/45
f 47/47/47 46/46/46 45/45/45
f 48/48/48 46/46/46 47/47/47
f 49/49/49 48/48/48 47/47/47
f 50/50/50 45/45/45 43/43/43
f 47/47/47 45/45/45 50/50/50
f 49/49/49 47/47/47 51/51/51
f 51/51/51 47/47/47 50/50/50
f 52/52/52 49/49/49 51/51/51
f 53/53/53 43/43/43 44/44/44
f 50/50/50 43/43/43 53/53/53
f 51/51/51 50/50/50 54/54/54
f 54/54/54 50/50/50 53/53/53
f 52/52/52 51/51/51 55/55/55
f 55/55/55 51/51/51 54/54/54
f 56/56/56 52/52/52 55/55/55
f 56/56/56 55/55/55 57/57/57
f 55/55/55 58/58/58 57/57/57
f 55/55/55 54/54/54 58/58/58
f 57/57/57 58/58/58 59/59/59
f 53/53/53 44/44/44 60/60/60
f 44/44/44 61/61/61 60/60/60
f 54/54/54 53/53/53 62/62/62
f 54/54/54 62/62/62 58/58/58
f 53/53/53 60/60/60 62/62/62
f 58/58/58 63/63/63 59/59/59
f 58/58/58 62/62/62 63/63/63
f 59/59/59 63/63/63 64/64/64
f 60/60/60 61/61/61 65/65/65
f 61/61/61 66/66/66 65/65/65
f 62/62/62 60/60/60 67/67/67
f 62/62/62 67/67/67 63/63/63
f 60/60/60 65/65/65 67/67/67
f 63/63/63 68/68/68 64/64/64
f 63/63/63 67/67/67 68/68/68
f 64/64/64 68/68/68 69/69/69
f 65/65/65 66/66/66 70/70/70
f 66/66/66 71/71/71 70/70/70
f 67/67/67 65/65/65 72/72/72
f 67/67/67 72/72/72 68/68/68
f 65/65/65 70/70/70 72/72/72
f 68/68/68 73/73/73 69/69/69
f 68/68/68 72/72/72 73/73/73
f 70/70/70 71/71/71 74/74/74
f 71/71/71 75/75/75 74/74/74
f 74/74/74 75/75/75 76/76/76
f 77/77/77 74/74/74 76/76/76
f 72/72/72 70/70/70 78/78/78
f 70/70/70 74/74/74 78/78/78
f 78/78/78 74/74/74 77/77/77
f 72/72/72 78/78/78 73/73/73
f 79/79/79 78/78/78 77/77/77
f 73/73/73 78/78/78 79/79/79
f 80/80/80 73/73/73 79/79/79
f 69/69/69 73/73/73 80/80/80
f 81/81/81 69/69/69 80/80/80
f 84/84/84 83/83/83 82/82/82
f 85/85/85 84/84/84 82/82/82
f 85/85/85 82/82/82 86/86/86
f 87/87/87 84/84/84 85/85/85
f 88/88/88 85/85/85 86/86/86
f 88/88/88 86/86/86 89/89/89
f 90/90/90 87/87/87 85/85/85
f 90/90/90 85/85/85 88/88/88
f 91/91/91 87/87/87 90/90/90
f 92/92/92 91/91/91 90/90/90
f 92/92/92 90/90/90 93/93/93
f 93/93/93 90/90/90 88/88/88
f 94/94/94 92/92/92 93/93/93
f 95/95/95 88/88/88 89/89/89
f 93/93/93 88/88/88 95/95/95
f 94/94/94 93/93/93 96/96/96
f 96/96/96 93/93/93 95/95/95
f 97/97/97 94/94/94 96/96/96
f 97/97/97 96/96/96 98/98/98
f 96/96/96 99/99/99 98/98/98
f 96/96/96 95/95/95 99/99/99
f 98/98/98 99/99/99 100/100/100
f 95/95/95 89/89/89 101/101/101
f 95/95/95 101/101/101 99/99/99
f 89/89/89 102/102/102 101/101/101
f 99/99/99 103/103/103 100/100/100
f 99/99/99 101/101/101 103/103/103
f 100/100/100 103/103/103 104/104/104
f 101/101/101 102/102/102 105/105/105
f 101/101/101 105/105/105 103/103/103
f 102/102/102 106/106/106 105/105/105
f 103/103/103 107/107/107 104/104/104
f 103/103/103 105/105/105 107/107/107
f 104/104/104 107/107/107 108/108/108
f 105/105/105 106/106/106 109/109/109
f 105/105/105 109/109/109 107/107/107
f 106/106/106 110/110/110 109/109/109
f 107/107/107 111/111/111 108/108/108
f 107/107/107 109/109/109 111/111/111
f 109/109/109 110/110/110 112/112/112
f 109/109/109 112/112/112 111/111/111
f 110/110/110 113/113/113 112/112/112
f 112/112/112 113/113/113 114/114/114
f 115/115/115 112/112/112 114/114/114
f 111/111/111 112/112/112 115/115/115
f 116/116/116 111/111/111 115/115/115
f 108/108/108 111/111/111 116/116/116
f 117/117/117 108/108/108 116/116/116
f 120/120/120 119/119/119 118/118/118
f 121/121/121 120/120/120 118/118/118
f 122/122/122 120/120/120 121/121/121
f 121/121/121 118/118/118 123/123/123
f 124/124/124 122/122/122 121/121/121
f 125/125/125 121/121/121 123/123/123
f 124/124/124 121/121/121 125/125/125
f 126/126/126 124/124/124 125/125/125
f 125/125/125 123/123/123 127/127/127
f 126/126/126 125/125/125 128/128/128
f 128/128/128 125/125/125 127/127/127
f 129/129/129 126/126/126 128/128/128
f 129/129/129 128/128/128 130/130/130
f 128/128/128 127/127/127 131/131/131
f 128/128/128 131/131/131 130/130/130
f 127/127/127 132/132/132 131/131/131
f 130/130/130 131/131/131 133/133/133
f 131/131/131 132/132/132 134/134/134
f 131/131/131 134/134/134 133/133/133
f 132/132/132 135/135/135 134/134/134
f 133/133/133 134/134/134 136/136/136
f 134/134/134 135/135/135 137/137/137
f 134/134/134 137/137/137 136/136/136
f 135/135/135 138/138/138 137/137/137
f 136/136/136 137/137/137 139/139/139
f 137/137/137 138/138/138 140/140/140
f 137/137/137 140/140/140 139/139/139
f 138/138/138 141/141/141 140/140/140
f 140/140/140 141/141/141 142/142/142
f 143/143/143 140/140/140 142/142/142
f 139/139/139 140/140/140 143/143/143
f 144/144/144 139/139/139 143/143/143
