g ak_hologlass_lod0
v 0.006898546 -0.02060465 0.5691698
v 0.007012119 -0.0198947 0.5692202
v 0.007012119 -0.0135834 0.5696683
v 0.006898546 -0.01287345 0.5697187
v 0.006568941 -0.02124512 0.5691243
v 0.006568941 -0.01223299 0.5697643
v 0.006055573 -0.02175339 0.5690882
v 0.006055573 -0.01172472 0.5698003
v 0.005408688 -0.02207971 0.569065
v 0.005408688 -0.0113984 0.5698235
v 0.004691611 -0.02219215 0.569057
v 0.004691611 -0.01128595 0.5698314
v -1.06289E-05 -0.01128595 0.5698314
v -1.06289E-05 -0.02219215 0.569057
v -0.004712869 -0.02219215 0.569057
v -0.004712869 -0.01128595 0.5698314
v -0.005429946 -0.0113984 0.5698235
v -0.005429946 -0.02207971 0.569065
v -0.00607683 -0.02175339 0.5690882
v -0.00607683 -0.01172472 0.5698003
v -0.006590199 -0.02124512 0.5691243
v -0.006590199 -0.01223299 0.5697643
v -0.006919804 -0.02060465 0.5691698
v -0.006919804 -0.01287345 0.5697187
v -0.007033377 -0.0198947 0.5692202
v -0.007033377 -0.0135834 0.5696683
v 0.006898546 -0.01287207 0.5560767
v 0.00701212 -0.01358211 0.5561766
v 0.00701212 -0.01989422 0.5570645
v 0.006898547 -0.02060428 0.5571643
v 0.006568942 -0.02124483 0.5572544
v 0.006568942 -0.01223153 0.5559866
v 0.006055573 -0.01172319 0.5559151
v 0.006055573 -0.02175316 0.5573259
v 0.005408688 -0.01139682 0.5558692
v 0.005408688 -0.02207953 0.5573718
v 0.004691611 -0.01128436 0.5558534
v 0.004691611 -0.02219198 0.5573877
v -1.06289E-05 -0.01128436 0.5558534
v -1.06289E-05 -0.02219198 0.5573877
v -0.004712869 -0.01128436 0.5558534
v -0.004712869 -0.02219198 0.5573877
v -0.005429945 -0.01139682 0.5558692
v -0.005429945 -0.02207953 0.5573718
v -0.00607683 -0.01172319 0.5559151
v -0.00607683 -0.02175316 0.5573259
v -0.006590199 -0.01223153 0.5559866
v -0.006590199 -0.02124483 0.5572544
v -0.006919804 -0.01287207 0.5560767
v -0.006919804 -0.02060428 0.5571643
v -0.007033377 -0.01358211 0.5561766
v -0.007033376 -0.01989422 0.5570645
vt 0 0
vt 0 0
vt 0 0
vt 0 0
vt 0 0
vt 0 0
vt 0 0
vt 0 0
vt 0 0
vt 0 0
vt 0 0
vt 0 0
vt 0 0
vt 0 0
vt 0 0
vt 0 0
vt 0 0
vt 0 0
vt 0 0
vt 0 0
vt 0 0
vt 0 0
vt 0 0
vt 0 0
vt 0 0
vt 0 0
vt 0 0
vt 0 0
vt 0 0
vt 0 0
vt 0 0
vt 0 0
vt 0 0
vt 0 0
vt 0 0
vt 0 0
vt 0 0
vt 0 0
vt 0 0
vt 0 0
vt 0 0
vt 0 0
vt 0 0
vt 0 0
vt 0 0
vt 0 0
vt 0 0
vt 0 0
vt 0 0
vt 0 0
vt 0 0
vt 0 0
vn 1.763618E-06 0.07082633 -0.9974886
vn 1.763618E-06 0.07082633 -0.9974886
vn 1.763618E-06 0.07082633 -0.9974886
vn 1.763618E-06 0.07082633 -0.9974886
vn 1.763618E-06 0.07082633 -0.9974886
vn 1.763618E-06 0.07082633 -0.9974886
vn 1.763618E-06 0.07082633 -0.9974886
vn 1.763618E-06 0.07082633 -0.9974886
vn 1.763618E-06 0.07082633 -0.9974886
vn 1.763618E-06 0.07082633 -0.9974886
vn 1.763618E-06 0.07082633 -0.9974886
vn 1.763618E-06 0.07082633 -0.9974886
vn 1.763618E-06 0.07082633 -0.9974886
vn 1.763618E-06 0.07082633 -0.9974886
vn 1.763618E-06 0.07082633 -0.9974886
vn 1.763618E-06 0.07082633 -0.9974886
vn 1.763618E-06 0.07082633 -0.9974886
vn 1.763618E-06 0.07082633 -0.9974886
vn 1.763618E-06 0.07082633 -0.9974886
vn 1.763618E-06 0.07082633 -0.9974886
vn 1.763618E-06 0.07082633 -0.9974886
vn 1.763618E-06 0.07082633 -0.9974886
vn 1.763618E-06 0.07082633 -0.9974886
vn 1.763618E-06 0.07082633 -0.9974886
vn 1.763618E-06 0.07082633 -0.9974886
vn 1.763618E-06 0.07082633 -0.9974886
vn -1.193587E-06 0.1392888 0.9902518
vn -1.193587E-06 0.1392888 0.9902518
vn -1.193587E-06 0.1392888 0.9902518
vn -1.193587E-06 0.1392888 0.9902518
vn -1.193587E-06 0.1392888 0.9902518
vn -1.193587E-06 0.1392888 0.9902518
vn -1.193587E-06 0.1392888 0.9902518
vn -1.193587E-06 0.1392888 0.9902518
vn -1.193587E-06 0.1392888 0.9902518
vn -1.193587E-06 0.1392888 0.9902518
vn -1.193587E-06 0.1392888 0.9902518
vn -1.193587E-06 0.1392888 0.9902518
vn -1.193587E-06 0.1392888 0.9902518
vn -1.193587E-06 0.1392888 0.9902518
vn -1.193587E-06 0.1392888 0.9902518
vn -1.193587E-06 0.1392888 0.9902518
vn -1.193587E-06 0.1392888 0.9902518
vn -1.193587E-06 0.1392888 0.9902518
vn -1.193587E-06 0.1392888 0.9902518
vn -1.193587E-06 0.1392888 0.9902518
vn -1.193587E-06 0.1392888 0.9902518
vn -1.193587E-06 0.1392888 0.9902518
vn -1.193587E-06 0.1392888 0.9902518
vn -1.193587E-06 0.1392888 0.9902518
vn -1.193587E-06 0.1392888 0.9902518
vn -1.193587E-06 0.1392888 0.9902518
g ak_hologlass_lod0_0
f 3/3/3 2/2/2 1/1/1
f 1/1/1 4/4/4 3/3/3
f 1/1/1 5/5/5 4/4/4
f 5/5/5 6/6/6 4/4/4
f 5/5/5 7/7/7 6/6/6
f 7/7/7 8/8/8 6/6/6
f 7/7/7 9/9/9 8/8/8
f 9/9/9 10/10/10 8/8/8
f 9/9/9 11/11/11 10/10/10
f 11/11/11 12/12/12 10/10/10
f 11/11/11 13/13/13 12/12/12
f 11/11/11 14/14/14 13/13/13
f 14/14/14 15/15/15 13/13/13
f 15/15/15 16/16/16 13/13/13
f 15/15/15 17/17/17 16/16/16
f 15/15/15 18/18/18 17/17/17
f 18/18/18 19/19/19 17/17/17
f 19/19/19 20/20/20 17/17/17
f 19/19/19 21/21/21 20/20/20
f 21/21/21 22/22/22 20/20/20
f 21/21/21 23/23/23 22/22/22
f 23/23/23 24/24/24 22/22/22
f 23/23/23 25/25/25 24/24/24
f 25/25/25 26/26/26 24/24/24
f 29/29/29 28/28/28 27/27/27
f 27/27/27 30/30/30 29/29/29
f 27/27/27 31/31/31 30/30/30
f 27/27/27 32/32/32 31/31/31
f 32/32/32 33/33/33 31/31/31
f 33/33/33 34/34/34 31/31/31
f 33/33/33 35/35/35 34/34/34
f 35/35/35 36/36/36 34/34/34
f 35/35/35 37/37/37 36/36/36
f 37/37/37 38/38/38 36/36/36
f 37/37/37 39/39/39 38/38/38
f 39/39/39 40/40/40 38/38/38
f 39/39/39 41/41/41 40/40/40
f 41/41/41 42/42/42 40/40/40
f 41/41/41 43/43/43 42/42/42
f 43/43/43 44/44/44 42/42/42
f 43/43/43 45/45/45 44/44/44
f 45/45/45 46/46/46 44/44/44
f 45/45/45 47/47/47 46/46/46
f 47/47/47 48/48/48 46/46/46
f 47/47/47 49/49/49 48/48/48
f 49/49/49 50/50/50 48/48/48
f 49/49/49 51/51/51 50/50/50
f 51/51/51 52/52/52 50/50/50
