g akbasemuzzle_LOD3
v 1.042385E-10 0.02320658 -0.000680393
v -0.0002177688 0.02320658 0.0004144061
v 0.0005690577 0.02320658 -0.0001113355
v 0.0005020248 0.02486474 -0.0001603949
v 0.0004682745 0.02451815 8.26323E-05
v 2.449386E-10 0.02449038 0.0002094364
v 0.0004682745 0.02451815 8.26323E-05
v -0.0001939652 0.02448984 0.00035694
v 2.449386E-10 0.02449038 0.0002094364
v -0.0002963526 0.02540577 -0.0002175081
v 2.449386E-10 0.02449038 0.0002094364
v -0.0004746217 0.02499134 -0.000172683
v -0.0004746217 0.02499134 -0.000172683
v -0.000496648 0.02499134 -0.000172683
v -0.0002963526 0.02540577 -0.0002175081
v 2.449386E-10 0.02449038 0.0002094364
v -0.0004758319 0.02486474 -0.0001603949
v -0.0004758319 0.02486474 -0.0001603949
v 0.0004758327 0.02486474 -0.0001603949
v -0.0004746217 0.02499134 -0.000172683
v 1.042385E-10 0.02320658 -0.000680393
v 1.042385E-10 0.02328303 -0.000680393
v -0.0005690574 0.02328303 -0.0001113355
v -0.0005690574 0.02320658 -0.0001113355
v 0.0001939658 0.02486474 -0.0005796099
v -0.0005068561 0.02469093 -0.0001113355
v -0.0005068562 0.02343408 -0.0001113355
v 0.0001939656 0.02343408 -0.0005796099
v 0.0001939658 0.02486474 -0.0005796099
v 0.0001939656 0.02343408 -0.0005796099
v 0.0005068565 0.02343408 -0.0001113355
v 0.0005068567 0.02469093 -0.0001113355
v -0.0001939654 0.02343408 0.00035694
v -0.0001939652 0.02448984 0.00035694
v -0.0005068561 0.02469093 -0.0001113355
v -0.0005068562 0.02343408 -0.0001113355
v 0.000313278 0.02328303 -0.0004246139
v 0.0001803632 0.02343408 0.0003241003
v 0.0003332677 0.02343408 -0.0004446018
v 0.0001695448 0.02328303 0.0002979827
v -0.0003332676 0.02343408 -0.0004446018
v -0.0003132778 0.02328303 -0.0004246139
v -0.0001939652 0.02448984 0.00035694
v -0.0005020241 0.02486474 -0.0001603949
v -0.0004758319 0.02486474 -0.0001603949
v 2.449386E-10 0.02449038 0.0002094364
v 0.0004758327 0.02486474 -0.0001603949
v 0.0005020248 0.02486474 -0.0001603949
v 2.449386E-10 0.02449038 0.0002094364
v 0.0004746224 0.02499134 -0.000172683
v 0.0002963533 0.02540577 -0.0002175081
v 0.0004966487 0.02499134 -0.000172683
v 0.0004930319 0.02536965 -0.0002094042
v -0.0004930312 0.02536965 -0.0002094042
v -0.000496648 0.02499134 -0.000172683
v 0.0004966487 0.02499134 -0.000172683
v 0.000313278 0.02328303 -0.0004246139
v 0.0003332677 0.02343408 -0.0004446018
v -0.0003332676 0.02343408 -0.0004446018
v -0.0003132778 0.02328303 -0.0004246139
v -0.0004023842 0.02328303 -0.0005137193
v 0.0004023845 0.02328303 -0.0005137193
v -0.0003132778 0.02328303 -0.0004246139
v 0.0002177689 0.02328303 0.0004144061
v 0.000313278 0.02328303 -0.0004246139
v 0.0001695448 0.02328303 0.0002979827
v 0.0005257407 0.02328303 -0.0003291035
v 0.0004093174 0.02328303 -0.0002808785
v 0.0004713118 0.02343408 -0.0001113355
v -0.000180363 0.02343408 0.0003241003
v -0.0001939654 0.02343408 0.00035694
v -0.0004622555 0.02343408 -0.000203284
v 0.0005068565 0.02343408 -0.0001113355
v -0.0004971172 0.02343408 -0.0002102184
v -0.000180363 0.02343408 -0.0005467701
v -0.0001939654 0.02343408 -0.0005796099
v 0.000266711 0.02440196 6.687641E-05
v -4.613911E-10 0.02339693 -0.0001113355
v 0.0001227536 0.02440196 -0.0004076874
v -0.0002963528 0.02440196 -0.0002340877
v -0.0003146065 0.02460603 -4.87566E-05
v 0.0001782104 0.02440196 0.0001553762
v 0.0001782105 0.02449878 0.0001553762
v 3.707045E-10 0.02540577 -0.0004241657
v -0.0003146065 0.02440196 -4.87566E-05
v 1.739142E-10 0.02440196 -0.0004321051
vt 0.3191063 0.496319
vt 0.298064 0.4752768
vt 0.2980641 0.5005045
vt 0.7917953 0.2906012
vt 0.6019387 0.3730141
vt 0.9741665 0.06016642
vt 0.6019387 0.3730141
vt 0.9702312 0.0653373
vt 0.9741665 0.06016642
vt 0.174275 0.07319821
vt 0.9741665 0.06016642
vt 0.1630664 0.0777217
vt 0.1630664 0.0777217
vt 0.1630544 0.0783088
vt 0.174275 0.07319821
vt 0.9741665 0.06016642
vt 0.1596757 0.07768417
vt 0.1731655 0.3034059
vt 0.994567 0.3905262
vt 0.1765404 0.3037351
vt 0.6451553 0.9687257
vt 0.6451553 0.9666875
vt 0.6214494 0.9666875
vt 0.6214494 0.9687257
vt 0.1441535 0.7567021
vt 0.202174 0.7613358
vt 0.202174 0.7948424
vt 0.1441535 0.7948424
vt 0.1441535 0.7567021
vt 0.1441535 0.7948424
vt 0.1599958 0.7948424
vt 0.1599958 0.7613358
vt 0.1863572 0.7948424
vt 0.1863572 0.7666968
vt 0.202174 0.7613358
vt 0.202174 0.7948424
vt 0.8659994 0.1042328
vt 0.8757945 0.1261623
vt 0.8697212 0.1025209
vt 0.8717083 0.1264562
vt 0.8697212 0.1596026
vt 0.8659994 0.1578908
vt 0.9702312 0.0653373
vt 0.1596611 0.07838213
vt 0.1596757 0.07768417
vt 0.9741665 0.06016642
vt 0.7917809 0.289903
vt 0.7917953 0.2906012
vt 0.9741665 0.06016642
vt 0.7883902 0.2899406
vt 0.7771814 0.285417
vt 0.7884023 0.2905277
vt 0.02691142 0.7746121
vt 0.8462932 0.802534
vt 0.8473049 0.7924513
vt 0.02792334 0.7846947
vt 0.8659994 0.1042328
vt 0.8697212 0.1025209
vt 0.8697212 0.1596026
vt 0.8659994 0.1578908
vt 0.1530156 0.863929
vt 0.1351769 0.8758485
vt 0.1523602 0.8672239
vt 0.1530156 0.8936872
vt 0.1384718 0.8765038
vt 0.1523602 0.8903923
vt 0.1351769 0.8817679
vt 0.1384718 0.8811125
vt 0.8843834 0.8801404
vt 0.9036874 0.8881363
vt 0.9046168 0.8879514
vt 0.8961724 0.9021959
vt 0.8838569 0.8793525
vt 0.896535 0.9030714
vt 0.8843834 0.9010348
vt 0.8838569 0.9018227
vt 0.61425 0.8765635
vt 0.5998437 0.8705964
vt 0.5912003 0.8835746
vt 0.5868309 0.8620052
vt 0.5575091 0.8545281
vt 0.5507263 0.8415505
vt 0.548701 0.8400818
vt 0.5875288 0.8432636
vt 0.5551015 0.8503279
vt 0.5598368 0.8444048
vn 0 -1 0
vn 0 -1 0
vn 0 -1 0
vn 0.08075441 0.4692667 0.8793563
vn 0.08075441 0.4692667 0.8793563
vn 0.08075441 0.4692667 0.8793563
vn 0.08075441 0.4692667 0.8793563
vn 0.08075441 0.4692667 0.8793563
vn 0.08075441 0.4692667 0.8793563
vn 0.08075441 0.4692667 0.8793563
vn 0.08075441 0.4692667 0.8793563
vn 0.08075441 0.4692667 0.8793563
vn 0.08075441 0.4692667 0.8793563
vn 0.08075441 0.4692667 0.8793563
vn 0.08075441 0.4692667 0.8793563
vn 0.08075441 0.4692667 0.8793563
vn 0.08075441 0.4692667 0.8793563
vn 0 -0.09659339 -0.995324
vn 0 -0.09659339 -0.995324
vn 0 -0.09659339 -0.995324
vn 0.290264 0 -0.9569466
vn 0.290264 0 -0.9569466
vn -0.9951869 0 0.0979958
vn -0.9951869 0 0.0979958
vn 0.1593092 0 -0.9872288
vn -0.9300073 0 -0.367541
vn -0.9807879 0 -0.1950772
vn 0.1950772 0 -0.9807879
vn 0.1593092 0 -0.9872288
vn 0.1950772 0 -0.9807879
vn 0.9807879 0 0.1950772
vn 0.9995048 0 0.03146533
vn -0.1950772 0 0.9807879
vn -0.2236758 0 0.9746636
vn -0.9300073 0 -0.367541
vn -0.9807879 0 -0.1950772
vn 0.7663128 -0.1829031 -0.6158825
vn 0.209453 -0.1811313 0.960896
vn 0.7550208 -0.1832083 -0.6295858
vn 0.167701 -0.1796034 0.9693394
vn -0.8554589 -0.1775619 -0.4864793
vn -0.8841726 -0.1743564 -0.4334036
vn 0.08075441 0.4692667 0.8793563
vn 0.08075441 0.4692667 0.8793563
vn 0.08075441 0.4692667 0.8793563
vn 0.08075441 0.4692667 0.8793563
vn 0.08075441 0.4692667 0.8793563
vn 0.08075441 0.4692667 0.8793563
vn 0.08075441 0.4692667 0.8793563
vn 0.08075441 0.4692667 0.8793563
vn 0.08075441 0.4692667 0.8793563
vn 0.08075441 0.4692667 0.8793563
vn 0 -0.09659339 -0.995324
vn 0 -0.09659339 -0.995324
vn 0 -0.09659339 -0.995324
vn 0 -0.09659339 -0.995324
vn 0.7663128 -0.1829031 -0.6158825
vn 0.7550208 -0.1832083 -0.6295858
vn -0.8554589 -0.1775619 -0.4864793
vn -0.8841726 -0.1743564 -0.4334036
vn 0 1 0
vn 0 1 0
vn 0 1 0
vn 0 1 0
vn 0 1 0
vn 0 1 0
vn 0 1 0
vn 0 1 0
vn 0 -1 0
vn 0 -1 0
vn 0 -1 0
vn 0 -1 0
vn 0 -1 0
vn 0 -1 0
vn 0 -1 0
vn 0 -1 0
vn -0.636268 0.2952139 -0.7127495
vn 0.03057992 0.9964719 -0.07815885
vn -0.4023304 0.3037849 0.8636232
vn 0.9519696 0.2919724 0.0922275
vn 0.9888706 -0.004211596 0.1487182
vn -0.6716646 -0.002441529 -0.7408513
vn -0.8923452 -0.002685672 -0.4513455
vn -0.2606344 -0.00653112 0.9654155
vn 0.9702352 -0.003509705 -0.2421392
vn -0.1948968 -0.006622706 0.9808014
g akbasemuzzle_LOD3_0
f 3/3/3 2/2/2 1/1/1
f 6/6/6 5/5/5 4/4/4
f 9/9/9 8/8/8 7/7/7
f 12/12/12 11/11/11 10/10/10
f 15/15/15 14/14/14 13/13/13
f 13/13/13 17/17/17 16/16/16
f 20/20/20 19/19/19 18/18/18
f 23/23/23 22/22/22 21/21/21
f 24/24/24 23/23/23 21/21/21
f 27/27/27 26/26/26 25/25/25
f 28/28/28 27/27/27 25/25/25
f 31/31/31 30/30/30 29/29/29
f 32/32/32 31/31/31 29/29/29
f 33/33/33 31/31/31 32/32/32
f 34/34/34 33/33/33 32/32/32
f 34/34/34 35/35/35 33/33/33
f 35/35/35 36/36/36 33/33/33
f 39/39/39 38/38/38 37/37/37
f 38/38/38 40/40/40 37/37/37
f 38/38/38 41/41/41 40/40/40
f 41/41/41 42/42/42 40/40/40
f 45/45/45 44/44/44 43/43/43
f 43/43/43 46/46/46 45/45/45
f 49/49/49 48/48/48 47/47/47
f 49/49/49 47/47/47 50/50/50
f 50/50/50 51/51/51 49/49/49
f 51/51/51 50/50/50 52/52/52
f 55/55/55 54/54/54 53/53/53
f 56/56/56 55/55/55 53/53/53
f 59/59/59 58/58/58 57/57/57
f 60/60/60 59/59/59 57/57/57
f 63/63/63 62/62/62 61/61/61
f 61/61/61 64/64/64 63/63/63
f 62/62/62 63/63/63 65/65/65
f 64/64/64 66/66/66 63/63/63
f 62/62/62 65/65/65 67/67/67
f 68/68/68 66/66/66 64/64/64
f 65/65/65 68/68/68 67/67/67
f 64/64/64 67/67/67 68/68/68
f 71/71/71 70/70/70 69/69/69
f 72/72/72 70/70/70 71/71/71
f 73/73/73 71/71/71 69/69/69
f 71/71/71 74/74/74 72/72/72
f 73/73/73 69/69/69 75/75/75
f 72/72/72 74/74/74 75/75/75
f 75/75/75 76/76/76 73/73/73
f 74/74/74 76/76/76 75/75/75
f 79/79/79 78/78/78 77/77/77
f 77/77/77 78/78/78 80/80/80
f 78/78/78 79/79/79 80/80/80
f 83/83/83 82/82/82 81/81/81
f 83/83/83 84/84/84 82/82/82
f 82/82/82 85/85/85 81/81/81
f 84/84/84 81/81/81 85/85/85
f 84/84/84 86/86/86 82/82/82
f 86/86/86 84/84/84 85/85/85
