g akbody_reload_LOD2
v 0.0008477097 -0.004183575 1.124978E-05
v 0.0008394895 -0.006353739 1.124948E-05
v 0.0008394895 -0.006353739 0.0007563666
v 0.0008477127 -0.004183544 0.0007439209
v 0.0009350009 -0.00349529 0.0006118419
v 0.0009350009 -0.00349529 1.124978E-05
v 0.002438102 -0.0005813658 6.769344E-05
v 0.002357594 -0.0005813658 4.726797E-05
v 0.001460269 -0.0005813658 4.726797E-05
v 0.001459616 -0.0005813658 0.0004414867
v 0.002497036 -0.0005813658 0.0001234968
v 0.002518609 -0.0005813658 0.0001997255
v 0.002518609 -0.0005813658 0.0004394846
v 0.002497036 -0.0005813658 0.0005157135
v 0.001418837 -0.0005877388 0.0004114758
v 0.001576498 -0.0005813658 0.0005513707
v 0.001419164 -0.0005877388 4.662707E-05
v 0.002438102 -0.0005813658 0.0005715168
v 0.001372632 -0.0006051469 0.0003907883
v 0.001606223 -0.0005813658 0.0005716564
v 0.001372719 -0.0006051469 4.487589E-05
v 0.002357594 -0.0005813658 0.0005919421
v 0.00164428 -0.0005813658 0.0005865066
v 0.00168047 -0.0005813658 0.0005919421
v 0.001333385 -0.0006289267 0.0003849673
v 0.001333385 -0.0006289267 4.248366E-05
v 0.0009350009 -0.0009394097 0.0004162008
v 0.0009350009 -0.0009394097 1.125008E-05
v 0.0008477097 -0.004183575 1.124978E-05
v 0.0009350009 -0.00349529 1.124978E-05
v 0.0009350009 -0.0009394097 1.125008E-05
v 0.0009350009 -0.0002248931 1.125023E-05
v 0.001333385 -0.0006289267 4.248366E-05
v 0.0005759269 -0.0002248931 1.125023E-05
v 0.0008394895 -0.006353739 1.124948E-05
v 0.0005759269 -0.006353739 1.124948E-05
v 0.001372313 -0.0003297377 4.484385E-05
v 0.001372719 -0.0006051469 4.487589E-05
v 0.001419053 -0.0003352761 4.661843E-05
v 0.001419164 -0.0005877388 4.662707E-05
v 0.001460269 -0.0005813658 4.726797E-05
v 0.002357594 -0.0003373027 4.726797E-05
v 0.002357594 -0.0005813658 4.726797E-05
v 0.002438102 -0.0003373027 6.769344E-05
v 0.002438102 -0.0005813658 6.769344E-05
v 0.0009350009 -0.0002248931 0.0004162008
v 0.001333385 -0.0006289267 0.0003849673
v 0.0009350009 -0.0009394097 0.0004162008
v 0.001332567 -0.0003221714 0.0003850312
v 0.001372632 -0.0006051469 0.0003907883
v 0.001372226 -0.0003297377 0.0003908204
v 0.001418837 -0.0005877388 0.0004114758
v 0.001418728 -0.0003352761 0.0004114845
v 0.001459616 -0.0005813658 0.0004414867
v 0.001459616 -0.0003373027 0.0004414867
v 0.001576498 -0.0005813658 0.0005513707
v 0.001576498 -0.0003373027 0.0005513708
v 0.001606223 -0.0005813658 0.0005716564
v 0.001606223 -0.0003373027 0.0005716565
v 0.00164428 -0.0005813658 0.0005865066
v 0.00164428 -0.0003373027 0.0005865067
v 0.00168047 -0.0005813658 0.0005919421
v 0.00168047 -0.0003373027 0.0005919422
v 0.002357594 -0.0005813658 0.0005919421
v 0.002357594 -0.0003373027 0.0005919422
v 0.002438102 -0.0005813658 0.0005715168
v 0.002438102 -0.0003373027 0.0005715169
v 0.0009350009 -0.0002248931 0.0004162008
v 0.0009350009 -0.0002248931 1.125023E-05
v 0.001372313 -0.0003297377 4.484385E-05
v 0.001332567 -0.0003221714 0.0003850312
v 0.001372226 -0.0003297377 0.0003908204
v 0.001418728 -0.0003352761 0.0004114845
v 0.001419053 -0.0003352761 4.661843E-05
v 0.002357594 -0.0003373027 4.726797E-05
v 0.002438102 -0.0003373027 6.769344E-05
v 0.002497036 -0.0003373027 0.0001234968
v 0.002518609 -0.0003373027 0.0001997255
v 0.002518609 -0.0003373027 0.0004394847
v 0.001459616 -0.0003373027 0.0004414867
v 0.002497036 -0.0003373027 0.0005157135
v 0.001576498 -0.0003373027 0.0005513708
v 0.002438102 -0.0003373027 0.0005715169
v 0.001606223 -0.0003373027 0.0005716565
v 0.002357594 -0.0003373027 0.0005919422
v 0.00164428 -0.0003373027 0.0005865067
v 0.00168047 -0.0003373027 0.0005919422
v 0.002497036 -0.0003373027 0.0001234968
v 0.002438102 -0.0003373027 6.769344E-05
v 0.002438102 -0.0005813658 6.769344E-05
v 0.002497036 -0.0005813658 0.0001234968
v 0.002518609 -0.0003373027 0.0001997255
v 0.002518609 -0.0005813658 0.0001997255
v 0.002518609 -0.0003373027 0.0004394847
v 0.002518609 -0.0005813658 0.0004394846
v 0.002497036 -0.0003373027 0.0005157135
v 0.002497036 -0.0005813658 0.0005157135
v 0.002438102 -0.0003373027 0.0005715169
v 0.002438102 -0.0005813658 0.0005715168
v 0.0008477127 -0.004183544 0.0007439209
v 0.0008394895 -0.006353739 0.0007563666
v 0.0004956448 -0.006353739 0.001276656
v 0.0004956448 -0.0002248931 0.001276657
v 0.0009350009 -0.00349529 0.0006118419
v 0.0009350009 -0.0002248931 0.0006118423
v 0.0009350009 -0.0009394097 1.125008E-05
v 0.0009350009 -0.00349529 1.124978E-05
v 0.0009350009 -0.00349529 0.0006118419
v 0.0009350009 -0.0009394097 0.0004162008
v 0.0009350009 -0.0002248931 0.0006118423
v 0.0009350009 -0.0002248931 0.0004162008
v 0.0004492747 -0.0002248931 0.001602641
v 0.0004492747 -0.006353739 0.00160264
v -0.000593888 -0.006353739 0.00160264
v -0.0006135942 -0.0002248931 0.001602641
v 0.0004956448 -0.0002248931 0.001276657
v 0.0004956448 -0.006353739 0.001276656
v 0.0004492747 -0.006353739 0.00160264
v 0.0004492747 -0.0002248931 0.001602641
v 0.0008394895 -0.006353739 0.0007563666
v 0.0008394895 -0.006353739 1.124948E-05
v 0.0005759269 -0.006353739 1.124948E-05
v 0.0005759269 -0.006353739 0.0006540915
v 0.0005408488 -0.006353739 0.0008547842
v 0.0004956448 -0.006353739 0.001276656
v 0.0005228063 -0.006353739 0.0009054103
v 0.0003774803 -0.006353739 0.001095858
v 0.0002970299 -0.006353739 0.001156234
v -8.432601E-05 -0.006353739 0.001276656
v 0.0004492747 -0.006353739 0.00160264
v -0.0006599628 -0.006353739 0.001276657
v -0.000593888 -0.006353739 0.00160264
v -0.0006135942 -0.0002248931 0.001602641
v -0.0006135942 -0.0002248931 0.001276657
v -8.432601E-05 -0.0002248931 0.001276657
v 0.0004956448 -0.0002248931 0.001276657
v 0.0004492747 -0.0002248931 0.001602641
v 0.0002773643 -0.0002248931 0.001141641
v 0.0003904373 -0.0002248931 0.001033212
v 0.0005146521 -0.0002248931 0.0008315202
v 0.0005480712 -0.0002248931 0.0007117024
v 0.0009350009 -0.0002248931 0.0006118423
v 0.0005759269 -0.0002248931 0.0005095673
v 0.0009350009 -0.0002248931 0.0004162008
v 0.0009350009 -0.0002248931 1.125023E-05
v 0.0005759269 -0.0002248931 1.125023E-05
vt 0.6787443 0.86756
vt 0.6172992 0.86756
vt 0.6172992 0.8898574
vt 0.6787452 0.8894851
vt 0.699453 0.8855327
vt 0.699453 0.86756
vt 0.8545371 0.4388159
vt 0.8550906 0.4368874
vt 0.8544519 0.4155963
vt 0.8426598 0.4159347
vt 0.8529099 0.4402643
vt 0.8506451 0.4408446
vt 0.8434736 0.4410598
vt 0.8411781 0.4406163
vt 0.8435279 0.4149215
vt 0.8394563 0.4188064
vt 0.8544414 0.414602
vt 0.839467 0.4392681
vt 0.8441104 0.4136893
vt 0.8388706 0.41953
vt 0.8544571 0.4133815
vt 0.8387988 0.4373762
vt 0.8384535 0.4204463
vt 0.8383167 0.4213098
vt 0.8442494 0.4125124
vt 0.8544937 0.412206
vt 0.842919 0.3992889
vt 0.8550316 0.3989266
vt 0.2482492 0.5805535
vt 0.2461773 0.6011503
vt 0.2461772 0.6776344
vt 0.2461772 0.6990162
vt 0.2366744 0.6869255
vt 0.2547009 0.6990162
vt 0.2484444 0.5191114
vt 0.2547009 0.5191114
vt 0.2357475 0.6958787
vt 0.2357379 0.6876372
vt 0.2346368 0.695713
vt 0.2346342 0.688158
vt 0.2336583 0.6883488
vt 0.2123576 0.6956524
vt 0.2123576 0.6883488
vt 0.2103512 0.6956524
vt 0.2103512 0.6883488
vt 0.926368 0.3393008
vt 0.9142773 0.3297978
vt 0.9049863 0.3393008
vt 0.9234569 0.3298173
vt 0.9149892 0.3288501
vt 0.9232306 0.3288601
vt 0.9155103 0.3275908
vt 0.9230652 0.3275948
vt 0.9157014 0.3262704
vt 0.923005 0.3262726
vt 0.9157027 0.321968
vt 0.9230064 0.3219702
vt 0.915703 0.3210373
vt 0.9230064 0.3210393
vt 0.9157033 0.3200304
vt 0.9230067 0.3200326
vt 0.9157035 0.3191561
vt 0.923007 0.3191583
vt 0.9157083 0.3030826
vt 0.9230118 0.3030848
vt 0.9157089 0.3010761
vt 0.9230125 0.3010782
vt 0.6237776 0.5949718
vt 0.6116667 0.5945588
vt 0.6123016 0.6054333
vt 0.6225088 0.6048105
vt 0.6226489 0.6057842
vt 0.6232288 0.6069209
vt 0.6123164 0.6065562
vt 0.611576 0.6288248
vt 0.6121216 0.6307557
vt 0.6137428 0.6322107
vt 0.6160051 0.6328005
vt 0.6231757 0.6330451
vt 0.624093 0.6079234
vt 0.625473 0.632611
vt 0.6272846 0.6108084
vt 0.6271897 0.6312698
vt 0.6278673 0.6115344
vt 0.6278657 0.6293807
vt 0.6282806 0.6124524
vt 0.6284139 0.6133166
vt 0.8827673 0.003703365
vt 0.8827673 0.001524875
vt 0.8754636 0.001524876
vt 0.8754636 0.003703366
vt 0.8827673 0.006041298
vt 0.8754637 0.006041299
vt 0.8827673 0.01321597
vt 0.8754637 0.01321597
vt 0.8827673 0.0155539
vt 0.8754637 0.0155539
vt 0.8827673 0.01773239
vt 0.8754637 0.01773239
vt 0.6726965 0.8068111
vt 0.6112533 0.8072315
vt 0.6112533 0.8248109
vt 0.7911584 0.8248109
vt 0.6932924 0.8023484
vt 0.7911584 0.8023484
vt 0.8830936 0.2266862
vt 0.8830936 0.3031704
vt 0.9010662 0.3031704
vt 0.8952117 0.2266862
vt 0.9010662 0.2053043
vt 0.8952117 0.2053043
vt 0.001526661 0.8214647
vt 0.1814317 0.8214647
vt 0.1814317 0.7967022
vt 0.001526659 0.7962344
vt 0.1814332 0.7269608
vt 0.001528158 0.7269609
vt 0.001528159 0.7367778
vt 0.1814332 0.7367777
vt 0.6567377 0.7606207
vt 0.6492617 0.7396139
vt 0.6433675 0.7417116
vt 0.6498173 0.759835
vt 0.6510465 0.7657722
vt 0.6542683 0.7780256
vt 0.6511509 0.7673431
vt 0.6498117 0.773869
vt 0.6486183 0.7762115
vt 0.6412979 0.7826417
vt 0.656502 0.7875851
vt 0.6284244 0.7872232
vt 0.6331728 0.7958877
vt 0.782867 0.6132866
vt 0.779405 0.6224065
vt 0.7911509 0.6268654
vt 0.8040221 0.6317513
vt 0.806455 0.6222406
vt 0.7977439 0.6336897
vt 0.7991018 0.6376756
vt 0.7997165 0.644365
vt 0.7991857 0.6479987
vt 0.8067122 0.654052
vt 0.7976571 0.6538883
vt 0.8046345 0.6595255
vt 0.8003339 0.6708547
vt 0.792365 0.6678298
vn 0.9978909 -0.06491464 0
vn 0.9999928 -0.003784384 0
vn 0.9999928 -0.003784384 0
vn 0.998143 -0.06091523 0
vn 0.9920556 -0.1258 0
vn 0.9920556 -0.1258 0
vn 0 -1 0
vn 0 -1 0
vn 0.07736629 -0.9970027 9.155773E-05
vn 0.04449672 -0.9990095 3.051902E-05
vn 0 -1 0
vn 0 -1 0
vn 0 -1 0
vn 0 -1 0
vn 0.2237338 -0.9746503 0.0001831132
vn 0 -1 0
vn 0.2555973 -0.9667833 0.0001831145
vn 0 -1 0
vn 0.4237942 -0.9057585 0.0001220781
vn 0 -1 0
vn 0.4388932 -0.8985392 0.0001220758
vn 0 -1 0
vn 0 -1 0
vn 0 -1 0
vn 0.5662879 -0.8242075 3.051942E-05
vn 0.5689783 -0.8223526 3.051967E-05
vn 0.9027917 -0.4300781 0
vn 0.9027917 -0.4300781 0
vn 0.007080332 -0.0001525934 -0.999975
vn 0.007080332 -0.0001525934 -0.999975
vn 0.007080332 -0.0001525934 -0.999975
vn 0.007080332 -0.0001525934 -0.999975
vn 0.007080332 -0.0001525934 -0.999975
vn 0.007080332 -0.0001525934 -0.999975
vn 0.007080332 -0.0001525934 -0.999975
vn 0.007080332 -0.0001525934 -0.999975
vn 0.007080332 -0.0001525934 -0.999975
vn 0.007080332 -0.0001525934 -0.999975
vn 0.007080332 -0.0001525934 -0.999975
vn 0.007080332 -0.0001525934 -0.999975
vn 0.007080332 -0.0001525934 -0.999975
vn 0.1273545 -6.103738E-05 -0.9918573
vn 0.1274184 -6.103874E-05 -0.9918491
vn 0.4823018 0 -0.8760051
vn 0.4823018 0 -0.8760051
vn 0.07815972 0 0.9969408
vn 0.007324469 -0.0001220745 0.9999732
vn 0.07815972 0 0.9969408
vn -0.01867749 -0.0001831126 0.9998255
vn -0.2445816 -0.0004577894 0.9696286
vn -0.2667386 -0.0004577894 0.9637688
vn -0.4898946 -0.0003051923 0.8717816
vn -0.4982836 -0.0003051899 0.8670141
vn -0.6379393 -6.103806E-05 0.7700866
vn -0.6391391 -6.103898E-05 0.7690911
vn -0.6262236 0 0.7796435
vn -0.6262236 0 0.7796435
vn -0.4666028 0 0.884467
vn -0.4666028 0 0.884467
vn -0.2576151 0 0.9662476
vn -0.2576151 0 0.9662476
vn -0.07446522 0 0.9972236
vn -0.07446522 0 0.9972236
vn 0.123907 0 0.9922938
vn 0.123907 0 0.9922938
vn 0.4823018 0 0.8760051
vn 0.4823018 0 0.8760051
vn 0.2332891 0.9724041 0.002563616
vn 0.2332891 0.9724041 0.002563616
vn 0.1779586 0.984037 0.001342854
vn 0.2332891 0.9724041 0.002563616
vn 0.1664821 0.9860439 0.00109869
vn 0.04153659 0.9991365 0.001068171
vn 0.06042686 0.9981723 0.0008240026
vn 0.001342852 0.9999979 0.001587008
vn 0.001342852 0.9999979 0.001587008
vn 0.001342852 0.9999979 0.001587008
vn 0.001342852 0.9999979 0.001587008
vn 0.001342852 0.9999979 0.001587008
vn 0.001342852 0.9999979 0.001587008
vn 0.001342852 0.9999979 0.001587008
vn 0.001342852 0.9999979 0.001587008
vn 0.001342852 0.9999979 0.001587008
vn 0.001342852 0.9999979 0.001587008
vn 0.001342852 0.9999979 0.001587008
vn 0.001342852 0.9999979 0.001587008
vn 0.001342852 0.9999979 0.001587008
vn 0.8555236 0 -0.5177639
vn 0.4823018 0 -0.8760051
vn 0.4823018 0 -0.8760051
vn 0.8555236 0 -0.5177639
vn 0.9905074 0 -0.1374594
vn 0.9905074 0 -0.1374594
vn 0.9905074 0 0.1374594
vn 0.9905074 0 0.1374594
vn 0.8555236 0 0.5177639
vn 0.8555236 0 0.5177639
vn 0.4823018 0 0.8760051
vn 0.4823018 0 0.8760051
vn 0.8342692 0 0.5513574
vn 0.8342692 0 0.5513574
vn 0.8342692 0 0.5513574
vn 0.8342692 0 0.5513574
vn 0.8342692 0 0.5513574
vn 0.8342692 0 0.5513574
vn 0.9027917 -0.4300781 0
vn 1 0 0
vn 1 0 0
vn 0.9027917 -0.4300781 0
vn 1 0 0
vn 1 0 0
vn 0 0 1
vn 0 0 1
vn 0 0 1
vn 0 0 1
vn 0.9900359 0 0.1408146
vn 0.9900359 0 0.1408146
vn 0.9900359 0 0.1408146
vn 0.9900359 0 0.1408146
vn 0 -1 0
vn 0 -1 0
vn 0 -1 0
vn 0 -1 0
vn 0 -1 0
vn 0 -1 0
vn 0 -1 0
vn 0 -1 0
vn 0 -1 0
vn 0 -1 0
vn 0 -1 0
vn 0 -1 0
vn 0 -1 0
vn 0 1 0
vn 0 1 0
vn 0 1 0
vn 0 1 0
vn 0 1 0
vn 0 1 0
vn 0 1 0
vn 0 1 0
vn 0 1 0
vn 0 1 0
vn 0 1 0
vn 0 1 0
vn 0 1 0
vn 0 1 0
g akbody_reload_LOD2_0
f 3/3/3 2/2/2 1/1/1
f 4/4/4 3/3/3 1/1/1
f 4/4/4 1/1/1 5/5/5
f 1/1/1 6/6/6 5/5/5
f 9/9/9 8/8/8 7/7/7
f 7/7/7 10/10/10 9/9/9
f 7/7/7 11/11/11 10/10/10
f 11/11/11 12/12/12 10/10/10
f 12/12/12 13/13/13 10/10/10
f 13/13/13 14/14/14 10/10/10
f 9/9/9 10/10/10 15/15/15
f 14/14/14 16/16/16 10/10/10
f 17/17/17 9/9/9 15/15/15
f 14/14/14 18/18/18 16/16/16
f 17/17/17 15/15/15 19/19/19
f 18/18/18 20/20/20 16/16/16
f 21/21/21 17/17/17 19/19/19
f 18/18/18 22/22/22 20/20/20
f 22/22/22 23/23/23 20/20/20
f 22/22/22 24/24/24 23/23/23
f 21/21/21 19/19/19 25/25/25
f 26/26/26 21/21/21 25/25/25
f 26/26/26 25/25/25 27/27/27
f 28/28/28 26/26/26 27/27/27
f 31/31/31 30/30/30 29/29/29
f 29/29/29 32/32/32 31/31/31
f 33/33/33 31/31/31 32/32/32
f 29/29/29 34/34/34 32/32/32
f 29/29/29 35/35/35 34/34/34
f 35/35/35 36/36/36 34/34/34
f 33/33/33 32/32/32 37/37/37
f 38/38/38 33/33/33 37/37/37
f 38/38/38 37/37/37 39/39/39
f 40/40/40 38/38/38 39/39/39
f 41/41/41 40/40/40 39/39/39
f 41/41/41 39/39/39 42/42/42
f 42/42/42 43/43/43 41/41/41
f 43/43/43 42/42/42 44/44/44
f 45/45/45 43/43/43 44/44/44
f 48/48/48 47/47/47 46/46/46
f 47/47/47 49/49/49 46/46/46
f 49/49/49 47/47/47 50/50/50
f 51/51/51 49/49/49 50/50/50
f 51/51/51 50/50/50 52/52/52
f 53/53/53 51/51/51 52/52/52
f 53/53/53 52/52/52 54/54/54
f 55/55/55 53/53/53 54/54/54
f 54/54/54 56/56/56 55/55/55
f 56/56/56 57/57/57 55/55/55
f 57/57/57 56/56/56 58/58/58
f 59/59/59 57/57/57 58/58/58
f 59/59/59 58/58/58 60/60/60
f 61/61/61 59/59/59 60/60/60
f 61/61/61 60/60/60 62/62/62
f 63/63/63 61/61/61 62/62/62
f 62/62/62 64/64/64 63/63/63
f 64/64/64 65/65/65 63/63/63
f 65/65/65 64/64/64 66/66/66
f 67/67/67 65/65/65 66/66/66
f 70/70/70 69/69/69 68/68/68
f 68/68/68 71/71/71 70/70/70
f 70/70/70 71/71/71 72/72/72
f 70/70/70 72/72/72 73/73/73
f 74/74/74 70/70/70 73/73/73
f 75/75/75 74/74/74 73/73/73
f 73/73/73 76/76/76 75/75/75
f 73/73/73 77/77/77 76/76/76
f 73/73/73 78/78/78 77/77/77
f 73/73/73 79/79/79 78/78/78
f 73/73/73 80/80/80 79/79/79
f 80/80/80 81/81/81 79/79/79
f 80/80/80 82/82/82 81/81/81
f 82/82/82 83/83/83 81/81/81
f 82/82/82 84/84/84 83/83/83
f 84/84/84 85/85/85 83/83/83
f 84/84/84 86/86/86 85/85/85
f 86/86/86 87/87/87 85/85/85
f 90/90/90 89/89/89 88/88/88
f 91/91/91 90/90/90 88/88/88
f 91/91/91 88/88/88 92/92/92
f 93/93/93 91/91/91 92/92/92
f 92/92/92 94/94/94 93/93/93
f 94/94/94 95/95/95 93/93/93
f 94/94/94 96/96/96 95/95/95
f 96/96/96 97/97/97 95/95/95
f 96/96/96 98/98/98 97/97/97
f 98/98/98 99/99/99 97/97/97
f 102/102/102 101/101/101 100/100/100
f 100/100/100 103/103/103 102/102/102
f 100/100/100 104/104/104 103/103/103
f 104/104/104 105/105/105 103/103/103
f 108/108/108 107/107/107 106/106/106
f 106/106/106 109/109/109 108/108/108
f 109/109/109 110/110/110 108/108/108
f 109/109/109 111/111/111 110/110/110
f 114/114/114 113/113/113 112/112/112
f 115/115/115 114/114/114 112/112/112
f 118/118/118 117/117/117 116/116/116
f 119/119/119 118/118/118 116/116/116
f 122/122/122 121/121/121 120/120/120
f 120/120/120 123/123/123 122/122/122
f 120/120/120 124/124/124 123/123/123
f 120/120/120 125/125/125 124/124/124
f 125/125/125 126/126/126 124/124/124
f 125/125/125 127/127/127 126/126/126
f 125/125/125 128/128/128 127/127/127
f 125/125/125 129/129/129 128/128/128
f 125/125/125 130/130/130 129/129/129
f 130/130/130 131/131/131 129/129/129
f 130/130/130 132/132/132 131/131/131
f 135/135/135 134/134/134 133/133/133
f 133/133/133 136/136/136 135/135/135
f 133/133/133 137/137/137 136/136/136
f 138/138/138 135/135/135 136/136/136
f 139/139/139 138/138/138 136/136/136
f 140/140/140 139/139/139 136/136/136
f 141/141/141 140/140/140 136/136/136
f 141/141/141 136/136/136 142/142/142
f 143/143/143 141/141/141 142/142/142
f 143/143/143 142/142/142 144/144/144
f 143/143/143 144/144/144 145/145/145
f 145/145/145 146/146/146 143/143/143
