g aklongerbarrel_LOD3
v -0.0002337972 0.02327427 -0.0004555571
v 0.0003887914 0.02327427 -0.0002666962
v 8.209894E-05 0.02327427 0.0003070843
v 0.0004127386 0.01848655 -0.0001877534
v -0.0001610424 0.01848655 -0.0004944467
v -0.0004127384 0.01848655 -2.355575E-05
v 0.0002337976 0.01848655 0.0002442491
v -0.0003887909 0.02327427 5.538821E-05
v 0.0004208248 0.02327427 -0.000105654
v 0.0004208247 0.01848655 -0.000105654
v -0.0003887911 0.01848655 5.538821E-05
v -0.0001610422 0.02327427 -0.0004944443
v -0.0001610424 0.01848655 -0.0004944467
v 0.0004208248 0.02327427 -0.000105654
v -0.0001610422 0.02327427 -0.0004944443
v -0.0001610424 0.01848655 -0.0004944467
v 0.0004208247 0.01848655 -0.000105654
vt 0.8803247 0.4417333
vt 0.8729522 0.4527671
vt 0.8852123 0.4578453
vt 0.8852134 0.4092134
vt 0.8729353 0.4142481
vt 0.8770672 0.4243244
vt 0.8896793 0.4176405
vt 0.5286828 0.5676205
vt 0.5287601 0.5937516
vt 0.6356981 0.5937516
vt 0.6356206 0.5676205
vt 0.5286385 0.5526884
vt 0.6355764 0.5526884
vt 0.5287601 0.5937516
vt 0.5286385 0.5526884
vt 0.6355764 0.5526884
vt 0.6356981 0.5937516
vn 0 1 0
vn 0 1 0
vn 0 1 0
vn 0 -1 0
vn 0 -1 0
vn 0 -1 0
vn 0 -1 0
vn -0.77301 0 0.6343938
vn 0.9807879 0 0.1950772
vn 0.9807879 0 0.1950772
vn -0.77301 0 0.6343938
vn -0.290264 0 -0.9569466
vn -0.290264 0 -0.9569466
vn 0.9807879 0 0.1950772
vn -0.290264 0 -0.9569466
vn -0.290264 0 -0.9569466
vn 0.9807879 0 0.1950772
g aklongerbarrel_LOD3_0
f 3/3/3 2/2/2 1/1/1
f 6/6/6 5/5/5 4/4/4
f 7/7/7 6/6/6 4/4/4
f 10/10/10 9/9/9 8/8/8
f 11/11/11 10/10/10 8/8/8
f 11/11/11 8/8/8 12/12/12
f 13/13/13 11/11/11 12/12/12
f 16/16/16 15/15/15 14/14/14
f 17/17/17 16/16/16 14/14/14
