g aklongerbarrel_LOD0
v 8.209876E-05 0.01848655 -0.0005183923
v 9.409726E-11 0.01848655 -0.0005264794
v -8.209859E-05 0.01848655 -0.0005183923
v 0.0001610426 0.01848655 -0.0004944467
v -0.0001610424 0.01848655 -0.0004944467
v 0.0002337976 0.01848655 -0.0004555571
v -0.0002337974 0.01848655 -0.0004555571
v 0.000297568 0.01848655 -0.0004032218
v -0.0002975677 0.01848655 -0.0004032218
v 0.000349903 0.01848655 -0.000339452
v -0.0003499028 0.01848655 -0.000339452
v 0.0003887912 0.01848655 -0.0002666962
v -0.0003887911 0.01848655 -0.0002666962
v 0.0004127386 0.01848655 -0.0001877534
v -0.0004127384 0.01848655 -0.0001877534
v 0.0004208247 0.01848655 -0.000105654
v -0.0004208244 0.01848655 -0.000105654
v 0.0004127386 0.01848655 -2.355575E-05
v -0.0004127384 0.01848655 -2.355575E-05
v 0.0003887912 0.01848655 5.538821E-05
v -0.0003887911 0.01848655 5.538821E-05
v 0.000349903 0.01848655 0.0001281428
v -0.0003499028 0.01848655 0.0001281428
v 0.000297568 0.01848655 0.0001919127
v -0.0002975677 0.01848655 0.0001919127
v 0.0002337976 0.01848655 0.0002442491
v -0.0002337974 0.01848655 0.0002442491
v 0.0001610426 0.01848655 0.0002831364
v -0.0001610424 0.01848655 0.0002831364
v 8.209876E-05 0.01848655 0.0003070831
v -8.209859E-05 0.01848655 0.0003070831
v 9.409726E-11 0.01848655 0.0003151691
v -8.209841E-05 0.02327427 -0.0005183923
v 2.6689E-10 0.02327427 -0.0005264771
v 8.209894E-05 0.02327427 -0.0005183923
v -0.0001610422 0.02327427 -0.0004944443
v 0.0001610428 0.02327427 -0.0004944443
v -0.0002337972 0.02327427 -0.0004555571
v 0.0002337978 0.02327427 -0.0004555571
v -0.0002975675 0.02327427 -0.0004032218
v 0.0002975681 0.02327427 -0.0004032218
v -0.0003499026 0.02327427 -0.0003394508
v 0.0003499032 0.02327427 -0.0003394508
v -0.0003887909 0.02327427 -0.0002666962
v 0.0003887914 0.02327427 -0.0002666962
v -0.0004127382 0.02327427 -0.0001877522
v 0.0004127388 0.02327427 -0.0001877522
v -0.0004208243 0.02327427 -0.000105654
v 0.0004208248 0.02327427 -0.000105654
v -0.0004127382 0.02327427 -2.355575E-05
v 0.0004127388 0.02327427 -2.355575E-05
v -0.0003887909 0.02327427 5.538821E-05
v 0.0003887914 0.02327427 5.538821E-05
v -0.0003499026 0.02327427 0.0001281428
v 0.0003499032 0.02327427 0.0001281428
v -0.0002975675 0.02327427 0.0001919127
v 0.0002975681 0.02327427 0.0001919127
v -0.0002337972 0.02327427 0.0002442491
v 0.0002337978 0.02327427 0.0002442491
v -0.0001610422 0.02327427 0.0002831364
v 0.0001610428 0.02327427 0.0002831364
v -8.209841E-05 0.02327427 0.0003070843
v 8.209894E-05 0.02327427 0.0003070843
v 2.6689E-10 0.02327427 0.0003151715
v -8.209859E-05 0.01848655 -0.0005183923
v 9.409726E-11 0.01848655 -0.0005264794
v 2.6689E-10 0.02327427 -0.0005264771
v -8.209841E-05 0.02327427 -0.0005183923
v -0.0001610424 0.01848655 -0.0004944467
v -0.0001610422 0.02327427 -0.0004944443
v -0.0002337974 0.01848655 -0.0004555571
v -0.0002337972 0.02327427 -0.0004555571
v -0.0002975677 0.01848655 -0.0004032218
v -0.0002975675 0.02327427 -0.0004032218
v -0.0003499028 0.01848655 -0.000339452
v -0.0003499026 0.02327427 -0.0003394508
v -0.0003887911 0.01848655 -0.0002666962
v -0.0003887909 0.02327427 -0.0002666962
v -0.0004127384 0.01848655 -0.0001877534
v -0.0004127382 0.02327427 -0.0001877522
v -0.0004208244 0.01848655 -0.000105654
v -0.0004208243 0.02327427 -0.000105654
v -0.0004127384 0.01848655 -2.355575E-05
v -0.0004127382 0.02327427 -2.355575E-05
v -0.0003887911 0.01848655 5.538821E-05
v -0.0003887909 0.02327427 5.538821E-05
v -0.0003499028 0.01848655 0.0001281428
v -0.0003499026 0.02327427 0.0001281428
v -0.0002975677 0.01848655 0.0001919127
v -0.0002975675 0.02327427 0.0001919127
v -0.0002337974 0.01848655 0.0002442491
v -0.0002337972 0.02327427 0.0002442491
v -0.0001610424 0.01848655 0.0002831364
v -0.0001610422 0.02327427 0.0002831364
v -8.209859E-05 0.01848655 0.0003070831
v -8.209841E-05 0.02327427 0.0003070843
v 9.409726E-11 0.01848655 0.0003151691
v 2.6689E-10 0.02327427 0.0003151715
v 8.209876E-05 0.01848655 0.0003070831
v 8.209894E-05 0.02327427 0.0003070843
v 0.0001610426 0.01848655 0.0002831364
v 0.0001610428 0.02327427 0.0002831364
v 0.0002337976 0.01848655 0.0002442491
v 0.0002337978 0.02327427 0.0002442491
v 0.000297568 0.01848655 0.0001919127
v 0.0002975681 0.02327427 0.0001919127
v 0.000349903 0.01848655 0.0001281428
v 0.0003499032 0.02327427 0.0001281428
v 0.0003887912 0.01848655 5.538821E-05
v 0.0003887914 0.02327427 5.538821E-05
v 0.0004127386 0.01848655 -2.355575E-05
v 0.0004127388 0.02327427 -2.355575E-05
v 0.0004208247 0.01848655 -0.000105654
v 0.0004208248 0.02327427 -0.000105654
v 0.0004127386 0.01848655 -0.0001877534
v 0.0004127388 0.02327427 -0.0001877522
v 0.0003887912 0.01848655 -0.0002666962
v 0.0003887914 0.02327427 -0.0002666962
v 0.000349903 0.01848655 -0.000339452
v 0.0003499032 0.02327427 -0.0003394508
v 0.000297568 0.01848655 -0.0004032218
v 0.0002975681 0.02327427 -0.0004032218
v 0.0002337976 0.01848655 -0.0004555571
v 0.0002337978 0.02327427 -0.0004555571
v 0.0001610426 0.01848655 -0.0004944467
v 0.0001610428 0.02327427 -0.0004944443
v 8.209876E-05 0.01848655 -0.0005183923
v 8.209894E-05 0.02327427 -0.0005183923
v 9.409726E-11 0.01848655 -0.0005264794
v 2.6689E-10 0.02327427 -0.0005264771
vt 0.8757186 0.4101144
vt 0.8745246 0.4113001
vt 0.8735847 0.4126958
vt 0.877121 0.4091846
vt 0.8729353 0.4142481
vt 0.8786778 0.4085462
vt 0.8726012 0.4158971
vt 0.8803293 0.4082238
vt 0.8725952 0.4175798
vt 0.8820119 0.4082299
vt 0.8729177 0.4192313
vt 0.883661 0.4085639
vt 0.873556 0.4207882
vt 0.8852134 0.4092134
vt 0.8744859 0.4221906
vt 0.8866091 0.4101531
vt 0.8756714 0.4233845
vt 0.8877946 0.4113472
vt 0.8770672 0.4243244
vt 0.8887245 0.4127496
vt 0.8786194 0.4249737
vt 0.8893629 0.4143064
vt 0.8802686 0.4253079
vt 0.8896854 0.4159579
vt 0.8819513 0.4253139
vt 0.8896793 0.4176405
vt 0.8836027 0.4249914
vt 0.8893452 0.4192896
vt 0.8851596 0.424353
vt 0.8886958 0.4208419
vt 0.886562 0.4234233
vt 0.887756 0.4222376
vt 0.8771198 0.4427056
vt 0.8757208 0.4436403
vt 0.874531 0.4448301
vt 0.8786744 0.4420616
vt 0.8735961 0.4462292
vt 0.8803247 0.4417333
vt 0.8729522 0.4477837
vt 0.8820074 0.4417333
vt 0.872624 0.4494341
vt 0.8836577 0.4420616
vt 0.872624 0.4511168
vt 0.8852122 0.4427056
vt 0.8729522 0.4527671
vt 0.8866113 0.4436403
vt 0.8735961 0.4543217
vt 0.8878011 0.4448301
vt 0.874531 0.4557208
vt 0.8887359 0.4462292
vt 0.8757208 0.4569106
vt 0.8893799 0.4477837
vt 0.8771199 0.4578454
vt 0.8897082 0.4494341
vt 0.8786744 0.4584893
vt 0.8897082 0.4511168
vt 0.8803247 0.4588176
vt 0.8893799 0.4527671
vt 0.8820074 0.4588176
vt 0.888736 0.4543217
vt 0.8836577 0.4584893
vt 0.8878011 0.4557206
vt 0.8852123 0.4578453
vt 0.8866113 0.4569106
vt 0.6355708 0.5508218
vt 0.6355653 0.5489553
vt 0.5286275 0.5489553
vt 0.528633 0.5508218
vt 0.6355764 0.5526884
vt 0.5286385 0.5526884
vt 0.6355819 0.5545549
vt 0.5286441 0.5545549
vt 0.6355875 0.5564214
vt 0.5286496 0.5564214
vt 0.6355929 0.5582879
vt 0.5286552 0.5582879
vt 0.6355985 0.5601544
vt 0.5286607 0.5601544
vt 0.635604 0.5620209
vt 0.5286662 0.5620209
vt 0.6356096 0.5638874
vt 0.5286717 0.5638875
vt 0.6356151 0.5657539
vt 0.5286773 0.5657539
vt 0.6356206 0.5676205
vt 0.5286828 0.5676205
vt 0.6356261 0.5694869
vt 0.5286884 0.5694869
vt 0.6356316 0.5713534
vt 0.5286938 0.5713534
vt 0.6356372 0.57322
vt 0.5286994 0.57322
vt 0.6356427 0.5750865
vt 0.5287049 0.5750865
vt 0.6356483 0.576953
vt 0.5287105 0.576953
vt 0.6356538 0.5788195
vt 0.528716 0.5788195
vt 0.6356593 0.580686
vt 0.5287215 0.580686
vt 0.6356648 0.5825525
vt 0.528727 0.5825525
vt 0.6356703 0.5844191
vt 0.5287326 0.5844191
vt 0.635676 0.5862856
vt 0.5287381 0.5862856
vt 0.6356815 0.5881521
vt 0.5287436 0.5881521
vt 0.635687 0.5900186
vt 0.5287492 0.5900186
vt 0.6356925 0.591885
vt 0.5287547 0.591885
vt 0.6356981 0.5937516
vt 0.5287601 0.5937516
vt 0.6357037 0.5956181
vt 0.5287657 0.5956181
vt 0.6357091 0.5974846
vt 0.5287713 0.5974846
vt 0.6357147 0.5993511
vt 0.5287768 0.5993511
vt 0.6357202 0.6012176
vt 0.5287822 0.6012176
vt 0.6357258 0.6030841
vt 0.5287878 0.6030841
vt 0.6357312 0.6049507
vt 0.5287934 0.6049507
vt 0.6357368 0.6068172
vt 0.5287989 0.6068172
vt 0.6357424 0.6086837
vt 0.5288044 0.6086837
vn 0 -1 0
vn 0 -1 0
vn 0 -1 0
vn 0 -1 0
vn 0 -1 0
vn 0 -1 0
vn 0 -1 0
vn 0 -1 0
vn 0 -1 0
vn 0 -1 0
vn 0 -1 0
vn 0 -1 0
vn 0 -1 0
vn 0 -1 0
vn 0 -1 0
vn 0 -1 0
vn 0 -1 0
vn 0 -1 0
vn 0 -1 0
vn 0 -1 0
vn 0 -1 0
vn 0 -1 0
vn 0 -1 0
vn 0 -1 0
vn 0 -1 0
vn 0 -1 0
vn 0 -1 0
vn 0 -1 0
vn 0 -1 0
vn 0 -1 0
vn 0 -1 0
vn 0 -1 0
vn 0 1 0
vn 0 1 0
vn 0 1 0
vn 0 1 0
vn 0 1 0
vn 0 1 0
vn 0 1 0
vn 0 1 0
vn 0 1 0
vn 0 1 0
vn 0 1 0
vn 0 1 0
vn 0 1 0
vn 0 1 0
vn 0 1 0
vn 0 1 0
vn 0 1 0
vn 0 1 0
vn 0 1 0
vn 0 1 0
vn 0 1 0
vn 0 1 0
vn 0 1 0
vn 0 1 0
vn 0 1 0
vn 0 1 0
vn 0 1 0
vn 0 1 0
vn 0 1 0
vn 0 1 0
vn 0 1 0
vn 0 1 0
vn -0.1950772 0 -0.9807879
vn 0 0 -1
vn 0 0 -1
vn -0.1950772 0 -0.9807879
vn -0.3826815 0 -0.9238803
vn -0.3826815 0 -0.9238803
vn -0.5555732 0 -0.8314676
vn -0.5555732 0 -0.8314676
vn -0.7071068 0 -0.7071068
vn -0.7071068 0 -0.7071068
vn -0.8314676 0 -0.5555732
vn -0.8314676 0 -0.5555732
vn -0.9238803 0 -0.3826815
vn -0.9238803 0 -0.3826815
vn -0.9807879 0 -0.1950772
vn -0.9807879 0 -0.1950772
vn -1 0 0
vn -1 0 0
vn -0.9807879 0 0.1950772
vn -0.9807879 0 0.1950772
vn -0.9238803 0 0.3826815
vn -0.9238803 0 0.3826815
vn -0.8314676 0 0.5555732
vn -0.8314676 0 0.5555732
vn -0.7071068 0 0.7071068
vn -0.7071068 0 0.7071068
vn -0.5555732 0 0.8314676
vn -0.5555732 0 0.8314676
vn -0.3826815 0 0.9238803
vn -0.3826815 0 0.9238803
vn -0.1950772 0 0.9807879
vn -0.1950772 0 0.9807879
vn 0 0 1
vn 0 0 1
vn 0.1950772 0 0.9807879
vn 0.1950772 0 0.9807879
vn 0.3826815 0 0.9238803
vn 0.3826815 0 0.9238803
vn 0.5555732 0 0.8314676
vn 0.5555732 0 0.8314676
vn 0.7071068 0 0.7071068
vn 0.7071068 0 0.7071068
vn 0.8314676 0 0.5555732
vn 0.8314676 0 0.5555732
vn 0.9238803 0 0.3826815
vn 0.9238803 0 0.3826815
vn 0.9807879 0 0.1950772
vn 0.9807879 0 0.1950772
vn 1 0 0
vn 1 0 0
vn 0.9807879 0 -0.1950772
vn 0.9807879 0 -0.1950772
vn 0.9238803 0 -0.3826815
vn 0.9238803 0 -0.3826815
vn 0.8314676 0 -0.5555732
vn 0.8314676 0 -0.5555732
vn 0.7071068 0 -0.7071068
vn 0.7071068 0 -0.7071068
vn 0.5555732 0 -0.8314676
vn 0.5555732 0 -0.8314676
vn 0.3826815 0 -0.9238803
vn 0.3826815 0 -0.9238803
vn 0.1950772 0 -0.9807879
vn 0.1950772 0 -0.9807879
vn 0 0 -1
vn 0 0 -1
g aklongerbarrel_LOD0_0
f 3/3/3 2/2/2 1/1/1
f 1/1/1 4/4/4 3/3/3
f 4/4/4 5/5/5 3/3/3
f 4/4/4 6/6/6 5/5/5
f 6/6/6 7/7/7 5/5/5
f 6/6/6 8/8/8 7/7/7
f 8/8/8 9/9/9 7/7/7
f 8/8/8 10/10/10 9/9/9
f 10/10/10 11/11/11 9/9/9
f 10/10/10 12/12/12 11/11/11
f 12/12/12 13/13/13 11/11/11
f 12/12/12 14/14/14 13/13/13
f 14/14/14 15/15/15 13/13/13
f 14/14/14 16/16/16 15/15/15
f 16/16/16 17/17/17 15/15/15
f 16/16/16 18/18/18 17/17/17
f 18/18/18 19/19/19 17/17/17
f 18/18/18 20/20/20 19/19/19
f 20/20/20 21/21/21 19/19/19
f 20/20/20 22/22/22 21/21/21
f 22/22/22 23/23/23 21/21/21
f 22/22/22 24/24/24 23/23/23
f 24/24/24 25/25/25 23/23/23
f 24/24/24 26/26/26 25/25/25
f 26/26/26 27/27/27 25/25/25
f 26/26/26 28/28/28 27/27/27
f 28/28/28 29/29/29 27/27/27
f 28/28/28 30/30/30 29/29/29
f 30/30/30 31/31/31 29/29/29
f 30/30/30 32/32/32 31/31/31
f 35/35/35 34/34/34 33/33/33
f 33/33/33 36/36/36 35/35/35
f 36/36/36 37/37/37 35/35/35
f 36/36/36 38/38/38 37/37/37
f 38/38/38 39/39/39 37/37/37
f 38/38/38 40/40/40 39/39/39
f 40/40/40 41/41/41 39/39/39
f 40/40/40 42/42/42 41/41/41
f 42/42/42 43/43/43 41/41/41
f 42/42/42 44/44/44 43/43/43
f 44/44/44 45/45/45 43/43/43
f 44/44/44 46/46/46 45/45/45
f 46/46/46 47/47/47 45/45/45
f 46/46/46 48/48/48 47/47/47
f 48/48/48 49/49/49 47/47/47
f 48/48/48 50/50/50 49/49/49
f 50/50/50 51/51/51 49/49/49
f 50/50/50 52/52/52 51/51/51
f 52/52/52 53/53/53 51/51/51
f 52/52/52 54/54/54 53/53/53
f 54/54/54 55/55/55 53/53/53
f 54/54/54 56/56/56 55/55/55
f 56/56/56 57/57/57 55/55/55
f 56/56/56 58/58/58 57/57/57
f 58/58/58 59/59/59 57/57/57
f 58/58/58 60/60/60 59/59/59
f 60/60/60 61/61/61 59/59/59
f 60/60/60 62/62/62 61/61/61
f 62/62/62 63/63/63 61/61/61
f 62/62/62 64/64/64 63/63/63
f 67/67/67 66/66/66 65/65/65
f 68/68/68 67/67/67 65/65/65
f 68/68/68 65/65/65 69/69/69
f 70/70/70 68/68/68 69/69/69
f 70/70/70 69/69/69 71/71/71
f 72/72/72 70/70/70 71/71/71
f 72/72/72 71/71/71 73/73/73
f 74/74/74 72/72/72 73/73/73
f 74/74/74 73/73/73 75/75/75
f 76/76/76 74/74/74 75/75/75
f 76/76/76 75/75/75 77/77/77
f 78/78/78 76/76/76 77/77/77
f 78/78/78 77/77/77 79/79/79
f 80/80/80 78/78/78 79/79/79
f 80/80/80 79/79/79 81/81/81
f 82/82/82 80/80/80 81/81/81
f 82/82/82 81/81/81 83/83/83
f 84/84/84 82/82/82 83/83/83
f 84/84/84 83/83/83 85/85/85
f 86/86/86 84/84/84 85/85/85
f 86/86/86 85/85/85 87/87/87
f 88/88/88 86/86/86 87/87/87
f 88/88/88 87/87/87 89/89/89
f 90/90/90 88/88/88 89/89/89
f 90/90/90 89/89/89 91/91/91
f 92/92/92 90/90/90 91/91/91
f 92/92/92 91/91/91 93/93/93
f 94/94/94 92/92/92 93/93/93
f 94/94/94 93/93/93 95/95/95
f 96/96/96 94/94/94 95/95/95
f 96/96/96 95/95/95 97/97/97
f 98/98/98 96/96/96 97/97/97
f 98/98/98 97/97/97 99/99/99
f 100/100/100 98/98/98 99/99/99
f 100/100/100 99/99/99 101/101/101
f 102/102/102 100/100/100 101/101/101
f 102/102/102 101/101/101 103/103/103
f 104/104/104 102/102/102 103/103/103
f 104/104/104 103/103/103 105/105/105
f 106/106/106 104/104/104 105/105/105
f 106/106/106 105/105/105 107/107/107
f 108/108/108 106/106/106 107/107/107
f 108/108/108 107/107/107 109/109/109
f 110/110/110 108/108/108 109/109/109
f 110/110/110 109/109/109 111/111/111
f 112/112/112 110/110/110 111/111/111
f 112/112/112 111/111/111 113/113/113
f 114/114/114 112/112/112 113/113/113
f 114/114/114 113/113/113 115/115/115
f 116/116/116 114/114/114 115/115/115
f 116/116/116 115/115/115 117/117/117
f 118/118/118 116/116/116 117/117/117
f 118/118/118 117/117/117 119/119/119
f 120/120/120 118/118/118 119/119/119
f 120/120/120 119/119/119 121/121/121
f 122/122/122 120/120/120 121/121/121
f 122/122/122 121/121/121 123/123/123
f 124/124/124 122/122/122 123/123/123
f 124/124/124 123/123/123 125/125/125
f 126/126/126 124/124/124 125/125/125
f 126/126/126 125/125/125 127/127/127
f 128/128/128 126/126/126 127/127/127
f 128/128/128 127/127/127 129/129/129
f 130/130/130 128/128/128 129/129/129
