g aklongerbarrel_LOD1
v 0.0001610426 0.01848655 -0.0004944467
v 9.409726E-11 0.01848655 -0.0005264794
v -0.0001610424 0.01848655 -0.0004944467
v 0.0002337976 0.01848655 -0.0004555571
v -0.0002337974 0.01848655 -0.0004555571
v 0.000349903 0.01848655 -0.000339452
v -0.0003499028 0.01848655 -0.000339452
v 0.0004127386 0.01848655 -0.0001877534
v -0.0004127384 0.01848655 -0.0001877534
v 0.0004208247 0.01848655 -0.000105654
v -0.0004208244 0.01848655 -0.000105654
v 0.0003887912 0.01848655 5.538821E-05
v -0.0003887911 0.01848655 5.538821E-05
v 0.000349903 0.01848655 0.0001281428
v -0.0003499028 0.01848655 0.0001281428
v 0.0002337976 0.01848655 0.0002442491
v -0.0002337974 0.01848655 0.0002442491
v 8.209876E-05 0.01848655 0.0003070831
v -8.209859E-05 0.01848655 0.0003070831
v -0.0001610422 0.02327427 -0.0004944443
v 2.6689E-10 0.02327427 -0.0005264771
v 0.0001610428 0.02327427 -0.0004944443
v -0.0002337972 0.02327427 -0.0004555571
v 0.0002337978 0.02327427 -0.0004555571
v -0.0003499026 0.02327427 -0.0003394508
v 0.0003499032 0.02327427 -0.0003394508
v -0.0004127382 0.02327427 -0.0001877522
v 0.0004127388 0.02327427 -0.0001877522
v -0.0004208243 0.02327427 -0.000105654
v 0.0004208248 0.02327427 -0.000105654
v -0.0003887909 0.02327427 5.538821E-05
v 0.0003887914 0.02327427 5.538821E-05
v -0.0003499026 0.02327427 0.0001281428
v 0.0003499032 0.02327427 0.0001281428
v -0.0002337972 0.02327427 0.0002442491
v 0.0002337978 0.02327427 0.0002442491
v -8.209841E-05 0.02327427 0.0003070843
v 8.209894E-05 0.02327427 0.0003070843
v 2.6689E-10 0.02327427 -0.0005264771
v 9.409726E-11 0.01848655 -0.0005264794
v 0.0001610426 0.01848655 -0.0004944467
v 0.0001610428 0.02327427 -0.0004944443
v 0.0002337978 0.02327427 -0.0004555571
v 0.0002337976 0.01848655 -0.0004555571
v 0.0003499032 0.02327427 -0.0003394508
v 0.000349903 0.01848655 -0.000339452
v 0.0004127386 0.01848655 -0.0001877534
v 0.0004127388 0.02327427 -0.0001877522
v 0.0004208248 0.02327427 -0.000105654
v 0.0004208247 0.01848655 -0.000105654
v 0.0003887914 0.02327427 5.538821E-05
v 0.0003887912 0.01848655 5.538821E-05
v 0.0003499032 0.02327427 0.0001281428
v 0.000349903 0.01848655 0.0001281428
v 0.0002337976 0.01848655 0.0002442491
v 0.0002337978 0.02327427 0.0002442491
v 8.209894E-05 0.02327427 0.0003070843
v 8.209876E-05 0.01848655 0.0003070831
v -8.209841E-05 0.02327427 0.0003070843
v -8.209859E-05 0.01848655 0.0003070831
v -0.0002337974 0.01848655 0.0002442491
v -0.0002337972 0.02327427 0.0002442491
v -0.0003499026 0.02327427 0.0001281428
v -0.0003499028 0.01848655 0.0001281428
v -0.0003887909 0.02327427 5.538821E-05
v -0.0003887911 0.01848655 5.538821E-05
v -0.0004208244 0.01848655 -0.000105654
v -0.0004208243 0.02327427 -0.000105654
v -0.0004127382 0.02327427 -0.0001877522
v -0.0004127384 0.01848655 -0.0001877534
v -0.0003499026 0.02327427 -0.0003394508
v -0.0003499028 0.01848655 -0.000339452
v -0.0002337972 0.02327427 -0.0004555571
v -0.0002337974 0.01848655 -0.0004555571
v -0.0001610422 0.02327427 -0.0004944443
v -0.0001610424 0.01848655 -0.0004944467
v 2.6689E-10 0.02327427 -0.0005264771
v 9.409726E-11 0.01848655 -0.0005264794
vt 0.877121 0.4091846
vt 0.8745246 0.4113001
vt 0.8729353 0.4142481
vt 0.8786778 0.4085462
vt 0.8726012 0.4158971
vt 0.8820119 0.4082299
vt 0.8729177 0.4192313
vt 0.8852134 0.4092134
vt 0.8744859 0.4221906
vt 0.8866091 0.4101531
vt 0.8756714 0.4233845
vt 0.8887245 0.4127496
vt 0.8786194 0.4249737
vt 0.8893629 0.4143064
vt 0.8802686 0.4253079
vt 0.8896793 0.4176405
vt 0.8836027 0.4249914
vt 0.8886958 0.4208419
vt 0.886562 0.4234233
vt 0.8786744 0.4420616
vt 0.8757208 0.4436403
vt 0.8735961 0.4462292
vt 0.8803247 0.4417333
vt 0.8729522 0.4477837
vt 0.8836577 0.4420616
vt 0.872624 0.4511168
vt 0.8866113 0.4436403
vt 0.8735961 0.4543217
vt 0.8878011 0.4448301
vt 0.874531 0.4557208
vt 0.8893799 0.4477837
vt 0.8771199 0.4578454
vt 0.8897082 0.4494341
vt 0.8786744 0.4584893
vt 0.8893799 0.4527671
vt 0.8820074 0.4588176
vt 0.8878011 0.4557206
vt 0.8852123 0.4578453
vt 0.5288044 0.6086837
vt 0.6357424 0.6086837
vt 0.6357312 0.6049507
vt 0.5287934 0.6049507
vt 0.5287878 0.6030841
vt 0.6357258 0.6030841
vt 0.5287768 0.5993511
vt 0.6357147 0.5993511
vt 0.6357037 0.5956181
vt 0.5287657 0.5956181
vt 0.5287601 0.5937516
vt 0.6356981 0.5937516
vt 0.5287492 0.5900186
vt 0.635687 0.5900186
vt 0.5287436 0.5881521
vt 0.6356815 0.5881521
vt 0.6356703 0.5844191
vt 0.5287326 0.5844191
vt 0.5287215 0.580686
vt 0.6356593 0.580686
vt 0.5287105 0.576953
vt 0.6356483 0.576953
vt 0.6356372 0.57322
vt 0.5286994 0.57322
vt 0.5286884 0.5694869
vt 0.6356261 0.5694869
vt 0.5286828 0.5676205
vt 0.6356206 0.5676205
vt 0.6356096 0.5638874
vt 0.5286717 0.5638875
vt 0.5286662 0.5620209
vt 0.635604 0.5620209
vt 0.5286552 0.5582879
vt 0.6355929 0.5582879
vt 0.5286441 0.5545549
vt 0.6355819 0.5545549
vt 0.5286385 0.5526884
vt 0.6355764 0.5526884
vt 0.5286275 0.5489553
vt 0.6355653 0.5489553
vn 0 -1 0
vn 0 -1 0
vn 0 -1 0
vn 0 -1 0
vn 0 -1 0
vn 0 -1 0
vn 0 -1 0
vn 0 -1 0
vn 0 -1 0
vn 0 -1 0
vn 0 -1 0
vn 0 -1 0
vn 0 -1 0
vn 0 -1 0
vn 0 -1 0
vn 0 -1 0
vn 0 -1 0
vn 0 -1 0
vn 0 -1 0
vn 0 1 0
vn 0 1 0
vn 0 1 0
vn 0 1 0
vn 0 1 0
vn 0 1 0
vn 0 1 0
vn 0 1 0
vn 0 1 0
vn 0 1 0
vn 0 1 0
vn 0 1 0
vn 0 1 0
vn 0 1 0
vn 0 1 0
vn 0 1 0
vn 0 1 0
vn 0 1 0
vn 0 1 0
vn 0 0 -1
vn 0 0 -1
vn 0.3368719 0 -0.9415504
vn 0.3368719 0 -0.9415504
vn 0.5957041 0 -0.803204
vn 0.5957041 0 -0.803204
vn 0.8314676 0 -0.5555732
vn 0.8314676 0 -0.5555732
vn 0.9700365 0 -0.2429593
vn 0.9700365 0 -0.2429593
vn 0.9987966 0 0.0490441
vn 0.9987966 0 0.0490441
vn 0.9415504 0 0.3368719
vn 0.9415504 0 0.3368719
vn 0.803204 0 0.5957041
vn 0.803204 0 0.5957041
vn 0.5555732 0 0.8314676
vn 0.5555732 0 0.8314676
vn 0.1950772 0 0.9807879
vn 0.1950772 0 0.9807879
vn -0.1950772 0 0.9807879
vn -0.1950772 0 0.9807879
vn -0.5555732 0 0.8314676
vn -0.5555732 0 0.8314676
vn -0.803204 0 0.5957041
vn -0.803204 0 0.5957041
vn -0.9415504 0 0.3368719
vn -0.9415504 0 0.3368719
vn -0.9987966 0 0.0490441
vn -0.9987966 0 0.0490441
vn -0.9700365 0 -0.2429593
vn -0.9700365 0 -0.2429593
vn -0.8314676 0 -0.5555732
vn -0.8314676 0 -0.5555732
vn -0.5957041 0 -0.803204
vn -0.5957041 0 -0.803204
vn -0.3368719 0 -0.9415504
vn -0.3368719 0 -0.9415504
vn 0 0 -1
vn 0 0 -1
g aklongerbarrel_LOD1_0
f 3/3/3 2/2/2 1/1/1
f 1/1/1 4/4/4 3/3/3
f 4/4/4 5/5/5 3/3/3
f 4/4/4 6/6/6 5/5/5
f 6/6/6 7/7/7 5/5/5
f 6/6/6 8/8/8 7/7/7
f 8/8/8 9/9/9 7/7/7
f 8/8/8 10/10/10 9/9/9
f 10/10/10 11/11/11 9/9/9
f 10/10/10 12/12/12 11/11/11
f 12/12/12 13/13/13 11/11/11
f 12/12/12 14/14/14 13/13/13
f 14/14/14 15/15/15 13/13/13
f 14/14/14 16/16/16 15/15/15
f 16/16/16 17/17/17 15/15/15
f 16/16/16 18/18/18 17/17/17
f 18/18/18 19/19/19 17/17/17
f 22/22/22 21/21/21 20/20/20
f 20/20/20 23/23/23 22/22/22
f 23/23/23 24/24/24 22/22/22
f 23/23/23 25/25/25 24/24/24
f 25/25/25 26/26/26 24/24/24
f 25/25/25 27/27/27 26/26/26
f 27/27/27 28/28/28 26/26/26
f 27/27/27 29/29/29 28/28/28
f 29/29/29 30/30/30 28/28/28
f 29/29/29 31/31/31 30/30/30
f 31/31/31 32/32/32 30/30/30
f 31/31/31 33/33/33 32/32/32
f 33/33/33 34/34/34 32/32/32
f 33/33/33 35/35/35 34/34/34
f 35/35/35 36/36/36 34/34/34
f 35/35/35 37/37/37 36/36/36
f 37/37/37 38/38/38 36/36/36
f 41/41/41 40/40/40 39/39/39
f 42/42/42 41/41/41 39/39/39
f 42/42/42 43/43/43 41/41/41
f 43/43/43 44/44/44 41/41/41
f 43/43/43 45/45/45 44/44/44
f 45/45/45 46/46/46 44/44/44
f 47/47/47 46/46/46 45/45/45
f 48/48/48 47/47/47 45/45/45
f 48/48/48 49/49/49 47/47/47
f 49/49/49 50/50/50 47/47/47
f 49/49/49 51/51/51 50/50/50
f 51/51/51 52/52/52 50/50/50
f 51/51/51 53/53/53 52/52/52
f 53/53/53 54/54/54 52/52/52
f 55/55/55 54/54/54 53/53/53
f 56/56/56 55/55/55 53/53/53
f 56/56/56 57/57/57 55/55/55
f 57/57/57 58/58/58 55/55/55
f 57/57/57 59/59/59 58/58/58
f 59/59/59 60/60/60 58/58/58
f 61/61/61 60/60/60 59/59/59
f 62/62/62 61/61/61 59/59/59
f 62/62/62 63/63/63 61/61/61
f 63/63/63 64/64/64 61/61/61
f 63/63/63 65/65/65 64/64/64
f 65/65/65 66/66/66 64/64/64
f 67/67/67 66/66/66 65/65/65
f 68/68/68 67/67/67 65/65/65
f 68/68/68 69/69/69 67/67/67
f 69/69/69 70/70/70 67/67/67
f 69/69/69 71/71/71 70/70/70
f 71/71/71 72/72/72 70/70/70
f 71/71/71 73/73/73 72/72/72
f 73/73/73 74/74/74 72/72/72
f 73/73/73 75/75/75 74/74/74
f 75/75/75 76/76/76 74/74/74
f 75/75/75 77/77/77 76/76/76
f 77/77/77 78/78/78 76/76/76
