g akmuzzle1_LOD3
v 0.0004853145 0.01837142 9.540915E-05
v 1.666562E-10 0.01837142 -0.0006309163
v -0.0002918411 0.01837142 0.0003311574
v -0.0007618395 0.02404363 4.592419E-05
v 0.0007618378 0.02404363 4.592419E-05
v 0.000151538 0.02404363 0.0006562245
v 0.0005950762 0.02374605 -1.067638E-05
v 0.0006532164 0.02404363 4.592419E-05
v -0.0001299337 0.02404363 0.0005476022
v -0.0001299337 0.02404363 0.0005476022
v 0.0005942289 0.02374605 -0.0002091563
v 0.0005950762 0.02374605 -1.067638E-05
v -9.078157E-10 0.02404363 -0.0008823788
v 0.0007618378 0.02404363 -0.0002571523
v -0.0007618395 0.02404363 -0.0002571523
v -0.0005942301 0.02374605 -0.0002091563
v -0.0006532182 0.02404363 -0.0002571523
v -0.0003700186 0.02404363 -0.0006593859
v -8.449513E-10 0.02091875 -0.0001060939
v -0.0005950775 0.02374605 -1.067638E-05
v -0.0001299337 0.02404363 0.0005476022
v 0.0005942289 0.02374605 -0.0002091563
v -0.0006532182 0.02404363 4.592419E-05
v 0.0004227536 0.02255292 -0.0002807259
v 3.109944E-10 0.02255292 -0.0005632007
v 0.0001536658 0.02190715 -0.0008781457
v 0.0007277079 0.02190715 -0.0004070413
v 0.0001536658 0.02190715 0.0006669164
v 8.927057E-05 0.02255292 0.0003431773
v -0.0007876649 0.02190715 -0.0001056147
v -0.0004575846 0.02255292 -0.0001056147
v 3.109944E-10 0.02255292 -0.0005632007
v -0.0007876649 0.02190715 -0.0001056147
v 0.0001536658 0.02190715 -0.0008781457
v -0.0004575846 0.02255292 -0.0001056147
v -0.0007028516 0.02374605 -0.0002091563
v -0.0005942301 0.02374605 -0.0002091563
v -0.0005950775 0.02374605 -1.067638E-05
v -0.000703699 0.02374605 -1.067638E-05
v 2.060127E-10 0.02190715 -0.0008932793
v -0.0001536654 0.02190715 -0.0008781457
v 1.671225E-10 0.01857037 -0.0008932793
v 0.0001536658 0.01857037 -0.0008781457
v 0.0001536658 0.02190715 -0.0008781457
v 0.0003014265 0.01857037 -0.000833323
v 0.0003014265 0.02190715 -0.000833323
v 0.0004376032 0.01857037 -0.000760535
v 0.0004376033 0.02190715 -0.000760535
v 0.0005569634 0.01857037 -0.0006625783
v 0.0005569634 0.02190715 -0.0006625783
v 0.0006549199 0.01857037 -0.0005432176
v 0.0006549199 0.02190715 -0.0005432176
v 0.0007277078 0.01857037 -0.0004070413
v 0.0007277079 0.02190715 -0.0004070413
v -0.0001536654 0.02190715 0.0006669164
v -0.0001536655 0.01857037 0.0006669164
v -0.0007277076 0.02190715 -0.0004070413
v -0.0007277076 0.01857037 -0.0004070413
v -0.0006549197 0.02190715 -0.0005432176
v -0.0006549197 0.01857037 -0.0005432176
v -0.0005569631 0.02190715 -0.0006625783
v -0.0005569631 0.01857037 -0.0006625783
v -0.000437603 0.01857037 -0.000760535
v -0.000437603 0.02190715 -0.000760535
v -0.0003014261 0.01857037 -0.000833323
v -0.000301426 0.02190715 -0.000833323
v -0.0001536655 0.01857037 -0.0008781457
v -0.0001536654 0.02190715 -0.0008781457
v -0.0001536655 0.01857037 -0.0008781457
v 1.671225E-10 0.01857037 -0.0008932793
v -0.000301426 0.02190715 -0.000833323
v 8.927057E-05 0.02255292 -0.0005544066
v 0.000151538 0.02404363 -0.0008674526
v -0.0007618395 0.02404363 -0.0002571523
v -0.0004575846 0.02255292 -0.0001056147
v -0.0007618395 0.02404363 -0.0002571523
v -0.0007030475 0.02371416 -7.339239E-05
v -0.0004575846 0.02255292 -0.0001056147
v -0.0007618395 0.02404363 4.592419E-05
v 8.927057E-05 0.02255292 0.0003431773
v 0.000151538 0.02404363 0.0006562245
v 0.0007036976 0.02374605 -1.067638E-05
v 0.0007618378 0.02404363 4.592419E-05
v 0.0007028502 0.02374605 -0.0002091563
v 0.000151538 0.02404363 -0.0008674526
v 0.0007618378 0.02404363 -0.0002571523
v 0.0004227536 0.02255292 -0.0002807259
v 8.927057E-05 0.02255292 -0.0005544066
v 0.0007028502 0.02374605 -0.0002091563
v 0.0005942289 0.02374605 -0.0002091563
v 0.0006532164 0.02404363 -0.0002571523
v 0.0007618378 0.02404363 -0.0002571523
v 0.0007618378 0.02404363 4.592419E-05
v 0.0006532164 0.02404363 4.592419E-05
v 0.0005950762 0.02374605 -1.067638E-05
v 0.0007036976 0.02374605 -1.067638E-05
v 0.0005942289 0.02374605 -0.0002091563
v 0.0007028502 0.02374605 -0.0002091563
v 0.0007036976 0.02374605 -1.067638E-05
v 0.0005950762 0.02374605 -1.067638E-05
v -0.000703699 0.02374605 -1.067638E-05
v -0.0005950775 0.02374605 -1.067638E-05
v -0.0006532182 0.02404363 4.592419E-05
v -0.0007618395 0.02404363 4.592419E-05
v -0.0007618395 0.02404363 -0.0002571523
v -0.0006532182 0.02404363 -0.0002571523
v -0.0005942301 0.02374605 -0.0002091563
v -0.0007028516 0.02374605 -0.0002091563
v 0.0006532164 0.02404363 -0.0002571523
v 0.0005942289 0.02374605 -0.0002091563
v -8.449513E-10 0.02091875 -0.0001060939
v -0.0003700186 0.02404363 -0.0006593859
v 0.0004853145 0.01837142 -0.0003066397
v 0.0001024811 0.01837142 0.0004095924
v 0.0001536658 0.01857037 0.0006669164
v -0.0004853142 0.01837142 -0.0003066397
v 0.0007277078 0.01857037 -0.0004070413
v -0.0007277076 0.01857037 -0.0004070413
v 1.666562E-10 0.01837142 -0.0006309163
v 1.671225E-10 0.01857037 -0.0008932793
vt 0.5186979 0.9224194
vt 0.5045711 0.934062
vt 0.5252435 0.9381293
vt 0.7150956 0.2345765
vt 0.7150956 0.2665069
vt 0.7278852 0.2537174
vt 0.7565646 0.7843916
vt 0.7620975 0.7811818
vt 0.7508979 0.763382
vt 0.7508979 0.763382
vt 0.7579936 0.7881631
vt 0.7565646 0.7843916
vt 0.7130251 0.04055727
vt 0.7261274 0.05652237
vt 0.7261274 0.02459204
vt 0.7314662 0.7555724
vt 0.7340421 0.74973
vt 0.7246426 0.745352
vt 0.700522 0.8077472
vt 0.7348845 0.7577245
vt 0.7508979 0.763382
vt 0.7579936 0.7881631
vt 0.739154 0.7529684
vt 0.2514748 0.169187
vt 0.2416901 0.1745296
vt 0.2482978 0.1884367
vt 0.2620279 0.180124
vt 0.2731126 0.1540251
vt 0.2579144 0.1540252
vt 0.262028 0.1279263
vt 0.251475 0.1388634
vt 0.2416901 0.1745296
vt 0.262028 0.1279263
vt 0.2482978 0.1884367
vt 0.251475 0.1388634
vt 0.9319769 0.1223579
vt 0.9319859 0.1200816
vt 0.9275128 0.1200816
vt 0.9275038 0.1223579
vt 0.03694075 0.6068301
vt 0.03694081 0.6100659
vt 0.106867 0.6068296
vt 0.1068668 0.6035937
vt 0.03694063 0.6035942
vt 0.1068668 0.6003579
vt 0.03694057 0.6003584
vt 0.1068668 0.5971221
vt 0.03694075 0.5971227
vt 0.1068668 0.5938863
vt 0.03694057 0.5938868
vt 0.1068668 0.5906505
vt 0.03694057 0.590651
vt 0.1068667 0.5874147
vt 0.03694051 0.5874152
vt 0.03694051 0.5518209
vt 0.1068667 0.5518209
vt 0.0369405 0.5226985
vt 0.1068668 0.5226988
vt 0.0369405 0.5194625
vt 0.1068668 0.519463
vt 0.03694056 0.5162268
vt 0.1068669 0.5162272
vt 0.1068669 0.5129914
vt 0.03694062 0.5129908
vt 0.106867 0.5097556
vt 0.03694074 0.509755
vt 0.1068669 0.5065198
vt 0.03694081 0.6100659
vt 0.1068669 0.5065198
vt 0.106867 0.6068296
vt 0.03694074 0.509755
vt 0.4542418 0.8049308
vt 0.4369056 0.7780982
vt 0.5101386 0.7720762
vt 0.495683 0.8006734
vt 0.5101386 0.7720762
vt 0.5040171 0.7772291
vt 0.495683 0.8006734
vt 0.5042149 0.7697883
vt 0.479144 0.7975851
vt 0.4791414 0.7656381
vt 0.4608571 0.7744125
vt 0.4601877 0.7679835
vt 0.4568529 0.7755984
vt 0.4369056 0.7780982
vt 0.4540978 0.7697819
vt 0.4626027 0.8006732
vt 0.4542418 0.8049308
vt 0.8257783 0.1804881
vt 0.8280122 0.1809253
vt 0.8280122 0.1744887
vt 0.8257783 0.1740516
vt 0.7301388 0.3814245
vt 0.7305679 0.3836601
vt 0.7370317 0.3836601
vt 0.7366026 0.3814245
vt 0.1921953 0.1938328
vt 0.1921894 0.1915565
vt 0.1877164 0.1915499
vt 0.1877222 0.1938262
vt 0.8605917 0.1112577
vt 0.8628271 0.1116867
vt 0.8628271 0.1052229
vt 0.8605917 0.1047939
vt 0.02146985 0.4264725
vt 0.01923593 0.4269097
vt 0.01923593 0.4333462
vt 0.02146985 0.432909
vt 0.764236 0.7868124
vt 0.7579936 0.7881631
vt 0.700522 0.8077472
vt 0.7246426 0.745352
vt 0.5095752 0.3750465
vt 0.5096105 0.3916019
vt 0.5140358 0.3969558
vt 0.4921928 0.3844253
vt 0.5140224 0.3696719
vt 0.4852629 0.3851
vt 0.4977875 0.3739174
vt 0.4945234 0.3677687
vn 0 -1 0
vn 0 -1 0
vn 0 -1 0
vn 0 1 0
vn 0 1 0
vn 0 1 0
vn -0.6665415 0.1748146 -0.7246808
vn -0.6665415 0.1748146 -0.7246808
vn 0.2904513 0.3887232 -0.8743754
vn 0.2904513 0.3887232 -0.8743754
vn -0.7789083 0.2294731 0.5836471
vn -0.6665415 0.1748146 -0.7246808
vn 0 1 0
vn 0 1 0
vn 0 1 0
vn 0.952545 0.2317653 -0.1973393
vn 0.9525478 0.2317586 -0.1973335
vn 0.6215168 0.3675388 0.6918324
vn 0.01287915 0.9994161 -0.03164854
vn 0.9525478 0.2317586 -0.1973335
vn 0.2904513 0.3887232 -0.8743754
vn -0.7789083 0.2294731 0.5836471
vn 0.9525478 0.2317586 -0.1973335
vn 0.6399502 0.6694924 -0.3771522
vn -0.177407 0.4159435 -0.8919179
vn -0.177407 0.4159435 -0.8919179
vn 0.5595951 0.6758722 -0.4796355
vn 0.1737163 0.4551356 0.8733122
vn 0.1737163 0.4551356 0.8733122
vn -0.7253144 0.6728827 -0.145423
vn -0.7285442 0.671993 -0.1328482
vn -0.177407 0.4159435 -0.8919179
vn -0.7253144 0.6728827 -0.145423
vn -0.177407 0.4159435 -0.8919179
vn -0.7285442 0.671993 -0.1328482
vn 0 0.7292269 0.6842721
vn 0 0.7955837 0.6058437
vn 0 0.8037744 -0.594934
vn 0 0.7387167 -0.6740161
vn 0 0 -1
vn 0 0 -1
vn 0 0 -1
vn 0 0 -1
vn 0 0 -1
vn 0 0 -1
vn 0 0 -1
vn 0 0 -1
vn 0 0 -1
vn 0 0 -1
vn 0 0 -1
vn 0 0 -1
vn 0 0 -1
vn 0.9039974 0 -0.4275379
vn 0.9039974 0 -0.4275379
vn -0.0979958 0 0.9951869
vn -0.0979958 0 0.9951869
vn -0.8577352 0 -0.5140917
vn -0.8577352 0 -0.5140917
vn 0 0 -1
vn 0 0 -1
vn 0 0 -1
vn 0 0 -1
vn 0 0 -1
vn 0 0 -1
vn 0 0 -1
vn 0 0 -1
vn 0 0 -1
vn 0 0 -1
vn 0 0 -1
vn 0 0 -1
vn 0 0 -1
vn 0.3291828 -0.4653911 -0.8216141
vn 0.3797498 -0.4681943 -0.7978622
vn -0.6254529 -0.1784436 -0.7595832
vn -0.961066 -0.2763168 0.001068156
vn -0.6254529 -0.1784436 -0.7595832
vn -0.9592965 -0.2759202 0.06015249
vn -0.961066 -0.2763168 0.001068156
vn -0.6052828 -0.1754536 0.7764333
vn 0.3745981 -0.4545901 0.808099
vn 0.3927263 -0.4554746 0.7989424
vn 0.9652412 -0.261361 6.103713E-05
vn 0.9652412 -0.261361 6.103713E-05
vn 0.9652412 -0.261361 6.103713E-05
vn 0.3797498 -0.4681943 -0.7978622
vn 0.9652412 -0.261361 6.103713E-05
vn 0.9652412 -0.261361 6.103713E-05
vn 0.3291828 -0.4653911 -0.8216141
vn 0 0.7292269 0.6842721
vn 0 0.7955837 0.6058437
vn 0 0.15922 0.9872432
vn 0 0.15922 0.9872432
vn 0 0.18684 -0.9823904
vn 0 0.18684 -0.9823904
vn 0 0.8037744 -0.594934
vn 0 0.7387167 -0.6740161
vn 0 0.7955837 0.6058437
vn 0 0.7292269 0.6842721
vn 0 0.7387167 -0.6740161
vn 0 0.8037744 -0.594934
vn 0 0.7387167 -0.6740161
vn 0 0.8037744 -0.594934
vn 0 0.18684 -0.9823904
vn 0 0.18684 -0.9823904
vn 0 0.15922 0.9872432
vn 0 0.15922 0.9872432
vn 0 0.7955837 0.6058437
vn 0 0.7292269 0.6842721
vn -0.3877461 0.1251896 0.9132254
vn -0.7789083 0.2294731 0.5836471
vn 0.01287915 0.9994161 -0.03164854
vn 0.6215168 0.3675388 0.6918324
vn 0.6180732 -0.7837615 -0.06085512
vn -0.04062099 -0.9991666 0.003998009
vn 0.03592099 -0.9993483 -0.003540217
vn -0.6488161 -0.7582594 0.06387752
vn 0.6180732 -0.7837615 -0.06085512
vn -0.6488161 -0.7582594 0.06387752
vn -0.01992885 -0.9997995 0.00195321
vn -0.01992885 -0.9997995 0.00195321
g akmuzzle1_LOD3_0
f 3/3/3 2/2/2 1/1/1
f 6/6/6 5/5/5 4/4/4
f 9/9/9 8/8/8 7/7/7
f 12/12/12 11/11/11 10/10/10
f 15/15/15 14/14/14 13/13/13
f 18/18/18 17/17/17 16/16/16
f 16/16/16 19/19/19 18/18/18
f 19/19/19 16/16/16 20/20/20
f 20/20/20 21/21/21 19/19/19
f 22/22/22 19/19/19 21/21/21
f 20/20/20 23/23/23 21/21/21
f 26/26/26 25/25/25 24/24/24
f 24/24/24 27/27/27 26/26/26
f 27/27/27 24/24/24 28/28/28
f 24/24/24 29/29/29 28/28/28
f 28/28/28 29/29/29 30/30/30
f 29/29/29 31/31/31 30/30/30
f 34/34/34 33/33/33 32/32/32
f 33/33/33 35/35/35 32/32/32
f 38/38/38 37/37/37 36/36/36
f 39/39/39 38/38/38 36/36/36
f 42/42/42 41/41/41 40/40/40
f 43/43/43 42/42/42 40/40/40
f 43/43/43 40/40/40 44/44/44
f 45/45/45 43/43/43 44/44/44
f 45/45/45 44/44/44 46/46/46
f 47/47/47 45/45/45 46/46/46
f 47/47/47 46/46/46 48/48/48
f 49/49/49 47/47/47 48/48/48
f 49/49/49 48/48/48 50/50/50
f 51/51/51 49/49/49 50/50/50
f 51/51/51 50/50/50 52/52/52
f 53/53/53 51/51/51 52/52/52
f 52/52/52 54/54/54 53/53/53
f 53/53/53 54/54/54 55/55/55
f 56/56/56 53/53/53 55/55/55
f 56/56/56 55/55/55 57/57/57
f 58/58/58 56/56/56 57/57/57
f 58/58/58 57/57/57 59/59/59
f 60/60/60 58/58/58 59/59/59
f 60/60/60 59/59/59 61/61/61
f 62/62/62 60/60/60 61/61/61
f 63/63/63 62/62/62 61/61/61
f 63/63/63 61/61/61 64/64/64
f 65/65/65 63/63/63 64/64/64
f 65/65/65 64/64/64 66/66/66
f 67/67/67 65/65/65 66/66/66
f 70/70/70 69/69/69 68/68/68
f 69/69/69 71/71/71 68/68/68
f 74/74/74 73/73/73 72/72/72
f 72/72/72 75/75/75 74/74/74
f 78/78/78 77/77/77 76/76/76
f 79/79/79 77/77/77 78/78/78
f 79/79/79 78/78/78 80/80/80
f 80/80/80 81/81/81 79/79/79
f 82/82/82 81/81/81 80/80/80
f 82/82/82 83/83/83 81/81/81
f 80/80/80 84/84/84 82/82/82
f 85/85/85 84/84/84 80/80/80
f 85/85/85 86/86/86 84/84/84
f 85/85/85 80/80/80 87/87/87
f 87/87/87 88/88/88 85/85/85
f 91/91/91 90/90/90 89/89/89
f 92/92/92 91/91/91 89/89/89
f 95/95/95 94/94/94 93/93/93
f 96/96/96 95/95/95 93/93/93
f 99/99/99 98/98/98 97/97/97
f 100/100/100 99/99/99 97/97/97
f 103/103/103 102/102/102 101/101/101
f 104/104/104 103/103/103 101/101/101
f 107/107/107 106/106/106 105/105/105
f 108/108/108 107/107/107 105/105/105
f 111/111/111 110/110/110 109/109/109
f 112/112/112 111/111/111 109/109/109
f 115/115/115 114/114/114 113/113/113
f 116/116/116 114/114/114 115/115/115
f 117/117/117 115/115/115 113/113/113
f 116/116/116 115/115/115 118/118/118
f 117/117/117 113/113/113 119/119/119
f 119/119/119 116/116/116 118/118/118
f 119/119/119 120/120/120 117/117/117
f 118/118/118 120/120/120 119/119/119
