g ammo_9mm_LOD0
v -0.002080057 -0.01004037 0.006947013
v -0.005387605 -0.01022842 0.00519611
v -0.005338902 -0.01004037 0.006874512
v -0.002099033 -0.01022842 0.00519611
v -0.002099033 -0.01023948 0.001818665
v -0.005387605 -0.01023948 0.001818665
v -0.005338902 -0.01008839 1.347333E-05
v -0.002080057 -0.01008839 1.347333E-05
v 0.002080057 -0.01008839 1.347333E-05
v 0.002099032 -0.01023948 0.001818665
v 0.005401205 -0.01008839 1.347333E-05
v 0.005438573 -0.01023948 0.001818665
v 0.005358996 -0.01022842 0.00519611
v 0.002099032 -0.01022842 0.00519611
v 0.002080057 -0.01004037 0.006947013
v 0.005338903 -0.01004037 0.006874512
v -0.001725505 0.009255075 0.006848031
v -0.002050177 0.01004037 0.006943959
v -0.002051648 0.01004461 0.006674959
v -0.001725505 0.009255075 0.006949759
v -0.001247596 0.008605781 0.006958768
v -0.001247596 0.008605781 0.006857038
v -0.0003698085 0.008228925 0.006971446
v -0.0003698085 0.008228925 0.006869718
v 0.0003698085 0.008228925 0.006869718
v 0.0003698085 0.008228925 0.006971446
v 0.001247596 0.008550567 0.006857038
v 0.001247596 0.008550567 0.006958768
v 0.001780583 0.009255075 0.006848031
v 0.001780583 0.009255075 0.006949759
v 0.002050176 0.01004037 0.006943959
v 0.002051648 0.01004461 0.006674959
v -0.002080057 0.01008839 1.347363E-05
v -0.005387605 0.01022427 0.001818665
v -0.005338902 0.01008839 1.347363E-05
v -0.002099033 0.01022427 0.001818665
v -0.002099033 0.01020099 0.00519611
v -0.005387605 0.01020099 0.00519611
v -0.005319296 0.01004461 0.006621482
v 0.002099032 0.01022427 0.001818665
v 0.002080057 0.01008839 1.347363E-05
v -0.002051648 0.01004461 0.006674959
v -0.005315519 0.01004037 0.006874513
v -0.002050177 0.01004037 0.006943959
v 0.002099032 0.01020099 0.00519611
v 0.005438573 0.01022427 0.001818665
v 0.005338903 0.01008839 1.347363E-05
v 0.005358996 0.01020099 0.00519611
v 0.005304794 0.01004461 0.006621482
v 0.002051648 0.01004461 0.006674959
v 0.005301016 0.01004037 0.006874513
v 0.002050176 0.01004037 0.006943959
v 0.001780583 0.009255075 0.006848031
v -0.001725505 0.009255075 0.006848031
v 0.001247596 0.008550567 0.006857038
v -0.001247596 0.008605781 0.006857038
v 0.0003698085 0.008228925 0.006869718
v -0.0003698085 0.008228925 0.006869718
v 0.005438573 -0.01023948 0.001818665
v 0.005401205 0.007939472 1.347363E-05
v 0.005401205 -0.01008839 1.347333E-05
v 0.005438573 0.008046412 0.001818665
v 0.005338903 0.01008839 1.347363E-05
v 0.005438573 0.01022427 0.001818665
v 0.005358996 0.01020099 0.00519611
v 0.005358996 0.008028092 0.00519611
v 0.005358996 -0.01022842 0.00519611
v 0.005304794 0.01004461 0.006621482
v 0.005338903 -0.01004037 0.006874512
v 0.005338903 0.007901681 0.006874512
v 0.005301016 0.01004037 0.006874513
v 0.002080057 0.007901681 0.006947013
v 0.002050176 0.01004037 0.006943959
v 0.002080057 -0.01004037 0.006947013
v 0.001780583 0.009255075 0.006949759
v -0.002080057 0.007901681 0.006947013
v -0.002080057 -0.01004037 0.006947013
v 0.001247596 0.008550567 0.006958768
v 0.0003698085 0.008228925 0.006971446
v -0.0003698085 0.008228925 0.006971446
v -0.001247596 0.008605781 0.006958768
v -0.001725505 0.009255075 0.006949759
v -0.002050177 0.01004037 0.006943959
v -0.005315519 0.01004037 0.006874513
v -0.005338902 0.007901681 0.006874512
v -0.005338902 -0.01004037 0.006874512
v -0.005319296 0.01004461 0.006621482
v -0.005387605 0.008028092 0.00519611
v -0.005387605 -0.01022842 0.00519611
v -0.005387605 0.01020099 0.00519611
v -0.005387605 -0.01023948 0.001818665
v -0.005387605 0.008046412 0.001818665
v -0.005387605 0.01022427 0.001818665
v -0.005338902 0.01008839 1.347363E-05
v -0.005338902 0.007939472 1.347363E-05
v -0.005338902 -0.01008839 1.347333E-05
v -0.002080057 0.01008839 1.347363E-05
v -0.002080057 0.007939472 1.347363E-05
v -0.002080057 -0.01008839 1.347333E-05
v 0.002080057 -0.01008839 1.347333E-05
v 0.002080057 0.007939472 1.347363E-05
v 0.005401205 -0.01008839 1.347333E-05
v 0.002080057 0.01008839 1.347363E-05
v 0.005401205 0.007939472 1.347363E-05
v 0.005338903 0.01008839 1.347363E-05
vt 0.5593083 0.7996187
vt 0.5096176 0.8929502
vt 0.5572745 0.8915761
vt 0.5096176 0.8001542
vt 0.4143133 0.8001541
vt 0.4143132 0.8929501
vt 0.3631967 0.8915758
vt 0.3631968 0.7996187
vt 0.3631968 0.6822297
vt 0.4143133 0.6816943
vt 0.3631967 0.5885146
vt 0.4143132 0.5874601
vt 0.5096175 0.5897055
vt 0.5096176 0.6816943
vt 0.5593084 0.6822298
vt 0.5572745 0.5902724
vt 0.009681027 0.6096613
vt 0.012385 0.5856827
vt 0.004794451 0.585557
vt 0.01255159 0.6096609
vt 0.01280851 0.6324102
vt 0.009938005 0.6324106
vt 0.01316959 0.6593657
vt 0.01029909 0.659366
vt 0.01030156 0.6802362
vt 0.01317218 0.6802359
vt 0.009947021 0.7066161
vt 0.01281752 0.7066157
vt 0.009695836 0.731544
vt 0.0125664 0.7315436
vt 0.01240557 0.7549723
vt 0.004815052 0.7551001
vt 0.143227 0.8246056
vt 0.04989555 0.7735232
vt 0.05126989 0.8246057
vt 0.1426916 0.7735232
vt 0.1426915 0.6782171
vt 0.04989543 0.6782172
vt 0.05182292 0.6377552
vt 0.2611514 0.7735232
vt 0.2606159 0.8246056
vt 0.1440286 0.6362547
vt 0.05193012 0.6306142
vt 0.1440708 0.6286631
vt 0.2611514 0.6782171
vt 0.3553856 0.7735233
vt 0.3525731 0.8246057
vt 0.3531402 0.6782171
vt 0.3516108 0.637755
vt 0.2598143 0.6362546
vt 0.3515036 0.6306141
vt 0.259772 0.6286631
vt 0.2521654 0.6134466
vt 0.1532316 0.6134467
vt 0.2371257 0.5935654
vt 0.1667171 0.5951233
vt 0.2123564 0.5844826
vt 0.1914861 0.584483
vt 0.05484991 0.5814034
vt 0.004387443 0.06841599
vt 0.003911658 0.5770933
vt 0.05535168 0.06548032
vt 0.004456044 0.007703312
vt 0.05552047 0.003987778
vt 0.1509712 0.004931216
vt 0.1506461 0.06630562
vt 0.1501724 0.5811678
vt 0.1913044 0.009576862
vt 0.1975239 0.5759019
vt 0.197926 0.07009009
vt 0.1984646 0.009757304
vt 0.2897261 0.06971255
vt 0.2903911 0.009348544
vt 0.2897446 0.5759403
vt 0.2980688 0.03149883
vt 0.407107 0.06962664
vt 0.4071814 0.5759236
vt 0.3131788 0.05136608
vt 0.3379765 0.06041602
vt 0.3588445 0.06040017
vt 0.3836261 0.04975689
vt 0.3971381 0.03142912
vt 0.4063275 0.009268568
vt 0.4986213 0.009470477
vt 0.4989797 0.06981982
vt 0.4993222 0.575883
vt 0.5057756 0.009310157
vt 0.5463138 0.06610847
vt 0.5467035 0.5811563
vt 0.5461038 0.004745501
vt 0.6420186 0.5814034
vt 0.6416006 0.06538861
vt 0.6415023 0.003909539
vt 0.6924947 0.007681645
vt 0.6925662 0.06834436
vt 0.692978 0.5770997
vt 0.7844878 0.007593585
vt 0.784544 0.06825064
vt 0.7849491 0.5770285
vt 0.9023576 0.5769374
vt 0.9019568 0.06814915
vt 0.9960887 0.5768641
vt 0.9019076 0.007497921
vt 0.9956904 0.06807409
vt 0.9938841 0.007424943
vn -0.007747492 -0.665684 0.7461936
vn -0.6982542 -0.7141305 0.04958437
vn -0.5800506 -0.5441674 0.6061544
vn -0.0001501398 -0.9984635 0.05541228
vn 0 -0.9991955 -0.04010481
vn -0.7002725 -0.7128878 -0.03754243
vn -0.573056 -0.5517229 -0.6059774
vn 0 -0.6769754 -0.7360056
vn 0 -0.6769755 -0.7360055
vn 0 -0.9991955 -0.04010462
vn 0.5751161 -0.5514523 -0.6042697
vn 0.7024712 -0.7111937 -0.02716157
vn 0.6936258 -0.7183966 0.05281611
vn 0.0001629561 -0.998464 0.05540512
vn 0.00774932 -0.6656844 0.7461932
vn 0.5856358 -0.5433434 0.6015054
vn 0.6374029 0.4478403 0.6270221
vn 0.4391479 0.6602628 0.6092637
vn 0.2148956 0.9410978 0.2610649
vn 0.5833414 0.3366838 0.7391595
vn 0.46204 0.5979422 0.654969
vn 0.4692425 0.5995419 0.6483525
vn 0.1334107 0.6126065 0.7790475
vn 0.1491855 0.7441866 0.651099
vn -0.1279034 0.7436008 0.6562764
vn -0.117102 0.6239218 0.7726634
vn -0.4508687 0.6170478 0.6449569
vn -0.443758 0.6159257 0.6509333
vn -0.6539733 0.4329262 0.6203982
vn -0.5812927 0.3177902 0.7490715
vn -0.4613228 0.648585 0.605408
vn -0.2207541 0.9363984 0.2728109
vn 0 0.6800501 -0.7331656
vn -0.7008191 0.712561 -0.0333112
vn -0.5726171 0.5544784 -0.6038737
vn 0 0.9994179 -0.03411425
vn -0.0003247905 0.9984102 0.05636489
vn -0.7006528 0.7112881 0.05616856
vn -0.710009 0.7008556 0.06847258
vn 0 0.9994179 -0.03411396
vn 0 0.6800502 -0.7331654
vn 0.2148956 0.9410978 0.2610649
vn -0.572961 0.575288 0.583746
vn 0.4391479 0.6602628 0.6092637
vn 0.0003257762 0.9984101 0.05636531
vn 0.7042589 0.7093636 -0.02868477
vn 0.5603969 0.561106 -0.6091924
vn 0.6966034 0.7148197 0.06145511
vn 0.7104108 0.7012987 0.05913264
vn -0.2207541 0.9363984 0.2728109
vn 0.5739812 0.5790425 0.5790123
vn -0.4613228 0.648585 0.605408
vn -0.6539733 0.4329262 0.6203982
vn 0.6374029 0.4478403 0.6270221
vn -0.4508687 0.6170478 0.6449569
vn 0.4692425 0.5995419 0.6483525
vn -0.1279034 0.7436008 0.6562764
vn 0.1491855 0.7441866 0.651099
vn 0.7024712 -0.7111937 -0.02716157
vn 0.6998581 0.00481867 -0.7142657
vn 0.5751161 -0.5514523 -0.6042697
vn 0.9999877 0.003776157 -0.003210353
vn 0.5603969 0.561106 -0.6091924
vn 0.7042589 0.7093636 -0.02868477
vn 0.6966034 0.7148197 0.06145511
vn 0.9997851 0.002867296 0.02052959
vn 0.6936258 -0.7183966 0.05281611
vn 0.7104108 0.7012987 0.05913264
vn 0.5856358 -0.5433434 0.6015054
vn 0.712388 0.005943519 0.7017605
vn 0.5739812 0.5790425 0.5790123
vn 0.01431679 -0.001714752 0.999896
vn -0.4613228 0.648585 0.605408
vn 0.00774932 -0.6656844 0.7461932
vn -0.5812927 0.3177902 0.7490715
vn -0.01427597 -0.001656779 0.9998968
vn -0.007747492 -0.665684 0.7461936
vn -0.443758 0.6159257 0.6509333
vn -0.117102 0.6239218 0.7726634
vn 0.1334107 0.6126065 0.7790475
vn 0.46204 0.5979422 0.654969
vn 0.5833414 0.3366838 0.7391595
vn 0.4391479 0.6602628 0.6092637
vn -0.572961 0.575288 0.583746
vn -0.705936 0.004209914 0.7082632
vn -0.5800506 -0.5441674 0.6061544
vn -0.710009 0.7008556 0.06847258
vn -0.9998671 0.002015134 0.01617966
vn -0.6982542 -0.7141305 0.04958437
vn -0.7006528 0.7112881 0.05616856
vn -0.7002725 -0.7128878 -0.03754243
vn -0.999909 0 -0.01348617
vn -0.7008191 0.712561 -0.0333112
vn -0.5726171 0.5544784 -0.6038737
vn -0.6975063 0 -0.7165787
vn -0.573056 -0.5517229 -0.6059774
vn 0 0.6800501 -0.7331656
vn 0 0 -1
vn 0 -0.6769754 -0.7360056
vn 0 -0.6769755 -0.7360055
vn 0 0 -1
vn 0.5751161 -0.5514523 -0.6042697
vn 0 0.6800502 -0.7331654
vn 0.6998581 0.00481867 -0.7142657
vn 0.5603969 0.561106 -0.6091924
g ammo_9mm_LOD0_0
f 3/3/3 2/2/2 1/1/1
f 4/4/4 1/1/1 2/2/2
f 4/4/4 2/2/2 5/5/5
f 6/6/6 5/5/5 2/2/2
f 6/6/6 7/7/7 5/5/5
f 8/8/8 5/5/5 7/7/7
f 8/8/8 9/9/9 5/5/5
f 10/10/10 5/5/5 9/9/9
f 5/5/5 10/10/10 4/4/4
f 9/9/9 11/11/11 10/10/10
f 12/12/12 10/10/10 11/11/11
f 12/12/12 13/13/13 10/10/10
f 4/4/4 14/14/14 1/1/1
f 14/14/14 4/4/4 10/10/10
f 14/14/14 10/10/10 13/13/13
f 15/15/15 1/1/1 14/14/14
f 14/14/14 13/13/13 15/15/15
f 16/16/16 15/15/15 13/13/13
f 19/19/19 18/18/18 17/17/17
f 20/20/20 17/17/17 18/18/18
f 20/20/20 21/21/21 17/17/17
f 22/22/22 17/17/17 21/21/21
f 21/21/21 23/23/23 22/22/22
f 24/24/24 22/22/22 23/23/23
f 24/24/24 23/23/23 25/25/25
f 26/26/26 25/25/25 23/23/23
f 25/25/25 26/26/26 27/27/27
f 28/28/28 27/27/27 26/26/26
f 27/27/27 28/28/28 29/29/29
f 30/30/30 29/29/29 28/28/28
f 30/30/30 31/31/31 29/29/29
f 32/32/32 29/29/29 31/31/31
f 35/35/35 34/34/34 33/33/33
f 36/36/36 33/33/33 34/34/34
f 36/36/36 34/34/34 37/37/37
f 38/38/38 37/37/37 34/34/34
f 38/38/38 39/39/39 37/37/37
f 36/36/36 40/40/40 33/33/33
f 36/36/36 37/37/37 40/40/40
f 41/41/41 33/33/33 40/40/40
f 42/42/42 37/37/37 39/39/39
f 39/39/39 43/43/43 42/42/42
f 44/44/44 42/42/42 43/43/43
f 45/45/45 40/40/40 37/37/37
f 37/37/37 42/42/42 45/45/45
f 40/40/40 46/46/46 41/41/41
f 40/40/40 45/45/45 46/46/46
f 47/47/47 41/41/41 46/46/46
f 48/48/48 46/46/46 45/45/45
f 48/48/48 45/45/45 49/49/49
f 50/50/50 49/49/49 45/45/45
f 50/50/50 45/45/45 42/42/42
f 49/49/49 50/50/50 51/51/51
f 52/52/52 51/51/51 50/50/50
f 50/50/50 42/42/42 53/53/53
f 54/54/54 53/53/53 42/42/42
f 53/53/53 54/54/54 55/55/55
f 56/56/56 55/55/55 54/54/54
f 55/55/55 56/56/56 57/57/57
f 58/58/58 57/57/57 56/56/56
f 61/61/61 60/60/60 59/59/59
f 62/62/62 59/59/59 60/60/60
f 60/60/60 63/63/63 62/62/62
f 64/64/64 62/62/62 63/63/63
f 64/64/64 65/65/65 62/62/62
f 62/62/62 66/66/66 59/59/59
f 66/66/66 62/62/62 65/65/65
f 67/67/67 59/59/59 66/66/66
f 65/65/65 68/68/68 66/66/66
f 67/67/67 66/66/66 69/69/69
f 66/66/66 68/68/68 70/70/70
f 70/70/70 69/69/69 66/66/66
f 71/71/71 70/70/70 68/68/68
f 70/70/70 71/71/71 72/72/72
f 73/73/73 72/72/72 71/71/71
f 69/69/69 70/70/70 74/74/74
f 72/72/72 74/74/74 70/70/70
f 72/72/72 73/73/73 75/75/75
f 72/72/72 76/76/76 74/74/74
f 77/77/77 74/74/74 76/76/76
f 75/75/75 78/78/78 72/72/72
f 79/79/79 72/72/72 78/78/78
f 79/79/79 80/80/80 72/72/72
f 76/76/76 72/72/72 80/80/80
f 80/80/80 81/81/81 76/76/76
f 82/82/82 76/76/76 81/81/81
f 82/82/82 83/83/83 76/76/76
f 83/83/83 84/84/84 76/76/76
f 76/76/76 85/85/85 77/77/77
f 85/85/85 76/76/76 84/84/84
f 86/86/86 77/77/77 85/85/85
f 84/84/84 87/87/87 85/85/85
f 85/85/85 88/88/88 86/86/86
f 88/88/88 85/85/85 87/87/87
f 89/89/89 86/86/86 88/88/88
f 87/87/87 90/90/90 88/88/88
f 89/89/89 88/88/88 91/91/91
f 88/88/88 90/90/90 92/92/92
f 92/92/92 91/91/91 88/88/88
f 93/93/93 92/92/92 90/90/90
f 93/93/93 94/94/94 92/92/92
f 92/92/92 95/95/95 91/91/91
f 95/95/95 92/92/92 94/94/94
f 96/96/96 91/91/91 95/95/95
f 94/94/94 97/97/97 95/95/95
f 95/95/95 98/98/98 96/96/96
f 98/98/98 95/95/95 97/97/97
f 99/99/99 96/96/96 98/98/98
f 99/99/99 98/98/98 100/100/100
f 98/98/98 97/97/97 101/101/101
f 101/101/101 100/100/100 98/98/98
f 100/100/100 101/101/101 102/102/102
f 103/103/103 101/101/101 97/97/97
f 104/104/104 102/102/102 101/101/101
f 101/101/101 103/103/103 104/104/104
f 105/105/105 104/104/104 103/103/103
