g ammo_9mm_LOD3
v 0.004132583 0.007827302 0.005359256
v -0.00414389 0.007827302 0.005359256
v -0.004162119 0.007864736 1.050377E-05
v 0.004162119 0.007864736 1.050377E-05
v -0.004162119 -0.007864736 1.050377E-05
v 0.004210688 -0.007864736 1.050377E-05
v 0.004162119 0.007864736 1.050377E-05
v -0.004162119 0.007864736 1.050377E-05
v -0.00414389 0.007827302 0.005359256
v -0.004162119 -0.007827302 0.005359256
v 0.004162119 -0.007827302 0.005359256
v 0.004132583 0.007827302 0.005359256
v 0.004210688 -0.007864736 1.050377E-05
v 0.004162119 0.007864736 1.050377E-05
v -0.004162119 -0.007864736 1.050377E-05
v -0.004162119 -0.007827302 0.005359256
v 0.004162119 -0.007827302 0.005359256
v 0.004210688 -0.007864736 1.050377E-05
vt 0.3515036 0.6306141
vt 0.05193012 0.6306142
vt 0.05126989 0.8246057
vt 0.3525731 0.8246057
vt 0.692978 0.5770997
vt 0.9960887 0.5768641
vt 0.9938841 0.007424943
vt 0.6924947 0.007681645
vt 0.4986213 0.009470477
vt 0.4993222 0.575883
vt 0.1975239 0.5759019
vt 0.1984646 0.009757304
vt 0.003911658 0.5770933
vt 0.004456044 0.007703312
vt 0.3631967 0.8915758
vt 0.5572745 0.8915761
vt 0.5572745 0.5902724
vt 0.3631967 0.5885146
vn 0.5749221 0.5758072 0.5813007
vn -0.5767274 0.5757203 0.5795962
vn -0.5776123 0.5792604 -0.5751708
vn 0.5781882 0.580172 -0.5736714
vn -0.5774285 -0.5796564 -0.5749564
vn 0.5803443 -0.5781469 -0.5735387
vn 0.5781882 0.580172 -0.5736714
vn -0.5776123 0.5792604 -0.5751708
vn -0.5767274 0.5757203 0.5795962
vn -0.5776417 -0.5747424 0.5796561
vn 0.5759002 -0.5752287 0.5809053
vn 0.5749221 0.5758072 0.5813007
vn 0.5803443 -0.5781469 -0.5735387
vn 0.5781882 0.580172 -0.5736714
vn -0.5774285 -0.5796564 -0.5749564
vn -0.5776417 -0.5747424 0.5796561
vn 0.5759002 -0.5752287 0.5809053
vn 0.5803443 -0.5781469 -0.5735387
g ammo_9mm_LOD3_0
f 3/3/3 2/2/2 1/1/1
f 4/4/4 3/3/3 1/1/1
f 7/7/7 6/6/6 5/5/5
f 8/8/8 7/7/7 5/5/5
f 9/9/9 8/8/8 5/5/5
f 10/10/10 9/9/9 5/5/5
f 10/10/10 11/11/11 9/9/9
f 11/11/11 12/12/12 9/9/9
f 12/12/12 11/11/11 13/13/13
f 14/14/14 12/12/12 13/13/13
f 17/17/17 16/16/16 15/15/15
f 18/18/18 17/17/17 15/15/15
