g ammo_5.56_LOD3
v -0.001679771 -0.007498212 0.004198462
v -0.001679771 -0.007498212 0.004317172
v 0.00595229 -0.008635507 0.004266019
v -0.001804411 -0.008537279 0.004198462
v -0.001679771 -0.007498212 0.004198462
v 0.001801644 -0.008537279 0.004198462
v 0.005948716 0.008614304 1.050382E-05
v -0.005962589 0.008614304 1.050382E-05
v -0.005962589 -0.008645222 1.050382E-05
v 0.005954009 -0.008645222 1.050382E-05
v 0.00595229 -0.008635507 0.004266019
v 0.005911225 0.008657517 0.004266019
v -0.001679771 -0.007498212 0.004317172
v -0.005918741 0.008657517 0.004266019
v -0.001804411 -0.008641866 0.004317172
v -0.005944085 -0.008635507 0.004266019
v -0.005962589 0.008614304 1.050382E-05
v -0.005962589 -0.008645222 1.050382E-05
v -0.005962589 0.008614304 1.050382E-05
v 0.005948716 0.008614304 1.050382E-05
v 0.005911225 0.008657517 0.004266019
v -0.005918741 0.008657517 0.004266019
v -0.001804411 -0.008537279 0.004198462
v -0.001804411 -0.008695004 0.003898573
v -0.001804411 -0.008641866 0.004317172
v -0.001679771 -0.007498212 0.004317172
v -0.001679771 -0.007498212 0.004198462
v -0.005944085 -0.008635507 0.004266019
v -0.001804411 -0.008641866 0.004317172
v -0.001804411 -0.008537279 0.004198462
v -0.001804411 -0.008695004 0.003898573
v -0.005962589 -0.008645222 1.050382E-05
v 0.001801644 -0.008537279 0.004198462
v -0.001679771 -0.007498212 0.004198462
v 0.00595229 -0.008635507 0.004266019
v 0.005954009 -0.008645222 1.050382E-05
vt 0.8744406 0.04165137
vt 0.8707969 0.04165137
vt 0.6790754 0.004388587
vt 0.6781224 0.2424878
vt 0.7100149 0.2386616
vt 0.6781201 0.1318056
vt 0.007274359 0.6291691
vt 0.006371513 0.9947742
vt 0.5361335 0.9960822
vt 0.5370386 0.6303169
vt 0.5370281 0.4996964
vt 0.006229967 0.498515
vt 0.5020789 0.2654372
vt 0.006177962 0.1353864
vt 0.5371805 0.2616069
vt 0.5369711 0.1345329
vt 0.007300228 0.004740188
vt 0.5370615 0.003909975
vt 0.8629841 0.3701225
vt 0.8629841 0.004517232
vt 0.7321705 0.00566797
vt 0.7321706 0.3687767
vt 0.8744405 0.009123624
vt 0.8836452 0.004282415
vt 0.8707969 0.005913438
vt 0.8707969 0.04165137
vt 0.8744406 0.04165137
vt 0.6790792 0.3695719
vt 0.6806731 0.2425116
vt 0.6781224 0.2424878
vt 0.6677225 0.2424881
vt 0.5482128 0.3701158
vt 0.6781201 0.1318056
vt 0.8744406 0.04165137
vt 0.6790754 0.004388587
vt 0.5482128 0.004360287
vn 0.5734517 -0.6322618 0.520959
vn 0.5600322 -0.6142958 0.5558816
vn 0.5842809 -0.5853186 0.5621548
vn 0.6658886 -0.5768349 0.4731322
vn 0.5734517 -0.6322618 0.520959
vn -0.001678551 -0.6885416 0.725195
vn 0.5795612 0.5733657 -0.5791033
vn -0.5804149 0.5733345 -0.5782785
vn -0.5900605 -0.5866423 -0.5546886
vn 0.587324 -0.5879039 -0.5562548
vn 0.5842809 -0.5853186 0.5621548
vn 0.5739501 0.5826482 0.5754151
vn 0.5600322 -0.6142958 0.5558816
vn -0.5735745 0.5823334 0.5761076
vn 0.5731279 -0.5842065 0.5746539
vn -0.5661319 -0.5678105 0.5975667
vn -0.5804149 0.5733345 -0.5782785
vn -0.5900605 -0.5866423 -0.5546886
vn -0.5804149 0.5733345 -0.5782785
vn 0.5795612 0.5733657 -0.5791033
vn 0.5739501 0.5826482 0.5754151
vn -0.5735745 0.5823334 0.5761076
vn 0.6658886 -0.5768349 0.4731322
vn 0.6718111 -0.7406921 0.006714143
vn 0.5731279 -0.5842065 0.5746539
vn 0.5600322 -0.6142958 0.5558816
vn 0.5734517 -0.6322618 0.520959
vn -0.5661319 -0.5678105 0.5975667
vn 0.5731279 -0.5842065 0.5746539
vn 0.6658886 -0.5768349 0.4731322
vn 0.6718111 -0.7406921 0.006714143
vn -0.5900605 -0.5866423 -0.5546886
vn -0.001678551 -0.6885416 0.725195
vn 0.5734517 -0.6322618 0.520959
vn 0.5842809 -0.5853186 0.5621548
vn 0.587324 -0.5879039 -0.5562548
g ammo_5.56_LOD3_0
f 3/3/3 2/2/2 1/1/1
f 6/6/6 5/5/5 4/4/4
f 9/9/9 8/8/8 7/7/7
f 10/10/10 9/9/9 7/7/7
f 10/10/10 7/7/7 11/11/11
f 7/7/7 12/12/12 11/11/11
f 13/13/13 11/11/11 12/12/12
f 12/12/12 14/14/14 13/13/13
f 14/14/14 15/15/15 13/13/13
f 14/14/14 16/16/16 15/15/15
f 14/14/14 17/17/17 16/16/16
f 17/17/17 18/18/18 16/16/16
f 21/21/21 20/20/20 19/19/19
f 22/22/22 21/21/21 19/19/19
f 25/25/25 24/24/24 23/23/23
f 23/23/23 26/26/26 25/25/25
f 23/23/23 27/27/27 26/26/26
f 30/30/30 29/29/29 28/28/28
f 31/31/31 30/30/30 28/28/28
f 28/28/28 32/32/32 31/31/31
f 30/30/30 31/31/31 33/33/33
f 33/33/33 34/34/34 30/30/30
f 35/35/35 34/34/34 33/33/33
f 35/35/35 33/33/33 31/31/31
f 35/35/35 31/31/31 32/32/32
f 32/32/32 36/36/36 35/35/35
