g ammo_5.56_LOD1
v -0.005966778 0.008727223 0.001417801
v -0.005962589 0.008614304 1.050382E-05
v 0.005948716 0.008614304 1.050382E-05
v 0.005968463 0.008727223 0.001417801
v -1.383781E-06 0.008727223 0.001417801
v -0.005966778 0.008726635 0.002957565
v 1.071013E-05 0.008726635 0.002957565
v 0.005959462 0.008726635 0.002957565
v 0.002297917 0.008726635 0.002957565
v 0.005911225 0.008657517 0.004266019
v 0.002244963 0.008657517 0.004320158
v -0.002223543 0.008657517 0.004320158
v -0.005918741 0.008657517 0.004266019
v -0.002276497 0.008726635 0.002957565
v -0.005962589 -0.008645222 1.050382E-05
v -0.005962589 0.008614304 1.050382E-05
v -0.005966778 0.008727223 0.001417801
v -0.005966778 -0.008741008 0.001417801
v -0.005966778 -0.007038923 0.002957565
v -0.005966778 -0.008749378 0.002957565
v -0.005966778 0.008726635 0.002957565
v -0.005944085 -0.008635507 0.004266019
v -0.005941403 -0.00694442 0.004266019
v -0.005918741 0.008657517 0.004266019
v -0.00225593 -0.008635507 0.004322539
v -0.002252502 -0.006428872 0.004322286
v -0.001804411 -0.008641866 0.004317172
v -0.001804411 -0.007863379 0.004317172
v -0.001679771 -0.007498212 0.004317172
v -0.001244011 -0.007253431 0.004317172
v -0.002223543 0.008657517 0.004320158
v -0.0003921918 -0.007084892 0.004317172
v -1.036209E-07 -0.006428872 0.004322286
v 0.0003894242 -0.007084892 0.004317172
v 0.002244963 0.008657517 0.004320158
v 0.002252295 -0.006428872 0.004322286
v 0.001241243 -0.007253431 0.004317172
v 0.001677003 -0.007498212 0.004317172
v 0.001801644 -0.007863379 0.004317172
v 0.001801644 -0.008641866 0.004317172
v 0.005911225 0.008657517 0.004266019
v 0.002253162 -0.008635507 0.004322539
v 0.005947944 -0.00694442 0.004266019
v 0.00595229 -0.008635507 0.004266019
v 0.005959462 -0.008749378 0.002957565
v 0.005959462 -0.007038923 0.002957565
v 0.005959462 0.008726635 0.002957565
v 0.005968463 -0.008741008 0.001417801
v 0.005968463 -0.007031377 0.001417801
v 0.005968463 0.008727223 0.001417801
v 0.005954009 -0.008645222 1.050382E-05
v 0.005953449 -0.00695768 1.050382E-05
v 0.005948716 0.008614304 1.050382E-05
v 0.002253162 -0.008645222 1.050382E-05
v -0.005962589 0.008614304 1.050382E-05
v -1.383781E-06 -0.008645222 1.050382E-05
v -0.005962589 -0.008645222 1.050382E-05
v 0.002253162 -0.008645222 1.050382E-05
v 0.005968463 -0.008741008 0.001417801
v 0.005954009 -0.008645222 1.050382E-05
v 0.002273729 -0.008741008 0.001417801
v -1.383781E-06 -0.008645222 1.050382E-05
v 0.005959462 -0.008749378 0.002957565
v -1.383781E-06 -0.008741008 0.001417801
v -0.005962589 -0.008645222 1.050382E-05
v -0.005966778 -0.008741008 0.001417801
v -0.005966778 -0.008749378 0.002957565
v 0.002273729 -0.008749378 0.002957565
v 0.00595229 -0.008635507 0.004266019
v 0.002253162 -0.008635507 0.004322539
v 0.001801644 -0.008695004 0.003898573
v 0.001801644 -0.008641866 0.004317172
v -0.002276497 -0.008749378 0.002957565
v 0.002273729 -0.008749378 0.002957565
v -0.005944085 -0.008635507 0.004266019
v -0.00225593 -0.008635507 0.004322539
v -0.001804411 -0.008641866 0.004317172
v -0.001804411 -0.008695004 0.003898573
v -0.001804411 -0.008537279 0.004198462
v 0.001801644 -0.008537279 0.004198462
v 0.001677003 -0.007498212 0.004198462
v 0.001801644 -0.007863379 0.004198462
v 0.001241243 -0.007253431 0.004198462
v 0.0003894242 -0.007084892 0.004198462
v -0.0003921918 -0.007084892 0.004198462
v -0.001244011 -0.007253431 0.004198462
v -0.001679771 -0.007498212 0.004198462
v -0.001804411 -0.007863379 0.004198462
v -0.001804411 -0.008537279 0.004198462
v -0.001804411 -0.008695004 0.003898573
v -0.001804411 -0.008641866 0.004317172
v -0.001804411 -0.007863379 0.004317172
v -0.001804411 -0.007863379 0.004198462
v -0.001679771 -0.007498212 0.004317172
v -0.001679771 -0.007498212 0.004198462
v -0.001244011 -0.007253431 0.004317172
v -0.001244011 -0.007253431 0.004198462
v -0.0003921918 -0.007084892 0.004317172
v -0.0003921918 -0.007084892 0.004198462
v 0.0003894242 -0.007084892 0.004317172
v 0.0003894242 -0.007084892 0.004198462
v 0.001241243 -0.007253431 0.004317172
v 0.001241243 -0.007253431 0.004198462
v 0.001677003 -0.007498212 0.004317172
v 0.001677003 -0.007498212 0.004198462
v 0.001801644 -0.007863379 0.004317172
v 0.001801644 -0.007863379 0.004198462
v 0.001801644 -0.008537279 0.004198462
v 0.001801644 -0.008641866 0.004317172
v 0.001801644 -0.008695004 0.003898573
vt 0.8196498 0.3702511
vt 0.8629841 0.3701225
vt 0.8629841 0.004517232
vt 0.8196498 0.003911086
vt 0.8196498 0.1871494
vt 0.7723883 0.3702511
vt 0.7723883 0.1867782
vt 0.7723883 0.004187387
vt 0.7723883 0.1165747
vt 0.7321705 0.00566797
vt 0.7305112 0.1182001
vt 0.7305111 0.2553563
vt 0.7321706 0.3687767
vt 0.7723883 0.2569818
vt 0.5370615 0.003909975
vt 0.007300228 0.004740188
vt 0.003902078 0.04794148
vt 0.5400697 0.04710053
vt 0.4879015 0.09444485
vt 0.5404017 0.09436068
vt 0.003994063 0.09520257
vt 0.5369711 0.1345329
vt 0.4850649 0.1346185
vt 0.006177962 0.1353864
vt 0.5369835 0.2477475
vt 0.4692546 0.247862
vt 0.5371805 0.2616069
vt 0.5132865 0.2616101
vt 0.5020789 0.2654372
vt 0.4945675 0.278813
vt 0.006194845 0.2488175
vt 0.4893983 0.304959
vt 0.4692638 0.3169964
vt 0.4894018 0.3289492
vt 0.006214514 0.3859722
vt 0.4692753 0.3861307
vt 0.4945788 0.3550935
vt 0.5085416 0.3614466
vt 0.5133027 0.3722903
vt 0.5371965 0.3722861
vt 0.006229967 0.498515
vt 0.5370037 0.3861454
vt 0.4851211 0.4995781
vt 0.5370281 0.4996964
vt 0.5404336 0.5398654
vt 0.487933 0.5397488
vt 0.004022643 0.5386993
vt 0.5400727 0.587126
vt 0.4875977 0.5870111
vt 0.003902137 0.5859617
vt 0.5370386 0.6303169
vt 0.4852415 0.6302046
vt 0.007274359 0.6291691
vt 0.5367565 0.7439094
vt 0.006371513 0.9947742
vt 0.5365854 0.8131099
vt 0.5361335 0.9960822
vt 0.5482302 0.1179492
vt 0.5915064 0.003909705
vt 0.5482128 0.004360287
vt 0.5915251 0.1173142
vt 0.5482324 0.1871472
vt 0.6387668 0.004177711
vt 0.5915273 0.1871472
vt 0.5482128 0.3701158
vt 0.5915077 0.3702513
vt 0.6387693 0.3702594
vt 0.6387894 0.1173099
vt 0.6790754 0.004388587
vt 0.6808332 0.1179229
vt 0.6677202 0.1318058
vt 0.6806707 0.131782
vt 0.6387914 0.2569851
vt 0.6387894 0.1173099
vt 0.6790792 0.3695719
vt 0.6808361 0.256371
vt 0.6806731 0.2425116
vt 0.6677225 0.2424881
vt 0.6781224 0.2424878
vt 0.6781201 0.1318056
vt 0.7100127 0.1356306
vt 0.6988044 0.1318052
vt 0.7175262 0.1490054
vt 0.7226997 0.1751505
vt 0.7227002 0.1991411
vt 0.7175277 0.2252864
vt 0.7100149 0.2386616
vt 0.6988067 0.2424874
vt 0.8744405 0.009123624
vt 0.8836452 0.004282415
vt 0.8707969 0.005913438
vt 0.8707969 0.02980823
vt 0.8744406 0.02980817
vt 0.8707969 0.04165137
vt 0.8744406 0.04165137
vt 0.8707969 0.05699229
vt 0.8744406 0.05699229
vt 0.8707969 0.08364475
vt 0.8744406 0.08364475
vt 0.8707969 0.1076357
vt 0.8744406 0.1076357
vt 0.8707969 0.1342883
vt 0.8744406 0.1342883
vt 0.8707969 0.1496294
vt 0.8744406 0.1496294
vt 0.8707969 0.1614729
vt 0.8744406 0.1614729
vt 0.8744406 0.1821577
vt 0.8707969 0.1853678
vt 0.8836454 0.1869988
vn -0.6984805 0.7150216 -0.02948102
vn -0.580722 0.5518202 -0.5985453
vn 0.5773888 0.5526379 -0.6010105
vn 0.700356 0.7131436 -0.03045822
vn 0 0.9992066 -0.03982787
vn -0.7051498 0.708507 0.02795574
vn 0 0.9996744 0.02551373
vn 0.7044411 0.7092021 0.02819961
vn 9.155581E-05 0.9996674 0.02578822
vn 0.5747446 0.566016 0.5910115
vn 0.005310339 0.6872006 0.7264483
vn -0.005279827 0.6872321 0.7264188
vn -0.5739163 0.564913 0.5928688
vn -9.155581E-05 0.9996674 0.02578822
vn -0.5800477 -0.5557545 -0.5955515
vn -0.580722 0.5518202 -0.5985453
vn -0.6984805 0.7150216 -0.02948102
vn -0.7004539 -0.7131805 -0.02716239
vn -0.9999344 0.0003662316 0.01144474
vn -0.6989226 -0.7143654 0.03448681
vn -0.7051498 0.708507 0.02795574
vn -0.580723 -0.5510888 0.5992178
vn -0.7041707 0.0005798658 0.7100304
vn -0.5739163 0.564913 0.5928688
vn -0.01593104 -0.6699583 0.7422279
vn -0.006592053 -0.0009155629 0.9999778
vn 0.5786083 -0.5535828 0.5989645
vn 0.6615589 -0.1086779 0.7419763
vn 0.4665502 -0.387505 0.7950917
vn 0.2312746 -0.6289399 0.7422578
vn -0.005279827 0.6872321 0.7264188
vn 0.06662361 -0.6832353 0.7271526
vn 0 -0.003479195 0.9999939
vn -0.06662361 -0.6832353 0.7271526
vn 0.005310339 0.6872006 0.7264483
vn 0.006592053 -0.0009155629 0.9999778
vn -0.2315804 -0.628789 0.7422903
vn -0.5947101 -0.4949712 0.6335009
vn -0.6613829 -0.1088622 0.7421063
vn -0.5786083 -0.5535828 0.5989645
vn 0.5747446 0.566016 0.5910115
vn 0.01596155 -0.6699579 0.7422274
vn 0.7070454 0.0008850656 0.7071675
vn 0.5846846 -0.5503811 0.5960072
vn 0.6970612 -0.7162579 0.0328693
vn 0.9999479 0.0006103757 0.01019327
vn 0.7044411 0.7092021 0.02819961
vn 0.701969 -0.7116741 -0.02755872
vn 0.9999963 6.103866E-05 -0.002746739
vn 0.700356 0.7131436 -0.03045822
vn 0.5777216 -0.5560227 -0.5975589
vn 0.7030514 9.155905E-05 -0.7111391
vn 0.5773888 0.5526379 -0.6010105
vn 0 -0.6827118 -0.7306877
vn -0.580722 0.5518202 -0.5985453
vn 0 -0.6827118 -0.7306877
vn -0.5800477 -0.5557545 -0.5955515
vn 0 -0.6827118 -0.7306877
vn 0.701969 -0.7116741 -0.02755872
vn 0.5777216 -0.5560227 -0.5975589
vn 0 -0.9993269 -0.03668431
vn 0 -0.6827118 -0.7306877
vn 0.6970612 -0.7162579 0.0328693
vn 0 -0.9993269 -0.03668431
vn -0.5800477 -0.5557545 -0.5955515
vn -0.7004539 -0.7131805 -0.02716239
vn -0.6989226 -0.7143654 0.03448681
vn 0.003234969 -0.9993615 0.03558467
vn 0.5846846 -0.5503811 0.5960072
vn 0.01596155 -0.6699579 0.7422274
vn -0.03921748 -0.9833058 0.1776842
vn -0.5786083 -0.5535828 0.5989645
vn -0.003234969 -0.9993615 0.03558467
vn 0.003234969 -0.9993615 0.03558467
vn -0.580723 -0.5510888 0.5992178
vn -0.01593104 -0.6699583 0.7422279
vn 0.5786083 -0.5535828 0.5989645
vn 0.03921748 -0.9833058 0.1776842
vn 0.6071813 -0.4107591 0.6801528
vn -0.6071813 -0.4107591 0.6801528
vn -0.59391 -0.4941416 0.6348977
vn -0.7305207 -0.1212244 0.6720449
vn -0.2559921 -0.6936324 0.6733069
vn -0.07095784 -0.7243193 0.6858036
vn 0.07095784 -0.7243193 0.6858036
vn 0.2559921 -0.6936324 0.6733069
vn 0.59391 -0.4941416 0.6348977
vn 0.7305207 -0.1212244 0.6720449
vn 0.6071813 -0.4107591 0.6801528
vn 0.03921748 -0.9833058 0.1776842
vn 0.5786083 -0.5535828 0.5989645
vn 0.6615589 -0.1086779 0.7419763
vn 0.7305207 -0.1212244 0.6720449
vn 0.4665502 -0.387505 0.7950917
vn 0.59391 -0.4941416 0.6348977
vn 0.2312746 -0.6289399 0.7422578
vn 0.2559921 -0.6936324 0.6733069
vn 0.06662361 -0.6832353 0.7271526
vn 0.07095784 -0.7243193 0.6858036
vn -0.06662361 -0.6832353 0.7271526
vn -0.07095784 -0.7243193 0.6858036
vn -0.2315804 -0.628789 0.7422903
vn -0.2559921 -0.6936324 0.6733069
vn -0.5947101 -0.4949712 0.6335009
vn -0.59391 -0.4941416 0.6348977
vn -0.6613829 -0.1088622 0.7421063
vn -0.7305207 -0.1212244 0.6720449
vn -0.6071813 -0.4107591 0.6801528
vn -0.5786083 -0.5535828 0.5989645
vn -0.03921748 -0.9833058 0.1776842
g ammo_5.56_LOD1_0
f 3/3/3 2/2/2 1/1/1
f 1/1/1 4/4/4 3/3/3
f 1/1/1 5/5/5 4/4/4
f 5/5/5 1/1/1 6/6/6
f 4/4/4 5/5/5 7/7/7
f 6/6/6 7/7/7 5/5/5
f 7/7/7 8/8/8 4/4/4
f 7/7/7 9/9/9 8/8/8
f 10/10/10 8/8/8 9/9/9
f 11/11/11 10/10/10 9/9/9
f 12/12/12 11/11/11 9/9/9
f 12/12/12 9/9/9 7/7/7
f 6/6/6 13/13/13 12/12/12
f 6/6/6 14/14/14 7/7/7
f 7/7/7 14/14/14 12/12/12
f 14/14/14 6/6/6 12/12/12
f 17/17/17 16/16/16 15/15/15
f 18/18/18 17/17/17 15/15/15
f 19/19/19 17/17/17 18/18/18
f 18/18/18 20/20/20 19/19/19
f 19/19/19 21/21/21 17/17/17
f 20/20/20 22/22/22 19/19/19
f 19/19/19 23/23/23 21/21/21
f 22/22/22 23/23/23 19/19/19
f 23/23/23 24/24/24 21/21/21
f 23/23/23 22/22/22 25/25/25
f 24/24/24 23/23/23 25/25/25
f 24/24/24 25/25/25 26/26/26
f 25/25/25 27/27/27 26/26/26
f 27/27/27 28/28/28 26/26/26
f 29/29/29 26/26/26 28/28/28
f 26/26/26 29/29/29 30/30/30
f 26/26/26 31/31/31 24/24/24
f 26/26/26 30/30/30 32/32/32
f 31/31/31 26/26/26 33/33/33
f 33/33/33 26/26/26 32/32/32
f 33/33/33 32/32/32 34/34/34
f 35/35/35 31/31/31 33/33/33
f 33/33/33 36/36/36 35/35/35
f 34/34/34 37/37/37 33/33/33
f 37/37/37 36/36/36 33/33/33
f 36/36/36 37/37/37 38/38/38
f 39/39/39 36/36/36 38/38/38
f 39/39/39 40/40/40 36/36/36
f 41/41/41 35/35/35 36/36/36
f 40/40/40 42/42/42 36/36/36
f 41/41/41 36/36/36 42/42/42
f 43/43/43 41/41/41 42/42/42
f 42/42/42 44/44/44 43/43/43
f 44/44/44 45/45/45 43/43/43
f 43/43/43 46/46/46 41/41/41
f 45/45/45 46/46/46 43/43/43
f 46/46/46 47/47/47 41/41/41
f 46/46/46 45/45/45 48/48/48
f 49/49/49 47/47/47 46/46/46
f 48/48/48 49/49/49 46/46/46
f 49/49/49 50/50/50 47/47/47
f 49/49/49 48/48/48 51/51/51
f 50/50/50 49/49/49 52/52/52
f 52/52/52 49/49/49 51/51/51
f 53/53/53 50/50/50 52/52/52
f 52/52/52 51/51/51 54/54/54
f 54/54/54 53/53/53 52/52/52
f 54/54/54 55/55/55 53/53/53
f 54/54/54 56/56/56 55/55/55
f 56/56/56 57/57/57 55/55/55
f 60/60/60 59/59/59 58/58/58
f 59/59/59 61/61/61 58/58/58
f 58/58/58 61/61/61 62/62/62
f 61/61/61 59/59/59 63/63/63
f 61/61/61 64/64/64 62/62/62
f 63/63/63 64/64/64 61/61/61
f 62/62/62 64/64/64 65/65/65
f 64/64/64 66/66/66 65/65/65
f 63/63/63 66/66/66 64/64/64
f 63/63/63 67/67/67 66/66/66
f 63/63/63 68/68/68 67/67/67
f 63/63/63 69/69/69 68/68/68
f 69/69/69 70/70/70 68/68/68
f 71/71/71 68/68/68 70/70/70
f 72/72/72 71/71/71 70/70/70
f 68/68/68 71/71/71 73/73/73
f 74/74/74 73/73/73 67/67/67
f 75/75/75 67/67/67 73/73/73
f 76/76/76 75/75/75 73/73/73
f 77/77/77 76/76/76 73/73/73
f 78/78/78 77/77/77 73/73/73
f 71/71/71 78/78/78 73/73/73
f 79/79/79 78/78/78 71/71/71
f 80/80/80 79/79/79 71/71/71
f 81/81/81 79/79/79 80/80/80
f 80/80/80 82/82/82 81/81/81
f 81/81/81 83/83/83 79/79/79
f 83/83/83 84/84/84 79/79/79
f 84/84/84 85/85/85 79/79/79
f 85/85/85 86/86/86 79/79/79
f 86/86/86 87/87/87 79/79/79
f 87/87/87 88/88/88 79/79/79
f 91/91/91 90/90/90 89/89/89
f 89/89/89 92/92/92 91/91/91
f 89/89/89 93/93/93 92/92/92
f 92/92/92 93/93/93 94/94/94
f 93/93/93 95/95/95 94/94/94
f 94/94/94 95/95/95 96/96/96
f 95/95/95 97/97/97 96/96/96
f 96/96/96 97/97/97 98/98/98
f 97/97/97 99/99/99 98/98/98
f 98/98/98 99/99/99 100/100/100
f 99/99/99 101/101/101 100/100/100
f 100/100/100 101/101/101 102/102/102
f 101/101/101 103/103/103 102/102/102
f 102/102/102 103/103/103 104/104/104
f 103/103/103 105/105/105 104/104/104
f 104/104/104 105/105/105 106/106/106
f 105/105/105 107/107/107 106/106/106
f 106/106/106 107/107/107 108/108/108
f 109/109/109 106/106/106 108/108/108
f 108/108/108 110/110/110 109/109/109
