g ammo_5.56_LOD2
v 0.005954009 -0.008645222 1.050382E-05
v -0.005962589 -0.008645222 1.050382E-05
v -0.005966778 -0.008741008 0.001417801
v 0.005968463 -0.008741008 0.001417801
v 0.005959462 -0.008749378 0.002957565
v -0.005966778 -0.008749378 0.002957565
v 0.002273729 -0.008749378 0.002957565
v 0.00595229 -0.008635507 0.004266019
v 0.002253162 -0.008635507 0.004322539
v 0.001801644 -0.008695004 0.003898573
v 0.001801644 -0.008641866 0.004317172
v -0.002276497 -0.008749378 0.002957565
v 0.002273729 -0.008749378 0.002957565
v -0.005944085 -0.008635507 0.004266019
v -0.00225593 -0.008635507 0.004322539
v -0.001804411 -0.008641866 0.004317172
v -0.001804411 -0.008695004 0.003898573
v -0.001804411 -0.008537279 0.004198462
v 0.001801644 -0.008537279 0.004198462
v 0.001677003 -0.007498212 0.004198462
v 0.001801644 -0.007863379 0.004198462
v 0.001241243 -0.007253431 0.004198462
v 0.0003894242 -0.007084892 0.004198462
v -0.0003921918 -0.007084892 0.004198462
v -0.001244011 -0.007253431 0.004198462
v -0.001679771 -0.007498212 0.004198462
v -0.001804411 -0.007863379 0.004198462
v 0.005948716 0.008614304 1.050382E-05
v -0.005966778 0.008727223 0.001417801
v -0.005962589 0.008614304 1.050382E-05
v 0.005968463 0.008727223 0.001417801
v -0.005966778 0.008726635 0.002957565
v 0.005959462 0.008726635 0.002957565
v -0.005918741 0.008657517 0.004266019
v 0.005911225 0.008657517 0.004266019
v -0.002223543 0.008657517 0.004320158
v 0.002244963 0.008657517 0.004320158
v -0.005962589 0.008614304 1.050382E-05
v -0.005966778 0.008727223 0.001417801
v -0.005966778 0.008726635 0.002957565
v -0.005962589 -0.008645222 1.050382E-05
v -0.005966778 -0.008741008 0.001417801
v -0.005966778 -0.008749378 0.002957565
v -0.005944085 -0.008635507 0.004266019
v -0.005918741 0.008657517 0.004266019
v -0.002223543 0.008657517 0.004320158
v -0.00225593 -0.008635507 0.004322539
v -0.001804411 -0.008641866 0.004317172
v -0.001804411 -0.007863379 0.004317172
v -0.001679771 -0.007498212 0.004317172
v -0.001244011 -0.007253431 0.004317172
v -0.0003921918 -0.007084892 0.004317172
v 0.0003894242 -0.007084892 0.004317172
v 0.001241243 -0.007253431 0.004317172
v 0.001677003 -0.007498212 0.004317172
v 0.001801644 -0.007863379 0.004317172
v 0.002244963 0.008657517 0.004320158
v 0.001801644 -0.008641866 0.004317172
v 0.002253162 -0.008635507 0.004322539
v 0.005911225 0.008657517 0.004266019
v 0.005947944 -0.00694442 0.004266019
v 0.00595229 -0.008635507 0.004266019
v 0.005959462 -0.007038923 0.002957565
v 0.005959462 0.008726635 0.002957565
v 0.005968463 0.008727223 0.001417801
v 0.005968463 -0.008741008 0.001417801
v 0.005959462 -0.008749378 0.002957565
v 0.005954009 -0.008645222 1.050382E-05
v 0.005948716 0.008614304 1.050382E-05
v -0.005962589 -0.008645222 1.050382E-05
v -0.005962589 0.008614304 1.050382E-05
v -0.001804411 -0.008537279 0.004198462
v -0.001804411 -0.008695004 0.003898573
v -0.001804411 -0.008641866 0.004317172
v -0.001804411 -0.007863379 0.004317172
v -0.001804411 -0.007863379 0.004198462
v -0.001679771 -0.007498212 0.004317172
v -0.001679771 -0.007498212 0.004198462
v -0.001244011 -0.007253431 0.004317172
v -0.001244011 -0.007253431 0.004198462
v -0.0003921918 -0.007084892 0.004317172
v -0.0003921918 -0.007084892 0.004198462
v 0.0003894242 -0.007084892 0.004317172
v 0.0003894242 -0.007084892 0.004198462
v 0.001241243 -0.007253431 0.004317172
v 0.001241243 -0.007253431 0.004198462
v 0.001677003 -0.007498212 0.004317172
v 0.001677003 -0.007498212 0.004198462
v 0.001801644 -0.007863379 0.004317172
v 0.001801644 -0.007863379 0.004198462
v 0.001801644 -0.008537279 0.004198462
v 0.001801644 -0.008641866 0.004317172
v 0.001801644 -0.008695004 0.003898573
vt 0.5482128 0.004360287
vt 0.5482128 0.3701158
vt 0.5915077 0.3702513
vt 0.5915064 0.003909705
vt 0.6387668 0.004177711
vt 0.6387693 0.3702594
vt 0.6387894 0.1173099
vt 0.6790754 0.004388587
vt 0.6808332 0.1179229
vt 0.6677202 0.1318058
vt 0.6806707 0.131782
vt 0.6387914 0.2569851
vt 0.6387894 0.1173099
vt 0.6790792 0.3695719
vt 0.6808361 0.256371
vt 0.6806731 0.2425116
vt 0.6677225 0.2424881
vt 0.6781224 0.2424878
vt 0.6781201 0.1318056
vt 0.7100127 0.1356306
vt 0.6988044 0.1318052
vt 0.7175262 0.1490054
vt 0.7226997 0.1751505
vt 0.7227002 0.1991411
vt 0.7175277 0.2252864
vt 0.7100149 0.2386616
vt 0.6988067 0.2424874
vt 0.8629841 0.004517232
vt 0.8196498 0.3702511
vt 0.8629841 0.3701225
vt 0.8196498 0.003911086
vt 0.7723883 0.3702511
vt 0.7723883 0.004187387
vt 0.7321706 0.3687767
vt 0.7321705 0.00566797
vt 0.7305111 0.2553563
vt 0.7305112 0.1182001
vt 0.007300228 0.004740188
vt 0.003902078 0.04794148
vt 0.003994063 0.09520257
vt 0.5370615 0.003909975
vt 0.5400697 0.04710053
vt 0.5404017 0.09436068
vt 0.5369711 0.1345329
vt 0.006177962 0.1353864
vt 0.006194845 0.2488175
vt 0.5369835 0.2477475
vt 0.5371805 0.2616069
vt 0.5132865 0.2616101
vt 0.5020789 0.2654372
vt 0.4945675 0.278813
vt 0.4893983 0.304959
vt 0.4894018 0.3289492
vt 0.4945788 0.3550935
vt 0.5085416 0.3614466
vt 0.5133027 0.3722903
vt 0.006214514 0.3859722
vt 0.5371965 0.3722861
vt 0.5370037 0.3861454
vt 0.006229967 0.498515
vt 0.4851211 0.4995781
vt 0.5370281 0.4996964
vt 0.487933 0.5397488
vt 0.004022643 0.5386993
vt 0.003902137 0.5859617
vt 0.5400727 0.587126
vt 0.5404336 0.5398654
vt 0.5370386 0.6303169
vt 0.007274359 0.6291691
vt 0.5361335 0.9960822
vt 0.006371513 0.9947742
vt 0.8744405 0.009123624
vt 0.8836452 0.004282415
vt 0.8707969 0.005913438
vt 0.8707969 0.02980823
vt 0.8744406 0.02980817
vt 0.8707969 0.04165137
vt 0.8744406 0.04165137
vt 0.8707969 0.05699229
vt 0.8744406 0.05699229
vt 0.8707969 0.08364475
vt 0.8744406 0.08364475
vt 0.8707969 0.1076357
vt 0.8744406 0.1076357
vt 0.8707969 0.1342883
vt 0.8744406 0.1342883
vt 0.8707969 0.1496294
vt 0.8744406 0.1496294
vt 0.8707969 0.1614729
vt 0.8744406 0.1614729
vt 0.8744406 0.1821577
vt 0.8707969 0.1853678
vt 0.8836454 0.1869988
vn 0.577364 -0.5556953 -0.5982087
vn -0.580352 -0.5560588 -0.5949707
vn -0.7004545 -0.7131811 -0.02713189
vn 0.7019583 -0.7116632 -0.02810763
vn 0.696868 -0.7164611 0.03253312
vn -0.6988301 -0.7143338 0.0369283
vn 0.003234969 -0.9993615 0.03558467
vn 0.5846809 -0.5510492 0.5953931
vn 0.01995949 -0.6699553 0.742133
vn -0.03921748 -0.9833058 0.1776842
vn -0.5742511 -0.5557259 0.6011692
vn -0.003234969 -0.9993615 0.03558467
vn 0.003234969 -0.9993615 0.03558467
vn -0.5788869 -0.5494969 0.6024476
vn -0.0199599 -0.6699385 0.7421482
vn 0.5742511 -0.5557259 0.6011692
vn 0.03921748 -0.9833058 0.1776842
vn 0.6071813 -0.4107591 0.6801528
vn -0.6071813 -0.4107591 0.6801528
vn -0.59391 -0.4941416 0.6348977
vn -0.7305207 -0.1212244 0.6720449
vn -0.2559921 -0.6936324 0.6733069
vn -0.07095784 -0.7243193 0.6858036
vn 0.07095784 -0.7243193 0.6858036
vn 0.2559921 -0.6936324 0.6733069
vn 0.59391 -0.4941416 0.6348977
vn 0.7305207 -0.1212244 0.6720449
vn 0.5774312 0.5526797 -0.6009313
vn -0.6984812 0.7150223 -0.02945053
vn -0.5810279 0.552126 -0.5979661
vn 0.7003278 0.7131765 -0.03033625
vn -0.7050928 0.7086027 0.02694875
vn 0.7043516 0.7092957 0.02807762
vn -0.5740449 0.5652553 0.5924178
vn 0.5746748 0.56616 0.5909415
vn -0.005157728 0.6871071 0.7265378
vn 0.005188247 0.687107 0.7265377
vn -0.5810279 0.552126 -0.5979661
vn -0.6984812 0.7150223 -0.02945053
vn -0.7050928 0.7086027 0.02694875
vn -0.580352 -0.5560588 -0.5949707
vn -0.7004545 -0.7131811 -0.02713189
vn -0.6988301 -0.7143338 0.0369283
vn -0.5788869 -0.5494969 0.6024476
vn -0.5740449 0.5652553 0.5924178
vn -0.005157728 0.6871071 0.7265378
vn -0.0199599 -0.6699385 0.7421482
vn 0.5742511 -0.5557259 0.6011692
vn 0.7305125 -0.1213146 0.6720373
vn 0.5938748 -0.4942293 0.6348622
vn 0.2559633 -0.693698 0.6732503
vn 0.07095619 -0.7243634 0.6857572
vn -0.07095619 -0.7243634 0.6857572
vn -0.2559633 -0.693698 0.6732503
vn -0.5938748 -0.4942293 0.6348622
vn -0.7305125 -0.1213146 0.6720373
vn 0.005188247 0.687107 0.7265377
vn -0.5742511 -0.5557259 0.6011692
vn 0.01995949 -0.6699553 0.742133
vn 0.5746748 0.56616 0.5909415
vn 0.7072288 0.0005188318 0.7069846
vn 0.5846809 -0.5510492 0.5953931
vn 0.9998965 0.0006103815 0.01437449
vn 0.7043516 0.7092957 0.02807762
vn 0.7003278 0.7131765 -0.03033625
vn 0.7019583 -0.7116632 -0.02810763
vn 0.696868 -0.7164611 0.03253312
vn 0.577364 -0.5556953 -0.5982087
vn 0.5774312 0.5526797 -0.6009313
vn -0.580352 -0.5560588 -0.5949707
vn -0.5810279 0.552126 -0.5979661
vn 0.6071813 -0.4107591 0.6801528
vn 0.03921748 -0.9833058 0.1776842
vn 0.5742511 -0.5557259 0.6011692
vn 0.7305125 -0.1213146 0.6720373
vn 0.7305207 -0.1212244 0.6720449
vn 0.5938748 -0.4942293 0.6348622
vn 0.59391 -0.4941416 0.6348977
vn 0.2559633 -0.693698 0.6732503
vn 0.2559921 -0.6936324 0.6733069
vn 0.07095619 -0.7243634 0.6857572
vn 0.07095784 -0.7243193 0.6858036
vn -0.07095619 -0.7243634 0.6857572
vn -0.07095784 -0.7243193 0.6858036
vn -0.2559633 -0.693698 0.6732503
vn -0.2559921 -0.6936324 0.6733069
vn -0.5938748 -0.4942293 0.6348622
vn -0.59391 -0.4941416 0.6348977
vn -0.7305125 -0.1213146 0.6720373
vn -0.7305207 -0.1212244 0.6720449
vn -0.6071813 -0.4107591 0.6801528
vn -0.5742511 -0.5557259 0.6011692
vn -0.03921748 -0.9833058 0.1776842
g ammo_5.56_LOD2_0
f 3/3/3 2/2/2 1/1/1
f 4/4/4 3/3/3 1/1/1
f 3/3/3 4/4/4 5/5/5
f 5/5/5 6/6/6 3/3/3
f 5/5/5 7/7/7 6/6/6
f 5/5/5 8/8/8 7/7/7
f 8/8/8 9/9/9 7/7/7
f 10/10/10 7/7/7 9/9/9
f 11/11/11 10/10/10 9/9/9
f 7/7/7 10/10/10 12/12/12
f 13/13/13 12/12/12 6/6/6
f 14/14/14 6/6/6 12/12/12
f 15/15/15 14/14/14 12/12/12
f 16/16/16 15/15/15 12/12/12
f 17/17/17 16/16/16 12/12/12
f 10/10/10 17/17/17 12/12/12
f 18/18/18 17/17/17 10/10/10
f 19/19/19 18/18/18 10/10/10
f 20/20/20 18/18/18 19/19/19
f 19/19/19 21/21/21 20/20/20
f 20/20/20 22/22/22 18/18/18
f 22/22/22 23/23/23 18/18/18
f 23/23/23 24/24/24 18/18/18
f 24/24/24 25/25/25 18/18/18
f 25/25/25 26/26/26 18/18/18
f 26/26/26 27/27/27 18/18/18
f 30/30/30 29/29/29 28/28/28
f 29/29/29 31/31/31 28/28/28
f 29/29/29 32/32/32 31/31/31
f 32/32/32 33/33/33 31/31/31
f 33/33/33 32/32/32 34/34/34
f 34/34/34 35/35/35 33/33/33
f 34/34/34 36/36/36 35/35/35
f 36/36/36 37/37/37 35/35/35
f 40/40/40 39/39/39 38/38/38
f 40/40/40 38/38/38 41/41/41
f 40/40/40 41/41/41 42/42/42
f 42/42/42 43/43/43 40/40/40
f 43/43/43 44/44/44 40/40/40
f 44/44/44 45/45/45 40/40/40
f 45/45/45 44/44/44 46/46/46
f 44/44/44 47/47/47 46/46/46
f 46/46/46 47/47/47 48/48/48
f 46/46/46 48/48/48 49/49/49
f 46/46/46 49/49/49 50/50/50
f 46/46/46 50/50/50 51/51/51
f 46/46/46 51/51/51 52/52/52
f 46/46/46 52/52/52 53/53/53
f 46/46/46 53/53/53 54/54/54
f 46/46/46 54/54/54 55/55/55
f 46/46/46 55/55/55 56/56/56
f 56/56/56 57/57/57 46/46/46
f 57/57/57 56/56/56 58/58/58
f 58/58/58 59/59/59 57/57/57
f 60/60/60 57/57/57 59/59/59
f 61/61/61 60/60/60 59/59/59
f 59/59/59 62/62/62 61/61/61
f 61/61/61 63/63/63 60/60/60
f 62/62/62 63/63/63 61/61/61
f 63/63/63 64/64/64 60/60/60
f 65/65/65 64/64/64 63/63/63
f 66/66/66 63/63/63 62/62/62
f 66/66/66 65/65/65 63/63/63
f 62/62/62 67/67/67 66/66/66
f 65/65/65 66/66/66 68/68/68
f 69/69/69 65/65/65 68/68/68
f 68/68/68 70/70/70 69/69/69
f 70/70/70 71/71/71 69/69/69
f 74/74/74 73/73/73 72/72/72
f 72/72/72 75/75/75 74/74/74
f 72/72/72 76/76/76 75/75/75
f 75/75/75 76/76/76 77/77/77
f 76/76/76 78/78/78 77/77/77
f 77/77/77 78/78/78 79/79/79
f 78/78/78 80/80/80 79/79/79
f 79/79/79 80/80/80 81/81/81
f 80/80/80 82/82/82 81/81/81
f 81/81/81 82/82/82 83/83/83
f 82/82/82 84/84/84 83/83/83
f 83/83/83 84/84/84 85/85/85
f 84/84/84 86/86/86 85/85/85
f 85/85/85 86/86/86 87/87/87
f 86/86/86 88/88/88 87/87/87
f 87/87/87 88/88/88 89/89/89
f 88/88/88 90/90/90 89/89/89
f 89/89/89 90/90/90 91/91/91
f 92/92/92 89/89/89 91/91/91
f 91/91/91 93/93/93 92/92/92
