g ammo_7.62_LOD0
v -0.002330332 -0.01110564 0.006312538
v -0.006074893 -0.01121286 0.004561636
v -0.005980428 -0.01110564 0.006240039
v -0.002351585 -0.0112238 0.004561636
v -0.002351585 -0.01123486 0.001818665
v -0.006074893 -0.01122392 0.001818665
v -0.005980428 -0.01110007 1.347363E-05
v -0.002330332 -0.01110007 1.347363E-05
v 0.00232924 -0.01110007 1.347363E-05
v 0.002350493 -0.01123486 0.001818665
v 0.006186366 -0.01110007 1.347363E-05
v 0.006142778 -0.01122392 0.001818665
v 0.006094757 -0.01121286 0.004561636
v 0.002350493 -0.0112238 0.004561636
v 0.00232924 -0.01110564 0.006312538
v 0.006081324 -0.01113895 0.006240039
v -0.002330332 0.01115158 1.347363E-05
v -0.006034979 0.01120325 0.001818665
v -0.005980428 0.01115158 1.347363E-05
v -0.002351585 0.01120325 0.001818665
v -0.002351585 0.01117997 0.004561636
v -0.006034979 0.01117997 0.004561636
v -0.005954239 0.01110356 0.006240039
v -0.002296863 0.01110356 0.006309484
v 0.002350493 0.01120325 0.001818665
v 0.00232924 0.01115158 1.347363E-05
v 0.002350493 0.01117997 0.004561636
v 0.002295772 0.01110356 0.006309484
v 0.006043565 0.01110356 0.006240039
v 0.006042952 0.01117997 0.004561636
v 0.006090973 0.01120325 0.001818665
v 0.006064779 0.01115158 1.347363E-05
v 0.00232924 0.01115158 1.347363E-05
v 0.006091652 0.008863739 1.347363E-05
v 0.006064779 0.01115158 1.347363E-05
v 0.00232924 0.008863739 1.347363E-05
v 0.006091652 -0.008918528 1.347363E-05
v -0.002330332 0.01115158 1.347363E-05
v 0.00232924 -0.008918528 1.347363E-05
v 0.006186366 -0.01110007 1.347363E-05
v 0.00232924 -0.01110007 1.347363E-05
v -0.002330332 0.008863739 1.347363E-05
v -0.002330332 -0.008918528 1.347363E-05
v -0.002330332 -0.01110007 1.347363E-05
v -0.005980428 -0.01110007 1.347363E-05
v -0.005980428 -0.008918528 1.347363E-05
v -0.006074893 -0.01122392 0.001818665
v -0.005980428 0.008863739 1.347363E-05
v -0.005980428 0.01115158 1.347363E-05
v -0.006074893 -0.009042067 0.001818665
v -0.006074893 0.008970681 0.001818665
v -0.006034979 0.01120325 0.001818665
v -0.006034979 0.01117997 0.004561636
v -0.006074893 -0.009034146 0.004561636
v -0.006074893 -0.01121286 0.004561636
v -0.005980428 -0.01110564 0.006240039
v -0.006074893 0.008952361 0.004561636
v -0.005980428 -0.008879672 0.006240039
v -0.002330332 -0.01110564 0.006312538
v -0.005980428 0.008825949 0.006240039
v -0.005954239 0.01110356 0.006240039
v -0.002330332 -0.008879672 0.006312538
v 0.00232924 -0.01110564 0.006312538
v -0.002330332 0.008825949 0.006312538
v -0.002296863 0.01110356 0.006309484
v 0.00232924 -0.008879672 0.006312538
v 0.00232924 0.008825949 0.006312538
v 0.002295772 0.01110356 0.006309484
v 0.006043565 0.01110356 0.006240039
v 0.006081324 0.008825949 0.006240039
v 0.006042952 0.01117997 0.004561636
v 0.006081324 -0.008879672 0.006240039
v 0.006081324 -0.01113895 0.006240039
v 0.006157605 0.008952361 0.004561636
v 0.006157605 -0.009034146 0.004561636
v 0.006094757 -0.01121286 0.004561636
v 0.006142778 -0.01122392 0.001818665
v 0.006183716 0.008970682 0.0006933829
v 0.006090973 0.01120325 0.001818665
v 0.006064779 0.01115158 1.347363E-05
v 0.006091652 0.008863739 1.347363E-05
v 0.006169219 -0.009042066 0.000693383
v 0.006091652 -0.008918528 1.347363E-05
v 0.006186366 -0.01110007 1.347363E-05
vt 0.7154412 0.352938
vt 0.6142696 0.3055277
vt 0.6168162 0.3509714
vt 0.7148699 0.3055227
vt 0.7148696 0.2314121
vt 0.6142689 0.2314111
vt 0.6168131 0.1825188
vt 0.7154392 0.1825028
vt 0.8413377 0.1825009
vt 0.8419091 0.2314118
vt 0.9455559 0.1825128
vt 0.9443726 0.2314028
vt 0.9430801 0.3055195
vt 0.8419118 0.3055226
vt 0.8413398 0.3529379
vt 0.9427238 0.3509141
vt 0.8415985 0.003901988
vt 0.9416944 0.05269647
vt 0.9402204 0.003901988
vt 0.8421727 0.0526965
vt 0.8421727 0.1268115
vt 0.9416944 0.1268115
vt 0.9395128 0.1722073
vt 0.8406941 0.1740818
vt 0.7151271 0.05269647
vt 0.7157014 0.003901958
vt 0.7151271 0.1268115
vt 0.7166057 0.1740818
vt 0.615344 0.1722073
vt 0.6153606 0.1268115
vt 0.614063 0.05269644
vt 0.6147708 0.003901929
vt 0.004990023 0.1088136
vt 0.06673178 0.007082808
vt 0.004903588 0.007861667
vt 0.06681959 0.1087584
vt 0.5472638 0.006686037
vt 0.0051037 0.2347471
vt 0.5473471 0.1083585
vt 0.6062142 0.00407821
vt 0.6062997 0.1083102
vt 0.06694221 0.234679
vt 0.5474492 0.2342755
vt 0.6064025 0.2342274
vt 0.6064836 0.3328671
vt 0.5475271 0.3329135
vt 0.6098701 0.3817175
vt 0.06706548 0.3333195
vt 0.00522119 0.3334182
vt 0.5509022 0.3817617
vt 0.06425244 0.3821597
vt 0.00390262 0.3822554
vt 0.004681957 0.4564612
vt 0.5507336 0.4558945
vt 0.609629 0.4558582
vt 0.6067618 0.5013086
vt 0.06491847 0.4562355
vt 0.5465765 0.5013297
vt 0.6067975 0.6000695
vt 0.06846072 0.5016087
vt 0.006903843 0.5019582
vt 0.5465965 0.600083
vt 0.6067965 0.7260925
vt 0.06822284 0.6001406
vt 0.006642724 0.6009682
vt 0.546587 0.7260676
vt 0.06826601 0.7259747
vt 0.006716883 0.7252236
vt 0.007129058 0.8266717
vt 0.06865017 0.8271672
vt 0.004765798 0.872117
vt 0.5465502 0.8276075
vt 0.607641 0.8276389
vt 0.06504791 0.8724771
vt 0.5506978 0.8730148
vt 0.6096197 0.8730199
vt 0.6098676 0.9471699
vt 0.06424695 0.9768851
vt 0.003902669 0.9463608
vt 0.005210578 0.9952233
vt 0.06707394 0.9954305
vt 0.5508686 0.9775999
vt 0.5474899 0.9960978
vt 0.6065251 0.9959714
vn -0.007653409 -0.6809025 0.732334
vn -0.7069419 -0.7059422 0.04334464
vn -0.5678983 -0.5599768 0.6032558
vn -0.00147441 -0.9993612 0.03570835
vn -0.0009514206 -0.9993936 -0.03480709
vn -0.7051554 -0.707844 -0.04138355
vn -0.563917 -0.5568666 -0.6098338
vn -0.0004568225 -0.6807811 -0.7324868
vn 0.0003980413 -0.6807452 -0.7325202
vn 0.0009296621 -0.9993937 -0.03480678
vn 0.5888492 -0.5466052 -0.5953817
vn 0.6962897 -0.7173914 -0.02302573
vn 0.6956626 -0.717576 0.03373921
vn 9.840285E-05 -0.9994612 0.03282232
vn 0.005846897 -0.6817966 0.7315185
vn 0.5732721 -0.5657949 0.5926509
vn 0 0.6969182 -0.7171505
vn -0.7013999 0.7124467 -0.0213964
vn -0.5652225 0.5710832 -0.5953046
vn 0 0.9999493 -0.01006346
vn -0.0001539606 0.9996563 0.02621348
vn -0.7022381 0.710992 0.03676939
vn -0.5643042 0.5699952 0.5972152
vn -0.006806504 0.6896033 0.7241553
vn 0 0.9999493 -0.01006367
vn 0 0.6969184 -0.7171504
vn 0.0001514581 0.9996564 0.02621084
vn 0.00663799 0.6899917 0.7237869
vn 0.571481 0.5707983 0.5895751
vn 0.6869352 0.726069 0.03072368
vn 0.6915371 0.7222097 -0.0137623
vn 0.5581795 0.5759441 -0.5972638
vn 0 0.6969184 -0.7171504
vn 0.6753618 0.01172153 -0.7373934
vn 0.5581795 0.5759441 -0.5972638
vn 0 0 -1
vn 0.6744776 0.003577228 -0.7382866
vn 0 0.6969182 -0.7171505
vn 0 0 -1
vn 0.5888492 -0.5466052 -0.5953817
vn 0.0003980413 -0.6807452 -0.7325202
vn 0 0 -1
vn 0 0 -1
vn -0.0004568225 -0.6807811 -0.7324868
vn -0.563917 -0.5568666 -0.6098338
vn -0.6883829 0 -0.7253475
vn -0.7051554 -0.707844 -0.04138355
vn -0.6902099 0.002900604 -0.7236034
vn -0.5652225 0.5710832 -0.5953046
vn -0.9996583 0 -0.02613801
vn -0.9997061 0.006813928 -0.02326564
vn -0.7013999 0.7124467 -0.0213964
vn -0.7022381 0.710992 0.03676939
vn -0.9996049 0 0.02810799
vn -0.7069419 -0.7059422 0.04334464
vn -0.5678983 -0.5599768 0.6032558
vn -0.9995913 0.008318896 0.02735006
vn -0.6941342 0 0.7198457
vn -0.007653409 -0.6809025 0.732334
vn -0.6958057 0.005034712 0.7182125
vn -0.5643042 0.5699952 0.5972152
vn -0.009929731 0 0.9999508
vn 0.005846897 -0.6817966 0.7315185
vn -0.00983355 0.0006165974 0.9999515
vn -0.006806504 0.6896033 0.7241553
vn 0.009659902 0 0.9999534
vn 0.009574402 0.0006259798 0.999954
vn 0.00663799 0.6899917 0.7237869
vn 0.571481 0.5707983 0.5895751
vn 0.7029556 0.01150262 0.7111406
vn 0.6869352 0.726069 0.03072368
vn 0.7007582 -0.004561251 0.7133843
vn 0.5732721 -0.5657949 0.5926509
vn 0.9995802 0.01961654 0.0213226
vn 0.9997317 -0.00835901 0.02160083
vn 0.6956626 -0.717576 0.03373921
vn 0.6962897 -0.7173914 -0.02302573
vn 0.9988912 0.02102406 -0.04212539
vn 0.6915371 0.7222097 -0.0137623
vn 0.5581795 0.5759441 -0.5972638
vn 0.6753618 0.01172153 -0.7373934
vn 0.9995764 0.00103604 -0.0290867
vn 0.6744776 0.003577228 -0.7382866
vn 0.5888492 -0.5466052 -0.5953817
g ammo_7.62_LOD0_0
f 3/3/3 2/2/2 1/1/1
f 4/4/4 1/1/1 2/2/2
f 4/4/4 2/2/2 5/5/5
f 6/6/6 5/5/5 2/2/2
f 6/6/6 7/7/7 5/5/5
f 8/8/8 5/5/5 7/7/7
f 8/8/8 9/9/9 5/5/5
f 10/10/10 5/5/5 9/9/9
f 5/5/5 10/10/10 4/4/4
f 9/9/9 11/11/11 10/10/10
f 12/12/12 10/10/10 11/11/11
f 12/12/12 13/13/13 10/10/10
f 4/4/4 14/14/14 1/1/1
f 14/14/14 4/4/4 10/10/10
f 14/14/14 10/10/10 13/13/13
f 15/15/15 1/1/1 14/14/14
f 14/14/14 13/13/13 15/15/15
f 16/16/16 15/15/15 13/13/13
f 19/19/19 18/18/18 17/17/17
f 20/20/20 17/17/17 18/18/18
f 20/20/20 18/18/18 21/21/21
f 22/22/22 21/21/21 18/18/18
f 22/22/22 23/23/23 21/21/21
f 24/24/24 21/21/21 23/23/23
f 20/20/20 25/25/25 17/17/17
f 20/20/20 21/21/21 25/25/25
f 26/26/26 17/17/17 25/25/25
f 21/21/21 24/24/24 27/27/27
f 27/27/27 25/25/25 21/21/21
f 28/28/28 27/27/27 24/24/24
f 28/28/28 29/29/29 27/27/27
f 30/30/30 27/27/27 29/29/29
f 30/30/30 31/31/31 27/27/27
f 25/25/25 27/27/27 31/31/31
f 25/25/25 31/31/31 26/26/26
f 32/32/32 26/26/26 31/31/31
f 35/35/35 34/34/34 33/33/33
f 36/36/36 33/33/33 34/34/34
f 34/34/34 37/37/37 36/36/36
f 33/33/33 36/36/36 38/38/38
f 39/39/39 36/36/36 37/37/37
f 37/37/37 40/40/40 39/39/39
f 41/41/41 39/39/39 40/40/40
f 42/42/42 38/38/38 36/36/36
f 36/36/36 39/39/39 42/42/42
f 39/39/39 41/41/41 43/43/43
f 43/43/43 42/42/42 39/39/39
f 44/44/44 43/43/43 41/41/41
f 44/44/44 45/45/45 43/43/43
f 46/46/46 43/43/43 45/45/45
f 43/43/43 46/46/46 42/42/42
f 45/45/45 47/47/47 46/46/46
f 42/42/42 48/48/48 38/38/38
f 48/48/48 42/42/42 46/46/46
f 49/49/49 38/38/38 48/48/48
f 50/50/50 46/46/46 47/47/47
f 46/46/46 50/50/50 48/48/48
f 48/48/48 51/51/51 49/49/49
f 51/51/51 48/48/48 50/50/50
f 52/52/52 49/49/49 51/51/51
f 52/52/52 51/51/51 53/53/53
f 50/50/50 47/47/47 54/54/54
f 55/55/55 54/54/54 47/47/47
f 55/55/55 56/56/56 54/54/54
f 51/51/51 50/50/50 57/57/57
f 57/57/57 53/53/53 51/51/51
f 54/54/54 57/57/57 50/50/50
f 58/58/58 54/54/54 56/56/56
f 54/54/54 58/58/58 57/57/57
f 56/56/56 59/59/59 58/58/58
f 57/57/57 60/60/60 53/53/53
f 60/60/60 57/57/57 58/58/58
f 61/61/61 53/53/53 60/60/60
f 62/62/62 58/58/58 59/59/59
f 58/58/58 62/62/62 60/60/60
f 59/59/59 63/63/63 62/62/62
f 60/60/60 64/64/64 61/61/61
f 64/64/64 60/60/60 62/62/62
f 65/65/65 61/61/61 64/64/64
f 66/66/66 62/62/62 63/63/63
f 62/62/62 66/66/66 64/64/64
f 64/64/64 67/67/67 65/65/65
f 67/67/67 64/64/64 66/66/66
f 68/68/68 65/65/65 67/67/67
f 68/68/68 67/67/67 69/69/69
f 70/70/70 69/69/69 67/67/67
f 67/67/67 66/66/66 70/70/70
f 69/69/69 70/70/70 71/71/71
f 66/66/66 63/63/63 72/72/72
f 72/72/72 70/70/70 66/66/66
f 73/73/73 72/72/72 63/63/63
f 74/74/74 71/71/71 70/70/70
f 70/70/70 72/72/72 74/74/74
f 72/72/72 73/73/73 75/75/75
f 75/75/75 74/74/74 72/72/72
f 76/76/76 75/75/75 73/73/73
f 76/76/76 77/77/77 75/75/75
f 74/74/74 78/78/78 71/71/71
f 79/79/79 71/71/71 78/78/78
f 79/79/79 78/78/78 80/80/80
f 81/81/81 80/80/80 78/78/78
f 75/75/75 82/82/82 74/74/74
f 78/78/78 74/74/74 82/82/82
f 78/78/78 82/82/82 81/81/81
f 82/82/82 75/75/75 77/77/77
f 83/83/83 81/81/81 82/82/82
f 82/82/82 77/77/77 83/83/83
f 84/84/84 83/83/83 77/77/77
