g ammo_7.62_LOD1
v 0.001815836 0.006910022 1.050382E-05
v 0.001815836 -0.006952734 1.050382E-05
v 0.001815836 -0.00865343 1.050382E-05
v -0.001816687 -0.00865343 1.050382E-05
v -0.004662241 -0.00865343 1.050382E-05
v -0.004735885 -0.008749975 0.001417801
v -0.001833256 -0.008758507 0.001417801
v 0.001832405 -0.008758507 0.001417801
v 0.001815836 -0.00865343 1.050382E-05
v -0.001833256 -0.008749887 0.003556175
v -0.004735885 -0.008741356 0.003556175
v -0.004662241 -0.008657768 0.004864629
v -0.001816687 -0.008657768 0.004921149
v 0.001815836 -0.008657768 0.004921149
v 0.001832405 -0.008749887 0.003556175
v 0.004740898 -0.008683739 0.004864629
v 0.00475137 -0.008741356 0.003556175
v 0.004788807 -0.008749975 0.001417801
v 0.004822787 -0.00865343 1.050382E-05
v 0.004727999 0.008693586 1.050382E-05
v -0.004704768 0.008733865 0.001417801
v -0.004662241 0.008693586 1.050382E-05
v 0.00474842 0.008733865 0.001417801
v -0.004704768 0.008715717 0.003556175
v 0.004710983 0.008715717 0.003556175
v -0.001833256 0.008715717 0.003556175
v -0.001790596 0.008656153 0.004918768
v -0.004641824 0.008656153 0.004864629
v 0.001789745 0.008656153 0.004918768
v 0.004711461 0.008656153 0.004864629
v 0.001832405 0.008715717 0.003556175
v 0.001815836 -0.00865343 1.050382E-05
v 0.004822787 -0.00865343 1.050382E-05
v 0.00474895 -0.006952734 1.050382E-05
v 0.00474895 0.006910022 1.050382E-05
v 0.004727999 0.008693586 1.050382E-05
v 0.001815836 0.006910022 1.050382E-05
v -0.004662241 0.008693586 1.050382E-05
v -0.004662241 0.006910022 1.050382E-05
v -0.004704768 0.008733865 0.001417801
v -0.001816687 -0.006952734 1.050382E-05
v 0.001815836 -0.006952734 1.050382E-05
v -0.001816687 -0.00865343 1.050382E-05
v -0.004662241 -0.006952734 1.050382E-05
v -0.004662241 -0.00865343 1.050382E-05
v -0.004735885 0.006993392 0.001417801
v -0.004735885 -0.007049042 0.001417801
v -0.004735885 -0.008749975 0.001417801
v -0.004735885 -0.008741356 0.003556175
v -0.004735885 0.00697911 0.003556175
v -0.004704768 0.008715717 0.003556175
v -0.004641824 0.008656153 0.004864629
v -0.004662241 0.006880561 0.004864629
v -0.004662241 -0.008657768 0.004864629
v -0.001790596 0.008656153 0.004918768
v -0.001816687 0.006880561 0.004921149
v -0.001816687 -0.008657768 0.004921149
v 0.001789745 0.008656153 0.004918768
v 0.001815836 0.006880561 0.004921149
v 0.001815836 -0.008657768 0.004921149
v 0.004740898 -0.008683739 0.004864629
v 0.004740898 0.006880561 0.004864629
v 0.004711461 0.008656153 0.004864629
v 0.004740898 -0.006922443 0.004864629
v 0.00475137 -0.008741356 0.003556175
v 0.004800364 0.00697911 0.003556175
v 0.004710983 0.008715717 0.003556175
v 0.00474842 0.008733865 0.001417801
v 0.004800364 -0.007042869 0.003556175
v 0.00482072 0.006993392 0.0005405498
v 0.00480942 -0.007049042 0.0005405498
v 0.004788807 -0.008749975 0.001417801
v 0.004822787 -0.00865343 1.050382E-05
v 0.00474895 -0.006952734 1.050382E-05
v 0.00474895 0.006910022 1.050382E-05
v 0.004727999 0.008693586 1.050382E-05
vt 0.06681959 0.1087584
vt 0.5473471 0.1083585
vt 0.6062997 0.1083102
vt 0.7154392 0.1825028
vt 0.6168131 0.1825188
vt 0.6142689 0.2314111
vt 0.7148696 0.2314121
vt 0.8419091 0.2314118
vt 0.8413377 0.1825009
vt 0.7148699 0.3055227
vt 0.6142696 0.3055277
vt 0.6168162 0.3509714
vt 0.7154412 0.352938
vt 0.8413398 0.3529379
vt 0.8419118 0.3055226
vt 0.9427238 0.3509141
vt 0.9430801 0.3055195
vt 0.9443726 0.2314028
vt 0.9455559 0.1825128
vt 0.6147708 0.003901929
vt 0.9416944 0.05269647
vt 0.9402204 0.003901988
vt 0.614063 0.05269644
vt 0.9416944 0.1268115
vt 0.6153606 0.1268115
vt 0.8421727 0.1268115
vt 0.8406941 0.1740818
vt 0.9395128 0.1722073
vt 0.7166057 0.1740818
vt 0.615344 0.1722073
vt 0.7151271 0.1268115
vt 0.6062997 0.1083102
vt 0.6062142 0.00407821
vt 0.5472638 0.006686037
vt 0.06673178 0.007082808
vt 0.004903588 0.007861667
vt 0.06681959 0.1087584
vt 0.00522119 0.3334182
vt 0.06706548 0.3333195
vt 0.00390262 0.3822554
vt 0.5474492 0.2342755
vt 0.5473471 0.1083585
vt 0.6064025 0.2342274
vt 0.5475271 0.3329135
vt 0.6064836 0.3328671
vt 0.06425244 0.3821597
vt 0.5509022 0.3817617
vt 0.6098701 0.3817175
vt 0.609629 0.4558582
vt 0.06491847 0.4562355
vt 0.004681957 0.4564612
vt 0.006903843 0.5019582
vt 0.06846072 0.5016087
vt 0.6067618 0.5013086
vt 0.006642724 0.6009682
vt 0.06822284 0.6001406
vt 0.6067975 0.6000695
vt 0.006716883 0.7252236
vt 0.06826601 0.7259747
vt 0.6067965 0.7260925
vt 0.607641 0.8276389
vt 0.06865017 0.8271672
vt 0.007129058 0.8266717
vt 0.5465502 0.8276075
vt 0.6096197 0.8730199
vt 0.06504791 0.8724771
vt 0.004765798 0.872117
vt 0.003902669 0.9463608
vt 0.5506978 0.8730148
vt 0.06424695 0.9768851
vt 0.5508686 0.9775999
vt 0.6098676 0.9471699
vt 0.6065251 0.9959714
vt 0.5474899 0.9960978
vt 0.06707394 0.9954305
vt 0.005210578 0.9952233
vn 0 0 -1
vn 0 0 -1
vn 0.0004577838 -0.6808162 -0.7324542
vn -0.0004883028 -0.6808162 -0.7324542
vn -0.5639645 -0.5568841 -0.6097739
vn -0.7051399 -0.7078561 -0.04144471
vn -0.001098683 -0.9994045 -0.03448643
vn 0.001068165 -0.9994056 -0.03445595
vn 0.0004577838 -0.6808162 -0.7324542
vn -0.001251282 -0.9993777 0.03524953
vn -0.7070137 -0.7058539 0.0436123
vn -0.567897 -0.5599315 0.603299
vn -0.007507694 -0.6810334 0.7322139
vn 0.005829053 -0.6818161 0.7315004
vn 9.155654E-05 -0.9994617 0.03280776
vn 0.5732719 -0.5657947 0.5926515
vn 0.6956479 -0.717591 0.03372339
vn 0.6962807 -0.7173996 -0.02304151
vn 0.588868 -0.546599 -0.5953687
vn 0.5581762 0.5759388 -0.597272
vn -0.7013993 0.7124474 -0.02139417
vn -0.565219 0.5710481 -0.5953416
vn 0.6915375 0.7222094 -0.01376422
vn -0.7021909 0.7110415 0.03671487
vn 0.6869223 0.7260782 0.0307937
vn -9.155738E-05 0.9996539 0.02630749
vn -0.006805734 0.6896681 0.7240936
vn -0.5642925 0.5699995 0.5972223
vn 0.006622643 0.6897315 0.724035
vn 0.5714965 0.5707945 0.5895637
vn 9.155738E-05 0.9996539 0.02630749
vn 0.0004577838 -0.6808162 -0.7324542
vn 0.588868 -0.546599 -0.5953687
vn 0.6838737 0.003601263 -0.7295915
vn 0.6753547 0.01171929 -0.7373999
vn 0.5581762 0.5759388 -0.597272
vn 0 0 -1
vn -0.565219 0.5710481 -0.5953416
vn -0.6902282 0.002929868 -0.7235859
vn -0.7013993 0.7124474 -0.02139417
vn 0 0 -1
vn 0 0 -1
vn -0.0004883028 -0.6808162 -0.7324542
vn -0.688386 0 -0.7253445
vn -0.5639645 -0.5568841 -0.6097739
vn -0.9997051 0.006775179 -0.02331638
vn -0.9996587 0 -0.0261245
vn -0.7051399 -0.7078561 -0.04144471
vn -0.7070137 -0.7058539 0.0436123
vn -0.9995936 0.008270687 0.02728412
vn -0.7021909 0.7110415 0.03671487
vn -0.5642925 0.5699995 0.5972223
vn -0.6958704 0.005066202 0.7181495
vn -0.567897 -0.5599315 0.603299
vn -0.006805734 0.6896681 0.7240936
vn -0.0098576 0.0005493399 0.9999512
vn -0.007507694 -0.6810334 0.7322139
vn 0.006622643 0.6897315 0.724035
vn 0.009582956 0.0005493414 0.999954
vn 0.005829053 -0.6818161 0.7315004
vn 0.5732719 -0.5657947 0.5926515
vn 0.7030051 0.01144463 0.7110927
vn 0.5714965 0.5707945 0.5895637
vn 0.7007692 -0.004577797 0.7133734
vn 0.6956479 -0.717591 0.03372339
vn 0.999581 0.01959305 0.0213021
vn 0.6869223 0.7260782 0.0307937
vn 0.6915375 0.7222094 -0.01376422
vn 0.9997342 -0.008362146 0.02148522
vn 0.9988914 0.02102769 -0.04211641
vn 0.9995764 0.001037633 -0.02908424
vn 0.6962807 -0.7173996 -0.02304151
vn 0.588868 -0.546599 -0.5953687
vn 0.6838737 0.003601263 -0.7295915
vn 0.6753547 0.01171929 -0.7373999
vn 0.5581762 0.5759388 -0.597272
g ammo_7.62_LOD1_0
f 3/3/3 2/2/2 1/1/1
f 6/6/6 5/5/5 4/4/4
f 7/7/7 6/6/6 4/4/4
f 8/8/8 7/7/7 4/4/4
f 9/9/9 8/8/8 4/4/4
f 6/6/6 7/7/7 10/10/10
f 11/11/11 6/6/6 10/10/10
f 12/12/12 11/11/11 10/10/10
f 13/13/13 12/12/12 10/10/10
f 14/14/14 13/13/13 10/10/10
f 15/15/15 10/10/10 7/7/7
f 15/15/15 14/14/14 10/10/10
f 8/8/8 15/15/15 7/7/7
f 16/16/16 14/14/14 15/15/15
f 17/17/17 16/16/16 15/15/15
f 18/18/18 17/17/17 15/15/15
f 8/8/8 18/18/18 15/15/15
f 18/18/18 8/8/8 9/9/9
f 19/19/19 18/18/18 9/9/9
f 22/22/22 21/21/21 20/20/20
f 21/21/21 23/23/23 20/20/20
f 23/23/23 21/21/21 24/24/24
f 24/24/24 25/25/25 23/23/23
f 24/24/24 26/26/26 25/25/25
f 27/27/27 26/26/26 24/24/24
f 28/28/28 27/27/27 24/24/24
f 27/27/27 29/29/29 26/26/26
f 29/29/29 30/30/30 25/25/25
f 26/26/26 31/31/31 25/25/25
f 31/31/31 29/29/29 25/25/25
f 29/29/29 31/31/31 26/26/26
f 34/34/34 33/33/33 32/32/32
f 32/32/32 35/35/35 34/34/34
f 32/32/32 36/36/36 35/35/35
f 32/32/32 37/37/37 36/36/36
f 37/37/37 38/38/38 36/36/36
f 37/37/37 39/39/39 38/38/38
f 40/40/40 38/38/38 39/39/39
f 41/41/41 39/39/39 37/37/37
f 37/37/37 42/42/42 41/41/41
f 32/32/32 43/43/43 42/42/42
f 43/43/43 41/41/41 42/42/42
f 41/41/41 43/43/43 44/44/44
f 41/41/41 44/44/44 39/39/39
f 43/43/43 45/45/45 44/44/44
f 46/46/46 40/40/40 39/39/39
f 46/46/46 39/39/39 44/44/44
f 47/47/47 44/44/44 45/45/45
f 47/47/47 46/46/46 44/44/44
f 48/48/48 47/47/47 45/45/45
f 47/47/47 48/48/48 49/49/49
f 40/40/40 46/46/46 50/50/50
f 50/50/50 46/46/46 47/47/47
f 49/49/49 50/50/50 47/47/47
f 51/51/51 40/40/40 50/50/50
f 51/51/51 50/50/50 52/52/52
f 53/53/53 50/50/50 49/49/49
f 50/50/50 53/53/53 52/52/52
f 54/54/54 53/53/53 49/49/49
f 52/52/52 53/53/53 55/55/55
f 53/53/53 54/54/54 56/56/56
f 53/53/53 56/56/56 55/55/55
f 54/54/54 57/57/57 56/56/56
f 58/58/58 55/55/55 56/56/56
f 59/59/59 56/56/56 57/57/57
f 59/59/59 58/58/58 56/56/56
f 60/60/60 59/59/59 57/57/57
f 59/59/59 60/60/60 61/61/61
f 59/59/59 62/62/62 58/58/58
f 62/62/62 63/63/63 58/58/58
f 59/59/59 61/61/61 64/64/64
f 64/64/64 62/62/62 59/59/59
f 64/64/64 61/61/61 65/65/65
f 63/63/63 62/62/62 66/66/66
f 67/67/67 63/63/63 66/66/66
f 68/68/68 67/67/67 66/66/66
f 62/62/62 64/64/64 69/69/69
f 69/69/69 64/64/64 65/65/65
f 66/66/66 62/62/62 69/69/69
f 70/70/70 68/68/68 66/66/66
f 70/70/70 66/66/66 69/69/69
f 71/71/71 69/69/69 65/65/65
f 71/71/71 70/70/70 69/69/69
f 72/72/72 71/71/71 65/65/65
f 71/71/71 72/72/72 73/73/73
f 74/74/74 71/71/71 73/73/73
f 70/70/70 71/71/71 74/74/74
f 75/75/75 70/70/70 74/74/74
f 68/68/68 70/70/70 75/75/75
f 76/76/76 68/68/68 75/75/75
