g barrier_11
v -1.576007 -0.068731 1.717989
v -1.576006 -0.072452 0.000171
v -1.576006 0.07126 -4E-06
v -1.576008 0.074981 1.717813
v -1.576008 0.074981 1.717813
v -1.576006 0.07126 -4E-06
v -1.327258 0.071261 -4E-06
v -1.32726 0.074982 1.717814
v -1.32726 0.074982 1.717814
v -1.327258 0.071261 -4E-06
v -1.327258 -0.072451 0.000171
v -1.32726 -0.06873 1.717989
v -1.32726 -0.06873 1.717989
v -1.327258 -0.072451 0.000171
v -1.576006 -0.072452 0.000171
v -1.576007 -0.068731 1.717989
v 2.0946 -0.101148 2.795571
v -2.077964 -0.101161 2.795561
v -2.077965 0.101559 2.793689
v 2.094599 0.101571 2.7937
v 2.094599 0.101571 2.7937
v -2.077965 0.101559 2.793689
v -2.077964 0.097636 1.650508
v 2.0946 0.097648 1.650518
v 2.0946 0.097648 1.650518
v -2.077964 0.097636 1.650508
v -2.077963 -0.105083 1.652379
v 2.094601 -0.105071 1.652389
v 2.094601 -0.105071 1.652389
v -2.077963 -0.105083 1.652379
v -2.077964 -0.101161 2.795561
v 2.0946 -0.101148 2.795571
v -2.077964 -0.101161 2.795561
v -2.077963 -0.105083 1.652379
v -2.077964 0.097636 1.650508
v -2.077965 0.101559 2.793689
v 2.094601 -0.105071 1.652389
v 2.0946 -0.101148 2.795571
v 2.094599 0.101571 2.7937
v 2.0946 0.097648 1.650518
v 1.319561 -0.068731 1.717989
v 1.319563 -0.072452 0.000171
v 1.319563 0.07126 -4E-06
v 1.319561 0.074981 1.717813
v 1.319561 0.074981 1.717813
v 1.319563 0.07126 -4E-06
v 1.56831 0.071261 -4E-06
v 1.568308 0.074982 1.717814
v 1.568308 0.074982 1.717814
v 1.56831 0.071261 -4E-06
v 1.568311 -0.072451 0.000171
v 1.568309 -0.06873 1.717989
v 1.568309 -0.06873 1.717989
v 1.568311 -0.072451 0.000171
v 1.319563 -0.072452 0.000171
v 1.319561 -0.068731 1.717989
v 1.187904 -0.857731 -8.4E-05
v 1.187904 0.858921 -8.4E-05
v 1.187907 0.860261 0.139909
v 1.187903 -0.857556 0.143628
v 1.187903 -0.857556 0.143628
v 1.187907 0.860261 0.139909
v 1.699968 0.860261 0.139909
v 1.699964 -0.857556 0.143628
v 1.699964 -0.857556 0.143628
v 1.699968 0.860261 0.139909
v 1.699965 0.858921 -8.3E-05
v 1.699965 -0.857731 -8.3E-05
v 1.699965 -0.857731 -8.3E-05
v 1.699965 0.858921 -8.3E-05
v 1.187904 0.858921 -8.4E-05
v 1.187904 -0.857731 -8.4E-05
v 1.699965 -0.857731 -8.3E-05
v 1.187904 -0.857731 -8.4E-05
v 1.187903 -0.857556 0.143628
v 1.699964 -0.857556 0.143628
v 1.699965 0.858921 -8.3E-05
v 1.699968 0.860261 0.139909
v 1.187907 0.860261 0.139909
v 1.187904 0.858921 -8.4E-05
v -1.692259 -0.857731 -8.4E-05
v -1.692259 0.858921 -8.4E-05
v -1.692256 0.860261 0.139909
v -1.69226 -0.857556 0.143628
v -1.69226 -0.857556 0.143628
v -1.692256 0.860261 0.139909
v -1.180195 0.860261 0.139909
v -1.180199 -0.857556 0.143628
v -1.180199 -0.857556 0.143628
v -1.180195 0.860261 0.139909
v -1.180198 0.858921 -8.3E-05
v -1.180198 -0.857731 -8.3E-05
v -1.180198 -0.857731 -8.3E-05
v -1.180198 0.858921 -8.3E-05
v -1.692259 0.858921 -8.4E-05
v -1.692259 -0.857731 -8.4E-05
v -1.180198 -0.857731 -8.3E-05
v -1.692259 -0.857731 -8.4E-05
v -1.69226 -0.857556 0.143628
v -1.180199 -0.857556 0.143628
v -1.180198 0.858921 -8.3E-05
v -1.180195 0.860261 0.139909
v -1.692256 0.860261 0.139909
v -1.692259 0.858921 -8.4E-05
vt 0.691406 0.300781
vt 0.626953 0.300781
vt 0.626953 0.316406
vt 0.691406 0.316406
vt 0.527344 0.300781
vt 0.454102 0.300781
vt 0.454102 0.316406
vt 0.527344 0.316406
vt 0.691406 0.300781
vt 0.626953 0.300781
vt 0.626953 0.316406
vt 0.691406 0.316406
vt 0.615723 0.300781
vt 0.54248 0.300781
vt 0.54248 0.316406
vt 0.615723 0.316406
vt 0.609863 0.300781
vt 0.547363 0.300781
vt 0.547363 0.316406
vt 0.609863 0.316406
vt 0.656738 0.403809
vt 0.41748 0.403809
vt 0.41748 0.458008
vt 0.656738 0.458008
vt 0.456055 0.316406
vt 0.527344 0.316406
vt 0.527344 0.300781
vt 0.456055 0.300781
vt 0.656738 0.332031
vt 0.418457 0.332031
vt 0.418457 0.38623
vt 0.656738 0.38623
vt 0.672363 0.300781
vt 0.626465 0.300781
vt 0.626465 0.316406
vt 0.672363 0.316406
vt 0.626465 0.316406
vt 0.672363 0.316406
vt 0.672363 0.300781
vt 0.626465 0.300781
vt 0.691406 0.300781
vt 0.626953 0.300781
vt 0.626953 0.316406
vt 0.691406 0.316406
vt 0.527344 0.300781
vt 0.454102 0.300781
vt 0.454102 0.316406
vt 0.527344 0.316406
vt 0.691406 0.300781
vt 0.626953 0.300781
vt 0.626953 0.316406
vt 0.691406 0.316406
vt 0.615723 0.300781
vt 0.54248 0.300781
vt 0.54248 0.316406
vt 0.615723 0.316406
vt 0.524902 0.300781
vt 0.460449 0.300781
vt 0.460449 0.316406
vt 0.524902 0.316406
vt 0.615723 0.300781
vt 0.54248 0.300781
vt 0.54248 0.316406
vt 0.615723 0.316406
vt 0.460449 0.316406
vt 0.524902 0.316406
vt 0.524902 0.300781
vt 0.460449 0.300781
vt 0.615723 0.300781
vt 0.54248 0.300781
vt 0.54248 0.316406
vt 0.615723 0.316406
vt 0.602539 0.300781
vt 0.560547 0.300781
vt 0.560547 0.316406
vt 0.602539 0.316406
vt 0.602539 0.300781
vt 0.602539 0.316406
vt 0.560547 0.316406
vt 0.560547 0.300781
vt 0.524902 0.300781
vt 0.460449 0.300781
vt 0.460449 0.316406
vt 0.524902 0.316406
vt 0.615723 0.300781
vt 0.54248 0.300781
vt 0.54248 0.316406
vt 0.615723 0.316406
vt 0.460449 0.316406
vt 0.524902 0.316406
vt 0.524902 0.300781
vt 0.460449 0.300781
vt 0.615723 0.300781
vt 0.54248 0.300781
vt 0.54248 0.316406
vt 0.615723 0.316406
vt 0.602539 0.300781
vt 0.560547 0.300781
vt 0.560547 0.316406
vt 0.602539 0.316406
vt 0.602539 0.300781
vt 0.602539 0.316406
vt 0.560547 0.316406
vt 0.560547 0.300781
vn -1 0 0
vn -1 0 0
vn -1 0 0
vn -1 0 0
vn 0 0.9999977 -0.002165999
vn 0 0.9999977 -0.002165999
vn 0 0.9999977 -0.002165999
vn 0 0.9999977 -0.002165999
vn 1 0 0
vn 1 0 0
vn 1 0 0
vn 1 0 0
vn 0 -0.9999977 0.002165999
vn 0 -0.9999977 0.002165999
vn 0 -0.9999977 0.002165999
vn 0 -0.9999977 0.002165999
vn 0 0.009231004 0.9999574
vn 0 0.009231004 0.9999574
vn 0 0.009231004 0.9999574
vn 0 0.009231004 0.9999574
vn 0 0.9999942 -0.003431001
vn 0 0.9999942 -0.003431001
vn 0 0.9999942 -0.003431001
vn 0 0.9999942 -0.003431001
vn 0 -0.009230004 -0.9999574
vn 0 -0.009230004 -0.9999574
vn 0 -0.009230004 -0.9999574
vn 0 -0.009230004 -0.9999574
vn 0 -0.9999942 0.003431001
vn 0 -0.9999942 0.003431001
vn 0 -0.9999942 0.003431001
vn 0 -0.9999942 0.003431001
vn -1 0 0
vn -1 0 0
vn -1 0 0
vn -1 0 0
vn 1 0 0
vn 1 0 0
vn 1 0 0
vn 1 0 0
vn -1 0 0
vn -1 0 0
vn -1 0 0
vn -1 0 0
vn 0 0.9999977 -0.002165999
vn 0 0.9999977 -0.002165999
vn 0 0.9999977 -0.002165999
vn 0 0.9999977 -0.002165999
vn 1 0 0
vn 1 0 0
vn 1 0 0
vn 1 0 0
vn 0 -0.9999977 0.002165999
vn 0 -0.9999977 0.002165999
vn 0 -0.9999977 0.002165999
vn 0 -0.9999977 0.002165999
vn -1 0 0
vn -1 0 0
vn -1 0 0
vn -1 0 0
vn 0 0.002164999 0.9999977
vn 0 0.002164999 0.9999977
vn 0 0.002164999 0.9999977
vn 0 0.002164999 0.9999977
vn 1 0 0
vn 1 0 0
vn 1 0 0
vn 1 0 0
vn 0 0 -1
vn 0 0 -1
vn 0 0 -1
vn 0 0 -1
vn 0 -0.9999993 0.001219
vn 0 -0.9999993 0.001219
vn 0 -0.9999993 0.001219
vn 0 -0.9999993 0.001219
vn 0 0.9999542 -0.009574002
vn 0 0.9999542 -0.009574002
vn 0 0.9999542 -0.009574002
vn 0 0.9999542 -0.009574002
vn -1 0 0
vn -1 0 0
vn -1 0 0
vn -1 0 0
vn 0 0.002164999 0.9999977
vn 0 0.002164999 0.9999977
vn 0 0.002164999 0.9999977
vn 0 0.002164999 0.9999977
vn 1 0 0
vn 1 0 0
vn 1 0 0
vn 1 0 0
vn 0 0 -1
vn 0 0 -1
vn 0 0 -1
vn 0 0 -1
vn 0 -0.9999993 0.001219
vn 0 -0.9999993 0.001219
vn 0 -0.9999993 0.001219
vn 0 -0.9999993 0.001219
vn 0 0.9999542 -0.009574002
vn 0 0.9999542 -0.009574002
vn 0 0.9999542 -0.009574002
vn 0 0.9999542 -0.009574002
g barrier_11_0
f 3/3/3 2/2/2 1/1/1
f 4/4/4 3/3/3 1/1/1
f 7/7/7 6/6/6 5/5/5
f 8/8/8 7/7/7 5/5/5
f 11/11/11 10/10/10 9/9/9
f 12/12/12 11/11/11 9/9/9
f 15/15/15 14/14/14 13/13/13
f 16/16/16 15/15/15 13/13/13
f 19/19/19 18/18/18 17/17/17
f 20/20/20 19/19/19 17/17/17
f 23/23/23 22/22/22 21/21/21
f 24/24/24 23/23/23 21/21/21
f 27/27/27 26/26/26 25/25/25
f 28/28/28 27/27/27 25/25/25
f 31/31/31 30/30/30 29/29/29
f 32/32/32 31/31/31 29/29/29
f 35/35/35 34/34/34 33/33/33
f 36/36/36 35/35/35 33/33/33
f 39/39/39 38/38/38 37/37/37
f 40/40/40 39/39/39 37/37/37
f 43/43/43 42/42/42 41/41/41
f 44/44/44 43/43/43 41/41/41
f 47/47/47 46/46/46 45/45/45
f 48/48/48 47/47/47 45/45/45
f 51/51/51 50/50/50 49/49/49
f 52/52/52 51/51/51 49/49/49
f 55/55/55 54/54/54 53/53/53
f 56/56/56 55/55/55 53/53/53
f 59/59/59 58/58/58 57/57/57
f 60/60/60 59/59/59 57/57/57
f 63/63/63 62/62/62 61/61/61
f 64/64/64 63/63/63 61/61/61
f 67/67/67 66/66/66 65/65/65
f 68/68/68 67/67/67 65/65/65
f 71/71/71 70/70/70 69/69/69
f 72/72/72 71/71/71 69/69/69
f 75/75/75 74/74/74 73/73/73
f 76/76/76 75/75/75 73/73/73
f 79/79/79 78/78/78 77/77/77
f 80/80/80 79/79/79 77/77/77
f 83/83/83 82/82/82 81/81/81
f 84/84/84 83/83/83 81/81/81
f 87/87/87 86/86/86 85/85/85
f 88/88/88 87/87/87 85/85/85
f 91/91/91 90/90/90 89/89/89
f 92/92/92 91/91/91 89/89/89
f 95/95/95 94/94/94 93/93/93
f 96/96/96 95/95/95 93/93/93
f 99/99/99 98/98/98 97/97/97
f 100/100/100 99/99/99 97/97/97
f 103/103/103 102/102/102 101/101/101
f 104/104/104 103/103/103 101/101/101
