g basicbarrelendvector_LOD3
v -0.005131288 -0.1403364 0.01830869
v -0.005126207 -0.1403364 0.01338574
v -0.006067148 -0.1403364 0.01585038
v -0.004463671 -0.1389221 0.01243833
v -0.0007528653 -0.1389221 0.01177259
v 0.00181054 -0.1389221 0.01373956
v -0.006067148 -0.1389221 0.01585038
v 0.002127909 -0.1389221 0.01749622
v -0.004463667 -0.1389221 0.01926243
v -0.0007528658 -0.1389221 0.01992816
v -0.004115605 -0.1403364 0.01263801
v -0.003439224 -0.1403364 0.0120028
v -0.005126207 -0.1403364 0.01338574
v 0.0004066566 -0.1403364 0.01262151
v -0.0007528653 -0.1403364 0.01177259
v 0.001458484 -0.1403364 0.01331514
v 0.00144883 -0.1403364 0.01389813
v 0.002283449 -0.1403364 0.01530679
v 0.00157636 -0.1403364 0.01806601
v 0.001051044 -0.1389221 0.01931677
v 0.001301542 -0.1389221 0.01242453
v 0.00161164 -0.1403364 0.01239323
v -0.001845511 -0.1403364 0.0208362
v -0.005772001 -0.1389221 0.01834498
v -0.005943473 -0.1403364 0.01394969
v -0.004589153 -0.1389221 0.01254282
v 0.00161164 -0.1403364 0.01239323
v 0.001301542 -0.1389221 0.01242453
v -0.004823694 -0.1403364 0.0188443
v 0.0009475834 -0.1403364 0.01894604
v -0.003818103 -0.1447546 0.0194257
v 0.0001551479 -0.144818 0.01944395
v 0.0009475834 -0.1403364 0.01894604
v 0.001261376 -0.1403364 0.01276966
v 0.001716408 -0.1447905 0.01782901
v 0.00189747 -0.1447392 0.01381757
v -0.005038936 -0.1403364 0.01325547
v -0.004823694 -0.1403364 0.0188443
v -0.005400122 -0.1447909 0.01387601
v -0.005588485 -0.1447392 0.01788318
v -0.001845507 -0.1633179 0.01966946
v 0.000106741 -0.1605908 0.01923176
v 0.0009022579 -0.1620723 0.01869432
v 0.0001551479 -0.144818 0.01944395
v -0.003818103 -0.1447546 0.0194257
v -0.003495373 -0.1615265 0.01775733
v -0.003816999 -0.16242 0.0192674
v -0.005449903 -0.1625766 0.01770468
v -0.0052269 -0.1605908 0.01780261
v -0.005588485 -0.1447392 0.01788318
v -0.005696472 -0.1632284 0.01544868
v -0.005400122 -0.1447909 0.01387601
v -0.005226898 -0.1605908 0.01389812
v -0.004689461 -0.1620723 0.0131026
v 0.0009475834 -0.1403364 0.01894604
v 0.0009494225 -0.1462054 0.01864639
v 0.001716408 -0.1447905 0.01782901
v -0.004823694 -0.1403364 0.0188443
v -0.004633154 -0.1462039 0.0186375
v -0.005038936 -0.1403364 0.01325547
v -0.00464058 -0.1462054 0.01305446
v -0.003878367 -0.1447343 0.01210501
v -0.003875564 -0.1624841 0.01229187
v -0.003797753 -0.1605908 0.01246898
v -0.001443818 -0.1632284 0.0119994
v 0.002005458 -0.1632284 0.01625206
v 0.001535886 -0.1605908 0.01780261
v 0.00189747 -0.1447392 0.01381757
v 0.001571525 -0.16242 0.01782186
v 0.0009022579 -0.1620723 0.01869432
v 0.001712989 -0.1624841 0.01382031
v 0.001535886 -0.1605908 0.01389812
v 0.0009022594 -0.1620723 0.01300642
v 0.001261376 -0.1403364 0.01276966
v 0.0009438187 -0.1462043 0.01306146
v 0.0001218785 -0.1447881 0.01230886
v -0.001443818 -0.1632284 0.0119994
v 0.0001067419 -0.1605908 0.01246898
v 0.0001218785 -0.1447881 0.01230886
v -0.003878367 -0.1447343 0.01210501
v -0.003476854 -0.1625801 0.01908353
v -0.001506314 -0.163232 0.01919828
v -0.002758946 -0.146879 0.01923596
v -0.003561572 -0.1600536 0.01882268
v -0.003561572 -0.1456524 0.01882268
v -0.003499389 -0.1609914 0.01729584
v -0.00504475 -0.162486 0.01763904
v -0.005225441 -0.1468791 0.01676143
v -0.004817818 -0.1456524 0.01756644
v -0.005218851 -0.1632311 0.01550184
v -0.004996627 -0.1465941 0.01448188
v -0.004817818 -0.1600536 0.01413431
v -0.004844782 -0.1624201 0.01412257
v -0.00329098 -0.1609914 0.01419649
v -0.003477032 -0.1625801 0.01261637
v -0.002756558 -0.1468791 0.01247045
v -0.001496983 -0.1632311 0.01247703
v -0.003561572 -0.1456524 0.01287806
v -0.003561572 -0.1456524 0.01882268
v -0.002740935 -0.1468814 0.01921778
v -0.003192457 -0.144112 0.01893784
v -0.004272389 -0.1468785 0.01827726
v -0.003369214 -0.1467658 0.01665166
v -0.004932969 -0.144112 0.01450339
v -0.005241182 -0.1468785 0.01494767
v -0.004817818 -0.1456524 0.01413431
v -0.004272389 -0.1468785 0.01342349
v -0.002646789 -0.1467658 0.01432668
v -0.000498526 -0.144112 0.01276293
v -0.0009428081 -0.1468785 0.0124547
v -0.0001294439 -0.1456524 0.01287806
v -0.0009428081 -0.1468785 0.0124547
v -0.000498526 -0.144112 0.01276293
v 0.0005813733 -0.1468785 0.01342349
v 0.001126802 -0.1456524 0.01413431
v 0.001241961 -0.144112 0.01719732
v 0.001469673 -0.1468785 0.01496208
v 0.001521894 -0.1468814 0.0167458
v 0.001126803 -0.1456524 0.01756644
v 0.0005813736 -0.1468785 0.01827725
v -0.0001294434 -0.1456524 0.01882268
v -0.003192457 -0.144112 0.01893784
v -0.0009572072 -0.1468785 0.01916555
v -0.002740935 -0.1468814 0.01921778
v -0.004648002 -0.1621017 0.01300689
v -0.00393586 -0.1624172 0.01296314
v -0.001801986 -0.1631825 0.01186333
v -0.001307819 -0.1631176 0.01239007
v 0.0009979714 -0.1621017 0.01304788
v 0.001041719 -0.1624172 0.01376001
v -0.004115606 -0.1403364 0.01906274
v -0.005131288 -0.1403364 0.01830869
v -0.003439233 -0.1403364 0.01969795
v 0.0006009703 -0.1403364 0.01908834
v -0.001301924 -0.1403364 0.01997933
v -0.003878367 -0.1447343 0.01210501
v 0.0001218785 -0.1447881 0.01230886
v 0.001261376 -0.1403364 0.01276966
v -0.005038936 -0.1403364 0.01325547
v -0.002374829 -0.163187 0.01931207
v -0.00473837 -0.1624795 0.01793512
v -0.004688989 -0.1621017 0.01865286
v -0.001891947 -0.1631163 0.01983775
v 0.0002448528 -0.1624172 0.01873759
v 0.0009569807 -0.1621017 0.01869385
v 0.0009979714 -0.1621017 0.01304788
v 0.001041719 -0.1624172 0.01376001
v 0.002141876 -0.1631163 0.0158968
v 0.00161619 -0.163187 0.01637969
v 0.0009569807 -0.1621017 0.01869385
v 0.0002448528 -0.1624172 0.01873759
v -0.005309521 -0.1631908 0.01533792
v -0.00393586 -0.1624172 0.01296314
v -0.004648002 -0.1621017 0.01300689
v -0.005833162 -0.1632396 0.01581294
v -0.00473837 -0.1624795 0.01793512
v -0.004688989 -0.1621017 0.01865286
v -0.001506314 -0.163232 0.01919828
v -0.0004669941 -0.1465943 0.01902669
v -0.002758946 -0.146879 0.01923596
v -0.0001177049 -0.1624201 0.01884964
v -0.0004000346 -0.1609914 0.01750425
v 0.001388491 -0.1625801 0.01748189
v 0.001126803 -0.1600536 0.01756643
v 0.001534424 -0.1468791 0.01676143
v 0.001126803 -0.1456524 0.01756644
v 0.001527838 -0.1632311 0.01550184
v 0.00130561 -0.1465941 0.01448188
v 0.001126803 -0.1600536 0.01413431
v 2.685436E-05 -0.16234 0.01397799
v 0.0005813733 -0.1612797 0.01342349
v -0.0001294437 -0.1600536 0.01287806
v -0.001496983 -0.1632311 0.01247703
v -0.0004770129 -0.1465941 0.01269926
v -0.002756558 -0.1468791 0.01247045
v -0.0002418121 -0.1441004 0.01307269
v -0.002258506 -0.1441004 0.0127134
v -0.004113481 -0.1441003 0.01358241
v 0.001077691 -0.1441005 0.01463955
v -0.004982487 -0.1441004 0.01543739
v 0.0011733 -0.1441004 0.01710081
v -0.004623194 -0.1441004 0.01745407
v -0.001015365 -0.1441004 0.01894848
v -0.003056342 -0.1441004 0.01877357
vt 0.7061085 0.8809702
vt 0.7176367 0.8531466
vt 0.7073908 0.8651819
vt 0.01993575 0.8903684
vt 0.0379054 0.9029396
vt 0.05645092 0.8979992
vt 0.01803361 0.8685207
vt 0.06578553 0.878083
vt 0.03485525 0.8543494
vt 0.05645081 0.8581667
vt 0.7252766 0.8517688
vt 0.7305439 0.8493743
vt 0.7176367 0.8531466
vt 0.7504747 0.8621223
vt 0.74578 0.8548956
vt 0.7551146 0.8682281
vt 0.7540917 0.871439
vt 0.7551146 0.8813956
vt 0.7446051 0.8939053
vt 0.3878883 0.3687338
vt 0.3878883 0.4123527
vt 0.3966738 0.4105591
vt 0.3966736 0.3514654
vt 0.3878883 0.3256629
vt 0.3966737 0.2997665
vt 0.3878883 0.2885016
vt 0.3966738 0.2735013
vt 0.3878883 0.2707626
vt 0.9493931 0.9487833
vt 0.9493931 0.9245282
vt 0.9293756 0.9486274
vt 0.9293756 0.9245282
vt 0.7749574 0.3953701
vt 0.7992123 0.3953701
vt 0.7751164 0.3753527
vt 0.7992124 0.3753527
vt 0.9087206 0.263452
vt 0.9087206 0.2391969
vt 0.8887032 0.263325
vt 0.8887031 0.2391969
vt 0.3272548 0.3467163
vt 0.3116425 0.3593276
vt 0.3198548 0.3646421
vt 0.2144503 0.359317
vt 0.213373 0.3339738
vt 0.3171035 0.3294915
vt 0.323004 0.3340552
vt 0.3237188 0.3201468
vt 0.3116443 0.3214086
vt 0.214283 0.3209426
vt 0.3274859 0.3063424
vt 0.2136223 0.2960227
vt 0.3116512 0.2960684
vt 0.3198649 0.2907548
vt 0.1857191 0.3641781
vt 0.2222718 0.3656296
vt 0.2136192 0.3719203
vt 0.1857164 0.3279032
vt 0.2222607 0.3276875
vt 0.1857376 0.292207
vt 0.2222779 0.289738
vt 0.2142922 0.2831161
vt 0.3231001 0.2832829
vt 0.3116548 0.28349
vt 0.3280028 0.2708164
vt 0.3274846 0.3821702
vt 0.3116447 0.3719059
vt 0.2142944 0.396839
vt 0.3230062 0.3719704
vt 0.3198548 0.3646421
vt 0.3230964 0.3970325
vt 0.3116519 0.3972453
vt 0.319866 0.4045056
vt 0.1857462 0.4036959
vt 0.2222756 0.4035775
vt 0.2136407 0.4098575
vt 0.3274922 0.4200943
vt 0.3116558 0.4098232
vt 0.2136407 0.4098575
vt 0.2100447 0.4201775
vt 0.5553769 0.4179649
vt 0.5512376 0.427991
vt 0.6526614 0.4218228
vt 0.5709546 0.4166622
vt 0.6600573 0.4162898
vt 0.565362 0.4095929
vt 0.5559875 0.4052467
vt 0.6523124 0.3999663
vt 0.6598522 0.405325
vt 0.5516023 0.3922111
vt 0.6549523 0.3870406
vt 0.5709531 0.3831634
vt 0.5561815 0.3831732
vt 0.5653991 0.3760579
vt 0.5554137 0.3707068
vt 0.6526926 0.367007
vt 0.55128 0.3606791
vt 0.6600643 0.372554
vt 0.6600573 0.4162898
vt 0.6526637 0.4219193
vt 0.6701418 0.4175184
vt 0.652451 0.4108303
vt 0.6545371 0.4014867
vt 0.6699338 0.3859132
vt 0.6523371 0.3889059
vt 0.6598527 0.3835024
vt 0.6524643 0.3779928
vt 0.6548695 0.3685818
vt 0.6702895 0.3648114
vt 0.6528522 0.3613341
vt 0.1247464 0.6744137
vt 0.117352 0.6800213
vt 0.1348312 0.6756421
vt 0.1171401 0.6689541
vt 0.1245415 0.6634484
vt 0.1346226 0.6440369
vt 0.1170016 0.6580036
vt 0.1170262 0.6470512
vt 0.124542 0.6416259
vt 0.1171539 0.6361166
vt 0.1247537 0.6306778
vt 0.1349788 0.6229356
vt 0.1173847 0.625043
vt 0.117542 0.619458
vt 0.9457191 0.3993739
vt 0.9468726 0.394621
vt 0.9427937 0.3859506
vt 0.9453959 0.3827759
vt 0.9457186 0.3728919
vt 0.9483237 0.3742424
vt 0.7105255 0.8873812
vt 0.7061085 0.8809702
vt 0.7125565 0.8927988
vt 0.7366141 0.8988549
vt 0.7239599 0.8993826
vt 0.3525412 0.556112
vt 0.3284122 0.556112
vt 0.3282861 0.5761294
vt 0.3525412 0.5761294
vt 0.6192406 0.9284923
vt 0.6221878 0.9198082
vt 0.6195827 0.9184577
vt 0.6166466 0.9313977
vt 0.6207367 0.940187
vt 0.6195831 0.9449398
vt 0.8760074 0.9411534
vt 0.8771629 0.936401
vt 0.8730713 0.9276103
vt 0.8756641 0.924706
vt 0.876008 0.9146713
vt 0.8786126 0.9160228
vt 0.2902105 0.9280808
vt 0.2931714 0.9192893
vt 0.2905663 0.9179387
vt 0.2876363 0.9310055
vt 0.2916987 0.939617
vt 0.2905668 0.9444208
vt 0.01643784 0.6208779
vt 0.1199471 0.6270024
vt 0.117542 0.619458
vt 0.02091297 0.6300275
vt 0.03008648 0.6341813
vt 0.02003865 0.6424874
vt 0.03564253 0.6412897
vt 0.1170266 0.6469665
vt 0.124542 0.6416259
vt 0.01628859 0.6545845
vt 0.1196254 0.6598984
vt 0.0356228 0.6636579
vt 0.02086866 0.6691817
vt 0.02796211 0.6692412
vt 0.03564407 0.6747851
vt 0.01640942 0.6839809
vt 0.1199255 0.6780853
vt 0.1174898 0.685631
vt 0.9215654 0.9266331
vt 0.9226425 0.9143146
vt 0.9155947 0.9042191
vt 0.9136379 0.9360537
vt 0.9039748 0.8999904
vt 0.8991433 0.9373484
vt 0.8923551 0.9042191
vt 0.886363 0.9265817
vt 0.8853071 0.9143146
vn 0 -1 -3.051944E-05
vn 0 -1 0
vn 0 -1 0
vn 0 1 0
vn 0 1 0
vn 0 1 0
vn 0 1 0
vn 0 1 0
vn 0 1 0
vn 0 1 0
vn 0 -1 0
vn 0 -1 0
vn 0 -1 0
vn 0 -1 0
vn 0 -1 0
vn 0 -1 0
vn 0 -1 0
vn 0 -1 0
vn 0 -1 0
vn 0.6588604 -0.5749005 0.4851725
vn 0.6532313 0.1595845 -0.7401497
vn 0.7547591 -0.09256335 -0.6494388
vn -0.00903367 0.2768698 0.960865
vn -0.7090195 -0.5527617 0.4378879
vn -0.9229187 0.07239056 -0.3781278
vn -0.4267825 -0.3306161 -0.841754
vn 0.7547591 -0.09256335 -0.6494388
vn 0.6532313 0.1595845 -0.7401497
vn -0.6972076 0.1314455 0.7047153
vn 0.6670882 0.1455154 0.730629
vn -0.3007067 0.02240117 0.9534535
vn 0.2957576 0.02392673 0.9549633
vn 0.6670882 0.1455154 0.730629
vn 0.6948966 0.1754867 -0.6973687
vn 0.9514738 0.0430324 0.304706
vn 0.9567771 0.02633808 -0.2896273
vn -0.7573361 0.1398088 -0.6378837
vn -0.6972076 0.1314455 0.7047153
vn -0.9521942 0.03137358 -0.3038781
vn -0.9523498 0.04712156 0.301346
vn -0.09744573 0.1629385 0.9818123
vn 0.2847701 -0.05020327 0.9572803
vn 0.5984236 -0.05951275 0.7989664
vn 0.2957576 0.02392673 0.9549633
vn -0.3007067 0.02240117 0.9534535
vn -0.50146 0.3184977 0.8044235
vn 0.05404956 0.7160727 0.6959299
vn -0.8132163 0.224988 0.5367119
vn -0.3077579 0.1262589 0.9430502
vn -0.9523498 0.04712156 0.301346
vn -0.9924268 -0.02914594 -0.1193305
vn -0.9521942 0.03137358 -0.3038781
vn -0.9378864 -0.03589061 -0.3450809
vn -0.8109214 -0.003967475 -0.5851416
vn 0.6670882 0.1455154 0.730629
vn 0.7188905 -0.03521968 0.6942306
vn 0.9514738 0.0430324 0.304706
vn -0.6972076 0.1314455 0.7047153
vn -0.6563152 -0.04782357 0.7529696
vn -0.7573361 0.1398088 -0.6378837
vn -0.7576867 -0.02908428 -0.6519701
vn -0.3193274 0.05652244 -0.9459574
vn -0.3913461 0.03271645 -0.9196618
vn -0.9816164 0.02258413 0.1895236
vn 0.1155158 -0.02987847 -0.9928561
vn 0.9977858 -0.001068162 0.06650074
vn 0.9356624 -0.0009155807 0.3528953
vn 0.9567771 0.02633808 -0.2896273
vn 0.9179149 0.0220346 0.396165
vn 0.5984236 -0.05951275 0.7989664
vn 0.9196857 0.03280777 -0.3912822
vn -0.1898882 0.02255342 -0.9815466
vn 0.5851762 -0.003967503 -0.8108966
vn 0.6948966 0.1754867 -0.6973687
vn 0.6458501 -0.07272757 -0.7599924
vn 0.2623407 0.03424224 -0.9643676
vn 0.1155158 -0.02987847 -0.9928561
vn 0.3440999 -0.03524926 -0.9382711
vn 0.2623407 0.03424224 -0.9643676
vn -0.3193274 0.05652244 -0.9459574
vn 0.4995969 -0.1785059 -0.8476666
vn -0.3792641 -0.002197394 -0.9252859
vn 0.3250582 -0.007690797 -0.9456627
vn 0.6872871 -0.1107228 -0.7178977
vn 0.5786533 -0.009644222 -0.8155167
vn 0.5889053 -0.1886413 -0.7858784
vn 0.9085928 -0.1258315 -0.3982781
vn 0.7224119 -0.008972544 -0.6914048
vn 0.2398783 -0.007416084 -0.9707746
vn 0.9966968 0.0004272692 0.08121166
vn 0.9937963 -0.006439548 0.1110288
vn 0.8363534 0.001129218 0.5481894
vn 0.7751386 -0.2205351 0.5920511
vn 0.7145106 -0.1651993 0.679841
vn 0.4697541 -0.2034726 0.8590286
vn 0.6659275 -0.00317399 0.7460098
vn -0.2856889 0.09192339 0.9539036
vn 0.9548544 0.000152596 0.2970739
vn 0.5942623 -0.0825839 -0.8000202
vn 0.06067207 -0.09058084 -0.9940393
vn 0.5446762 -0.2026475 -0.8137946
vn 0.8579731 -0.4090876 0.3106917
vn 0.9662167 -0.08810978 -0.2422027
vn 0.9232813 0.003570684 0.3841079
vn 0.8279654 -0.1776544 -0.531895
vn 0.7933492 -0.08511834 0.6027867
vn -0.3106836 -0.4090769 0.8579811
vn 0.2422027 -0.08810978 0.9662167
vn -0.1932782 -0.187327 0.9630951
vn 0.531895 -0.1776544 0.8279654
vn -0.6028062 -0.08511677 0.7933347
vn 0.531895 -0.1776544 0.8279654
vn -0.1932782 -0.187327 0.9630951
vn -0.7021509 -0.1059315 0.7041041
vn -0.858049 -0.3111744 0.4085613
vn -0.8711061 -0.3332989 -0.3606745
vn -0.9844248 -0.1521683 0.08804767
vn -0.9940393 -0.09058084 -0.06067207
vn -0.8000202 -0.0825839 -0.5942623
vn -0.7041019 -0.1059617 -0.7021486
vn -0.4085613 -0.3111744 -0.858049
vn 0.5446762 -0.2026475 -0.8137946
vn -0.08804767 -0.1521683 -0.9844248
vn 0.06067207 -0.09058084 -0.9940393
vn -0.3799336 -0.8161751 -0.4353259
vn -0.3925364 -0.8900889 -0.2316398
vn -0.07071377 -0.9857506 0.1526282
vn 0.3091281 -0.9296426 -0.2005106
vn 0.4277614 -0.8240268 -0.3714834
vn 0.2753749 -0.8787398 -0.3898525
vn 0 -1 -0.000274675
vn 0 -1 -3.051944E-05
vn 0 -1 0
vn 0 -1 0
vn 0 -1 0
vn -0.3193274 0.05652244 -0.9459574
vn 0.2623407 0.03424224 -0.9643676
vn 0.6948966 0.1754867 -0.6973687
vn -0.7573361 0.1398088 -0.6378837
vn -0.3047077 -0.8880289 0.3443222
vn -0.3315023 -0.8263448 0.4552588
vn -0.4571233 -0.7541405 0.471498
vn 0.09998048 -0.9940062 0.04422213
vn 0.413048 -0.8657405 0.2826391
vn 0.43823 -0.7803845 0.446043
vn 0.4277614 -0.8240268 -0.3714834
vn 0.2753749 -0.8787398 -0.3898525
vn 0.03604327 -0.9943792 -0.0995539
vn 0.3169745 -0.8990099 0.3021726
vn 0.43823 -0.7803845 0.446043
vn 0.413048 -0.8657405 0.2826391
vn -0.2112858 -0.9247987 -0.3163946
vn -0.3925364 -0.8900889 -0.2316398
vn -0.3799336 -0.8161751 -0.4353259
vn 0.1181684 -0.9903625 0.07223777
vn -0.3315023 -0.8263448 0.4552588
vn -0.4571233 -0.7541405 0.471498
vn -0.3792641 -0.002197394 -0.9252859
vn -0.1602528 -0.005432299 -0.987061
vn 0.3250582 -0.007690797 -0.9456627
vn -0.6619037 -0.1448754 -0.7354554
vn -0.6358947 -0.1615678 -0.7546747
vn -0.8406298 -0.1582437 -0.5179774
vn -0.7127179 -0.1002255 -0.6942536
vn -0.9475849 -0.008850514 -0.3193815
vn -0.8184308 -0.009766113 -0.5745221
vn -0.9539036 0.09192339 0.2856889
vn -0.9937963 -0.006439548 0.1110288
vn -0.9287637 0.1031248 0.3560383
vn -0.6712182 0.3145353 0.6712182
vn -0.5685207 0.5946455 0.5684901
vn -0.3560383 0.1031248 0.9287637
vn -0.2856889 0.09192339 0.9539036
vn -0.1110288 -0.006439548 0.9937963
vn 0.6659275 -0.00317399 0.7460098
vn 0 -1 0
vn 0 -1 0
vn 0 -1 0
vn 0 -1 0
vn 0 -1 0
vn 0 -1 0
vn 0 -1 0
vn 0 -1 0
vn 0 -1 0
g basicbarrelendvector_LOD3_0
f 3/3/3 2/2/2 1/1/1
f 6/6/6 5/5/5 4/4/4
f 4/4/4 7/7/7 6/6/6
f 7/7/7 8/8/8 6/6/6
f 7/7/7 9/9/9 8/8/8
f 9/9/9 10/10/10 8/8/8
f 13/13/13 12/12/12 11/11/11
f 14/14/14 11/11/11 12/12/12
f 15/15/15 14/14/14 12/12/12
f 15/15/15 16/16/16 14/14/14
f 14/14/14 16/16/16 17/17/17
f 16/16/16 18/18/18 17/17/17
f 18/18/18 19/19/19 17/17/17
f 22/22/22 21/21/21 20/20/20
f 23/23/23 22/22/22 20/20/20
f 23/23/23 20/20/20 24/24/24
f 25/25/25 23/23/23 24/24/24
f 25/25/25 24/24/24 26/26/26
f 27/27/27 25/25/25 26/26/26
f 27/27/27 26/26/26 28/28/28
f 31/31/31 30/30/30 29/29/29
f 31/31/31 32/32/32 30/30/30
f 35/35/35 34/34/34 33/33/33
f 35/35/35 36/36/36 34/34/34
f 39/39/39 38/38/38 37/37/37
f 39/39/39 40/40/40 38/38/38
f 43/43/43 42/42/42 41/41/41
f 42/42/42 44/44/44 41/41/41
f 45/45/45 41/41/41 44/44/44
f 45/45/45 46/46/46 41/41/41
f 46/46/46 47/47/47 41/41/41
f 47/47/47 46/46/46 48/48/48
f 46/46/46 49/49/49 48/48/48
f 49/49/49 50/50/50 48/48/48
f 51/51/51 48/48/48 50/50/50
f 52/52/52 51/51/51 50/50/50
f 52/52/52 53/53/53 51/51/51
f 53/53/53 54/54/54 51/51/51
f 44/44/44 56/56/56 55/55/55
f 56/56/56 57/57/57 55/55/55
f 59/59/59 45/45/45 58/58/58
f 50/50/50 59/59/59 58/58/58
f 61/61/61 52/52/52 60/60/60
f 62/62/62 61/61/61 60/60/60
f 64/64/64 63/63/63 54/54/54
f 64/64/64 62/62/62 63/63/63
f 65/65/65 63/63/63 62/62/62
f 57/57/57 67/67/67 66/66/66
f 57/57/57 66/66/66 68/68/68
f 67/67/67 69/69/69 66/66/66
f 69/69/69 67/67/67 70/70/70
f 66/66/66 71/71/71 68/68/68
f 72/72/72 68/68/68 71/71/71
f 72/72/72 71/71/71 73/73/73
f 68/68/68 75/75/75 74/74/74
f 75/75/75 76/76/76 74/74/74
f 78/78/78 73/73/73 77/77/77
f 79/79/79 78/78/78 77/77/77
f 79/79/79 77/77/77 80/80/80
f 83/83/83 82/82/82 81/81/81
f 81/81/81 84/84/84 83/83/83
f 84/84/84 85/85/85 83/83/83
f 84/84/84 81/81/81 86/86/86
f 81/81/81 87/87/87 86/86/86
f 86/86/86 87/87/87 88/88/88
f 89/89/89 86/86/86 88/88/88
f 90/90/90 88/88/88 87/87/87
f 91/91/91 88/88/88 90/90/90
f 91/91/91 90/90/90 92/92/92
f 92/92/92 90/90/90 93/93/93
f 94/94/94 92/92/92 93/93/93
f 94/94/94 93/93/93 95/95/95
f 94/94/94 95/95/95 96/96/96
f 97/97/97 96/96/96 95/95/95
f 98/98/98 94/94/94 96/96/96
f 101/101/101 100/100/100 99/99/99
f 102/102/102 101/101/101 99/99/99
f 101/101/101 102/102/102 103/103/103
f 104/104/104 101/101/101 103/103/103
f 104/104/104 103/103/103 105/105/105
f 104/104/104 105/105/105 106/106/106
f 107/107/107 104/104/104 106/106/106
f 104/104/104 107/107/107 108/108/108
f 109/109/109 104/104/104 108/108/108
f 109/109/109 108/108/108 110/110/110
f 113/113/113 112/112/112 111/111/111
f 114/114/114 113/113/113 111/111/111
f 113/113/113 114/114/114 115/115/115
f 116/116/116 113/113/113 115/115/115
f 117/117/117 116/116/116 115/115/115
f 118/118/118 116/116/116 117/117/117
f 116/116/116 118/118/118 119/119/119
f 120/120/120 116/116/116 119/119/119
f 116/116/116 120/120/120 121/121/121
f 122/122/122 116/116/116 121/121/121
f 123/123/123 122/122/122 121/121/121
f 124/124/124 122/122/122 123/123/123
f 127/127/127 126/126/126 125/125/125
f 128/128/128 126/126/126 127/127/127
f 127/127/127 129/129/129 128/128/128
f 129/129/129 130/130/130 128/128/128
f 133/133/133 132/132/132 131/131/131
f 131/131/131 134/134/134 133/133/133
f 134/134/134 135/135/135 133/133/133
f 138/138/138 137/137/137 136/136/136
f 139/139/139 138/138/138 136/136/136
f 142/142/142 141/141/141 140/140/140
f 143/143/143 142/142/142 140/140/140
f 140/140/140 144/144/144 143/143/143
f 143/143/143 144/144/144 145/145/145
f 148/148/148 147/147/147 146/146/146
f 149/149/149 147/147/147 148/148/148
f 148/148/148 150/150/150 149/149/149
f 150/150/150 151/151/151 149/149/149
f 154/154/154 153/153/153 152/152/152
f 155/155/155 154/154/154 152/152/152
f 152/152/152 156/156/156 155/155/155
f 155/155/155 156/156/156 157/157/157
f 160/160/160 159/159/159 158/158/158
f 161/161/161 158/158/158 159/159/159
f 162/162/162 161/161/161 159/159/159
f 163/163/163 161/161/161 162/162/162
f 164/164/164 163/163/163 162/162/162
f 163/163/163 164/164/164 165/165/165
f 164/164/164 166/166/166 165/165/165
f 165/165/165 167/167/167 163/163/163
f 165/165/165 168/168/168 167/167/167
f 167/167/167 168/168/168 169/169/169
f 167/167/167 169/169/169 170/170/170
f 169/169/169 171/171/171 170/170/170
f 171/171/171 172/172/172 170/170/170
f 172/172/172 173/173/173 170/170/170
f 174/174/174 173/173/173 172/172/172
f 174/174/174 175/175/175 173/173/173
f 178/178/178 177/177/177 176/176/176
f 176/176/176 179/179/179 178/178/178
f 179/179/179 180/180/180 178/178/178
f 179/179/179 181/181/181 180/180/180
f 181/181/181 182/182/182 180/180/180
f 181/181/181 183/183/183 182/182/182
f 183/183/183 184/184/184 182/182/182
