g Body
v 0.552851 0.56009 -1.530123
v 0.552851 -0.478839 -1.530123
v 0.547837 -0.478839 -1.571899
v 0.547837 -0.478839 -1.571899
v 0.564744 -0.413957 -1.592922
v 0.564744 -0.413957 -1.592922
v 0.564744 0.495208 -1.592922
v 0.547837 0.56009 -1.571899
v -0.927703 -0.303511 0.429884
v -0.927703 1 0.429884
v -1 0.804579 0.678889
v -1 0.217278 0.657523
v 0.756956 1 0.429884
v 0.974577 1 0.429884
v 1 0.804579 0.678889
v 0.7712 0.804579 0.678889
v 0.974577 1 0.429884
v 0.974577 -0.303511 0.429884
v 1 0.217278 0.657523
v 1 0.804579 0.678889
v 0.539335 -0.303511 0.429884
v -0.927703 -0.303511 0.429884
v -1 0.217278 0.657523
v 0.5424 0.217278 0.657523
v 0.721231 1 -1
v 0.721231 -1 -1
v 0.910814 -1 -1
v 0.910814 1 -1
v 0.5424 0.804579 0.678889
v 0.5424 0.217278 0.657523
v -1 0.217278 0.657523
v -1 0.804579 0.678889
v -0.338137 -1.421004 -0.717463
v -0.328076 -0.96726 -0.830185
v -0.328076 -0.96726 -0.2535
v -0.338137 -1.421004 -0.366222
v -0.328076 -0.96726 -0.830185
v 0.390347 -0.96726 -0.830185
v 0.390347 -0.96726 -0.2535
v -0.328076 -0.96726 -0.2535
v 0.390347 -0.96726 -0.830185
v 0.312328 -1.421004 -0.717463
v 0.312328 -1.421004 -0.366222
v 0.390347 -0.96726 -0.2535
v 0.312328 -1.421004 -0.717463
v -0.338137 -1.421004 -0.717463
v -0.338137 -1.421004 -0.366222
v 0.312328 -1.421004 -0.366222
v -0.328076 -0.96726 -0.830185
v -0.338137 -1.421004 -0.717463
v 0.312328 -1.421004 -0.717463
v 0.390347 -0.96726 -0.830185
v 0.390347 -0.96726 -0.2535
v 0.312328 -1.421004 -0.366222
v -0.338137 -1.421004 -0.366222
v -0.328076 -0.96726 -0.2535
v -0.741304 -0.146222 -1.197068
v -0.73705 0.241692 -1.196135
v -0.706781 0.222402 -0.973143
v -0.710756 -0.140072 -0.974015
v -0.73705 0.241692 -1.196135
v -0.624526 0.227855 -1.226567
v -0.601636 0.209473 -1.001579
v -0.706781 0.222402 -0.973143
v -0.624526 0.227855 -1.226567
v -0.62878 -0.160058 -1.2275
v -0.605611 -0.153001 -1.002451
v -0.601636 0.209473 -1.001579
v -0.62878 -0.160058 -1.2275
v -0.741304 -0.146222 -1.197068
v -0.710756 -0.140072 -0.974015
v -0.605611 -0.153001 -1.002451
v -0.73705 0.241692 -1.196135
v -0.831359 0.579245 -1.19969
v -0.530203 0.542213 -1.281137
v -0.624526 0.227855 -1.226567
v -0.601636 0.209473 -1.001579
v -0.605611 -0.153001 -1.002451
v -0.710756 -0.140072 -0.974015
v -0.706781 0.222402 -0.973143
v -0.54159 -0.495982 -1.283633
v -0.546573 -0.494841 -1.325414
v -0.847728 -0.457809 -1.243967
v -0.842745 -0.45895 -1.202186
v -0.741304 -0.146222 -1.197068
v -0.842745 -0.45895 -1.202186
v -0.831359 0.579245 -1.19969
v -0.73705 0.241692 -1.196135
v -0.624526 0.227855 -1.226567
v -0.530203 0.542213 -1.281137
v -0.54159 -0.495982 -1.283633
v -0.62878 -0.160058 -1.2275
v -0.62878 -0.160058 -1.2275
v -0.54159 -0.495982 -1.283633
v -0.842745 -0.45895 -1.202186
v -0.741304 -0.146222 -1.197068
v -0.535187 0.543353 -1.322918
v -0.556603 0.481264 -1.333904
v -0.566568 -0.427258 -1.336088
v -0.546573 -0.494841 -1.325414
v -0.831359 0.579245 -1.19969
v -0.836342 0.580385 -1.241471
v -0.535187 0.543353 -1.322918
v -0.530203 0.542213 -1.281137
v -0.530203 0.542213 -1.281137
v -0.535187 0.543353 -1.322918
v -0.546573 -0.494841 -1.325414
v -0.54159 -0.495982 -1.283633
v -0.842745 -0.45895 -1.202186
v -0.847728 -0.457809 -1.243967
v -0.836342 0.580385 -1.241471
v -0.831359 0.579245 -1.19969
v -0.820144 0.513671 -1.26263
v -0.830108 -0.394851 -1.264814
v -0.566568 -0.427258 -1.336088
v -0.556603 0.481264 -1.333904
v -0.847728 -0.457809 -1.243967
v -0.830108 -0.394851 -1.264814
v -0.820144 0.513671 -1.26263
v -0.836342 0.580385 -1.241471
v -0.546573 -0.494841 -1.325414
v -0.566568 -0.427258 -1.336088
v -0.830108 -0.394851 -1.264814
v -0.847728 -0.457809 -1.243967
v -0.836342 0.580385 -1.241471
v -0.820144 0.513671 -1.26263
v -0.556603 0.481264 -1.333904
v -0.535187 0.543353 -1.322918
v 0.650796 -0.153468 -1.525903
v 0.650796 0.234719 -1.525903
v 0.655772 0.22199 -0.968786
v 0.655772 -0.14074 -0.968786
v 0.650796 0.234719 -1.525903
v 0.763379 0.234719 -1.556469
v 0.762671 0.22199 -0.968786
v 0.655772 0.22199 -0.968786
v 0.763379 0.234719 -1.556469
v 0.763379 -0.153468 -1.556469
v 0.762671 -0.14074 -0.968786
v 0.762671 0.22199 -0.968786
v 0.763379 -0.153468 -1.556469
v 0.650796 -0.153468 -1.525903
v 0.655772 -0.14074 -0.968786
v 0.762671 -0.14074 -0.968786
v 0.650796 0.234719 -1.525903
v 0.552851 0.56009 -1.530123
v 0.854161 0.56009 -1.611928
v 0.763379 0.234719 -1.556469
v 0.762671 0.22199 -0.968786
v 0.762671 -0.14074 -0.968786
v 0.655772 -0.14074 -0.968786
v 0.655772 0.22199 -0.968786
v 0.854161 -0.478839 -1.611928
v 0.849147 -0.478839 -1.653704
v 0.547837 -0.478839 -1.571899
v 0.552851 -0.478839 -1.530123
v 0.650796 -0.153468 -1.525903
v 0.552851 -0.478839 -1.530123
v 0.552851 0.56009 -1.530123
v 0.650796 0.234719 -1.525903
v 0.763379 0.234719 -1.556469
v 0.854161 0.56009 -1.611928
v 0.854161 -0.478839 -1.611928
v 0.763379 -0.153468 -1.556469
v 0.763379 -0.153468 -1.556469
v 0.854161 -0.478839 -1.611928
v 0.552851 -0.478839 -1.530123
v 0.650796 -0.153468 -1.525903
v 0.849147 0.56009 -1.653704
v 0.82842 0.495208 -1.66451
v 0.82842 -0.413957 -1.66451
v 0.849147 -0.478839 -1.653704
v 0.552851 0.56009 -1.530123
v 0.547837 0.56009 -1.571899
v 0.849147 0.56009 -1.653704
v 0.854161 0.56009 -1.611928
v 0.854161 0.56009 -1.611928
v 0.849147 0.56009 -1.653704
v 0.849147 -0.478839 -1.653704
v 0.854161 -0.478839 -1.611928
v 0.564744 0.495208 -1.592922
v 0.564744 -0.413957 -1.592922
v 0.82842 -0.413957 -1.66451
v 0.82842 0.495208 -1.66451
v 0.849147 -0.478839 -1.653704
v 0.82842 -0.413957 -1.66451
v 0.564744 -0.413957 -1.592922
v 0.547837 -0.478839 -1.571899
v 0.547837 0.56009 -1.571899
v 0.564744 0.495208 -1.592922
v 0.82842 0.495208 -1.66451
v 0.849147 0.56009 -1.653704
v 0.531648 -1 -1
v -0.746378 -1 -1
v -0.920133 -1 0.099122
v 0.539014 -1 0.379119
v 0.910814 1 -1
v 0.910814 -1 -1
v 0.971915 -1 0.282286
v 0.971915 1 0.370191
v 0.721231 1 -1
v 0.910814 1 -1
v 0.971915 1 0.370191
v 0.755464 1 0.370191
v -0.746378 -1 -1
v -0.746378 1 -1
v -0.920133 1 0.370191
v -0.920133 -1 0.099122
v 0.539014 -1 0.379119
v -0.920133 -1 0.099122
v -0.927703 -0.303511 0.429884
v 0.539335 -0.303511 0.429884
v 0.971915 1 0.370191
v 0.971915 -1 0.282286
v 0.974577 -0.303511 0.429884
v 0.974577 1 0.429884
v 0.755464 1 0.370191
v 0.971915 1 0.370191
v 0.974577 1 0.429884
v 0.756956 1 0.429884
v -0.920133 -1 0.099122
v -0.920133 1 0.370191
v -0.927703 1 0.429884
v -0.927703 -0.303511 0.429884
v -0.920133 1 0.370191
v 0.539014 1 0.370191
v 0.539335 1 0.429884
v -0.927703 1 0.429884
v 0.755464 -1 0.345771
v 0.539014 -1 0.379119
v 0.539335 -0.303511 0.429884
v 0.756956 -0.303511 0.429884
v -0.746378 1 -1
v 0.531648 1 -1
v 0.539014 1 0.370191
v -0.920133 1 0.370191
v 0.721231 -1 -1
v 0.531648 -1 -1
v 0.539014 -1 0.379119
v 0.755464 -1 0.345771
v 0.7712 0.804579 0.678889
v 0.7712 0.217278 0.657523
v 0.5424 0.217278 0.657523
v 0.5424 0.804579 0.678889
v -0.746378 1 -1
v -0.746378 -1 -1
v 0.531648 -1 -1
v 0.531648 1 -1
v 0.756956 -0.303511 0.429884
v 0.539335 -0.303511 0.429884
v 0.5424 0.217278 0.657523
v 0.7712 0.217278 0.657523
v -0.927703 1 0.429884
v 0.539335 1 0.429884
v 0.5424 0.804579 0.678889
v -1 0.804579 0.678889
v 0.974577 -0.303511 0.429884
v 0.756956 -0.303511 0.429884
v 0.7712 0.217278 0.657523
v 1 0.217278 0.657523
v 1 0.804579 0.678889
v 1 0.217278 0.657523
v 0.7712 0.217278 0.657523
v 0.7712 0.804579 0.678889
v 0.910814 -1 -1
v 0.721231 -1 -1
v 0.755464 -1 0.345771
v 0.971915 -1 0.282286
v 0.971915 -1 0.282286
v 0.755464 -1 0.345771
v 0.756956 -0.303511 0.429884
v 0.974577 -0.303511 0.429884
v 0.539014 1 0.370191
v 0.755464 1 0.370191
v 0.756956 1 0.429884
v 0.539335 1 0.429884
v 0.531648 1 -1
v 0.721231 1 -1
v 0.755464 1 0.370191
v 0.539014 1 0.370191
v 0.531648 1 -1
v 0.531648 -1 -1
v 0.721231 -1 -1
v 0.721231 1 -1
v 0.539335 1 0.429884
v 0.756956 1 0.429884
v 0.7712 0.804579 0.678889
v 0.5424 0.804579 0.678889
vt 0.933013 0.75
vt 0.5 1
vt 0.066987 0.75
vt 0.066987 0.75
vt 0.066987 0.25
vt 0.066987 0.25
vt 0.5 0
vt 0.933013 0.25
vt 0 0
vt 0 1
vt 1 1
vt 1 0
vt 0 0
vt 0 1
vt 1 1
vt 1 0
vt 0 0
vt 0 1
vt 1 1
vt 1 0
vt 0 0
vt 0 1
vt 1 1
vt 1 0
vt 0 0
vt 0 1
vt 1 1
vt 1 0
vt 0 0
vt 0 1
vt 1 1
vt 1 0
vt 0 0
vt 0 1
vt 1 1
vt 1 0
vt 0 0
vt 0 1
vt 1 1
vt 1 0
vt 0 0
vt 0 1
vt 1 1
vt 1 0
vt 0 0
vt 0 1
vt 1 1
vt 1 0
vt 0 0
vt 0 1
vt 1 1
vt 1 0
vt 0 0
vt 0 1
vt 1 1
vt 1 0
vt 0 0
vt 0 1
vt 1 1
vt 1 0
vt 0 0
vt 0 1
vt 1 1
vt 1 0
vt 0 0
vt 0 1
vt 1 1
vt 1 0
vt 0 0
vt 0 1
vt 1 1
vt 1 0
vt 0 0
vt 0 1
vt 1 1
vt 1 0
vt 0 0
vt 0 1
vt 1 1
vt 1 0
vt 0 0
vt 0 1
vt 1 1
vt 1 0
vt 0 0
vt 0 1
vt 1 1
vt 1 0
vt 0 0
vt 0 1
vt 1 1
vt 1 0
vt 0 0
vt 0 1
vt 1 1
vt 1 0
vt 0 0
vt 0 1
vt 1 1
vt 1 0
vt 0 0
vt 0 1
vt 1 1
vt 1 0
vt 0 0
vt 0 1
vt 1 1
vt 1 0
vt 0 0
vt 0 1
vt 1 1
vt 1 0
vt 0 0
vt 0 1
vt 1 1
vt 1 0
vt 0 0
vt 0 1
vt 1 1
vt 1 0
vt 0 0
vt 0 1
vt 1 1
vt 1 0
vt 0 0
vt 0 1
vt 1 1
vt 1 0
vt 0 0
vt 0 1
vt 1 1
vt 1 0
vt 0 0
vt 0 1
vt 1 1
vt 1 0
vt 0 0
vt 0 1
vt 1 1
vt 1 0
vt 0 0
vt 0 1
vt 1 1
vt 1 0
vt 0 0
vt 0 1
vt 1 1
vt 1 0
vt 0 0
vt 0 1
vt 1 1
vt 1 0
vt 0 0
vt 0 1
vt 1 1
vt 1 0
vt 0 0
vt 0 1
vt 1 1
vt 1 0
vt 0 0
vt 0 1
vt 1 1
vt 1 0
vt 0 0
vt 0 1
vt 1 1
vt 1 0
vt 0 0
vt 0 1
vt 1 1
vt 1 0
vt 0 0
vt 0 1
vt 1 1
vt 1 0
vt 0 0
vt 0 1
vt 1 1
vt 1 0
vt 0 0
vt 0 1
vt 1 1
vt 1 0
vt 0 0
vt 0 1
vt 1 1
vt 1 0
vt 0 0
vt 0 1
vt 1 1
vt 1 0
vt 0 0
vt 0 1
vt 1 1
vt 1 0
vt 0 0
vt 0 1
vt 1 1
vt 1 0
vt 0 0
vt 0 1
vt 1 1
vt 1 0
vt 0 0
vt 0 1
vt 1 1
vt 1 0
vt 0 0
vt 0 1
vt 1 1
vt 1 0
vt 0 0
vt 0 1
vt 1 1
vt 1 0
vt 0 0
vt 0 1
vt 1 1
vt 1 0
vt 0 0
vt 0 1
vt 1 1
vt 1 0
vt 0 0
vt 0 1
vt 1 1
vt 1 0
vt 0 0
vt 0 1
vt 1 1
vt 1 0
vt 0 0
vt 0 1
vt 1 1
vt 1 0
vt 0 0
vt 0 1
vt 1 1
vt 1 0
vt 0 0
vt 0 1
vt 1 1
vt 1 0
vt 0 0
vt 0 1
vt 1 1
vt 1 0
vt 0 0
vt 0 1
vt 1 1
vt 1 0
vt 0 0
vt 0 1
vt 1 1
vt 1 0
vt 0 0
vt 0 1
vt 1 1
vt 1 0
vt 0 0
vt 0 1
vt 1 1
vt 1 0
vt 0 0
vt 0 1
vt 1 1
vt 1 0
vt 0 0
vt 0 1
vt 1 1
vt 1 0
vt 0 0
vt 0 1
vt 1 1
vt 1 0
vt 0 0
vt 0 1
vt 1 1
vt 1 0
vt 0 0
vt 0 1
vt 1 1
vt 1 0
vt 0 0
vt 0 1
vt 1 1
vt 1 0
vn -0.9879444 -0.06804622 -0.1390525
vn -0.9928744 0 0.1191657
vn -0.9697196 0.01448299 -0.243791
vn -0.8261783 -0.08415419 -0.5570884
vn -0.6552524 -0.05949444 -0.7530635
vn -0.9211141 0.01383605 -0.3890469
vn -0.9886507 -0.1456749 -0.03672532
vn -0.9516963 -0.2850038 0.1142235
vn -0.9854016 0.003541427 -0.1702092
vn -0.9854016 0.003541427 -0.1702092
vn -0.9563032 0.003303615 -0.2923578
vn -0.9563032 0.003303615 -0.2923578
vn 0 0.9451626 0.3266001
vn 0 0.9451626 0.3266001
vn 0 0.4209678 0.9070756
vn 0 0.4209678 0.9070756
vn 0.9977125 0.0009797949 -0.06759384
vn 0.9977125 0.0009797949 -0.06759384
vn 0.9942703 0.001207828 -0.1068882
vn 0.9942703 0.001207828 -0.1068882
vn -0.00395032 -0.2931623 0.9560546
vn -0.04611116 -0.3332192 0.9417211
vn 0 -0.2223469 0.9749675
vn 0 -0.2223469 0.9749675
vn 0 0 -1
vn 0 0 -1
vn 0 0 -1
vn 0 0 -1
vn 0 0.4209678 0.9070756
vn 0 -0.2223469 0.9749675
vn 0 -0.2223469 0.9749675
vn 0 0.4209678 0.9070756
vn -0.9997543 0.02216784 0
vn -0.9997543 0.02216784 0
vn -0.9997543 0.02216784 0
vn -0.9997543 0.02216784 0
vn 0 1 0
vn 0 1 0
vn 0 1 0
vn 0 1 0
vn 0.9855374 -0.1694582 0
vn 0.9855374 -0.1694582 0
vn 0.9855374 -0.1694582 0
vn 0.9855374 -0.1694582 0
vn 0 -1 0
vn 0 -1 0
vn 0 -1 0
vn 0 -1 0
vn 0 -0.2410979 -0.9705008
vn 0 -0.2410979 -0.9705008
vn 0 -0.2410979 -0.9705008
vn 0 -0.2410979 -0.9705008
vn 0 -0.2410979 0.9705008
vn 0 -0.2410979 0.9705008
vn 0 -0.2410979 0.9705008
vn 0 -0.2410979 0.9705008
vn -0.9907357 0.010539 0.1353944
vn -0.9907357 0.010539 0.1353944
vn -0.9907357 0.010539 0.1353944
vn -0.9907357 0.010539 0.1353944
vn 0.1394826 0.987987 0.06653128
vn 0.1394826 0.987987 0.06653128
vn 0.1394826 0.987987 0.06653128
vn 0.1394826 0.987987 0.06653128
vn 0.9947197 -0.01066295 -0.1020729
vn 0.9947197 -0.01066295 -0.1020729
vn 0.9947197 -0.01066295 -0.1020729
vn 0.9947197 -0.01066295 -0.1020729
vn -0.1105954 -0.9929554 0.04252339
vn -0.1105954 -0.9929554 0.04252339
vn -0.1105954 -0.9929554 0.04252339
vn -0.1105954 -0.9929554 0.04252339
vn 0.1142503 0.04237292 0.9925479
vn 0.1142503 0.04237292 0.9925479
vn 0.3990754 0.0392811 0.9160763
vn 0.3990754 0.0392811 0.9160763
vn 0.2604698 -0.005178894 0.9654682
vn 0.2604698 -0.005178894 0.9654682
vn 0.2604698 -0.005178894 0.9654682
vn 0.2604698 -0.005178894 0.9654682
vn -0.1252749 -0.9920476 -0.01215092
vn -0.1252749 -0.9920476 -0.01215092
vn -0.1252749 -0.9920476 -0.01215092
vn -0.1252749 -0.9920476 -0.01215092
vn 0.1033887 -0.04979457 0.9933938
vn 0.1033887 -0.04979457 0.9933938
vn 0.1142503 0.04237292 0.9925479
vn 0.1142503 0.04237292 0.9925479
vn 0.3990754 0.0392811 0.9160763
vn 0.3990754 0.0392811 0.9160763
vn 0.3889623 -0.0527332 0.9197432
vn 0.3889623 -0.0527332 0.9197432
vn 0.3889623 -0.0527332 0.9197432
vn 0.3889623 -0.0527332 0.9197432
vn 0.1033887 -0.04979457 0.9933938
vn 0.1033887 -0.04979457 0.9933938
vn 0.5315188 0.09971639 -0.8411565
vn -0.007954517 0.08793344 -0.9960945
vn -0.02778602 -0.08156477 -0.9962806
vn 0.5159187 -0.106929 -0.8499378
vn 0.1252684 0.9920487 0.01212727
vn 0.1252684 0.9920487 0.01212727
vn 0.1252684 0.9920487 0.01212727
vn 0.1252684 0.9920487 0.01212727
vn 0.9928716 -0.01060399 -0.1187162
vn 0.822973 -0.00766053 -0.5680289
vn 0.822973 -0.00766053 -0.5680289
vn 0.9928716 -0.01060399 -0.1187162
vn -0.9928731 0.01060358 0.1187035
vn -0.9610585 0.01120388 -0.2761176
vn -0.9610585 0.01120388 -0.2761176
vn -0.9928731 0.01060358 0.1187035
vn -0.4441696 0.09127151 -0.8912816
vn -0.4617705 -0.07521949 -0.8838043
vn -0.02778602 -0.08156477 -0.9962806
vn -0.007954517 0.08793344 -0.9960945
vn -0.8155158 -0.08326361 -0.5727137
vn -0.4617705 -0.07521949 -0.8838043
vn -0.4441696 0.09127151 -0.8912816
vn -0.8040717 0.1067955 -0.5848618
vn 0.09925189 -0.126522 -0.986986
vn -0.02778602 -0.08156477 -0.9962806
vn -0.4617705 -0.07521949 -0.8838043
vn -0.5579072 -0.115965 -0.8217614
vn -0.5334037 0.1353068 -0.8349686
vn -0.4441696 0.09127151 -0.8912816
vn -0.007954517 0.08793344 -0.9960945
vn 0.1279959 0.129823 -0.9832411
vn -0.9999602 0 0.008931296
vn -0.9999602 0 0.008931296
vn -0.9999602 0 0.008931296
vn -0.9999602 0 0.008931296
vn 0.00309456 0.9997483 0.02222079
vn 0.00309456 0.9997483 0.02222079
vn 0.00309456 0.9997483 0.02222079
vn 0.00309456 0.9997483 0.02222079
vn 0.8718636 0 0.4897488
vn 0.8718636 0 0.4897488
vn 0.9999993 0 0.001204703
vn 0.9999993 0 0.001204703
vn 0.003094319 -0.9997483 0.02221905
vn 0.003094319 -0.9997483 0.02221905
vn 0.003094319 -0.9997483 0.02221905
vn 0.003094319 -0.9997483 0.02221905
vn 0.1103578 0.04609731 0.9928223
vn 0.1103578 0.04609731 0.9928223
vn 0.3954819 0.04601217 0.9173205
vn 0.3954819 0.04601217 0.9173205
vn 0 0 1
vn 0 0 1
vn 0 0 1
vn 0 0 1
vn 0 -1 0
vn 0 -1 0
vn 0 -1 0
vn 0 -1 0
vn 0.1103578 -0.04609731 0.9928223
vn 0.1103578 -0.04609731 0.9928223
vn 0.1103578 0.04609731 0.9928223
vn 0.1103578 0.04609731 0.9928223
vn 0.7000686 0.0357489 0.7131802
vn 0.3954819 0.04601217 0.9173205
vn 0.3954819 -0.04601217 0.9173205
vn 0.7000686 -0.0357489 0.7131802
vn 0.3954819 -0.04601217 0.9173205
vn 0.3954819 -0.04601217 0.9173205
vn 0.1103578 -0.04609731 0.9928223
vn 0.1103578 -0.04609731 0.9928223
vn 0.5227827 0.1033844 -0.8461737
vn -0.01937363 0.08480286 -0.9962094
vn -0.01937363 -0.08480286 -0.9962094
vn 0.5227827 -0.1033844 -0.8461737
vn 0 1 0
vn 0 1 0
vn 0 1 0
vn 0 1 0
vn 0.9928744 0 -0.1191657
vn 0.8225966 0 -0.5686254
vn 0.8225966 0 -0.5686254
vn 0.9928744 0 -0.1191657
vn -0.2601344 0.1195765 -0.9581396
vn -0.4730192 -0.07456636 -0.8778911
vn -0.01937363 -0.08480286 -0.9962094
vn -0.01937363 0.08480286 -0.9962094
vn 0.1122313 -0.1282558 -0.9853703
vn -0.01937363 -0.08480286 -0.9962094
vn -0.4730192 -0.07456636 -0.8778911
vn -0.5749276 -0.1127702 -0.8103957
vn -0.254521 0.237437 -0.9374661
vn -0.2601344 0.1195765 -0.9581396
vn -0.01937363 0.08480286 -0.9962094
vn 0.1122313 0.1282558 -0.9853703
vn 0 -1 0
vn 0 -1 0
vn 0 -1 0
vn 0 -1 0
vn 0.9989399 0.001011393 -0.04602208
vn 0.9989399 0.001011393 -0.04602208
vn 0.9993107 0.0008808504 -0.03710965
vn 0.9993107 0.0008808504 -0.03710965
vn 0 1 0
vn 0 1 0
vn 0 1 0
vn 0 1 0
vn -0.9901979 0.009443496 -0.139352
vn -0.9901979 0.009443496 -0.139352
vn -0.9956938 0.006590817 -0.09246787
vn -0.9956938 0.006590817 -0.09246787
vn -0.007876839 -0.1811445 0.983425
vn -0.09188563 -0.263491 0.9602758
vn -0.04611116 -0.3332192 0.9417211
vn -0.00395032 -0.2931623 0.9560546
vn 0.9993107 0.0008808504 -0.03710965
vn 0.9993107 0.0008808504 -0.03710965
vn 0.9977125 0.0009797949 -0.06759384
vn 0.9977125 0.0009797949 -0.06759384
vn 0 1 0
vn 0 1 0
vn 0 0.9451626 0.3266001
vn 0 0.9451626 0.3266001
vn -0.9956938 0.006590817 -0.09246787
vn -0.9956938 0.006590817 -0.09246787
vn -0.9854016 0.003541427 -0.1702092
vn -0.9854016 0.003541427 -0.1702092
vn 0 1 0
vn 0 1 0
vn 0 0.9451626 0.3266001
vn 0 0.9451626 0.3266001
vn 0.1096397 -0.1296554 0.9854789
vn -0.007876839 -0.1811445 0.983425
vn -0.00395032 -0.2931623 0.9560546
vn 0.05541674 -0.2682025 0.9617674
vn 0 1 0
vn 0 1 0
vn 0 1 0
vn 0 1 0
vn 0 -1 0
vn 0 -1 0
vn 0 -1 0
vn 0 -1 0
vn 0 0.4209678 0.9070756
vn 0 -0.2223469 0.9749675
vn 0 -0.2223469 0.9749675
vn 0 0.4209678 0.9070756
vn 0 0 -1
vn 0 0 -1
vn 0 0 -1
vn 0 0 -1
vn 0.05541674 -0.2682025 0.9617674
vn -0.00395032 -0.2931623 0.9560546
vn 0 -0.2223469 0.9749675
vn 0 -0.2223469 0.9749675
vn 0 0.9451626 0.3266001
vn 0 0.9451626 0.3266001
vn 0 0.4209678 0.9070756
vn 0 0.4209678 0.9070756
vn 0.0721212 -0.2845446 0.9559461
vn 0.05541674 -0.2682025 0.9617674
vn 0 -0.2223469 0.9749675
vn 0 -0.2223469 0.9749675
vn 0 0.4209678 0.9070756
vn 0 -0.2223469 0.9749675
vn 0 -0.2223469 0.9749675
vn 0 0.4209678 0.9070756
vn 0 -1 0
vn 0 -1 0
vn 0 -1 0
vn 0 -1 0
vn 0.1427839 -0.1628206 0.9762695
vn 0.1096397 -0.1296554 0.9854789
vn 0.05541674 -0.2682025 0.9617674
vn 0.0721212 -0.2845446 0.9559461
vn 0 1 0
vn 0 1 0
vn 0 0.9451626 0.3266001
vn 0 0.9451626 0.3266001
vn 0 1 0
vn 0 1 0
vn 0 1 0
vn 0 1 0
vn 0 0 -1
vn 0 0 -1
vn 0 0 -1
vn 0 0 -1
vn 0 0.9451626 0.3266001
vn 0 0.9451626 0.3266001
vn 0 0.4209678 0.9070756
vn 0 0.4209678 0.9070756
g Body_0
f 3/3/3 2/2/2 1/1/1
f 1/1/1 5/5/5 4/4/4
f 1/1/1 7/7/7 6/6/6
f 1/1/1 8/8/8 7/7/7
f 11/11/11 10/10/10 9/9/9
f 12/12/12 11/11/11 9/9/9
f 15/15/15 14/14/14 13/13/13
f 16/16/16 15/15/15 13/13/13
f 19/19/19 18/18/18 17/17/17
f 20/20/20 19/19/19 17/17/17
f 23/23/23 22/22/22 21/21/21
f 24/24/24 23/23/23 21/21/21
f 27/27/27 26/26/26 25/25/25
f 28/28/28 27/27/27 25/25/25
f 31/31/31 30/30/30 29/29/29
f 32/32/32 31/31/31 29/29/29
f 35/35/35 34/34/34 33/33/33
f 36/36/36 35/35/35 33/33/33
f 39/39/39 38/38/38 37/37/37
f 40/40/40 39/39/39 37/37/37
f 43/43/43 42/42/42 41/41/41
f 44/44/44 43/43/43 41/41/41
f 47/47/47 46/46/46 45/45/45
f 48/48/48 47/47/47 45/45/45
f 51/51/51 50/50/50 49/49/49
f 52/52/52 51/51/51 49/49/49
f 55/55/55 54/54/54 53/53/53
f 56/56/56 55/55/55 53/53/53
f 59/59/59 58/58/58 57/57/57
f 60/60/60 59/59/59 57/57/57
f 63/63/63 62/62/62 61/61/61
f 64/64/64 63/63/63 61/61/61
f 67/67/67 66/66/66 65/65/65
f 68/68/68 67/67/67 65/65/65
f 71/71/71 70/70/70 69/69/69
f 72/72/72 71/71/71 69/69/69
f 75/75/75 74/74/74 73/73/73
f 76/76/76 75/75/75 73/73/73
f 79/79/79 78/78/78 77/77/77
f 80/80/80 79/79/79 77/77/77
f 83/83/83 82/82/82 81/81/81
f 84/84/84 83/83/83 81/81/81
f 87/87/87 86/86/86 85/85/85
f 88/88/88 87/87/87 85/85/85
f 91/91/91 90/90/90 89/89/89
f 92/92/92 91/91/91 89/89/89
f 95/95/95 94/94/94 93/93/93
f 96/96/96 95/95/95 93/93/93
f 99/99/99 98/98/98 97/97/97
f 100/100/100 99/99/99 97/97/97
f 103/103/103 102/102/102 101/101/101
f 104/104/104 103/103/103 101/101/101
f 107/107/107 106/106/106 105/105/105
f 108/108/108 107/107/107 105/105/105
f 111/111/111 110/110/110 109/109/109
f 112/112/112 111/111/111 109/109/109
f 115/115/115 114/114/114 113/113/113
f 116/116/116 115/115/115 113/113/113
f 119/119/119 118/118/118 117/117/117
f 120/120/120 119/119/119 117/117/117
f 123/123/123 122/122/122 121/121/121
f 124/124/124 123/123/123 121/121/121
f 127/127/127 126/126/126 125/125/125
f 128/128/128 127/127/127 125/125/125
f 131/131/131 130/130/130 129/129/129
f 132/132/132 131/131/131 129/129/129
f 135/135/135 134/134/134 133/133/133
f 136/136/136 135/135/135 133/133/133
f 139/139/139 138/138/138 137/137/137
f 140/140/140 139/139/139 137/137/137
f 143/143/143 142/142/142 141/141/141
f 144/144/144 143/143/143 141/141/141
f 147/147/147 146/146/146 145/145/145
f 148/148/148 147/147/147 145/145/145
f 151/151/151 150/150/150 149/149/149
f 152/152/152 151/151/151 149/149/149
f 155/155/155 154/154/154 153/153/153
f 156/156/156 155/155/155 153/153/153
f 159/159/159 158/158/158 157/157/157
f 160/160/160 159/159/159 157/157/157
f 163/163/163 162/162/162 161/161/161
f 164/164/164 163/163/163 161/161/161
f 167/167/167 166/166/166 165/165/165
f 168/168/168 167/167/167 165/165/165
f 171/171/171 170/170/170 169/169/169
f 172/172/172 171/171/171 169/169/169
f 175/175/175 174/174/174 173/173/173
f 176/176/176 175/175/175 173/173/173
f 179/179/179 178/178/178 177/177/177
f 180/180/180 179/179/179 177/177/177
f 183/183/183 182/182/182 181/181/181
f 184/184/184 183/183/183 181/181/181
f 187/187/187 186/186/186 185/185/185
f 188/188/188 187/187/187 185/185/185
f 191/191/191 190/190/190 189/189/189
f 192/192/192 191/191/191 189/189/189
f 195/195/195 194/194/194 193/193/193
f 196/196/196 195/195/195 193/193/193
f 199/199/199 198/198/198 197/197/197
f 200/200/200 199/199/199 197/197/197
f 203/203/203 202/202/202 201/201/201
f 204/204/204 203/203/203 201/201/201
f 207/207/207 206/206/206 205/205/205
f 208/208/208 207/207/207 205/205/205
f 211/211/211 210/210/210 209/209/209
f 212/212/212 211/211/211 209/209/209
f 215/215/215 214/214/214 213/213/213
f 216/216/216 215/215/215 213/213/213
f 219/219/219 218/218/218 217/217/217
f 220/220/220 219/219/219 217/217/217
f 223/223/223 222/222/222 221/221/221
f 224/224/224 223/223/223 221/221/221
f 227/227/227 226/226/226 225/225/225
f 228/228/228 227/227/227 225/225/225
f 231/231/231 230/230/230 229/229/229
f 232/232/232 231/231/231 229/229/229
f 235/235/235 234/234/234 233/233/233
f 236/236/236 235/235/235 233/233/233
f 239/239/239 238/238/238 237/237/237
f 240/240/240 239/239/239 237/237/237
f 243/243/243 242/242/242 241/241/241
f 244/244/244 243/243/243 241/241/241
f 247/247/247 246/246/246 245/245/245
f 248/248/248 247/247/247 245/245/245
f 251/251/251 250/250/250 249/249/249
f 252/252/252 251/251/251 249/249/249
f 255/255/255 254/254/254 253/253/253
f 256/256/256 255/255/255 253/253/253
f 259/259/259 258/258/258 257/257/257
f 260/260/260 259/259/259 257/257/257
f 263/263/263 262/262/262 261/261/261
f 264/264/264 263/263/263 261/261/261
f 267/267/267 266/266/266 265/265/265
f 268/268/268 267/267/267 265/265/265
f 271/271/271 270/270/270 269/269/269
f 272/272/272 271/271/271 269/269/269
f 275/275/275 274/274/274 273/273/273
f 276/276/276 275/275/275 273/273/273
f 279/279/279 278/278/278 277/277/277
f 280/280/280 279/279/279 277/277/277
f 283/283/283 282/282/282 281/281/281
f 284/284/284 283/283/283 281/281/281
f 287/287/287 286/286/286 285/285/285
f 288/288/288 287/287/287 285/285/285
