g Box01
v -0.374653 0.1346196 0
v 0 0.8991416 0
v -0.6349502 0.1356031 0
v 0 0.8991416 0
v 0.3887365 0.1337314 0
v -0.374653 -1.032572 0
v 0.3893806 -1.032572 0
v 0.6482451 0.1356031 0
v 0 0.8991416 0
v 0 0.8991416 0.4338287
v -0.374653 0.1346196 0.4338287
v -0.6349502 0.1356031 0.4338287
v 0 0.8991416 0.4338287
v 0.3887365 0.1337314 0.4338287
v -0.374653 -1.032572 0.4338287
v 0.3893806 -1.032572 0.4338287
v 0.6482451 0.1356031 0.4338287
v 0 0.8991416 0.4338287
v -0.374653 -1.032572 0
v 0.3893806 -1.032572 0.4338287
v 0.3893806 -1.032572 0
v -0.374653 -1.032572 0.4338287
v 0.3887365 0.1337314 0.4338287
v 0.3893806 -1.032572 0
v 0.3893806 -1.032572 0.4338287
v 0.3887365 0.1337314 0
v 0.6482451 0.1356031 0.4338287
v 0.6482451 0.1356031 0
v 0 0.8991416 0.4338287
v 0.6482451 0.1356031 0
v 0.6482451 0.1356031 0.4338287
v 0 0.8991416 0
v -0.6349502 0.1356031 0.4338287
v -0.6349502 0.1356031 0
v -0.374653 0.1346196 0.4338287
v -0.6349502 0.1356031 0
v -0.6349502 0.1356031 0.4338287
v -0.374653 0.1346196 0
v -0.374653 -1.032572 0.4338287
v -0.374653 -1.032572 0
vt 1 0.5
vt 0.5 1
vt 1 1
vt 0.5 1
vt 0.5 0.5
vt 1 0
vt 0.5 0
vt 0 1
vt 0.5 1
vt 0.5 1
vt 0 0.5
vt 0 1
vt 0.5 1
vt 0.5 0.5
vt 0 0
vt 0.5 0
vt 1 1
vt 0.5 1
vt 0 0
vt 0.5 1
vt 0.5 0
vt 0 1
vt 0.5 1
vt 0 0
vt 0 1
vt 0.5 0
vt 1 1
vt 1 0
vt 0.5 1
vt 0 0
vt 0 1
vt 0.5 0
vt 1 1
vt 1 0
vt 0.5 1
vt 0 0
vt 0 1
vt 0.5 0
vt 1 1
vt 1 0
vn 0 0 -1
vn 0 0 -1
vn 0 0 -1
vn 0 0 -1
vn 0 0 -1
vn 0 0 -1
vn 0 0 -1
vn 0 0 -1
vn 0 0 -1
vn 0 0 1
vn 0 0 1
vn 0 0 1
vn 0 0 1
vn 0 0 1
vn 0 0 1
vn 0 0 1
vn 0 0 1
vn 0 0 1
vn 0 -1 0
vn 0 -1 0
vn 0 -1 0
vn 0 -1 0
vn 0.7098467 -0.7043563 0
vn 0.9999999 0.0005522147 0
vn 0.9999999 0.0005522147 0
vn 0.7098467 -0.7043563 0
vn 0.007212338 -0.999974 0
vn 0.007212339 -0.999974 0
vn -0.005103086 0.999987 0
vn 0.7623149 0.6472063 0
vn 0.7623149 0.6472062 0
vn -0.005102997 0.999987 0
vn -0.7688804 0.6393926 0
vn -0.7688804 0.6393925 0
vn -0.7084413 -0.7057698 0
vn -0.003778033 -0.9999928 0
vn -0.003778033 -0.9999928 0
vn -0.7084413 -0.7057698 0
vn -1 0 0
vn -1 0 0
g Box01_0
f 3/3/3 2/2/2 1/1/1
f 5/5/5 1/1/1 4/4/4
f 1/1/1 5/5/5 6/6/6
f 7/7/7 6/6/6 5/5/5
f 9/9/9 8/8/8 5/5/5
f 12/12/12 11/11/11 10/10/10
f 14/14/14 13/13/13 11/11/11
f 11/11/11 15/15/15 14/14/14
f 16/16/16 14/14/14 15/15/15
f 18/18/18 14/14/14 17/17/17
f 21/21/21 20/20/20 19/19/19
f 22/22/22 19/19/19 20/20/20
f 25/25/25 24/24/24 23/23/23
f 26/26/26 23/23/23 24/24/24
f 23/23/23 26/26/26 27/27/27
f 28/28/28 27/27/27 26/26/26
f 31/31/31 30/30/30 29/29/29
f 32/32/32 29/29/29 30/30/30
f 29/29/29 32/32/32 33/33/33
f 34/34/34 33/33/33 32/32/32
f 37/37/37 36/36/36 35/35/35
f 38/38/38 35/35/35 36/36/36
f 35/35/35 38/38/38 39/39/39
f 40/40/40 39/39/39 38/38/38
