g Cancer
v 0.75 0.18902 0.77902
v 0.75098 0.19 0.77902
v 0.75098 0.18902 0.78
v 0.75 0.18902 0.68098
v 0.75098 0.18902 0.68
v 0.75098 0.19 0.68098
v 0.75 0.18 0.77902
v 0.75 0.18 0.68098
v 0.75 0.18902 0.68098
v 0.75 0.18902 0.77902
v 0.82902 0.18 0.78
v 0.75098 0.18902 0.78
v 0.82902 0.18902 0.78
v 0.75098 0.18 0.78
v 0.75 0.18902 0.77902
v 0.75 0.18 0.77902
v 0.83 0.18902 0.68098
v 0.82902 0.19 0.68098
v 0.82902 0.18902 0.68
v 0.83 0.18902 0.77902
v 0.82902 0.19 0.77902
v 0.83 0.18 0.68098
v 0.82902 0.18902 0.78
v 0.83 0.18 0.77902
v 0.82902 0.18 0.78
v 0.75098 0.19 0.77902
v 0.75 0.18902 0.77902
v 0.75 0.18902 0.68098
v 0.75098 0.19 0.68098
v 0.82902 0.19 0.68098
v 0.82902 0.18902 0.68
v 0.75098 0.18902 0.68
v 0.82902 0.19 0.77902
v 0.75098 0.18902 0.78
v 0.82902 0.18902 0.78
v 0.82902 0.18 0.68
v 0.83 0.18 0.68098
v 0.83 0.18902 0.68098
v 0.82902 0.18902 0.68
v 0.75098 0.18 0.68
v 0.75098 0.18902 0.68
v 0.75 0.18 0.68098
v 0.75 0.18902 0.68098
vt 0.74183 0.009804
vt 0.75 0.009804
vt 0.74183 0
vt 0.74183 0.990196
vt 0.74183 1
vt 0.75 0.990196
vt 0.666666 0.009804
vt 0.666667 0.990196
vt 0.74183 0.990196
vt 0.74183 0.009804
vt 0.916667 0.790195
vt 0.841503 0.009804
vt 0.841503 0.790195
vt 0.916666 0.009804
vt 0.841503 0
vt 0.916666 0
vt 0.825163 0.009804
vt 0.833333 0.009804
vt 0.825163 0
vt 0.825163 0.990196
vt 0.833333 0.990196
vt 0.75 0.009804
vt 0.825163 0.999999
vt 0.75 0.990196
vt 0.75 0.999999
vt 0.00817 0.009804
vt 0 0.009804
vt 0 0.990196
vt 0.00817 0.990196
vt 0.658496 0.990196
vt 0.658496 0.999999
vt 0.00817 0.999999
vt 0.658496 0.009804
vt 0.00817 0
vt 0.658495 0
vt 0.916667 0.790195
vt 0.916667 0.799999
vt 0.99183 0.799999
vt 0.99183 0.790195
vt 0.916667 0.009804
vt 0.99183 0.009804
vt 0.916667 0
vt 0.99183 0
vn -0.8755918 0.3415692 0.3415692
vn -0.3416055 0.8755755 0.3415745
vn -0.3415966 0.3415655 0.8755826
vn -0.8755918 0.3415692 -0.3415692
vn -0.3415692 0.3415692 -0.8755918
vn -0.3415745 0.8755755 -0.3416055
vn -0.9238801 0 0.382682
vn -0.9238801 0 -0.382682
vn -0.8755918 0.3415692 -0.3415692
vn -0.8755918 0.3415692 0.3415692
vn 0.382682 0 0.9238801
vn -0.3415966 0.3415655 0.8755826
vn 0.3415966 0.3415655 0.8755826
vn -0.382682 0 0.9238801
vn -0.8755918 0.3415692 0.3415692
vn -0.9238801 0 0.382682
vn 0.8755918 0.3415692 -0.3415692
vn 0.3415745 0.8755755 -0.3416055
vn 0.3415692 0.3415692 -0.8755918
vn 0.8755918 0.3415692 0.3415692
vn 0.3416055 0.8755755 0.3415745
vn 0.9238801 0 -0.382682
vn 0.3415966 0.3415655 0.8755826
vn 0.9238801 0 0.382682
vn 0.382682 0 0.9238801
vn -0.3416055 0.8755755 0.3415745
vn -0.8755918 0.3415692 0.3415692
vn -0.8755918 0.3415692 -0.3415692
vn -0.3415745 0.8755755 -0.3416055
vn 0.3415745 0.8755755 -0.3416055
vn 0.3415692 0.3415692 -0.8755918
vn -0.3415692 0.3415692 -0.8755918
vn 0.3416055 0.8755755 0.3415745
vn -0.3415966 0.3415655 0.8755826
vn 0.3415966 0.3415655 0.8755826
vn 0.382682 0 -0.9238801
vn 0.9238801 0 -0.382682
vn 0.8755918 0.3415692 -0.3415692
vn 0.3415692 0.3415692 -0.8755918
vn -0.382682 0 -0.9238801
vn -0.3415692 0.3415692 -0.8755918
vn -0.9238801 0 -0.382682
vn -0.8755918 0.3415692 -0.3415692
g Cancer_0
f 3/3/3 2/2/2 1/1/1
f 6/6/6 5/5/5 4/4/4
f 9/9/9 8/8/8 7/7/7
f 10/10/10 9/9/9 7/7/7
f 13/13/13 12/12/12 11/11/11
f 12/12/12 14/14/14 11/11/11
f 12/12/12 15/15/15 14/14/14
f 15/15/15 16/16/16 14/14/14
f 19/19/19 18/18/18 17/17/17
f 17/17/17 18/18/18 20/20/20
f 18/18/18 21/21/21 20/20/20
f 17/17/17 20/20/20 22/22/22
f 21/21/21 23/23/23 20/20/20
f 20/20/20 24/24/24 22/22/22
f 20/20/20 23/23/23 24/24/24
f 23/23/23 25/25/25 24/24/24
f 28/28/28 27/27/27 26/26/26
f 29/29/29 28/28/28 26/26/26
f 29/29/29 26/26/26 30/30/30
f 30/30/30 31/31/31 29/29/29
f 31/31/31 32/32/32 29/29/29
f 26/26/26 33/33/33 30/30/30
f 26/26/26 34/34/34 33/33/33
f 34/34/34 35/35/35 33/33/33
f 38/38/38 37/37/37 36/36/36
f 39/39/39 38/38/38 36/36/36
f 39/39/39 36/36/36 40/40/40
f 41/41/41 39/39/39 40/40/40
f 40/40/40 42/42/42 41/41/41
f 42/42/42 43/43/43 41/41/41
