g CandleSimple_LOD2
v 0.0008440005 -0.0006063795 0.008188931
v -6.693516E-10 -2.007174E-10 0.008170227
v 0.001086034 0.0001242947 0.008178034
v 5.251577E-05 -0.001127546 0.008157279
v -0.001077079 -0.0003007878 0.008170227
v -0.0007133409 0.0008111058 0.008167247
v 0.0004439197 0.001036847 0.008162561
v 0.001086034 0.0001242947 0.008178034
v 0.0001919949 -0.001219638 0
v 0.001137276 -4.804693E-05 0
v 0.000574857 0.001030172 0
v -0.0006715169 0.0009191155 0
v -0.001163839 -0.0001928611 0
v -0.001077079 -0.0003007878 0.008170227
v 5.251577E-05 -0.001127546 0.008157279
v 0.0001919949 -0.001219638 0
v -0.001163839 -0.0001928611 0
v -0.0007133409 0.0008111058 0.008167247
v -0.0006715169 0.0009191155 0
v 0.0004439197 0.001036847 0.008162561
v 0.000574857 0.001030172 0
v 0.001086034 0.0001242947 0.008178034
v 0.001137276 -4.804693E-05 0
v 0.0008440005 -0.0006063795 0.008188931
v 0.0001919949 -0.001219638 0
v 5.251577E-05 -0.001127546 0.008157279
vt 0.04049981 0.9356059
vt 0.1233125 0.8735196
vt 0.008236762 0.8594307
vt 0.1163853 0.9880799
vt 0.2291567 0.9031913
vt 0.196236 0.7865072
vt 0.07522785 0.7672896
vt 0.008236762 0.8594307
vt 0.4617793 0.8285744
vt 0.3426387 0.7519541
vt 0.255485 0.8356188
vt 0.2867128 0.9551644
vt 0.4046594 0.9709574
vt 0.0001292813 0.5726421
vt 0.0001293925 0.727958
vt 0.8695966 0.7150748
vt 0.8695965 0.5785699
vt 0.000129264 0.4578289
vt 0.8695964 0.4483675
vt 0.0001291997 0.3257461
vt 0.8695965 0.3134494
vt 0.0001291997 0.1911216
vt 0.8695965 0.1816605
vt 0.0001291997 0.1068122
vt 0.8695965 0.03511787
vt 0.0001291997 0.0310971
vn 0.7825898 -0.6225371 0.0008800391
vn -0.005982594 0.001298645 0.9999813
vn 0.9999814 0.006022699 -0.0009301322
vn -0.3773782 -0.9260555 0.002634779
vn -0.9270381 -0.3749618 0.002020878
vn -0.6219507 0.7830255 0.006958717
vn 0.4138966 0.9103094 0.005123057
vn 0.9999815 0.006015182 -0.0009705913
vn -0.004074693 -0.9999781 -0.005225233
vn 0.9999957 -0.002765447 -0.001054601
vn 0 0 -1
vn 0 0 -1
vn -0.9307665 -0.3656075 0.002157197
vn -0.9270233 -0.3749981 0.002035136
vn -0.3774142 -0.9260406 0.002670382
vn -0.004099131 -0.9999781 -0.005201464
vn -0.9307902 -0.3655477 0.002122592
vn -0.6219622 0.7830166 0.006920322
vn -0.6148098 0.7886452 0.006901714
vn 0.4139808 0.9102712 0.005118481
vn 0.4215195 0.9068047 0.005161472
vn 0.9999816 0.005976309 -0.0009803342
vn 0.9999956 -0.002792507 -0.001065921
vn 0.7825927 -0.6225336 0.0008495646
vn -0.004068992 -0.9999787 -0.005127079
vn -0.37741 -0.9260424 0.002667086
g CandleSimple_LOD2_0
f 3/3/3 2/2/2 1/1/1
f 1/1/1 2/2/2 4/4/4
f 4/4/4 2/2/2 5/5/5
f 5/5/5 2/2/2 6/6/6
f 6/6/6 2/2/2 7/7/7
f 7/7/7 2/2/2 8/8/8
f 11/11/11 10/10/10 9/9/9
f 9/9/9 12/12/12 11/11/11
f 9/9/9 13/13/13 12/12/12
f 16/16/16 15/15/15 14/14/14
f 17/17/17 16/16/16 14/14/14
f 17/17/17 14/14/14 18/18/18
f 19/19/19 17/17/17 18/18/18
f 19/19/19 18/18/18 20/20/20
f 21/21/21 19/19/19 20/20/20
f 21/21/21 20/20/20 22/22/22
f 23/23/23 21/21/21 22/22/22
f 23/23/23 22/22/22 24/24/24
f 25/25/25 23/23/23 24/24/24
f 24/24/24 26/26/26 25/25/25
