g CI_Laser_Mesh_LOD3
v 0.01013105 -0.0002108461 -0.002872319
v 0.01013154 -0.0001444551 -0.003198482
v 0.01008208 -0.0002385005 -0.003046793
v 0.01013154 -0.0001444551 -0.003198482
v 0.01013154 0.0001525168 -0.003176943
v 0.01008208 -4.015278E-05 -0.003228568
v 0.01013154 0.0002278032 -0.002887418
v 0.01008208 0.0001279747 -0.002771418
v 0.01008208 0.00021357 -0.003116382
v 0.01013154 0.0001525168 -0.003176943
v 0.01013154 0.0002278032 -0.002887418
v 0.01008208 0.00021357 -0.003116382
v 0.01013154 0.0002278032 -0.002887418
v 0.01013154 -4.015302E-05 -0.002757586
v 0.01008208 0.0001279747 -0.002771418
v 0.01008208 0.0001555687 -0.003049825
v 0.01008208 1.391318E-05 -0.002837709
v 0.01000676 0.0001182997 -0.002884404
v 0.01008208 1.391318E-05 -0.002837709
v 0.01008208 -0.0001391578 -0.002941535
v 0.01000676 -0.0001029744 -0.002881455
v 0.013543 0.0002036663 -0.00302884
v 0.013543 -0.0001075686 -0.003162389
v 0.01341836 8.725659E-05 -0.003180548
v 0.013543 -0.0001602798 -0.002891724
v 0.013543 3.114463E-05 -0.002810409
v 0.01341836 -3.343127E-05 -0.00280118
v 0.013543 -0.0001075686 -0.003162389
v 0.013543 -0.0001602798 -0.002891724
v 0.01341836 -0.0001918971 -0.003026509
v 0.01008208 1.391318E-05 -0.002837709
v 0.01000676 -0.0001029744 -0.002881455
v 0.01000676 0.0001182997 -0.002884404
v 0.013543 0.0002036663 -0.00302884
v 0.01341836 8.725659E-05 -0.003180548
v 0.01341836 0.0001683823 -0.002915715
v 0.013543 -0.0001075686 -0.003162389
v 0.01341836 -0.0001918971 -0.003026509
v 0.01341836 8.725659E-05 -0.003180548
v 0.013543 -0.0001602798 -0.002891724
v 0.01341836 -3.343127E-05 -0.00280118
v 0.01341836 -0.0001918971 -0.003026509
v 0.01013154 -4.015302E-05 -0.002757586
v 0.01013105 -0.0002108461 -0.002872319
v 0.01008208 0.0001279747 -0.002771418
v 0.01013154 -0.0001444551 -0.003198482
v 0.01008208 -4.015278E-05 -0.003228568
v 0.01008208 -0.0002385005 -0.003046793
v 0.01013154 0.0001525168 -0.003176943
v 0.01008208 0.00021357 -0.003116382
v 0.01008208 -4.015278E-05 -0.003228568
v 0.01008208 0.0001555687 -0.003049825
v 0.01000676 0.0001182997 -0.002884404
v 0.01000676 0.000102974 -0.003104698
v 0.01161323 -0.0004626057 -0.002169123
v 0.01161323 -0.0003588022 -0.00237191
v 0.01161323 -0.0004528427 -0.002507214
v 0.01161323 0.0004590381 -0.003473346
v 0.01161323 -0.0004686089 -0.003451197
v 0.01161323 0.0004528427 -0.002507214
v 0.01161323 0.0003588021 -0.00237191
v 0.01161323 0.0004626057 -0.002169123
v 0.0107881 0.0004613982 -0.002168945
v 0.0107881 0.0003588021 -0.00237191
v 0.0107881 0.0004601068 -0.002504745
v 0.0107881 -0.0003588022 -0.00237191
v 0.0107881 0.0004261581 -0.003485785
v 0.0107881 -0.0004601068 -0.002504745
v 0.0107881 -0.0004553572 -0.003437683
v 0.0107881 -0.0004613982 -0.002168945
v 0.01008208 -0.0001391578 -0.002941535
v 0.01008208 -8.97347E-05 -0.003120672
v 0.01000676 -0.0001183009 -0.00310175
v 0.01000676 -0.0001029744 -0.002881455
v 0.01353544 -4.495297E-05 -0.003439803
v 0.01353286 0.0004081055 -0.003151806
v 0.01348955 0.0002301013 -0.003400047
v 0.013543 0.0002036663 -0.00302884
v 0.0135188 0.0004313472 -0.002861104
v 0.0135303 0.0002442783 -0.002627888
v 0.013543 -0.0001075686 -0.003162389
v 0.013543 3.114463E-05 -0.002810409
v 0.01352899 -3.235488E-05 -0.002545821
v 0.01353324 -0.0003736834 -0.003228002
v 0.013543 -0.0001602798 -0.002891724
v 0.01352672 -0.0003407054 -0.002699773
v 0.01348961 -0.0004649269 -0.003004533
v 0.01161323 -0.0004686089 -0.003451197
v 0.01161323 0.0004590381 -0.003473346
v 0.0107881 0.0004261581 -0.003485785
v 0.0107881 -0.0004553572 -0.003437683
v 0.01276639 0.0001871264 -0.003395211
v 0.01272239 -0.0001101767 -0.003430994
v 0.01279939 -7.758143E-05 -0.003445948
v 0.01276335 -0.0003253215 -0.00328378
v 0.01013154 -0.0002740356 -0.003379767
v 0.01013154 0.000135392 -0.00343814
v 0.01275994 -0.0004370015 -0.003038249
v 0.01013154 -0.0004649406 -0.003008667
v 0.01272212 -0.000368696 -0.002725482
v 0.01013154 -0.0003397866 -0.002675338
v 0.01271837 -9.982887E-05 -0.002549364
v 0.01013154 6.230852E-05 -0.00251979
v 0.013135 -0.0003583697 -0.003243467
v 0.0130969 -0.000457524 -0.002950855
v 0.01280114 -0.0004069608 -0.002796937
v 0.01279975 -0.0001619102 -0.002565212
v 0.01276405 0.0001486252 -0.002583303
v 0.01309547 -0.0002508215 -0.002609669
v 0.01275901 0.0003640199 -0.00274546
v 0.01013154 0.000410444 -0.002774108
v 0.01309615 0.0001633381 -0.002565191
v 0.01317406 -0.000385027 -0.002753381
v 0.0131731 -0.0001087315 -0.002553332
v 0.01309547 -0.0002508215 -0.002609669
v 0.01276533 0.0004351544 -0.002975711
v 0.01013154 0.00043498 -0.003173252
v 0.01313384 0.0003709898 -0.002764845
v 0.01316922 -0.0004486408 -0.003007605
v 0.01348961 -0.0004649269 -0.003004533
v 0.01352672 -0.0003407054 -0.002699773
v 0.01353324 -0.0003736834 -0.003228002
v 0.01352899 -3.235488E-05 -0.002545821
v 0.01317387 0.0001782834 -0.002582808
v 0.0135303 0.0002442783 -0.002627888
v 0.0135188 0.0004313472 -0.002861104
v 0.01313458 -0.0001996324 -0.003382003
v 0.01353544 -4.495297E-05 -0.003439803
v 0.01313458 -2.603356E-05 -0.003424044
v 0.01313428 0.0004350434 -0.002979798
v 0.01353286 0.0004081055 -0.003151806
v 0.01313715 0.000378026 -0.003217808
v 0.01348955 0.0002301013 -0.003400047
v 0.01280284 0.0004142611 -0.003166798
v 0.01272307 0.0003604363 -0.003273673
v 0.01013154 0.000135392 -0.00343814
v 0.01276639 0.0001871264 -0.003395211
v 0.01272239 -0.0001101767 -0.003430994
v 0.01313458 0.0001728591 -0.00339013
v 0.01279939 -7.758143E-05 -0.003445948
v 0.01313458 -2.603356E-05 -0.003424044
v 0.01353544 -4.495297E-05 -0.003439803
v 0.01000676 0.000102974 -0.003104698
v 0.01000676 0.0001182997 -0.002884404
v 0.01000676 -0.0001183009 -0.00310175
v 0.01000676 -0.0001029744 -0.002881455
v 0.01341836 -3.343127E-05 -0.00280118
v 0.01341836 8.725659E-05 -0.003180548
v 0.01341836 -0.0001918971 -0.003026509
v 0.01341836 0.0001683823 -0.002915715
v 0.01013154 -0.0002740356 -0.003379767
v 0.01013154 0.000135392 -0.00343814
v 0.01013154 -0.0004649406 -0.003008667
v 0.01013154 -0.0003397866 -0.002675338
v 0.01013154 6.230852E-05 -0.00251979
v 0.01013154 0.000410444 -0.002774108
v 0.01013154 0.00043498 -0.003173252
v 0.01161323 -0.0004686089 -0.003451197
v 0.0107881 -0.0004553572 -0.003437683
v 0.0107881 -0.0004601068 -0.002504745
v 0.01161323 -0.0004528427 -0.002507214
v 0.01161323 -0.0004626057 -0.002169123
v 0.0107881 -0.0004613982 -0.002168945
v 0.01161323 -0.0004626057 -0.002169123
v 0.0107881 -0.0004613982 -0.002168945
v 0.0107881 -0.0003588022 -0.00237191
v 0.01161323 -0.0003588022 -0.00237191
v 0.0107881 0.0003588021 -0.00237191
v 0.01161323 0.0003588021 -0.00237191
v 0.01161323 -0.0003588022 -0.00237191
v 0.0107881 -0.0003588022 -0.00237191
v 0.0107881 0.0004601068 -0.002504745
v 0.0107881 0.0004261581 -0.003485785
v 0.01161323 0.0004590381 -0.003473346
v 0.01161323 0.0004528427 -0.002507214
v 0.01161323 0.0004626057 -0.002169123
v 0.0107881 0.0004613982 -0.002168945
v 0.0107881 0.0003588021 -0.00237191
v 0.0107881 0.0004613982 -0.002168945
v 0.01161323 0.0004626057 -0.002169123
v 0.01161323 0.0003588021 -0.00237191
v 0.01000676 0.000102974 -0.003104698
v 0.01000676 -0.0001183009 -0.00310175
v 0.01008208 -8.97347E-05 -0.003120672
v 0.01008208 0.0001555687 -0.003049825
v 0.01341836 0.0001683823 -0.002915715
v 0.01341836 -3.343127E-05 -0.00280118
v 0.013543 3.114463E-05 -0.002810409
v 0.013543 0.0002036663 -0.00302884
v 0.01008208 0.00021357 -0.003116382
v 0.01008208 0.0001279747 -0.002771418
v 0.01008208 0.0001555687 -0.003049825
v 0.01008208 -4.015278E-05 -0.003228568
v 0.01008208 1.391318E-05 -0.002837709
v 0.01008208 -8.97347E-05 -0.003120672
v 0.01013105 -0.0002108461 -0.002872319
v 0.01008208 -0.0002385005 -0.003046793
v 0.01008208 -0.0001391578 -0.002941535
vt 0.1881836 0.603438
vt 0.1875657 0.6175824
vt 0.1896718 0.6104131
vt 0.1875657 0.562272
vt 0.1875657 0.5690318
vt 0.1896718 0.5630022
vt 0.1875657 0.5818733
vt 0.1896718 0.5878771
vt 0.1896718 0.5725244
vt 0.1875657 0.5690318
vt 0.1875657 0.5818733
vt 0.1896718 0.5725244
vt 0.1875657 0.5818733
vt 0.1875657 0.5945563
vt 0.1896718 0.5878771
vt 0.1963742 0.5930245
vt 0.1963742 0.5818965
vt 0.193167 0.5863668
vt 0.1963742 0.5818965
vt 0.1963742 0.5739281
vt 0.193167 0.5768135
vt 0.1928607 0.5362289
vt 0.1928607 0.521319
vt 0.1875528 0.5289846
vt 0.1928607 0.5094986
vt 0.1928607 0.5027277
vt 0.1875526 0.5043995
vt 0.1928607 0.521319
vt 0.1928607 0.5094986
vt 0.1875526 0.5150306
vt 0.1963742 0.5818965
vt 0.193167 0.5768135
vt 0.193167 0.5863668
vt 0.1928607 0.5362289
vt 0.1875528 0.5289846
vt 0.1875528 0.5408202
vt 0.1928607 0.521319
vt 0.1875526 0.5150306
vt 0.1875528 0.5289846
vt 0.1928607 0.5094986
vt 0.1875526 0.5043995
vt 0.1875526 0.5150306
vt 0.1875657 0.5945563
vt 0.1881836 0.603438
vt 0.1896718 0.5878771
vt 0.1875657 0.6175824
vt 0.1896718 0.6210551
vt 0.1896718 0.6104131
vt 0.1875657 0.5690318
vt 0.1896718 0.5725244
vt 0.1896718 0.5630022
vt 0.1963742 0.5930245
vt 0.193167 0.5863668
vt 0.193167 0.5957991
vt 0.05822779 0.6697546
vt 0.05005565 0.6656007
vt 0.04538193 0.6691628
vt 0.004962024 0.6325492
vt 0.005628134 0.6687721
vt 0.04538188 0.6314793
vt 0.05005565 0.6350411
vt 0.05822772 0.6308872
vt 0.1193346 0.6707811
vt 0.11101 0.6667299
vt 0.1064493 0.6698448
vt 0.1110097 0.6361702
vt 0.06495671 0.6682432
vt 0.1064493 0.6330552
vt 0.06658249 0.6329988
vt 0.1193346 0.6321188
vt 0.1963742 0.5739281
vt 0.1963742 0.5659667
vt 0.193167 0.5673475
vt 0.193167 0.5768135
vt 0.1471185 0.673728
vt 0.1551399 0.6931579
vt 0.1563085 0.6808001
vt 0.1436965 0.6913868
vt 0.1487453 0.704062
vt 0.1366766 0.7068076
vt 0.1386508 0.6819407
vt 0.1347424 0.6948922
vt 0.125322 0.7022792
vt 0.1318336 0.6716096
vt 0.1311008 0.6878693
vt 0.1192759 0.6892008
vt 0.1227149 0.6760185
vt 0.01152971 0.6746288
vt 0.01152971 0.7037054
vt 0.04666831 0.7037054
vt 0.04666831 0.6746288
vt 0.1137159 0.5037882
vt 0.112874 0.5086002
vt 0.1171323 0.507885
vt 0.1149362 0.5200624
vt 0.00400278 0.5156848
vt 0.00400278 0.5037882
vt 0.1149475 0.5323015
vt 0.00400278 0.5335105
vt 0.1127333 0.5462637
vt 0.00400278 0.5486877
vt 0.11258 0.5601977
vt 0.00400278 0.5671117
vt 0.1314022 0.5225489
vt 0.1292914 0.5359407
vt 0.1171527 0.5429196
vt 0.1170599 0.5576593
vt 0.1149101 0.5711277
vt 0.1294423 0.5532192
vt 0.1148456 0.5829211
vt 0.00400278 0.5853655
vt 0.1292462 0.571266
vt 0.1336164 0.544914
vt 0.1333645 0.5596277
vt 0.1294423 0.5532192
vt 0.1150707 0.5939714
vt 0.00400278 0.6024453
vt 0.1311886 0.5837718
vt 0.1334763 0.5336179
vt 0.1468442 0.533685
vt 0.1468442 0.5486863
vt 0.1468442 0.5213341
vt 0.1468442 0.563864
vt 0.1333454 0.5722657
vt 0.1468442 0.5768704
vt 0.1468442 0.5892801
vt 0.1315779 0.513065
vt 0.1468442 0.509081
vt 0.1314949 0.5049854
vt 0.1312841 0.5940443
vt 0.1468442 0.6021656
vt 0.1317391 0.6051762
vt 0.1468442 0.6152323
vt 0.1169372 0.6022946
vt 0.1128265 0.6077046
vt 0.00400278 0.6194592
vt 0.115241 0.6166334
vt 0.1124003 0.6252054
vt 0.1313874 0.6175243
vt 0.1172627 0.6232454
vt 0.1314949 0.6252054
vt 0.1468442 0.6252054
vt 0.2061306 0.6227698
vt 0.2000703 0.6180316
vt 0.2008839 0.6285493
vt 0.1948334 0.6237717
vt 0.1999857 0.6147681
vt 0.2053717 0.6028931
vt 0.1954046 0.6061994
vt 0.2081244 0.612071
vt 0.1680799 0.6750541
vt 0.1630488 0.6908151
vt 0.1835835 0.6687689
vt 0.1964038 0.6756164
vt 0.1995444 0.6925285
vt 0.1883921 0.7053973
vt 0.1723998 0.7038056
vt 0.1502805 0.565757
vt 0.1854054 0.565757
vt 0.1854054 0.5206425
vt 0.1502805 0.5207117
vt 0.1502801 0.5050395
vt 0.185405 0.5051001
vt 0.1854182 0.5741251
vt 0.1502796 0.5732386
vt 0.1502796 0.5823885
vt 0.1854182 0.5823886
vt 0.1502796 0.6129482
vt 0.1854182 0.6129482
vt 0.1854182 0.5823886
vt 0.1502796 0.5823885
vt 0.1728596 0.6292366
vt 0.1254241 0.6292366
vt 0.1267942 0.6643614
vt 0.1727905 0.6643614
vt 0.1884627 0.6643618
vt 0.1884021 0.629237
vt 0.1502796 0.6129482
vt 0.1502796 0.6220981
vt 0.1854182 0.6212116
vt 0.1854182 0.6129482
vt 0.193167 0.5957991
vt 0.193167 0.600325
vt 0.1963742 0.600325
vt 0.1963742 0.5930245
vt 0.1875528 0.5408202
vt 0.1875526 0.5481212
vt 0.1928607 0.5477705
vt 0.1928607 0.5362289
vt 0.06430985 0.6755235
vt 0.05291009 0.6807207
vt 0.06204911 0.6790006
vt 0.07025135 0.6842729
vt 0.05537415 0.6841082
vt 0.06573822 0.6864505
vt 0.05479869 0.691326
vt 0.06405894 0.692497
vt 0.05958952 0.6896042
vn 0.7827654 -0.6100395 -0.1230044
vn 0.7827654 -0.6100395 -0.1230044
vn 0.7827654 -0.6100395 -0.1230044
vn 0.6047062 0.05761529 -0.794362
vn 0.6047062 0.05761529 -0.794362
vn 0.6047062 0.05761529 -0.794362
vn -0.8125806 0.5656945 0.1403654
vn -0.9876024 0.06441946 0.1431485
vn -0.9944829 0.1018124 0.02526055
vn 0.6633773 0.7242004 -0.1883198
vn 0.6633773 0.7242004 -0.1883198
vn 0.6633773 0.7242004 -0.1883198
vn 0.7760566 0.2749983 0.5675491
vn 0.7760566 0.2749983 0.5675491
vn 0.7760566 0.2749983 0.5675491
vn 0.6286173 0.6467547 0.431913
vn 0.6286173 0.6467547 0.431913
vn 0.6286173 0.6467547 0.431913
vn 0.3637432 -0.5228885 0.7708946
vn 0.3637432 -0.5228885 0.7708946
vn 0.3637432 -0.5228885 0.7708946
vn -0.6001192 -0.3154262 0.7350941
vn -0.6001192 -0.3154262 0.7350941
vn -0.6001192 -0.3154262 0.7350941
vn -0.2613004 0.3773852 -0.888427
vn -0.2613004 0.3773852 -0.888427
vn -0.2613004 0.3773852 -0.888427
vn -0.4146764 0.8931885 0.1739475
vn -0.4146764 0.8931885 0.1739475
vn -0.4146764 0.8931885 0.1739475
vn -0.515424 0.01141528 0.8568592
vn -0.515424 0.01141528 0.8568592
vn -0.515424 0.01141528 0.8568592
vn 0.4727529 -0.842552 0.2580906
vn 0.4727529 -0.842552 0.2580906
vn 0.4727529 -0.842552 0.2580906
vn 0.531584 0.4092223 0.74159
vn 0.531584 0.4092223 0.74159
vn 0.531584 0.4092223 0.74159
vn 0.3829678 0.7556174 -0.5313925
vn 0.3829678 0.7556174 -0.5313925
vn 0.3829678 0.7556174 -0.5313925
vn -0.9040368 -0.2366588 0.3559635
vn -0.8958328 -0.2776653 0.3469663
vn -0.9876024 0.06441946 0.1431485
vn -0.6985947 -0.4834307 -0.5275037
vn -0.9836466 -0.1216888 -0.1327826
vn -0.9868941 -0.1613569 -0.001970503
vn -0.5273567 0.3435858 -0.7770738
vn -0.5273567 0.3435858 -0.7770738
vn -0.5273567 0.3435858 -0.7770738
vn -0.5426741 0.837918 -0.05829304
vn -0.5426741 0.837918 -0.05829304
vn -0.5426741 0.837918 -0.05829304
vn 1 -1.124948E-05 0
vn 1 -5.813537E-06 0
vn 1 -2.24573E-06 0
vn 1 -7.807832E-07 0
vn 1 0 0
vn 1 -1.043347E-06 0
vn 1 0 0
vn 1 0 0
vn -1 5.447981E-06 0
vn -1 2.595433E-06 0
vn -1 1.147767E-06 0
vn -1 -2.648872E-06 0
vn -1 -1.042847E-07 0
vn -1 -1.278806E-06 0
vn -1 -1.792243E-07 0
vn -1 -5.447988E-06 0
vn -0.262374 -0.9649636 -0.002283124
vn 0.2862993 -0.9236332 -0.2548223
vn 0.1239574 -0.974856 -0.185177
vn -0.3902942 -0.9184699 0.06390201
vn 0.9959778 0.03655703 -0.08180305
vn 0.9961559 0.07520673 -0.04491337
vn 0.9310705 0.199496 -0.3054653
vn 0.9988183 0.04845269 0.003772137
vn 0.99602 0.08408064 0.0295714
vn 0.9983928 0.04273287 0.03722602
vn 0.9996268 -0.01663321 -0.02167453
vn 0.9990585 0.007814756 0.04267367
vn 0.9985434 -0.01051378 0.05292148
vn 0.9947749 -0.1020456 -0.003081478
vn 0.998517 -0.04705893 0.0273738
vn 0.9948477 -0.09382343 0.03841181
vn 0.931554 -0.3620006 0.03410061
vn -0.000189844 -0.03880109 -0.999247
vn -0.000189844 -0.03880109 -0.999247
vn -0.000189844 -0.03880109 -0.999247
vn -0.000189844 -0.03880109 -0.999247
vn 0.02385922 0.4277999 -0.9035586
vn -0.01308488 -0.2748689 -0.9613927
vn -0.05271454 -0.1585357 -0.985945
vn 0.002884988 -0.7730903 -0.6342894
vn -0.002947158 -0.5837849 -0.811903
vn -0.007993151 0.2715151 -0.9624009
vn -0.03230995 -0.990448 -0.1340479
vn 0.001032466 -0.9981712 -0.06044196
vn 0.06398917 -0.8022456 0.5935549
vn -0.007631212 -0.7124359 0.7016957
vn 0.05479803 -0.1665816 0.9845039
vn -0.005394411 0.1370151 0.9905543
vn -0.001755488 -0.7964213 -0.6047395
vn -0.1050832 -0.9834608 0.1475208
vn -0.07985075 -0.9129622 0.4001548
vn -0.009832713 -0.3844803 0.9230809
vn -0.01500177 0.35831 0.9334821
vn -0.04010355 -0.5520234 0.8328636
vn -0.007237658 0.8409981 0.5409897
vn 0.001659133 0.8585818 0.5126739
vn 0.03684934 0.3471847 0.9370726
vn -0.06599728 -0.8541601 0.5158052
vn -0.1431167 -0.2167074 0.9656891
vn 0.434931 -0.5270945 0.7300729
vn -0.009281888 0.9998795 0.0124431
vn -0.001201365 0.9332288 -0.3592807
vn -0.01076598 0.8496656 0.527212
vn -0.1070009 -0.989838 -0.09365643
vn -0.009442344 -0.9994784 -0.03088626
vn 0.03671689 -0.725232 0.6875248
vn 0.01552372 -0.7837275 -0.6209109
vn 0.04849805 -0.08038033 0.9955837
vn 0.04710373 0.4409348 0.8963023
vn 0.036016 0.5650617 0.8242622
vn 0.000992062 0.9644248 0.2643555
vn 0.02455194 -0.4631575 -0.8859358
vn -0.002585558 -0.2116851 -0.9773346
vn 0.01082786 -0.02644015 -0.9995918
vn -0.005322295 0.9991243 0.04150094
vn 0.01711404 0.9383791 -0.3451837
vn -0.005510665 0.8693755 -0.4941214
vn -0.03434595 0.4999547 -0.8653702
vn -0.09864634 0.92342 -0.3708965
vn 0.16005 0.791223 -0.590212
vn -0.007993151 0.2715151 -0.9624009
vn 0.02385922 0.4277999 -0.9035586
vn -0.01308488 -0.2748689 -0.9613927
vn -0.02403851 0.4053726 -0.9138355
vn -0.05271454 -0.1585357 -0.985945
vn 0.01082786 -0.02644015 -0.9995918
vn -0.002585558 -0.2116851 -0.9773346
vn -1 0 0
vn -1 0 0
vn -1 0 0
vn -1 0 0
vn 1 2.356366E-06 -5.823542E-06
vn 1 2.373142E-06 -5.810401E-06
vn 1 4.266676E-06 -4.327183E-06
vn 1 0 -7.6693E-06
vn -1 0 0
vn -1 -4.096154E-07 1.614684E-06
vn -1 0 0
vn -1 4.709192E-06 2.685249E-06
vn -1 7.071854E-07 3.983268E-06
vn -1 -7.911183E-06 2.611184E-06
vn -1 0 0
vn -0.003571295 -0.9999764 0.005869347
vn -0.003571295 -0.9999764 0.005869347
vn 4.298022E-05 -0.9999861 -0.005287896
vn 2.902347E-05 -0.9999863 -0.005244812
vn 0.003643326 -0.9998589 -0.01640143
vn 0.003643326 -0.9998589 -0.01640143
vn 0.0007009262 0.8913094 0.453395
vn 0.0007009262 0.8913094 0.453395
vn 0.0007009262 0.8913094 0.453395
vn 0.0007009262 0.8913094 0.453395
vn 0 0 1
vn 0 0 1
vn 0 0 1
vn 0 0 1
vn -0.005875846 0.9998653 -0.01532877
vn -0.01543284 0.9997794 -0.01424997
vn -0.01543284 0.9997794 -0.01424997
vn -0.005913808 0.9998651 -0.01532449
vn 0.0036433 0.9998589 -0.01640183
vn 0.0036433 0.9998589 -0.01640183
vn 0.0007010677 -0.8913093 0.4533952
vn 0.0007010677 -0.8913093 0.4533952
vn 0.0007010677 -0.8913093 0.4533952
vn 0.0007010677 -0.8913093 0.4533952
vn 0.1566337 0.1422286 -0.9773622
vn 0.1566337 0.1422286 -0.9773622
vn 0.1566337 0.1422286 -0.9773622
vn 0.1566337 0.1422286 -0.9773622
vn -0.09999205 -0.6612833 -0.7434419
vn -0.09999205 -0.6612833 -0.7434419
vn -0.09999205 -0.6612833 -0.7434419
vn -0.09999205 -0.6612833 -0.7434419
vn -0.9944829 0.1018124 0.02526055
vn -0.9876024 0.06441946 0.1431485
vn -1 1.266194E-05 0
vn -0.9836466 -0.1216888 -0.1327826
vn -0.9369218 -0.1785149 0.3005159
vn -1 8.850407E-06 0
vn -0.8958328 -0.2776653 0.3469663
vn -0.9868941 -0.1613569 -0.001970503
vn -0.9385135 -0.2220075 0.2643959
g CI_Laser_Mesh_LOD3_0
f 3/3/3 2/2/2 1/1/1
f 6/6/6 5/5/5 4/4/4
f 9/9/9 8/8/8 7/7/7
f 12/12/12 11/11/11 10/10/10
f 15/15/15 14/14/14 13/13/13
f 18/18/18 17/17/17 16/16/16
f 21/21/21 20/20/20 19/19/19
f 24/24/24 23/23/23 22/22/22
f 27/27/27 26/26/26 25/25/25
f 30/30/30 29/29/29 28/28/28
f 33/33/33 32/32/32 31/31/31
f 36/36/36 35/35/35 34/34/34
f 39/39/39 38/38/38 37/37/37
f 42/42/42 41/41/41 40/40/40
f 45/45/45 44/44/44 43/43/43
f 48/48/48 47/47/47 46/46/46
f 51/51/51 50/50/50 49/49/49
f 54/54/54 53/53/53 52/52/52
f 57/57/57 56/56/56 55/55/55
f 56/56/56 57/57/57 58/58/58
f 57/57/57 59/59/59 58/58/58
f 60/60/60 56/56/56 58/58/58
f 60/60/60 61/61/61 56/56/56
f 62/62/62 61/61/61 60/60/60
f 65/65/65 64/64/64 63/63/63
f 65/65/65 66/66/66 64/64/64
f 67/67/67 66/66/66 65/65/65
f 68/68/68 66/66/66 67/67/67
f 69/69/69 68/68/68 67/67/67
f 66/66/66 68/68/68 70/70/70
f 73/73/73 72/72/72 71/71/71
f 74/74/74 73/73/73 71/71/71
f 77/77/77 76/76/76 75/75/75
f 76/76/76 78/78/78 75/75/75
f 79/79/79 78/78/78 76/76/76
f 78/78/78 79/79/79 80/80/80
f 78/78/78 81/81/81 75/75/75
f 82/82/82 78/78/78 80/80/80
f 82/82/82 80/80/80 83/83/83
f 81/81/81 84/84/84 75/75/75
f 85/85/85 82/82/82 83/83/83
f 81/81/81 85/85/85 84/84/84
f 86/86/86 85/85/85 83/83/83
f 85/85/85 86/86/86 84/84/84
f 87/87/87 84/84/84 86/86/86
f 90/90/90 89/89/89 88/88/88
f 91/91/91 90/90/90 88/88/88
f 94/94/94 93/93/93 92/92/92
f 94/94/94 95/95/95 93/93/93
f 93/93/93 95/95/95 96/96/96
f 97/97/97 93/93/93 96/96/96
f 95/95/95 98/98/98 96/96/96
f 99/99/99 96/96/96 98/98/98
f 100/100/100 99/99/99 98/98/98
f 101/101/101 99/99/99 100/100/100
f 102/102/102 101/101/101 100/100/100
f 103/103/103 101/101/101 102/102/102
f 95/95/95 94/94/94 104/104/104
f 98/98/98 95/95/95 105/105/105
f 95/95/95 104/104/104 105/105/105
f 106/106/106 100/100/100 98/98/98
f 98/98/98 105/105/105 106/106/106
f 100/100/100 107/107/107 102/102/102
f 106/106/106 107/107/107 100/100/100
f 102/102/102 108/108/108 103/103/103
f 107/107/107 108/108/108 102/102/102
f 107/107/107 106/106/106 109/109/109
f 106/106/106 105/105/105 109/109/109
f 103/103/103 108/108/108 110/110/110
f 111/111/111 103/103/103 110/110/110
f 107/107/107 112/112/112 108/108/108
f 109/109/109 112/112/112 107/107/107
f 112/112/112 110/110/110 108/108/108
f 109/109/109 105/105/105 113/113/113
f 114/114/114 112/112/112 109/109/109
f 113/113/113 114/114/114 115/115/115
f 110/110/110 116/116/116 111/111/111
f 116/116/116 117/117/117 111/111/111
f 112/112/112 118/118/118 110/110/110
f 118/118/118 116/116/116 110/110/110
f 105/105/105 119/119/119 113/113/113
f 104/104/104 119/119/119 105/105/105
f 120/120/120 113/113/113 119/119/119
f 119/119/119 104/104/104 120/120/120
f 120/120/120 121/121/121 113/113/113
f 121/121/121 114/114/114 113/113/113
f 104/104/104 122/122/122 120/120/120
f 121/121/121 123/123/123 114/114/114
f 114/114/114 124/124/124 112/112/112
f 123/123/123 124/124/124 114/114/114
f 112/112/112 124/124/124 118/118/118
f 123/123/123 125/125/125 124/124/124
f 125/125/125 118/118/118 124/124/124
f 125/125/125 126/126/126 118/118/118
f 104/104/104 127/127/127 122/122/122
f 127/127/127 128/128/128 122/122/122
f 94/94/94 127/127/127 104/104/104
f 128/128/128 127/127/127 129/129/129
f 129/129/129 127/127/127 94/94/94
f 126/126/126 130/130/130 118/118/118
f 130/130/130 126/126/126 131/131/131
f 118/118/118 130/130/130 116/116/116
f 132/132/132 130/130/130 131/131/131
f 131/131/131 133/133/133 132/132/132
f 134/134/134 116/116/116 130/130/130
f 132/132/132 134/134/134 130/130/130
f 134/134/134 135/135/135 116/116/116
f 116/116/116 135/135/135 117/117/117
f 117/117/117 135/135/135 136/136/136
f 134/134/134 137/137/137 135/135/135
f 135/135/135 137/137/137 136/136/136
f 132/132/132 137/137/137 134/134/134
f 138/138/138 136/136/136 137/137/137
f 132/132/132 139/139/139 137/137/137
f 133/133/133 139/139/139 132/132/132
f 139/139/139 140/140/140 137/137/137
f 139/139/139 141/141/141 140/140/140
f 141/141/141 139/139/139 133/133/133
f 142/142/142 141/141/141 133/133/133
f 145/145/145 144/144/144 143/143/143
f 144/144/144 145/145/145 146/146/146
f 149/149/149 148/148/148 147/147/147
f 147/147/147 148/148/148 150/150/150
f 153/153/153 152/152/152 151/151/151
f 154/154/154 152/152/152 153/153/153
f 155/155/155 152/152/152 154/154/154
f 156/156/156 152/152/152 155/155/155
f 157/157/157 152/152/152 156/156/156
f 160/160/160 159/159/159 158/158/158
f 161/161/161 160/160/160 158/158/158
f 160/160/160 161/161/161 162/162/162
f 163/163/163 160/160/160 162/162/162
f 166/166/166 165/165/165 164/164/164
f 167/167/167 166/166/166 164/164/164
f 170/170/170 169/169/169 168/168/168
f 171/171/171 170/170/170 168/168/168
f 174/174/174 173/173/173 172/172/172
f 175/175/175 174/174/174 172/172/172
f 176/176/176 175/175/175 172/172/172
f 177/177/177 176/176/176 172/172/172
f 180/180/180 179/179/179 178/178/178
f 181/181/181 180/180/180 178/178/178
f 184/184/184 183/183/183 182/182/182
f 185/185/185 184/184/184 182/182/182
f 188/188/188 187/187/187 186/186/186
f 189/189/189 188/188/188 186/186/186
f 192/192/192 191/191/191 190/190/190
f 192/192/192 190/190/190 193/193/193
f 192/192/192 194/194/194 191/191/191
f 195/195/195 192/192/192 193/193/193
f 194/194/194 196/196/196 191/191/191
f 195/195/195 193/193/193 197/197/197
f 194/194/194 198/198/198 196/196/196
f 198/198/198 195/195/195 197/197/197
f 196/196/196 198/198/198 197/197/197
