g classname=mesh.012
v 0.132457 3.916031 -0.20447
v -0.1129057 3.955126 -0.20447
v -0.1129057 3.916031 -0.20447
v 0.132457 3.955126 -0.20447
v 0.132457 3.955126 0.204468
v -0.1129057 3.916031 0.204468
v -0.1129057 3.955126 0.204468
v 0.132457 3.916031 0.204468
v 0.132457 3.916031 -0.20447
v -0.1129057 3.916031 0.204468
v 0.132457 3.916031 0.204468
v -0.1129057 3.916031 -0.20447
v -0.1129057 3.955126 -0.20447
v 0.132457 3.955126 0.204468
v -0.1129057 3.955126 0.204468
v 0.132457 3.955126 -0.20447
v 0.132457 3.916031 -0.20447
v 0.132457 3.955126 0.204468
v 0.132457 3.955126 -0.20447
v 0.132457 3.916031 0.204468
v -0.1129057 3.916031 0.204468
v -0.1129057 3.955126 -0.20447
v -0.1129057 3.955126 0.204468
v -0.1129057 3.916031 -0.20447
v 0.132457 3.916031 -8.056078
v -0.1129057 3.955126 -8.056078
v -0.1129057 3.916031 -8.056078
v 0.132457 3.955126 -8.056078
v 0.132457 3.955126 -7.64714
v -0.1129057 3.916031 -7.64714
v -0.1129057 3.955126 -7.64714
v 0.132457 3.916031 -7.64714
v 0.132457 3.916031 -8.056078
v -0.1129057 3.916031 -7.64714
v 0.132457 3.916031 -7.64714
v -0.1129057 3.916031 -8.056078
v -0.1129057 3.955126 -8.056078
v 0.132457 3.955126 -7.64714
v -0.1129057 3.955126 -7.64714
v 0.132457 3.955126 -8.056078
v 0.132457 3.916031 -8.056078
v 0.132457 3.955126 -7.64714
v 0.132457 3.955126 -8.056078
v 0.132457 3.916031 -7.64714
v -0.1129057 3.916031 -7.64714
v -0.1129057 3.955126 -8.056078
v -0.1129057 3.955126 -7.64714
v -0.1129057 3.916031 -8.056078
v 0.132457 3.916031 7.64714
v -0.1129057 3.955126 7.64714
v -0.1129057 3.916031 7.64714
v 0.132457 3.955126 7.64714
v 0.132457 3.955126 8.056078
v -0.1129057 3.916031 8.056078
v -0.1129057 3.955126 8.056078
v 0.132457 3.916031 8.056078
v 0.132457 3.916031 7.64714
v -0.1129057 3.916031 8.056078
v 0.132457 3.916031 8.056078
v -0.1129057 3.916031 7.64714
v -0.1129057 3.955126 7.64714
v 0.132457 3.955126 8.056078
v -0.1129057 3.955126 8.056078
v 0.132457 3.955126 7.64714
v 0.132457 3.916031 7.64714
v 0.132457 3.955126 8.056078
v 0.132457 3.955126 7.64714
v 0.132457 3.916031 8.056078
v -0.1129057 3.916031 8.056078
v -0.1129057 3.955126 7.64714
v -0.1129057 3.955126 8.056078
v -0.1129057 3.916031 7.64714
vt -7.13255 0.861852
vt -7.15076 0.747523
vt -7.13255 0.747523
vt -7.15076 0.861852
vt -6.99356 0.866616
vt -6.97534 0.752287
vt -6.99356 0.752287
vt -6.97534 0.866616
vt -1.33861 0.861852
vt -1.14806 0.747523
vt -1.14806 0.861852
vt -1.33861 0.747523
vt -1.33861 0.747523
vt -1.14806 0.861852
vt -1.14806 0.747523
vt -1.33861 0.861852
vt -1.78723 -4.60732
vt -1.59668 -4.62554
vt -1.78723 -4.62554
vt -1.59668 -4.60732
vt -1.59668 -4.60732
vt -1.78723 -4.62554
vt -1.59668 -4.62554
vt -1.78723 -4.60732
vt -7.13255 0.861852
vt -7.15076 0.747523
vt -7.13255 0.747523
vt -7.15076 0.861852
vt -6.99356 0.866616
vt -6.97534 0.752287
vt -6.99356 0.752287
vt -6.97534 0.866616
vt -1.33861 0.861852
vt -1.14806 0.747523
vt -1.14806 0.861852
vt -1.33861 0.747523
vt -1.33861 0.747523
vt -1.14806 0.861852
vt -1.14806 0.747523
vt -1.33861 0.861852
vt -1.78723 -4.60732
vt -1.59668 -4.62554
vt -1.78723 -4.62554
vt -1.59668 -4.60732
vt -1.59668 -4.60732
vt -1.78723 -4.62554
vt -1.59668 -4.62554
vt -1.78723 -4.60732
vt -7.13255 0.861852
vt -7.15076 0.747523
vt -7.13255 0.747523
vt -7.15076 0.861852
vt -6.99356 0.866616
vt -6.97534 0.752287
vt -6.99356 0.752287
vt -6.97534 0.866616
vt -1.33861 0.861852
vt -1.14806 0.747523
vt -1.14806 0.861852
vt -1.33861 0.747523
vt -1.33861 0.747523
vt -1.14806 0.861852
vt -1.14806 0.747523
vt -1.33861 0.861852
vt -1.78723 -4.60732
vt -1.59668 -4.62554
vt -1.78723 -4.62554
vt -1.59668 -4.60732
vt -1.59668 -4.60732
vt -1.78723 -4.62554
vt -1.59668 -4.62554
vt -1.78723 -4.60732
vn 0 0 -1
vn 0 0 -1
vn 0 0 -1
vn 0 0 -1
vn 0 0 1
vn 0 0 1
vn 0 0 1
vn 0 0 1
vn 0 -1 0
vn 0 -1 0
vn 0 -1 0
vn 0 -1 0
vn 0 1 0
vn 0 1 0
vn 0 1 0
vn 0 1 0
vn 1 0 0
vn 1 0 0
vn 1 0 0
vn 1 0 0
vn -1 0 0
vn -1 0 0
vn -1 0 0
vn -1 0 0
vn 0 0 -1
vn 0 0 -1
vn 0 0 -1
vn 0 0 -1
vn 0 0 1
vn 0 0 1
vn 0 0 1
vn 0 0 1
vn 0 -1 0
vn 0 -1 0
vn 0 -1 0
vn 0 -1 0
vn 0 1 0
vn 0 1 0
vn 0 1 0
vn 0 1 0
vn 1 0 0
vn 1 0 0
vn 1 0 0
vn 1 0 0
vn -1 0 0
vn -1 0 0
vn -1 0 0
vn -1 0 0
vn 0 0 -1
vn 0 0 -1
vn 0 0 -1
vn 0 0 -1
vn 0 0 1
vn 0 0 1
vn 0 0 1
vn 0 0 1
vn 0 -1 0
vn 0 -1 0
vn 0 -1 0
vn 0 -1 0
vn 0 1 0
vn 0 1 0
vn 0 1 0
vn 0 1 0
vn 1 0 0
vn 1 0 0
vn 1 0 0
vn 1 0 0
vn -1 0 0
vn -1 0 0
vn -1 0 0
vn -1 0 0
g classname=mesh.012_0
f 3/3/3 2/2/2 1/1/1
f 2/2/2 4/4/4 1/1/1
f 7/7/7 6/6/6 5/5/5
f 6/6/6 8/8/8 5/5/5
f 11/11/11 10/10/10 9/9/9
f 10/10/10 12/12/12 9/9/9
f 15/15/15 14/14/14 13/13/13
f 14/14/14 16/16/16 13/13/13
f 19/19/19 18/18/18 17/17/17
f 18/18/18 20/20/20 17/17/17
f 23/23/23 22/22/22 21/21/21
f 22/22/22 24/24/24 21/21/21
f 27/27/27 26/26/26 25/25/25
f 26/26/26 28/28/28 25/25/25
f 31/31/31 30/30/30 29/29/29
f 30/30/30 32/32/32 29/29/29
f 35/35/35 34/34/34 33/33/33
f 34/34/34 36/36/36 33/33/33
f 39/39/39 38/38/38 37/37/37
f 38/38/38 40/40/40 37/37/37
f 43/43/43 42/42/42 41/41/41
f 42/42/42 44/44/44 41/41/41
f 47/47/47 46/46/46 45/45/45
f 46/46/46 48/48/48 45/45/45
f 51/51/51 50/50/50 49/49/49
f 50/50/50 52/52/52 49/49/49
f 55/55/55 54/54/54 53/53/53
f 54/54/54 56/56/56 53/53/53
f 59/59/59 58/58/58 57/57/57
f 58/58/58 60/60/60 57/57/57
f 63/63/63 62/62/62 61/61/61
f 62/62/62 64/64/64 61/61/61
f 67/67/67 66/66/66 65/65/65
f 66/66/66 68/68/68 65/65/65
f 71/71/71 70/70/70 69/69/69
f 70/70/70 72/72/72 69/69/69
