g classname=brush
v -2.24 3.5 10
v -2.22 3.54 10
v -2.22 3.5 10
v -2.24 3.54 10
v 2.24 3.5 9.92
v 2.24 3.54 9.9
v 2.24 3.5 9.9
v 2.24 3.54 9.92
v -2.28 3.54 9.92
v -2.28 3.5 9.9
v -2.28 3.54 9.9
v -2.28 3.5 9.92
v 2.24 3.5 9.92
v -2.28 3.5 9.9
v -2.28 3.5 9.92
v 2.24 3.5 9.9
v 2.24 3.54 9.9
v -2.28 3.54 9.92
v -2.28 3.54 9.9
v 2.24 3.54 9.92
v 2.24 3.5 9.92
v -2.28 3.54 9.92
v 2.24 3.54 9.92
v -2.28 3.5 9.92
v -2.28 3.5 9.9
v 2.24 3.54 9.9
v -2.28 3.54 9.9
v 2.24 3.5 9.9
v 2.24 3.54 9.92
v 2.22 3.5 9.92
v 2.22 3.54 9.92
v 2.24 3.5 9.92
v 2.24 3.52 10.24
v 2.24 7.04 9.92
v 2.24 3.52 9.92
v 2.24 7.04 10.24
v -2.28 3.52 10.24
v 2.24 3.52 9.92
v -2.28 3.52 9.92
v 2.24 3.52 10.24
v -2.28 7.04 9.92
v 2.24 7.04 10.24
v -2.28 7.04 10.24
v 2.24 7.04 9.92
v -2.28 7.04 9.92
v 2.24 3.52 9.92
v 2.24 7.04 9.92
v -2.28 3.52 9.92
v -2.28 7.04 10.24
v -2.28 3.52 9.92
v -2.28 7.04 9.92
v -2.28 3.52 10.24
v 2.56 3.52 9.92
v -2.26 3.52 10.24
v -2.26 3.52 9.92
v 2.56 3.52 10.24
v -2.26 3.52 9.92
v -2.26 3.2 10.24
v -2.26 3.2 9.92
v -2.26 3.52 10.24
v -2.26 3.2 9.92
v 2.56 3.52 9.92
v -2.26 3.52 9.92
v 2.56 3.2 9.92
v 2.56 0 9.92
v 0.96 3.2 9.92
v 0.96 0 9.92
v 2.56 3.2 10.24
v -2.26 3.2 9.92
v -2.26 3.2 10.24
v 2.56 3.2 9.92
v 0.96 0 9.92
v 2.56 0 10.24
v 2.56 0 9.92
v 0.96 0 10.24
v 0.96 3.2 10.24
v 2.56 3.2 9.92
v 2.56 3.2 10.24
v 0.96 3.2 9.92
v 0.96 3.2 10.24
v 0.96 0 9.92
v 0.96 3.2 9.92
v 0.96 0 10.24
v -0.96 0 10.24
v -2.56 0 9.92
v -2.56 0 10.24
v -0.96 0 9.92
v -0.96 0 9.92
v -2.56 3.2 9.92
v -2.56 0 9.92
v -0.96 3.2 9.92
v -0.96 3.2 9.92
v -2.56 3.2 10.24
v -2.56 3.2 9.92
v -0.96 3.2 10.24
v -0.96 3.2 9.92
v -0.96 0 10.24
v -0.96 3.2 10.24
v -0.96 0 9.92
vt -0.875 3.00391
vt -0.867188 3.01953
vt -0.867188 3.00391
vt -0.875 3.01953
vt -0.875 3.00391
vt -0.867188 3.01953
vt -0.867188 3.00391
vt -0.875 3.01953
vt -0.875 3.01953
vt -0.867188 3.00391
vt -0.867188 3.01953
vt -0.875 3.00391
vt 3.75 -5.23828
vt 1.98438 -5.23047
vt 1.98438 -5.23828
vt 3.75 -5.23047
vt 3.875 0.644532
vt 2.10938 0.636719
vt 2.10938 0.644532
vt 3.875 0.636719
vt 3.75 3.00391
vt 1.98438 3.01953
vt 3.75 3.01953
vt 1.98438 3.00391
vt 1.98438 3.00391
vt 3.75 3.01953
vt 1.98438 3.01953
vt 3.75 3.00391
vt 0.875 3.01953
vt 0.867187 3.00391
vt 0.867187 3.01953
vt 0.875 3.00391
vt -2.8224 2.03433
vt -2.73438 3.00264
vt -2.73438 2.03433
vt -2.8224 3.00264
vt -0.627201 1.3246
vt 0.616197 1.41263
vt -0.627201 1.41263
vt 0.616197 1.3246
vt -0.627201 1.41263
vt 0.616197 1.3246
vt -0.627201 1.3246
vt 0.616197 1.41263
vt -0.627201 3.00264
vt 0.616197 2.03433
vt 0.616197 3.00264
vt -0.627201 2.03433
vt -2.8224 3.00264
vt -2.73438 2.03433
vt -2.73438 3.00264
vt -2.8224 2.03433
vt 0.704226 -1.78114
vt -0.621699 -1.86917
vt -0.621699 -1.78114
vt 0.704226 -1.86917
vt -2.72887 1.91604
vt -2.8169 1.82801
vt -2.72887 1.82801
vt -2.8169 1.91604
vt -0.621699 1.82801
vt 0.704225 1.91604
vt -0.621699 1.91604
vt 0.704225 1.82801
vt 0.704225 0.947733
vt 0.264085 1.82801
vt 0.264085 0.947733
vt 0.704226 -1.86917
vt -0.621699 -1.78114
vt -0.621699 -1.86917
vt 0.704226 -1.78114
vt 0.264085 -1.78114
vt 0.704226 -1.86917
vt 0.704226 -1.78114
vt 0.264085 -1.86917
vt 0.264085 -1.86917
vt 0.704226 -1.78114
vt 0.704226 -1.86917
vt 0.264085 -1.78114
vt -2.8169 1.82801
vt -2.72887 0.947733
vt -2.72887 1.82801
vt -2.8169 0.947733
vt -0.264084 -1.86917
vt -0.704225 -1.78114
vt -0.704225 -1.86917
vt -0.264084 -1.78114
vt -0.264085 0.947733
vt -0.704225 1.82801
vt -0.704225 0.947733
vt -0.264085 1.82801
vt -0.264084 -1.78114
vt -0.704225 -1.86917
vt -0.704225 -1.78114
vt -0.264084 -1.86917
vt -2.72887 1.82801
vt -2.8169 0.947733
vt -2.8169 1.82801
vt -2.72887 0.947733
vn 0 0 1
vn 0 0 1
vn 0 0 1
vn 0 0 1
vn 1 0 0
vn 1 0 0
vn 1 0 0
vn 1 0 0
vn -1 0 0
vn -1 0 0
vn -1 0 0
vn -1 0 0
vn 0 -1 0
vn 0 -1 0
vn 0 -1 0
vn 0 -1 0
vn 0 1 0
vn 0 1 0
vn 0 1 0
vn 0 1 0
vn 0 0 1
vn 0 0 1
vn 0 0 1
vn 0 0 1
vn 0 0 -1
vn 0 0 -1
vn 0 0 -1
vn 0 0 -1
vn 0 0 1
vn 0 0 1
vn 0 0 1
vn 0 0 1
vn 1 0 0
vn 1 0 0
vn 1 0 0
vn 1 0 0
vn 0 -1 0
vn 0 -1 0
vn 0 -1 0
vn 0 -1 0
vn 0 1 0
vn 0 1 0
vn 0 1 0
vn 0 1 0
vn 0 0 -1
vn 0 0 -1
vn 0 0 -1
vn 0 0 -1
vn -1 0 0
vn -1 0 0
vn -1 0 0
vn -1 0 0
vn 0 1 0
vn 0 1 0
vn 0 1 0
vn 0 1 0
vn -1 0 0
vn -1 0 0
vn -1 0 0
vn -1 0 0
vn 0 0 -1
vn 0 0 -1
vn 0 0 -1
vn 0 0 -1
vn 0 0 -1
vn 0 0 -1
vn 0 0 -1
vn 0 -1 0
vn 0 -1 0
vn 0 -1 0
vn 0 -1 0
vn 0 -1 0
vn 0 -1 0
vn 0 -1 0
vn 0 -1 0
vn 0 1 0
vn 0 1 0
vn 0 1 0
vn 0 1 0
vn -1 0 0
vn -1 0 0
vn -1 0 0
vn -1 0 0
vn 0 -1 0
vn 0 -1 0
vn 0 -1 0
vn 0 -1 0
vn 0 0 -1
vn 0 0 -1
vn 0 0 -1
vn 0 0 -1
vn 0 1 0
vn 0 1 0
vn 0 1 0
vn 0 1 0
vn 1 0 0
vn 1 0 0
vn 1 0 0
vn 1 0 0
g classname=brush_0
f 3/3/3 2/2/2 1/1/1
f 2/2/2 4/4/4 1/1/1
f 7/7/7 6/6/6 5/5/5
f 6/6/6 8/8/8 5/5/5
f 11/11/11 10/10/10 9/9/9
f 10/10/10 12/12/12 9/9/9
f 15/15/15 14/14/14 13/13/13
f 14/14/14 16/16/16 13/13/13
f 19/19/19 18/18/18 17/17/17
f 18/18/18 20/20/20 17/17/17
f 23/23/23 22/22/22 21/21/21
f 22/22/22 24/24/24 21/21/21
f 27/27/27 26/26/26 25/25/25
f 26/26/26 28/28/28 25/25/25
f 31/31/31 30/30/30 29/29/29
f 30/30/30 32/32/32 29/29/29
g classname=brush_1
f 35/35/35 34/34/34 33/33/33
f 34/34/34 36/36/36 33/33/33
f 39/39/39 38/38/38 37/37/37
f 38/38/38 40/40/40 37/37/37
f 43/43/43 42/42/42 41/41/41
f 42/42/42 44/44/44 41/41/41
f 47/47/47 46/46/46 45/45/45
f 46/46/46 48/48/48 45/45/45
f 51/51/51 50/50/50 49/49/49
f 50/50/50 52/52/52 49/49/49
f 55/55/55 54/54/54 53/53/53
f 54/54/54 56/56/56 53/53/53
f 59/59/59 58/58/58 57/57/57
f 58/58/58 60/60/60 57/57/57
f 63/63/63 62/62/62 61/61/61
f 62/62/62 64/64/64 61/61/61
f 66/66/66 64/64/64 65/65/65
f 67/67/67 66/66/66 65/65/65
f 70/70/70 69/69/69 68/68/68
f 69/69/69 71/71/71 68/68/68
f 74/74/74 73/73/73 72/72/72
f 73/73/73 75/75/75 72/72/72
f 78/78/78 77/77/77 76/76/76
f 77/77/77 79/79/79 76/76/76
f 82/82/82 81/81/81 80/80/80
f 81/81/81 83/83/83 80/80/80
f 86/86/86 85/85/85 84/84/84
f 85/85/85 87/87/87 84/84/84
f 90/90/90 89/89/89 88/88/88
f 89/89/89 91/91/91 88/88/88
f 94/94/94 93/93/93 92/92/92
f 93/93/93 95/95/95 92/92/92
f 98/98/98 97/97/97 96/96/96
f 97/97/97 99/99/99 96/96/96
