g classname_mesh
v -16.1876 -0.384659 33.5801
v -0.044238 -0.384674 37.2647
v -0.044238 25.6049 0.057888
v -29.1338 -0.384689 23.2559
v -36.3181 -0.384674 8.33712
v -36.3181 -0.384659 -8.2215
v -29.1338 -0.384674 -23.1404
v -16.1876 -0.384674 -33.4644
v -0.044238 -0.384674 -37.1489
v 16.0992 -0.384659 33.5801
v -0.044238 25.6049 0.057888
v -0.044238 -0.384674 37.2647
v 29.0453 -0.384689 23.2559
v 36.2297 -0.384674 8.33712
v 36.2297 -0.384659 -8.2215
v 29.0453 -0.384674 -23.1404
v 16.0992 -0.384674 -33.4644
v -0.044238 -0.384674 -37.1489
v 12.3273 37.627 4.07756
v 7.60184 37.627 10.5817
v -0.044238 37.627 13.066
v 12.3273 37.627 -3.96194
v -7.69032 37.627 10.5817
v 7.60184 37.627 -10.4658
v -12.4158 37.627 4.07756
v -0.044238 37.627 -12.9502
v -12.4158 37.627 -3.96194
v -7.69032 37.627 -10.4658
v 7.60184 37.627 10.5817
v -0.044238 17.9411 15.229
v -0.044238 37.627 13.066
v 8.87298 17.9411 12.3315
v 12.3273 37.627 4.07756
v 14.3842 17.9411 4.74606
v 12.3273 37.627 -3.96194
v 14.3842 17.9411 -4.63014
v 7.60184 37.627 -10.4658
v 8.87298 17.9411 -12.2157
v -0.044238 37.627 -12.9502
v -0.044238 17.941 -15.1131
v -8.96146 17.9411 -12.2157
v -7.69032 37.627 -10.4658
v -14.4727 17.9411 -4.63014
v -12.4158 37.627 -3.96194
v -14.4727 17.9411 4.74606
v -12.4158 37.627 4.07756
v -8.96146 17.9411 12.3315
v -7.69032 37.627 10.5817
v -0.044238 17.9411 15.229
v -0.044238 37.627 13.066
v -16.1876 -0.384659 33.5801
v -0.044238 8.92479 30.8074
v -0.044238 -0.384674 37.2647
v -13.3859 8.92475 27.7623
v -29.1338 -0.384689 23.2559
v -8.96146 17.9411 12.3315
v -0.044238 17.9411 15.229
v -24.0851 8.92476 19.2298
v -36.3181 -0.384674 8.33712
v -14.4727 17.9411 4.74606
v -30.0228 8.92478 6.90041
v -36.3181 -0.384659 -8.2215
v -14.4727 17.9411 -4.63014
v -30.0228 8.92477 -6.78449
v -29.1338 -0.384674 -23.1404
v -24.0851 8.92477 -19.1139
v -8.96146 17.9411 -12.2157
v -24.0851 8.92477 -19.1139
v -16.1876 -0.384674 -33.4644
v -13.3859 8.92479 -27.6464
v -8.96146 17.9411 -12.2157
v -0.044238 -0.384674 -37.1489
v -0.044238 17.941 -15.1131
v -0.044238 8.92478 -30.6916
v 16.0992 -0.384674 -33.4644
v 13.2974 8.92479 -27.6464
v 8.87298 17.9411 -12.2157
v 13.2974 8.92479 -27.6464
v 29.0453 -0.384674 -23.1404
v 23.9967 8.92477 -19.1139
v 8.87298 17.9411 -12.2157
v 36.2297 -0.384659 -8.2215
v 14.3842 17.9411 -4.63014
v 29.9343 8.92477 -6.78449
v 36.2297 -0.384674 8.33712
v 29.9343 8.92478 6.90041
v 14.3842 17.9411 4.74606
v 29.0453 -0.384689 23.2559
v 23.9967 8.92476 19.2298
v 16.0992 -0.384659 33.5801
v 8.87298 17.9411 12.3315
v 13.2974 8.92475 27.7623
v -0.044238 -0.384674 37.2647
v -0.044238 8.92479 30.8074
v -0.044238 17.9411 15.229
v -0.044238 132.851 0.553556
v -0.684488 132.851 -0.086566
v -0.044238 132.851 -0.726777
v 0.596012 132.851 -0.086566
v -0.044238 132.851 -0.726777
v -0.684488 132.851 -0.086566
v -0.684488 36.8155 -0.086585
v -0.044238 36.8155 -0.726787
v -0.684488 132.851 -0.086566
v -0.044238 36.815 0.553545
v -0.684488 36.8155 -0.086585
v -0.044238 132.851 0.553556
v 0.596012 36.8155 -0.086585
v 0.596012 132.851 -0.086566
v 0.596012 132.851 -0.086566
v -0.044238 132.851 -0.726777
v -0.044238 36.8155 -0.726787
v 0.596012 36.8155 -0.086585
v 4.64278 11.3241 -8.06053
v -0.044238 14.0302 -10.7667
v -0.044238 11.3241 -9.31643
v 5.36792 14.0302 -9.31635
v -0.044238 22.3598 -5.71094
v 8.074 11.324 -4.62938
v 4.95166 22.3598 -2.82655
v 9.33006 14.0303 -5.35426
v 9.33006 11.3241 0.057928
v 10.7803 14.0303 0.057907
v 8.074 11.3241 4.74495
v 4.95166 22.3598 2.94242
v 9.33006 14.0303 5.47007
v 4.64278 11.3241 8.17613
v 5.36792 14.0302 9.43224
v -0.044238 22.3598 5.82681
v -0.044238 11.324 9.43228
v -0.044238 14.0303 10.8825
v -0.044238 22.3598 5.82681
v -0.044238 14.0303 10.8825
v -5.4564 14.0302 9.43224
v -5.04014 22.3598 2.94242
v -4.73126 11.3241 8.17613
v -0.044238 11.324 9.43228
v -9.41854 14.0303 5.47007
v -8.16248 11.3241 4.74495
v -10.8688 14.0303 0.057907
v -5.04014 22.3598 -2.82655
v -9.41854 11.3241 0.057928
v -2.75032 9.34313 4.74496
v -4.73126 9.34316 2.76409
v -0.044238 9.34313 5.47005
v 4.64278 11.3241 8.17613
v -5.4564 9.34315 0.057868
v -0.044238 8.61798 0.057888
v 2.66184 9.34313 4.74496
v -4.73126 9.34313 -2.64814
v 8.074 11.3241 4.74495
v 4.64278 9.34316 2.76409
v 9.33006 11.3241 0.057928
v 5.36792 9.34315 0.057868
v 8.074 11.324 -4.62938
v 4.64278 9.34313 -2.64814
v 4.64278 11.3241 -8.06053
v 2.66184 9.34317 -4.62936
v -0.044238 11.3241 -9.31643
v -0.044238 9.34309 -5.3543
v -4.73126 11.3241 -8.06053
v -2.75032 9.34317 -4.62936
v -8.16248 11.324 -4.62938
v -9.41854 14.0303 -5.35426
v -5.4564 14.0302 -9.31635
v -0.044238 11.3241 -9.31643
v -0.044238 22.3598 -5.71094
v -0.044238 14.0302 -10.7667
vt 0.4287 0.3659
vt 0.3951 0.4389
vt 0.7006 0.5256
vt 0.4753 0.3018
vt 0.5431 0.2535
vt 0.616 0.2205
vt 0.6992 0.21
vt 0.7787 0.2193
vt 0.854 0.2484
vt 0.4287 0.3659
vt 0.7006 0.5256
vt 0.3951 0.4389
vt 0.4753 0.3018
vt 0.5431 0.2535
vt 0.616 0.2205
vt 0.6992 0.21
vt 0.7787 0.2193
vt 0.854 0.2484
vt 0.6516 0.9127
vt 0.6854 0.8882
vt 0.6983 0.8485
vt 0.61 0.9127
vt 0.6854 0.8089
vt 0.5762 0.8882
vt 0.6516 0.7844
vt 0.5633 0.8485
vt 0.61 0.7844
vt 0.5762 0.8089
vt 0.4782 0.2145
vt 0.4071 0.0193
vt 0.4396 0.2196
vt 0.4519 0.0133
vt 0.5178 0.2086
vt 0.4962 0.0079
vt 0.5556 0.2056
vt 0.5429 0.00389999
vt 0.5955 0.2031
vt 0.589 0.00330001
vt 0.6354 0.2031
vt 0.6351 0.0025
vt 0.6807 0.00230002
vt 0.674 0.2034
vt 0.7282 0.00330001
vt 0.7128 0.2053
vt 0.7728 0.00709999
vt 0.7522 0.2091
vt 0.8197 0.0131
vt 0.7921 0.2145
vt 0.8575 0.0198
vt 0.8305 0.2196
vt 0.1935 0.8264
vt 0.2846 0.9122
vt 0.1919 0.9059
vt 0.2851 0.8465
vt 0.2202 0.7456
vt 0.408 0.851
vt 0.4049 0.8969
vt 0.3053 0.7797
vt 0.266 0.6713
vt 0.4327 0.8009
vt 0.3407 0.7245
vt 0.3182 0.6025
vt 0.4669 0.7597
vt 0.379 0.6761
vt 0.3882 0.5536
vt 0.4361 0.6365
vt 0.5191 0.7362
vt 0.4361 0.6365
vt 0.4754 0.5229
vt 0.4964 0.6169
vt 0.5191 0.7362
vt 0.5596 0.5091
vt 0.5698 0.7279
vt 0.5596 0.6077
vt 0.6442 0.5148
vt 0.6295 0.6124
vt 0.6171 0.7331
vt 0.6295 0.6124
vt 0.7346 0.5437
vt 0.6898 0.6332
vt 0.6171 0.7331
vt 0.8134 0.6041
vt 0.6557 0.757
vt 0.7446 0.6747
vt 0.8686 0.6764
vt 0.7872 0.7274
vt 0.6894 0.796
vt 0.9062 0.755
vt 0.8129 0.7887
vt 0.9237 0.8364
vt 0.707 0.8463
vt 0.8262 0.8522
vt 0.9257 0.913
vt 0.827 0.9144
vt 0.7097 0.8903
vt 0.8579 0.3154
vt 0.8476 0.3154
vt 0.8476 0.3052
vt 0.8579 0.3052
vt 0.8268 0.3154
vt 0.8372 0.3154
vt 0.8372 0.3555
vt 0.8268 0.3555
vt 0.8372 0.3154
vt 0.8476 0.3555
vt 0.8372 0.3555
vt 0.8476 0.3154
vt 0.8579 0.3555
vt 0.8579 0.3154
vt 0.8579 0.3154
vt 0.8683 0.3154
vt 0.8683 0.3555
vt 0.8579 0.3555
vt 0.3387 0.2092
vt 0.3003 0.2479
vt 0.3322 0.1846
vt 0.3261 0.2555
vt 0.3333 0.3352
vt 0.3567 0.2272
vt 0.3659 0.3453
vt 0.3537 0.261
vt 0.3813 0.2343
vt 0.3815 0.2622
vt 0.4063 0.2267
vt 0.3965 0.3441
vt 0.4084 0.2601
vt 0.4238 0.2092
vt 0.4367 0.2542
vt 0.4283 0.3335
vt 0.4418 0.2283
vt 0.463 0.2441
vt 0.3333 0.3352
vt 0.3003 0.2479
vt 0.3261 0.2555
vt 0.3659 0.3453
vt 0.3387 0.2092
vt 0.3322 0.1846
vt 0.3537 0.261
vt 0.3567 0.2272
vt 0.3815 0.2622
vt 0.3965 0.3441
vt 0.3813 0.2343
vt 0.3567 0.1992
vt 0.3671 0.2096
vt 0.3529 0.185
vt 0.3387 0.1601
vt 0.3813 0.2134
vt 0.3813 0.1851
vt 0.3567 0.1708
vt 0.3955 0.2096
vt 0.3567 0.1421
vt 0.3671 0.1604
vt 0.3813 0.1355
vt 0.3813 0.1566
vt 0.4058 0.1421
vt 0.3955 0.1604
vt 0.4238 0.1601
vt 0.4058 0.1708
vt 0.4304 0.1846
vt 0.4096 0.185
vt 0.4238 0.2092
vt 0.4058 0.1992
vt 0.4063 0.2267
vt 0.4084 0.2601
vt 0.4367 0.2542
vt 0.4418 0.2283
vt 0.4283 0.3335
vt 0.463 0.2441
vn 0.2484619 -0.8198028 -0.5159359
vn 0 -0.8198028 -0.5726459
vn 0 -1 0
vn 0.4477139 -0.8198029 -0.357037
vn 0.55829 -0.819802 -0.127424
vn 0.5582902 -0.8198023 0.127422
vn 0.447712 -0.819804 0.357037
vn 0.248457 -0.8198031 0.515938
vn 0 -0.819802 0.572647
vn -0.2484622 -0.8198025 -0.5159364
vn 0 -1 0
vn 0 -0.8198028 -0.5726459
vn -0.4477139 -0.8198029 -0.357037
vn -0.55829 -0.819802 -0.127424
vn -0.5582902 -0.8198023 0.127422
vn -0.447712 -0.819804 0.357037
vn -0.248457 -0.8198031 0.515938
vn 0 -0.819802 0.572647
vn 0 1 0
vn 0 1 0
vn 0 1 0
vn 0 1 0
vn 0 1 0
vn 0 1 0
vn 0 1 0
vn 0 1 0
vn 0 1 0
vn 0 1 0
vn 0.494314 0.108584 0.862475
vn 0.3073401 0.103928 0.9459074
vn 0.3073331 0.103931 0.9459094
vn 0.6675113 0.108581 0.7366403
vn 0.9068598 0.108579 0.4072049
vn 0.9730141 0.108578 0.203604
vn 0.9730135 0.1085749 -0.2036079
vn 0.9068583 0.108576 -0.4072092
vn 0.6675072 0.108579 -0.7366442
vn 0.4943171 0.108584 -0.8624732
vn 0 0.109214 -0.9940182
vn 0 0.109214 -0.9940182
vn -0.4943171 0.108584 -0.8624732
vn -0.6675072 0.108579 -0.7366442
vn -0.9068579 0.108576 -0.4072099
vn -0.9730135 0.1085749 -0.2036079
vn -0.9730141 0.108578 0.203604
vn -0.9068598 0.108579 0.4072049
vn -0.6675113 0.108581 0.7366403
vn -0.4943148 0.108584 0.8624746
vn -0.3073401 0.103928 0.9459074
vn -0.3073331 0.103931 0.9459094
vn -0.299607 0.568835 0.7659389
vn -0.1637279 0.7299337 0.6636188
vn -0.184332 0.560179 0.807602
vn -0.342271 0.7064509 0.619498
vn -0.6022642 0.5688392 0.5600892
vn -0.2489191 0.8726642 0.4201151
vn -0.160648 0.8542529 0.4944129
vn -0.5505269 0.7361498 0.3937049
vn -0.7856383 0.5688332 0.2433131
vn -0.4568619 0.8729339 0.171066
vn -0.668555 0.7368039 0.100768
vn -0.813406 0.568833 -0.121654
vn -0.469508 0.8735421 -0.1284
vn -0.6428748 0.6651317 -0.3798839
vn -0.6800587 0.5688497 -0.4625258
vn -0.2707199 0.5467409 -0.7923288
vn -0.248586 0.745602 -0.61829
vn -0.4022429 0.4847939 -0.7766438
vn -0.4120271 0.5688482 -0.7117902
vn -0.2544149 0.7363387 -0.6269597
vn -0.248586 0.745602 -0.61829
vn -0.06239301 0.5688371 -0.8200802
vn 0 0.8738115 -0.4862647
vn 0.03304301 0.6095752 -0.7920392
vn 0.299601 0.5688409 -0.7659369
vn 0.076973 0.502995 -0.860855
vn 0.248586 0.745602 -0.61829
vn 0.2855521 0.4696412 -0.8354023
vn 0.6022573 0.5688523 -0.5600833
vn 0.5505243 0.7361544 -0.3937002
vn 0.248586 0.745602 -0.61829
vn 0.7856351 0.5688391 -0.24331
vn 0.469508 0.8735421 -0.1284
vn 0.6986137 0.7051987 -0.12097
vn 0.813408 0.56883 0.121655
vn 0.6551682 0.7376842 0.163023
vn 0.4568619 0.8729339 0.171066
vn 0.6800659 0.5688369 0.462531
vn 0.5109789 0.7363209 0.443545
vn 0.412034 0.568836 0.711796
vn 0.2489191 0.8726642 0.4201151
vn 0.273417 0.706524 0.652738
vn 0.184332 0.560179 0.807602
vn 0.1548361 0.7795023 0.6069613
vn 0.160648 0.8542529 0.4944129
vn 0 1 0
vn 0.0008099997 0.9999996 0
vn 0 1 0
vn -0.0008099997 0.9999996 0
vn -0.7070827 0 -0.7071308
vn -0.7070853 0 -0.7071282
vn -0.7070827 0 -0.7071308
vn -0.7070802 0 -0.7071332
vn -0.7070383 0 0.7071753
vn -0.3161719 0 0.9487019
vn -0.7070408 0 0.7071728
vn 0.3161728 0 0.9487016
vn 0.7070383 0 0.7071753
vn 0.7070358 0 0.7071778
vn 0.7070827 0 -0.7071308
vn 0.7070853 0 -0.7071282
vn 0.7070827 0 -0.7071308
vn 0.7070802 0 -0.7071332
vn 0.371388 -0.4708771 -0.8002161
vn 0.255715 -0.154852 -0.9542697
vn 0.229851 -0.459709 -0.8578089
vn 0.538348 0.040605 -0.8417439
vn 0.3186618 0.5432618 -0.7767376
vn 0.7217311 -0.4708741 -0.5073281
vn 0.709667 0.5731419 -0.409733
vn 0.888492 -0.086238 -0.450716
vn 0.8786902 -0.4708971 -0.07848202
vn 0.9981461 0.040588 0.045354
vn 0.800198 -0.470904 0.371393
vn 0.7096674 0.5731413 0.4097332
vn 0.8345646 -0.08626197 0.5441148
vn 0.50732 -0.470924 0.7217041
vn 0.4598139 0.04057699 0.8870878
vn 0.3186589 0.5432618 0.7767388
vn 0.2298759 -0.4597138 0.8577996
vn 0.2587359 0.02631699 0.9655895
vn -0.3186589 0.5432618 0.7767388
vn -0.2557209 -0.154866 0.9542658
vn -0.5383471 0.04056901 0.8417462
vn -0.7096674 0.5731413 0.4097332
vn -0.3302362 -0.7191234 0.6113964
vn -0.09107 -0.8154531 0.571614
vn -0.8884916 -0.08625396 0.4507138
vn -0.5916698 -0.7191328 0.3643829
vn -0.9981462 0.04059201 -0.04534901
vn -0.709667 0.5731419 -0.409733
vn -0.6945922 -0.7191333 0.01972601
vn -0.141595 -0.9453676 0.2936509
vn -0.2694481 -0.9453653 0.183527
vn 0.02422201 -0.9453704 0.3250971
vn 0.1888699 -0.8937215 0.4069278
vn -0.3251019 -0.9453688 0.02421799
vn 0 -1 0
vn 0.183526 -0.945365 0.26945
vn -0.2936519 -0.9453697 -0.141579
vn 0.3670189 -0.8937207 0.2579929
vn 0.2936551 -0.9453674 0.1415881
vn 0.4468281 -0.8937291 0.039914
vn 0.3250999 -0.9453697 -0.02421099
vn 0.406915 -0.8937301 -0.188856
vn 0.2694431 -0.9453682 -0.1835191
vn 0.2579829 -0.8937258 -0.3670139
vn 0.141592 -0.9453669 -0.2936549
vn 0.03991 -0.8937231 -0.44684
vn -0.024213 -0.9453679 -0.325105
vn -0.3643831 -0.7191102 -0.5916972
vn -0.183524 -0.9453688 -0.2694379
vn -0.6114007 -0.7191226 -0.3302298
vn -0.8345631 -0.08623101 -0.544122
vn -0.4598072 0.04059801 -0.8870903
vn -0.229865 -0.4596889 -0.8578159
vn -0.3186621 0.5432622 -0.7767372
vn -0.258755 0.0263 -0.9655849
g classname_mesh_0
f 3/3/3 2/2/2 1/1/1
f 3/3/3 1/1/1 4/4/4
f 3/3/3 4/4/4 5/5/5
f 3/3/3 5/5/5 6/6/6
f 3/3/3 6/6/6 7/7/7
f 3/3/3 7/7/7 8/8/8
f 3/3/3 8/8/8 9/9/9
f 12/12/12 11/11/11 10/10/10
f 10/10/10 11/11/11 13/13/13
f 13/13/13 11/11/11 14/14/14
f 14/14/14 11/11/11 15/15/15
f 15/15/15 11/11/11 16/16/16
f 16/16/16 11/11/11 17/17/17
f 17/17/17 11/11/11 18/18/18
f 21/21/21 20/20/20 19/19/19
f 22/22/22 21/21/21 19/19/19
f 21/21/21 22/22/22 23/23/23
f 22/22/22 24/24/24 23/23/23
f 23/23/23 24/24/24 25/25/25
f 24/24/24 26/26/26 25/25/25
f 25/25/25 26/26/26 27/27/27
f 26/26/26 28/28/28 27/27/27
f 31/31/31 30/30/30 29/29/29
f 30/30/30 32/32/32 29/29/29
f 29/29/29 32/32/32 33/33/33
f 32/32/32 34/34/34 33/33/33
f 33/33/33 34/34/34 35/35/35
f 34/34/34 36/36/36 35/35/35
f 35/35/35 36/36/36 37/37/37
f 36/36/36 38/38/38 37/37/37
f 37/37/37 38/38/38 39/39/39
f 38/38/38 40/40/40 39/39/39
f 39/39/39 40/40/40 41/41/41
f 42/42/42 39/39/39 41/41/41
f 42/42/42 41/41/41 43/43/43
f 44/44/44 42/42/42 43/43/43
f 44/44/44 43/43/43 45/45/45
f 46/46/46 44/44/44 45/45/45
f 46/46/46 45/45/45 47/47/47
f 48/48/48 46/46/46 47/47/47
f 48/48/48 47/47/47 49/49/49
f 50/50/50 48/48/48 49/49/49
f 53/53/53 52/52/52 51/51/51
f 52/52/52 54/54/54 51/51/51
f 51/51/51 54/54/54 55/55/55
f 54/54/54 52/52/52 56/56/56
f 52/52/52 57/57/57 56/56/56
f 54/54/54 58/58/58 55/55/55
f 58/58/58 54/54/54 56/56/56
f 55/55/55 58/58/58 59/59/59
f 56/56/56 60/60/60 58/58/58
f 58/58/58 61/61/61 59/59/59
f 60/60/60 61/61/61 58/58/58
f 59/59/59 61/61/61 62/62/62
f 60/60/60 63/63/63 61/61/61
f 61/61/61 64/64/64 62/62/62
f 63/63/63 64/64/64 61/61/61
f 62/62/62 64/64/64 65/65/65
f 63/63/63 66/66/66 64/64/64
f 66/66/66 63/63/63 67/67/67
f 64/64/64 68/68/68 65/65/65
f 65/65/65 68/68/68 69/69/69
f 68/68/68 70/70/70 69/69/69
f 71/71/71 70/70/70 68/68/68
f 69/69/69 70/70/70 72/72/72
f 71/71/71 73/73/73 70/70/70
f 70/70/70 74/74/74 72/72/72
f 73/73/73 74/74/74 70/70/70
f 72/72/72 74/74/74 75/75/75
f 73/73/73 76/76/76 74/74/74
f 76/76/76 73/73/73 77/77/77
f 74/74/74 78/78/78 75/75/75
f 75/75/75 78/78/78 79/79/79
f 78/78/78 80/80/80 79/79/79
f 81/81/81 80/80/80 78/78/78
f 79/79/79 80/80/80 82/82/82
f 80/80/80 81/81/81 83/83/83
f 80/80/80 84/84/84 82/82/82
f 84/84/84 80/80/80 83/83/83
f 82/82/82 84/84/84 85/85/85
f 84/84/84 83/83/83 86/86/86
f 84/84/84 86/86/86 85/85/85
f 83/83/83 87/87/87 86/86/86
f 85/85/85 86/86/86 88/88/88
f 89/89/89 86/86/86 87/87/87
f 86/86/86 89/89/89 88/88/88
f 88/88/88 89/89/89 90/90/90
f 91/91/91 89/89/89 87/87/87
f 89/89/89 92/92/92 90/90/90
f 92/92/92 89/89/89 91/91/91
f 90/90/90 92/92/92 93/93/93
f 92/92/92 94/94/94 93/93/93
f 92/92/92 91/91/91 94/94/94
f 91/91/91 95/95/95 94/94/94
f 98/98/98 97/97/97 96/96/96
f 99/99/99 98/98/98 96/96/96
f 102/102/102 101/101/101 100/100/100
f 103/103/103 102/102/102 100/100/100
f 106/106/106 105/105/105 104/104/104
f 105/105/105 107/107/107 104/104/104
f 105/105/105 108/108/108 107/107/107
f 108/108/108 109/109/109 107/107/107
f 112/112/112 111/111/111 110/110/110
f 113/113/113 112/112/112 110/110/110
f 116/116/116 115/115/115 114/114/114
f 115/115/115 117/117/117 114/114/114
f 117/117/117 115/115/115 118/118/118
f 114/114/114 117/117/117 119/119/119
f 120/120/120 117/117/117 118/118/118
f 117/117/117 121/121/121 119/119/119
f 121/121/121 117/117/117 120/120/120
f 119/119/119 121/121/121 122/122/122
f 123/123/123 121/121/121 120/120/120
f 121/121/121 123/123/123 122/122/122
f 122/122/122 123/123/123 124/124/124
f 125/125/125 123/123/123 120/120/120
f 123/123/123 126/126/126 124/124/124
f 126/126/126 123/123/123 125/125/125
f 124/124/124 126/126/126 127/127/127
f 128/128/128 126/126/126 125/125/125
f 126/126/126 128/128/128 127/127/127
f 129/129/129 128/128/128 125/125/125
f 127/127/127 128/128/128 130/130/130
f 131/131/131 128/128/128 129/129/129
f 128/128/128 131/131/131 130/130/130
f 134/134/134 133/133/133 132/132/132
f 135/135/135 134/134/134 132/132/132
f 133/133/133 134/134/134 136/136/136
f 137/137/137 133/133/133 136/136/136
f 138/138/138 134/134/134 135/135/135
f 136/136/136 134/134/134 139/139/139
f 134/134/134 138/138/138 139/139/139
f 140/140/140 138/138/138 135/135/135
f 141/141/141 140/140/140 135/135/135
f 139/139/139 138/138/138 142/142/142
f 138/138/138 140/140/140 142/142/142
f 137/137/137 136/136/136 143/143/143
f 136/136/136 139/139/139 144/144/144
f 143/143/143 136/136/136 144/144/144
f 145/145/145 137/137/137 143/143/143
f 146/146/146 137/137/137 145/145/145
f 144/144/144 139/139/139 147/147/147
f 139/139/139 142/142/142 147/147/147
f 143/143/143 144/144/144 148/148/148
f 145/145/145 143/143/143 148/148/148
f 144/144/144 147/147/147 148/148/148
f 149/149/149 145/145/145 148/148/148
f 149/149/149 146/146/146 145/145/145
f 147/147/147 150/150/150 148/148/148
f 147/147/147 142/142/142 150/150/150
f 151/151/151 146/146/146 149/149/149
f 152/152/152 151/151/151 149/149/149
f 152/152/152 149/149/149 148/148/148
f 153/153/153 151/151/151 152/152/152
f 154/154/154 153/153/153 152/152/152
f 154/154/154 152/152/152 148/148/148
f 155/155/155 153/153/153 154/154/154
f 156/156/156 155/155/155 154/154/154
f 156/156/156 154/154/154 148/148/148
f 157/157/157 155/155/155 156/156/156
f 158/158/158 157/157/157 156/156/156
f 158/158/158 156/156/156 148/148/148
f 159/159/159 157/157/157 158/158/158
f 160/160/160 159/159/159 158/158/158
f 160/160/160 158/158/158 148/148/148
f 161/161/161 159/159/159 160/160/160
f 162/162/162 160/160/160 148/148/148
f 162/162/162 161/161/161 160/160/160
f 150/150/150 162/162/162 148/148/148
f 150/150/150 163/163/163 162/162/162
f 163/163/163 161/161/161 162/162/162
f 142/142/142 163/163/163 150/150/150
f 142/142/142 140/140/140 163/163/163
f 140/140/140 164/164/164 163/163/163
f 163/163/163 164/164/164 161/161/161
f 164/164/164 140/140/140 141/141/141
f 164/164/164 165/165/165 161/161/161
f 165/165/165 164/164/164 141/141/141
f 161/161/161 165/165/165 166/166/166
f 167/167/167 165/165/165 141/141/141
f 165/165/165 168/168/168 166/166/166
f 168/168/168 165/165/165 167/167/167
