g classname=brush.002
v -6.4 3.54 -9.92
v -6.38 3.5 -9.92
v -6.38 3.54 -9.92
v -6.4 3.5 -9.92
v -6.4 3.5 -9.92
v -6.4 3.54 -9.9
v -6.4 3.5 -9.9
v -6.4 3.54 -9.92
v 6.88 3.54 -9.92
v 6.88 3.5 -9.9
v 6.88 3.54 -9.9
v 6.88 3.5 -9.92
v -6.4 3.5 -9.92
v 6.88 3.5 -9.9
v 6.88 3.5 -9.92
v -6.4 3.5 -9.9
v -6.4 3.54 -9.9
v 6.88 3.54 -9.92
v 6.88 3.54 -9.9
v -6.4 3.54 -9.92
v -6.4 3.5 -9.92
v 6.88 3.54 -9.92
v -6.4 3.54 -9.92
v 6.88 3.5 -9.92
v 6.88 3.5 -9.9
v -6.4 3.54 -9.9
v 6.88 3.54 -9.9
v -6.4 3.5 -9.9
v 6.42 3.5 -9.92
v 6.4 3.54 -9.92
v 6.4 3.5 -9.92
v 6.42 3.54 -9.92
v 7.04 3.52 -10.24
v -6.56 3.52 -9.92
v 7.04 3.52 -9.92
v -6.56 3.52 -10.24
v 7.04 7.04 -9.92
v -6.56 7.04 -10.24
v 7.04 7.04 -10.24
v -6.56 7.04 -9.92
v 7.04 7.04 -9.92
v -6.56 3.52 -9.92
v -6.56 7.04 -9.92
v 7.04 3.52 -9.92
v 6.56 0 -10.72
v 4.16 0 -9.92
v 6.56 0 -9.92001
v 4.16 0 -10.72
v 6.56 3.52 -9.92001
v 4.16 3.52 -10.72
v 6.56 3.52 -10.72
v 4.16 3.52 -9.92
v 4.16 0 -9.92
v 6.56 3.52 -9.92001
v 6.56 0 -9.92001
v 4.16 3.52 -9.92
v 4.16 0 -10.72
v 4.16 3.52 -9.92
v 4.16 0 -9.92
v 4.16 3.52 -10.72
v -4.16 3.52 -10.72
v -4.16 0 -9.92001
v -4.16 3.52 -9.92001
v -4.16 0 -10.72
v -4.16 0 -10.72
v -6.56 0 -9.92
v -4.16 0 -9.92001
v -6.56 0 -10.72
v -4.16 3.52 -9.92001
v -6.56 3.52 -10.72
v -4.16 3.52 -10.72
v -6.56 3.52 -9.92
v -6.56 0 -9.92
v -4.16 3.52 -9.92001
v -4.16 0 -9.92001
v -6.56 3.52 -9.92
v 4.16 0 -10.32
v 4.16 0.01 -12.4
v 4.16 0 -12.4
v 4.16 0.01 -10.32
v -4.16 0.01 -10.32
v -4.16 0 -12.4
v -4.16 0.01 -12.4
v -4.16 0 -10.32
v 4.16 0 -10.32
v -4.16 0 -12.4
v -4.16 0 -10.32
v 4.16 0 -12.4
v 4.16 0.01 -12.4
v -4.16 0.01 -10.32
v -4.16 0.01 -12.4
v 4.16 0.01 -10.32
v 4.16 0 -10.32
v -4.16 0.01 -10.32
v 4.16 0.01 -10.32
v -4.16 0 -10.32
v -4.16 0 -12.4
v 4.16 0.01 -12.4
v -4.16 0.01 -12.4
v 4.16 0 -12.4
v 4.16 3.44 -9.92
v 4.16 3.52 -12.16
v 4.16 3.44 -12.16
v 4.16 3.52 -9.92
v -4.16 3.52 -9.92
v -4.16 3.44 -12.16
v -4.16 3.52 -12.16
v -4.16 3.44 -9.92
v 4.16 3.44 -9.92
v -4.16 3.44 -12.16
v -4.16 3.44 -9.92
v 4.16 3.44 -12.16
v 4.16 3.52 -12.16
v -4.16 3.52 -9.92
v -4.16 3.52 -12.16
v 4.16 3.52 -9.92
v 4.16 3.44 -9.92
v -4.16 3.52 -9.92
v 4.16 3.52 -9.92
v -4.16 3.44 -9.92
v -4.16 3.44 -12.16
v 4.16 3.52 -12.16
v -4.16 3.52 -12.16
v 4.16 3.44 -12.16
vt -0.875 3.01953
vt -0.867188 3.00391
vt -0.867188 3.01953
vt -0.875 3.00391
vt 6.875 3.00391
vt 6.86719 3.01953
vt 6.86719 3.00391
vt 6.875 3.01953
vt 6.875 3.01953
vt 6.86719 3.00391
vt 6.86719 3.01953
vt 6.875 3.00391
vt 0.375 2.51172
vt 5.5625 2.50391
vt 5.5625 2.51172
vt 0.375 2.50391
vt 0.5 8.37891
vt 5.6875 8.38672
vt 5.6875 8.37891
vt 0.5 8.38672
vt 0.375 3.00391
vt 5.5625 3.01953
vt 0.375 3.01953
vt 5.5625 3.00391
vt 5.5625 3.00391
vt 0.375 3.01953
vt 5.5625 3.01953
vt 0.375 3.00391
vt -1.17969 3.00391
vt -1.1875 3.01953
vt -1.1875 3.00391
vt -1.17969 3.01953
vt 1.93662 6.96391
vt -1.80458 6.87588
vt 1.93662 6.87588
vt -1.80458 6.96391
vt 1.93662 6.87588
vt -1.80458 6.96391
vt 1.93662 6.96391
vt -1.80458 6.87588
vt 1.93662 3.00264
vt -1.80458 2.03433
vt -1.80458 3.00264
vt 1.93662 2.03433
vt -0.592356 3.39968
vt -0.812427 4.0599
vt -0.812424 3.39968
vt -0.592356 4.0599
vt -0.812424 3.39968
vt -0.592356 4.0599
vt -0.592356 3.39968
vt -0.812427 4.0599
vt 3.11216 0.947733
vt 2.45195 1.91604
vt 2.45195 0.947733
vt 3.11216 1.91604
vt -0.592356 0.947733
vt -0.812427 1.91604
vt -0.812427 0.947733
vt -0.592356 1.91604
vt -0.592356 1.91604
vt -0.812424 0.947733
vt -0.812424 1.91604
vt -0.592356 0.947733
vt -0.592356 3.39968
vt -0.812427 4.0599
vt -0.812424 3.39968
vt -0.592356 4.0599
vt -0.812424 3.39968
vt -0.592356 4.0599
vt -0.592356 3.39968
vt -0.812427 4.0599
vt 3.11216 0.947733
vt 2.45195 1.91604
vt 2.45195 0.947733
vt 3.11216 1.91604
vt 0.513393 0.988839
vt 1.09375 0.991629
vt 1.09375 0.988839
vt 0.513393 0.991629
vt 0.513393 0.991629
vt 1.09375 0.988839
vt 1.09375 0.991629
vt 0.513393 0.988839
vt -1.20536 6.02232
vt -3.52679 6.60268
vt -3.52679 6.02232
vt -1.20536 6.60268
vt -1.20536 6.60268
vt -3.52679 6.02232
vt -3.52679 6.60268
vt -1.20536 6.02232
vt 3.30357 0.988839
vt 0.982143 0.991629
vt 3.30357 0.991629
vt 0.982143 0.988839
vt 0.982143 0.988839
vt 3.30357 0.991629
vt 0.982143 0.991629
vt 3.30357 0.988839
vt 2.76786 0.84375
vt 3.39286 0.875
vt 3.39286 0.84375
vt 2.76786 0.875
vt 2.76786 0.875
vt 3.39286 0.84375
vt 3.39286 0.875
vt 2.76786 0.84375
vt 1.16071 4.875
vt -1.16071 5.75
vt -1.16071 4.875
vt 1.16071 5.75
vt 1.16071 5.75
vt -1.16071 4.875
vt -1.16071 5.75
vt 1.16071 4.875
vt 1.16071 0.84375
vt -1.16071 0.875
vt 1.16071 0.875
vt -1.16071 0.84375
vt -1.16071 0.84375
vt 1.16071 0.875
vt -1.16071 0.875
vt 1.16071 0.84375
vn 0 0 -1
vn 0 0 -1
vn 0 0 -1
vn 0 0 -1
vn -1 0 0
vn -1 0 0
vn -1 0 0
vn -1 0 0
vn 1 0 0
vn 1 0 0
vn 1 0 0
vn 1 0 0
vn 0 -1 0
vn 0 -1 0
vn 0 -1 0
vn 0 -1 0
vn 0 1 0
vn 0 1 0
vn 0 1 0
vn 0 1 0
vn 0 0 -1
vn 0 0 -1
vn 0 0 -1
vn 0 0 -1
vn 0 0 1
vn 0 0 1
vn 0 0 1
vn 0 0 1
vn 0 0 -1
vn 0 0 -1
vn 0 0 -1
vn 0 0 -1
vn 0 -1 0
vn 0 -1 0
vn 0 -1 0
vn 0 -1 0
vn 0 1 0
vn 0 1 0
vn 0 1 0
vn 0 1 0
vn 0 0 1
vn 0 0 1
vn 0 0 1
vn 0 0 1
vn 0 -1 0
vn 0 -1 0
vn 0 -1 0
vn 0 -1 0
vn 0 1 0
vn 0 1 0
vn 0 1 0
vn 0 1 0
vn 3.699101E-06 0 1
vn 3.699101E-06 0 1
vn 3.699101E-06 0 1
vn 4.438921E-06 0 1
vn -1 0 0
vn -1 0 0
vn -1 0 0
vn -1 0 0
vn 1 0 0
vn 1 0 0
vn 1 0 0
vn 1 0 0
vn 0 -1 0
vn 0 -1 0
vn 0 -1 0
vn 0 -1 0
vn 0 1 0
vn 0 1 0
vn 0 1 0
vn 0 1 0
vn 3.699101E-06 0 1
vn 3.699101E-06 0 1
vn 3.699101E-06 0 1
vn 4.438921E-06 0 1
vn 1 0 0
vn 1 0 0
vn 1 0 0
vn 1 0 0
vn -1 0 0
vn -1 0 0
vn -1 0 0
vn -1 0 0
vn 0 -1 0
vn 0 -1 0
vn 0 -1 0
vn 0 -1 0
vn 0 1 0
vn 0 1 0
vn 0 1 0
vn 0 1 0
vn 0 0 1
vn 0 0 1
vn 0 0 1
vn 0 0 1
vn 0 0 -1
vn 0 0 -1
vn 0 0 -1
vn 0 0 -1
vn 1 0 0
vn 1 0 0
vn 1 0 0
vn 1 0 0
vn -1 0 0
vn -1 0 0
vn -1 0 0
vn -1 0 0
vn 0 -1 0
vn 0 -1 0
vn 0 -1 0
vn 0 -1 0
vn 0 1 0
vn 0 1 0
vn 0 1 0
vn 0 1 0
vn 0 0 1
vn 0 0 1
vn 0 0 1
vn 0 0 1
vn 0 0 -1
vn 0 0 -1
vn 0 0 -1
vn 0 0 -1
g classname=brush.002_0
f 3/3/3 2/2/2 1/1/1
f 2/2/2 4/4/4 1/1/1
f 7/7/7 6/6/6 5/5/5
f 6/6/6 8/8/8 5/5/5
f 11/11/11 10/10/10 9/9/9
f 10/10/10 12/12/12 9/9/9
f 15/15/15 14/14/14 13/13/13
f 14/14/14 16/16/16 13/13/13
f 19/19/19 18/18/18 17/17/17
f 18/18/18 20/20/20 17/17/17
f 23/23/23 22/22/22 21/21/21
f 22/22/22 24/24/24 21/21/21
f 27/27/27 26/26/26 25/25/25
f 26/26/26 28/28/28 25/25/25
f 31/31/31 30/30/30 29/29/29
f 30/30/30 32/32/32 29/29/29
g classname=brush.002_1
f 35/35/35 34/34/34 33/33/33
f 34/34/34 36/36/36 33/33/33
f 39/39/39 38/38/38 37/37/37
f 38/38/38 40/40/40 37/37/37
f 43/43/43 42/42/42 41/41/41
f 42/42/42 44/44/44 41/41/41
f 47/47/47 46/46/46 45/45/45
f 46/46/46 48/48/48 45/45/45
f 51/51/51 50/50/50 49/49/49
f 50/50/50 52/52/52 49/49/49
f 55/55/55 54/54/54 53/53/53
f 54/54/54 56/56/56 53/53/53
f 59/59/59 58/58/58 57/57/57
f 58/58/58 60/60/60 57/57/57
f 63/63/63 62/62/62 61/61/61
f 62/62/62 64/64/64 61/61/61
f 67/67/67 66/66/66 65/65/65
f 66/66/66 68/68/68 65/65/65
f 71/71/71 70/70/70 69/69/69
f 70/70/70 72/72/72 69/69/69
f 75/75/75 74/74/74 73/73/73
f 74/74/74 76/76/76 73/73/73
g classname=brush.002_2
f 79/79/79 78/78/78 77/77/77
f 78/78/78 80/80/80 77/77/77
f 83/83/83 82/82/82 81/81/81
f 82/82/82 84/84/84 81/81/81
f 87/87/87 86/86/86 85/85/85
f 86/86/86 88/88/88 85/85/85
f 91/91/91 90/90/90 89/89/89
f 90/90/90 92/92/92 89/89/89
f 95/95/95 94/94/94 93/93/93
f 94/94/94 96/96/96 93/93/93
f 99/99/99 98/98/98 97/97/97
f 98/98/98 100/100/100 97/97/97
f 103/103/103 102/102/102 101/101/101
f 102/102/102 104/104/104 101/101/101
f 107/107/107 106/106/106 105/105/105
f 106/106/106 108/108/108 105/105/105
f 111/111/111 110/110/110 109/109/109
f 110/110/110 112/112/112 109/109/109
f 115/115/115 114/114/114 113/113/113
f 114/114/114 116/116/116 113/113/113
f 119/119/119 118/118/118 117/117/117
f 118/118/118 120/120/120 117/117/117
f 123/123/123 122/122/122 121/121/121
f 122/122/122 124/124/124 121/121/121
