g classname=brush.001
v -3.335257 4.74368 -10.79596
v -3.335257 6.710304 -10.44837
v -3.335257 4.74368 -10.44837
v -3.335257 6.710304 -10.79596
v 3.332844 6.710304 -10.79596
v 3.332844 4.74368 -10.44837
v 3.332844 6.710304 -10.44837
v 3.332844 4.74368 -10.79596
v -3.335257 4.74368 -10.79596
v 3.332844 4.74368 -10.44837
v 3.332844 4.74368 -10.79596
v -3.335257 4.74368 -10.44837
v -3.335257 6.710304 -10.44837
v 3.332844 6.710304 -10.79596
v 3.332844 6.710304 -10.44837
v -3.335257 6.710304 -10.79596
v -3.335257 4.74368 -10.79596
v 3.332844 6.710304 -10.79596
v -3.335257 6.710304 -10.79596
v 3.332844 4.74368 -10.79596
v 3.332844 4.74368 -10.44837
v -3.335257 6.710304 -10.44837
v 3.332844 6.710304 -10.44837
v -3.335257 4.74368 -10.44837
vt 0.706055 1.34277
vt 0.672852 1.53063
vt 0.672852 1.34277
vt 0.706055 1.53063
vt 0.706055 1.53063
vt 0.672852 1.34277
vt 0.672852 1.53063
vt 0.706055 1.34277
vt -0.657457 1.95996
vt -0.0205078 1.92676
vt -0.0205078 1.95996
vt -0.657457 1.92676
vt -0.657457 1.92676
vt -0.0205078 1.95996
vt -0.0205078 1.92676
vt -0.657457 1.95996
vt -0.657457 1.34277
vt -0.0205078 1.53063
vt -0.657457 1.53063
vt -0.0205078 1.34277
vt -0.0205078 1.14258
vt -0.657457 1.33043
vt -0.0205078 1.33043
vt -0.657457 1.14258
vn -1 0 0
vn -1 0 0
vn -1 0 0
vn -1 0 0
vn 1 0 0
vn 1 0 0
vn 1 0 0
vn 1 0 0
vn 0 -1 0
vn 0 -1 0
vn 0 -1 0
vn 0 -1 0
vn 0 1 0
vn 0 1 0
vn 0 1 0
vn 0 1 0
vn 0 0 -1
vn 0 0 -1
vn 0 0 -1
vn 0 0 -1
vn 0 0 1
vn 0 0 1
vn 0 0 1
vn 0 0 1
g classname=brush.001_0
f 3/3/3 2/2/2 1/1/1
f 2/2/2 4/4/4 1/1/1
f 7/7/7 6/6/6 5/5/5
f 6/6/6 8/8/8 5/5/5
f 11/11/11 10/10/10 9/9/9
f 10/10/10 12/12/12 9/9/9
f 15/15/15 14/14/14 13/13/13
f 14/14/14 16/16/16 13/13/13
f 19/19/19 18/18/18 17/17/17
f 18/18/18 20/20/20 17/17/17
g classname=brush.001_1
f 23/23/23 22/22/22 21/21/21
f 22/22/22 24/24/24 21/21/21
