g classname=mesh.004
v 0.7769811 3.875137 -4.180941
v 0.7769811 3.914232 -3.935578
v 0.7769811 3.875137 -3.935578
v 0.7769811 3.914232 -4.180941
v 1.18592 3.914232 -4.180941
v 1.18592 3.875137 -3.935578
v 1.18592 3.914232 -3.935578
v 1.18592 3.875137 -4.180941
v 0.7769811 3.914232 -3.935578
v 1.18592 3.914232 -4.180941
v 1.18592 3.914232 -3.935578
v 0.7769811 3.914232 -4.180941
v 0.7769811 3.875137 -4.180941
v 1.18592 3.914232 -4.180941
v 0.7769811 3.914232 -4.180941
v 1.18592 3.875137 -4.180941
v 1.18592 3.875137 -3.935578
v 0.7769811 3.914232 -3.935578
v 1.18592 3.914232 -3.935578
v 0.7769811 3.875137 -3.935578
v -4.171167 3.875137 1.503297
v -3.925805 3.914232 1.503297
v -3.925805 3.875137 1.503297
v -4.171167 3.914232 1.503297
v -4.171167 3.914232 1.094359
v -3.925805 3.875137 1.094359
v -3.925805 3.914232 1.094359
v -4.171167 3.875137 1.094359
v -3.925805 3.914232 1.503297
v -4.171167 3.914232 1.094359
v -3.925805 3.914232 1.094359
v -4.171167 3.914232 1.503297
v -4.171167 3.875137 1.503297
v -4.171167 3.914232 1.094359
v -4.171167 3.914232 1.503297
v -4.171167 3.875137 1.094359
v -3.925805 3.875137 1.094359
v -3.925805 3.914232 1.503297
v -3.925805 3.914232 1.094359
v -3.925805 3.875137 1.503297
v 0.7769811 3.875137 -4.180941
v 1.18592 3.875137 -3.935578
v 1.18592 3.875137 -4.180941
v 0.7769811 3.875137 -3.935578
v -4.171167 3.875137 1.503297
v -3.925805 3.875137 1.094359
v -4.171167 3.875137 1.094359
v -3.925805 3.875137 1.503297
vt 0.82661 0.873866
vt 0.835719 0.93103
vt 0.82661 0.93103
vt 0.835719 0.873866
vt 0.835719 0.873866
vt 0.82661 0.93103
vt 0.835719 0.93103
vt 0.82661 0.873866
vt 2.17226 0.93103
vt 2.07698 0.873866
vt 2.07698 0.93103
vt 2.17226 0.873866
vt 0.82661 -1.35328
vt 0.835719 -1.258
vt 0.835719 -1.35328
vt 0.82661 -1.258
vt 0.82661 -1.258
vt 0.835719 -1.35328
vt 0.835719 -1.258
vt 0.82661 -1.35328
vt 0.82661 0.873866
vt 0.835719 0.93103
vt 0.82661 0.93103
vt 0.835719 0.873866
vt 0.835719 0.873866
vt 0.82661 0.93103
vt 0.835719 0.93103
vt 0.82661 0.873866
vt 2.17226 0.93103
vt 2.07698 0.873866
vt 2.07698 0.93103
vt 2.17226 0.873866
vt 0.82661 -1.35328
vt 0.835719 -1.258
vt 0.835719 -1.35328
vt 0.82661 -1.258
vt 0.82661 -1.258
vt 0.835719 -1.35328
vt 0.835719 -1.258
vt 0.82661 -1.35328
vt 4.34451 0.747731
vt 4.15396 0.862061
vt 4.15396 0.747731
vt 4.34451 0.862061
vt 4.34451 0.747731
vt 4.15396 0.862061
vt 4.15396 0.747731
vt 4.34451 0.862061
vn -1 0 0
vn -1 0 0
vn -1 0 0
vn -1 0 0
vn 1 0 0
vn 1 0 0
vn 1 0 0
vn 1 0 0
vn 0 1 0
vn 0 1 0
vn 0 1 0
vn 0 1 0
vn 0 0 -1
vn 0 0 -1
vn 0 0 -1
vn 0 0 -1
vn 0 0 1
vn 0 0 1
vn 0 0 1
vn 0 0 1
vn 0 0 1
vn 0 0 1
vn 0 0 1
vn 0 0 1
vn 0 0 -1
vn 0 0 -1
vn 0 0 -1
vn 0 0 -1
vn 0 1 0
vn 0 1 0
vn 0 1 0
vn 0 1 0
vn -1 0 0
vn -1 0 0
vn -1 0 0
vn -1 0 0
vn 1 0 0
vn 1 0 0
vn 1 0 0
vn 1 0 0
vn 0 -1 0
vn 0 -1 0
vn 0 -1 0
vn 0 -1 0
vn 0 -1 0
vn 0 -1 0
vn 0 -1 0
vn 0 -1 0
g classname=mesh.004_0
f 3/3/3 2/2/2 1/1/1
f 2/2/2 4/4/4 1/1/1
f 7/7/7 6/6/6 5/5/5
f 6/6/6 8/8/8 5/5/5
f 11/11/11 10/10/10 9/9/9
f 10/10/10 12/12/12 9/9/9
f 15/15/15 14/14/14 13/13/13
f 14/14/14 16/16/16 13/13/13
f 19/19/19 18/18/18 17/17/17
f 18/18/18 20/20/20 17/17/17
f 23/23/23 22/22/22 21/21/21
f 22/22/22 24/24/24 21/21/21
f 27/27/27 26/26/26 25/25/25
f 26/26/26 28/28/28 25/25/25
f 31/31/31 30/30/30 29/29/29
f 30/30/30 32/32/32 29/29/29
f 35/35/35 34/34/34 33/33/33
f 34/34/34 36/36/36 33/33/33
f 39/39/39 38/38/38 37/37/37
f 38/38/38 40/40/40 37/37/37
g classname=mesh.004_1
f 43/43/43 42/42/42 41/41/41
f 42/42/42 44/44/44 41/41/41
f 47/47/47 46/46/46 45/45/45
f 46/46/46 48/48/48 45/45/45
