g Composant#2_001
v -1.960667E-06 -0.001730204 -0.0009990191
v -1.960667E-06 -0.001999999 -1.949491E-06
v -1.960667E-06 -0.001730204 0.0009990304
v -1.960667E-06 -0.0009990191 -0.001730204
v -1.960667E-06 -0.0009990191 0.001730215
v -1.960667E-06 1.960667E-06 -0.001999999
v -1.960667E-06 1.960667E-06 0.00200001
v -1.960667E-06 0.0009990304 -0.001730204
v -1.960667E-06 0.0009990304 0.001730215
v -1.960667E-06 0.001730215 -0.0009990191
v -1.960667E-06 0.001730215 0.0009990304
v -1.960667E-06 0.00200001 -1.949491E-06
vt 0 0
vt 0 0
vt 0 0
vt 0 0
vt 0 0
vt 0 0
vt 0 0
vt 0 0
vt 0 0
vt 0 0
vt 0 0
vt 0 0
vn 1 0 0
vn 1 0 0
vn 1 0 0
vn 1 0 0
vn 1 0 0
vn 1 0 0
vn 1 0 0
vn 1 0 0
vn 1 0 0
vn 1 0 0
vn 1 0 0
vn 1 0 0
g Composant#2_001_0
f 3/3/3 2/2/2 1/1/1
f 1/1/1 4/4/4 3/3/3
f 4/4/4 5/5/5 3/3/3
f 4/4/4 6/6/6 5/5/5
f 6/6/6 7/7/7 5/5/5
f 6/6/6 8/8/8 7/7/7
f 8/8/8 9/9/9 7/7/7
f 8/8/8 10/10/10 9/9/9
f 10/10/10 11/11/11 9/9/9
f 10/10/10 12/12/12 11/11/11
