g Concrete_pipe_casing_collider
v 3.23068 -2.41238 -12.85
v -3.23068 -2.41238 -12.85
v -3.23068 -2.41238 12.85
v 3.23068 -2.41238 12.85
v -2.28645 -1.55 -12.85
v 2.28645 -1.55 -12.85
v 2.28645 -1.55 12.85
v -2.28645 -1.55 12.85
v 3.2444 2.42328 -12.85
v 3.23068 -2.41238 -12.85
v 3.23068 -2.41238 12.85
v 3.2444 2.42328 12.85
v -3.2444 2.42328 12.85
v -3.23068 -2.41238 12.85
v -3.23068 -2.41238 -12.85
v -3.2444 2.42328 -12.85
v 2.53319 2.42328 -12.85
v 3.2444 2.42328 -12.85
v 3.2444 2.42328 12.85
v 2.53319 2.42328 12.85
v -2.53319 2.42328 12.85
v -3.2444 2.42328 12.85
v -3.2444 2.42328 -12.85
v -2.53319 2.42328 -12.85
v 2.28645 -1.55 -12.85
v 2.53319 2.42328 -12.85
v 2.53319 2.42328 12.85
v 2.28645 -1.55 12.85
v -2.28645 -1.55 12.85
v -2.53319 2.42328 12.85
v -2.53319 2.42328 -12.85
v -2.28645 -1.55 -12.85
v 3.23068 -2.41238 -12.85
v -2.28645 -1.55 -12.85
v -3.23068 -2.41238 -12.85
v 2.28645 -1.55 -12.85
v 3.2444 2.42328 -12.85
v 2.53319 2.42328 -12.85
v -2.53319 2.42328 -12.85
v -3.23068 -2.41238 -12.85
v -3.2444 2.42328 -12.85
v -3.23068 -2.41238 12.85
v 2.28645 -1.55 12.85
v 3.23068 -2.41238 12.85
v -2.28645 -1.55 12.85
v -3.2444 2.42328 12.85
v -2.53319 2.42328 12.85
v 2.53319 2.42328 12.85
v 3.23068 -2.41238 12.85
v 3.2444 2.42328 12.85
vt 1.8796 0.1011
vt 1.4581 -0.2304
vt -0.0248 1.5389
vt 0.3967 1.8705
vt 0.8292 -0.7541
vt 0.5102 -1.0196
vt -0.9574 0.743
vt -0.6384 1.0086
vt 2.1776 0.3687
vt 1.8796 0.1011
vt 0.3967 1.8705
vt 0.71 2.1313
vt -0.3228 1.2714
vt -0.0248 1.5389
vt 1.4581 -0.2304
vt 1.1448 -0.4913
vt 2.2212 0.405
vt 2.1776 0.3687
vt 0.71 2.1313
vt 0.7536 2.1676
vt -0.3664 1.235
vt -0.3228 1.2714
vt 1.1448 -0.4913
vt 1.1012 -0.5276
vt 0.5102 -1.0196
vt 0.2383 -1.2461
vt -1.2294 0.5165
vt -0.9574 0.743
vt -0.6384 1.0086
vt -0.3664 1.235
vt 1.1012 -0.5276
vt 0.8292 -0.7541
vt 1.8796 0.1011
vt 1.5505 -0.2527
vt 1.4581 -0.2304
vt 1.8695 0.013
vt 2.1567 -0.2083
vt 2.1131 -0.2446
vt 1.7597 -0.5389
vt 1.4696 -0.2792
vt 1.7161 -0.5752
vt -0.0248 1.5389
vt 0.3044 1.8927
vt 0.3967 1.8705
vt -0.0147 1.627
vt -0.3019 1.8484
vt -0.2583 1.8847
vt 0.0951 2.179
vt 0.3852 1.9192
vt 0.1387 2.2153
vn 0 -1 0
vn 0 -1 0
vn 0 -1 0
vn 0 -1 0
vn 0 1 0
vn 0 1 0
vn 0 1 0
vn 0 1 0
vn 0.9999961 -0.002799989 0
vn 0.9999961 -0.002799989 0
vn 0.9999961 -0.002799989 0
vn 0.9999961 -0.002799989 0
vn -0.9999961 -0.002799989 0
vn -0.9999961 -0.002799989 0
vn -0.9999961 -0.002799989 0
vn -0.9999961 -0.002799989 0
vn 0 1 0
vn 0 1 0
vn 0 1 0
vn 0 1 0
vn 0 1 0
vn 0 1 0
vn 0 1 0
vn 0 1 0
vn -0.9980762 0.06199852 0
vn -0.9980762 0.06199852 0
vn -0.9980762 0.06199852 0
vn -0.9980762 0.06199852 0
vn 0.9980762 0.06199852 0
vn 0.9980762 0.06199852 0
vn 0.9980762 0.06199852 0
vn 0.9980762 0.06199852 0
vn 0 0 -1
vn 0 0 -1
vn 0 0 -1
vn 0 0 -1
vn 0 0 -1
vn 0 0 -1
vn 0 0 -1
vn 0 0 -1
vn 0 0 -1
vn 0 0 1
vn 0 0 1
vn 0 0 1
vn 0 0 1
vn 0 0 1
vn 0 0 1
vn 0 0 1
vn 0 0 1
vn 0 0 1
g Concrete_pipe_casing_collider_0
f 3/3/3 2/2/2 1/1/1
f 4/4/4 3/3/3 1/1/1
f 7/7/7 6/6/6 5/5/5
f 8/8/8 7/7/7 5/5/5
f 11/11/11 10/10/10 9/9/9
f 12/12/12 11/11/11 9/9/9
f 15/15/15 14/14/14 13/13/13
f 16/16/16 15/15/15 13/13/13
f 19/19/19 18/18/18 17/17/17
f 20/20/20 19/19/19 17/17/17
f 23/23/23 22/22/22 21/21/21
f 24/24/24 23/23/23 21/21/21
f 27/27/27 26/26/26 25/25/25
f 28/28/28 27/27/27 25/25/25
f 31/31/31 30/30/30 29/29/29
f 32/32/32 31/31/31 29/29/29
f 35/35/35 34/34/34 33/33/33
f 34/34/34 36/36/36 33/33/33
f 33/33/33 36/36/36 37/37/37
f 36/36/36 38/38/38 37/37/37
f 34/34/34 40/40/40 39/39/39
f 40/40/40 41/41/41 39/39/39
f 44/44/44 43/43/43 42/42/42
f 43/43/43 45/45/45 42/42/42
f 42/42/42 45/45/45 46/46/46
f 45/45/45 47/47/47 46/46/46
f 43/43/43 49/49/49 48/48/48
f 49/49/49 50/50/50 48/48/48
