g conus_01
v 0.686164 -0.686163 -1E-06
v 0.686164 -0.686163 0.200916
v 0.686164 0.686163 0.200917
v 0.686164 0.686163 1E-06
v 0.686164 -0.686163 0.200916
v -0.686162 -0.686163 0.200916
v -0.686162 0.686163 0.200917
v 0.686164 0.686163 0.200917
v -0.686162 -0.686163 0.200916
v -0.686162 -0.686163 0
v -0.686162 0.686163 1E-06
v -0.686162 0.686163 0.200917
v -0.686162 -0.686163 0
v 0.686164 -0.686163 -1E-06
v 0.686164 0.686163 1E-06
v -0.686162 0.686163 1E-06
v 0.686164 0.686163 1E-06
v 0.686164 0.686163 0.200917
v -0.686162 0.686163 0.200917
v -0.686162 0.686163 1E-06
v -0.686162 -0.686163 0
v -0.686162 -0.686163 0.200916
v 0.686164 -0.686163 0.200916
v 0.686164 -0.686163 -1E-06
v -0.553874 -0.029255 0.17714
v -0.059973 0.080042 1.84292
v -0.123075 -0.029254 1.84292
v -0.275373 0.453124 0.17714
v 0.066231 0.080042 1.84292
v 0.28163 0.453125 0.17714
v 0.129334 -0.029254 1.84292
v 0.560132 -0.029254 0.17714
v 0.560132 -0.029254 0.17714
v 0.066232 -0.13855 1.84292
v 0.129334 -0.029254 1.84292
v 0.281631 -0.511633 0.17714
v -0.059973 -0.13855 1.84292
v -0.275372 -0.511633 0.17714
v -0.123075 -0.029254 1.84292
v -0.553874 -0.029255 0.17714
v 0.003129 -0.029254 1.84292
v -0.123075 -0.029254 1.84292
v -0.059973 0.080042 1.84292
v 0.066231 0.080042 1.84292
v -0.059973 -0.13855 1.84292
v 0.129334 -0.029254 1.84292
v 0.066232 -0.13855 1.84292
vt 0.44873 0.617188
vt 0.44873 0.628906
vt 0.399902 0.628906
vt 0.399902 0.617188
vt 0.244629 0.536621
vt 0.328125 0.536621
vt 0.328125 0.620117
vt 0.244629 0.620117
vt 0.44873 0.617188
vt 0.44873 0.628906
vt 0.399902 0.628906
vt 0.399902 0.617188
vt 0.244629 0.620117
vt 0.328125 0.620117
vt 0.328125 0.536621
vt 0.244629 0.536621
vt 0.344238 0.628418
vt 0.344238 0.616699
vt 0.390625 0.616699
vt 0.390625 0.628418
vt 0.389648 0.616699
vt 0.389648 0.628418
vt 0.342285 0.628418
vt 0.342285 0.616699
vt 0.080566 0.633789
vt 0.067383 0.737305
vt 0.080566 0.737305
vt 0.067383 0.633789
vt 0.051758 0.737305
vt 0.051758 0.633789
vt 0.035645 0.737305
vt 0.035645 0.633789
vt 0.035645 0.633789
vt 0.051758 0.737305
vt 0.035645 0.737305
vt 0.051758 0.633789
vt 0.067383 0.737305
vt 0.067383 0.633789
vt 0.080566 0.737305
vt 0.080566 0.633789
vt 0.581055 0.629883
vt 0.567871 0.629883
vt 0.57373 0.641113
vt 0.588379 0.641113
vt 0.57373 0.618164
vt 0.594238 0.629883
vt 0.588379 0.618164
vn 1 0 0
vn 1 0 0
vn 1 0 0
vn 1 0 0
vn 0 0 1
vn 0 0 1
vn 0 0 1
vn 0 0 1
vn -1 0 0
vn -1 0 0
vn -1 0 0
vn -1 0 0
vn 0 0 -1
vn 0 0 -1
vn 0 0 -1
vn 0 0 -1
vn 0 1 0
vn 0 1 0
vn 0 1 0
vn 0 1 0
vn 0 -1 0
vn 0 -1 0
vn 0 -1 0
vn 0 -1 0
vn -0.9681478 0 0.2503789
vn -0.355486 0.6157214 0.7032189
vn -0.7109722 0 0.7032201
vn -0.484075 0.8384401 0.250379
vn 0.355486 0.6157214 0.7032189
vn 0.4840731 0.8384411 0.250379
vn 0.7109722 0 0.7032201
vn 0.9681478 0 0.2503789
vn 0.9681478 0 0.2503789
vn 0.355486 -0.6157214 0.7032189
vn 0.7109722 0 0.7032201
vn 0.484075 -0.8384401 0.250379
vn -0.355486 -0.6157214 0.7032189
vn -0.4840731 -0.8384411 0.250379
vn -0.7109722 0 0.7032201
vn -0.9681478 0 0.2503789
vn 0 0 1
vn -0.7109722 0 0.7032201
vn -0.355486 0.6157214 0.7032189
vn 0.355486 0.6157214 0.7032189
vn -0.355486 -0.6157214 0.7032189
vn 0.7109722 0 0.7032201
vn 0.355486 -0.6157214 0.7032189
g conus_01_0
f 3/3/3 2/2/2 1/1/1
f 4/4/4 3/3/3 1/1/1
f 7/7/7 6/6/6 5/5/5
f 8/8/8 7/7/7 5/5/5
f 11/11/11 10/10/10 9/9/9
f 12/12/12 11/11/11 9/9/9
f 15/15/15 14/14/14 13/13/13
f 16/16/16 15/15/15 13/13/13
f 19/19/19 18/18/18 17/17/17
f 20/20/20 19/19/19 17/17/17
f 23/23/23 22/22/22 21/21/21
f 24/24/24 23/23/23 21/21/21
f 27/27/27 26/26/26 25/25/25
f 26/26/26 28/28/28 25/25/25
f 26/26/26 29/29/29 28/28/28
f 29/29/29 30/30/30 28/28/28
f 29/29/29 31/31/31 30/30/30
f 31/31/31 32/32/32 30/30/30
f 35/35/35 34/34/34 33/33/33
f 34/34/34 36/36/36 33/33/33
f 34/34/34 37/37/37 36/36/36
f 37/37/37 38/38/38 36/36/36
f 37/37/37 39/39/39 38/38/38
f 39/39/39 40/40/40 38/38/38
f 43/43/43 42/42/42 41/41/41
f 44/44/44 43/43/43 41/41/41
f 42/42/42 45/45/45 41/41/41
f 46/46/46 44/44/44 41/41/41
f 45/45/45 47/47/47 41/41/41
f 47/47/47 46/46/46 41/41/41
