g Cube_cell_070
v -0.071085 0.088176 -0.239813
v -0.023494 -0.293951 -0.031195
v 0.030596 0.223088 0.099353
v 0.030596 0.223088 0.099353
v -0.023678 -0.117257 0.359319
v -0.071085 0.088176 -0.239813
v 0.019839 -0.238475 0.071257
v 0.035121 0.196644 -0.046322
v 0.036229 0.154312 0.317426
v 0.034364 -0.001347 -0.230033
v 0.026301 -0.235049 -0.172057
v -0.068876 0.141781 0.351353
v -0.068876 -0.336093 -0.069902
v -0.068876 -0.00672 -0.252907
v -0.068876 0.204533 -0.0573
vn 0.9607354 -0.03088601 -0.2757421
vn 0.9607354 -0.03088601 -0.2757421
vn 0.9607354 -0.03088601 -0.2757421
vn -0.9442232 0.2813221 0.171174
vn -0.9442232 0.2813221 0.171174
vn -0.9442232 0.2813221 0.171174
vn -0.999285 0.037084 0.007360001
vn -0.999285 0.037084 0.007360001
vn -0.999285 0.037084 0.007360001
vn -0.9992661 0.028022 -0.026117
vn -0.9992661 0.028022 -0.026117
vn -1 0 0
vn -1 0 0
vn -1 0 0
vn -1 0 0
g Cube_cell_070_0
f 3/3/3 2/2/2 1/1/1
f 6/6/6 5/5/5 4/4/4
f 9/9/9 8/8/8 7/7/7
f 8/8/8 10/10/10 7/7/7
f 10/10/10 11/11/11 7/7/7
f 14/14/14 13/13/13 12/12/12
f 15/15/15 14/14/14 12/12/12
