g Cube
v 0.014 0.006999999 -0.0184
v -0.01399999 0.007000002 -0.0184
v -0.014 -0.006999998 -0.0184
v 0.014 -0.007 -0.0184
v 0.01400001 0.006999996 0.0184
v 0.01399999 -0.007000004 0.0184
v -0.014 -0.006999998 0.0184
v -0.014 0.006999999 0.0184
v 0.014 0.006999999 -0.0184
v 0.014 -0.007 -0.0184
v 0.01399999 -0.007000004 0.0184
v 0.01400001 0.006999996 0.0184
v -0.014 -0.006999998 -0.0184
v -0.01399999 0.007000002 -0.0184
v -0.014 0.006999999 0.0184
v -0.014 -0.006999998 0.0184
v 0.01400001 0.006999996 0.0184
v -0.014 0.006999999 0.0184
v -0.01399999 0.007000002 -0.0184
v 0.014 0.006999999 -0.0184
v 0.01250898 -0.007000004 0.01685161
v 0.01250898 -0.005584417 0.01685161
v -0.01250899 -0.005584411 0.01685161
v -0.01250899 -0.006999998 0.01685161
v 0.01250899 -0.007 -0.0168516
v 0.01250899 -0.005584414 -0.0168516
v 0.01250898 -0.005584417 0.01685161
v 0.01250898 -0.007000004 0.01685161
v -0.01250899 -0.006999998 0.01685161
v -0.01250899 -0.005584411 0.01685161
v -0.01250899 -0.005584411 -0.0168516
v -0.01250899 -0.006999998 -0.0168516
v -0.01250899 -0.006999998 -0.0168516
v -0.01250899 -0.005584411 -0.0168516
v 0.01250899 -0.005584414 -0.0168516
v 0.01250899 -0.007 -0.0168516
v -0.01344546 -0.005584411 -0.01811318
v -0.01344546 0.004510595 -0.01811318
v 0.01344546 0.004510593 -0.01811318
v 0.01344546 -0.005584414 -0.01811318
v 0.01344545 -0.005584417 0.01811318
v 0.01344545 0.004510589 0.01811318
v -0.01344546 0.004510595 0.01811318
v -0.01344546 -0.005584411 0.01811318
v 0.01344546 -0.005584414 -0.01811318
v 0.01344546 0.004510593 -0.01811318
v 0.01344545 0.004510589 0.01811318
v 0.01344545 -0.005584417 0.01811318
v -0.01344546 -0.005584411 0.01811318
v -0.01344546 0.004510595 0.01811318
v -0.01344546 0.004510595 -0.01811318
v -0.01344546 -0.005584411 -0.01811318
v -0.01344546 0.004510595 -0.01811318
v -0.01344546 0.004510595 0.01811318
v 0.01344545 0.004510589 0.01811318
v 0.01344546 0.004510593 -0.01811318
v -0.01344546 -0.005580798 0.003444345
v -0.01344546 -0.005580798 0.004289618
v 0.01344546 -0.005580804 0.004289618
v 0.01344546 -0.005580801 0.003444345
v -0.01344546 -0.005083039 0.003444345
v -0.01344546 -0.005580798 0.003444345
v 0.01344546 -0.005580801 0.003444345
v 0.01344546 -0.005083042 0.003444345
v 0.01344546 0.004510589 0.004289617
v 0.01344546 -0.005580804 0.004289618
v -0.01344546 -0.005580798 0.004289618
v -0.01344546 0.004510595 0.004289617
v -0.01344546 -0.005083039 0.003853886
v -0.01344546 -0.005083039 0.003444345
v 0.01344546 -0.005083042 0.003444345
v 0.01344546 -0.005083042 0.003853886
v -0.01344546 0.004510595 0.003853885
v -0.01344546 -0.005083039 0.003853886
v 0.01344546 -0.005083042 0.003853886
v 0.01344546 0.004510593 0.003853885
v -0.01344546 -0.005580798 0.009454949
v -0.01344546 -0.005580798 0.01030022
v 0.01344546 -0.005580804 0.01030022
v 0.01344546 -0.005580801 0.009454949
v -0.01344546 -0.005083039 0.009454949
v -0.01344546 -0.005580798 0.009454949
v 0.01344546 -0.005580801 0.009454949
v 0.01344546 -0.005083042 0.009454949
v 0.01344546 0.004510589 0.01030022
v 0.01344546 -0.005580804 0.01030022
v -0.01344546 -0.005580798 0.01030022
v -0.01344546 0.004510595 0.01030022
v -0.01344546 -0.005083039 0.00986449
v -0.01344546 -0.005083039 0.009454949
v 0.01344546 -0.005083042 0.009454949
v 0.01344546 -0.005083042 0.00986449
v -0.01344546 0.004510595 0.00986449
v -0.01344546 -0.005083039 0.00986449
v 0.01344546 -0.005083042 0.00986449
v 0.01344546 0.004510593 0.00986449
v -0.014 -0.006999998 -0.0184
v -0.01250899 -0.006999998 -0.0168516
v 0.01250899 -0.007 -0.0168516
v 0.014 -0.007 -0.0184
v -0.014 -0.006999998 0.0184
v 0.01250898 -0.007000004 0.01685161
v -0.01250899 -0.006999998 0.01685161
v 0.01399999 -0.007000004 0.0184
v -0.01250899 -0.005584411 -0.0168516
v -0.01344546 -0.005584411 -0.01811318
v 0.01344546 -0.005584414 -0.01811318
v -0.01250899 -0.005584411 0.01685161
v 0.01250899 -0.005584414 -0.0168516
v -0.01344546 -0.005584411 0.01811318
v 0.01344545 -0.005584417 0.01811318
v 0.01250898 -0.005584417 0.01685161
vt 0.6641294 0.001704412
vt 0.6641296 0.2306281
vt 0.7785913 0.2306281
vt 0.7785913 0.001704391
vt 0.6607206 0.3025754
vt 0.5462588 0.3025755
vt 0.5462586 0.5314991
vt 0.6607205 0.5314993
vt 0.6607205 0.001704391
vt 0.5462586 0.001704454
vt 0.5462588 0.3025755
vt 0.6607206 0.3025754
vt 0.7785913 0.2306281
vt 0.6641296 0.2306281
vt 0.6641294 0.531499
vt 0.7785912 0.5314991
vt 0.3025755 0.5273911
vt 0.3025755 0.2984674
vt 0.001704391 0.2984674
vt 0.001704391 0.527391
vt 0.5428498 0.5005213
vt 0.5312762 0.5005213
vt 0.531276 0.7050664
vt 0.5428498 0.7050664
vt 0.5428498 0.2249705
vt 0.5312763 0.2249705
vt 0.5312762 0.5005213
vt 0.5428498 0.5005213
vt 0.986722 0.4817995
vt 0.9982956 0.4817995
vt 0.9982956 0.206247
vt 0.9867219 0.206247
vt 0.9867219 0.206247
vt 0.9982956 0.206247
vt 0.9982955 0.001704433
vt 0.9867219 0.001704391
vt 0.7820002 0.2215604
vt 0.8809522 0.2215604
vt 0.8809522 0.001704391
vt 0.7820001 0.001704412
vt 0.9833132 0.2978855
vt 0.8843611 0.2978856
vt 0.8843611 0.5177416
vt 0.9833132 0.5177414
vt 0.983313 0.001704391
vt 0.8843611 0.001704412
vt 0.8843611 0.2978856
vt 0.9833132 0.2978855
vt 0.7820002 0.5177416
vt 0.8809522 0.5177416
vt 0.8809522 0.2215604
vt 0.7820002 0.2215604
vt 0.3059843 0.2984674
vt 0.3059843 0.5946485
vt 0.5258403 0.5946485
vt 0.5258403 0.2984674
vt 0.3059922 0.7006976
vt 0.3059921 0.7076011
vt 0.5255898 0.7076011
vt 0.5255898 0.7006983
vt 0.3059922 0.6966317
vt 0.3059922 0.7006976
vt 0.5255898 0.7006983
vt 0.5255898 0.6966335
vt 0.5255898 0.8064073
vt 0.5255898 0.7076011
vt 0.3059921 0.7076011
vt 0.3059921 0.8064074
vt 0.3059843 0.6927988
vt 0.3059922 0.6966317
vt 0.5255898 0.6966335
vt 0.5255819 0.6928006
vt 0.3059851 0.5980573
vt 0.3059843 0.6927988
vt 0.5255819 0.6928006
vt 0.5255826 0.5980591
vt 0.7534888 0.6375484
vt 0.7534888 0.6444518
vt 0.9730864 0.6444518
vt 0.9730864 0.6375491
vt 0.7534888 0.6334825
vt 0.7534888 0.6375484
vt 0.9730864 0.6375491
vt 0.9730865 0.6334843
vt 0.9730864 0.7432581
vt 0.9730864 0.6444518
vt 0.7534888 0.6444518
vt 0.7534888 0.7432581
vt 0.7534809 0.6296495
vt 0.7534888 0.6334825
vt 0.9730865 0.6334843
vt 0.9730785 0.6296514
vt 0.7534817 0.5349081
vt 0.7534809 0.6296495
vt 0.9730785 0.6296514
vt 0.9730793 0.5349099
vt 0.00180291 0.009802863
vt 0.01233373 0.02157368
vt 0.2320544 0.01334487
vt 0.2432611 0.001704391
vt 0.001704391 0.2950586
vt 0.2326319 0.275189
vt 0.01291113 0.2834181
vt 0.2431627 0.2869597
vt 0.2569847 0.009360855
vt 0.2466702 0.001704412
vt 0.2466699 0.2215614
vt 0.5325353 0.009361119
vt 0.2569846 0.2139047
vt 0.5428498 0.001704391
vt 0.5428494 0.2215617
vt 0.5325349 0.2139052
vn 0 0 -1
vn 0 0 -1
vn 0 0 -1
vn 0 0 -1
vn 0 0 1
vn 0 0 1
vn 0 0 1
vn 0 0 1
vn 1 -5.553228E-07 0
vn 1 -5.553228E-07 0
vn 1 -5.553228E-07 0
vn 1 -5.553228E-07 0
vn -1 5.553228E-07 -1.133784E-07
vn -1 5.553228E-07 -1.133784E-07
vn -1 5.553228E-07 -1.133784E-07
vn -1 5.553228E-07 -1.133784E-07
vn 1.064369E-07 1 0
vn 1.064369E-07 1 0
vn 1.064369E-07 1 0
vn 1.064369E-07 1 0
vn 0 0 -1
vn 0 0 -1
vn 0 0 -1
vn 0 0 -1
vn -1 0 -1.768515E-07
vn -1 0 -1.768515E-07
vn -1 0 -1.768515E-07
vn -1 0 -1.768515E-07
vn 1 0 0
vn 1 0 0
vn 1 0 0
vn 1 0 0
vn 0 1 0
vn 0 0 1
vn 0 0 1
vn 0 1 0
vn 0 0 1
vn 0 0 1
vn 0 0 1
vn 0 0 1
vn 0 0 -1
vn 0 0 -1
vn 0 0 -1
vn 0 0 -1
vn -1 0 -1.974407E-07
vn -1 0 -1.974407E-07
vn -1 0 -1.974407E-07
vn -1 0 -1.974407E-07
vn 1 0 0
vn 1 0 0
vn 1 0 0
vn 1 0 0
vn -1.551574E-07 -1 0
vn -1.551574E-07 -1 0
vn -1.551574E-07 -1 0
vn -1.551574E-07 -1 0
vn -1.551574E-07 -1 -2.097817E-06
vn -1.551574E-07 -1 -2.097817E-06
vn -1.551574E-07 -1 -2.097817E-06
vn -1.551574E-07 -1 -2.097817E-06
vn 0 0 -1
vn 0 0 -1
vn 0 0 -1
vn 0 0 -1
vn 0 0 1
vn 0 0 1
vn 0 0 1
vn 0 0 1
vn 0 1 0
vn 0 1 0
vn 0 1 0
vn 0 1 0
vn 0 0 -1
vn 0 0 -1
vn 0 0 -1
vn 0 0 -1
vn -1.551576E-07 -1 -2.097818E-06
vn -1.551576E-07 -1 -2.097818E-06
vn -1.551576E-07 -1 -2.097818E-06
vn -1.551576E-07 -1 -2.097818E-06
vn 0 0 -1
vn 0 0 -1
vn 0 0 -1
vn 0 0 -1
vn 0 0 1
vn 0 0 1
vn 0 0 1
vn 0 0 1
vn 0 1 0
vn 0 1 0
vn 0 1 0
vn 0 1 0
vn 0 0 -1
vn 0 0 -1
vn 0 0 -1
vn 0 0 -1
vn 0 -1 1.528538E-07
vn 0 -1 1.48336E-07
vn 0 -1 0
vn 0 -1 1.002826E-07
vn -1.151258E-07 -1 -1.44553E-07
vn -1.115227E-07 -1 -1.940602E-07
vn -1.115227E-07 -1 -1.397627E-07
vn -1.151259E-07 -1 -1.971242E-07
vn 0 1 -1.691206E-07
vn 0 1 -2.148678E-07
vn 0 1 -1.734228E-07
vn 1.076694E-07 1 -1.691206E-07
vn 0 1 -1.149682E-07
vn 1.362939E-07 1 -2.148679E-07
vn 1.362939E-07 1 -1.73423E-07
vn 1.076694E-07 1 -1.149682E-07
g Cube_0
f 3/3/3 2/2/2 1/1/1
f 4/4/4 3/3/3 1/1/1
f 7/7/7 6/6/6 5/5/5
f 8/8/8 7/7/7 5/5/5
f 11/11/11 10/10/10 9/9/9
f 12/12/12 11/11/11 9/9/9
f 15/15/15 14/14/14 13/13/13
f 16/16/16 15/15/15 13/13/13
f 19/19/19 18/18/18 17/17/17
f 20/20/20 19/19/19 17/17/17
f 23/23/23 22/22/22 21/21/21
f 24/24/24 23/23/23 21/21/21
f 27/27/27 26/26/26 25/25/25
f 28/28/28 27/27/27 25/25/25
f 31/31/31 30/30/30 29/29/29
f 32/32/32 31/31/31 29/29/29
f 35/35/35 34/34/34 33/33/33
f 36/36/36 35/35/35 33/33/33
f 39/39/39 38/38/38 37/37/37
f 40/40/40 39/39/39 37/37/37
f 43/43/43 42/42/42 41/41/41
f 44/44/44 43/43/43 41/41/41
f 47/47/47 46/46/46 45/45/45
f 48/48/48 47/47/47 45/45/45
f 51/51/51 50/50/50 49/49/49
f 52/52/52 51/51/51 49/49/49
f 55/55/55 54/54/54 53/53/53
f 56/56/56 55/55/55 53/53/53
f 59/59/59 58/58/58 57/57/57
f 60/60/60 59/59/59 57/57/57
f 63/63/63 62/62/62 61/61/61
f 64/64/64 63/63/63 61/61/61
f 67/67/67 66/66/66 65/65/65
f 68/68/68 67/67/67 65/65/65
f 71/71/71 70/70/70 69/69/69
f 72/72/72 71/71/71 69/69/69
f 75/75/75 74/74/74 73/73/73
f 76/76/76 75/75/75 73/73/73
f 79/79/79 78/78/78 77/77/77
f 80/80/80 79/79/79 77/77/77
f 83/83/83 82/82/82 81/81/81
f 84/84/84 83/83/83 81/81/81
f 87/87/87 86/86/86 85/85/85
f 88/88/88 87/87/87 85/85/85
f 91/91/91 90/90/90 89/89/89
f 92/92/92 91/91/91 89/89/89
f 95/95/95 94/94/94 93/93/93
f 96/96/96 95/95/95 93/93/93
f 99/99/99 98/98/98 97/97/97
f 100/100/100 99/99/99 97/97/97
f 97/97/97 98/98/98 101/101/101
f 102/102/102 99/99/99 100/100/100
f 98/98/98 103/103/103 101/101/101
f 104/104/104 102/102/102 100/100/100
f 101/101/101 103/103/103 104/104/104
f 103/103/103 102/102/102 104/104/104
f 107/107/107 106/106/106 105/105/105
f 105/105/105 106/106/106 108/108/108
f 109/109/109 107/107/107 105/105/105
f 106/106/106 110/110/110 108/108/108
f 111/111/111 107/107/107 109/109/109
f 108/108/108 110/110/110 112/112/112
f 112/112/112 111/111/111 109/109/109
f 110/110/110 111/111/111 112/112/112
