g Cube
v -0.0148534 0.009999999 0.0001048099
v -0.0148534 -0.009999999 0.0001048099
v -0.0148534 -0.009999999 -0.0001608014
v -0.0148534 0.009999999 -0.0001608014
v 0.0148534 0.009999999 -0.0001608014
v 0.0148534 -0.009999999 -0.0001608014
v 0.0148534 -0.009999999 0.0001048099
v 0.0148534 0.009999999 0.0001048099
v -0.0148534 -0.009999999 -0.0001608014
v -0.0148534 -0.009999999 0.0001048099
v 0.0148534 -0.009999999 0.0001048099
v 0.0148534 -0.009999999 -0.0001608014
v -0.0148534 0.009999999 -0.0001608014
v -0.0148534 -0.009999999 -0.0001608014
v 0.0148534 -0.009999999 -0.0001608014
v 0.0148534 0.009999999 -0.0001608014
v -0.01479741 -0.009944008 0.0001608014
v -0.01479741 0.009944008 0.0001608014
v 0.01479741 0.009944008 0.0001608014
v 0.01479741 -0.009944008 0.0001608014
v -0.0148534 0.009999999 0.0001048099
v -0.0148534 0.009999999 -0.0001608014
v 0.0148534 0.009999999 -0.0001608014
v 0.0148534 0.009999999 0.0001048099
v -0.0148534 0.009999999 0.0001048099
v -0.01479741 0.009944008 0.0001608014
v -0.01479741 -0.009944008 0.0001608014
v -0.0148534 -0.009999999 0.0001048099
v 0.0148534 0.009999999 0.0001048099
v 0.01479741 -0.009944008 0.0001608014
v 0.01479741 0.009944008 0.0001608014
v 0.0148534 -0.009999999 0.0001048099
vt 0.1816324 0.9861376
vt 0.1816324 1.006638
vt 0.9841546 1.006638
vt 0.9841546 0.9861377
vt 0.01245889 -0.0486626
vt 0.01245889 -0.009802699
vt 0.814981 -0.009802699
vt 0.814981 -0.0486626
vt 0.01245889 -0.009802699
vt 0.01245889 0.01022102
vt 0.9841546 0.01022102
vt 0.9841546 -0.009802699
vt -0.004256177 0.01444207
vt -0.004256177 0.9861377
vt 0.01245889 0.9861377
vt 0.01245889 0.01444207
vt 0.01429035 0.0171624
vt 0.01429035 0.9834173
vt 0.9823231 0.9834173
vt 0.9823231 0.0171624
vt 0.9841546 0.1836156
vt 0.9841546 0.9861377
vt 1.004256 0.9861377
vt 1.004256 0.1836156
vt 0.03090081 0.9561514
vt 0.03267373 0.9535441
vt 0.03267373 0.02743518
vt 0.03090081 0.02482795
vt 0.9715667 0.9561514
vt 0.9697937 0.02743518
vt 0.9697937 0.9535441
vt 0.9715667 0.02482795
vn -0.5516387 0.8194602 0.1554984
vn -0.5516387 -0.8194602 0.1554984
vn -1 0 0
vn -1 0 0
vn 1 0 0
vn 1 0 0
vn 0.5516432 -0.8194585 0.1554909
vn 0.5516432 0.8194585 0.1554909
vn 0 -1 0
vn -0.5516387 -0.8194602 0.1554984
vn 0.5516432 -0.8194585 0.1554909
vn 0 -1 0
vn 0 0 -1
vn 0 0 -1
vn 0 0 -1
vn 0 0 -1
vn -0.002623403 -0.003900221 0.999989
vn -0.002623403 0.003900221 0.999989
vn 0.002623403 0.003900221 0.999989
vn 0.002623403 -0.003900221 0.999989
vn -0.5516387 0.8194602 0.1554984
vn 0 1 0
vn 0 1 0
vn 0.5516432 0.8194585 0.1554909
vn -0.5516387 0.8194602 0.1554984
vn -0.002623403 0.003900221 0.999989
vn -0.002623403 -0.003900221 0.999989
vn -0.5516387 -0.8194602 0.1554984
vn 0.5516432 0.8194585 0.1554909
vn 0.002623403 -0.003900221 0.999989
vn 0.002623403 0.003900221 0.999989
vn 0.5516432 -0.8194585 0.1554909
g Cube_0
f 3/3/3 2/2/2 1/1/1
f 4/4/4 3/3/3 1/1/1
f 7/7/7 6/6/6 5/5/5
f 8/8/8 7/7/7 5/5/5
f 11/11/11 10/10/10 9/9/9
f 12/12/12 11/11/11 9/9/9
f 15/15/15 14/14/14 13/13/13
f 16/16/16 15/15/15 13/13/13
f 19/19/19 18/18/18 17/17/17
f 20/20/20 19/19/19 17/17/17
f 23/23/23 22/22/22 21/21/21
f 24/24/24 23/23/23 21/21/21
f 27/27/27 26/26/26 25/25/25
f 28/28/28 27/27/27 25/25/25
f 25/25/25 26/26/26 29/29/29
f 30/30/30 27/27/27 28/28/28
f 26/26/26 31/31/31 29/29/29
f 32/32/32 30/30/30 28/28/28
f 29/29/29 31/31/31 32/32/32
f 31/31/31 30/30/30 32/32/32
