g Cube_cell_147
v 0.004615 -0.088688 -0.072878
v 0.001769 0.105974 -0.087855
v -0.030402 -0.092024 0.104581
v -0.016027 0.106778 -0.02721
v -0.033784 -0.037389 0.179154
v -0.030402 -0.092024 0.104581
v 0.020691 0.105016 -0.01981
v 0.001769 0.105974 -0.087855
v 0.004615 -0.088688 -0.072878
v 0.001769 0.105974 -0.087855
v -0.016027 0.106778 -0.02721
v -0.030402 -0.092024 0.104581
v -0.012192 0.113635 -0.056541
v 0.003023 0.10587 -0.084606
v 0.022184 0.098455 -0.007271
v -0.033034 -0.050823 0.164746
v -0.012192 0.113635 -0.056541
v 0.022184 0.098455 -0.007271
v 0.038796 -0.042542 0.183032
v 0.03797 -0.029026 0.176035
v 0.020691 0.105016 -0.01981
v 0.004615 -0.088688 -0.072878
v 0.031575 -0.086262 0.099045
v 0.010735 -0.08678 -0.062089
v 0.00083 -0.089124 -0.070462
v -0.011423 -0.090163 -0.045293
v 0.038796 -0.042542 0.183032
v -0.033034 -0.050823 0.164746
vn -0.9805571 -0.029264 -0.19404
vn -0.9805571 -0.029264 -0.19404
vn -0.9805571 -0.029264 -0.19404
vn -0.9974158 0.02836599 -0.06600799
vn -0.9974158 0.02836599 -0.06600799
vn -0.9974158 0.02836599 -0.06600799
vn 0.963399 -0.006536 -0.267992
vn 0.963399 -0.006536 -0.267992
vn 0.963399 -0.006536 -0.267992
vn -0.9535292 -0.115524 -0.2782741
vn -0.9535292 -0.115524 -0.2782741
vn -0.9535292 -0.115524 -0.2782741
vn 0.426516 0.904281 -0.018975
vn 0.426516 0.904281 -0.018975
vn 0.426516 0.904281 -0.018975
vn -0.3094571 0.7651223 0.5646452
vn -0.3094571 0.7651223 0.5646452
vn -0.3094571 0.7651223 0.5646452
vn -0.3094571 0.7651223 0.5646452
vn 0.9915878 -0.022755 -0.12742
vn 0.9915878 -0.022755 -0.12742
vn 0.9915878 -0.022755 -0.12742
vn 0.9915878 -0.022755 -0.12742
vn 0.119581 -0.9771542 0.175699
vn 0.119581 -0.9771542 0.175699
vn 0.119581 -0.9771542 0.175699
vn 0.119581 -0.9771542 0.175699
vn 0.119581 -0.9771542 0.175699
g Cube_cell_147_0
f 3/3/3 2/2/2 1/1/1
f 6/6/6 5/5/5 4/4/4
f 9/9/9 8/8/8 7/7/7
f 12/12/12 11/11/11 10/10/10
f 15/15/15 14/14/14 13/13/13
f 18/18/18 17/17/17 16/16/16
f 19/19/19 18/18/18 16/16/16
f 22/22/22 21/21/21 20/20/20
f 23/23/23 22/22/22 20/20/20
f 26/26/26 25/25/25 24/24/24
f 24/24/24 27/27/27 26/26/26
f 27/27/27 28/28/28 26/26/26
