g Cube_cell_021
v -0.140935 0.07357 -0.774835
v -0.136566 -0.509076 -0.30556
v 0.147443 -0.402456 -0.409931
v 0.147443 -0.402456 -0.409931
v 0.143756 0.220591 -0.128096
v -0.140935 0.07357 -0.774835
v -0.140935 0.07357 -0.774835
v 0.143756 0.220591 -0.128096
v 0.003932 0.230995 0.043
v -0.136566 0.258662 0.278606
v -0.136567 -0.509096 -0.305541
v -0.136567 -0.157419 -1.003181
v -0.136566 -0.509076 -0.30556
v -0.004628 -0.490433 -0.324637
v 0.147443 -0.402456 -0.409931
v 0.147443 -0.402456 -0.409931
v -0.004628 -0.490433 -0.324637
v 0.021893 -0.508592 -0.303026
v -0.140935 0.07357 -0.774835
v 0.003932 0.230995 0.043
v -0.071709 0.334391 0.550268
v 0.013964 0.041096 0.143537
v 0.003932 0.230995 0.043
v 0.143756 0.220591 -0.128096
v 0.143752 0.219988 0.373069
v 0.143752 -0.518255 -0.270633
v 0.143752 0.219988 0.373069
v 0.143752 0.220489 -0.128369
v 0.143752 -0.151449 -0.999095
v 0.147443 -0.402456 -0.409931
v 0.021893 -0.508592 -0.303026
v 0.013964 0.041096 0.143537
v 0.143752 0.219988 0.373069
v -0.136566 -0.509076 -0.30556
v -0.071709 0.334391 0.550268
v -0.004628 -0.490433 -0.324637
vn -0.05050302 -0.6266952 -0.7776262
vn -0.05050302 -0.6266952 -0.7776262
vn -0.05050302 -0.6266952 -0.7776262
vn 0.8789392 0.2008731 -0.4325691
vn 0.8789392 0.2008731 -0.4325691
vn 0.8789392 0.2008731 -0.4325691
vn -0.129479 0.9777129 -0.165265
vn -0.129479 0.9777129 -0.165265
vn -0.129479 0.9777129 -0.165265
vn -1 0 0
vn -1 0 0
vn -1 0 0
vn -0.007281 -0.689539 -0.724212
vn -0.007281 -0.689539 -0.724212
vn -0.007281 -0.689539 -0.724212
vn 0.04673102 -0.7357783 -0.6756083
vn 0.04673102 -0.7357783 -0.6756083
vn 0.04673102 -0.7357783 -0.6756083
vn 0.034067 0.9802659 -0.194726
vn 0.034067 0.9802659 -0.194726
vn 0.034067 0.9802659 -0.194726
vn -0.551628 0.792498 0.260103
vn -0.551628 0.792498 0.260103
vn -0.551628 0.792498 0.260103
vn -0.551628 0.792498 0.260103
vn 1 0 0
vn 1 0 0
vn 1 0 0
vn 1 0 0
vn 0.4275642 -0.6522903 0.6258643
vn 0.4275642 -0.6522903 0.6258643
vn 0.4275642 -0.6522903 0.6258643
vn 0.4275642 -0.6522903 0.6258643
vn 0.4369849 -0.6375128 0.6345248
vn 0.4369849 -0.6375128 0.6345248
vn 0.4369849 -0.6375128 0.6345248
g Cube_cell_021_0
f 3/3/3 2/2/2 1/1/1
f 6/6/6 5/5/5 4/4/4
f 9/9/9 8/8/8 7/7/7
f 12/12/12 11/11/11 10/10/10
f 15/15/15 14/14/14 13/13/13
f 18/18/18 17/17/17 16/16/16
f 21/21/21 20/20/20 19/19/19
f 24/24/24 23/23/23 22/22/22
f 25/25/25 24/24/24 22/22/22
f 28/28/28 27/27/27 26/26/26
f 29/29/29 28/28/28 26/26/26
f 32/32/32 31/31/31 30/30/30
f 33/33/33 32/32/32 30/30/30
f 32/32/32 35/35/35 34/34/34
f 36/36/36 32/32/32 34/34/34
