g Cube_cell_152
v 0.000462 -0.115556 0.000318
v -0.007626 0.054486 0.016662
v 0.002827 0.053705 0.024715
v 0.016558 0.050252 -0.027418
v 0.001842 -0.093594 -0.004817
v 0.002827 0.053705 0.024715
v 0.001842 -0.093594 -0.004817
v 0.000462 -0.115556 0.000318
v 0.002827 0.053705 0.024715
v -0.01613 0.058935 -0.022449
v -0.007626 0.054486 0.016662
v 0.000462 -0.115556 0.000318
vn -0.6118257 -0.104468 0.7840636
vn -0.6118257 -0.104468 0.7840636
vn -0.6118257 -0.104468 0.7840636
vn 0.96443 -0.05815 0.257863
vn 0.96443 -0.05815 0.257863
vn 0.96443 -0.05815 0.257863
vn 0.9912331 -0.032315 0.128113
vn 0.9912331 -0.032315 0.128113
vn 0.9912331 -0.032315 0.128113
vn -0.9765646 -0.06613897 0.2048099
vn -0.9765646 -0.06613897 0.2048099
vn -0.9765646 -0.06613897 0.2048099
g Cube_cell_152_0
f 3/3/3 2/2/2 1/1/1
f 6/6/6 5/5/5 4/4/4
f 9/9/9 8/8/8 7/7/7
f 12/12/12 11/11/11 10/10/10
