g Cube_cell_016
v 0.141284 0.12022 -1.002738
v -0.132917 0.191247 -0.931111
v 0.001325 -0.025418 -0.843223
v 0.141284 -0.488996 -0.401143
v 0.141284 0.139547 0.989758
v 0.075661 0.142895 -1.024664
v -0.120551 0.094642 0.968711
v -0.120551 -0.503301 -0.368782
v -0.349425 0.082046 -0.945885
v -0.129795 -0.503755 -0.367679
v 0.001325 -0.025418 -0.843223
v -0.132917 0.191247 -0.931111
v -0.349425 0.082046 -0.945885
v 0.1228 -0.490004 -0.398853
v 0.1228 0.137985 0.987713
v -0.139035 0.092683 0.966804
v -0.139035 -0.5043 -0.366472
v -0.139035 0.140708 -1.001954
v 0.141284 0.12022 -1.002738
v 0.001325 -0.025418 -0.843223
v 0.132038 -0.489452 -0.400062
vn -0.339954 -0.526676 -0.77913
vn -0.339954 -0.526676 -0.77913
vn -0.339954 -0.526676 -0.77913
vn 0.9969082 0.07160202 -0.03235701
vn 0.9969082 0.07160202 -0.03235701
vn 0.9969082 0.07160202 -0.03235701
vn -0.9585428 -0.2601359 0.116297
vn -0.9585428 -0.2601359 0.116297
vn -0.9585428 -0.2601359 0.116297
vn -0.4548921 -0.56205 -0.6907771
vn -0.4548921 -0.56205 -0.6907771
vn -0.4548921 -0.56205 -0.6907771
vn 0.8451959 0.486851 -0.220499
vn 0.8451959 0.486851 -0.220499
vn 0.8451959 0.486851 -0.220499
vn -1 0 0
vn -1 0 0
vn -1 0 0
vn -0.08008496 -0.7001426 -0.7094976
vn -0.08008496 -0.7001426 -0.7094976
vn -0.08008496 -0.7001426 -0.7094976
g Cube_cell_016_0
f 3/3/3 2/2/2 1/1/1
f 6/6/6 5/5/5 4/4/4
f 9/9/9 8/8/8 7/7/7
f 12/12/12 11/11/11 10/10/10
f 15/15/15 14/14/14 13/13/13
f 18/18/18 17/17/17 16/16/16
f 21/21/21 20/20/20 19/19/19
