g Cube_cell
v -0.094549 -0.035624 0.072977
v 0.0701 0.036978 0.074455
v -0.024034 -0.077619 0.136322
v -0.094549 -0.035624 0.072977
v -0.023908 -0.086754 0.146016
v 0.099631 -0.091065 0.083164
v 0.080071 0.354107 -0.475487
v 0.080071 -0.140352 -0.075951
v 0.080071 -0.108329 0.218335
v 0.099631 -0.091065 0.083164
v -0.023908 -0.086754 0.146016
v -0.023982 -0.078281 0.136869
v -0.094549 -0.035624 0.072977
v -0.024034 -0.077619 0.136322
v -0.023908 -0.086754 0.146016
v 0.065026 -0.133076 -0.06647
v -0.061629 -0.012857 0.127447
v 0.061587 0.349145 -0.465339
v 0.0701 0.036978 0.074455
v 0.099631 -0.091065 0.083164
v -0.023982 -0.078281 0.136869
v -0.024034 -0.077619 0.136322
vn -0.2820189 0.6247489 0.7281169
vn -0.2820189 0.6247489 0.7281169
vn -0.2820189 0.6247489 0.7281169
vn -0.23274 -0.8880239 -0.396542
vn -0.23274 -0.8880239 -0.396542
vn -0.23274 -0.8880239 -0.396542
vn 1 0 0
vn 1 0 0
vn 1 0 0
vn 0.347461 0.689351 0.635662
vn 0.347461 0.689351 0.635662
vn 0.347461 0.689351 0.635662
vn -0.181434 0.71453 0.675669
vn -0.181434 0.71453 0.675669
vn -0.181434 0.71453 0.675669
vn 0.8721052 0.3155531 0.3739771
vn 0.8721052 0.3155531 0.3739771
vn 0.8721052 0.3155531 0.3739771
vn 0.4043987 0.1577389 0.9008774
vn 0.4043987 0.1577389 0.9008774
vn 0.4043987 0.1577389 0.9008774
vn 0.4043987 0.1577389 0.9008774
g Cube_cell_0
f 3/3/3 2/2/2 1/1/1
f 6/6/6 5/5/5 4/4/4
f 9/9/9 8/8/8 7/7/7
f 12/12/12 11/11/11 10/10/10
f 15/15/15 14/14/14 13/13/13
f 18/18/18 17/17/17 16/16/16
f 21/21/21 20/20/20 19/19/19
f 22/22/22 21/21/21 19/19/19
