g Cube_cell_109
v 0.065468 0.384235 0.160016
v -0.003213 -0.319995 0.255648
v -0.022737 0.399188 0.167186
v -0.024371 -0.125455 -0.31515
v -0.003213 -0.319995 0.255648
v 0.064886 -0.137921 -0.323096
v -0.024371 -0.125455 -0.31515
v 0.064886 -0.137921 -0.323096
v 0.065468 0.384235 0.160016
v -0.022737 0.399188 0.167186
v 0.064234 -0.362886 0.268342
v 0.064235 0.380832 0.163684
v 0.064234 -0.070503 -0.31271
v 0.064234 -0.363409 -0.082382
v -0.029992 -0.366026 0.270095
v -0.023068 0.413065 0.17592
v -0.022948 -0.077748 -0.322921
v -0.027779 -0.366448 -0.0926
vn 0.10129 0.124164 0.9870783
vn 0.10129 0.124164 0.9870783
vn 0.10129 0.124164 0.9870783
vn -0.158658 -0.936327 -0.31324
vn -0.158658 -0.936327 -0.31324
vn -0.158658 -0.936327 -0.31324
vn 0.04209001 0.6773172 -0.7344862
vn 0.04209001 0.6773172 -0.7344862
vn 0.04209001 0.6773172 -0.7344862
vn 0.04209001 0.6773172 -0.7344862
vn 1 0 0
vn 1 0 0
vn 1 0 0
vn 1 0 0
vn 0.999933 -0.008681 0.007657
vn 0.999933 -0.008681 0.007657
vn 0.999933 -0.008681 0.007657
vn 0.999933 -0.008681 0.007657
g Cube_cell_109_0
f 3/3/3 2/2/2 1/1/1
f 6/6/6 5/5/5 4/4/4
f 9/9/9 8/8/8 7/7/7
f 10/10/10 9/9/9 7/7/7
f 13/13/13 12/12/12 11/11/11
f 14/14/14 13/13/13 11/11/11
f 17/17/17 16/16/16 15/15/15
f 18/18/18 17/17/17 15/15/15
