g Cube_cell_061
v -0.007006 -0.726339 -0.003969
v -0.017161 -0.24336 -0.603512
v -0.019097 -0.460394 -0.473105
v -0.006511 -0.761187 -0.165363
v 0.044984 -0.730901 0.001773
v 0.044838 -0.336349 -0.605693
v -0.029693 0.751928 -0.313465
v 0.044774 0.757918 -0.315746
v 0.022833 0.502848 0.602633
v -0.006511 -0.761187 -0.165363
v 0.006938 -0.221556 0.749677
v 0.044984 -0.730901 0.001773
v 0.044838 -0.336349 -0.605693
v -0.029693 0.751928 -0.313465
v -0.006511 -0.761187 -0.165363
v 0.044838 -0.336349 -0.605693
v 0.044774 0.757918 -0.315746
v -0.029693 0.751928 -0.313465
v -0.017161 -0.24336 -0.603512
v -0.008281 0.494684 0.59047
v -0.031425 0.754439 -0.31475
v 0.000996 -0.213893 0.750828
v -0.007006 -0.726339 -0.003969
v 0.044981 -0.460524 -0.476064
v 0.044981 -0.730918 0.0018
v 0.044981 -0.220183 0.752054
v 0.044981 -0.243832 -0.607072
v 0.044981 0.751627 -0.316105
v 0.044981 0.501348 0.589398
vn 0.9982269 -0.036945 -0.04667
vn 0.9982269 -0.036945 -0.04667
vn 0.9982269 -0.036945 -0.04667
vn 0.914627 -0.338958 -0.220375
vn 0.914627 -0.338958 -0.220375
vn 0.914627 -0.338958 -0.220375
vn -0.06922304 0.9616416 0.2654311
vn -0.06922304 0.9616416 0.2654311
vn -0.06922304 0.9616416 0.2654311
vn -0.7651951 -0.5495641 0.335344
vn -0.7651951 -0.5495641 0.335344
vn -0.7651951 -0.5495641 0.335344
vn -0.9892147 -0.02920399 -0.1435319
vn -0.9892147 -0.02920399 -0.1435319
vn -0.9892147 -0.02920399 -0.1435319
vn -0.05015702 0.2558051 -0.9654264
vn -0.05015702 0.2558051 -0.9654264
vn -0.05015702 0.2558051 -0.9654264
vn 0.9996032 0.02002301 -0.01981201
vn 0.9996032 0.02002301 -0.01981201
vn 0.9996032 0.02002301 -0.01981201
vn 0.9998572 0.010008 -0.013622
vn 0.9998997 0.004267999 -0.013498
vn 1 0 0
vn 1 0 0
vn 1 0 0
vn 1 0 0
vn 1 0 0
vn 1 0 0
g Cube_cell_061_0
f 3/3/3 2/2/2 1/1/1
f 6/6/6 5/5/5 4/4/4
f 9/9/9 8/8/8 7/7/7
f 12/12/12 11/11/11 10/10/10
f 15/15/15 14/14/14 13/13/13
f 18/18/18 17/17/17 16/16/16
f 21/21/21 20/20/20 19/19/19
f 20/20/20 22/22/22 19/19/19
f 19/19/19 22/22/22 23/23/23
f 26/26/26 25/25/25 24/24/24
f 24/24/24 27/27/27 26/26/26
f 27/27/27 28/28/28 26/26/26
f 28/28/28 29/29/29 26/26/26
