g Cube_cell_034
v -0.14016 0.115257 0.521988
v -0.140158 -0.057318 0.756094
v -0.06155 -0.09273 -1.366881
v -0.083187 0.111672 -1.366859
v 0.121676 -0.051389 0.716841
v 0.121676 0.10227 0.575035
v -0.072213 0.111229 -1.21029
v -0.053431 -0.091927 -1.210311
v -0.121676 0.114337 0.525728
v -0.121676 -0.055178 0.755208
v -0.053431 -0.091927 -1.210311
v -0.072213 0.111229 -1.21029
v 0.140159 -0.04945 0.715732
v 0.14016 0.101338 0.578755
v -0.083187 0.111672 -1.366859
v -0.06155 -0.09273 -1.366881
vn -0.996438 -0.077637 -0.03292
vn -0.996438 -0.077637 -0.03292
vn -0.996438 -0.077637 -0.03292
vn -0.996438 -0.077637 -0.03292
vn 0.9950014 0.013032 -0.09900704
vn 0.9950014 0.013032 -0.09900704
vn 0.9950014 0.013032 -0.09900704
vn 0.9950014 0.013032 -0.09900704
vn -0.9971144 -0.06931303 -0.03096201
vn -0.9971144 -0.06931303 -0.03096201
vn -0.9971144 -0.06931303 -0.03096201
vn -0.9971144 -0.06931303 -0.03096201
vn 0.9942619 0.020049 -0.105078
vn 0.9942619 0.020049 -0.105078
vn 0.9942619 0.020049 -0.105078
vn 0.9942619 0.020049 -0.105078
g Cube_cell_034_0
f 3/3/3 2/2/2 1/1/1
f 4/4/4 3/3/3 1/1/1
f 7/7/7 6/6/6 5/5/5
f 8/8/8 7/7/7 5/5/5
f 11/11/11 10/10/10 9/9/9
f 12/12/12 11/11/11 9/9/9
f 15/15/15 14/14/14 13/13/13
f 16/16/16 15/15/15 13/13/13
