g Cube_cell_144
v -0.038099 -0.072874 0.121875
v -0.005802 -0.077464 -0.195446
v 0.002156 0.149289 0.078097
v 0.031606 -0.084394 0.1335
v 0.014855 0.113467 0.083022
v 0.0018 -0.080838 -0.174958
v -0.005802 -0.077464 -0.195446
v 0.0018 -0.080838 -0.174958
v 0.014855 0.113467 0.083022
v 0.002156 0.149289 0.078097
vn -0.9821603 0.1578171 -0.102249
vn -0.9821603 0.1578171 -0.102249
vn -0.9821603 0.1578171 -0.102249
vn 0.9936482 0.05980102 -0.09532602
vn 0.9936482 0.05980102 -0.09532602
vn 0.9936482 0.05980102 -0.09532602
vn 0.9151182 0.297646 -0.2719661
vn 0.9151182 0.297646 -0.2719661
vn 0.9151182 0.297646 -0.2719661
vn 0.9151182 0.297646 -0.2719661
g Cube_cell_144_0
f 3/3/3 2/2/2 1/1/1
f 6/6/6 5/5/5 4/4/4
f 9/9/9 8/8/8 7/7/7
f 10/10/10 9/9/9 7/7/7
