g Cube_cell_125
v 0.013107 0.067141 0.196038
v 0.005624 -0.227855 0.118455
v 0.01391 -0.115602 0.313585
v -0.008742 -0.116662 -0.140482
v -0.009983 0.214885 -0.177204
v -0.011359 -0.040954 -0.177031
vn 0.9980068 -0.003244999 -0.06302299
vn 0.9993215 -0.01671799 -0.03281798
vn 0.9993215 -0.01671799 -0.03281798
vn 0.9980068 -0.003244999 -0.06302299
vn 0.9980068 -0.003244999 -0.06302299
vn 0.9965696 -0.005416998 -0.08258097
g Cube_cell_125_0
f 3/3/3 2/2/2 1/1/1
f 2/2/2 4/4/4 1/1/1
f 4/4/4 5/5/5 1/1/1
f 6/6/6 5/5/5 4/4/4
