g Cube_cell_050
v 0.020082 -0.032758 -0.211343
v 0.037364 -0.166441 -0.01486
v 0.025599 0.166264 -0.138926
v 0.037364 -0.166441 -0.01486
v 0.044793 0.165844 0.170508
v 0.04476 -0.130947 0.246363
v -0.022998 0.167389 -0.148885
v -0.036307 -0.175189 -0.012142
v -0.017812 -0.030635 -0.219075
v -0.036307 -0.175189 -0.012142
v -0.04257 0.1674 0.166421
v -0.044299 -0.089378 0.281995
v -0.131744 0.190019 0.025825
v -0.046648 0.087663 0.255957
v -0.139264 -0.061155 0.288418
v -0.033118 -0.17255 -0.017395
v -0.12078 -0.025283 -0.239449
v -0.010594 0.16779 -0.13903
v -0.033118 -0.17255 -0.017395
v -0.010594 0.16779 -0.13903
v 0.122571 -0.038285 -0.191006
v 0.141055 -0.068898 -0.180498
v 0.141055 -0.125367 0.260867
v 0.141055 0.163994 0.174904
v 0.141055 0.16365 -0.114079
v -0.139264 -0.061133 0.288428
v -0.139264 -0.209985 0.062463
v -0.139264 -0.024304 -0.243136
v -0.139264 0.169227 0.16196
v -0.139264 0.169497 -0.173786
v 0.139538 -0.188893 0.032582
v 0.04684 -0.142491 0.241001
v 0.04466 0.16547 0.167869
v 0.14032 0.193934 0.025181
v -0.139264 -0.061155 0.288418
v -0.046648 0.087663 0.255957
v -0.038702 -0.1972 0.069475
v -0.131697 -0.197719 0.02393
vn 0.9963484 0.003421001 -0.08531204
vn 0.9963484 0.003421001 -0.08531204
vn 0.9963484 0.003421001 -0.08531204
vn 0.9996012 -0.007097001 -0.027334
vn 0.9996012 -0.007097001 -0.027334
vn 0.9996012 -0.007097001 -0.027334
vn -0.9979805 0.01404399 -0.06194897
vn -0.996287 0.004384 -0.085983
vn -0.996287 0.004384 -0.085983
vn -0.9996567 -0.004856999 -0.02574499
vn -0.9996567 -0.004856999 -0.02574499
vn -0.9996567 -0.004856999 -0.02574499
vn -0.6869938 0.5348459 0.4919139
vn -0.6869938 0.5348459 0.4919139
vn -0.6869938 0.5348459 0.4919139
vn -0.8438407 0.2292399 0.4851618
vn -0.8438407 0.2292399 0.4851618
vn -0.8438407 0.2292399 0.4851618
vn 0.6338373 0.2227701 0.7406914
vn 0.6338373 0.2227701 0.7406914
vn 0.6338373 0.2227701 0.7406914
vn 1 0 0
vn 1 0 0
vn 1 0 0
vn 1 0 0
vn -1 0 0
vn -1 0 0
vn -1 0 0
vn -1 0 0
vn -1 0 0
vn 0.8809947 0.05654598 0.4697349
vn 0.8809947 0.05654598 0.4697349
vn 0.8809947 0.05654598 0.4697349
vn 0.8809947 0.05654598 0.4697349
vn 0.4694222 -0.6370182 0.6114332
vn 0.4694222 -0.6370182 0.6114332
vn 0.4694222 -0.6370182 0.6114332
vn 0.4694222 -0.6370182 0.6114332
g Cube_cell_050_0
f 3/3/3 2/2/2 1/1/1
f 5/5/5 4/4/4 3/3/3
f 5/5/5 6/6/6 4/4/4
f 9/9/9 8/8/8 7/7/7
f 11/11/11 7/7/7 10/10/10
f 12/12/12 11/11/11 10/10/10
f 15/15/15 14/14/14 13/13/13
f 18/18/18 17/17/17 16/16/16
f 21/21/21 20/20/20 19/19/19
f 24/24/24 23/23/23 22/22/22
f 25/25/25 24/24/24 22/22/22
f 28/28/28 27/27/27 26/26/26
f 26/26/26 29/29/29 28/28/28
f 29/29/29 30/30/30 28/28/28
f 33/33/33 32/32/32 31/31/31
f 34/34/34 33/33/33 31/31/31
f 37/37/37 36/36/36 35/35/35
f 38/38/38 37/37/37 35/35/35
