g Cube_cell_069
v 0.001278 0.258412 0.272131
v -0.00469 0.1345 -0.197102
v 0.045318 -0.195316 -0.179669
v -0.046053 -0.191704 -0.171574
v -0.00469 0.1345 -0.197102
v 0.001278 0.258412 0.272131
v -0.055121 -0.452353 -0.011404
v -0.137557 1.242195 -0.185791
v -0.139486 -0.466151 0.039714
v 0.050844 -0.48139 0.053427
v 0.001278 0.258412 0.272131
v 0.045318 -0.195316 -0.179669
v -0.046053 -0.191704 -0.171574
v 0.001278 0.258412 0.272131
v -0.052282 -0.472365 0.058213
v 0.04586 -0.168528 -0.189615
v 0.050093 -0.208372 0.157352
v 0.140128 -0.479577 0.060444
v 0.13936 -0.183237 -0.19957
v 0.139745 -0.186195 -0.195923
v 0.139745 -0.476743 0.049396
v 0.027606 1.239324 0.51967
v 0.069676 1.238742 -0.123272
v -0.140574 -0.461324 0.058975
v -0.140575 -0.128749 -0.188076
v 0.069676 1.238742 -0.123272
v 0.027606 1.239324 0.51967
v 0.13936 -0.183237 -0.19957
v 0.139745 1.238727 -0.124577
v -0.137557 1.242195 -0.185791
v -0.000419 0.290275 -0.184602
v -0.055121 -0.452353 -0.011404
v 0.04586 -0.168528 -0.189615
v 0.139745 1.238724 0.520607
v 0.140128 -0.479577 0.060444
v 0.050093 -0.208372 0.157352
v -0.005704 0.231638 0.265391
v -0.140574 1.238724 0.518354
v -0.055121 -0.452353 -0.011404
v -0.139486 -0.466151 0.039714
vn 0.987792 0.147056 -0.051396
vn 0.987792 0.147056 -0.051396
vn 0.987792 0.147056 -0.051396
vn -0.9920501 0.124214 -0.020185
vn -0.9920501 0.124214 -0.020185
vn -0.9920501 0.124214 -0.020185
vn -0.5013713 -0.1126741 -0.8578645
vn -0.5013713 -0.1126741 -0.8578645
vn -0.5013713 -0.1126741 -0.8578645
vn 0.9976121 0.054176 0.042838
vn 0.9976121 0.054176 0.042838
vn 0.9976121 0.054176 0.042838
vn -0.9971653 0.05966302 0.04584401
vn -0.9971653 0.05966302 0.04584401
vn -0.9971653 0.05966302 0.04584401
vn -0.854872 -0.456826 -0.245975
vn -0.854872 -0.456826 -0.245975
vn -0.854872 -0.456826 -0.245975
vn -0.854872 -0.456826 -0.245975
vn 0.9969327 0.04701699 0.06256498
vn 0.9969327 0.04701699 0.06256498
vn 0.9969327 0.04701699 0.06256498
vn 0.9969327 0.04701699 0.06256498
vn -0.992454 0.122612 -0.001174
vn -0.992454 0.122612 -0.001174
vn -0.992454 0.122612 -0.001174
vn -0.992454 0.122612 -0.001174
vn -0.1442241 -0.007897004 -0.9895135
vn -0.1442241 -0.007897004 -0.9895135
vn -0.1442241 -0.007897004 -0.9895135
vn -0.1442241 -0.007897004 -0.9895135
vn -0.1442241 -0.007897004 -0.9895135
vn -0.1442241 -0.007897004 -0.9895135
vn 0.02741101 -0.2660181 0.9635783
vn 0.02741101 -0.2660181 0.9635783
vn 0.02741101 -0.2660181 0.9635783
vn 0.02741101 -0.2660181 0.9635783
vn 0.02741101 -0.2660181 0.9635783
vn 0.02741101 -0.2660181 0.9635783
vn 0.02741101 -0.2660181 0.9635783
g Cube_cell_069_0
f 3/3/3 2/2/2 1/1/1
f 6/6/6 5/5/5 4/4/4
f 9/9/9 8/8/8 7/7/7
f 12/12/12 11/11/11 10/10/10
f 15/15/15 14/14/14 13/13/13
f 18/18/18 17/17/17 16/16/16
f 19/19/19 18/18/18 16/16/16
f 22/22/22 21/21/21 20/20/20
f 23/23/23 22/22/22 20/20/20
f 26/26/26 25/25/25 24/24/24
f 27/27/27 26/26/26 24/24/24
f 30/30/30 29/29/29 28/28/28
f 28/28/28 31/31/31 30/30/30
f 31/31/31 32/32/32 30/30/30
f 28/28/28 33/33/33 31/31/31
f 36/36/36 35/35/35 34/34/34
f 34/34/34 37/37/37 36/36/36
f 34/34/34 38/38/38 37/37/37
f 38/38/38 39/39/39 37/37/37
f 38/38/38 40/40/40 39/39/39
