g Cube_cell_014
v 0.002873 0.16234 -0.085399
v -0.091573 -0.130908 -0.05944
v 0.144112 -0.17243 -0.075124
v 0.031262 0.198938 0.006413
v 0.128383 0.169622 -0.062354
v 0.123436 -0.063886 0.154567
v -0.044138 -0.110646 -0.178941
v 0.03859 -0.106853 -0.188801
v 0.031837 0.203233 -6.4E-05
v -0.14029 -0.133773 -0.106481
v -0.043149 -0.070651 -0.192728
v -0.132863 0.180986 -0.00679
v 0.031837 0.203233 -6.4E-05
v -0.037208 0.208184 -0.018816
v -0.044138 -0.110646 -0.178941
v 0.031837 0.203233 -6.4E-05
v -0.014725 -0.21552 0.194037
v -0.037208 0.208184 -0.018816
v 0.031262 0.198938 0.006413
v 0.123436 -0.063886 0.154567
v 0.020285 -0.168469 0.107281
v 0.119512 -0.166503 -0.092127
v 0.020285 -0.168469 0.107281
v 0.123436 -0.063886 0.154567
v 0.025348 0.14527 0.046021
v 0.031341 -0.166237 -0.047456
v 0.011514 -0.162727 0.147206
v 0.035021 0.170302 -0.080313
v 0.039072 -0.105914 -0.188895
v -0.016351 -0.164475 0.134983
v -0.043819 -0.090249 -0.187009
v -0.032365 0.160388 0.024911
v -0.040134 0.169803 -0.084341
v 0.137763 0.170942 -0.074858
v 0.137763 -0.141102 -0.17895
v 0.137763 -0.183886 0.182483
v 0.137763 0.129996 0.092974
v -0.142556 -0.153674 0.101932
v -0.142556 -0.071346 -0.18479
v -0.142557 0.169145 -0.089725
v -0.142556 0.163311 0.011201
v -0.044138 -0.110646 -0.178941
v -0.123639 -0.121033 -0.093292
v -0.120306 0.007039 0.076438
v -0.016298 -0.035346 0.082568
v 0.144112 -0.17243 -0.075124
v 0.119279 -0.180813 0.177294
v 0.119279 0.131158 0.088776
v 0.002873 0.16234 -0.085399
v -0.016298 -0.035346 0.082568
v -0.120306 0.007039 0.076438
v -0.132863 0.180986 -0.00679
v -0.043149 -0.070651 -0.192728
v 0.128383 0.169622 -0.062354
v 0.031262 0.198938 0.006413
v 0.03659 -0.14623 -0.114974
v 0.129471 -0.165969 -0.091722
v -0.124072 -0.140355 0.109019
v -0.091573 -0.130908 -0.05944
v 0.002873 0.16234 -0.085399
v -0.124073 0.163072 0.014339
vn -0.07734303 -0.06316902 -0.9950014
vn -0.07734303 -0.06316902 -0.9950014
vn -0.07734303 -0.06316902 -0.9950014
vn 0.5880758 0.5437558 0.5987458
vn 0.5880758 0.5437558 0.5987458
vn 0.5880758 0.5437558 0.5987458
vn -0.124718 0.5138818 -0.8487467
vn -0.124718 0.5138818 -0.8487467
vn -0.124718 0.5138818 -0.8487467
vn -0.7243448 0.2236429 -0.6521568
vn -0.7243448 0.2236429 -0.6521568
vn -0.7243448 0.2236429 -0.6521568
vn 0.2653278 0.4281068 -0.8639015
vn 0.2653278 0.4281068 -0.8639015
vn 0.2653278 0.4281068 -0.8639015
vn -0.2077219 0.4302859 0.8784677
vn -0.2077219 0.4302859 0.8784677
vn -0.2077219 0.4302859 0.8784677
vn -0.5887069 0.230313 0.774842
vn -0.5887069 0.230313 0.774842
vn -0.5887069 0.230313 0.774842
vn 0.6096919 -0.7352398 0.2961389
vn 0.6096919 -0.7352398 0.2961389
vn 0.6096919 -0.7352398 0.2961389
vn 0.9947686 -0.011327 0.101525
vn 0.9947686 -0.011327 0.101525
vn 0.9947686 -0.011327 0.101525
vn 0.9979798 -0.004724999 0.06335599
vn 0.9979798 -0.004724999 0.06335599
vn -0.9965566 -0.02204399 0.07993097
vn -0.9965566 -0.02204399 0.07993097
vn -0.9965566 -0.02204399 0.07993097
vn -0.9974723 -0.013417 0.06977703
vn 1 0 0
vn 1 0 0
vn 1 0 0
vn 1 0 0
vn -1 0 0
vn -1 0 0
vn -1 0 0
vn -1 0 0
vn 0.02631201 -0.9048854 0.4248412
vn 0.02631201 -0.9048854 0.4248412
vn 0.02631201 -0.9048854 0.4248412
vn 0.02631201 -0.9048854 0.4248412
vn 0.9647859 0.181632 -0.190258
vn 0.9647859 0.181632 -0.190258
vn 0.9647859 0.181632 -0.190258
vn 0.9647859 0.181632 -0.190258
vn 0.8579484 0.5038062 0.100518
vn 0.8579484 0.5038062 0.100518
vn 0.8579484 0.5038062 0.100518
vn 0.8579484 0.5038062 0.100518
vn -0.1757779 0.2112679 -0.9614927
vn -0.1757779 0.2112679 -0.9614927
vn -0.1757779 0.2112679 -0.9614927
vn -0.1757779 0.2112679 -0.9614927
vn -0.8595727 0.03295499 -0.5099498
vn -0.8595727 0.03295499 -0.5099498
vn -0.8595727 0.03295499 -0.5099498
vn -0.8595727 0.03295499 -0.5099498
g Cube_cell_014_0
f 3/3/3 2/2/2 1/1/1
f 6/6/6 5/5/5 4/4/4
f 9/9/9 8/8/8 7/7/7
f 12/12/12 11/11/11 10/10/10
f 15/15/15 14/14/14 13/13/13
f 18/18/18 17/17/17 16/16/16
f 21/21/21 20/20/20 19/19/19
f 24/24/24 23/23/23 22/22/22
f 27/27/27 26/26/26 25/25/25
f 25/25/25 26/26/26 28/28/28
f 26/26/26 29/29/29 28/28/28
f 32/32/32 31/31/31 30/30/30
f 31/31/31 32/32/32 33/33/33
f 36/36/36 35/35/35 34/34/34
f 37/37/37 36/36/36 34/34/34
f 40/40/40 39/39/39 38/38/38
f 41/41/41 40/40/40 38/38/38
f 44/44/44 43/43/43 42/42/42
f 45/45/45 44/44/44 42/42/42
f 48/48/48 47/47/47 46/46/46
f 49/49/49 48/48/48 46/46/46
f 52/52/52 51/51/51 50/50/50
f 53/53/53 52/52/52 50/50/50
f 56/56/56 55/55/55 54/54/54
f 57/57/57 56/56/56 54/54/54
f 60/60/60 59/59/59 58/58/58
f 61/61/61 60/60/60 58/58/58
