g Cube_cell_106
v 0.075845 0.276303 0.352128
v 0.0085 0.082145 0.409085
v 0.002635 0.305055 0.27402
v 0.075845 0.276303 0.352128
v -0.036574 0.155418 -0.287068
v 0.072508 0.146968 -0.372434
v 0.075845 0.276303 0.352128
v 0.002635 0.305055 0.27402
v -0.036574 0.155418 -0.287068
v 0.072508 0.081767 0.405276
v 0.072508 0.309273 0.263171
v 0.072508 0.146968 -0.372434
v 0.072508 -0.454363 -0.206315
v 0.003102 0.304847 0.276171
v -0.046626 0.145845 -0.323135
v -0.038215 -0.42754 -0.167812
v 0.009825 0.083147 0.410379
v 0.072535 -0.455581 -0.20601
v 0.072508 0.146968 -0.372434
v -0.036574 0.155418 -0.287068
v -0.038922 -0.411428 -0.165403
v 0.0085 0.082145 0.409085
v 0.075845 0.276303 0.352128
v 0.072535 -0.455581 -0.20601
v -0.038922 -0.411428 -0.165403
vn -0.5860738 0.4085509 0.6997168
vn -0.5860738 0.4085509 0.6997168
vn -0.5860738 0.4085509 0.6997168
vn -0.06092701 0.9826592 -0.175125
vn -0.06092701 0.9826592 -0.175125
vn -0.06092701 0.9826592 -0.175125
vn 0.5720532 0.7816852 -0.2484421
vn 0.5720532 0.7816852 -0.2484421
vn 0.5720532 0.7816852 -0.2484421
vn 1 0 0
vn 1 0 0
vn 1 0 0
vn 1 0 0
vn 0.9969482 -0.009251002 -0.07751601
vn 0.9969482 -0.009251002 -0.07751601
vn 0.9969482 -0.009251002 -0.07751601
vn 0.9969482 -0.009251002 -0.07751601
vn -0.521733 -0.203092 -0.828582
vn -0.521733 -0.203092 -0.828582
vn -0.521733 -0.203092 -0.828582
vn -0.521733 -0.203092 -0.828582
vn 0.698837 -0.500881 0.510632
vn 0.698837 -0.500881 0.510632
vn 0.698837 -0.500881 0.510632
vn 0.698837 -0.500881 0.510632
g Cube_cell_106_0
f 3/3/3 2/2/2 1/1/1
f 6/6/6 5/5/5 4/4/4
f 9/9/9 8/8/8 7/7/7
f 12/12/12 11/11/11 10/10/10
f 13/13/13 12/12/12 10/10/10
f 16/16/16 15/15/15 14/14/14
f 17/17/17 16/16/16 14/14/14
f 20/20/20 19/19/19 18/18/18
f 21/21/21 20/20/20 18/18/18
f 24/24/24 23/23/23 22/22/22
f 25/25/25 24/24/24 22/22/22
