g Cube_cell_046
v 0 0.902403 1.257105
v 0.14016 -0.244882 -0.784027
v 0 -0.100195 1.257103
v 0 -0.100195 1.257103
v -0.14016 -0.255615 -0.812479
v 0 0.902403 1.257105
v 0 -0.122949 1.100527
v -0.121676 -0.254907 -0.810604
v 0 0.826763 1.100528
v 0 0.826763 1.100528
v 0.121676 -0.24559 -0.785903
v 0 -0.122949 1.100527
vn 0.9976507 0 0.06850598
vn 0.9976507 0 0.06850598
vn 0.9976507 0 0.06850598
vn -0.9977146 0 0.06756898
vn -0.9977146 0 0.06756898
vn -0.9977146 0 0.06756898
vn -0.9979795 0 0.06353803
vn -0.9979795 0 0.06353803
vn -0.9979795 0 0.06353803
vn 0.9979262 0 0.06436701
vn 0.9979262 0 0.06436701
vn 0.9979262 0 0.06436701
g Cube_cell_046_0
f 3/3/3 2/2/2 1/1/1
f 6/6/6 5/5/5 4/4/4
f 9/9/9 8/8/8 7/7/7
f 12/12/12 11/11/11 10/10/10
