g Cube_cell_158
v -0.029632 0.128205 0.268477
v 0.076719 0.075851 0.264518
v -0.007571 -0.226138 -0.02588
v 0.076721 -0.131852 0.280818
v 0.076721 0.075856 0.264545
v 0.076722 -0.045093 -0.197999
v -0.050077 0.137845 -0.234995
v -0.007571 -0.226138 -0.02588
v 0.076992 0.045789 -0.224757
v -0.026708 -0.122825 -0.167596
v -0.028711 0.129647 0.269971
v -0.049304 0.139678 -0.237541
v -0.017064 -0.128007 0.289415
v -0.050077 0.137845 -0.234995
v 0.076992 0.045789 -0.224757
v 0.076719 0.075851 0.264518
v -0.029632 0.128205 0.268477
vn -0.279873 -0.6237059 0.7298369
vn -0.279873 -0.6237059 0.7298369
vn -0.279873 -0.6237059 0.7298369
vn 1 0 0
vn 1 0 0
vn 1 0 0
vn -0.297837 -0.501463 -0.812298
vn -0.297837 -0.501463 -0.812298
vn -0.297837 -0.501463 -0.812298
vn 0.9963935 0.07539096 -0.03893898
vn 0.9963935 0.07539096 -0.03893898
vn 0.9963935 0.07539096 -0.03893898
vn 0.9988372 0.04359801 -0.020583
vn 0.5264649 0.8497298 -0.02817799
vn 0.5264649 0.8497298 -0.02817799
vn 0.5264649 0.8497298 -0.02817799
vn 0.5264649 0.8497298 -0.02817799
g Cube_cell_158_0
f 3/3/3 2/2/2 1/1/1
f 6/6/6 5/5/5 4/4/4
f 9/9/9 8/8/8 7/7/7
f 12/12/12 11/11/11 10/10/10
f 11/11/11 13/13/13 10/10/10
f 16/16/16 15/15/15 14/14/14
f 17/17/17 16/16/16 14/14/14
