g Cube_cell_073
v 0.122965 -0.29861 0.583615
v -0.145648 -0.021468 0.548552
v 0.006411 -0.303441 -1.234743
v 0.143553 0.105435 0.442484
v -0.138928 0.404184 -0.001526
v 0.001287 0.01627 -1.391954
v -0.125092 0.058942 0.515734
v -0.138928 0.404184 -0.001526
v 0.143553 0.105435 0.442484
v 0.006411 -0.303441 -1.234743
v -0.145648 -0.021468 0.548552
v -0.120387 -0.313534 0.551868
v 0.141449 -0.234351 0.599908
v 0.141448 0.408339 -0.043126
v 0.001289 0.014283 -1.391332
v 0.027355 -0.305481 -1.391321
v 0.027355 -0.305481 -1.391321
v 0.001289 0.014283 -1.391332
v -0.138871 0.415461 -0.058014
v -0.138871 -0.106645 0.575044
vn 0.7202698 0.6920308 -0.04800699
vn 0.7202698 0.6920308 -0.04800699
vn 0.7202698 0.6920308 -0.04800699
vn 0.7874061 0.6097251 -0.09070201
vn 0.7874061 0.6097251 -0.09070201
vn 0.7874061 0.6097251 -0.09070201
vn 0.007367002 0.8318202 0.5549962
vn 0.007367002 0.8318202 0.5549962
vn 0.007367002 0.8318202 0.5549962
vn -0.9936956 -0.08675297 -0.07101397
vn -0.9936956 -0.08675297 -0.07101397
vn -0.9936956 -0.08675297 -0.07101397
vn 0.9971036 -0.02169699 -0.07289398
vn 0.9971036 -0.02169699 -0.07289398
vn 0.9971036 -0.02169699 -0.07289398
vn 0.9971036 -0.02169699 -0.07289398
vn -0.9931958 -0.08805898 -0.07620898
vn -0.9931958 -0.08805898 -0.07620898
vn -0.9931958 -0.08805898 -0.07620898
vn -0.9931958 -0.08805898 -0.07620898
g Cube_cell_073_0
f 3/3/3 2/2/2 1/1/1
f 6/6/6 5/5/5 4/4/4
f 9/9/9 8/8/8 7/7/7
f 12/12/12 11/11/11 10/10/10
f 15/15/15 14/14/14 13/13/13
f 16/16/16 15/15/15 13/13/13
f 19/19/19 18/18/18 17/17/17
f 20/20/20 19/19/19 17/17/17
