g Cube_cell_059
v -0.062966 -0.075389 -0.469156
v -0.028552 0.016229 -0.453608
v -0.069065 -0.341145 -0.188404
v -0.000134 -0.344201 0.321068
v -0.028552 0.016229 -0.453608
v 0.069809 -0.352056 -0.16409
v -0.028552 0.016229 -0.453608
v -0.000134 -0.344201 0.321068
v -0.069065 -0.341145 -0.188404
v 0.140409 0.543565 -0.310436
v -0.000505 0.453185 -0.349255
v 0.096986 -0.228145 -0.420738
v -0.137148 -0.218584 -0.438905
v -0.062385 -0.161242 -0.428968
v -0.000505 0.453185 -0.349255
v -0.137148 -0.218584 -0.438905
v -0.000505 0.453185 -0.349255
v -0.140607 0.554774 -0.311425
v -0.140607 0.554774 -0.311425
v -0.000505 0.453185 -0.349255
v 0.140409 0.543565 -0.310436
v 0.140637 -0.06686 -0.455001
v 0.140637 -0.357118 -0.150782
v -0.007335 -0.342082 1.523954
v 0.000478 1.137564 1.53331
v 0.140637 0.565814 -0.293187
v 0.140836 -0.354345 1.53695
v 0.096986 -0.228145 -0.420738
v 0.000524 -0.346512 0.310079
v -0.139798 -0.337799 1.532991
v -0.062385 -0.161242 -0.428968
v -0.137148 -0.218584 -0.438905
v 0.000478 1.137564 1.53331
v -0.007335 -0.342082 1.523954
v -0.139682 -0.335539 -0.204057
v -0.139682 -0.078512 -0.474606
v -0.139682 0.563713 -0.276695
v -0.140607 0.554774 -0.311425
v 0.140409 0.543565 -0.310436
v 0.140637 1.140422 1.533306
v -0.139682 1.134705 1.533306
vn -0.9168748 0.2996479 0.2637269
vn -0.9168748 0.2996479 0.2637269
vn -0.9168748 0.2996479 0.2637269
vn 0.9284101 0.3487401 0.128199
vn 0.9284101 0.3487401 0.128199
vn 0.9284101 0.3487401 0.128199
vn -0.969112 0.208089 0.132367
vn -0.969112 0.208089 0.132367
vn -0.969112 0.208089 0.132367
vn 0.1857551 0.1287811 -0.9741203
vn 0.1857551 0.1287811 -0.9741203
vn 0.1857551 0.1287811 -0.9741203
vn 0.03589799 0.125018 -0.9915048
vn 0.03589799 0.125018 -0.9915048
vn 0.03589799 0.125018 -0.9915048
vn -0.147359 0.160227 -0.9760188
vn -0.147359 0.160227 -0.9760188
vn -0.147359 0.160227 -0.9760188
vn 0.01805499 0.3706889 -0.9285817
vn 0.01805499 0.3706889 -0.9285817
vn 0.01805499 0.3706889 -0.9285817
vn 0.9969946 0.001221 0.07746198
vn 0.9969946 0.001221 0.07746198
vn 0.9969946 0.001221 0.07746198
vn 0.9969946 0.001221 0.07746198
vn 0.9969946 0.001221 0.07746198
vn 0.0005310001 -0.9983432 -0.05753801
vn 0.0005310001 -0.9983432 -0.05753801
vn 0.0005310001 -0.9983432 -0.05753801
vn 0.0005310001 -0.9983432 -0.05753801
vn 0.0005310001 -0.9983432 -0.05753801
vn 0.0005310001 -0.9983432 -0.05753801
vn -0.997382 0.005029 0.072138
vn -0.997382 0.005029 0.072138
vn -0.997382 0.005029 0.072138
vn -0.997382 0.005029 0.072138
vn -0.997382 0.005029 0.072138
vn 0.009855998 0.9526408 -0.3039379
vn 0.009855998 0.9526408 -0.3039379
vn 0.009855998 0.9526408 -0.3039379
vn 0.009855998 0.9526408 -0.3039379
g Cube_cell_059_0
f 3/3/3 2/2/2 1/1/1
f 6/6/6 5/5/5 4/4/4
f 9/9/9 8/8/8 7/7/7
f 12/12/12 11/11/11 10/10/10
f 15/15/15 14/14/14 13/13/13
f 18/18/18 17/17/17 16/16/16
f 21/21/21 20/20/20 19/19/19
f 24/24/24 23/23/23 22/22/22
f 22/22/22 25/25/25 24/24/24
f 22/22/22 26/26/26 25/25/25
f 29/29/29 28/28/28 27/27/27
f 27/27/27 30/30/30 29/29/29
f 31/31/31 29/29/29 30/30/30
f 30/30/30 32/32/32 31/31/31
f 35/35/35 34/34/34 33/33/33
f 33/33/33 36/36/36 35/35/35
f 33/33/33 37/37/37 36/36/36
f 40/40/40 39/39/39 38/38/38
f 41/41/41 40/40/40 38/38/38
