g Cube_cell_011
v -0.036695 0.155017 0.300732
v 0.046329 0.198522 0.294586
v -0.003007 -0.131509 -0.282005
v 0.046329 0.198522 0.294586
v 0.063518 0.230126 -0.28699
v -0.003007 -0.131509 -0.282005
v 0.063092 0.232259 -0.284956
v -0.027812 0.286995 0.269284
v -0.008096 0.25232 -0.284684
v -0.060013 0.199185 -0.280923
v -0.036695 0.155017 0.300732
v -0.003007 -0.131509 -0.282005
v -0.000679 0.208648 0.302972
v 0.044026 -0.174228 -0.273385
v 0.026025 0.087258 0.291909
v 0.044026 -0.174228 -0.273385
v 0.048996 -0.297754 0.061684
v 0.026025 0.087258 0.291909
v 0.015979 0.217599 -0.284651
v -0.000679 0.208648 0.302972
v -0.018324 0.210686 -0.283159
v -0.047961 -0.288335 0.058866
v -0.03187 -0.167825 -0.269491
v -0.018324 0.210686 -0.283159
v -0.000679 0.208648 0.302972
v -0.047961 -0.288335 0.058866
v 0.080871 0.251319 -0.292013
v 0.038559 -0.185979 -0.209923
v 0.142954 -0.285836 -0.106075
v 0.142954 -0.285836 -0.106075
v 0.038559 -0.185979 -0.209923
v 0.044969 -0.152317 0.172517
v 0.061783 0.221862 0.292923
v -0.027812 0.286995 0.269284
v 0.063092 0.232259 -0.284956
v -0.047582 -0.306836 0.020164
v -0.025461 0.08888 -0.347387
v -0.13746 -0.25814 -0.102464
v 0.063092 0.232259 -0.284956
v -0.008096 0.25232 -0.284684
v -0.010018 -0.275872 -0.181992
v -0.13746 -0.25814 -0.102464
v -0.025461 0.08888 -0.347387
v -0.138985 0.1788 -0.2769
v 0.061783 0.221862 0.292923
v 0.080871 0.251319 -0.292013
v 0.144145 0.229324 0.323571
v -0.047582 -0.306836 0.020164
v 0.038559 -0.185979 -0.209923
v -0.010018 -0.275872 -0.181992
v -0.138227 0.17154 0.304358
v -0.138985 0.1788 -0.2769
v -0.025461 0.08888 -0.347387
v -0.056177 0.187155 0.29799
v -0.138984 0.166546 0.300047
v -0.138984 -0.279181 0.056312
v -0.138984 -0.153325 -0.261558
v -0.138984 0.178798 -0.276899
v 0.142954 -0.285836 -0.106075
v 0.044969 -0.152317 0.172517
v 0.061783 0.221862 0.292923
v 0.144145 0.229324 0.323571
v 0.141335 0.232952 0.311531
v 0.141335 0.249656 -0.290923
v 0.141335 -0.174681 -0.275426
v 0.141335 -0.306975 0.06424
vn 0.446123 -0.792658 0.415533
vn 0.446123 -0.792658 0.415533
vn 0.446123 -0.792658 0.415533
vn 0.9833628 -0.18063 0.019249
vn 0.9833628 -0.18063 0.019249
vn 0.9833628 -0.18063 0.019249
vn 0.2707141 0.9613322 -0.05053901
vn 0.2707141 0.9613322 -0.05053901
vn 0.2707141 0.9613322 -0.05053901
vn -0.9851022 -0.169902 0.02659
vn -0.9851022 -0.169902 0.02659
vn -0.9851022 -0.169902 0.02659
vn 0.9728063 0.2204691 -0.07100303
vn 0.9728063 0.2204691 -0.07100303
vn 0.9728063 0.2204691 -0.07100303
vn 0.9984099 0.056065 0.005859999
vn 0.9984099 0.056065 0.005859999
vn 0.9984099 0.056065 0.005859999
vn 0.9969574 0.07220803 0.02936101
vn 0.9969574 0.07220803 0.02936101
vn -0.9987473 0.03443101 -0.03630701
vn -0.9987473 0.03443101 -0.03630701
vn -0.9987473 0.03443101 -0.03630701
vn -0.9963414 0.07992104 0.03027201
vn -0.9963414 0.07992104 0.03027201
vn -0.9963414 0.07992104 0.03027201
vn 0.5854578 -0.2039379 -0.7846327
vn 0.5854578 -0.2039379 -0.7846327
vn 0.5854578 -0.2039379 -0.7846327
vn -0.7260647 -0.6838087 0.07235698
vn -0.7260647 -0.6838087 0.07235698
vn -0.7260647 -0.6838087 0.07235698
vn 0.58519 0.8107401 0.015913
vn 0.58519 0.8107401 0.015913
vn 0.58519 0.8107401 0.015913
vn 0.513414 -0.5992419 -0.6142599
vn 0.513414 -0.5992419 -0.6142599
vn 0.513414 -0.5992419 -0.6142599
vn -0.057371 -0.190332 -0.9800419
vn -0.057371 -0.190332 -0.9800419
vn -0.057371 -0.190332 -0.9800419
vn -0.6571168 -0.2814569 -0.6992708
vn -0.6571168 -0.2814569 -0.6992708
vn -0.6571168 -0.2814569 -0.6992708
vn -0.107279 0.9931404 0.04651302
vn -0.107279 0.9931404 0.04651302
vn -0.107279 0.9931404 0.04651302
vn 0.8878717 -0.4499508 0.09606297
vn 0.8878717 -0.4499508 0.09606297
vn 0.8878717 -0.4499508 0.09606297
vn 0.333218 0.9408309 -0.06166899
vn 0.333218 0.9408309 -0.06166899
vn 0.333218 0.9408309 -0.06166899
vn 0.333218 0.9408309 -0.06166899
vn -1 0 0
vn -1 0 0
vn -1 0 0
vn -1 0 0
vn 0.6168507 -0.4230108 0.6637447
vn 0.6168507 -0.4230108 0.6637447
vn 0.6168507 -0.4230108 0.6637447
vn 0.6168507 -0.4230108 0.6637447
vn 1 0 0
vn 1 0 0
vn 1 0 0
vn 1 0 0
g Cube_cell_011_0
f 3/3/3 2/2/2 1/1/1
f 6/6/6 5/5/5 4/4/4
f 9/9/9 8/8/8 7/7/7
f 12/12/12 11/11/11 10/10/10
f 15/15/15 14/14/14 13/13/13
f 18/18/18 17/17/17 16/16/16
f 20/20/20 16/16/16 19/19/19
f 23/23/23 22/22/22 21/21/21
f 26/26/26 25/25/25 24/24/24
f 29/29/29 28/28/28 27/27/27
f 32/32/32 31/31/31 30/30/30
f 35/35/35 34/34/34 33/33/33
f 38/38/38 37/37/37 36/36/36
f 41/41/41 40/40/40 39/39/39
f 44/44/44 43/43/43 42/42/42
f 47/47/47 46/46/46 45/45/45
f 50/50/50 49/49/49 48/48/48
f 53/53/53 52/52/52 51/51/51
f 54/54/54 53/53/53 51/51/51
f 57/57/57 56/56/56 55/55/55
f 58/58/58 57/57/57 55/55/55
f 61/61/61 60/60/60 59/59/59
f 62/62/62 61/61/61 59/59/59
f 65/65/65 64/64/64 63/63/63
f 66/66/66 65/65/65 63/63/63
