g Cube_cell_116
v -0.026407 0.004122 0.145392
v 0.020734 -0.007947 0.157567
v -0.001507 -0.067633 0.237573
v 0.013063 0.033933 -0.211636
v 0.020734 -0.007947 0.157567
v -0.026407 0.004122 0.145392
v -0.020865 0.024642 -0.147597
vn 0.04694999 0.7943458 0.6056488
vn 0.04694999 0.7943458 0.6056488
vn 0.04694999 0.7943458 0.6056488
vn 0.09353004 0.9912534 0.09310604
vn 0.09353004 0.9912534 0.09310604
vn 0.09353004 0.9912534 0.09310604
vn 0.09353004 0.9912534 0.09310604
g Cube_cell_116_0
f 3/3/3 2/2/2 1/1/1
f 6/6/6 5/5/5 4/4/4
f 7/7/7 6/6/6 4/4/4
