g Cube_cell_043
v -0.062557 0.357377 0.477762
v -0.069837 -0.607639 0.201509
v -0.056195 -0.438589 -0.063298
v 0.071675 -0.623892 0.197643
v 0.141763 -0.628431 0.102619
v 0.053907 -0.42221 -0.095559
v 0.059217 -0.446368 -0.075067
v 0.072011 -0.625845 0.202437
v 0.064334 0.358609 0.485207
v -0.137516 -0.635387 0.149596
v -0.068853 -0.607155 0.201637
v -0.036011 -0.245807 -0.228393
v -0.137516 -0.635387 0.149596
v -0.138714 0.360547 0.467159
v -0.061554 0.361972 0.470639
v -0.137516 -0.635387 0.149596
v -0.061554 0.361972 0.470639
v -0.068853 -0.607155 0.201637
v -0.005064 0.610597 0.09744
v 0.059217 -0.446368 -0.075067
v 0.064334 0.358609 0.485207
v 0.002421 -0.106978 -0.329058
v -0.056195 -0.438589 -0.063298
v 0.002421 -0.106978 -0.329058
v -0.005064 0.610597 0.09744
v -0.062557 0.357377 0.477762
v 0.053907 -0.42221 -0.095559
v 0.141763 -0.628431 0.102619
v 0.141592 1.169101 -1.32213
v -0.138713 1.143096 -1.258417
v 0.00694 -0.106136 -0.331081
v -0.036011 -0.245807 -0.228393
v -0.137516 -0.635387 0.149596
v 0.14179 0.824386 -0.263601
v 0.020205 0.597986 0.124051
v -0.010035 0.608134 0.100355
v -0.138398 0.781977 -0.208877
v 0.066266 0.343405 0.483298
v 0.020205 0.597986 0.124051
v 0.14179 0.824386 -0.263601
v 0.141606 0.364037 0.48306
v -0.138712 0.37469 0.464971
v -0.138712 -0.593582 0.194707
v -0.138712 -0.430234 -0.054862
v -0.138712 1.143102 -1.25841
v -0.138712 0.944707 -0.58027
v -0.138714 0.360547 0.467159
v -0.138398 0.781977 -0.208877
v -0.010035 0.608134 0.100355
v -0.061554 0.361972 0.470639
v 0.071675 -0.623892 0.197643
v 0.066266 0.343405 0.483298
v 0.141606 0.364037 0.48306
v 0.141763 -0.628431 0.102619
v 0.141607 -0.44816 -0.088698
v 0.141607 -0.627515 0.195057
v 0.141607 0.377359 0.48101
v 0.141607 1.16887 -1.321574
v 0.141607 0.950785 -0.575753
v 0.14179 0.824386 -0.263601
v -0.138398 0.781977 -0.208877
v -0.138713 1.143096 -1.258417
v 0.141592 1.169101 -1.32213
vn -0.9990441 0.018829 -0.039449
vn -0.9990441 0.018829 -0.039449
vn -0.9990441 0.018829 -0.039449
vn -0.6145799 -0.6668389 -0.4214469
vn -0.6145799 -0.6668389 -0.4214469
vn -0.6145799 -0.6668389 -0.4214469
vn 0.9992439 0.017731 -0.034603
vn 0.9992439 0.017731 -0.034603
vn 0.9992439 0.017731 -0.034603
vn 0.6184477 -0.6242517 -0.4773177
vn 0.6184477 -0.6242517 -0.4773177
vn 0.6184477 -0.6242517 -0.4773177
vn -0.03733401 -0.303618 0.9520621
vn -0.03733401 -0.303618 0.9520621
vn -0.03733401 -0.303618 0.9520621
vn -0.5288023 -0.2233051 0.8188425
vn -0.5288023 -0.2233051 0.8188425
vn -0.5288023 -0.2233051 0.8188425
vn 0.9889266 0.08049197 -0.12468
vn 0.9889266 0.08049197 -0.12468
vn 0.9889266 0.08049197 -0.12468
vn 0.9901286 0.07910097 -0.115708
vn -0.9887978 0.06850398 -0.132612
vn -0.9887978 0.06850398 -0.132612
vn -0.9887978 0.06850398 -0.132612
vn -0.9921617 0.06472798 -0.10689
vn -0.116174 -0.6067711 -0.7863411
vn -0.116174 -0.6067711 -0.7863411
vn -0.116174 -0.6067711 -0.7863411
vn -0.116174 -0.6067711 -0.7863411
vn -0.116174 -0.6067711 -0.7863411
vn -0.116174 -0.6067711 -0.7863411
vn -0.116174 -0.6067711 -0.7863411
vn -0.04025599 0.8662848 0.4979258
vn -0.04025599 0.8662848 0.4979258
vn -0.04025599 0.8662848 0.4979258
vn -0.04025599 0.8662848 0.4979258
vn 0.014688 0.8399849 0.542411
vn 0.014688 0.8399849 0.542411
vn 0.014688 0.8399849 0.542411
vn 0.014688 0.8399849 0.542411
vn -1 0 0
vn -1 0 0
vn -1 0 0
vn -1 0 0
vn -1 0 0
vn -0.10312 0.8408358 0.5313769
vn -0.10312 0.8408358 0.5313769
vn -0.10312 0.8408358 0.5313769
vn -0.10312 0.8408358 0.5313769
vn 0.548509 -0.267679 0.79214
vn 0.548509 -0.267679 0.79214
vn 0.548509 -0.267679 0.79214
vn 0.548509 -0.267679 0.79214
vn 1 0 0
vn 1 0 0
vn 1 0 0
vn 1 0 0
vn 1 0 0
vn -0.04859302 0.9471344 0.3171361
vn -0.04859302 0.9471344 0.3171361
vn -0.04859302 0.9471344 0.3171361
vn -0.04859302 0.9471344 0.3171361
g Cube_cell_043_0
f 3/3/3 2/2/2 1/1/1
f 6/6/6 5/5/5 4/4/4
f 9/9/9 8/8/8 7/7/7
f 12/12/12 11/11/11 10/10/10
f 15/15/15 14/14/14 13/13/13
f 18/18/18 17/17/17 16/16/16
f 21/21/21 20/20/20 19/19/19
f 19/19/19 20/20/20 22/22/22
f 25/25/25 24/24/24 23/23/23
f 23/23/23 26/26/26 25/25/25
f 29/29/29 28/28/28 27/27/27
f 27/27/27 30/30/30 29/29/29
f 27/27/27 31/31/31 30/30/30
f 31/31/31 32/32/32 30/30/30
f 32/32/32 33/33/33 30/30/30
f 36/36/36 35/35/35 34/34/34
f 37/37/37 36/36/36 34/34/34
f 40/40/40 39/39/39 38/38/38
f 41/41/41 40/40/40 38/38/38
f 44/44/44 43/43/43 42/42/42
f 42/42/42 45/45/45 44/44/44
f 42/42/42 46/46/46 45/45/45
f 49/49/49 48/48/48 47/47/47
f 50/50/50 49/49/49 47/47/47
f 53/53/53 52/52/52 51/51/51
f 54/54/54 53/53/53 51/51/51
f 57/57/57 56/56/56 55/55/55
f 55/55/55 58/58/58 57/57/57
f 58/58/58 59/59/59 57/57/57
f 62/62/62 61/61/61 60/60/60
f 63/63/63 62/62/62 60/60/60
