g Cube_cell_148
v 0.024058 0.060858 0.065633
v -0.010608 -0.19749 0.183564
v -0.016575 -0.144042 0.192184
v -0.046027 0.187108 -0.057242
v 0.029716 0.193571 -0.043705
v 0.023689 0.074171 0.0569
v -0.0359 -0.193475 0.056249
v -0.016575 -0.144042 0.192184
v -0.010608 -0.19749 0.183564
v -0.046427 0.190232 -0.059794
v -0.0359 -0.193475 0.056249
v -0.058249 0.109509 -0.373399
v -0.046427 0.190232 -0.059794
v -0.016575 -0.144042 0.192184
v -0.0359 -0.193475 0.056249
v 0.113794 -0.027481 -0.051914
v -0.142085 -0.018895 0.050205
v 0.113794 -0.027481 0.171471
v 0.021666 -0.202199 0.042714
v -0.010608 -0.19749 0.183564
v 0.024058 0.060858 0.065633
v 0.022888 -0.191174 0.021841
v -0.035211 -0.19061 0.055854
v -0.00798 -0.197808 0.185931
v 0.029358 0.194964 -0.035064
v 0.021666 -0.202199 0.042714
v 0.024058 0.060858 0.065633
v 0.04251 0.101428 -0.397197
v 0.113794 -0.027481 -0.051914
v 0.113794 -0.027481 0.171471
v 0.113794 0.098527 0.08068
v 0.111679 0.193223 -0.03389
v -0.046027 0.187108 -0.057242
v 0.023689 0.074171 0.0569
v 0.008717 -0.095406 0.169858
v -0.009511 -0.146584 0.198543
v -0.029702 -0.074277 0.134119
v -0.142085 -0.018895 0.050205
v 0.113794 -0.027481 -0.051914
v 0.111679 0.193223 -0.03389
v -0.046027 0.187108 -0.057242
v -0.129565 0.124542 -0.051921
v 0.042371 0.099866 -0.397809
v 0.029716 0.193571 -0.043705
v -0.046027 0.187108 -0.057242
v -0.058117 0.108733 -0.375402
v 0.042371 0.099866 -0.397809
v -0.058117 0.108733 -0.375402
v -0.035211 -0.19061 0.055854
v 0.022888 -0.191174 0.021841
vn 0.9282314 0.04406701 0.3693841
vn 0.9282314 0.04406701 0.3693841
vn 0.9282314 0.04406701 0.3693841
vn -0.1878709 0.6384069 0.7464189
vn -0.1878709 0.6384069 0.7464189
vn -0.1878709 0.6384069 0.7464189
vn -0.9721429 -0.138978 0.188741
vn -0.9721429 -0.138978 0.188741
vn -0.9721429 -0.138978 0.188741
vn -0.9990286 -0.01486099 0.04148598
vn -0.9990286 -0.01486099 0.04148598
vn -0.9990286 -0.01486099 0.04148598
vn -0.9906415 0.01388599 0.1357809
vn -0.9906415 0.01388599 0.1357809
vn -0.9906415 0.01388599 0.1357809
vn -0.03353399 -0.9994375 0
vn -0.03353399 -0.9994375 0
vn -0.03353399 -0.9994375 0
vn 0.9741391 -0.028386 0.224159
vn 0.9741391 -0.028386 0.224159
vn 0.9741391 -0.028386 0.224159
vn -0.03742899 -0.9981747 -0.04739798
vn -0.03742899 -0.9981747 -0.04739798
vn -0.03742899 -0.9981747 -0.04739798
vn 0.9992662 -0.012245 0.036291
vn 0.9992662 -0.012245 0.036291
vn 0.9992662 -0.012245 0.036291
vn 0.9991596 -0.011654 0.03929799
vn 0.9999754 0.005087002 -0.004835002
vn 0.9999754 0.005087002 -0.004835002
vn 0.9999754 0.005087002 -0.004835002
vn 0.9999754 0.005087002 -0.004835002
vn -0.386322 0.5331361 0.7526761
vn -0.386322 0.5331361 0.7526761
vn -0.386322 0.5331361 0.7526761
vn -0.386322 0.5331361 0.7526761
vn -0.386322 0.5331361 0.7526761
vn -0.1097569 -0.2261109 -0.9678984
vn -0.1097569 -0.2261109 -0.9678984
vn -0.1097569 -0.2261109 -0.9678984
vn -0.1097569 -0.2261109 -0.9678984
vn -0.1097569 -0.2261109 -0.9678984
vn 0.0007400002 0.9687662 -0.2479751
vn 0.0007400002 0.9687662 -0.2479751
vn 0.0007400002 0.9687662 -0.2479751
vn 0.0007400002 0.9687662 -0.2479751
vn -0.243858 -0.797263 -0.552182
vn -0.243858 -0.797263 -0.552182
vn -0.243858 -0.797263 -0.552182
vn -0.243858 -0.797263 -0.552182
g Cube_cell_148_0
f 3/3/3 2/2/2 1/1/1
f 6/6/6 5/5/5 4/4/4
f 9/9/9 8/8/8 7/7/7
f 12/12/12 11/11/11 10/10/10
f 15/15/15 14/14/14 13/13/13
f 18/18/18 17/17/17 16/16/16
f 21/21/21 20/20/20 19/19/19
f 24/24/24 23/23/23 22/22/22
f 27/27/27 26/26/26 25/25/25
f 25/25/25 26/26/26 28/28/28
f 31/31/31 30/30/30 29/29/29
f 32/32/32 31/31/31 29/29/29
f 35/35/35 34/34/34 33/33/33
f 33/33/33 36/36/36 35/35/35
f 33/33/33 37/37/37 36/36/36
f 40/40/40 39/39/39 38/38/38
f 38/38/38 41/41/41 40/40/40
f 38/38/38 42/42/42 41/41/41
f 45/45/45 44/44/44 43/43/43
f 46/46/46 45/45/45 43/43/43
f 49/49/49 48/48/48 47/47/47
f 50/50/50 49/49/49 47/47/47
