g Cube_cell_135
v -0.02221 -0.205196 0.31222
v -0.036016 0.175737 -0.161552
v -0.044904 0.207949 0.184017
v 0.005449 -0.206991 -0.00414
v -0.02221 -0.205196 0.31222
v 0.005656 -0.255911 0.324726
v -0.002088 -0.051947 -0.287804
v -0.036016 0.175737 -0.161552
v -0.02221 -0.205196 0.31222
v -0.002088 -0.051947 -0.287804
v 0.005449 -0.206991 -0.00414
v 0.037889 0.175782 -0.154584
v -0.002088 -0.051947 -0.287804
v -0.02221 -0.205196 0.31222
v 0.005449 -0.206991 -0.00414
v 0.04476 0.205923 0.170968
v 0.037889 0.175782 -0.154584
v 0.005449 -0.206991 -0.00414
v 0.005656 -0.255911 0.324726
vn -0.9979368 -0.06101499 -0.019979
vn -0.9979368 -0.06101499 -0.019979
vn -0.9979368 -0.06101499 -0.019979
vn -0.8663778 -0.4940329 -0.07294399
vn -0.8663778 -0.4940329 -0.07294399
vn -0.8663778 -0.4940329 -0.07294399
vn -0.9916148 -0.113282 -0.06218799
vn -0.9916148 -0.113282 -0.06218799
vn -0.9916148 -0.113282 -0.06218799
vn 0.9885415 -0.1198489 -0.09177095
vn 0.9885415 -0.1198489 -0.09177095
vn 0.9885415 -0.1198489 -0.09177095
vn -0.9758759 -0.201446 -0.08417699
vn -0.9758759 -0.201446 -0.08417699
vn -0.9758759 -0.201446 -0.08417699
vn 0.9959132 -0.08941201 -0.012741
vn 0.9959132 -0.08941201 -0.012741
vn 0.9959132 -0.08941201 -0.012741
vn 0.9959406 -0.08894105 -0.01385801
g Cube_cell_135_0
f 3/3/3 2/2/2 1/1/1
f 6/6/6 5/5/5 4/4/4
f 9/9/9 8/8/8 7/7/7
f 12/12/12 11/11/11 10/10/10
f 15/15/15 14/14/14 13/13/13
f 18/18/18 17/17/17 16/16/16
f 19/19/19 18/18/18 16/16/16
