g Cube_cell_036
v 0.058842 0.509537 -0.027364
v 0.155214 0.488602 -0.007413
v 0.051664 0.131811 0.292533
v 0.155214 0.488602 -0.007413
v 0.058842 0.509537 -0.027364
v -0.001333 -0.213732 -0.284876
v -0.137747 -1.321803 -0.141072
v -0.137745 0.169617 0.278224
v 0.14257 -1.321814 -0.111471
v -0.133169 0.416852 -0.00031
v -0.041033 0.457397 0.029848
v -0.137745 0.169617 0.278224
v 0.054857 0.465465 0.068277
v 0.055143 0.465747 -0.048124
v 0.055525 0.175037 0.299621
v -0.001333 -0.213732 -0.284876
v -0.041033 0.457397 0.029848
v -0.133169 0.416852 -0.00031
v 0.055525 0.175037 0.299621
v 0.055143 0.465747 -0.048124
v 0.00327 -0.179011 -0.271996
v -0.001868 -0.374264 0.139573
v 0.00327 -0.179011 -0.271996
v -0.051544 0.489117 0.009053
v -0.001868 -0.374264 0.139573
v -0.046002 0.172576 0.288631
v -0.051441 -1.322015 -0.261996
v 0.050359 -1.328243 -0.120882
v 0.142572 0.178707 0.309823
v 0.142572 -0.095127 -0.291181
v 0.142572 0.484666 -0.046178
v -0.137747 0.169622 0.278245
v 0.050359 -1.328243 -0.120882
v -0.051441 -1.322015 -0.261996
v -0.137747 -0.25657 -0.250777
v -0.137748 0.460035 0.0237
v 0.142544 -1.321803 -0.291538
v 0.155214 0.488602 -0.007413
v -0.001333 -0.213732 -0.284876
v -0.137746 -1.321803 -0.25128
v -0.133169 0.416852 -0.00031
vn -0.017506 0.646369 0.7628241
vn -0.017506 0.646369 0.7628241
vn -0.017506 0.646369 0.7628241
vn 0.256182 0.305235 -0.9171709
vn 0.256182 0.305235 -0.9171709
vn 0.256182 0.305235 -0.9171709
vn -0.101145 -0.269258 0.9577421
vn -0.101145 -0.269258 0.9577421
vn -0.101145 -0.269258 0.9577421
vn -0.4796909 0.6601129 0.5780549
vn -0.4796909 0.6601129 0.5780549
vn -0.4796909 0.6601129 0.5780549
vn 0.9999878 0.004267999 0.002467999
vn 0.9999878 0.004267999 0.002467999
vn 0.9999878 0.004267999 0.002467999
vn 0.1058539 0.4273217 -0.8978814
vn 0.1058539 0.4273217 -0.8978814
vn 0.1058539 0.4273217 -0.8978814
vn 0.9966876 -0.06185197 -0.05280398
vn 0.9966876 -0.06185197 -0.05280398
vn 0.9966876 -0.06185197 -0.05280398
vn 0.9949954 -0.09451603 -0.03241701
vn -0.9970459 -0.063826 -0.042728
vn -0.9970459 -0.063826 -0.042728
vn -0.9970459 -0.063826 -0.042728
vn -0.9963599 -0.06556399 -0.05448099
vn 0.9943671 -0.068665 -0.08074201
vn 0.9943671 -0.068665 -0.08074201
vn 0.9943671 -0.068665 -0.08074201
vn 0.9943671 -0.068665 -0.08074201
vn 0.9943671 -0.068665 -0.08074201
vn -0.9782664 -0.106666 0.1778121
vn -0.9782664 -0.106666 0.1778121
vn -0.9782664 -0.106666 0.1778121
vn -0.9782664 -0.106666 0.1778121
vn -0.9782664 -0.106666 0.1778121
vn -0.09506997 0.08667897 -0.9916897
vn -0.09506997 0.08667897 -0.9916897
vn -0.09506997 0.08667897 -0.9916897
vn -0.09506997 0.08667897 -0.9916897
vn -0.09506997 0.08667897 -0.9916897
g Cube_cell_036_0
f 3/3/3 2/2/2 1/1/1
f 6/6/6 5/5/5 4/4/4
f 9/9/9 8/8/8 7/7/7
f 12/12/12 11/11/11 10/10/10
f 15/15/15 14/14/14 13/13/13
f 18/18/18 17/17/17 16/16/16
f 21/21/21 20/20/20 19/19/19
f 22/22/22 21/21/21 19/19/19
f 25/25/25 24/24/24 23/23/23
f 25/25/25 26/26/26 24/24/24
f 29/29/29 28/28/28 27/27/27
f 27/27/27 30/30/30 29/29/29
f 30/30/30 31/31/31 29/29/29
f 34/34/34 33/33/33 32/32/32
f 32/32/32 35/35/35 34/34/34
f 32/32/32 36/36/36 35/35/35
f 39/39/39 38/38/38 37/37/37
f 37/37/37 40/40/40 39/39/39
f 40/40/40 41/41/41 39/39/39
