g Cube_cell_020
v -0.000748 -0.148338 0.23339
v -0.007039 -0.230473 -0.170806
v -0.025887 -0.034608 0.297016
v -0.048463 0.339248 -0.18159
v -0.136275 0.274812 -0.238648
v -0.017639 0.271827 -0.305251
v 0.030885 0.012881 0.284643
v -0.035539 0.131223 0.248364
v 0.002483 0.225001 0.221578
v 0.047011 0.22089 -0.325075
v -0.007039 -0.230473 -0.170806
v 0.023675 -0.032767 0.29707
v -0.007039 -0.230473 -0.170806
v -0.000748 -0.148338 0.23339
v 0.023675 -0.032767 0.29707
v -0.038268 0.008607 0.31227
v 0.080244 -0.610738 -0.050515
v -0.081051 -0.587124 -0.036189
v 0.080244 -0.610738 -0.050515
v 0.000381 -0.234206 -0.177833
v -0.081051 -0.587124 -0.036189
v -0.081051 -0.587124 -0.036189
v 0.000381 -0.234206 -0.177833
v -0.046455 0.065996 -0.256178
v -0.000979 -0.152228 0.232194
v 0.080244 -0.610738 -0.050515
v -0.038268 0.008607 0.31227
v 0.080244 -0.610738 -0.050515
v -0.000979 -0.152228 0.232194
v 0.030885 0.012881 0.284643
v -0.048463 0.339248 -0.18159
v -0.017639 0.271827 -0.305251
v 0.051523 0.279736 -0.283852
v 0.002854 -0.034528 0.286397
v -0.003193 0.214431 -0.315572
v 0.086368 -0.598232 -0.067851
v 0.07882 -0.563032 0.007381
v 0.046532 0.308417 -0.274174
v 0.047011 0.22089 -0.325075
v 0.023675 -0.032767 0.29707
v 0.048617 0.473967 0.149283
v -0.025887 -0.034608 0.297016
v -0.007039 -0.230473 -0.170806
v -0.045707 0.270946 -0.297191
v -0.050055 0.458782 0.152005
v 0.139445 -0.618877 -0.059818
v 0.080244 -0.610738 -0.050515
v 0.02098 0.218478 0.298777
v 0.141367 0.373058 0.23484
v -0.140952 -0.594317 -0.028675
v -0.141139 -0.039087 0.296684
v -0.037038 0.116738 0.292601
v -0.080127 -0.59566 -0.040169
v -0.080127 -0.59566 -0.040169
v -0.017639 0.271827 -0.305251
v -0.136275 0.274812 -0.238648
v -0.140952 -0.594317 -0.028675
v -0.141138 -0.590349 -0.024303
v -0.141139 0.242645 -0.296693
v -0.141139 0.444603 0.15465
v -0.141139 -0.039063 0.296697
v -0.046455 0.065996 -0.256178
v 0.007869 -0.226187 -0.147455
v 0.051523 0.279736 -0.283852
v -0.017639 0.271827 -0.305251
v 0.080244 -0.610738 -0.050515
v 0.139445 -0.618877 -0.059818
v 0.139391 0.28442 -0.327785
v 0.047456 0.261146 -0.318143
v 0.000381 -0.234206 -0.177833
v -0.048463 0.339248 -0.18159
v 0.051523 0.279736 -0.283852
v 0.030885 0.012881 0.284643
v -0.035539 0.131223 0.248364
v -0.136275 0.274812 -0.238648
v -0.048463 0.339248 -0.18159
v -0.037038 0.116738 0.292601
v -0.141139 -0.039087 0.296684
v 0.139391 0.28442 -0.327785
v 0.141367 0.373058 0.23484
v 0.05127 0.457366 0.153465
v 0.047456 0.261146 -0.318143
v 0.002854 -0.034528 0.286397
v -0.04798 -0.035222 0.296954
v -0.08825 -0.597266 -0.040205
v -0.003193 0.214431 -0.315572
v 0.13918 0.48812 0.146599
v 0.13918 0.28905 -0.317759
v 0.13918 -0.619251 -0.055449
v 0.13918 -0.027272 0.297
vn -0.9659036 -0.2503719 0.06590997
vn -0.9659036 -0.2503719 0.06590997
vn -0.9659036 -0.2503719 0.06590997
vn -0.266752 0.8166759 -0.5117459
vn -0.266752 0.8166759 -0.5117459
vn -0.266752 0.8166759 -0.5117459
vn -0.020758 0.282363 0.959083
vn -0.020758 0.282363 0.959083
vn -0.020758 0.282363 0.959083
vn 0.9922857 -0.123284 -0.013045
vn 0.9922857 -0.123284 -0.013045
vn 0.9922857 -0.123284 -0.013045
vn 0.9744723 -0.2224881 0.03004401
vn 0.9744723 -0.2224881 0.03004401
vn 0.9744723 -0.2224881 0.03004401
vn 0.002721 -0.505041 0.8630911
vn 0.002721 -0.505041 0.8630911
vn 0.002721 -0.505041 0.8630911
vn -0.132771 -0.342636 -0.9300389
vn -0.132771 -0.342636 -0.9300389
vn -0.132771 -0.342636 -0.9300389
vn -0.326916 -0.286071 -0.900716
vn -0.326916 -0.286071 -0.900716
vn -0.326916 -0.286071 -0.900716
vn -0.8376878 -0.3863859 0.3859859
vn -0.8376878 -0.3863859 0.3859859
vn -0.8376878 -0.3863859 0.3859859
vn 0.5895661 -0.345675 0.7300141
vn 0.5895661 -0.345675 0.7300141
vn 0.5895661 -0.345675 0.7300141
vn 0.04447999 0.8817368 -0.4696399
vn 0.04447999 0.8817368 -0.4696399
vn 0.04447999 0.8817368 -0.4696399
vn 0.991761 0.12159 0.040324
vn 0.991761 0.12159 0.040324
vn 0.991761 0.12159 0.040324
vn 0.9918698 0.119565 0.04357199
vn 0.9993974 -0.01319501 0.03210701
vn 0.9993974 -0.01319501 0.03210701
vn 0.9993974 -0.01319501 0.03210701
vn 0.9988855 -0.04542102 0.01283901
vn -0.9968727 -0.07869398 -0.007213998
vn -0.9968727 -0.07869398 -0.007213998
vn -0.9968727 -0.07869398 -0.007213998
vn -0.9988903 -0.04610502 0.009611004
vn 0.541503 -0.265056 0.7978219
vn 0.541503 -0.265056 0.7978219
vn 0.541503 -0.265056 0.7978219
vn 0.541503 -0.265056 0.7978219
vn 0.4668099 -0.4198889 0.7783199
vn 0.4668099 -0.4198889 0.7783199
vn 0.4668099 -0.4198889 0.7783199
vn 0.4668099 -0.4198889 0.7783199
vn -0.3931032 -0.2284401 -0.8906655
vn -0.3931032 -0.2284401 -0.8906655
vn -0.3931032 -0.2284401 -0.8906655
vn -0.3931032 -0.2284401 -0.8906655
vn -1 0 0
vn -1 0 0
vn -1 0 0
vn -1 0 0
vn 0.3323399 -0.2693709 -0.9038747
vn 0.3323399 -0.2693709 -0.9038747
vn 0.3323399 -0.2693709 -0.9038747
vn 0.3323399 -0.2693709 -0.9038747
vn -0.01261 -0.2895221 -0.9570883
vn -0.01261 -0.2895221 -0.9570883
vn -0.01261 -0.2895221 -0.9570883
vn -0.01261 -0.2895221 -0.9570883
vn -0.01261 -0.2895221 -0.9570883
vn 0.7502128 0.5948339 0.2887099
vn 0.7502128 0.5948339 0.2887099
vn 0.7502128 0.5948339 0.2887099
vn 0.7502128 0.5948339 0.2887099
vn -0.752071 0.5799839 0.313062
vn -0.752071 0.5799839 0.313062
vn -0.752071 0.5799839 0.313062
vn -0.752071 0.5799839 0.313062
vn 0.3939171 0.8855813 -0.2461201
vn 0.3939171 0.8855813 -0.2461201
vn 0.3939171 0.8855813 -0.2461201
vn 0.3939171 0.8855813 -0.2461201
vn -0.9866048 0.16303 -0.005690998
vn -0.9866048 0.16303 -0.005690998
vn -0.9866048 0.16303 -0.005690998
vn -0.9866048 0.16303 -0.005690998
vn 1 0 0
vn 1 0 0
vn 1 0 0
vn 1 0 0
g Cube_cell_020_0
f 3/3/3 2/2/2 1/1/1
f 6/6/6 5/5/5 4/4/4
f 9/9/9 8/8/8 7/7/7
f 12/12/12 11/11/11 10/10/10
f 15/15/15 14/14/14 13/13/13
f 18/18/18 17/17/17 16/16/16
f 21/21/21 20/20/20 19/19/19
f 24/24/24 23/23/23 22/22/22
f 27/27/27 26/26/26 25/25/25
f 30/30/30 29/29/29 28/28/28
f 33/33/33 32/32/32 31/31/31
f 36/36/36 35/35/35 34/34/34
f 34/34/34 37/37/37 36/36/36
f 40/40/40 39/39/39 38/38/38
f 41/41/41 40/40/40 38/38/38
f 44/44/44 43/43/43 42/42/42
f 45/45/45 44/44/44 42/42/42
f 48/48/48 47/47/47 46/46/46
f 49/49/49 48/48/48 46/46/46
f 52/52/52 51/51/51 50/50/50
f 53/53/53 52/52/52 50/50/50
f 56/56/56 55/55/55 54/54/54
f 57/57/57 56/56/56 54/54/54
f 60/60/60 59/59/59 58/58/58
f 61/61/61 60/60/60 58/58/58
f 64/64/64 63/63/63 62/62/62
f 65/65/65 64/64/64 62/62/62
f 68/68/68 67/67/67 66/66/66
f 66/66/66 69/69/69 68/68/68
f 66/66/66 70/70/70 69/69/69
f 73/73/73 72/72/72 71/71/71
f 74/74/74 73/73/73 71/71/71
f 77/77/77 76/76/76 75/75/75
f 78/78/78 77/77/77 75/75/75
f 81/81/81 80/80/80 79/79/79
f 82/82/82 81/81/81 79/79/79
f 85/85/85 84/84/84 83/83/83
f 86/86/86 85/85/85 83/83/83
f 89/89/89 88/88/88 87/87/87
f 90/90/90 89/89/89 87/87/87
