g Cube_cell_100
v -0.023689 -0.425376 -0.204507
v 0.065059 0.121323 0.311917
v 0.063027 0.038937 -0.189656
v -0.023689 -0.425376 -0.204507
v 0.063027 0.038937 -0.189656
v -0.033415 0.385838 -0.220084
v -0.003917 0.144601 0.31408
v 0.065059 0.121323 0.311917
v -0.023689 -0.425376 -0.204507
v -0.033415 0.385838 -0.220084
v 0.063027 0.038937 -0.189656
v -0.003917 0.144601 0.31408
v -0.02366 0.15768 -0.239946
v -0.021612 0.123036 0.320275
v -0.03101 0.432241 0.078694
v -0.023777 -0.425523 -0.203884
v 0.064395 0.456922 0.051499
v 0.064395 0.202744 -0.198399
v 0.064395 -0.385821 -0.163827
v 0.064395 0.123061 0.314704
vn 0.9825115 -0.1843361 0.02629701
vn 0.9825115 -0.1843361 0.02629701
vn 0.9825115 -0.1843361 0.02629701
vn 0.2493711 -0.01560301 -0.9682823
vn 0.2493711 -0.01560301 -0.9682823
vn 0.2493711 -0.01560301 -0.9682823
vn -0.198482 -0.6558099 0.7283669
vn -0.198482 -0.6558099 0.7283669
vn -0.198482 -0.6558099 0.7283669
vn 0.9594715 0.2729058 0.07026296
vn 0.9594715 0.2729058 0.07026296
vn 0.9594715 0.2729058 0.07026296
vn 0.9995798 0.02892399 -0.001866
vn 0.9995798 0.02892399 -0.001866
vn 0.9995798 0.02892399 -0.001866
vn 0.9999932 -0.0004290001 -0.003682001
vn 1 0 0
vn 1 0 0
vn 1 0 0
vn 1 0 0
g Cube_cell_100_0
f 3/3/3 2/2/2 1/1/1
f 6/6/6 5/5/5 4/4/4
f 9/9/9 8/8/8 7/7/7
f 12/12/12 11/11/11 10/10/10
f 15/15/15 14/14/14 13/13/13
f 14/14/14 16/16/16 13/13/13
f 19/19/19 18/18/18 17/17/17
f 20/20/20 19/19/19 17/17/17
