g Cube_cell_084
v -0.036795 -0.010515 -0.319499
v 0.004324 0.141579 -0.144861
v -0.003483 -0.132048 -0.098983
v -0.140348 0.025794 0.891214
v 0.140454 0.215961 -0.043078
v 0.139383 0.090695 0.892046
v 0.004324 0.141579 -0.144861
v 0.035683 -0.008598 -0.31805
v -0.003483 -0.132048 -0.098983
v -0.140348 0.025794 0.891214
v 0.139383 0.090695 0.892046
v 0.142204 -0.067668 -0.276764
v -0.139859 0.216824 -0.059893
v 0.140454 0.215961 -0.043078
v -0.140348 0.025794 0.891214
v 0.003252 -0.119085 -0.024967
v 0.142204 -0.067668 -0.276764
v 0.004611 0.147676 -0.153202
v 0.004611 0.147676 -0.153202
v 0.142204 -0.067668 -0.276764
v 0.140454 0.215961 -0.043078
v -0.139859 0.216824 -0.059893
v -0.034578 -0.02294 -0.318471
v -0.138108 -0.058769 -0.31745
v 0.140453 0.002216 -0.310244
v 0.140453 -0.172382 0.023875
v 0.140453 -0.034584 0.858391
v 0.140453 0.141145 0.875062
v 0.140453 0.215963 -0.043039
v -0.139866 -0.062466 0.825533
v -0.139866 -0.113334 -0.17528
v -0.139866 -0.0213 -0.332419
v -0.139866 0.148581 0.860806
v -0.139866 0.21678 -0.059228
v -0.140348 0.025794 0.891214
v 0.142204 -0.067668 -0.276764
v 0.003252 -0.119085 -0.024967
v -0.138108 -0.058769 -0.31745
v -0.034578 -0.02294 -0.318471
vn -0.9818593 0.05826902 0.180436
vn -0.9818593 0.05826902 0.180436
vn -0.9818593 0.05826902 0.180436
vn -0.224482 0.9658848 0.129129
vn -0.224482 0.9658848 0.129129
vn -0.224482 0.9658848 0.129129
vn 0.9842362 0.001568 0.176852
vn 0.9842362 0.001568 0.176852
vn 0.9842362 0.001568 0.176852
vn 0.2236799 -0.9657657 0.131392
vn 0.2236799 -0.9657657 0.131392
vn 0.2236799 -0.9657657 0.131392
vn -0.008792999 0.9803829 0.196906
vn -0.008792999 0.9803829 0.196906
vn -0.008792999 0.9803829 0.196906
vn -0.8286701 -0.239074 -0.506112
vn -0.8286701 -0.239074 -0.506112
vn -0.8286701 -0.239074 -0.506112
vn 0.015583 0.7096699 -0.7043619
vn 0.015583 0.7096699 -0.7043619
vn 0.015583 0.7096699 -0.7043619
vn 0.015583 0.7096699 -0.7043619
vn 0.015583 0.7096699 -0.7043619
vn 0.015583 0.7096699 -0.7043619
vn 1 0 0
vn 1 0 0
vn 1 0 0
vn 1 0 0
vn 1 0 0
vn -1 0 0
vn -1 0 0
vn -1 0 0
vn -1 0 0
vn -1 0 0
vn -0.01233 -0.995384 0.095176
vn -0.01233 -0.995384 0.095176
vn -0.01233 -0.995384 0.095176
vn -0.01233 -0.995384 0.095176
vn -0.01233 -0.995384 0.095176
g Cube_cell_084_0
f 3/3/3 2/2/2 1/1/1
f 6/6/6 5/5/5 4/4/4
f 9/9/9 8/8/8 7/7/7
f 12/12/12 11/11/11 10/10/10
f 15/15/15 14/14/14 13/13/13
f 18/18/18 17/17/17 16/16/16
f 21/21/21 20/20/20 19/19/19
f 19/19/19 22/22/22 21/21/21
f 19/19/19 23/23/23 22/22/22
f 23/23/23 24/24/24 22/22/22
f 27/27/27 26/26/26 25/25/25
f 25/25/25 28/28/28 27/27/27
f 25/25/25 29/29/29 28/28/28
f 32/32/32 31/31/31 30/30/30
f 30/30/30 33/33/33 32/32/32
f 33/33/33 34/34/34 32/32/32
f 37/37/37 36/36/36 35/35/35
f 37/37/37 35/35/35 38/38/38
f 38/38/38 39/39/39 37/37/37
