g Cube_cell_099
v -0.022263 -0.218762 -0.947443
v 0.134655 -0.267734 0.389193
v -0.005162 1.311453 -0.802208
v 0.002478 -0.223575 0.141192
v -0.002793 -0.03422 0.241486
v -0.052155 -0.197239 0.363067
v 0.002478 -0.223575 0.141192
v 0.040274 -0.243807 0.385923
v -0.002793 -0.03422 0.241486
v -0.148385 1.432699 -0.909258
v -0.003212 0.026947 0.244525
v -0.096108 -0.201345 0.511183
v 0.009543 -0.205861 0.140895
v 0.134661 -0.267709 0.38919
v 0.130768 -0.282754 -0.947852
v -0.022263 -0.218762 -0.947443
v -0.005162 1.311453 -0.802208
v -0.145664 -0.150469 0.343055
v 0.134661 -0.267709 0.38919
v 0.009543 -0.205861 0.140895
v 0.133251 1.412841 -0.917606
v -0.145863 -0.150619 -0.947855
v -0.096108 -0.201345 0.511183
v 0.009543 -0.205861 0.140895
v 0.130768 -0.282754 -0.947852
v -0.148385 1.432699 -0.909258
v 0.133251 1.412841 -0.917606
v 0.009543 -0.205861 0.140895
v -0.003212 0.026947 0.244525
vn 0.9931792 -3.200001E-05 -0.116598
vn 0.9931792 -3.200001E-05 -0.116598
vn 0.9931792 -3.200001E-05 -0.116598
vn -0.9626158 0.105371 -0.2495349
vn -0.9626158 0.105371 -0.2495349
vn -0.9626158 0.105371 -0.2495349
vn 0.9842418 0.103384 -0.143457
vn 0.9842418 0.103384 -0.143457
vn 0.9842418 0.103384 -0.143457
vn 0.4530781 0.5930671 0.6655762
vn 0.4530781 0.5930671 0.6655762
vn 0.4530781 0.5930671 0.6655762
vn -0.4610742 -0.8872893 0.011327
vn -0.4610742 -0.8872893 0.011327
vn -0.4610742 -0.8872893 0.011327
vn -0.995153 0.020254 -0.09623099
vn -0.995153 0.020254 -0.09623099
vn -0.995153 0.020254 -0.09623099
vn -0.7843684 0.3803602 0.4899922
vn -0.7843684 0.3803602 0.4899922
vn -0.7843684 0.3803602 0.4899922
vn -0.3364009 -0.9417188 0.000235
vn -0.3364009 -0.9417188 0.000235
vn -0.3364009 -0.9417188 0.000235
vn -0.3364009 -0.9417188 0.000235
vn 0.6321758 0.4603609 0.6232348
vn 0.6321758 0.4603609 0.6232348
vn 0.6321758 0.4603609 0.6232348
vn 0.6321758 0.4603609 0.6232348
g Cube_cell_099_0
f 3/3/3 2/2/2 1/1/1
f 6/6/6 5/5/5 4/4/4
f 9/9/9 8/8/8 7/7/7
f 12/12/12 11/11/11 10/10/10
f 15/15/15 14/14/14 13/13/13
f 18/18/18 17/17/17 16/16/16
f 21/21/21 20/20/20 19/19/19
f 24/24/24 23/23/23 22/22/22
f 25/25/25 24/24/24 22/22/22
f 28/28/28 27/27/27 26/26/26
f 29/29/29 28/28/28 26/26/26
