g Cube_cell_041
v 0.033756 0.288741 -0.117276
v -0.057549 0.20615 -0.167086
v 0.033134 -0.261058 0.138874
v 0.033134 -0.261058 0.138874
v -0.057549 0.20615 -0.167086
v -0.057927 -0.227956 0.105912
v 0.033756 0.288741 -0.117276
v 0.003924 0.276524 0.138068
v -0.057549 0.20615 -0.167086
v 0.003924 0.276524 0.138068
v 0.033134 -0.261058 0.138874
v -0.057927 -0.227956 0.105912
v -0.060964 0.239164 -0.109894
v -0.060964 0.239281 0.100317
v -0.060961 -0.218512 0.060887
v -0.060964 0.065966 -0.158238
v 0.036146 0.271463 -0.111962
v 0.028287 0.285079 0.142694
v 0.026796 -0.241313 0.173516
v 0.036411 -0.181408 -0.035692
vn 0.6593727 -0.3181149 -0.6811978
vn 0.6593727 -0.3181149 -0.6811978
vn 0.6593727 -0.3181149 -0.6811978
vn 0.112154 -0.5290669 -0.8411359
vn 0.112154 -0.5290669 -0.8411359
vn 0.112154 -0.5290669 -0.8411359
vn -0.6579099 0.751986 -0.040884
vn -0.6579099 0.751986 -0.040884
vn -0.6579099 0.751986 -0.040884
vn -0.3458988 -0.01738799 0.9381106
vn -0.3458988 -0.01738799 0.9381106
vn -0.3458988 -0.01738799 0.9381106
vn -1 0 0
vn -1 0 0
vn -1 0 0
vn -1 0 0
vn -0.9992761 -0.002897 -0.03793401
vn -0.9992761 -0.002897 -0.03793401
vn -0.9992761 -0.002897 -0.03793401
vn -0.9992761 -0.002897 -0.03793401
g Cube_cell_041_0
f 3/3/3 2/2/2 1/1/1
f 6/6/6 5/5/5 4/4/4
f 9/9/9 8/8/8 7/7/7
f 12/12/12 11/11/11 10/10/10
f 15/15/15 14/14/14 13/13/13
f 16/16/16 15/15/15 13/13/13
f 19/19/19 18/18/18 17/17/17
f 20/20/20 19/19/19 17/17/17
