g Cube
v 0.0117 0.04610854 -0.013
v -0.0117 0.04610856 -0.013
v -0.0117 -0.04610853 -0.013
v 0.0117 -0.04610854 -0.013
v 0.01170001 0.04610852 0.013
v 0.01169999 -0.04610856 0.013
v -0.01170001 -0.04610853 0.013
v -0.0117 0.04610854 0.013
v 0.0117 -0.04610854 -0.013
v -0.0117 -0.04610853 -0.013
v -0.01170001 -0.04610853 0.013
v 0.01169999 -0.04610856 0.013
v -0.0117 -0.04610853 -0.013
v -0.0117 0.04610856 -0.013
v -0.0117 0.04610854 0.013
v -0.01170001 -0.04610853 0.013
v 0.01170001 0.04610852 0.013
v -0.0117 0.04610854 0.013
v -0.0117 0.04610856 -0.013
v 0.0117 0.04610854 -0.013
v 0.0117 0.04493907 -0.01201755
v 0.01085841 0.04493907 -0.01201755
v 0.01085841 0.04493905 0.01201755
v 0.01170001 0.04493905 0.01201755
v 0.01169999 -0.0449391 0.01201755
v 0.0108584 -0.0449391 0.01201755
v 0.01085841 -0.04493907 -0.01201755
v 0.0117 -0.04493907 -0.01201755
v 0.0117 -0.04493907 -0.01201755
v 0.01085841 -0.04493907 -0.01201755
v 0.01085841 0.04493907 -0.01201755
v 0.0117 0.04493907 -0.01201755
v 0.01170001 0.04493905 0.01201755
v 0.01085841 0.04493905 0.01201755
v 0.0108584 -0.0449391 0.01201755
v 0.01169999 -0.0449391 0.01201755
v 0.01085841 0.04437402 0.01178775
v -0.01133531 0.04437402 0.01178775
v -0.01133533 -0.04437407 0.01178775
v 0.0108584 -0.04437407 0.01178775
v -0.01133532 0.04437404 -0.01150423
v -0.01133532 -0.04437404 -0.01150423
v -0.01133533 -0.04437407 0.01178775
v -0.01133531 0.04437402 0.01178775
v 0.01085841 0.04437404 -0.01150423
v -0.01133532 0.04437404 -0.01150423
v -0.01133531 0.04437402 0.01178775
v 0.01085841 0.04437402 0.01178775
v 0.0108584 -0.04437407 0.01178775
v -0.01133533 -0.04437407 0.01178775
v -0.01133532 -0.04437404 -0.01150423
v 0.01085841 -0.04437404 -0.01150423
v 0.01085841 -0.04437404 -0.01150423
v -0.01133532 -0.04437404 -0.01150423
v -0.01133532 0.04437404 -0.01150423
v 0.01085841 0.04437404 -0.01150423
v 0.0117 0.04610854 -0.013
v 0.0117 0.04493907 -0.01201755
v 0.01170001 0.04493905 0.01201755
v 0.01170001 0.04610852 0.013
v 0.0117 -0.04610854 -0.013
v 0.01169999 -0.0449391 0.01201755
v 0.0117 -0.04493907 -0.01201755
v 0.01169999 -0.04610856 0.013
v 0.0108584 -0.0449391 0.01201755
v 0.01085841 -0.04437404 -0.01150423
v 0.01085841 -0.04493907 -0.01201755
v 0.0108584 -0.04437407 0.01178775
v 0.01085841 0.04437404 -0.01150423
v 0.01085841 0.04493905 0.01201755
v 0.01085841 0.04493907 -0.01201755
v 0.01085841 0.04437402 0.01178775
vt 0.4683455 0.2416574
vt 0.4683456 0.1232196
vt 0.00159391 0.1232197
vt 0.001593956 0.2416575
vt 0.5999429 0.001593991
vt 0.1331915 0.00159391
vt 0.1331916 0.1200317
vt 0.599943 0.1200318
vt 0.00159391 0.001594014
vt 0.001594072 0.1200318
vt 0.1331916 0.1200317
vt 0.1331915 0.00159391
vt 0.00159391 0.7543248
vt 0.4683455 0.7543247
vt 0.4683454 0.6227273
vt 0.00159391 0.6227273
vt 0.599943 0.2416575
vt 0.5999431 0.1232197
vt 0.4683456 0.1232196
vt 0.4683455 0.2416574
vt 0.3080358 0.9191525
vt 0.308058 0.9245009
vt 0.4608085 0.9238673
vt 0.4607863 0.9185188
vt 0.1543457 0.9035376
vt 0.1543457 0.8981891
vt 0.00159391 0.8981894
vt 0.00159391 0.9035379
vt 0.00159391 0.9185185
vt 0.001616093 0.9238669
vt 0.308058 0.9245009
vt 0.3080358 0.9191525
vt 0.4607823 0.9054421
vt 0.4607823 0.9000936
vt 0.1543457 0.8981891
vt 0.1543457 0.9035376
vt 0.5686783 0.3571776
vt 0.5686782 0.2448453
vt 0.119485 0.2448453
vt 0.119485 0.3571776
vt 0.9207269 0.7634043
vt 0.4715334 0.7634044
vt 0.4715333 0.8812954
vt 0.9207267 0.8812954
vt 0.4507872 0.3603656
vt 0.4507872 0.4726979
vt 0.5686783 0.4726979
vt 0.5686783 0.3603655
vt 0.119485 0.3571776
vt 0.119485 0.2448453
vt 0.00159391 0.2448453
vt 0.001593933 0.3571777
vt 0.00159391 0.3603656
vt 0.00159391 0.4726979
vt 0.4507872 0.4726979
vt 0.4507872 0.3603656
vt 0.4305902 0.4758858
vt 0.4235602 0.482426
vt 0.4222293 0.6129943
vt 0.4291735 0.6195394
vt 0.00301061 0.4758858
vt 0.008623896 0.612999
vt 0.009954823 0.4824308
vt 0.00159391 0.6195393
vt 0.433778 0.6194365
vt 0.4442652 0.4804128
vt 0.4404956 0.4758858
vt 0.4378035 0.6174811
vt 0.8235092 0.4815417
vt 0.8204039 0.6194365
vt 0.82765 0.4769233
vt 0.8165995 0.6175632
vn 0 0 -1
vn 0 0 -1
vn 0 0 -1
vn 0 0 -1
vn 0 0 1
vn 0 0 1
vn 0 0 1
vn 0 0 1
vn -1.018883E-06 -1 -3.559709E-07
vn -1.018883E-06 -1 -3.559709E-07
vn -1.018883E-06 -1 -3.559709E-07
vn -1.018883E-06 -1 -3.559709E-07
vn -1 0 -1.375492E-07
vn -1 0 -1.375492E-07
vn -1 0 -1.375492E-07
vn -1 0 -1.375492E-07
vn 9.169946E-07 1 7.412875E-07
vn 9.169946E-07 1 7.412875E-07
vn 9.169946E-07 1 7.412875E-07
vn 9.169946E-07 1 7.412875E-07
vn 0 -1 -1.049294E-06
vn 0 -1 -1.049294E-06
vn 0 -1 -1.049294E-06
vn 0 -1 -1.049294E-06
vn 0 1 1.20021E-06
vn 0 1 1.20021E-06
vn 0 1 1.20021E-06
vn 0 1 1.20021E-06
vn 0 0 1
vn 0 0 1
vn 0 0 1
vn 0 0 1
vn 0 0 -1
vn 0 0 -1
vn 0 0 -1
vn 0 0 -1
vn 0 0 -1
vn 0 0 -1
vn 0 0 -1
vn 0 0 -1
vn 1 0 0
vn 1 0 0
vn 1 0 0
vn 1 0 0
vn -1.074261E-07 -1 -9.642389E-07
vn -1.074261E-07 -1 -9.642389E-07
vn -1.074261E-07 -1 -9.642389E-07
vn -1.074261E-07 -1 -9.642389E-07
vn 2.148522E-07 1 1.230881E-06
vn 2.148522E-07 1 1.230881E-06
vn 2.148522E-07 1 1.230881E-06
vn 2.148522E-07 1 1.230881E-06
vn 0 0 1
vn 0 0 1
vn 0 0 1
vn 0 0 1
vn 1 0 -1.322751E-07
vn 1 0 -1.147431E-07
vn 1 0 -1.147429E-07
vn 1 0 -1.322751E-07
vn 1 -4.524282E-07 1.587293E-07
vn 1 -4.658672E-07 1.376912E-07
vn 1 -3.924619E-07 1.376908E-07
vn 1 -5.154119E-07 1.587289E-07
vn 1 0 2.279301E-07
vn 1 0 1.480576E-07
vn 1 0 1.603499E-07
vn 1 0 1.255319E-07
vn 1 0 -1.233801E-07
vn 1 0 -1.899404E-07
vn 1 0 -1.336252E-07
vn 1 0 -1.046074E-07
g Cube_0
f 3/3/3 2/2/2 1/1/1
f 4/4/4 3/3/3 1/1/1
f 7/7/7 6/6/6 5/5/5
f 8/8/8 7/7/7 5/5/5
f 11/11/11 10/10/10 9/9/9
f 12/12/12 11/11/11 9/9/9
f 15/15/15 14/14/14 13/13/13
f 16/16/16 15/15/15 13/13/13
f 19/19/19 18/18/18 17/17/17
f 20/20/20 19/19/19 17/17/17
f 23/23/23 22/22/22 21/21/21
f 24/24/24 23/23/23 21/21/21
f 27/27/27 26/26/26 25/25/25
f 28/28/28 27/27/27 25/25/25
f 31/31/31 30/30/30 29/29/29
f 32/32/32 31/31/31 29/29/29
f 35/35/35 34/34/34 33/33/33
f 36/36/36 35/35/35 33/33/33
f 39/39/39 38/38/38 37/37/37
f 40/40/40 39/39/39 37/37/37
f 43/43/43 42/42/42 41/41/41
f 44/44/44 43/43/43 41/41/41
f 47/47/47 46/46/46 45/45/45
f 48/48/48 47/47/47 45/45/45
f 51/51/51 50/50/50 49/49/49
f 52/52/52 51/51/51 49/49/49
f 55/55/55 54/54/54 53/53/53
f 56/56/56 55/55/55 53/53/53
f 59/59/59 58/58/58 57/57/57
f 60/60/60 59/59/59 57/57/57
f 57/57/57 58/58/58 61/61/61
f 62/62/62 59/59/59 60/60/60
f 58/58/58 63/63/63 61/61/61
f 64/64/64 62/62/62 60/60/60
f 61/61/61 63/63/63 64/64/64
f 63/63/63 62/62/62 64/64/64
f 67/67/67 66/66/66 65/65/65
f 66/66/66 68/68/68 65/65/65
f 69/69/69 66/66/66 67/67/67
f 65/65/65 68/68/68 70/70/70
f 71/71/71 69/69/69 67/67/67
f 68/68/68 72/72/72 70/70/70
f 72/72/72 69/69/69 71/71/71
f 70/70/70 72/72/72 71/71/71
