g Cube_cell_052
v 0.013078 -0.005014 0.147974
v -0.012129 -0.011341 0.166226
v 0.000847 -0.008058 0.249735
v -0.010724 -0.008865 -0.250443
v -0.012129 -0.011341 0.166226
v 0.013078 -0.005014 0.147974
v 0.002321 0.015374 -0.251812
vn 0.2436399 -0.9698657 0.0002789999
vn 0.2436399 -0.9698657 0.0002789999
vn 0.2436399 -0.9698657 0.0002789999
vn 0.6148221 -0.7881282 -0.02911401
vn 0.6148221 -0.7881282 -0.02911401
vn 0.6148221 -0.7881282 -0.02911401
vn 0.6148221 -0.7881282 -0.02911401
g Cube_cell_052_0
f 3/3/3 2/2/2 1/1/1
f 6/6/6 5/5/5 4/4/4
f 7/7/7 6/6/6 4/4/4
