g Cube_cell_113
v -0.007661 0.211736 -0.303675
v 0.075879 0.244813 -0.187697
v -0.035818 -0.025062 0.242514
v 0.066526 -0.106337 0.163948
v -0.035818 -0.025062 0.242514
v 0.075879 0.244813 -0.187697
v 0.075847 0.244836 -0.187929
v 0.075847 0.080944 -0.233893
v 0.075846 -0.12698 0.189277
v 0.066526 -0.106337 0.163948
v -0.038371 -0.242616 0.138601
v -0.035818 -0.025062 0.242514
v 0.066526 -0.106337 0.163948
v -0.007661 0.211736 -0.303675
v -0.038371 -0.242616 0.138601
v -0.014414 0.268829 -0.178602
v -0.012602 0.05722 -0.238084
v -0.035088 -0.027285 0.259496
v -0.038387 -0.242759 0.139008
vn -0.6558719 0.704338 0.271551
vn -0.6558719 0.704338 0.271551
vn -0.6558719 0.704338 0.271551
vn 0.7410824 0.4651382 0.4841933
vn 0.7410824 0.4651382 0.4841933
vn 0.7410824 0.4651382 0.4841933
vn 1 0 0
vn 1 0 0
vn 1 0 0
vn 0.327472 -0.410361 0.8510969
vn 0.327472 -0.410361 0.8510969
vn 0.327472 -0.410361 0.8510969
vn 0.7456644 -0.4899682 -0.4515702
vn 0.7456644 -0.4899682 -0.4515702
vn 0.7456644 -0.4899682 -0.4515702
vn 0.9990028 -0.003948999 0.04447299
vn 0.9990028 -0.003948999 0.04447299
vn 0.9990028 -0.003948999 0.04447299
vn 0.9985599 -0.03700799 0.038839
g Cube_cell_113_0
f 3/3/3 2/2/2 1/1/1
f 6/6/6 5/5/5 4/4/4
f 9/9/9 8/8/8 7/7/7
f 12/12/12 11/11/11 10/10/10
f 15/15/15 14/14/14 13/13/13
f 18/18/18 17/17/17 16/16/16
f 18/18/18 19/19/19 17/17/17
