g Cube_cell_030
v 0.019014 0.000461 0.477171
v -0.068221 0.158619 0.417676
v 0.030541 0.369643 -0.057231
v 0.025077 -0.295946 -0.277005
v 0.030541 0.369643 -0.057231
v -0.068102 0.151207 -0.322877
v -0.068044 -0.364332 -0.153968
v 0.025077 -0.295946 -0.277005
v -0.068102 0.151207 -0.322877
v -0.068221 0.158619 0.417676
v -0.068102 0.151207 -0.322877
v 0.030541 0.369643 -0.057231
v 0.033759 0.282199 -0.19798
v 0.022299 -0.364382 -0.137711
v 0.030974 -0.053574 -0.339027
v 0.026851 0.282268 0.256691
v 0.019594 0.002154 0.480702
v -0.067864 0.008309 0.485774
v -0.067864 -0.355737 -0.166492
v -0.067864 -0.044542 -0.336384
v -0.067864 0.286143 -0.201749
v -0.067864 0.286189 0.265154
v -0.068044 -0.364332 -0.153968
v -0.068221 0.158619 0.417676
v 0.019014 0.000461 0.477171
v 0.025077 -0.295946 -0.277005
vn 0.7317131 0.553321 0.398035
vn 0.7317131 0.553321 0.398035
vn 0.7317131 0.553321 0.398035
vn 0.8855709 0.139071 -0.443197
vn 0.8855709 0.139071 -0.443197
vn 0.8855709 0.139071 -0.443197
vn -0.7163998 -0.2172979 -0.6629879
vn -0.7163998 -0.2172979 -0.6629879
vn -0.7163998 -0.2172979 -0.6629879
vn -0.9093941 0.415913 -0.004309
vn -0.9093941 0.415913 -0.004309
vn -0.9093941 0.415913 -0.004309
vn -0.9997031 0.016005 -0.018368
vn -0.9997031 0.016005 -0.018368
vn -0.9997031 0.016005 -0.018368
vn -0.9997724 0.01578901 -0.01435101
vn -0.9997724 0.01578901 -0.01435101
vn -1 0 0
vn -1 0 0
vn -1 0 0
vn -1 0 0
vn -1 0 0
vn -0.232213 -0.827899 0.510549
vn -0.232213 -0.827899 0.510549
vn -0.232213 -0.827899 0.510549
vn -0.232213 -0.827899 0.510549
g Cube_cell_030_0
f 3/3/3 2/2/2 1/1/1
f 6/6/6 5/5/5 4/4/4
f 9/9/9 8/8/8 7/7/7
f 12/12/12 11/11/11 10/10/10
f 15/15/15 14/14/14 13/13/13
f 16/16/16 13/13/13 14/14/14
f 17/17/17 16/16/16 14/14/14
f 20/20/20 19/19/19 18/18/18
f 18/18/18 21/21/21 20/20/20
f 18/18/18 22/22/22 21/21/21
f 25/25/25 24/24/24 23/23/23
f 26/26/26 25/25/25 23/23/23
