g Cube_cell_088
v 0.091465 -0.051498 1.05211
v 0.10995 -0.056211 1.208686
v 0.10135 -0.036297 -0.749087
v 0.100706 0.030464 1.130398
v -0.170371 0.034631 1.208686
v -0.151887 0.034382 1.05211
v -0.151887 0.034382 1.05211
v -0.170371 0.034631 1.208686
v -0.160307 0.021575 -0.6939
v 0.10995 -0.056211 1.208686
v 0.091465 -0.051498 1.05211
v -0.151887 0.010063 1.05211
v -0.170371 0.0147 1.208686
v -0.160307 0.021575 -0.6939
vn -0.1727189 -0.9849277 -0.009259997
vn -0.1727189 -0.9849277 -0.009259997
vn -0.1727189 -0.9849277 -0.009259997
vn 0.015438 0.9998808 0.00023
vn 0.015438 0.9998808 0.00023
vn 0.015438 0.9998808 0.00023
vn -0.04667799 0.9988847 -0.007101999
vn -0.04667799 0.9988847 -0.007101999
vn -0.04667799 0.9988847 -0.007101999
vn -0.256228 -0.966615 -0.001622
vn -0.256228 -0.966615 -0.001622
vn -0.256228 -0.966615 -0.001622
vn -0.256228 -0.966615 -0.001622
vn -0.256228 -0.966615 -0.001622
g Cube_cell_088_0
f 3/3/3 2/2/2 1/1/1
f 6/6/6 5/5/5 4/4/4
f 9/9/9 8/8/8 7/7/7
f 12/12/12 11/11/11 10/10/10
f 12/12/12 10/10/10 13/13/13
f 13/13/13 14/14/14 12/12/12
