g Cube_cell_156
v 0.009762 0.686061 -0.260209
v -0.011905 -0.198461 -0.538992
v 0.050642 -0.246764 -0.534588
v 0.009762 0.686061 -0.260209
v 0.050701 -0.155396 0.432266
v -0.036335 -0.165052 0.420487
v 0.001201 0.673069 -0.246245
v -0.011087 -0.179132 -0.534482
v -0.013206 0.359371 0.25084
v -0.019654 -0.349683 -0.434663
v -0.034607 -0.348238 0.158317
v -0.037891 -0.22182 0.358721
v 0.050281 -0.286069 -0.503184
v 0.050281 -0.352517 0.166147
v 0.050281 -0.218058 0.356327
v 0.050281 0.679063 -0.255336
v 0.050281 0.353538 0.26083
v 0.050642 -0.246764 -0.534588
v -0.011905 -0.198461 -0.538992
v -0.036335 -0.165052 0.420487
v 0.050701 -0.155396 0.432266
vn 0.2823919 0.2820688 -0.9168926
vn 0.2823919 0.2820688 -0.9168926
vn 0.2823919 0.2820688 -0.9168926
vn -0.172376 0.620914 0.7646911
vn -0.172376 0.620914 0.7646911
vn -0.172376 0.620914 0.7646911
vn 0.9996667 -0.01995399 0.01638
vn 0.9996667 -0.01995399 0.01638
vn 0.9996667 -0.01995399 0.01638
vn 0.9990968 -0.03388099 0.02564799
vn 0.9986328 -0.03524899 0.03859999
vn 0.9986328 -0.03524899 0.03859999
vn 1 0 0
vn 1 0 0
vn 1 0 0
vn 1 0 0
vn 1 0 0
vn -0.2557229 -0.9649316 0.05926798
vn -0.2557229 -0.9649316 0.05926798
vn -0.2557229 -0.9649316 0.05926798
vn -0.2557229 -0.9649316 0.05926798
g Cube_cell_156_0
f 3/3/3 2/2/2 1/1/1
f 6/6/6 5/5/5 4/4/4
f 9/9/9 8/8/8 7/7/7
f 8/8/8 9/9/9 10/10/10
f 9/9/9 11/11/11 10/10/10
f 9/9/9 12/12/12 11/11/11
f 15/15/15 14/14/14 13/13/13
f 13/13/13 16/16/16 15/15/15
f 16/16/16 17/17/17 15/15/15
f 20/20/20 19/19/19 18/18/18
f 21/21/21 20/20/20 18/18/18
