g Cube_cell_074
v -0.086246 0.168392 -0.250911
v 0.000824 -0.17285 -0.021584
v 0.005222 0.109436 -0.265047
v 0.034554 -0.012353 0.232835
v 0.000824 -0.17285 -0.021584
v -0.075866 -0.01698 0.277386
v 0.037324 -0.035596 0.254245
v 0.013085 0.011664 -0.259493
v 0.013777 0.272298 -0.184109
v 0.039041 -0.274807 0.120554
v -0.086246 0.168392 -0.250911
v 0.005222 0.109436 -0.265047
v 0.034554 -0.012353 0.232835
v -0.075866 -0.01698 0.277386
v -0.075864 -0.011853 -0.26361
v -0.075865 0.27932 -0.173198
v -0.075864 -0.016976 0.277393
v -0.075864 -0.306304 0.115866
vn -0.472101 -0.5715191 -0.671183
vn -0.472101 -0.5715191 -0.671183
vn -0.472101 -0.5715191 -0.671183
vn 0.2351861 -0.8358153 0.4960851
vn 0.2351861 -0.8358153 0.4960851
vn 0.2351861 -0.8358153 0.4960851
vn -0.9988775 -0.01069601 0.04614502
vn -0.9988775 -0.01069601 0.04614502
vn -0.9988775 -0.01069601 0.04614502
vn -0.9985154 -0.03185701 0.04418102
vn 0.3207159 0.9107359 0.260195
vn 0.3207159 0.9107359 0.260195
vn 0.3207159 0.9107359 0.260195
vn 0.3207159 0.9107359 0.260195
vn -1 0 0
vn -1 0 0
vn -1 0 0
vn -1 0 0
g Cube_cell_074_0
f 3/3/3 2/2/2 1/1/1
f 6/6/6 5/5/5 4/4/4
f 9/9/9 8/8/8 7/7/7
f 10/10/10 7/7/7 8/8/8
f 13/13/13 12/12/12 11/11/11
f 14/14/14 13/13/13 11/11/11
f 17/17/17 16/16/16 15/15/15
f 18/18/18 17/17/17 15/15/15
