g Cube_cell_009
v -0.142811 -0.272581 -0.525994
v -0.010391 0.236512 -0.025507
v -0.146595 0.315743 0.313393
v -0.002091 0.249109 -0.049998
v -0.044152 0.258827 0.333654
v 0.00544 0.031843 0.208552
v -0.146595 0.315743 0.313393
v -0.010391 0.236512 -0.025507
v -0.006264 0.020356 0.19981
v 0.137509 -0.281871 -0.490955
v 0.005206 -0.118199 -0.405144
v 0.066594 -0.508057 -0.070597
v -0.002091 0.249109 -0.049998
v -0.039239 0.470632 0.137386
v -0.044152 0.258827 0.333654
v 0.066594 -0.508057 -0.070597
v 0.138276 -0.515521 -0.099902
v 0.137509 -0.281871 -0.490955
v -0.142811 -0.272581 -0.525994
v -0.143185 -0.515802 -0.129656
v -0.056841 -0.450433 -0.300079
v -0.004332 0.015732 -0.256748
v 0.023533 -0.277043 -0.506681
v 0.074554 -0.527632 -0.107295
v -0.007008 0.2584 0.337332
v -0.007008 0.2584 0.337332
v -0.028159 -0.275839 -0.51189
v -0.004332 0.015732 -0.256748
v -0.067494 -0.524062 -0.128567
v 0.033353 0.259002 0.340627
v 0.034474 0.46731 0.14611
v 0.00544 0.031843 0.208552
v -0.002091 0.249109 -0.049998
v -0.142808 0.474669 0.125232
v -0.142808 0.25879 0.324689
v -0.142808 -0.509385 -0.129499
v -0.142808 -0.272581 -0.526039
v 0.137511 0.46161 0.160684
v 0.137511 -0.281875 -0.490992
v 0.137511 -0.507797 -0.093092
v 0.137511 0.259154 0.350091
v 0.134574 0.423225 0.257585
v 0.034961 0.402467 0.233883
v -0.010391 0.236512 -0.025507
v 0.137509 -0.281871 -0.490955
v -0.143185 -0.515802 -0.129656
v -0.146595 0.315743 0.313393
v -0.0144 0.281869 0.34847
v -0.056841 -0.450433 -0.300079
vn -0.6925908 0.5892168 -0.4161029
vn -0.6925908 0.5892168 -0.4161029
vn -0.6925908 0.5892168 -0.4161029
vn -0.9820733 -0.157423 -0.103682
vn -0.9820733 -0.157423 -0.103682
vn -0.9820733 -0.157423 -0.103682
vn 0.9030805 0.3180618 0.2885868
vn 0.9030805 0.3180618 0.2885868
vn 0.9030805 0.3180618 0.2885868
vn -0.8066205 -0.4529123 -0.3797812
vn -0.8066205 -0.4529123 -0.3797812
vn -0.8066205 -0.4529123 -0.3797812
vn -0.9913803 -0.07593502 -0.106766
vn -0.9913803 -0.07593502 -0.106766
vn -0.9913803 -0.07593502 -0.106766
vn -0.2863929 -0.8227317 -0.4910108
vn -0.2863929 -0.8227317 -0.4910108
vn -0.2863929 -0.8227317 -0.4910108
vn -0.3615191 -0.7945122 -0.4879081
vn -0.3615191 -0.7945122 -0.4879081
vn -0.3615191 -0.7945122 -0.4879081
vn 0.990317 0.131709 -0.043873
vn 0.990317 0.131709 -0.043873
vn 0.990317 0.131709 -0.043873
vn 0.9902671 0.13035 -0.04878501
vn -0.9895427 0.131915 -0.05834098
vn -0.9895427 0.131915 -0.05834098
vn -0.9895427 0.131915 -0.05834098
vn -0.9943401 0.099323 -0.037717
vn 0.9940216 -0.07732697 -0.07708197
vn 0.9940216 -0.07732697 -0.07708197
vn 0.9940216 -0.07732697 -0.07708197
vn 0.9921615 -0.07992404 -0.09606104
vn -1 0 0
vn -1 0 0
vn -1 0 0
vn -1 0 0
vn 1 0 0
vn 1 0 0
vn 1 0 0
vn 1 0 0
vn 0.3103509 0.7127528 -0.6290198
vn 0.3103509 0.7127528 -0.6290198
vn 0.3103509 0.7127528 -0.6290198
vn 0.3103509 0.7127528 -0.6290198
vn 0.506512 -0.501983 0.701041
vn 0.506512 -0.501983 0.701041
vn 0.506512 -0.501983 0.701041
vn 0.506512 -0.501983 0.701041
g Cube_cell_009_0
f 3/3/3 2/2/2 1/1/1
f 6/6/6 5/5/5 4/4/4
f 9/9/9 8/8/8 7/7/7
f 12/12/12 11/11/11 10/10/10
f 15/15/15 14/14/14 13/13/13
f 18/18/18 17/17/17 16/16/16
f 21/21/21 20/20/20 19/19/19
f 24/24/24 23/23/23 22/22/22
f 25/25/25 24/24/24 22/22/22
f 28/28/28 27/27/27 26/26/26
f 26/26/26 27/27/27 29/29/29
f 32/32/32 31/31/31 30/30/30
f 33/33/33 31/31/31 32/32/32
f 36/36/36 35/35/35 34/34/34
f 37/37/37 36/36/36 34/34/34
f 40/40/40 39/39/39 38/38/38
f 41/41/41 40/40/40 38/38/38
f 44/44/44 43/43/43 42/42/42
f 45/45/45 44/44/44 42/42/42
f 48/48/48 47/47/47 46/46/46
f 49/49/49 48/48/48 46/46/46
