g Cube_cell_108
v 0.063511 0.273204 0.721486
v -0.047373 0.216313 0.602096
v 0.066137 0.167361 -0.72809
v 0.009173 0.246664 -0.368874
v 0.015499 -0.075927 -0.703128
v -0.001807 -0.432351 -0.163792
v -0.010661 -0.345142 0.107463
v -0.058751 0.211532 0.65041
v 0.066137 0.167361 -0.72809
v 0.014562 -0.067861 -0.698534
v -0.006644 -0.447847 -0.068827
v 0.060929 -0.456411 -0.050932
v -0.006644 -0.447847 -0.068827
v -0.047373 0.216313 0.602096
v 0.063511 0.273204 0.721486
v 0.060929 -0.456411 -0.050932
v 0.063511 -0.450095 -0.069174
v 0.063511 0.273205 0.721496
v 0.063511 0.273583 -0.338266
v 0.063511 -0.065797 -0.701892
vn -0.3969071 0.9153693 -0.06755602
vn -0.3969071 0.9153693 -0.06755602
vn -0.3969071 0.9153693 -0.06755602
vn 0.9993893 -0.005751002 0.03446701
vn 0.99961 -0.008092 0.026728
vn 0.9993893 -0.005751002 0.03446701
vn 0.9993893 -0.005751002 0.03446701
vn 0.9975269 0.020646 0.06718499
vn 0.8282304 -0.4523892 -0.3307241
vn 0.8282304 -0.4523892 -0.3307241
vn 0.8282304 -0.4523892 -0.3307241
vn 0.8282304 -0.4523892 -0.3307241
vn -0.3175261 -0.6863033 0.6543432
vn -0.3175261 -0.6863033 0.6543432
vn -0.3175261 -0.6863033 0.6543432
vn -0.3175261 -0.6863033 0.6543432
vn 1 0 0
vn 1 0 0
vn 1 0 0
vn 1 0 0
g Cube_cell_108_0
f 3/3/3 2/2/2 1/1/1
f 6/6/6 5/5/5 4/4/4
f 7/7/7 6/6/6 4/4/4
f 7/7/7 4/4/4 8/8/8
f 11/11/11 10/10/10 9/9/9
f 12/12/12 11/11/11 9/9/9
f 15/15/15 14/14/14 13/13/13
f 16/16/16 15/15/15 13/13/13
f 19/19/19 18/18/18 17/17/17
f 20/20/20 19/19/19 17/17/17
