g Cube_cell_037
v 0.000195 -0.060051 0.07389
v 0.143482 -0.488529 -0.160884
v 0.006598 0.03265 -0.130178
v 0.06863 1.034744 0.583008
v 0.02657 1.035368 0.110658
v 0.13871 -0.481709 -0.190353
v 0.06863 1.034744 0.583008
v -0.141609 -0.491526 -0.19455
v 0.02657 1.035368 0.110658
v 0.000195 -0.060051 0.07389
v -0.050989 -0.530692 -0.279785
v -0.141429 0.500718 0.298446
v -0.141429 0.500718 0.298446
v -0.141609 1.034745 0.523423
v -0.001443 0.785278 0.452332
v 0.13871 1.034745 0.60287
v -0.001443 0.785278 0.452332
v 0.13871 1.034745 0.60287
v 0.120226 0.351782 0.294333
v 0.143482 -0.488529 -0.160884
v 0.000195 -0.060051 0.07389
v -0.141429 0.500718 0.298446
vn -0.9595654 -0.2437261 -0.1408261
vn -0.9595654 -0.2437261 -0.1408261
vn -0.9595654 -0.2437261 -0.1408261
vn 0.9919526 0.09082596 -0.08820796
vn 0.9919526 0.09082596 -0.08820796
vn 0.9919526 0.09082596 -0.08820796
vn -0.9918635 0.09157004 0.08844104
vn -0.9918635 0.09157004 0.08844104
vn -0.9918635 0.09157004 0.08844104
vn -0.6322973 -0.4202992 0.6508063
vn -0.6322973 -0.4202992 0.6508063
vn -0.6322973 -0.4202992 0.6508063
vn -0.218312 -0.3789359 0.8993038
vn -0.218312 -0.3789359 0.8993038
vn -0.218312 -0.3789359 0.8993038
vn -0.2507389 -0.3929929 0.8846957
vn -0.007824999 -0.436511 0.8996649
vn -0.007824999 -0.436511 0.8996649
vn -0.007824999 -0.436511 0.8996649
vn -0.007824999 -0.436511 0.8996649
vn -0.007824999 -0.436511 0.8996649
vn -0.007824999 -0.436511 0.8996649
g Cube_cell_037_0
f 3/3/3 2/2/2 1/1/1
f 6/6/6 5/5/5 4/4/4
f 9/9/9 8/8/8 7/7/7
f 12/12/12 11/11/11 10/10/10
f 15/15/15 14/14/14 13/13/13
f 16/16/16 14/14/14 15/15/15
f 19/19/19 18/18/18 17/17/17
f 20/20/20 18/18/18 19/19/19
f 19/19/19 21/21/21 20/20/20
f 19/19/19 22/22/22 21/21/21
