g Cube_cell_097
v 0.445254 -0.397853 0.722993
v -3E-05 0.138196 1.010392
v 0.140131 0.023034 -0.319323
v 0.140131 -0.035001 -0.2938
v 0.022468 -0.012 -0.265016
v -0.140189 -0.081326 -0.213134
v -0.140189 -0.081326 -0.213134
v 0.022468 -0.012 -0.265016
v -0.072859 0.232905 -0.329724
v -0.072859 0.232905 -0.329724
v -0.000146 0.137735 -0.177648
v -3.1E-05 0.13819 1.010388
v -3.1E-05 0.13819 1.010388
v -0.000146 0.137735 -0.177648
v 0.022468 -0.012 -0.265016
v -0.140189 -0.081326 -0.213134
v -0.145919 -0.325022 1.062401
v 0.140131 -0.035001 -0.2938
v 0.13613 -0.300127 1.038937
v -3E-05 0.138196 1.010392
v 0.445254 -0.397853 0.722993
v -0.140189 -0.509973 0.572761
v -0.14019 0.071686 -0.256767
vn 0.776068 0.630061 0.027235
vn 0.776068 0.630061 0.027235
vn 0.776068 0.630061 0.027235
vn -0.257161 -0.114729 -0.959534
vn -0.257161 -0.114729 -0.959534
vn -0.257161 -0.114729 -0.959534
vn -0.165602 -0.3116731 -0.9356472
vn -0.165602 -0.3116731 -0.9356472
vn -0.165602 -0.3116731 -0.9356472
vn 0.7948538 0.6068009 -0.0003099999
vn 0.7948538 0.6068009 -0.0003099999
vn 0.7948538 0.6068009 -0.0003099999
vn 0.9887737 0.149421 -0.000154
vn 0.9887737 0.149421 -0.000154
vn 0.9887737 0.149421 -0.000154
vn 0.1078349 -0.9765955 -0.1860989
vn 0.1078349 -0.9765955 -0.1860989
vn 0.1078349 -0.9765955 -0.1860989
vn 0.070187 -0.978403 -0.194426
vn -0.87684 -0.124021 0.464511
vn -0.87684 -0.124021 0.464511
vn -0.87684 -0.124021 0.464511
vn -0.87684 -0.124021 0.464511
g Cube_cell_097_0
f 3/3/3 2/2/2 1/1/1
f 6/6/6 5/5/5 4/4/4
f 9/9/9 8/8/8 7/7/7
f 12/12/12 11/11/11 10/10/10
f 15/15/15 14/14/14 13/13/13
f 18/18/18 17/17/17 16/16/16
f 18/18/18 19/19/19 17/17/17
f 22/22/22 21/21/21 20/20/20
f 23/23/23 22/22/22 20/20/20
