g Cube_cell_092
v 0.071672 0.910231 -0.614718
v 0.00161 -0.952986 -0.614759
v 0.156604 -0.709428 0.829182
v -0.01191 -0.703507 -0.458182
v 0.128333 -0.531384 0.688801
v 0.001903 0.75705 -0.458651
v 0.00161 -0.952986 -0.614759
v 0.071672 0.910231 -0.614718
v -0.13855 -0.004724 0.287676
v 0.156604 -0.709428 0.829182
v -0.01191 -0.703507 -0.458182
v 0.001903 0.75705 -0.458651
v -0.120066 -0.005388 0.286937
v 0.128333 -0.531384 0.688801
vn 0.9942428 -0.03738399 -0.100417
vn 0.9942428 -0.03738399 -0.100417
vn 0.9942428 -0.03738399 -0.100417
vn 0.992733 -0.009427 -0.119968
vn 0.992733 -0.009427 -0.119968
vn 0.992733 -0.009427 -0.119968
vn -0.9938607 -0.09796098 -0.05142399
vn -0.9938607 -0.09796098 -0.05142399
vn -0.9938607 -0.09796098 -0.05142399
vn -0.9938607 -0.09796098 -0.05142399
vn -0.9919931 -0.12297 -0.028778
vn -0.9919931 -0.12297 -0.028778
vn -0.9919931 -0.12297 -0.028778
vn -0.9919931 -0.12297 -0.028778
g Cube_cell_092_0
f 3/3/3 2/2/2 1/1/1
f 6/6/6 5/5/5 4/4/4
f 9/9/9 8/8/8 7/7/7
f 10/10/10 9/9/9 7/7/7
f 13/13/13 12/12/12 11/11/11
f 14/14/14 13/13/13 11/11/11
