g Cube
v -2.499998 -5.200001 0
v -2.5 -1E-06 0
v 0 0 0
v 0 -5.2 0
v -2 -1E-06 0
v 0 0 5
v 0 0 0
v -2 -1E-06 5
v -2.154509 -0.024472 5
v -2.154509 -0.024472 0
v -2.293893 -0.095492 5
v -2.293893 -0.095492 0
v -2.404509 -0.206108 5
v -2.404509 -0.206108 0
v -0.999998 -5 3.25
v 0 -5 3.25
v 0 -5 5
v -0.999998 -5 5
v -1.999998 -5 5
v -0.999998 -5 0
v -1.999998 -5 0
v -2.154507 -4.975529 0
v -2.154507 -4.975529 5
v -2.293891 -4.90451 0
v -2.293891 -4.90451 5
v -2.404507 -4.793894 0
v -2.404507 -4.793893 5
v -2.499998 -5.000001 5
v 0 -5 5
v 0 0 5
v -2.5 -1E-06 5
v -2.404507 -4.793893 5
v -2.475527 -4.65451 0
v -2.404507 -4.793894 0
v -2.475527 -4.65451 5
v -2.499999 -4.500001 0
v -2.499999 -4.500001 5
v -2.5 -0.500001 5
v -2.5 -0.500001 0
v -2.475528 -0.345492 0
v -2.475528 -0.345492 5
v -2.404509 -0.206108 0
v -2.404509 -0.206108 5
v 0 -5 3.25
v -0.999998 -5 3.25
v -0.999998 -5.2 3.25
v 0 -5.2 3.25
v -0.999998 -5 0
v -0.999998 -5.2 0
v -0.999998 -5.2 3.25
v -0.999998 -5 3.25
v 2.499998 -5.200001 0
v 0 -5.2 0
v 0 0 0
v 2.5 -1E-06 0
v 2 -1E-06 0
v 0 0 0
v 0 0 5
v 2 -1E-06 5
v 2.154509 -0.024472 5
v 2.154509 -0.024472 0
v 2.293893 -0.095492 5
v 2.293893 -0.095492 0
v 2.404509 -0.206108 5
v 2.404509 -0.206108 0
v 0.999998 -5 3.25
v 0.999998 -5 0
v 1.999998 -5 0
v 1.999998 -5 5
v 2.154507 -4.975529 0
v 0.999998 -5 5
v 0 -5 5
v 0 -5 3.25
v 2.154507 -4.975529 5
v 2.293891 -4.90451 0
v 2.293891 -4.90451 5
v 2.404507 -4.793894 0
v 2.404507 -4.793893 5
v 2.499998 -5.000001 5
v 2.5 -1E-06 5
v 0 0 5
v 0 -5 5
v 2.404507 -4.793893 5
v 2.404507 -4.793894 0
v 2.475527 -4.65451 0
v 2.475527 -4.65451 5
v 2.499999 -4.500001 0
v 2.499999 -4.500001 5
v 2.5 -0.500001 5
v 2.5 -0.500001 0
v 2.475528 -0.345492 0
v 2.475528 -0.345492 5
v 2.404509 -0.206108 0
v 2.404509 -0.206108 5
v 0 -5 3.25
v 0 -5.2 3.25
v 0.999998 -5.2 3.25
v 0.999998 -5 3.25
v 0.999998 -5 0
v 0.999998 -5 3.25
v 0.999998 -5.2 3.25
v 0.999998 -5.2 0
v -2.499997 -10.47 0
v 0 -5.2 0
v 0 -10.47 0
v -2.499998 -5.200001 0
v -3.999998 -5.200001 0
v -3.999997 -10.47 0
v 2.499997 -10.47 0
v 0 -10.47 0
v 0 -5.2 0
v 2.499998 -5.200001 0
v 3.999998 -5.200001 0
v 3.999997 -10.47 0
v 0 -5.2 3.25
v -0.999998 -5.2 3.25
v -0.999998 -5.4 3.25
v 0 -5.4 3.25
v -0.999998 -5.2 0
v -0.999998 -5.4 0
v -0.999998 -5.4 3.25
v -0.999998 -5.2 3.25
v -0.999998 -5.4 0
v -3.999998 -5.400001 0
v -3.999998 -5.400001 4
v -0.999998 -5.4 3.25
v -3.999998 -5.400001 0
v -3.999997 -10.17 0
v -3.999997 -10.17 4
v -3.999998 -5.400001 4
v -3.999997 -10.17 0
v -0.999997 -10.17 0
v -0.999997 -10.17 3.25
v -3.999997 -10.17 4
v -0.999997 -10.17 0
v -0.999997 -10.47 0
v -0.999997 -10.47 3.25
v -0.999997 -10.17 3.25
v 0 -5.4 3.25
v -0.999998 -5.4 3.25
v -3.999998 -5.400001 4
v 0 -5.400001 4
v -0.999997 -10.47 3.25
v 0 -10.47 3.25
v 0 -10.17 3.25
v -0.999997 -10.17 3.25
v -0.999997 -10.17 3.25
v 0 -10.17 3.25
v 0 -10.17 4
v -3.999997 -10.17 4
v 0 -5.2 3.25
v 0 -5.4 3.25
v 0.999998 -5.4 3.25
v 0.999998 -5.2 3.25
v 0.999998 -5.2 0
v 0.999998 -5.2 3.25
v 0.999998 -5.4 3.25
v 0.999998 -5.4 0
v 0.999998 -5.4 0
v 0.999998 -5.4 3.25
v 3.999998 -5.400001 4
v 3.999998 -5.400001 0
v 3.999998 -5.400001 0
v 3.999998 -5.400001 4
v 3.999997 -10.17 4
v 3.999997 -10.17 0
v 3.999997 -10.17 0
v 3.999997 -10.17 4
v 0.999997 -10.17 3.25
v 0.999997 -10.17 0
v 0.999997 -10.17 0
v 0.999997 -10.17 3.25
v 0.999997 -10.47 3.25
v 0.999997 -10.47 0
v 0 -5.4 3.25
v 0 -5.400001 4
v 3.999998 -5.400001 4
v 0.999998 -5.4 3.25
v 0.999997 -10.47 3.25
v 0.999997 -10.17 3.25
v 0 -10.17 3.25
v 0 -10.47 3.25
v 0.999997 -10.17 3.25
v 3.999997 -10.17 4
v 0 -10.17 4
v 0 -10.17 3.25
v -3.999997 -10.17 4
v 0 -10.17 4
v 0 -5.400001 4
v -3.999998 -5.400001 4
v 3.999997 -10.17 4
v 3.999998 -5.400001 4
v 0 -5.400001 4
v 0 -10.17 4
vt 3.999717 0.000283
vt 0.000283 0.000284
vt 0.000283 2
vt 3.999717 2
vt 0.400226 0.000283
vt 2 3.999717
vt 2 0.000283
vt 0.400227 3.999717
vt 0.276638 3.999717
vt 0.276637 0.000283
vt 0.165146 3.999717
vt 0.165145 0.000283
vt 0.000284 3.999717
vt 0.000283 0.000283
vt 0.80017 2.599915
vt 0.000283 2.599915
vt 0.000283 3.999717
vt 0.80017 3.999717
vt 1.600057 3.999717
vt 0.80017 0.000283
vt 1.600057 0.000283
vt 1.723646 0.000283
vt 1.723647 3.999717
vt 1.835138 0.000283
vt 1.835138 3.999717
vt 2 0.000283
vt 2.000001 3.999717
vt 3.999717 2
vt 3.999717 0.000283
vt 0.000283 0.000283
vt 0.000283 2
vt 3.834745 0.0004
vt 3.723262 3.999599
vt 3.834747 3.999599
vt 3.723261 0.0004
vt 3.59968 3.999599
vt 3.599679 0.0004
vt 0.40032 0.0004
vt 0.40032 3.999599
vt 0.276738 3.999599
vt 0.276738 0.0004
vt 0.165253 3.999599
vt 0.165253 0.0004
vt 0.160067 3.399926
vt 0.160067 2.599961
vt 7.4E-05 2.599961
vt 7.4E-05 3.399926
vt 0.160065 7.4E-05
vt 7.4E-05 7.4E-05
vt 7.4E-05 2.599961
vt 0.160067 2.599961
vt 3.999717 0.000283
vt 3.999717 2
vt 0.000283 2
vt 0.000283 0.000284
vt 0.400226 0.000283
vt 2 0.000283
vt 2 3.999717
vt 0.400227 3.999717
vt 0.276638 3.999717
vt 0.276637 0.000283
vt 0.165146 3.999717
vt 0.165145 0.000283
vt 0.000284 3.999717
vt 0.000283 0.000283
vt 0.80017 2.599915
vt 0.80017 0.000283
vt 1.600057 0.000283
vt 1.600057 3.999717
vt 1.723646 0.000283
vt 0.80017 3.999717
vt 0.000283 3.999717
vt 0.000283 2.599915
vt 1.723647 3.999717
vt 1.835138 0.000283
vt 1.835138 3.999717
vt 2 0.000283
vt 2.000001 3.999717
vt 3.999717 2
vt 0.000283 2
vt 0.000283 0.000283
vt 3.999717 0.000283
vt 3.834745 0.0004
vt 3.834747 3.999599
vt 3.723262 3.999599
vt 3.723261 0.0004
vt 3.59968 3.999599
vt 3.599679 0.0004
vt 0.40032 0.0004
vt 0.40032 3.999599
vt 0.276738 3.999599
vt 0.276738 0.0004
vt 0.165253 3.999599
vt 0.165253 0.0004
vt 0.160067 3.399926
vt 7.4E-05 3.399926
vt 7.4E-05 2.599961
vt 0.160067 2.599961
vt 0.160065 7.4E-05
vt 0.160067 2.599961
vt 7.4E-05 2.599961
vt 7.4E-05 7.4E-05
vt 0.142334 4.4E-05
vt 0.379484 0.499956
vt 0.379484 4.4E-05
vt 0.142334 0.499956
vt 4.4E-05 0.499956
vt 4.4E-05 4.4E-05
vt 0.142334 4.4E-05
vt 0.379484 4.4E-05
vt 0.379484 0.499956
vt 0.142334 0.499956
vt 4.4E-05 0.499956
vt 4.4E-05 4.4E-05
vt 0.2 0.36
vt 0 0.36
vt 0 0.32
vt 0.2 0.32
vt 0.36 0.2
vt 0.32 0.2
vt 0.32 0.85
vt 0.36 0.85
vt 0 0.2
vt -0.6 0.2
vt -0.6 1
vt 0 0.85
vt 0.32 0.2
vt -0.634 0.2
vt -0.634 1
vt 0.32 1
vt 0.200001 0.2
vt 0.800001 0.2
vt 0.800001 0.85
vt 0.200001 1
vt 0.166 0.2
vt 0.106 0.2
vt 0.106 0.85
vt 0.166 0.85
vt 0.2 0.05
vt 0 0.05
vt -0.6 0.2
vt 0.2 0.2
vt 1E-06 0.106
vt 0.2 0.106
vt 0.2 0.166
vt 1E-06 0.166
vt 1E-06 0.05
vt 0.2 0.05
vt 0.2 0.2
vt -0.599999 0.2
vt 0.2 0.36
vt 0.2 0.32
vt 0 0.32
vt 0 0.36
vt 0.36 0.2
vt 0.36 0.85
vt 0.32 0.85
vt 0.32 0.2
vt 0 0.2
vt 0 0.85
vt -0.6 1
vt -0.6 0.2
vt 0.32 0.2
vt 0.32 1
vt -0.634 1
vt -0.634 0.2
vt 0.200001 0.2
vt 0.200001 1
vt 0.800001 0.85
vt 0.800001 0.2
vt 0.166 0.2
vt 0.166 0.85
vt 0.106 0.85
vt 0.106 0.2
vt 0.2 0.05
vt 0.2 0.2
vt -0.6 0.2
vt 0 0.05
vt 1E-06 0.106
vt 1E-06 0.166
vt 0.2 0.166
vt 0.2 0.106
vt 1E-06 0.05
vt -0.599999 0.2
vt 0.2 0.2
vt 0.2 0.05
vt 0.000183 9.2E-05
vt 0.000183 1.002575
vt 1.999817 1.002575
vt 1.999817 9.2E-05
vt 0.000183 9.2E-05
vt 1.999817 9.2E-05
vt 1.999817 1.002575
vt 0.000183 1.002575
vn 0 0 1
vn 0 0 1
vn 0 0 1
vn 0 0 1
vn 0.07843554 -0.9969193 0
vn 0 -1 0
vn 0 -1 0
vn 0.07843554 -0.9969193 0
vn 0.3090041 -0.9510608 0
vn 0.3090041 -0.9510608 0
vn 0.5877671 -0.8090302 0
vn 0.5877671 -0.8090302 0
vn 0.8090302 -0.5877671 0
vn 0.8090302 -0.5877671 0
vn 0 1 0
vn 0 1 0
vn 0 1 0
vn 0 1 0
vn 0.07843554 0.9969193 0
vn 0 1 0
vn 0.07843554 0.9969193 0
vn 0.3090041 0.9510608 0
vn 0.3090041 0.9510608 0
vn 0.5877671 0.8090302 0
vn 0.5877671 0.8090302 0
vn 0.8090302 0.5877671 0
vn 0.8090302 0.5877671 0
vn 0 0 -1
vn 0 0 -1
vn 0 0 -1
vn 0 0 -1
vn 0.8090302 0.5877671 0
vn 0.9510608 0.3090041 0
vn 0.8090302 0.5877671 0
vn 0.9510608 0.3090041 0
vn 0.9969193 0.07843554 0
vn 0.9969193 0.07843554 0
vn 0.9969193 -0.07843554 0
vn 0.9969193 -0.07843554 0
vn 0.9510608 -0.3090041 0
vn 0.9510608 -0.3090041 0
vn 0.8090302 -0.5877671 0
vn 0.8090302 -0.5877671 0
vn 0 0 -1
vn 0 0 -1
vn 0 0 -1
vn 0 0 -1
vn 1 0 0
vn 1 0 0
vn 1 0 0
vn 1 0 0
vn 0 0 1
vn 0 0 1
vn 0 0 1
vn 0 0 1
vn -0.07843554 -0.9969193 0
vn 0 -1 0
vn 0 -1 0
vn -0.07843554 -0.9969193 0
vn -0.3090041 -0.9510608 0
vn -0.3090041 -0.9510608 0
vn -0.5877671 -0.8090302 0
vn -0.5877671 -0.8090302 0
vn -0.8090302 -0.5877671 0
vn -0.8090302 -0.5877671 0
vn 0 1 0
vn 0 1 0
vn -0.07843554 0.9969193 0
vn -0.07843554 0.9969193 0
vn -0.3090041 0.9510608 0
vn 0 1 0
vn 0 1 0
vn 0 1 0
vn -0.3090041 0.9510608 0
vn -0.5877671 0.8090302 0
vn -0.5877671 0.8090302 0
vn -0.8090302 0.5877671 0
vn -0.8090302 0.5877671 0
vn 0 0 -1
vn 0 0 -1
vn 0 0 -1
vn 0 0 -1
vn -0.8090302 0.5877671 0
vn -0.8090302 0.5877671 0
vn -0.9510608 0.3090041 0
vn -0.9510608 0.3090041 0
vn -0.9969193 0.07843554 0
vn -0.9969193 0.07843554 0
vn -0.9969193 -0.07843554 0
vn -0.9969193 -0.07843554 0
vn -0.9510608 -0.3090041 0
vn -0.9510608 -0.3090041 0
vn -0.8090302 -0.5877671 0
vn -0.8090302 -0.5877671 0
vn 0 0 -1
vn 0 0 -1
vn 0 0 -1
vn 0 0 -1
vn -1 0 0
vn -1 0 0
vn -1 0 0
vn -1 0 0
vn 0 0 1
vn 0 0 1
vn 0 0 1
vn 0 0 1
vn 0 0 1
vn 0 0 1
vn 0 0 1
vn 0 0 1
vn 0 0 1
vn 0 0 1
vn 0 0 1
vn 0 0 1
vn 0 0 -1
vn 0 0 -1
vn 0 0 -1
vn 0 0 -1
vn 1 0 0
vn 1 0 0
vn 1 0 0
vn 1 0 0
vn 0 -1 0
vn 0 -1 0
vn 0 -1 0
vn 0 -1 0
vn 1 0 0
vn 1 0 0
vn 1 0 0
vn 1 0 0
vn 0 1 0
vn 0 1 0
vn 0 1 0
vn 0 1 0
vn 1 0 0
vn 1 0 0
vn 1 0 0
vn 1 0 0
vn 0 -1 0
vn 0 -1 0
vn 0 -1 0
vn 0 -1 0
vn 0 0 -1
vn 0 0 -1
vn 0 0 -1
vn 0 0 -1
vn 0 1 0
vn 0 1 0
vn 0 1 0
vn 0 1 0
vn 0 0 -1
vn 0 0 -1
vn 0 0 -1
vn 0 0 -1
vn -1 0 0
vn -1 0 0
vn -1 0 0
vn -1 0 0
vn 0 -1 0
vn 0 -1 0
vn 0 -1 0
vn 0 -1 0
vn -1 0 0
vn -1 0 0
vn -1 0 0
vn -1 0 0
vn 0 1 0
vn 0 1 0
vn 0 1 0
vn 0 1 0
vn -1 0 0
vn -1 0 0
vn -1 0 0
vn -1 0 0
vn 0 -1 0
vn 0 -1 0
vn 0 -1 0
vn 0 -1 0
vn 0 0 -1
vn 0 0 -1
vn 0 0 -1
vn 0 0 -1
vn 0 1 0
vn 0 1 0
vn 0 1 0
vn 0 1 0
vn 0 0 -1
vn 0 0 -1
vn 0 0 -1
vn 0 0 -1
vn 0 0 -1
vn 0 0 -1
vn 0 0 -1
vn 0 0 -1
g Cube_0
f 3/3/3 2/2/2 1/1/1
f 4/4/4 3/3/3 1/1/1
f 7/7/7 6/6/6 5/5/5
f 6/6/6 8/8/8 5/5/5
f 8/8/8 9/9/9 5/5/5
f 9/9/9 10/10/10 5/5/5
f 9/9/9 11/11/11 10/10/10
f 11/11/11 12/12/12 10/10/10
f 11/11/11 13/13/13 12/12/12
f 13/13/13 14/14/14 12/12/12
f 17/17/17 16/16/16 15/15/15
f 18/18/18 17/17/17 15/15/15
f 19/19/19 18/18/18 15/15/15
f 19/19/19 15/15/15 20/20/20
f 20/20/20 21/21/21 19/19/19
f 21/21/21 22/22/22 19/19/19
f 22/22/22 23/23/23 19/19/19
f 22/22/22 24/24/24 23/23/23
f 24/24/24 25/25/25 23/23/23
f 24/24/24 26/26/26 25/25/25
f 26/26/26 27/27/27 25/25/25
f 30/30/30 29/29/29 28/28/28
f 31/31/31 30/30/30 28/28/28
f 34/34/34 33/33/33 32/32/32
f 33/33/33 35/35/35 32/32/32
f 33/33/33 36/36/36 35/35/35
f 36/36/36 37/37/37 35/35/35
f 38/38/38 37/37/37 36/36/36
f 39/39/39 38/38/38 36/36/36
f 38/38/38 39/39/39 40/40/40
f 41/41/41 38/38/38 40/40/40
f 41/41/41 40/40/40 42/42/42
f 43/43/43 41/41/41 42/42/42
f 46/46/46 45/45/45 44/44/44
f 47/47/47 46/46/46 44/44/44
f 50/50/50 49/49/49 48/48/48
f 51/51/51 50/50/50 48/48/48
f 54/54/54 53/53/53 52/52/52
f 55/55/55 54/54/54 52/52/52
f 58/58/58 57/57/57 56/56/56
f 59/59/59 58/58/58 56/56/56
f 60/60/60 59/59/59 56/56/56
f 61/61/61 60/60/60 56/56/56
f 62/62/62 60/60/60 61/61/61
f 63/63/63 62/62/62 61/61/61
f 64/64/64 62/62/62 63/63/63
f 65/65/65 64/64/64 63/63/63
f 68/68/68 67/67/67 66/66/66
f 66/66/66 69/69/69 68/68/68
f 70/70/70 68/68/68 69/69/69
f 66/66/66 71/71/71 69/69/69
f 72/72/72 71/71/71 66/66/66
f 73/73/73 72/72/72 66/66/66
f 74/74/74 70/70/70 69/69/69
f 75/75/75 70/70/70 74/74/74
f 76/76/76 75/75/75 74/74/74
f 77/77/77 75/75/75 76/76/76
f 78/78/78 77/77/77 76/76/76
f 81/81/81 80/80/80 79/79/79
f 82/82/82 81/81/81 79/79/79
f 85/85/85 84/84/84 83/83/83
f 86/86/86 85/85/85 83/83/83
f 87/87/87 85/85/85 86/86/86
f 88/88/88 87/87/87 86/86/86
f 88/88/88 89/89/89 87/87/87
f 89/89/89 90/90/90 87/87/87
f 90/90/90 89/89/89 91/91/91
f 89/89/89 92/92/92 91/91/91
f 91/91/91 92/92/92 93/93/93
f 92/92/92 94/94/94 93/93/93
f 97/97/97 96/96/96 95/95/95
f 98/98/98 97/97/97 95/95/95
f 101/101/101 100/100/100 99/99/99
f 102/102/102 101/101/101 99/99/99
g Cube_1
f 105/105/105 104/104/104 103/103/103
f 104/104/104 106/106/106 103/103/103
f 106/106/106 107/107/107 103/103/103
f 107/107/107 108/108/108 103/103/103
f 111/111/111 110/110/110 109/109/109
f 112/112/112 111/111/111 109/109/109
f 113/113/113 112/112/112 109/109/109
f 114/114/114 113/113/113 109/109/109
g Cube_2
f 117/117/117 116/116/116 115/115/115
f 118/118/118 117/117/117 115/115/115
f 121/121/121 120/120/120 119/119/119
f 122/122/122 121/121/121 119/119/119
f 125/125/125 124/124/124 123/123/123
f 126/126/126 125/125/125 123/123/123
f 129/129/129 128/128/128 127/127/127
f 130/130/130 129/129/129 127/127/127
f 133/133/133 132/132/132 131/131/131
f 134/134/134 133/133/133 131/131/131
f 137/137/137 136/136/136 135/135/135
f 138/138/138 137/137/137 135/135/135
f 141/141/141 140/140/140 139/139/139
f 142/142/142 141/141/141 139/139/139
f 145/145/145 144/144/144 143/143/143
f 146/146/146 145/145/145 143/143/143
f 149/149/149 148/148/148 147/147/147
f 150/150/150 149/149/149 147/147/147
f 153/153/153 152/152/152 151/151/151
f 154/154/154 153/153/153 151/151/151
f 157/157/157 156/156/156 155/155/155
f 158/158/158 157/157/157 155/155/155
f 161/161/161 160/160/160 159/159/159
f 162/162/162 161/161/161 159/159/159
f 165/165/165 164/164/164 163/163/163
f 166/166/166 165/165/165 163/163/163
f 169/169/169 168/168/168 167/167/167
f 170/170/170 169/169/169 167/167/167
f 173/173/173 172/172/172 171/171/171
f 174/174/174 173/173/173 171/171/171
f 177/177/177 176/176/176 175/175/175
f 178/178/178 177/177/177 175/175/175
f 181/181/181 180/180/180 179/179/179
f 182/182/182 181/181/181 179/179/179
f 185/185/185 184/184/184 183/183/183
f 186/186/186 185/185/185 183/183/183
g Cube_3
f 189/189/189 188/188/188 187/187/187
f 190/190/190 189/189/189 187/187/187
f 193/193/193 192/192/192 191/191/191
f 194/194/194 193/193/193 191/191/191
