g Cube_cell_078
v -0.029055 0.108572 0.120534
v -0.127748 -0.104036 0.071846
v -0.146193 0.171154 -0.115617
v 0.11513 -0.165923 0.090109
v 0.122492 -0.166309 0.002317
v 0.024003 -0.187259 0.117676
v -0.135881 -0.163337 0.075103
v 0.104165 -0.160148 -0.015974
v 0.080424 -0.115254 0.170222
v -0.029055 0.108572 0.120534
v -0.146193 0.171154 -0.115617
v -0.050078 0.072055 -0.220921
v 0.11513 -0.165923 0.090109
v 0.024003 -0.187259 0.117676
v 0.121757 -0.122771 0.152342
v -0.03569 -0.13753 0.125428
v -0.127748 -0.104036 0.071846
v -0.029055 0.108572 0.120534
v -0.146695 0.189363 -0.019075
v -0.146691 -0.185686 0.025263
v -0.146695 0.080553 -0.216417
v 0.133008 0.205196 -0.13869
v 0.024003 -0.187259 0.117676
v 0.122492 -0.166309 0.002317
v -0.050078 0.072055 -0.220921
v -0.146193 0.171154 -0.115617
v -0.140331 -0.164921 -0.038671
v 0.133008 0.205196 -0.13869
v 0.032079 0.185739 -0.117181
v 0.024003 -0.187259 0.117676
v 0.013429 0.100729 0.145302
v 0.13639 0.067577 0.198595
v 0.121757 -0.122771 0.152342
v 0.024003 -0.187259 0.117676
v -0.040464 0.207521 -0.066398
v -0.028948 0.103445 0.127691
v -0.032349 -0.148664 0.105265
v -0.04454 -0.166576 -0.020076
v -0.049891 0.09238 -0.219909
v 0.133625 0.232221 -0.06543
v 0.133625 0.114806 -0.226573
v 0.133625 -0.180696 0.052099
v 0.133625 0.057599 0.229122
v 0.133008 0.205196 -0.13869
v 0.13639 0.067577 0.198595
v 0.013429 0.100729 0.145302
v 0.032079 0.185739 -0.117181
v 0.030938 -0.166242 -0.015826
v 0.016364 -0.124192 0.13287
v 0.014085 0.099819 0.146364
v 0.027184 0.217277 -0.06626
v 0.036845 0.10298 -0.223089
v -0.03569 -0.13753 0.125428
v -0.050078 0.072055 -0.220921
v -0.140331 -0.164921 -0.038671
v -0.127748 -0.104036 0.071846
vn -0.8304884 0.2745151 0.4846962
vn -0.8304884 0.2745151 0.4846962
vn -0.8304884 0.2745151 0.4846962
vn 0.234771 -0.9717552 0.023963
vn 0.234771 -0.9717552 0.023963
vn 0.234771 -0.9717552 0.023963
vn -0.1060741 0.9634915 -0.2458301
vn -0.1060741 0.9634915 -0.2458301
vn -0.1060741 0.9634915 -0.2458301
vn 0.6456184 0.7541095 -0.1203981
vn 0.6456184 0.7541095 -0.1203981
vn 0.6456184 0.7541095 -0.1203981
vn 0.3395149 -0.7895018 0.5112889
vn 0.3395149 -0.7895018 0.5112889
vn 0.3395149 -0.7895018 0.5112889
vn -0.494466 0.030605 0.868658
vn -0.494466 0.030605 0.868658
vn -0.494466 0.030605 0.868658
vn -1 0 0
vn -1 0 0
vn -1 0 0
vn -0.7195082 -0.228548 -0.6558002
vn -0.7195082 -0.228548 -0.6558002
vn -0.7195082 -0.228548 -0.6558002
vn -0.7959352 -0.148265 -0.5869452
vn -0.7959352 -0.148265 -0.5869452
vn -0.7959352 -0.148265 -0.5869452
vn -0.07778297 -0.5300018 -0.8444216
vn -0.07778297 -0.5300018 -0.8444216
vn -0.07778297 -0.5300018 -0.8444216
vn -0.3493199 -0.140131 0.9264658
vn -0.3493199 -0.140131 0.9264658
vn -0.3493199 -0.140131 0.9264658
vn -0.3493199 -0.140131 0.9264658
vn -0.9953563 0.02243701 0.09360802
vn -0.9979571 0.007823001 0.063407
vn -0.9953563 0.02243701 0.09360802
vn -0.9953563 0.02243701 0.09360802
vn -0.998673 0.016906 0.048647
vn 1 0 0
vn 1 0 0
vn 1 0 0
vn 1 0 0
vn 0.007915998 0.9374028 0.3481569
vn 0.007915998 0.9374028 0.3481569
vn 0.007915998 0.9374028 0.3481569
vn 0.007915998 0.9374028 0.3481569
vn 0.9967331 0.014726 0.079413
vn 0.9967331 0.014726 0.079413
vn 0.9967331 0.014726 0.079413
vn 0.9967331 0.014726 0.079413
vn 0.9986345 0.01629999 0.04963297
vn 0.6230681 -0.7321942 -0.2750961
vn 0.6230681 -0.7321942 -0.2750961
vn 0.6230681 -0.7321942 -0.2750961
vn 0.6230681 -0.7321942 -0.2750961
g Cube_cell_078_0
f 3/3/3 2/2/2 1/1/1
f 6/6/6 5/5/5 4/4/4
f 9/9/9 8/8/8 7/7/7
f 12/12/12 11/11/11 10/10/10
f 15/15/15 14/14/14 13/13/13
f 18/18/18 17/17/17 16/16/16
f 21/21/21 20/20/20 19/19/19
f 24/24/24 23/23/23 22/22/22
f 27/27/27 26/26/26 25/25/25
f 30/30/30 29/29/29 28/28/28
f 33/33/33 32/32/32 31/31/31
f 34/34/34 33/33/33 31/31/31
f 37/37/37 36/36/36 35/35/35
f 37/37/37 35/35/35 38/38/38
f 38/38/38 35/35/35 39/39/39
f 42/42/42 41/41/41 40/40/40
f 43/43/43 42/42/42 40/40/40
f 46/46/46 45/45/45 44/44/44
f 47/47/47 46/46/46 44/44/44
f 50/50/50 49/49/49 48/48/48
f 51/51/51 50/50/50 48/48/48
f 51/51/51 48/48/48 52/52/52
f 55/55/55 54/54/54 53/53/53
f 56/56/56 55/55/55 53/53/53
