g Cube_cell_071
v -0.118866 0.088951 0.042303
v -0.114623 -0.064353 -0.14366
v -0.014263 0.00528 -0.126309
v -0.127834 -0.061028 0.053306
v -0.026899 0.055856 0.052714
v 0.047997 0.006022 0.059844
v 0.043258 -0.070509 0.04798
v 0.113671 -0.018875 0.039872
v 0.03017 -0.055276 -0.126472
v -0.026899 0.055856 0.052714
v -0.127834 -0.061028 0.053306
v -0.129474 0.095937 0.050789
v 0.047997 0.006022 0.059844
v 0.151628 0.033233 0.058958
v 0.144977 -0.068641 0.049823
v 0.128714 0.022832 -0.099074
v 0.083257 -0.069525 -0.104503
v -0.029359 0.089522 -0.118047
v -0.01397 0.007219 -0.128242
v 0.047997 0.006022 0.059844
v -0.026899 0.055856 0.052714
v 0.03017 -0.055276 -0.126472
v -0.01397 0.007219 -0.128242
v 0.047997 0.006022 0.059844
v 0.147345 -0.072429 0.199567
v 0.147345 0.013241 0.190752
v 0.147344 -0.03786 -0.109322
v -0.035936 -0.040627 0.207172
v -0.025222 0.094419 0.048241
v 0.047997 0.006022 0.059844
v -0.11445 -0.066392 -0.144548
v -0.127125 0.057475 -0.147742
v -0.127834 -0.061028 0.053306
v 0.151628 0.033233 0.058958
v 0.047997 0.006022 0.059844
v -0.025222 0.094419 0.048241
v -0.114491 -0.064766 -0.144167
v -0.029359 0.089522 -0.118047
v 0.083257 -0.069525 -0.104503
v -0.026899 0.055856 0.052714
v -0.118866 0.088951 0.042303
v -0.014263 0.00528 -0.126309
v -0.027609 0.077018 0.130075
v -0.036775 -0.068541 0.191247
v -0.015227 -0.068702 -0.129849
v -0.011692 0.085342 -0.114881
v -0.132975 -0.067099 -0.146955
v -0.132975 0.090304 -0.130503
v -0.132975 0.057791 0.151145
v -0.132975 -0.066514 0.186834
v 0.030161 -0.068756 -0.123293
v 0.051756 -0.070419 0.195059
v 0.044955 0.049733 0.172957
v 0.027528 0.074285 -0.110963
v -0.025222 0.094419 0.048241
v -0.01397 0.007219 -0.128242
v 0.03017 -0.055276 -0.126472
v 0.113671 -0.018875 0.039872
vn -0.3881059 0.7067609 -0.5914919
vn -0.3881059 0.7067609 -0.5914919
vn -0.3881059 0.7067609 -0.5914919
vn -0.05812703 0.05524402 0.9967795
vn -0.05812703 0.05524402 0.9967795
vn -0.05812703 0.05524402 0.9967795
vn 0.578936 -0.807374 -0.113931
vn 0.578936 -0.807374 -0.113931
vn 0.578936 -0.807374 -0.113931
vn -0.012554 0.01590599 0.9997947
vn -0.012554 0.01590599 0.9997947
vn -0.012554 0.01590599 0.9997947
vn 0.0325 -0.09136599 0.9952869
vn 0.0325 -0.09136599 0.9952869
vn 0.0325 -0.09136599 0.9952869
vn -0.119077 0.000236 0.9928849
vn -0.119077 0.000236 0.9928849
vn -0.119077 0.000236 0.9928849
vn 0.5567889 0.8112968 -0.1782799
vn 0.5567889 0.8112968 -0.1782799
vn 0.5567889 0.8112968 -0.1782799
vn -0.7926568 -0.5525568 0.2576359
vn -0.7926568 -0.5525568 0.2576359
vn -0.7926568 -0.5525568 0.2576359
vn 1 0 0
vn 1 0 0
vn 1 0 0
vn 0.6153069 0.579761 0.534111
vn 0.6153069 0.579761 0.534111
vn 0.6153069 0.579761 0.534111
vn -0.9925745 -0.1032259 -0.06434496
vn -0.9925745 -0.1032259 -0.06434496
vn -0.9925745 -0.1032259 -0.06434496
vn -0.02114399 0.112871 0.9933847
vn -0.02114399 0.112871 0.9933847
vn -0.02114399 0.112871 0.9933847
vn -0.1976551 -0.05661601 0.9786353
vn -0.1976551 -0.05661601 0.9786353
vn -0.1976551 -0.05661601 0.9786353
vn 0.35249 0.906781 -0.231299
vn 0.35249 0.906781 -0.231299
vn 0.35249 0.906781 -0.231299
vn -0.9973309 0.032173 -0.06554399
vn -0.9973309 0.032173 -0.06554399
vn -0.9973309 0.032173 -0.06554399
vn -0.9973309 0.032173 -0.06554399
vn -1 0 0
vn -1 0 0
vn -1 0 0
vn -1 0 0
vn 0.9974434 0.03340701 -0.06317203
vn 0.9974434 0.03340701 -0.06317203
vn 0.9974434 0.03340701 -0.06317203
vn 0.9974434 0.03340701 -0.06317203
vn 0.634476 0.674772 -0.376992
vn 0.634476 0.674772 -0.376992
vn 0.634476 0.674772 -0.376992
vn 0.634476 0.674772 -0.376992
g Cube_cell_071_0
f 3/3/3 2/2/2 1/1/1
f 6/6/6 5/5/5 4/4/4
f 9/9/9 8/8/8 7/7/7
f 12/12/12 11/11/11 10/10/10
f 15/15/15 14/14/14 13/13/13
f 18/18/18 17/17/17 16/16/16
f 21/21/21 20/20/20 19/19/19
f 24/24/24 23/23/23 22/22/22
f 27/27/27 26/26/26 25/25/25
f 30/30/30 29/29/29 28/28/28
f 33/33/33 32/32/32 31/31/31
f 36/36/36 35/35/35 34/34/34
f 39/39/39 38/38/38 37/37/37
f 42/42/42 41/41/41 40/40/40
f 45/45/45 44/44/44 43/43/43
f 46/46/46 45/45/45 43/43/43
f 49/49/49 48/48/48 47/47/47
f 50/50/50 49/49/49 47/47/47
f 53/53/53 52/52/52 51/51/51
f 54/54/54 53/53/53 51/51/51
f 57/57/57 56/56/56 55/55/55
f 58/58/58 57/57/57 55/55/55
