g Cube_cell_085
v 0.025113 -0.385786 -0.154135
v 0.040969 0.130999 -0.321214
v -0.074353 0.139034 -0.26948
v -0.073094 0.21841 0.325735
v -0.011138 0.21942 0.374429
v 0.025113 -0.385786 -0.154135
v -0.011724 0.071856 0.39746
v 0.040239 0.140205 -0.318457
v -0.005126 0.286108 0.268328
v 0.035639 -0.41803 -0.161952
v -0.074354 0.139031 -0.26948
v -0.074354 0.2771 0.266453
v -0.074353 0.063223 0.391109
v -0.074353 -0.389 -0.122987
v -0.073094 0.21841 0.325735
v -0.074353 0.139034 -0.26948
v 0.040969 0.130999 -0.321214
v -0.011138 0.21942 0.374429
vn -0.4097422 -0.2692111 -0.8715714
vn -0.4097422 -0.2692111 -0.8715714
vn -0.4097422 -0.2692111 -0.8715714
vn -0.49356 -0.588685 0.6401941
vn -0.49356 -0.588685 0.6401941
vn -0.49356 -0.588685 0.6401941
vn -0.9971873 -0.013706 -0.07368603
vn -0.9971873 -0.013706 -0.07368603
vn -0.9971873 -0.013706 -0.07368603
vn -0.9972133 -0.012407 -0.07356402
vn -1 0 0
vn -1 0 0
vn -1 0 0
vn -1 0 0
vn 0.03709202 0.9911605 -0.1273781
vn 0.03709202 0.9911605 -0.1273781
vn 0.03709202 0.9911605 -0.1273781
vn 0.03709202 0.9911605 -0.1273781
g Cube_cell_085_0
f 3/3/3 2/2/2 1/1/1
f 6/6/6 5/5/5 4/4/4
f 9/9/9 8/8/8 7/7/7
f 10/10/10 7/7/7 8/8/8
f 13/13/13 12/12/12 11/11/11
f 14/14/14 13/13/13 11/11/11
f 17/17/17 16/16/16 15/15/15
f 18/18/18 17/17/17 15/15/15
