g Cube_cell_096
v 0.000685 -0.170618 -0.139395
v -0.052751 0.156052 0.212863
v -0.069256 -0.015807 0.477105
v 0.003594 0.153486 -0.156678
v 0.000685 -0.170618 -0.139395
v 0.058106 0.150644 0.197683
v 0.058106 0.150644 0.197683
v 0.000685 -0.170618 -0.139395
v 0.073269 -0.011149 0.448592
v 0.000685 -0.170618 -0.139395
v 0.003594 0.153486 -0.156678
v -0.052751 0.156052 0.212863
v 0.142419 -0.020679 0.429884
v 0.013374 -0.141887 -0.160126
v 0.068645 0.022063 0.394783
v -0.026827 -0.163063 -0.091448
v -0.138837 -1.2E-05 0.474887
v -0.069521 0.010726 0.432893
v -0.136966 -0.018319 0.47734
v -0.136967 -0.171393 -0.072101
v 0.031462 -0.167862 -1.226047
v -0.019314 0.15608 -1.225972
v -0.136967 0.160158 0.224745
v 0.003166 0.153445 -0.151256
v -0.069521 0.010726 0.432893
v -0.138837 -1.2E-05 0.474887
v -0.136965 0.160615 -1.226043
v 0.142419 -0.020679 0.429884
v 0.143373 0.146655 -1.226044
v 0.068645 0.022063 0.394783
v -0.019314 0.15608 -1.225972
v 0.031462 -0.167862 -1.226047
v 0.143353 -0.166773 -0.18755
v 0.143353 -0.007762 0.428289
v 0.143353 0.146541 0.185672
v 0.142419 -0.020679 0.429884
v 0.143353 -0.166629 -1.226043
v 0.013374 -0.141887 -0.160126
v -0.026827 -0.163063 -0.091448
v -0.138837 -1.2E-05 0.474887
v -0.136964 -0.171087 -1.226044
vn -0.9935388 -0.05619199 -0.09860598
vn -0.9935388 -0.05619199 -0.09860598
vn -0.9935388 -0.05619199 -0.09860598
vn 0.9882107 -0.01698 -0.152156
vn 0.9882107 -0.01698 -0.152156
vn 0.9882107 -0.01698 -0.152156
vn 0.9922352 -0.06825201 -0.103975
vn 0.9922352 -0.06825201 -0.103975
vn 0.9922352 -0.06825201 -0.103975
vn -0.988574 0.000832 -0.150734
vn -0.988574 0.000832 -0.150734
vn -0.988574 0.000832 -0.150734
vn -0.5781702 -0.7650352 0.2836201
vn -0.5781702 -0.7650352 0.2836201
vn -0.5781702 -0.7650352 0.2836201
vn 0.3318949 -0.8870137 0.3210179
vn 0.3318949 -0.8870137 0.3210179
vn 0.3318949 -0.8870137 0.3210179
vn -0.9952678 -0.023773 -0.09421699
vn -0.9952678 -0.023773 -0.09421699
vn -0.9952678 -0.023773 -0.09421699
vn -0.9952678 -0.023773 -0.09421699
vn -0.9952678 -0.023773 -0.09421699
vn 0.07515199 0.9945148 0.07274999
vn 0.07515199 0.9945148 0.07274999
vn 0.07515199 0.9945148 0.07274999
vn 0.07515199 0.9945148 0.07274999
vn 0.07515199 0.9945148 0.07274999
vn 0.07515199 0.9945148 0.07274999
vn 0.07515199 0.9945148 0.07274999
vn 0.9880078 0.122385 -0.09414098
vn 0.9880078 0.122385 -0.09414098
vn 0.9880078 0.122385 -0.09414098
vn 0.9880078 0.122385 -0.09414098
vn 0.9880078 0.122385 -0.09414098
vn -0.04819702 -0.9972014 0.05715202
vn -0.04819702 -0.9972014 0.05715202
vn -0.04819702 -0.9972014 0.05715202
vn -0.04819702 -0.9972014 0.05715202
vn -0.04819702 -0.9972014 0.05715202
vn -0.04819702 -0.9972014 0.05715202
g Cube_cell_096_0
f 3/3/3 2/2/2 1/1/1
f 6/6/6 5/5/5 4/4/4
f 9/9/9 8/8/8 7/7/7
f 12/12/12 11/11/11 10/10/10
f 15/15/15 14/14/14 13/13/13
f 18/18/18 17/17/17 16/16/16
f 21/21/21 20/20/20 19/19/19
f 19/19/19 22/22/22 21/21/21
f 19/19/19 23/23/23 22/22/22
f 26/26/26 25/25/25 24/24/24
f 24/24/24 27/27/27 26/26/26
f 27/27/27 24/24/24 28/28/28
f 28/28/28 29/29/29 27/27/27
f 24/24/24 30/30/30 28/28/28
f 33/33/33 32/32/32 31/31/31
f 31/31/31 34/34/34 33/33/33
f 31/31/31 35/35/35 34/34/34
f 38/38/38 37/37/37 36/36/36
f 37/37/37 38/38/38 39/39/39
f 37/37/37 39/39/39 40/40/40
f 40/40/40 41/41/41 37/37/37
