g Cube_cell_155
v -0.048643 0.200763 0.299134
v -0.032015 0.208648 0.011018
v -0.032537 -0.012961 0.267406
v -0.046878 0.189401 0.3188
v 0.073108 -0.007119 0.277635
v -0.012937 -0.218818 -0.29896
v 0.075764 0.261171 0.207262
v -0.046878 0.189401 0.3188
v -0.032168 0.205631 0.006091
v -0.017352 -0.188872 -0.33835
v -0.032537 -0.012961 0.267406
v -0.032015 0.208648 0.011018
v 0.073108 -0.198234 -0.343014
v 0.073108 -0.007121 0.277626
v 0.073108 0.280187 0.24333
v 0.072782 -0.197555 -0.341563
v -0.012937 -0.218818 -0.29896
v 0.073108 -0.007119 0.277635
v 0.073108 -0.007119 0.277635
v -0.046878 0.189401 0.3188
v 0.075764 0.261171 0.207262
v 0.072782 -0.197555 -0.341563
v 0.075764 0.261171 0.207262
v -0.032168 0.205631 0.006091
v -0.012937 -0.218818 -0.29896
vn 0.9960393 0.06625602 0.05929502
vn 0.9960393 0.06625602 0.05929502
vn 0.9960393 0.06625602 0.05929502
vn -0.7791982 -0.5417621 0.3151891
vn -0.7791982 -0.5417621 0.3151891
vn -0.7791982 -0.5417621 0.3151891
vn -0.4898407 0.8715295 0.02219198
vn -0.4898407 0.8715295 0.02219198
vn -0.4898407 0.8715295 0.02219198
vn 0.9996156 0.01993799 0.01926799
vn 0.9996156 0.01993799 0.01926799
vn 0.9996156 0.01993799 0.01926799
vn 1 0 0
vn 1 0 0
vn 1 0 0
vn 0.3577588 -0.8926076 0.2743359
vn 0.3577588 -0.8926076 0.2743359
vn 0.3577588 -0.8926076 0.2743359
vn 0.5931919 0.198759 0.7801399
vn 0.5931919 0.198759 0.7801399
vn 0.5931919 0.198759 0.7801399
vn 0.2956721 0.6668101 -0.6840631
vn 0.2956721 0.6668101 -0.6840631
vn 0.2956721 0.6668101 -0.6840631
vn 0.2956721 0.6668101 -0.6840631
g Cube_cell_155_0
f 3/3/3 2/2/2 1/1/1
f 6/6/6 5/5/5 4/4/4
f 9/9/9 8/8/8 7/7/7
f 12/12/12 11/11/11 10/10/10
f 15/15/15 14/14/14 13/13/13
f 18/18/18 17/17/17 16/16/16
f 21/21/21 20/20/20 19/19/19
f 24/24/24 23/23/23 22/22/22
f 25/25/25 24/24/24 22/22/22
