g Cube_cell_068
v -0.025107 0.12028 0.220456
v -0.029337 -0.209074 0.069739
v 0.020888 0.117918 -0.050985
v 0.009783 0.060304 -0.181776
v 0.020888 0.117918 -0.050985
v -0.029337 -0.209074 0.069739
v 0.04978 -0.206023 0.081242
v 0.045939 0.113983 0.225785
v 0.149131 -0.201538 0.091622
v -0.125486 -0.098962 -0.035517
v -0.031619 -0.203937 0.077322
v 0.04978 -0.206023 0.081242
v -0.027766 0.122318 0.219532
v 0.00548 0.12655 -0.139929
v 0.045072 0.144621 0.160991
v 0.133381 0.104358 -0.172402
v -0.001079 -0.09347 -0.043664
v -0.099955 0.142437 -0.242525
v 0.14899 0.097335 0.216038
v 0.149131 -0.201538 0.091622
v 0.045939 0.113983 0.225785
v 0.149059 0.102158 -0.167958
v 0.149059 -0.19994 0.091997
v 0.149059 0.092415 0.215354
v -0.131261 0.131065 0.210597
v -0.131261 -0.202987 0.059933
v -0.131261 0.1484 -0.26506
v 0.020888 0.117918 -0.050985
v 0.05126 -0.207965 0.078193
v 0.045467 0.106932 0.22056
v 0.009783 0.060304 -0.181776
v -0.125486 -0.098962 -0.035517
v -0.131463 0.140725 0.216381
v -0.027758 0.121461 0.218684
v -0.031619 -0.203937 0.077322
v 0.04978 -0.206023 0.081242
v 0.149131 -0.201538 0.091622
v 0.124686 -0.014224 -0.036106
v -0.125486 -0.098962 -0.035517
v -0.031619 -0.203937 0.077322
v -0.027766 0.122318 0.219532
v 0.045072 0.144621 0.160991
v 0.04978 -0.206023 0.081242
vn -0.9818962 0.08910401 -0.167154
vn -0.9818962 0.08910401 -0.167154
vn -0.9818962 0.08910401 -0.167154
vn -0.9874773 0.15708 0.01464301
vn -0.9874773 0.15708 0.01464301
vn -0.9874773 0.15708 0.01464301
vn -0.07634799 -0.411205 0.9083399
vn -0.07634799 -0.411205 0.9083399
vn -0.07634799 -0.411205 0.9083399
vn 0.01450901 -0.7260334 -0.6875064
vn 0.01450901 -0.7260334 -0.6875064
vn 0.01450901 -0.7260334 -0.6875064
vn -0.3052151 0.9521313 -0.01702101
vn -0.3052151 0.9521313 -0.01702101
vn -0.3052151 0.9521313 -0.01702101
vn -0.1373091 0.6041424 0.7849575
vn -0.1373091 0.6041424 0.7849575
vn -0.1373091 0.6041424 0.7849575
vn 0.02523299 -0.3841789 0.9229138
vn 0.02523299 -0.3841789 0.9229138
vn 0.02523299 -0.3841789 0.9229138
vn 1 0 0
vn 1 0 0
vn 1 0 0
vn -1 0 0
vn -1 0 0
vn -1 0 0
vn 0.9944635 0.05793303 -0.08767103
vn 0.9944635 0.05793303 -0.08767103
vn 0.9944635 0.05793303 -0.08767103
vn 0.9930391 0.050342 -0.106486
vn -0.642301 -0.439432 0.627972
vn -0.642301 -0.439432 0.627972
vn -0.642301 -0.439432 0.627972
vn -0.642301 -0.439432 0.627972
vn 0.165927 -0.5610031 -0.8110141
vn 0.165927 -0.5610031 -0.8110141
vn 0.165927 -0.5610031 -0.8110141
vn 0.165927 -0.5610031 -0.8110141
vn 0.3530429 -0.2911159 0.8891637
vn 0.3530429 -0.2911159 0.8891637
vn 0.3530429 -0.2911159 0.8891637
vn 0.3530429 -0.2911159 0.8891637
g Cube_cell_068_0
f 3/3/3 2/2/2 1/1/1
f 6/6/6 5/5/5 4/4/4
f 9/9/9 8/8/8 7/7/7
f 12/12/12 11/11/11 10/10/10
f 15/15/15 14/14/14 13/13/13
f 18/18/18 17/17/17 16/16/16
f 21/21/21 20/20/20 19/19/19
f 24/24/24 23/23/23 22/22/22
f 27/27/27 26/26/26 25/25/25
f 30/30/30 29/29/29 28/28/28
f 28/28/28 29/29/29 31/31/31
f 34/34/34 33/33/33 32/32/32
f 35/35/35 34/34/34 32/32/32
f 38/38/38 37/37/37 36/36/36
f 39/39/39 38/38/38 36/36/36
f 42/42/42 41/41/41 40/40/40
f 43/43/43 42/42/42 40/40/40
