g Cube_cell_123
v 0.026332 0.119886 -0.062744
v 0.013222 -0.131676 -0.008393
v 0.001035 0.12405 0.050502
v 0.001035 0.12405 0.050502
v -0.01278 -0.127031 -0.016232
v -0.025734 0.12846 -0.076846
v -0.000584 -0.143699 0.018855
v -0.01278 -0.127031 -0.016232
v 0.001035 0.12405 0.050502
v 0.013222 -0.131676 -0.008393
v -0.000584 -0.143699 0.018855
v 0.001035 0.12405 0.050502
v -0.016235 -0.092901 -0.024381
v 1E-06 -0.140889 0.01193
v 0.014635 -0.120674 -0.012015
v -0.025239 0.126855 -0.07155
v -0.016235 -0.092901 -0.024381
v 0.014635 -0.120674 -0.012015
v 0.02527 0.117616 -0.061174
v -0.009642 0.125903 0.03233
v -0.025239 0.126855 -0.07155
v 0.02527 0.117616 -0.061174
v 0.011781 0.122332 0.03233
v 0.001041 0.124136 0.050034
vn 0.9759107 -0.003731999 0.2181389
vn 0.9759107 -0.003731999 0.2181389
vn 0.9759107 -0.003731999 0.2181389
vn -0.9786174 -0.0008210004 0.2056871
vn -0.9786174 -0.0008210004 0.2056871
vn -0.9786174 -0.0008210004 0.2056871
vn -0.9486375 -0.03147002 0.3147961
vn -0.9486375 -0.03147002 0.3147961
vn -0.9486375 -0.03147002 0.3147961
vn 0.9004313 -0.05642601 0.4313231
vn 0.9004313 -0.05642601 0.4313231
vn 0.9004313 -0.05642601 0.4313231
vn -0.287737 -0.6378818 -0.7143628
vn -0.287737 -0.6378818 -0.7143628
vn -0.287737 -0.6378818 -0.7143628
vn 0.1767461 -0.2031631 -0.9630606
vn 0.1767461 -0.2031631 -0.9630606
vn 0.1767461 -0.2031631 -0.9630606
vn 0.1767461 -0.2031631 -0.9630606
vn 0.177474 0.9839292 -0.019653
vn 0.177474 0.9839292 -0.019653
vn 0.177474 0.9839292 -0.019653
vn 0.177474 0.9839292 -0.019653
vn 0.177474 0.9839292 -0.019653
g Cube_cell_123_0
f 3/3/3 2/2/2 1/1/1
f 6/6/6 5/5/5 4/4/4
f 9/9/9 8/8/8 7/7/7
f 12/12/12 11/11/11 10/10/10
f 15/15/15 14/14/14 13/13/13
f 18/18/18 17/17/17 16/16/16
f 19/19/19 18/18/18 16/16/16
f 22/22/22 21/21/21 20/20/20
f 20/20/20 23/23/23 22/22/22
f 20/20/20 24/24/24 23/23/23
