g Cube_cell_004
v 0.139433 -0.248974 0.149369
v 0.139433 0.35004 -0.01638
v -0.060834 0.346942 -1.053409
v 0.059342 -0.720856 -1.053351
v -0.140886 -0.208389 0.240897
v 0.059342 -0.720856 -1.053351
v -0.060834 0.346942 -1.053409
v -0.140886 0.345605 0.099655
v -0.140885 0.345605 0.099658
v -0.140886 0.345861 -1.053398
v 0.139433 0.350132 -1.053398
v 0.001646 0.341407 0.010895
v 0.139433 0.350023 -0.016375
v -0.022459 0.338593 0.053964
v 0.139433 0.350023 -0.016375
v 0.13973 -0.248917 0.150287
v 0.003256 -0.262267 0.135669
v 0.001646 0.341407 0.010895
v 0.13973 -0.248917 0.150287
v 0.139433 -0.720965 -1.053395
v -0.140886 -0.720765 -1.053331
v 0.003256 -0.262267 0.135669
v -0.140335 -0.197758 0.24973
v -0.027666 -0.215299 0.207346
v -0.140335 -0.197758 0.24973
v -0.140885 0.345605 0.099658
v -0.022459 0.338593 0.053964
v -0.027666 -0.215299 0.207346
vn 0.9890159 0.05777399 -0.136051
vn 0.9890159 0.05777399 -0.136051
vn 0.9890159 0.05777399 -0.136051
vn 0.9890159 0.05777399 -0.136051
vn -0.9919571 -0.08191201 -0.096497
vn -0.9919571 -0.08191201 -0.096497
vn -0.9919571 -0.08191201 -0.096497
vn -0.9919571 -0.08191201 -0.096497
vn -0.013424 0.9999021 0.003955001
vn -0.013424 0.9999021 0.003955001
vn -0.013424 0.9999021 0.003955001
vn -0.013424 0.9999021 0.003955001
vn -0.013424 0.9999021 0.003955001
vn -0.013424 0.9999021 0.003955001
vn 0.02596 0.235478 0.9715329
vn 0.02596 0.235478 0.9715329
vn 0.02596 0.235478 0.9715329
vn 0.02596 0.235478 0.9715329
vn -0.019783 -0.9300228 0.3669689
vn -0.019783 -0.9300228 0.3669689
vn -0.019783 -0.9300228 0.3669689
vn -0.019783 -0.9300228 0.3669689
vn -0.019783 -0.9300228 0.3669689
vn -0.019783 -0.9300228 0.3669689
vn 0.367911 0.246406 0.8966189
vn 0.367911 0.246406 0.8966189
vn 0.367911 0.246406 0.8966189
vn 0.367911 0.246406 0.8966189
g Cube_cell_004_0
f 3/3/3 2/2/2 1/1/1
f 4/4/4 3/3/3 1/1/1
f 7/7/7 6/6/6 5/5/5
f 8/8/8 7/7/7 5/5/5
f 11/11/11 10/10/10 9/9/9
f 9/9/9 12/12/12 11/11/11
f 12/12/12 13/13/13 11/11/11
f 9/9/9 14/14/14 12/12/12
f 17/17/17 16/16/16 15/15/15
f 18/18/18 17/17/17 15/15/15
f 21/21/21 20/20/20 19/19/19
f 19/19/19 22/22/22 21/21/21
f 23/23/23 21/21/21 22/22/22
f 22/22/22 24/24/24 23/23/23
f 27/27/27 26/26/26 25/25/25
f 28/28/28 27/27/27 25/25/25
