g Cube_cell_110
v -0.00182 0.113681 -0.027715
v -0.017796 -0.126885 0.001626
v 0.001372 -0.12777 -0.056107
v -0.017796 -0.126885 0.001626
v -0.00182 0.113681 -0.027715
v -0.025482 0.074303 0.071799
v 0.001372 -0.12777 -0.056107
v 0.028021 0.075933 0.081964
v -0.00182 0.113681 -0.027715
v 0.020008 -0.12853 0.007927
v 0.024321 0.068132 0.081345
v 0.018814 -0.126211 0.009701
v -0.017665 -0.123089 0.003306
v -0.022226 0.072544 0.071905
v -0.014645 0.097023 0.014573
v 0.000329 0.111144 -0.019888
v 0.01527 0.099874 0.015215
v -0.022226 0.072544 0.071905
v 0.024321 0.068132 0.081345
v -0.017665 -0.123089 0.003306
v 0.018814 -0.126211 0.009701
v 0.010962 -0.128294 -0.03596
v -0.000958 -0.127701 -0.054752
vn -0.9486597 0.02454099 -0.3153449
vn -0.9486597 0.02454099 -0.3153449
vn -0.9486597 0.02454099 -0.3153449
vn -0.9754688 0.03834399 -0.2167729
vn -0.9754688 0.03834399 -0.2167729
vn -0.9754688 0.03834399 -0.2167729
vn 0.9676431 0.042047 -0.248795
vn 0.9676431 0.042047 -0.248795
vn 0.9676431 0.042047 -0.248795
vn 0.9584471 0.06317201 -0.278188
vn -0.190428 -0.334808 0.9228439
vn -0.190428 -0.334808 0.9228439
vn -0.190428 -0.334808 0.9228439
vn -0.2175 -0.327491 0.91948
vn -0.04678701 0.9145142 0.4018391
vn -0.04678701 0.9145142 0.4018391
vn -0.04678701 0.9145142 0.4018391
vn -0.04678701 0.9145142 0.4018391
vn -0.04678701 0.9145142 0.4018391
vn -0.1048951 -0.9929535 0.05513903
vn -0.1048951 -0.9929535 0.05513903
vn -0.1048951 -0.9929535 0.05513903
vn -0.1048951 -0.9929535 0.05513903
g Cube_cell_110_0
f 3/3/3 2/2/2 1/1/1
f 6/6/6 5/5/5 4/4/4
f 9/9/9 8/8/8 7/7/7
f 8/8/8 10/10/10 7/7/7
f 13/13/13 12/12/12 11/11/11
f 13/13/13 11/11/11 14/14/14
f 17/17/17 16/16/16 15/15/15
f 15/15/15 18/18/18 17/17/17
f 18/18/18 19/19/19 17/17/17
f 22/22/22 21/21/21 20/20/20
f 23/23/23 22/22/22 20/20/20
