g Cube_cell_025
v -0.121906 -0.369159 1.255022
v 0.139289 0.047595 -0.742843
v -0.124637 0.037628 -0.729113
v 0.139289 0.047595 -0.742843
v -0.121906 -0.369159 1.255022
v 0.148156 0.019685 1.177287
v 0.078952 0.095615 1.421729
v 0.148157 0.054649 -0.76931
v 0.148157 -0.338325 -0.241549
v 0.078952 0.095615 1.421729
v -0.132163 -0.339811 -0.223185
v -0.132163 0.041455 -0.712996
vn 0.02653601 -0.9792714 -0.2008071
vn 0.02653601 -0.9792714 -0.2008071
vn 0.02653601 -0.9792714 -0.2008071
vn 0.8201432 -0.5720302 -0.012102
vn 0.8201432 -0.5720302 -0.012102
vn 0.8201432 -0.5720302 -0.012102
vn 0.9986719 0.04132299 0.030771
vn 0.9986719 0.04132299 0.030771
vn 0.9986719 0.04132299 0.030771
vn -0.9880614 0.121571 0.09463104
vn -0.9880614 0.121571 0.09463104
vn -0.9880614 0.121571 0.09463104
g Cube_cell_025_0
f 3/3/3 2/2/2 1/1/1
f 6/6/6 5/5/5 4/4/4
f 9/9/9 8/8/8 7/7/7
f 12/12/12 11/11/11 10/10/10
