g Cube_cell_091
v -0.138637 -0.315348 -0.357967
v -0.058695 1.259281 0.408452
v 0.003425 0.676205 1.882127
v -0.031248 -0.294581 -0.347763
v 0.002366 -0.075305 -0.311046
v 0.004544 -0.349794 -0.248869
v -0.120154 -0.064113 -0.288589
v -0.065109 -0.33727 -0.246383
v 0.123199 -0.01655 -0.288622
v -0.138638 1.26101 0.416574
v -0.142119 -0.149207 -0.22273
v -0.120154 1.011524 0.282223
v 0.000792 -0.019205 -0.29062
v 0.132159 -0.087374 -0.24006
v -0.142119 -0.149207 -0.22273
v 0.132159 -0.087374 -0.24006
v 0.000792 -0.019205 -0.29062
v 0.008081 -0.298358 -0.102673
v 0.008057 -0.292975 -0.106083
v -0.000474 -0.015217 -0.296381
v -0.031897 -0.328834 -0.292934
v -0.142119 -0.149207 -0.22273
v -0.031897 -0.328834 -0.292934
v 0.000792 -0.019205 -0.29062
v 0.123198 0.593818 1.711411
v 0.132159 -0.087374 -0.24006
v 0.008081 -0.298358 -0.102673
v -0.120154 0.591471 1.711411
v -0.031897 -0.328834 -0.292934
v -0.119066 -0.345811 -0.294146
v 0.123198 1.011525 0.257286
v 0.132159 -0.087374 -0.24006
v 0.141682 1.261004 0.387883
v -0.138638 1.26101 0.416574
v -0.120154 1.011524 0.282223
v -0.058695 1.259281 0.408452
v 0.141682 -0.01409 -0.289225
v 0.141681 -0.315097 -0.292834
v 0.003425 0.676205 1.882127
v -0.120154 0.591471 1.711411
v -0.065109 -0.33727 -0.246383
v -0.120154 -0.064113 -0.288589
v 0.001471 1.011409 0.269686
v 0.077207 0.607266 1.733433
v 0.077207 0.607266 1.733433
v 0.001471 1.011409 0.269686
v 0.123199 -0.01655 -0.288622
v -0.065109 -0.33727 -0.246383
vn -0.9983206 0.02532399 0.05210198
vn -0.9983206 0.02532399 0.05210198
vn -0.9983206 0.02532399 0.05210198
vn -0.922664 0.078212 0.37759
vn -0.922664 0.078212 0.37759
vn -0.922664 0.078212 0.37759
vn 0.02859501 -0.1470051 -0.9887223
vn 0.02859501 -0.1470051 -0.9887223
vn 0.02859501 -0.1470051 -0.9887223
vn -0.7113938 0.2916329 -0.6394287
vn -0.7113938 0.2916329 -0.6394287
vn -0.7113938 0.2916329 -0.6394287
vn -0.06200802 0.5147182 0.8551142
vn -0.06200802 0.5147182 0.8551142
vn -0.06200802 0.5147182 0.8551142
vn 0.02984601 -0.557704 -0.8295031
vn 0.02984601 -0.557704 -0.8295031
vn 0.02984601 -0.557704 -0.8295031
vn 0.9767463 -0.09995003 -0.1896751
vn 0.9767463 -0.09995003 -0.1896751
vn 0.9767463 -0.09995003 -0.1896751
vn -0.469641 0.056166 -0.881069
vn -0.469641 0.056166 -0.881069
vn -0.469641 0.056166 -0.881069
vn 0.3795989 -0.8452798 0.3760409
vn 0.3795989 -0.8452798 0.3760409
vn 0.3795989 -0.8452798 0.3760409
vn 0.3795989 -0.8452798 0.3760409
vn 0.3795989 -0.8452798 0.3760409
vn 0.3795989 -0.8452798 0.3760409
vn 0.03505201 0.4614101 -0.8864943
vn 0.03505201 0.4614101 -0.8864943
vn 0.03505201 0.4614101 -0.8864943
vn 0.03505201 0.4614101 -0.8864943
vn 0.03505201 0.4614101 -0.8864943
vn 0.9930683 0.11443 0.02685301
vn 0.9930683 0.11443 0.02685301
vn 0.9930683 0.11443 0.02685301
vn 0.9930683 0.11443 0.02685301
vn -0.984778 0.173136 0.015366
vn -0.984778 0.173136 0.015366
vn -0.984778 0.173136 0.015366
vn -0.984778 0.173136 0.015366
vn -0.984778 0.173136 0.015366
vn 0.9969196 -0.06563998 0.04292598
vn 0.9969196 -0.06563998 0.04292598
vn 0.9969196 -0.06563998 0.04292598
vn 0.9969196 -0.06563998 0.04292598
g Cube_cell_091_0
f 3/3/3 2/2/2 1/1/1
f 6/6/6 5/5/5 4/4/4
f 9/9/9 8/8/8 7/7/7
f 12/12/12 11/11/11 10/10/10
f 15/15/15 14/14/14 13/13/13
f 18/18/18 17/17/17 16/16/16
f 21/21/21 20/20/20 19/19/19
f 24/24/24 23/23/23 22/22/22
f 27/27/27 26/26/26 25/25/25
f 27/27/27 25/25/25 28/28/28
f 29/29/29 27/27/27 28/28/28
f 28/28/28 30/30/30 29/29/29
f 33/33/33 32/32/32 31/31/31
f 31/31/31 34/34/34 33/33/33
f 31/31/31 35/35/35 34/34/34
f 38/38/38 37/37/37 36/36/36
f 39/39/39 38/38/38 36/36/36
f 42/42/42 41/41/41 40/40/40
f 40/40/40 43/43/43 42/42/42
f 40/40/40 44/44/44 43/43/43
f 47/47/47 46/46/46 45/45/45
f 48/48/48 47/47/47 45/45/45
