g Cube_cell_077
v -0.00148 -0.186143 0.235723
v 0.026466 0.213622 0.083077
v 0.077247 -0.173224 -0.293208
v -0.074168 0.207824 -0.414108
v -0.063249 0.30194 -0.112887
v -0.060547 -0.195812 -0.303537
v 0.141728 -0.161953 -0.286772
v 0.101547 0.341464 -0.39668
v 0.009329 -0.169284 0.204943
v 0.07648 0.194261 -0.390818
v 0.077247 -0.173224 -0.293208
v 0.026466 0.213622 0.083077
v 0.141728 -0.161953 -0.286772
v 0.009329 -0.169284 0.204943
v 0.133952 -0.107585 0.176856
v 0.101547 0.341464 -0.39668
v 0.133952 -0.107585 0.176856
v 0.005881 -0.162189 0.237064
v -0.138592 -0.208253 0.273792
v 0.005881 -0.162189 0.237064
v 0.133952 -0.107585 0.176856
v -0.00148 -0.186143 0.235723
v -0.060547 -0.195812 -0.303537
v -0.032657 0.152243 0.158703
v -0.063249 0.30194 -0.112887
v -0.138591 0.249658 0.120161
v -0.138592 -0.208254 0.273796
v -0.138592 -0.208656 -0.310533
v -0.138592 0.213723 -0.424106
v 0.141728 -0.161953 -0.286772
v 0.141728 -0.162129 0.193245
v 0.14173 0.205476 0.080411
v 0.141728 0.188291 -0.380645
v -0.141022 0.223449 0.137063
v -0.15295 -0.085352 -0.315622
v -0.087919 -0.041839 -0.238888
v -0.050791 0.192441 0.108809
v -0.138592 -0.208253 0.273792
v 0.133952 -0.107585 0.176856
v 0.009329 -0.169284 0.204943
v -0.087919 -0.041839 -0.238888
v -0.15295 -0.085352 -0.315622
v 0.005881 -0.162189 0.237064
v -0.138592 -0.208253 0.273792
v -0.141022 0.223449 0.137063
v -0.050791 0.192441 0.108809
vn 0.9890658 -0.013051 0.146897
vn 0.9890658 -0.013051 0.146897
vn 0.9890658 -0.013051 0.146897
vn -0.9988324 -0.02191201 0.04305402
vn -0.9988324 -0.02191201 0.04305402
vn -0.9988324 -0.02191201 0.04305402
vn -0.9565296 -0.13301 -0.2595369
vn -0.9565296 -0.13301 -0.2595369
vn -0.9565296 -0.13301 -0.2595369
vn 0.9941661 0.029625 0.103711
vn 0.9941661 0.029625 0.103711
vn 0.9941661 0.029625 0.103711
vn 0.4609181 -0.8804761 0.11098
vn 0.4609181 -0.8804761 0.11098
vn 0.4609181 -0.8804761 0.11098
vn -0.04458401 0.7853683 0.6174212
vn -0.04458401 0.7853683 0.6174212
vn -0.04458401 0.7853683 0.6174212
vn 0.1696081 -0.8821903 -0.4392872
vn 0.1696081 -0.8821903 -0.4392872
vn 0.1696081 -0.8821903 -0.4392872
vn -0.991733 -0.06637699 0.109817
vn -0.991733 -0.06637699 0.109817
vn -0.991733 -0.06637699 0.109817
vn -0.9951336 -0.03990798 0.09009197
vn -1 0 0
vn -1 0 0
vn -1 0 0
vn -1 0 0
vn 1 0 0
vn 1 0 0
vn 1 0 0
vn 1 0 0
vn 0.1097001 0.8193623 -0.5626822
vn 0.1097001 0.8193623 -0.5626822
vn 0.1097001 0.8193623 -0.5626822
vn 0.1097001 0.8193623 -0.5626822
vn 0.3706521 -0.9037903 -0.2139631
vn 0.3706521 -0.9037903 -0.2139631
vn 0.3706521 -0.9037903 -0.2139631
vn 0.3706521 -0.9037903 -0.2139631
vn 0.3706521 -0.9037903 -0.2139631
vn 0.232732 0.326236 0.916191
vn 0.232732 0.326236 0.916191
vn 0.232732 0.326236 0.916191
vn 0.232732 0.326236 0.916191
g Cube_cell_077_0
f 3/3/3 2/2/2 1/1/1
f 6/6/6 5/5/5 4/4/4
f 9/9/9 8/8/8 7/7/7
f 12/12/12 11/11/11 10/10/10
f 15/15/15 14/14/14 13/13/13
f 18/18/18 17/17/17 16/16/16
f 21/21/21 20/20/20 19/19/19
f 24/24/24 23/23/23 22/22/22
f 23/23/23 24/24/24 25/25/25
f 28/28/28 27/27/27 26/26/26
f 29/29/29 28/28/28 26/26/26
f 32/32/32 31/31/31 30/30/30
f 33/33/33 32/32/32 30/30/30
f 36/36/36 35/35/35 34/34/34
f 37/37/37 36/36/36 34/34/34
f 40/40/40 39/39/39 38/38/38
f 41/41/41 40/40/40 38/38/38
f 38/38/38 42/42/42 41/41/41
f 45/45/45 44/44/44 43/43/43
f 46/46/46 45/45/45 43/43/43
