g Cube_cell_122
v -0.037869 -0.021068 -0.186844
v -0.027472 0.108663 -0.039541
v -0.026189 -0.111987 -0.019895
v 0.002797 0.127176 0.08735
v 0.026413 0.109807 -0.033852
v 0.001312 -0.112512 0.101599
v 0.026952 -0.112707 -0.043137
v -0.026189 -0.111987 -0.019895
v -0.027472 0.108663 -0.039541
v 0.001312 -0.112512 0.101599
v 0.002797 0.127176 0.08735
v 0.037292 -0.033116 -0.19261
v 0.023962 0.114272 -0.022863
v -0.025804 0.111565 -0.034072
v -0.037065 -0.022139 -0.183283
v 0.036872 -0.028712 -0.189074
v 0.035216 -0.05328 -0.160365
v 0.026952 -0.112707 -0.043137
v 0.026413 0.109807 -0.033852
v 0.026061 -0.117168 -0.028814
v -0.013227 -0.119675 0.068491
v -0.001862 -0.112348 0.092772
v 0.008651 -0.112493 0.08295
v 0.006562 0.125903 0.077596
v -0.005487 0.126252 0.08048
v -0.025804 0.111565 -0.034072
v 0.023962 0.114272 -0.022863
v 0.026061 -0.117168 -0.028814
v 0.037292 -0.033116 -0.19261
v -0.037065 -0.022139 -0.183283
v -0.013227 -0.119675 0.068491
vn -0.9975448 0.0004339999 0.07002899
vn -0.9975448 0.0004339999 0.07002899
vn -0.9975448 0.0004339999 0.07002899
vn 0.9816692 0.005243001 0.19052
vn 0.9816692 0.005243001 0.19052
vn 0.9816692 0.005243001 0.19052
vn 0.9846559 -0.004891999 0.174439
vn -0.9752168 0.013988 0.220809
vn -0.9752168 0.013988 0.220809
vn -0.9752168 0.013988 0.220809
vn -0.9731627 0.01965999 0.2292769
vn 0.05990701 0.7490811 -0.6597641
vn 0.05990701 0.7490811 -0.6597641
vn 0.05990701 0.7490811 -0.6597641
vn 0.05990701 0.7490811 -0.6597641
vn 0.997664 0.000863 0.068307
vn 0.997664 0.000863 0.068307
vn 0.997664 0.000863 0.068307
vn 0.997664 0.000863 0.068307
vn 0.2525309 -0.9627986 0.09616096
vn 0.2525309 -0.9627986 0.09616096
vn 0.2525309 -0.9627986 0.09616096
vn 0.2525309 -0.9627986 0.09616096
vn -0.021543 0.9923971 -0.121177
vn -0.021543 0.9923971 -0.121177
vn -0.021543 0.9923971 -0.121177
vn -0.021543 0.9923971 -0.121177
vn -0.3980782 -0.8449745 -0.3571442
vn -0.3980782 -0.8449745 -0.3571442
vn -0.3980782 -0.8449745 -0.3571442
vn -0.3980782 -0.8449745 -0.3571442
g Cube_cell_122_0
f 3/3/3 2/2/2 1/1/1
f 6/6/6 5/5/5 4/4/4
f 5/5/5 6/6/6 7/7/7
f 10/10/10 9/9/9 8/8/8
f 10/10/10 11/11/11 9/9/9
f 14/14/14 13/13/13 12/12/12
f 15/15/15 14/14/14 12/12/12
f 18/18/18 17/17/17 16/16/16
f 19/19/19 18/18/18 16/16/16
f 22/22/22 21/21/21 20/20/20
f 23/23/23 22/22/22 20/20/20
f 26/26/26 25/25/25 24/24/24
f 27/27/27 26/26/26 24/24/24
f 30/30/30 29/29/29 28/28/28
f 31/31/31 30/30/30 28/28/28
