g Cube_cell_131
v 0.000787 0.035636 0.079208
v 0.032486 0.032552 -0.11563
v 0.026102 -0.048863 -0.037506
v 0.000787 0.035636 0.079208
v -0.025788 -0.040338 -0.05182
v -0.031048 0.033389 -0.12317
v 0.000787 0.035636 0.079208
v 0.026102 -0.048863 -0.037506
v -0.000105 -0.044891 0.078795
v 0.000298 -0.044703 0.077133
v 0.024809 -0.051684 -0.032187
v -0.024814 -0.041445 -0.044993
v -0.025788 -0.040338 -0.05182
v 0.000787 0.035636 0.079208
v -0.000105 -0.044891 0.078795
v 0.024809 -0.051684 -0.032187
v 0.032224 0.033195 -0.115563
v -0.030631 0.031926 -0.122637
v -0.024814 -0.041445 -0.044993
v -0.005666 0.035499 0.069517
v -0.030631 0.031926 -0.122637
v 0.032224 0.033195 -0.115563
v 0.011434 0.03576 0.060923
vn 0.9844046 0.07535397 0.158963
vn 0.9844046 0.07535397 0.158963
vn 0.9844046 0.07535397 0.158963
vn -0.9849133 0.07882202 0.154055
vn -0.9849133 0.07882202 0.154055
vn -0.9849133 0.07882202 0.154055
vn 0.9753811 -0.011935 0.220203
vn 0.9753811 -0.011935 0.220203
vn 0.9753811 -0.011935 0.220203
vn -0.206092 -0.9783973 0.016277
vn -0.206092 -0.9783973 0.016277
vn -0.206092 -0.9783973 0.016277
vn -0.9810986 0.009880006 0.1932561
vn -0.9810986 0.009880006 0.1932561
vn -0.9810986 0.009880006 0.1932561
vn 0.06677501 -0.7119541 -0.699044
vn 0.06677501 -0.7119541 -0.699044
vn 0.06677501 -0.7119541 -0.699044
vn 0.06677501 -0.7119541 -0.699044
vn -0.019439 0.9996761 -0.016426
vn -0.019439 0.9996761 -0.016426
vn -0.019439 0.9996761 -0.016426
vn -0.019439 0.9996761 -0.016426
g Cube_cell_131_0
f 3/3/3 2/2/2 1/1/1
f 6/6/6 5/5/5 4/4/4
f 9/9/9 8/8/8 7/7/7
f 12/12/12 11/11/11 10/10/10
f 15/15/15 14/14/14 13/13/13
f 18/18/18 17/17/17 16/16/16
f 19/19/19 18/18/18 16/16/16
f 22/22/22 21/21/21 20/20/20
f 23/23/23 22/22/22 20/20/20
