g Cube_cell_040
v 0.017923 0.284134 0.017049
v -0.021644 -0.163486 -0.191129
v -0.060785 0.170436 -0.122974
v -0.144678 -0.105244 0.419745
v -0.144619 0.279354 0.000599
v 0.135699 -0.247803 0.562362
v 0.135699 -0.247803 0.562362
v 0.135652 -0.247952 -0.214095
v -0.144678 -0.105244 0.419745
v 0.135673 0.244743 -0.000271
v 0.009071 -0.141729 -0.035573
v 0.135652 -0.247952 -0.214095
v 0.1357 0.241574 -0.000159
v 0.135699 -0.243547 -0.211207
v 0.135699 -0.247803 0.562348
v -0.144678 -0.105244 0.419745
v 0.009071 -0.141729 -0.035573
v -0.075305 0.097905 -0.163432
v 0.135652 -0.247952 -0.214095
v 0.009071 -0.141729 -0.035573
v -0.144678 -0.105244 0.419745
v -0.14462 -0.105094 0.4197
v -0.14462 -0.104887 -0.206619
v -0.14462 0.279865 0.006768
vn -0.7674161 -0.213355 0.6046091
vn -0.7674161 -0.213355 0.6046091
vn -0.7674161 -0.213355 0.6046091
vn 0.030723 0.7364711 0.6757711
vn 0.030723 0.7364711 0.6757711
vn 0.030723 0.7364711 0.6757711
vn -0.4533139 -0.8913509 0.000199
vn -0.4533139 -0.8913509 0.000199
vn -0.4533139 -0.8913509 0.000199
vn -0.692387 0.287275 -0.6618711
vn -0.692387 0.287275 -0.6618711
vn -0.692387 0.287275 -0.6618711
vn 1 0 0
vn 1 0 0
vn 1 0 0
vn -0.8610993 -0.4395481 -0.2555491
vn -0.8610993 -0.4395481 -0.2555491
vn -0.8610993 -0.4395481 -0.2555491
vn -0.7909201 -0.5704781 -0.22136
vn -0.7909201 -0.5704781 -0.22136
vn -0.7909201 -0.5704781 -0.22136
vn -1 0 0
vn -1 0 0
vn -1 0 0
g Cube_cell_040_0
f 3/3/3 2/2/2 1/1/1
f 6/6/6 5/5/5 4/4/4
f 9/9/9 8/8/8 7/7/7
f 12/12/12 11/11/11 10/10/10
f 15/15/15 14/14/14 13/13/13
f 18/18/18 17/17/17 16/16/16
f 21/21/21 20/20/20 19/19/19
f 24/24/24 23/23/23 22/22/22
