g Cube_cell_087
v -0.062246 -0.405692 -0.070889
v 0.0285 -0.419646 -0.088101
v 0.052522 -0.077972 -0.498951
v 0.052522 -0.077972 -0.498951
v -0.062404 -0.066676 -0.484907
v -0.062246 -0.405692 -0.070889
v -0.062404 -0.066676 -0.484907
v 0.052522 -0.077972 -0.498951
v 0.001232 0.435928 0.080481
v 0.001232 0.435928 0.080481
v -0.008664 0.137414 0.554092
v -0.058815 0.242625 0.44751
v 0.001232 0.435928 0.080481
v -0.058815 0.242625 0.44751
v -0.062404 -0.066676 -0.484907
v 0.001684 0.435541 0.078226
v -0.011709 0.126698 0.558503
v 0.027372 -0.416079 -0.084414
v 0.047271 -0.07705 -0.506404
v -0.062247 -0.066231 -0.483168
v -0.062247 0.429045 0.074663
v -0.062248 0.142895 0.538458
v -0.062247 -0.405694 -0.070897
v -0.058815 0.242625 0.44751
v -0.008664 0.137414 0.554092
v 0.0285 -0.419646 -0.088101
v -0.062246 -0.405692 -0.070889
vn -0.233378 -0.7408832 -0.6297832
vn -0.233378 -0.7408832 -0.6297832
vn -0.233378 -0.7408832 -0.6297832
vn -0.151688 -0.7647821 -0.6261781
vn -0.151688 -0.7647821 -0.6261781
vn -0.151688 -0.7647821 -0.6261781
vn -0.007633003 0.7477893 -0.6638923
vn -0.007633003 0.7477893 -0.6638923
vn -0.007633003 0.7477893 -0.6638923
vn 0.5208089 0.717239 0.462954
vn 0.5208089 0.717239 0.462954
vn 0.5208089 0.717239 0.462954
vn -0.9797525 0.1911259 -0.05962997
vn -0.9797525 0.1911259 -0.05962997
vn -0.9797525 0.1911259 -0.05962997
vn -0.9988706 -0.02209699 -0.04206298
vn -0.9988706 -0.02209699 -0.04206298
vn -0.9988706 -0.02209699 -0.04206298
vn -0.997923 -0.018307 -0.061763
vn -1 0 0
vn -1 0 0
vn -1 0 0
vn -1 0 0
vn -0.7231082 -0.4894871 0.4873571
vn -0.7231082 -0.4894871 0.4873571
vn -0.7231082 -0.4894871 0.4873571
vn -0.7231082 -0.4894871 0.4873571
g Cube_cell_087_0
f 3/3/3 2/2/2 1/1/1
f 6/6/6 5/5/5 4/4/4
f 9/9/9 8/8/8 7/7/7
f 12/12/12 11/11/11 10/10/10
f 15/15/15 14/14/14 13/13/13
f 18/18/18 17/17/17 16/16/16
f 18/18/18 16/16/16 19/19/19
f 22/22/22 21/21/21 20/20/20
f 23/23/23 22/22/22 20/20/20
f 26/26/26 25/25/25 24/24/24
f 27/27/27 26/26/26 24/24/24
