g Cube_cell_120
v 0.00676 0.089522 -0.276411
v -0.049151 -0.174888 0.200508
v 0.063359 -0.165073 -0.255384
v 0.014061 0.167298 0.34518
v 0.063359 -0.165073 -0.255384
v -0.049151 -0.174888 0.200508
v 0.063525 -0.16684 -0.261922
v 0.063525 -0.161683 0.239912
v 0.063525 0.226819 0.346936
v 0.063525 0.22682 -0.257055
v -0.046003 -0.170205 0.219318
v -0.021205 0.231206 0.339415
v -0.005509 0.230393 -0.252099
v -0.027991 -0.126382 -0.265977
vn -0.943805 -0.229464 -0.237862
vn -0.943805 -0.229464 -0.237862
vn -0.943805 -0.229464 -0.237862
vn 0.9366023 -0.2683011 0.2253681
vn 0.9366023 -0.2683011 0.2253681
vn 0.9366023 -0.2683011 0.2253681
vn 1 0 0
vn 1 0 0
vn 1 0 0
vn 1 0 0
vn 0.9973291 -0.06723401 0.028534
vn 0.9973291 -0.06723401 0.028534
vn 0.9973291 -0.06723401 0.028534
vn 0.9973291 -0.06723401 0.028534
g Cube_cell_120_0
f 3/3/3 2/2/2 1/1/1
f 6/6/6 5/5/5 4/4/4
f 9/9/9 8/8/8 7/7/7
f 10/10/10 9/9/9 7/7/7
f 13/13/13 12/12/12 11/11/11
f 14/14/14 13/13/13 11/11/11
