g Cube_cell_042
v 0.001761 0.338653 0.131173
v 0.06321 0.334381 -0.342766
v 0.002612 -0.310373 0.281716
v 0.06321 0.334381 -0.342766
v 0.089247 -0.27256 -0.739647
v 0.002612 -0.310373 0.281716
v -0.096643 -0.376532 -0.942207
v -0.137313 -0.386664 0.186761
v -0.005869 -0.338955 0.2908
v -0.096643 -0.376532 -0.942207
v -0.059448 0.334269 -0.378502
v -0.137312 0.349498 -0.380542
v -0.137313 0.349497 -0.380534
v -0.100066 0.345138 1.369055
v -0.137313 -0.386664 0.186795
v -0.137313 -0.387415 -0.869877
v 0.085625 -0.263917 -0.726008
v 0.143007 -0.244213 -0.707966
v 0.062858 0.338189 -0.331047
v 0.143006 0.328242 -0.327455
v 0.143006 0.328242 -0.327455
v 0.143006 -0.244211 -0.707958
v 0.143006 -0.243658 0.352137
v 0.143006 0.327911 1.277258
v 0.001761 0.338653 0.131173
v 0.002612 -0.310373 0.281716
v -0.092122 -0.36268 -0.84039
v -0.059744 0.343522 -0.366097
v -0.137659 0.338402 1.356065
v -0.137312 0.349498 -0.380542
v -0.059448 0.334269 -0.378502
v 0.002893 0.33885 0.134154
v 0.143006 0.32792 1.277258
v 0.143006 0.328242 -0.327455
v 0.062858 0.338189 -0.331047
v 0.143006 -0.243658 0.352137
v 0.0152 -0.279177 0.252716
v -0.005869 -0.338955 0.2908
v -0.137659 0.338402 1.356065
v -0.137313 -0.386664 0.186761
v 0.143006 0.32792 1.277258
v 0.0152 -0.279177 0.252716
v 0.143006 -0.243658 0.352137
v 0.143007 -0.244213 -0.707966
v 0.085625 -0.263917 -0.726008
vn 0.9912568 0.031045 0.128242
vn 0.9912568 0.031045 0.128242
vn 0.9912568 0.031045 0.128242
vn 0.9963853 -0.01222601 0.08406403
vn 0.9963853 -0.01222601 0.08406403
vn 0.9963853 -0.01222601 0.08406403
vn 0.338561 -0.940937 0.003751
vn 0.338561 -0.940937 0.003751
vn 0.338561 -0.940937 0.003751
vn 0.139875 0.6107602 -0.7793632
vn 0.139875 0.6107602 -0.7793632
vn 0.139875 0.6107602 -0.7793632
vn -0.9998593 0.010237 0.013284
vn -0.9998593 0.010237 0.013284
vn -0.9998593 0.010237 0.013284
vn -0.9998593 0.010237 0.013284
vn 0.07329604 0.5489513 -0.8326344
vn 0.07329604 0.5489513 -0.8326344
vn 0.07329604 0.5489513 -0.8326344
vn 0.105438 0.5504809 -0.8281628
vn 1 0 0
vn 1 0 0
vn 1 0 0
vn 1 0 0
vn -0.9953786 0.0002159999 0.09602796
vn -0.9953786 0.0002159999 0.09602796
vn -0.9953786 0.0002159999 0.09602796
vn -0.9953786 0.0002159999 0.09602796
vn 0.06281801 0.9980211 0.002776
vn 0.06281801 0.9980211 0.002776
vn 0.06281801 0.9980211 0.002776
vn 0.06281801 0.9980211 0.002776
vn 0.06281801 0.9980211 0.002776
vn 0.06281801 0.9980211 0.002776
vn 0.06281801 0.9980211 0.002776
vn 0.119413 -0.844915 0.521401
vn 0.119413 -0.844915 0.521401
vn 0.119413 -0.844915 0.521401
vn 0.119413 -0.844915 0.521401
vn 0.119413 -0.844915 0.521401
vn 0.119413 -0.844915 0.521401
vn 0.2840731 -0.9587982 0.002898001
vn 0.2840731 -0.9587982 0.002898001
vn 0.2840731 -0.9587982 0.002898001
vn 0.2840731 -0.9587982 0.002898001
g Cube_cell_042_0
f 3/3/3 2/2/2 1/1/1
f 6/6/6 5/5/5 4/4/4
f 9/9/9 8/8/8 7/7/7
f 12/12/12 11/11/11 10/10/10
f 15/15/15 14/14/14 13/13/13
f 16/16/16 15/15/15 13/13/13
f 19/19/19 18/18/18 17/17/17
f 18/18/18 19/19/19 20/20/20
f 23/23/23 22/22/22 21/21/21
f 24/24/24 23/23/23 21/21/21
f 27/27/27 26/26/26 25/25/25
f 28/28/28 27/27/27 25/25/25
f 31/31/31 30/30/30 29/29/29
f 29/29/29 32/32/32 31/31/31
f 29/29/29 33/33/33 32/32/32
f 32/32/32 33/33/33 34/34/34
f 34/34/34 35/35/35 32/32/32
f 38/38/38 37/37/37 36/36/36
f 38/38/38 36/36/36 39/39/39
f 39/39/39 40/40/40 38/38/38
f 36/36/36 41/41/41 39/39/39
f 44/44/44 43/43/43 42/42/42
f 45/45/45 44/44/44 42/42/42
