g Cube_cell_008
v -0.1378 -0.732938 0.426858
v -0.129892 0.111307 1.104368
v 0.142564 -0.748824 0.443217
v 0.151369 0.158937 1.006223
v 0.142564 -0.748824 0.443217
v -0.129892 0.111307 1.104368
v 0.066115 0.288886 -0.341451
v -0.00144 0.050891 -0.364241
v 0.005228 0.278726 0.165777
v -0.00144 0.050891 -0.364241
v -0.060822 0.268017 -0.352012
v 0.005228 0.278726 0.165777
v -0.129892 0.111307 1.104368
v -0.090246 0.31482 -0.38653
v 0.012806 0.279738 0.168701
v 0.151369 0.158937 1.006223
v 0.101523 0.339398 -0.40118
v 0.142564 -0.748824 0.443217
v 0.101523 0.339398 -0.40118
v 0.002392 -0.168984 -0.143515
v -0.1378 -0.732938 0.426858
v -0.090246 0.31482 -0.38653
v 0.142547 -0.748398 0.444169
v 0.142547 -0.181591 1.033063
v 0.142547 0.301112 0.146773
v 0.142547 0.216275 -0.361237
v -0.137772 -0.173034 1.012203
v -0.137772 -0.730497 0.433578
v -0.137772 0.124159 -0.398554
v -0.137772 0.255004 0.226257
vn -0.080701 -0.623383 0.777741
vn -0.080701 -0.623383 0.777741
vn -0.080701 -0.623383 0.777741
vn 0.3598339 -0.4942839 0.7913298
vn 0.3598339 -0.4942839 0.7913298
vn 0.3598339 -0.4942839 0.7913298
vn 0.9534959 -0.281073 0.108828
vn 0.9534959 -0.281073 0.108828
vn 0.9534959 -0.281073 0.108828
vn -0.954874 -0.268322 0.127354
vn -0.954874 -0.268322 0.127354
vn -0.954874 -0.268322 0.127354
vn -0.118791 0.9830964 0.139321
vn -0.118791 0.9830964 0.139321
vn -0.118791 0.9830964 0.139321
vn -0.118791 0.9830964 0.139321
vn -0.118791 0.9830964 0.139321
vn 0.01898901 -0.6427552 -0.7658362
vn 0.01898901 -0.6427552 -0.7658362
vn 0.01898901 -0.6427552 -0.7658362
vn 0.01898901 -0.6427552 -0.7658362
vn 0.01898901 -0.6427552 -0.7658362
vn 1 0 0
vn 1 0 0
vn 1 0 0
vn 1 0 0
vn -1 0 0
vn -1 0 0
vn -1 0 0
vn -1 0 0
g Cube_cell_008_0
f 3/3/3 2/2/2 1/1/1
f 6/6/6 5/5/5 4/4/4
f 9/9/9 8/8/8 7/7/7
f 12/12/12 11/11/11 10/10/10
f 15/15/15 14/14/14 13/13/13
f 13/13/13 16/16/16 15/15/15
f 17/17/17 15/15/15 16/16/16
f 20/20/20 19/19/19 18/18/18
f 18/18/18 21/21/21 20/20/20
f 21/21/21 22/22/22 20/20/20
f 25/25/25 24/24/24 23/23/23
f 26/26/26 25/25/25 23/23/23
f 29/29/29 28/28/28 27/27/27
f 30/30/30 29/29/29 27/27/27
