g Cube_cell_134
v 0.01878 0.383649 -0.205578
v 0.044736 0.46904 -0.156087
v 0.02307 0.508588 0.184396
v -0.012933 -0.294419 -0.592845
v -0.024769 -0.316407 0.45649
v -0.030904 -0.548855 0.271823
v 0.01878 0.383649 -0.205578
v 0.02307 0.508588 0.184396
vn -0.9346168 0.3415579 -0.09914498
vn -0.9346168 0.3415579 -0.09914498
vn -0.9346168 0.3415579 -0.09914498
vn -0.9993404 0.03475001 -0.010544
vn -0.9993404 0.03475001 -0.010544
vn -0.9993404 0.03475001 -0.010544
vn -0.9985244 0.05354402 -0.009065004
vn -0.9985244 0.05354402 -0.009065004
g Cube_cell_134_0
f 3/3/3 2/2/2 1/1/1
f 6/6/6 5/5/5 4/4/4
f 4/4/4 5/5/5 7/7/7
f 5/5/5 8/8/8 7/7/7
