g Cube_cell_107
v -0.024325 0.419206 -0.051452
v 0.059779 -0.359777 -0.279927
v 0.065522 0.442803 0.032659
v -0.025833 -0.454861 -0.21853
v 0.059779 -0.359777 -0.279927
v -0.024325 0.419206 -0.051452
v -0.023875 -0.265147 0.236335
v -0.020926 0.11031 -0.452679
v -0.026932 -0.450314 -0.220947
v -0.022776 0.448607 0.038037
v -0.024288 0.040132 0.335381
v 0.065405 0.110275 -0.451216
v 0.065405 -0.436265 -0.225046
v 0.065405 -0.24177 0.230808
v 0.065405 0.033271 0.329349
v 0.065405 0.441372 0.028191
v 0.059779 -0.359777 -0.279927
v -0.025833 -0.454861 -0.21853
v -0.029158 -0.1414 0.367692
v 0.064346 -0.099852 0.351051
v 0.065522 0.442803 0.032659
v 0.064346 -0.099852 0.351051
v -0.029158 -0.1414 0.367692
v -0.024325 0.419206 -0.051452
vn 0.6150531 0.282333 -0.736205
vn 0.6150531 0.282333 -0.736205
vn 0.6150531 0.282333 -0.736205
vn -0.6748202 0.139678 -0.7246432
vn -0.6748202 0.139678 -0.7246432
vn -0.6748202 0.139678 -0.7246432
vn 0.9999313 -0.011542 -0.002010001
vn 0.9999313 -0.011542 -0.002010001
vn 0.9999313 -0.011542 -0.002010001
vn 0.9999884 -0.0002060001 0.004802002
vn 0.9999884 -0.0002060001 0.004802002
vn 1 0 0
vn 1 0 0
vn 1 0 0
vn 1 0 0
vn 1 0 0
vn 0.6588013 -0.6808432 0.3200521
vn 0.6588013 -0.6808432 0.3200521
vn 0.6588013 -0.6808432 0.3200521
vn 0.6588013 -0.6808432 0.3200521
vn -0.4497761 0.4980621 0.7413742
vn -0.4497761 0.4980621 0.7413742
vn -0.4497761 0.4980621 0.7413742
vn -0.4497761 0.4980621 0.7413742
g Cube_cell_107_0
f 3/3/3 2/2/2 1/1/1
f 6/6/6 5/5/5 4/4/4
f 9/9/9 8/8/8 7/7/7
f 10/10/10 7/7/7 8/8/8
f 11/11/11 7/7/7 10/10/10
f 14/14/14 13/13/13 12/12/12
f 12/12/12 15/15/15 14/14/14
f 12/12/12 16/16/16 15/15/15
f 19/19/19 18/18/18 17/17/17
f 20/20/20 19/19/19 17/17/17
f 23/23/23 22/22/22 21/21/21
f 24/24/24 23/23/23 21/21/21
