g Cube_cell_067
v 0.024318 0.069588 0.193017
v 0.027479 -0.297169 -0.100561
v 0.01397 0.422797 -0.169699
v -0.000624 0.45487 -0.191495
v -0.072487 -0.294967 -0.086877
v 0.024519 -0.292052 -0.087824
v -0.072682 0.09551 0.214997
v -0.072681 -0.286777 -0.086887
v -0.072682 0.465857 -0.170944
v -0.072683 0.095544 0.214958
v -0.000624 0.45487 -0.191495
v 0.024295 0.069668 0.192654
v -0.072487 -0.294967 -0.086877
v -0.072683 0.095544 0.214958
v 0.024295 0.069668 0.192654
v 0.024519 -0.292052 -0.087824
vn -0.9997799 -0.017673 0.011314
vn -0.9997799 -0.017673 0.011314
vn -0.9997799 -0.017673 0.011314
vn -0.005533 -0.13766 -0.9904641
vn -0.005533 -0.13766 -0.9904641
vn -0.005533 -0.13766 -0.9904641
vn -1 0 0
vn -1 0 0
vn -1 0 0
vn 0.3317409 0.6768228 0.6571597
vn 0.3317409 0.6768228 0.6571597
vn 0.3317409 0.6768228 0.6571597
vn 0.022324 -0.6119739 0.7905629
vn 0.022324 -0.6119739 0.7905629
vn 0.022324 -0.6119739 0.7905629
vn 0.022324 -0.6119739 0.7905629
g Cube_cell_067_0
f 3/3/3 2/2/2 1/1/1
f 6/6/6 5/5/5 4/4/4
f 9/9/9 8/8/8 7/7/7
f 12/12/12 11/11/11 10/10/10
f 15/15/15 14/14/14 13/13/13
f 16/16/16 15/15/15 13/13/13
