g Cube_cell_012
v -0.139924 -0.257371 -1.478912
v -0.141336 -0.534246 -0.06634
v 0.140444 -0.260117 -1.479878
v 0.139419 -0.460166 -0.02003
v 0.140444 -0.260117 -1.479878
v -0.141336 -0.534246 -0.06634
v -0.130692 0.141757 0.598578
v -0.121282 0.134483 -1.3202
v 0.122069 0.157561 -1.3202
v 0.005367 0.142432 0.390734
v 0.13141 0.150811 0.529168
v -0.0294 0.136552 0.535169
v 0.13141 0.150811 0.529168
v 0.139419 -0.460166 -0.02003
v -0.141336 -0.534246 -0.06634
v -0.000441 -0.029021 0.432094
v 0.005367 0.142432 0.390734
v -0.0294 0.136552 0.535169
v -0.130692 0.141757 0.598578
v 0.056676 -0.256448 -1.484544
v 0.140553 -0.537188 -0.5658
v 0.140553 -0.165294 0.306865
v 0.012176 0.146559 -1.476764
v 0.140553 0.159477 0.553417
v -0.139766 -0.143682 0.366562
v -0.139766 -0.543473 -0.569183
v 0.056676 -0.256448 -1.484544
v 0.012176 0.146559 -1.476764
v -0.139766 0.132955 0.576588
vn -0.010275 -0.9812731 -0.192348
vn -0.010275 -0.9812731 -0.192348
vn -0.010275 -0.9812731 -0.192348
vn 0.2730069 -0.9531307 -0.130419
vn 0.2730069 -0.9531307 -0.130419
vn 0.2730069 -0.9531307 -0.130419
vn -0.06250401 0.9980431 0.001843
vn -0.06250401 0.9980431 0.001843
vn -0.06250401 0.9980431 0.001843
vn -0.06250401 0.9980431 0.001843
vn -0.06250401 0.9980431 0.001843
vn -0.06250401 0.9980431 0.001843
vn 0.08328198 -0.6547138 0.7512748
vn 0.08328198 -0.6547138 0.7512748
vn 0.08328198 -0.6547138 0.7512748
vn 0.08328198 -0.6547138 0.7512748
vn 0.08328198 -0.6547138 0.7512748
vn 0.08328198 -0.6547138 0.7512748
vn 0.08328198 -0.6547138 0.7512748
vn 0.9940178 0.09373899 -0.05604899
vn 0.9940178 0.09373899 -0.05604899
vn 0.9940178 0.09373899 -0.05604899
vn 0.9940178 0.09373899 -0.05604899
vn 0.9940178 0.09373899 -0.05604899
vn -0.9927068 0.068648 -0.09909898
vn -0.9927068 0.068648 -0.09909898
vn -0.9927068 0.068648 -0.09909898
vn -0.9927068 0.068648 -0.09909898
vn -0.9927068 0.068648 -0.09909898
g Cube_cell_012_0
f 3/3/3 2/2/2 1/1/1
f 6/6/6 5/5/5 4/4/4
f 9/9/9 8/8/8 7/7/7
f 7/7/7 10/10/10 9/9/9
f 9/9/9 10/10/10 11/11/11
f 7/7/7 12/12/12 10/10/10
f 15/15/15 14/14/14 13/13/13
f 13/13/13 16/16/16 15/15/15
f 13/13/13 17/17/17 16/16/16
f 16/16/16 18/18/18 15/15/15
f 18/18/18 19/19/19 15/15/15
f 22/22/22 21/21/21 20/20/20
f 20/20/20 23/23/23 22/22/22
f 23/23/23 24/24/24 22/22/22
f 27/27/27 26/26/26 25/25/25
f 25/25/25 28/28/28 27/27/27
f 25/25/25 29/29/29 28/28/28
