g Cube_cell_066
v -0.078598 0.256847 0.257183
v 0.010654 0.246669 0.23767
v -0.07831 -0.477146 -0.004209
v -0.07831 -0.477146 -0.004209
v 0.02893 0.06186 -0.218336
v -0.077773 0.070817 -0.225957
v 0.010654 0.246669 0.23767
v 0.042989 -0.357765 0.004981
v -0.07831 -0.477146 -0.004209
v -0.07831 -0.477146 -0.004209
v 0.042989 -0.357765 0.004981
v 0.02893 0.06186 -0.218336
v 0.032457 0.078263 -0.215655
v 0.00951 0.244049 0.236969
v 0.048684 -0.404419 -0.022264
v 0.013659 0.277633 0.085518
v -0.078302 0.284053 0.096278
v -0.078302 0.241822 0.264396
v -0.078302 -0.477236 -0.004199
v -0.078302 0.082384 -0.216692
v 0.02893 0.06186 -0.218336
v 0.010654 0.246669 0.23767
v -0.078598 0.256847 0.257183
v -0.077773 0.070817 -0.225957
vn 0.165406 -0.330806 0.92909
vn 0.165406 -0.330806 0.92909
vn 0.165406 -0.330806 0.92909
vn 0.034697 -0.374929 -0.9264039
vn 0.034697 -0.374929 -0.9264039
vn 0.034697 -0.374929 -0.9264039
vn 0.2607559 -0.3346569 0.9055446
vn 0.2607559 -0.3346569 0.9055446
vn 0.2607559 -0.3346569 0.9055446
vn 0.4588781 -0.4053861 -0.7906282
vn 0.4588781 -0.4053861 -0.7906282
vn 0.4588781 -0.4053861 -0.7906282
vn -0.9983381 -0.04695201 -0.033416
vn -0.9983381 -0.04695201 -0.033416
vn -0.9983381 -0.04695201 -0.033416
vn -0.9985633 -0.03957202 -0.03613101
vn -1 0 0
vn -1 0 0
vn -1 0 0
vn -1 0 0
vn 0.06849304 0.9284044 -0.3652042
vn 0.06849304 0.9284044 -0.3652042
vn 0.06849304 0.9284044 -0.3652042
vn 0.06849304 0.9284044 -0.3652042
g Cube_cell_066_0
f 3/3/3 2/2/2 1/1/1
f 6/6/6 5/5/5 4/4/4
f 9/9/9 8/8/8 7/7/7
f 12/12/12 11/11/11 10/10/10
f 15/15/15 14/14/14 13/13/13
f 14/14/14 16/16/16 13/13/13
f 19/19/19 18/18/18 17/17/17
f 20/20/20 19/19/19 17/17/17
f 23/23/23 22/22/22 21/21/21
f 24/24/24 23/23/23 21/21/21
