g Cube_cell_149
v 0 -0.246605 0.046538
v 0 -0.246654 0.089825
v 0 -0.246344 0.300391
v 0 0.046484 -0.378
v 0 -0.068394 0.2116
v 0 -0.04315 0.198938
v 0 -0.000294 0.168289
v 0 0.01692 0.15595
v 0 0.03284 0.144206
v 0 0.081848 0.098817
v 0 0.073539 -0.377402
v 0 0.075059 -0.371642
v 0 0.082119 -0.344475
v 0 0.104831 0.072575
v 0 0.167954 -0.011799
v 0 0.169847 -0.003812
vn 1 0 0
vn 1 0 0
vn 1 0 0
vn 1 0 0
vn 1 0 0
vn 1 0 0
vn 1 0 0
vn 1 0 0
vn 1 0 0
vn 1 0 0
vn 1 0 0
vn 1 0 0
vn 1 0 0
vn 1 0 0
vn 1 0 0
vn 1 0 0
g Cube_cell_149_0
f 3/3/3 2/2/2 1/1/1
f 1/1/1 4/4/4 3/3/3
f 4/4/4 5/5/5 3/3/3
f 4/4/4 6/6/6 5/5/5
f 4/4/4 7/7/7 6/6/6
f 4/4/4 8/8/8 7/7/7
f 4/4/4 9/9/9 8/8/8
f 4/4/4 10/10/10 9/9/9
f 4/4/4 11/11/11 10/10/10
f 11/11/11 12/12/12 10/10/10
f 12/12/12 13/13/13 10/10/10
f 13/13/13 14/14/14 10/10/10
f 13/13/13 15/15/15 14/14/14
f 15/15/15 16/16/16 14/14/14
