g Cube_cell_159
v 0.001309 -0.04359 0.065747
v -0.029456 -0.043921 -0.12972
v -0.027212 0.006401 -0.0824
v 0.02786 0.025752 -0.059755
v 0.032099 -0.043205 -0.117589
v 0.001309 -0.04359 0.065747
v 0.02786 0.025752 -0.059755
v 0.001309 -0.04359 0.065747
v 0.002499 0.066991 0.051211
v 0.023597 0.039309 -0.037507
v -0.028978 -0.036916 -0.128454
v 0.032099 -0.043205 -0.117589
v -0.027212 0.006401 -0.0824
v 0.002499 0.066991 0.051211
v 0.001309 -0.04359 0.065747
v 0.032099 -0.043205 -0.117589
v -0.028978 -0.036916 -0.128454
v -0.00496 -0.043729 0.056337
v 0.0122 -0.043475 0.047761
v 0.023597 0.039309 -0.037507
v 0.008655 0.065614 0.04505
v -0.005272 0.064322 0.047969
v -0.028978 -0.036916 -0.128454
vn -0.9826823 -0.101784 0.1548401
vn -0.9826823 -0.101784 0.1548401
vn -0.9826823 -0.101784 0.1548401
vn 0.9832185 -0.07790696 0.1649599
vn 0.9832185 -0.07790696 0.1649599
vn 0.9832185 -0.07790696 0.1649599
vn 0.9761354 0.01794301 0.2164201
vn 0.9761354 0.01794301 0.2164201
vn 0.9761354 0.01794301 0.2164201
vn 0.194801 0.6933731 -0.6937481
vn 0.194801 0.6933731 -0.6937481
vn 0.194801 0.6933731 -0.6937481
vn -0.9789091 0.036949 0.200927
vn -0.9789091 0.036949 0.200927
vn -0.9789091 0.036949 0.200927
vn -0.07633401 -0.9968961 -0.019267
vn -0.07633401 -0.9968961 -0.019267
vn -0.07633401 -0.9968961 -0.019267
vn -0.07633401 -0.9968961 -0.019267
vn -0.4370799 0.8126549 -0.385426
vn -0.4370799 0.8126549 -0.385426
vn -0.4370799 0.8126549 -0.385426
vn -0.4370799 0.8126549 -0.385426
g Cube_cell_159_0
f 3/3/3 2/2/2 1/1/1
f 6/6/6 5/5/5 4/4/4
f 9/9/9 8/8/8 7/7/7
f 12/12/12 11/11/11 10/10/10
f 15/15/15 14/14/14 13/13/13
f 18/18/18 17/17/17 16/16/16
f 19/19/19 18/18/18 16/16/16
f 22/22/22 21/21/21 20/20/20
f 23/23/23 22/22/22 20/20/20
