g Cube_cell_105
v 0.012284 0.067383 0.571199
v 0.009083 0.17005 0.570305
v -0.001388 0.435045 0.102545
v 0.062523 -0.444668 -0.087483
v -0.025596 -0.41679 -0.048808
v 0.061432 0.12237 0.596334
v 0.011378 0.443339 0.146138
v -0.05034 -0.079519 -0.468099
v 0.062522 -0.100371 -0.509402
v 0.061432 0.12237 0.596334
v 0.00782 0.133735 0.584057
v 0.011378 0.443339 0.146138
v -0.025596 -0.41679 -0.048808
v 0.00782 0.133735 0.584057
v 0.061432 0.12237 0.596334
v -0.05034 -0.079519 -0.468099
v -0.025596 -0.41679 -0.048808
v 0.062523 -0.444668 -0.087483
v 0.062522 -0.100371 -0.509402
v -0.001388 0.435045 0.102545
v -0.049198 -0.089598 -0.49042
v 0.012284 0.067383 0.571199
v -0.030554 -0.434354 -0.073926
v 0.062523 0.121554 0.59801
v 0.062523 0.434978 0.099127
v 0.062523 -0.100528 -0.509154
v 0.062523 -0.444668 -0.087483
vn 0.9995043 0.03112301 -0.004743001
vn 0.9995043 0.03112301 -0.004743001
vn 0.9995043 0.03112301 -0.004743001
vn 0.036619 -0.7692291 0.6379231
vn 0.036619 -0.7692291 0.6379231
vn 0.036619 -0.7692291 0.6379231
vn -0.09324798 0.7627638 -0.6399189
vn -0.09324798 0.7627638 -0.6399189
vn -0.09324798 0.7627638 -0.6399189
vn 0.04077601 0.8157063 0.5770272
vn 0.04077601 0.8157063 0.5770272
vn 0.04077601 0.8157063 0.5770272
vn -0.2966491 -0.7127092 0.6356452
vn -0.2966491 -0.7127092 0.6356452
vn -0.2966491 -0.7127092 0.6356452
vn -0.4006781 -0.7176122 -0.5696402
vn -0.4006781 -0.7176122 -0.5696402
vn -0.4006781 -0.7176122 -0.5696402
vn -0.4006781 -0.7176122 -0.5696402
vn 0.998107 -0.030766 -0.053254
vn 0.998107 -0.030766 -0.053254
vn 0.998107 -0.030766 -0.053254
vn 0.9983497 -0.013456 -0.05582798
vn 1 0 0
vn 1 0 0
vn 1 0 0
vn 1 0 0
g Cube_cell_105_0
f 3/3/3 2/2/2 1/1/1
f 6/6/6 5/5/5 4/4/4
f 9/9/9 8/8/8 7/7/7
f 12/12/12 11/11/11 10/10/10
f 15/15/15 14/14/14 13/13/13
f 18/18/18 17/17/17 16/16/16
f 19/19/19 18/18/18 16/16/16
f 22/22/22 21/21/21 20/20/20
f 21/21/21 22/22/22 23/23/23
f 26/26/26 25/25/25 24/24/24
f 27/27/27 26/26/26 24/24/24
