g Cube_cell_057
v 0.006158 0.19083 -0.103444
v 0.016815 -0.069404 -0.21064
v 0.053889 0.192754 0.240264
v -0.031059 0.183136 0.211867
v 0.059265 -0.135392 0.314922
v -0.036304 0.073587 0.271793
v -0.113586 -0.133751 -0.199708
v -0.131308 0.183859 -0.601871
v -0.129549 -0.229953 0.075712
v -0.029769 0.188669 0.224325
v -0.035818 -0.045422 0.282332
v -0.042752 -0.210325 0.235058
v -0.131308 0.183859 -0.601871
v 0.1486 0.128563 -0.58023
v 0.148218 0.195009 0.269448
v 0.149037 -0.051982 0.273445
v 0.058781 -0.127125 0.313026
v 0.148218 0.195009 0.269448
v -0.036304 0.073587 0.271793
v -0.129549 -0.229953 0.075712
v -0.13555 0.12383 0.251094
v -0.031059 0.183136 0.211867
v 0.014336 0.191043 -0.102624
v 0.059265 -0.135392 0.314922
v 0.149036 -0.036543 0.286059
v 0.149037 0.197742 0.263435
v 0.149037 0.153718 -0.606978
v 0.1486 0.128563 -0.58023
v -0.131308 0.183859 -0.601871
v -0.113586 -0.133751 -0.199708
v -0.042752 -0.210325 0.235058
v 0.016815 -0.069404 -0.21064
v 0.006158 0.19083 -0.103444
v -0.029769 0.188669 0.224325
v 0.016815 -0.069404 -0.21064
v 0.053212 9.1E-05 0.291444
v 0.053889 0.192754 0.240264
v 0.053721 -0.13119 0.255079
v -0.131283 -0.094159 0.272481
v -0.131283 -0.267986 0.22419
v -0.131283 -0.14819 -0.140126
v -0.131283 0.183808 -0.599456
v -0.131283 0.183624 0.201494
v 0.009877 -0.069926 -0.20431
v 0.058781 -0.127125 0.313026
v 0.149037 -0.051982 0.273445
v 0.1486 0.128563 -0.58023
vn 0.9857512 0.09698302 -0.137436
vn 0.9857512 0.09698302 -0.137436
vn 0.9857512 0.09698302 -0.137436
vn 0.5141978 0.3925288 0.7625757
vn 0.5141978 0.3925288 0.7625757
vn 0.5141978 0.3925288 0.7625757
vn -0.9654132 -0.223618 -0.134061
vn -0.9654132 -0.223618 -0.134061
vn -0.9654132 -0.223618 -0.134061
vn -0.9989856 0.03331999 0.03029099
vn -0.9989856 0.03331999 0.03029099
vn -0.9989856 0.03331999 0.03029099
vn 0.1989171 0.9770403 -0.07631702
vn 0.1989171 0.9770403 -0.07631702
vn 0.1989171 0.9770403 -0.07631702
vn 0.3902222 0.01619301 0.9205783
vn 0.3902222 0.01619301 0.9205783
vn 0.3902222 0.01619301 0.9205783
vn -0.3824937 -0.4155777 0.8252234
vn -0.3824937 -0.4155777 0.8252234
vn -0.3824937 -0.4155777 0.8252234
vn 0.9389801 0.312656 0.143396
vn 0.9389801 0.312656 0.143396
vn 0.9389801 0.312656 0.143396
vn 1 0 0
vn 1 0 0
vn 1 0 0
vn -0.107178 -0.782547 -0.613297
vn -0.107178 -0.782547 -0.613297
vn -0.107178 -0.782547 -0.613297
vn -0.991617 0.01237 -0.128618
vn -0.991617 0.01237 -0.128618
vn -0.991617 0.01237 -0.128618
vn -0.9936373 0.02940701 -0.10872
vn 0.9973575 -0.02190799 -0.06926696
vn 0.9973575 -0.02190799 -0.06926696
vn 0.9973575 -0.02190799 -0.06926696
vn 0.9968215 0.02483499 -0.07569797
vn -1 0 0
vn -1 0 0
vn -1 0 0
vn -1 0 0
vn -1 0 0
vn 0.6293451 -0.7615702 -0.154711
vn 0.6293451 -0.7615702 -0.154711
vn 0.6293451 -0.7615702 -0.154711
vn 0.6293451 -0.7615702 -0.154711
g Cube_cell_057_0
f 3/3/3 2/2/2 1/1/1
f 6/6/6 5/5/5 4/4/4
f 9/9/9 8/8/8 7/7/7
f 12/12/12 11/11/11 10/10/10
f 15/15/15 14/14/14 13/13/13
f 18/18/18 17/17/17 16/16/16
f 21/21/21 20/20/20 19/19/19
f 24/24/24 23/23/23 22/22/22
f 27/27/27 26/26/26 25/25/25
f 30/30/30 29/29/29 28/28/28
f 33/33/33 32/32/32 31/31/31
f 31/31/31 34/34/34 33/33/33
f 37/37/37 36/36/36 35/35/35
f 36/36/36 38/38/38 35/35/35
f 41/41/41 40/40/40 39/39/39
f 39/39/39 42/42/42 41/41/41
f 39/39/39 43/43/43 42/42/42
f 46/46/46 45/45/45 44/44/44
f 47/47/47 46/46/46 44/44/44
