g Cube_cell_024
v -0.127143 -0.168814 0.083025
v -0.035721 -0.182968 -0.236977
v -0.143489 0.126899 -0.139813
v 0.126379 0.140991 0.081521
v 0.136325 -0.034694 0.120663
v 0.028547 -0.11252 0.066342
v -0.035962 -0.153779 -0.288309
v 0.045303 -0.200376 -0.197625
v 0.049756 0.20674 -0.049586
v 0.028547 -0.11252 0.066342
v 0.129069 0.018786 -0.059308
v 0.049756 0.20674 -0.049586
v -0.035721 -0.182968 -0.236977
v -0.03238 0.201849 0.077154
v -0.143489 0.126899 -0.139813
v 0.049756 0.20674 -0.049586
v -0.03238 0.201849 0.077154
v -0.035962 -0.153779 -0.288309
v 0.028547 -0.11252 0.066342
v 0.136325 -0.034694 0.120663
v 0.129069 0.018786 -0.059308
v -0.03238 0.201849 0.077154
v -0.12532 0.18546 0.07935
v -0.143489 0.126899 -0.139813
v -0.127143 -0.168814 0.083025
v -0.019269 -0.150171 0.090234
v -0.035721 -0.182968 -0.236977
v -0.019269 -0.150171 0.090234
v 0.028547 -0.11252 0.066342
v 0.045303 -0.200376 -0.197625
v -0.019269 -0.150171 0.090234
v 0.045303 -0.200376 -0.197625
v -0.035962 -0.153779 -0.288309
v -0.018274 -0.099671 0.125512
v -0.023582 -0.240212 -0.044701
v -0.027155 0.149196 0.1265
v -0.036184 0.209644 -0.045894
v -0.035934 -0.154018 -0.288486
v 0.036075 -0.232638 -0.051479
v 0.031043 -0.091218 0.121651
v 0.039342 0.13816 0.121176
v 0.048833 0.205745 -0.052524
v 0.048206 -0.146793 -0.287751
v -0.019269 -0.150171 0.090234
v -0.14168 -0.009664 -0.005298
v 0.126379 0.140991 0.081521
v 0.028547 -0.11252 0.066342
v 0.146181 -0.217869 -0.06516
v 0.146181 0.041918 0.131014
v 0.146181 0.186295 -0.063007
v 0.146181 -0.13835 -0.286959
v 0.049756 0.20674 -0.049586
v 0.129069 0.018786 -0.059308
v 0.134978 0.145153 0.084813
v -0.03238 0.201849 0.077154
v -0.134139 -0.119 0.134851
v -0.134139 -0.254941 -0.031128
v -0.134139 -0.162492 -0.289257
v -0.134139 0.230928 -0.024477
v -0.134139 0.166857 0.135131
vn -0.9350721 -0.244834 -0.256313
vn -0.9350721 -0.244834 -0.256313
vn -0.9350721 -0.244834 -0.256313
vn -0.5317801 0.155376 0.8325072
vn -0.5317801 0.155376 0.8325072
vn -0.5317801 0.155376 0.8325072
vn 0.7790449 0.206716 -0.5919099
vn 0.7790449 0.206716 -0.5919099
vn 0.7790449 0.206716 -0.5919099
vn -0.6303723 -0.2276171 -0.7421734
vn -0.6303723 -0.2276171 -0.7421734
vn -0.6303723 -0.2276171 -0.7421734
vn 0.7396681 0.421701 -0.524461
vn 0.7396681 0.421701 -0.524461
vn 0.7396681 0.421701 -0.524461
vn -0.743099 0.483217 -0.462931
vn -0.743099 0.483217 -0.462931
vn -0.743099 0.483217 -0.462931
vn 0.645139 -0.724919 -0.241429
vn 0.645139 -0.724919 -0.241429
vn 0.645139 -0.724919 -0.241429
vn -0.1740689 0.9548606 -0.2407099
vn -0.1740689 0.9548606 -0.2407099
vn -0.1740689 0.9548606 -0.2407099
vn 0.16374 -0.9823683 0.09023202
vn 0.16374 -0.9823683 0.09023202
vn 0.16374 -0.9823683 0.09023202
vn 0.6754439 -0.6857619 0.27112
vn 0.6754439 -0.6857619 0.27112
vn 0.6754439 -0.6857619 0.27112
vn -0.5231518 -0.8516687 0.03118599
vn -0.5231518 -0.8516687 0.03118599
vn -0.5231518 -0.8516687 0.03118599
vn -0.9975126 -0.03583799 0.06069897
vn -0.9987062 -0.02786401 0.04253701
vn -0.9987062 -0.02786401 0.04253701
vn -0.9987062 -0.02786401 0.04253701
vn -0.9987807 -0.02787099 0.04074799
vn 0.9986424 -0.02895801 0.04329902
vn 0.997646 -0.035972 0.058381
vn 0.9986424 -0.02895801 0.04329902
vn 0.9986424 -0.02895801 0.04329902
vn 0.9987493 -0.02896801 0.04075401
vn -0.2909849 0.1737149 0.9408246
vn -0.2909849 0.1737149 0.9408246
vn -0.2909849 0.1737149 0.9408246
vn -0.2909849 0.1737149 0.9408246
vn 1 0 0
vn 1 0 0
vn 1 0 0
vn 1 0 0
vn 0.6986181 0.7054021 -0.119753
vn 0.6986181 0.7054021 -0.119753
vn 0.6986181 0.7054021 -0.119753
vn 0.6986181 0.7054021 -0.119753
vn -1 0 0
vn -1 0 0
vn -1 0 0
vn -1 0 0
vn -1 0 0
g Cube_cell_024_0
f 3/3/3 2/2/2 1/1/1
f 6/6/6 5/5/5 4/4/4
f 9/9/9 8/8/8 7/7/7
f 12/12/12 11/11/11 10/10/10
f 15/15/15 14/14/14 13/13/13
f 18/18/18 17/17/17 16/16/16
f 21/21/21 20/20/20 19/19/19
f 24/24/24 23/23/23 22/22/22
f 27/27/27 26/26/26 25/25/25
f 30/30/30 29/29/29 28/28/28
f 33/33/33 32/32/32 31/31/31
f 36/36/36 35/35/35 34/34/34
f 37/37/37 35/35/35 36/36/36
f 38/38/38 35/35/35 37/37/37
f 41/41/41 40/40/40 39/39/39
f 41/41/41 39/39/39 42/42/42
f 43/43/43 42/42/42 39/39/39
f 46/46/46 45/45/45 44/44/44
f 47/47/47 46/46/46 44/44/44
f 50/50/50 49/49/49 48/48/48
f 51/51/51 50/50/50 48/48/48
f 54/54/54 53/53/53 52/52/52
f 55/55/55 54/54/54 52/52/52
f 58/58/58 57/57/57 56/56/56
f 56/56/56 59/59/59 58/58/58
f 56/56/56 60/60/60 59/59/59
