g Curve_Wall
v -10.10873 0.210016 10.43577
v -10.10873 0.2100161 2.959685
v -10.10873 0.01884464 10.43577
v -10.10873 0.0188447 2.959685
v 10.10873 0.01884459 10.43579
v 10.10873 0.01884467 2.959689
v 10.10873 0.210016 10.43579
v 10.10873 0.2100161 2.959688
v 2.941585 0.01884464 10.43578
v 10.13373 0.01884464 10.43579
v 10.13373 0.9698933 10.43579
v 2.941585 0.9698933 10.43578
v 10.13373 1.688064 10.43579
v 2.941585 1.688064 10.43578
v 10.13373 3.578634 10.17815
v 2.941585 3.578634 10.17814
v 10.13373 4.027575 9.948221
v 2.941585 4.027575 9.948214
v 10.13373 5.483439 9.202595
v 2.941585 5.483439 9.202588
v 10.13373 6.91195 7.774086
v 2.941585 6.91195 7.774078
v -2.941589 4.027575 9.948202
v -2.941589 5.483439 9.202579
v -2.941589 6.91195 7.774067
v -10.13373 5.483439 9.202573
v -10.13373 6.91195 7.774061
v -10.13373 4.027575 9.9482
v -10.13373 3.578634 10.17813
v -2.941589 3.578634 10.17813
v -10.13373 1.688064 10.43577
v -2.941589 1.688064 10.43577
v -10.13373 0.9698933 10.43577
v -2.941589 0.9698933 10.43577
v -10.13373 0.01884464 10.43577
v -2.941589 0.01884464 10.43577
v 10.13373 6.91195 7.774086
v 10.13373 7.829111 5.974059
v 2.941585 6.91195 7.774078
v 2.941585 7.829111 5.97405
v 10.13373 8.145144 3.978715
v -2.941589 6.91195 7.774067
v 2.941585 8.145144 3.978705
v -2.941589 7.829111 5.974039
v -10.13373 6.91195 7.774061
v -2.941589 8.145144 3.97869
v -10.13373 7.829111 5.974034
v -10.13373 8.145144 3.978688
v 10.13373 0.210016 10.43579
v 10.13373 0.2100161 2.954904
v 10.13373 0.9698933 10.43579
v 10.13373 0.9698935 2.954902
v 10.13373 8.178711 2.954902
v 10.13373 8.17871 10.43579
v -10.13373 0.2100161 2.954902
v -10.13373 0.210016 10.43577
v -10.13373 0.9698933 10.43577
v -10.13373 0.9698935 2.954902
v -10.13373 8.17871 10.43577
v -10.13373 8.178711 2.954902
v 10.13373 0.2100161 2.954904
v 10.13373 0.210016 10.43579
v 10.10873 0.2100161 2.959688
v 10.10873 0.210016 10.43579
v -10.13373 0.2100161 2.954902
v -10.10873 0.2100161 2.959685
v -10.13373 0.210016 10.43577
v -10.10873 0.210016 10.43577
v -10.10873 0.210016 -10.43577
v -10.10873 0.01884464 -10.43577
v -10.10873 0.2100161 -2.959685
v -10.10873 0.0188447 -2.959685
v 10.10873 0.01884459 -10.43579
v 10.10873 0.210016 -10.43579
v 10.10873 0.01884467 -2.959689
v 10.10873 0.2100161 -2.959688
v 10.13373 0.9698933 -10.43579
v 10.13373 0.01884464 -10.43579
v 2.941585 0.01884464 -10.43578
v 2.941585 0.9698933 -10.43578
v 10.13373 1.688064 -10.43579
v 2.941585 1.688064 -10.43578
v 10.13373 3.578634 -10.17815
v 2.941585 3.578634 -10.17814
v 10.13373 4.027575 -9.948221
v 2.941585 4.027575 -9.948214
v 10.13373 5.483439 -9.202595
v 2.941585 5.483439 -9.202588
v 10.13373 6.91195 -7.774086
v 2.941585 6.91195 -7.774078
v -2.941589 4.027575 -9.948202
v -2.941589 5.483439 -9.202579
v -2.941589 6.91195 -7.774067
v -10.13373 5.483439 -9.202573
v -10.13373 6.91195 -7.774061
v -10.13373 4.027575 -9.9482
v -10.13373 3.578634 -10.17813
v -2.941589 3.578634 -10.17813
v -10.13373 1.688064 -10.43577
v -2.941589 1.688064 -10.43577
v -10.13373 0.9698933 -10.43577
v -2.941589 0.9698933 -10.43577
v -10.13373 0.01884464 -10.43577
v -2.941589 0.01884464 -10.43577
v 10.13373 6.91195 -7.774086
v 2.941585 6.91195 -7.774078
v 10.13373 7.829111 -5.974059
v 2.941585 7.829111 -5.97405
v 10.13373 8.145144 -3.978715
v -2.941589 6.91195 -7.774067
v 2.941585 8.145144 -3.978705
v -2.941589 7.829111 -5.974039
v -10.13373 6.91195 -7.774061
v -2.941589 8.145144 -3.97869
v -10.13373 7.829111 -5.974034
v -10.13373 8.145144 -3.978688
v 10.13373 0.210016 -10.43579
v 10.13373 0.9698933 -10.43579
v 10.13373 0.2100161 -2.954904
v 10.13373 0.9698935 -2.954902
v 10.13373 8.178711 -2.954902
v 10.13373 8.17871 -10.43579
v -10.13373 0.9698933 -10.43577
v -10.13373 0.210016 -10.43577
v -10.13373 0.2100161 -2.954902
v -10.13373 0.9698935 -2.954902
v -10.13373 8.17871 -10.43577
v -10.13373 8.178711 -2.954902
v 10.13373 0.2100161 -2.954904
v 10.10873 0.2100161 -2.959688
v 10.13373 0.210016 -10.43579
v 10.10873 0.210016 -10.43579
v -10.13373 0.2100161 -2.954902
v -10.13373 0.210016 -10.43577
v -10.10873 0.2100161 -2.959685
v -10.10873 0.210016 -10.43577
vt 0.6564968 0.2709556
vt 0.8848 0.2709556
vt 0.6564968 0.2648937
vt 0.8848 0.2648937
vt 0.6564968 0.2527258
vt 0.8848009 0.2527259
vt 0.6564968 0.2587877
vt 0.8848009 0.2587877
vt 0.4220056 0.2365872
vt 0.6541184 0.2365872
vt 0.6541184 0.2692229
vt 0.4220056 0.2692229
vt 0.6541184 0.2938673
vt 0.4220056 0.2938673
vt 0.6541184 0.3587433
vt 0.4220056 0.3587433
vt 0.6541184 0.374149
vt 0.4220056 0.374149
vt 0.6541184 0.4241078
vt 0.4220056 0.4241078
vt 0.6541184 0.4731279
vt 0.4220056 0.4731279
vt 0.2321372 0.374149
vt 0.2321372 0.4241078
vt 0.2321372 0.4731279
vt 2.441406E-05 0.4241078
vt 2.441406E-05 0.4731279
vt 2.441406E-05 0.374149
vt 2.441406E-05 0.3587433
vt 0.2321372 0.3587433
vt 2.441406E-05 0.2938673
vt 0.2321372 0.2938673
vt 2.441406E-05 0.2692229
vt 0.2321372 0.2692229
vt 2.441406E-05 0.2365872
vt 0.2321372 0.2365872
vt 0.5786108 0.6102226
vt 0.5786108 0.6752214
vt 0.3732927 0.6102229
vt 0.3732927 0.6752218
vt 0.5786108 0.7472731
vt 0.2053424 0.6102234
vt 0.3732927 0.7472735
vt 0.2053424 0.6752222
vt 2.441406E-05 0.6102235
vt 0.2053424 0.747274
vt 2.441406E-05 0.6752223
vt 2.441406E-05 0.7472742
vt 0.5788495 0.47315
vt 0.8072999 0.47315
vt 0.5788495 0.4972449
vt 0.8073 0.4972449
vt 0.8073 0.7258293
vt 0.5788495 0.7258293
vt 0.8072992 0.7258514
vt 0.5788495 0.7258514
vt 0.5788495 0.7499464
vt 0.8072992 0.7499464
vt 0.5788495 0.9785308
vt 0.8072992 0.9785308
vt 0.8973085 0.2233077
vt 0.8973085 2.441406E-05
vt 0.8964974 0.2231649
vt 0.8964974 2.441406E-05
vt 0.8894386 0.2233189
vt 0.8902496 0.2231762
vt 0.8894386 2.441406E-05
vt 0.8902496 2.441406E-05
vt 0.6564968 0.2770395
vt 0.6564968 0.2709776
vt 0.8848 0.2770395
vt 0.8848 0.2709776
vt 0.6564968 0.2588098
vt 0.6564968 0.2648717
vt 0.8848009 0.2588098
vt 0.8848009 0.2648717
vt 0.6541184 0.03266016
vt 0.6541184 2.441406E-05
vt 0.4220056 2.441406E-05
vt 0.4220056 0.03266016
vt 0.6541184 0.05730458
vt 0.4220056 0.05730458
vt 0.6541184 0.1221805
vt 0.4220056 0.1221805
vt 0.6541184 0.1375862
vt 0.4220056 0.1375862
vt 0.6541184 0.187545
vt 0.4220056 0.187545
vt 0.6541184 0.2365651
vt 0.4220056 0.2365651
vt 0.2321372 0.1375862
vt 0.2321372 0.187545
vt 0.2321372 0.2365651
vt 2.441406E-05 0.187545
vt 2.441406E-05 0.2365651
vt 2.441406E-05 0.1375862
vt 2.441406E-05 0.1221805
vt 0.2321372 0.1221805
vt 2.441406E-05 0.05730458
vt 0.2321372 0.05730458
vt 2.441406E-05 0.03266016
vt 0.2321372 0.03266016
vt 2.441406E-05 2.441406E-05
vt 0.2321372 2.441406E-05
vt 0.5786108 0.47315
vt 0.3732927 0.4731502
vt 0.5786108 0.5381488
vt 0.3732927 0.5381491
vt 0.5786108 0.6102004
vt 0.2053424 0.4731506
vt 0.3732927 0.6102008
vt 0.2053424 0.5381495
vt 2.441406E-05 0.4731508
vt 0.2053424 0.6102013
vt 2.441406E-05 0.5381497
vt 2.441406E-05 0.6102014
vt 0.6564968 2.441406E-05
vt 0.6564968 0.02411936
vt 0.8849472 2.441406E-05
vt 0.8849473 0.02411936
vt 0.8849473 0.2527038
vt 0.6564968 0.2527038
vt 2.441406E-05 0.7713912
vt 2.441406E-05 0.7472962
vt 0.2284741 0.7472962
vt 0.2284741 0.7713912
vt 2.441406E-05 0.9999756
vt 0.2284741 0.9999756
vt 0.8867229 0.224039
vt 0.8859092 0.2238958
vt 0.8867229 2.441406E-05
vt 0.8859092 2.441406E-05
vt 0.8929681 0.2233189
vt 0.8929681 2.441406E-05
vt 0.893779 0.2231762
vt 0.893779 2.441406E-05
vn 1 0 0
vn 1 0 0
vn 1 0 0
vn 1 0 0
vn -1 0 0
vn -1 8.603693E-06 0
vn -1 1.423533E-07 0
vn -1 8.746046E-06 0
vn 6.852991E-07 0 -1
vn 6.852991E-07 0 -1
vn 6.451557E-07 0 -1
vn 6.451555E-07 0 -1
vn 6.439171E-07 -0.09829786 -0.9951571
vn 6.439219E-07 -0.0982917 -0.9951577
vn 8.014532E-07 -0.2040057 -0.9789698
vn 7.66424E-07 -0.2040244 -0.9789658
vn 9.619899E-07 -0.4558463 -0.8900585
vn 1.10662E-06 -0.4558472 -0.890058
vn 8.429369E-07 -0.6019116 -0.7985627
vn 1.837361E-06 -0.6019123 -0.7985622
vn 5.811045E-07 -0.8090168 -0.5877856
vn 8.057474E-07 -0.8090169 -0.5877854
vn 6.361797E-07 -0.4558458 -0.8900589
vn -6.419023E-07 -0.6019102 -0.7985638
vn 8.01618E-07 -0.809017 -0.5877852
vn 5.764848E-07 -0.6019316 -0.7985476
vn 4.674802E-07 -0.809017 -0.5877852
vn 4.620865E-07 -0.4558467 -0.8900583
vn 4.301829E-07 -0.2040229 -0.9789661
vn 3.993018E-06 -0.204006 -0.9789697
vn 5.296162E-07 -0.09829126 -0.9951577
vn 5.300868E-07 -0.09829846 -0.9951569
vn 6.45156E-07 0 -1
vn 6.45156E-07 0 -1
vn 6.852998E-07 0 -1
vn 6.852996E-07 0 -1
vn 5.811045E-07 -0.8090168 -0.5877856
vn 3.565419E-07 -0.9510562 -0.3090177
vn 8.057474E-07 -0.8090169 -0.5877854
vn 4.782665E-07 -0.9510564 -0.3090175
vn 2.063214E-07 -0.9876881 -0.1564357
vn 8.01618E-07 -0.809017 -0.5877852
vn 2.708088E-07 -0.9876881 -0.1564356
vn 4.47364E-07 -0.9510564 -0.3090175
vn 4.674802E-07 -0.809017 -0.5877852
vn 2.368912E-07 -0.9876882 -0.1564354
vn 1.624449E-07 -0.9510562 -0.3090178
vn 0 -0.9876881 -0.1564356
vn -1 0 0
vn -1 0 0
vn -1 0 0
vn -1 1.099468E-06 0
vn -1 0 0
vn -1 0 0
vn 1 0 0
vn 1 0 0
vn 1 0 0
vn 1 0 0
vn 1 0 0
vn 1 0 0
vn -7.610279E-07 1 0
vn -7.610279E-07 1 0
vn -7.610279E-07 1 0
vn -1.5259E-06 1 0
vn 0 1 0
vn 0 1 0
vn 0 1 0
vn 0 1 0
vn 1 0 0
vn 1 0 0
vn 1 0 0
vn 1 0 0
vn -1 0 0
vn -1 0 0
vn -1 4.467289E-06 0
vn -1 4.541203E-06 0
vn 6.451558E-07 0 1
vn 6.852991E-07 0 1
vn 6.852991E-07 0 1
vn 6.451555E-07 0 1
vn 6.492949E-07 -0.09829786 0.9951571
vn 6.439171E-07 -0.09829171 0.9951577
vn 7.664202E-07 -0.2040057 0.9789697
vn -3.333264E-05 -0.2040244 0.9789658
vn 9.619899E-07 -0.4558463 0.8900585
vn 1.10662E-06 -0.4558472 0.890058
vn 1.476522E-06 -0.6019116 0.7985627
vn 2.653125E-06 -0.6019123 0.7985622
vn 5.811045E-07 -0.8090168 0.5877856
vn 8.057474E-07 -0.8090168 0.5877855
vn 6.361798E-07 -0.4558458 0.8900589
vn 1.738779E-06 -0.6019102 0.7985638
vn 8.016181E-07 -0.809017 0.5877852
vn 5.749291E-07 -0.6019316 0.7985476
vn 4.674802E-07 -0.809017 0.5877852
vn 4.620865E-07 -0.4558466 0.8900583
vn 3.829686E-05 -0.2040229 0.9789661
vn 2.259885E-07 -0.204006 0.9789697
vn 5.300872E-07 -0.09829126 0.9951577
vn -1.302707E-05 -0.09829845 0.9951569
vn 6.45156E-07 0 1
vn 6.45156E-07 0 1
vn 6.852998E-07 0 1
vn 6.852996E-07 0 1
vn 5.811045E-07 -0.8090168 0.5877856
vn 8.057474E-07 -0.8090168 0.5877855
vn 3.565419E-07 -0.9510562 0.3090177
vn 4.782666E-07 -0.9510564 0.3090176
vn 2.063214E-07 -0.9876881 0.1564357
vn 8.016181E-07 -0.809017 0.5877852
vn 2.708088E-07 -0.9876881 0.1564356
vn 4.47364E-07 -0.9510564 0.3090174
vn 4.674802E-07 -0.809017 0.5877852
vn 2.368912E-07 -0.9876882 0.1564354
vn 1.624449E-07 -0.9510562 0.3090178
vn 0 -0.9876881 0.1564356
vn -1 0 0
vn -1 0 0
vn -1 1.124691E-06 0
vn -1 6.010808E-07 0
vn -1 0 0
vn -1 0 0
vn 1 0 0
vn 1 0 0
vn 1 0 0
vn 1 0 0
vn 1 0 0
vn 1 0 0
vn -7.610279E-07 1 0
vn -7.624905E-07 1 0
vn -1.524262E-06 1 0
vn -1.5259E-06 1 0
vn 0 1 0
vn 0 1 0
vn 0 1 0
vn 0 1 0
g Curve_Wall_0
f 3/3/3 2/2/2 1/1/1
f 3/3/3 4/4/4 2/2/2
f 7/7/7 6/6/6 5/5/5
f 7/7/7 8/8/8 6/6/6
f 11/11/11 10/10/10 9/9/9
f 11/11/11 9/9/9 12/12/12
f 13/13/13 11/11/11 12/12/12
f 13/13/13 12/12/12 14/14/14
f 14/14/14 15/15/15 13/13/13
f 14/14/14 16/16/16 15/15/15
f 16/16/16 17/17/17 15/15/15
f 16/16/16 18/18/18 17/17/17
f 18/18/18 19/19/19 17/17/17
f 18/18/18 20/20/20 19/19/19
f 20/20/20 21/21/21 19/19/19
f 20/20/20 22/22/22 21/21/21
f 20/20/20 18/18/18 23/23/23
f 22/22/22 20/20/20 24/24/24
f 20/20/20 23/23/23 24/24/24
f 22/22/22 24/24/24 25/25/25
f 25/25/25 24/24/24 26/26/26
f 25/25/25 26/26/26 27/27/27
f 24/24/24 28/28/28 26/26/26
f 24/24/24 23/23/23 28/28/28
f 23/23/23 29/29/29 28/28/28
f 23/23/23 30/30/30 29/29/29
f 30/30/30 31/31/31 29/29/29
f 30/30/30 32/32/32 31/31/31
f 32/32/32 33/33/33 31/31/31
f 32/32/32 34/34/34 33/33/33
f 34/34/34 35/35/35 33/33/33
f 34/34/34 36/36/36 35/35/35
f 39/39/39 38/38/38 37/37/37
f 39/39/39 40/40/40 38/38/38
f 40/40/40 41/41/41 38/38/38
f 40/40/40 39/39/39 42/42/42
f 40/40/40 43/43/43 41/41/41
f 40/40/40 42/42/42 44/44/44
f 43/43/43 40/40/40 44/44/44
f 44/44/44 42/42/42 45/45/45
f 43/43/43 44/44/44 46/46/46
f 44/44/44 45/45/45 47/47/47
f 46/46/46 44/44/44 47/47/47
f 46/46/46 47/47/47 48/48/48
f 51/51/51 50/50/50 49/49/49
f 51/51/51 52/52/52 50/50/50
f 51/51/51 53/53/53 52/52/52
f 51/51/51 54/54/54 53/53/53
f 57/57/57 56/56/56 55/55/55
f 57/57/57 55/55/55 58/58/58
f 58/58/58 59/59/59 57/57/57
f 58/58/58 60/60/60 59/59/59
f 63/63/63 62/62/62 61/61/61
f 64/64/64 62/62/62 63/63/63
f 67/67/67 66/66/66 65/65/65
f 67/67/67 68/68/68 66/66/66
f 71/71/71 70/70/70 69/69/69
f 71/71/71 72/72/72 70/70/70
f 75/75/75 74/74/74 73/73/73
f 75/75/75 76/76/76 74/74/74
f 79/79/79 78/78/78 77/77/77
f 79/79/79 77/77/77 80/80/80
f 80/80/80 77/77/77 81/81/81
f 80/80/80 81/81/81 82/82/82
f 83/83/83 82/82/82 81/81/81
f 83/83/83 84/84/84 82/82/82
f 85/85/85 84/84/84 83/83/83
f 85/85/85 86/86/86 84/84/84
f 87/87/87 86/86/86 85/85/85
f 87/87/87 88/88/88 86/86/86
f 89/89/89 88/88/88 87/87/87
f 89/89/89 90/90/90 88/88/88
f 91/91/91 86/86/86 88/88/88
f 92/92/92 88/88/88 90/90/90
f 91/91/91 88/88/88 92/92/92
f 92/92/92 90/90/90 93/93/93
f 94/94/94 92/92/92 93/93/93
f 94/94/94 93/93/93 95/95/95
f 96/96/96 92/92/92 94/94/94
f 96/96/96 91/91/91 92/92/92
f 97/97/97 91/91/91 96/96/96
f 97/97/97 98/98/98 91/91/91
f 99/99/99 98/98/98 97/97/97
f 99/99/99 100/100/100 98/98/98
f 101/101/101 100/100/100 99/99/99
f 101/101/101 102/102/102 100/100/100
f 103/103/103 102/102/102 101/101/101
f 103/103/103 104/104/104 102/102/102
f 107/107/107 106/106/106 105/105/105
f 107/107/107 108/108/108 106/106/106
f 109/109/109 108/108/108 107/107/107
f 110/110/110 106/106/106 108/108/108
f 109/109/109 111/111/111 108/108/108
f 110/110/110 108/108/108 112/112/112
f 112/112/112 108/108/108 111/111/111
f 113/113/113 110/110/110 112/112/112
f 112/112/112 111/111/111 114/114/114
f 113/113/113 112/112/112 115/115/115
f 115/115/115 112/112/112 114/114/114
f 115/115/115 114/114/114 116/116/116
f 119/119/119 118/118/118 117/117/117
f 119/119/119 120/120/120 118/118/118
f 121/121/121 118/118/118 120/120/120
f 121/121/121 122/122/122 118/118/118
f 125/125/125 124/124/124 123/123/123
f 125/125/125 123/123/123 126/126/126
f 127/127/127 126/126/126 123/123/123
f 127/127/127 128/128/128 126/126/126
f 131/131/131 130/130/130 129/129/129
f 132/132/132 130/130/130 131/131/131
f 135/135/135 134/134/134 133/133/133
f 135/135/135 136/136/136 134/134/134
