g Curve_Wall
v 10.10873 0.01884459 -10.43579
v 10.10873 0.210016 -10.43579
v 10.10873 0.01884467 -2.959689
v 10.10873 0.2100161 -2.959688
v 10.13373 0.210016 -10.43579
v 10.13373 0.9698933 -10.43579
v 10.13373 0.2100161 -2.954904
v 10.13373 0.9698935 -2.954902
v 10.13373 8.178711 -2.954902
v 10.13373 8.17871 -10.43579
v 10.13373 0.2100161 -2.954904
v 10.10873 0.2100161 -2.959688
v 10.13373 0.210016 -10.43579
v 10.10873 0.210016 -10.43579
vt 0.6564968 0.2588098
vt 0.6564968 0.2648717
vt 0.8848009 0.2588098
vt 0.8848009 0.2648717
vt 0.6564968 2.441406E-05
vt 0.6564968 0.02411936
vt 0.8849472 2.441406E-05
vt 0.8849473 0.02411936
vt 0.8849473 0.2527038
vt 0.6564968 0.2527038
vt 0.8867229 0.224039
vt 0.8859092 0.2238958
vt 0.8867229 2.441406E-05
vt 0.8859092 2.441406E-05
vn -1 0 0
vn -1 0 0
vn -1 4.467289E-06 0
vn -1 4.541203E-06 0
vn -1 0 0
vn -1 0 0
vn -1 1.124691E-06 0
vn -1 6.010808E-07 0
vn -1 0 0
vn -1 0 0
vn -7.610279E-07 1 0
vn -7.624905E-07 1 0
vn -1.524262E-06 1 0
vn -1.5259E-06 1 0
g Curve_Wall_0
f 3/3/3 2/2/2 1/1/1
f 3/3/3 4/4/4 2/2/2
f 7/7/7 6/6/6 5/5/5
f 7/7/7 8/8/8 6/6/6
f 9/9/9 6/6/6 8/8/8
f 9/9/9 10/10/10 6/6/6
f 13/13/13 12/12/12 11/11/11
f 14/14/14 12/12/12 13/13/13
