g default
v 9.055254 3.602968 -9.436526
v -19.502 3.602968 -9.436526
v 19.5021 3.602968 -9.436526
v 19.5021 0.01901436 7.949467
v -19.502 0.01901436 7.949467
v 19.5021 1.086575 7.835085
v 9.055254 1.086575 7.873211
v -19.502 1.086575 7.873211
v 7.22515 1.467846 5.166182
v 18.54892 1.467846 5.166182
v 10.84723 1.467846 5.166182
v 10.84723 3.183569 -6.310098
v 19.5021 3.602968 -9.436526
v 19.5021 0.01901436 7.949467
v 19.5021 2.34477 -9.436526
v 18.2439 1.963499 4.861164
v 11.15225 1.963499 4.861164
v 18.2439 3.56484 -5.700063
v 18.54892 3.183569 -6.310098
v 9.055254 3.602968 -9.436526
v 11.15225 3.56484 -5.700063
v 7.22515 3.183569 -6.310098
v -17.71002 3.183569 -6.348225
v -19.502 3.602968 -9.436526
v -19.502 2.306644 -9.436526
v -19.502 0.01901436 7.949467
v -17.74815 1.467846 5.166182
v 6.500733 3.602968 -5.852571
v 6.500733 1.963499 4.93742
v -17.02373 1.963499 4.93742
v -16.98561 3.602968 -5.852571
v 17.51949 0.01901436 -8.521474
v 17.51949 0.01901436 6.958158
v 17.51949 2.192263 -8.483347
v -17.51939 2.116009 -8.483347
v -17.51939 0.01901436 -8.521474
v -17.51939 0.01901436 6.958158
v 19.5021 3.602968 -9.436526
v -19.502 3.602968 -9.436526
v 19.5021 2.34477 -9.436526
v -19.502 2.306644 -9.436526
v -17.51939 0.01901436 6.958158
v 17.51949 0.01901436 -8.521474
v -17.51939 0.01901436 -8.521474
v 17.51949 0.01901436 6.958158
v -19.502 0.01901436 7.949467
v -17.51939 2.116009 -8.483347
v 19.5021 0.01901436 7.949467
v -19.502 2.306644 -9.436526
v 19.5021 2.34477 -9.436526
v 17.51949 2.192263 -8.483347
vt 0.7135888 0.9598531
vt 0.04405791 0.9560052
vt 0.9560052 0.9560052
vt 0.9560052 0.4981076
vt 0.04405791 0.4981076
vt 0.9560052 0.517347
vt 0.7135888 0.517347
vt 0.04405791 0.5211949
vt 0.6712621 0.5866088
vt 0.9329179 0.5866088
vt 0.7520676 0.5866088
vt 0.7520676 0.8790476
vt 0.9560052 0.9560052
vt 0.9829403 0.5134991
vt 0.9906361 0.9521573
vt 0.9252222 0.5981525
vt 0.7597634 0.5981525
vt 0.9252222 0.8636561
vt 0.9329179 0.8790476
vt 0.7135888 0.9598531
vt 0.7597634 0.8636561
vt 0.6712621 0.8790476
vt 0.08638458 0.8790476
vt 0.04405791 0.9560052
vt 0.009427 0.9521573
vt 0.01712276 0.5134991
vt 0.08638458 0.5866088
vt 0.6520228 0.8675039
vt 0.6520228 0.5943046
vt 0.1017761 0.5943046
vt 0.105624 0.8713518
vt 0.2441476 0.01327488
vt 0.01712276 0.01712276
vt 0.2441476 0.04405791
vt 0.7559155 0.04405791
vt 0.7559155 0.01327488
vt 0.9867882 0.01712276
vt 0.9560052 0.9560052
vt 0.04405791 0.9560052
vt 0.9560052 0.9829403
vt 0.04405791 0.9867882
vt 0.92907 0.07868882
vt 0.0632973 0.4596288
vt 0.92907 0.4596288
vt 0.0632973 0.07868882
vt 0.9790924 0.05175367
vt 0.92907 0.4596288
vt 0.01712276 0.05175367
vt 0.9790924 0.4827161
vt 0.01712276 0.4827161
vt 0.0632973 0.4596288
vn -0.01587105 0.9363899 0.3506023
vn -0.5237435 0.6507117 -0.5497882
vn 0.5237435 0.8411639 0.1346703
vn -0.01587105 0.07935512 0.9967201
vn 0.01587099 0.07935512 0.9967201
vn 0.3015493 0.6507117 0.6968805
vn 0.01587099 0.8411639 0.5405474
vn -0.4285175 0.8411639 0.3298728
vn 0.1428391 0.968132 0.2057119
vn 0.3015493 0.9046479 0.3011313
vn -0.1745812 0.8729059 0.455584
vn -0.2380652 0.968132 0.07775179
vn 0.5237435 0.8411639 0.1346703
vn 0.999874 0.01587105 -0.0003439156
vn 0.999874 0.01587105 -0.0003439156
vn 0.2380652 0.7459378 0.6220142
vn -0.3967754 0.8411639 0.3674406
vn 0.3967754 0.9046479 -0.1555036
vn 0.2063232 0.968132 -0.1419547
vn -0.01587105 0.9363899 0.3506023
vn -0.2380652 0.9363899 -0.2578737
vn 0.1104315 0.9938838 0
vn -0.172001 0.9850967 0
vn -0.5237435 0.6507117 -0.5497882
vn -0.999874 0.01587105 -0.0003439156
vn -0.999874 0.01587105 -0.0003439156
vn -0.1110971 0.8411639 0.5292454
vn 0.2380652 0.968132 -0.07775179
vn 0.1428391 0.7776798 0.6122182
vn -0.2380652 0.9046479 0.3534643
vn -0.1428392 0.9363899 -0.320579
vn 0.4602594 0.01587105 -0.8876426
vn 0.999874 0.01587105 -0.0003439156
vn 0.7141957 0.01587105 -0.6997661
vn -0.4602594 0.01587105 -0.8876426
vn -0.7141957 0.01587105 -0.6997661
vn -0.999874 0.01587105 -0.0003439156
vn 0.5237435 0.8411639 0.1346703
vn -0.5237435 0.6507117 -0.5497882
vn 0.01587099 0.01587105 -0.9997481
vn -0.01587105 0.01587105 -0.9997481
vn -0.01587105 -0.999874 -0.000345267
vn -0.01587105 -0.999874 -0.000345267
vn -0.01587105 -0.999874 -0.000345267
vn 0.01587099 -0.999874 -0.000345267
vn -0.01587105 -0.999874 -0.000345267
vn -0.01587105 -0.999874 -0.000345267
vn 0.01587099 -0.999874 -0.000345267
vn -0.01587105 -0.999874 -0.000345267
vn 0.01587099 -0.999874 -0.000345267
vn 0.01587099 -0.999874 -0.000345267
g default_0
f 3/3/3 2/2/2 1/1/1
f 6/6/6 5/5/5 4/4/4
f 7/7/7 5/5/5 6/6/6
f 8/8/8 5/5/5 7/7/7
f 9/9/9 8/8/8 7/7/7
f 10/10/10 7/7/7 6/6/6
f 9/9/9 7/7/7 11/11/11
f 11/11/11 7/7/7 10/10/10
f 12/12/12 9/9/9 11/11/11
f 13/13/13 10/10/10 6/6/6
f 6/6/6 14/14/14 13/13/13
f 13/13/13 14/14/14 15/15/15
f 16/16/16 11/11/11 10/10/10
f 17/17/17 11/11/11 16/16/16
f 17/17/17 12/12/12 11/11/11
f 16/16/16 10/10/10 18/18/18
f 18/18/18 17/17/17 16/16/16
f 19/19/19 10/10/10 13/13/13
f 18/18/18 10/10/10 19/19/19
f 13/13/13 12/12/12 19/19/19
f 20/20/20 12/12/12 13/13/13
f 21/21/21 17/17/17 18/18/18
f 18/18/18 19/19/19 21/21/21
f 21/21/21 19/19/19 12/12/12
f 21/21/21 12/12/12 17/17/17
f 20/20/20 22/22/22 12/12/12
f 22/22/22 9/9/9 12/12/12
f 20/20/20 23/23/23 22/22/22
f 24/24/24 23/23/23 20/20/20
f 24/24/24 8/8/8 23/23/23
f 24/24/24 25/25/25 8/8/8
f 8/8/8 25/25/25 26/26/26
f 27/27/27 8/8/8 9/9/9
f 23/23/23 8/8/8 27/27/27
f 28/28/28 9/9/9 22/22/22
f 29/29/29 27/27/27 9/9/9
f 29/29/29 9/9/9 28/28/28
f 30/30/30 27/27/27 29/29/29
f 30/30/30 23/23/23 27/27/27
f 28/28/28 30/30/30 29/29/29
f 31/31/31 22/22/22 23/23/23
f 31/31/31 23/23/23 30/30/30
f 31/31/31 30/30/30 28/28/28
f 28/28/28 22/22/22 31/31/31
f 34/34/34 33/33/33 32/32/32
f 32/32/32 35/35/35 34/34/34
f 36/36/36 35/35/35 32/32/32
f 35/35/35 36/36/36 37/37/37
f 40/40/40 39/39/39 38/38/38
f 41/41/41 39/39/39 40/40/40
f 44/44/44 43/43/43 42/42/42
f 42/42/42 43/43/43 45/45/45
f 45/45/45 46/46/46 42/42/42
f 42/42/42 46/46/46 47/47/47
f 48/48/48 46/46/46 45/45/45
f 47/47/47 46/46/46 49/49/49
f 45/45/45 50/50/50 48/48/48
f 47/47/47 49/49/49 51/51/51
f 51/51/51 49/49/49 50/50/50
f 51/51/51 50/50/50 45/45/45
