g default
v 0.788122 6.543007 1E-06
v 0.962593 4.181104 1E-06
v 0.425235 6.543007 1E-06
v 0.906742 4.426589 1E-06
v 0.058303 6.543007 1E-06
v 0.816047 4.652824 1E-06
v -0.347377 6.543007 1E-06
v 0.69399 4.851129 1E-06
v -0.852184 6.543007 1E-06
v -1.308601 6.543007 1E-06
v 0.545266 5.013865 1E-06
v -1.308601 6.335082 1E-06
v 0.375586 5.134799 1E-06
v -1.308601 5.815987 1E-06
v 0.191472 5.209256 1E-06
v -1.308601 5.406252 1E-06
v 0 5.234406 1E-06
v -1.308601 5.06256 1E-06
v -0.191471 5.209266 1E-06
v -1.308601 4.75742 1E-06
v -0.375585 5.134799 1E-06
v -1.308601 4.469855 1E-06
v -0.545265 5.013865 1E-06
v -1.308601 4.178599 1E-06
v -1.308601 3.925804 1E-06
v -0.693991 4.851129 1E-06
v -1.263536 3.925804 1E-06
v -0.816046 4.652824 1E-06
v -1.107496 3.925804 1E-06
v -0.906743 4.426579 1E-06
v -1.020675 3.925804 1E-06
v -0.962593 4.181104 1E-06
v -0.981451 3.925804 1E-06
v -1.308601 -0.32715 0
v -0.981451 -0.32715 0
v -1.308601 3.925807 -20.93762
v -0.981451 -0.327147 -20.93762
v -0.981451 3.925807 -20.93762
v -1.308601 -0.327147 -20.93762
v -1.308601 -0.32715 0
v -0.981451 -0.327147 -20.93762
v -1.308601 -0.327147 -20.93762
v -0.981451 -0.32715 0
v -0.981451 3.925804 1E-06
v -1.308601 3.925807 -20.93762
v -0.981451 3.925807 -20.93762
v -1.308601 3.925804 1E-06
v -1.308601 -0.32715 0
v -1.308601 3.925807 -20.93762
v -1.308601 3.925804 1E-06
v -1.308601 -0.327147 -20.93762
v -0.981451 -0.327147 -20.93762
v -0.981451 3.925804 1E-06
v -0.981451 3.925807 -20.93762
v -0.981451 -0.32715 0
v 0.981451 -0.32715 0
v 1.308601 3.925804 1E-06
v 1.308601 -0.32715 0
v 0.981451 3.925804 1E-06
v 1.308601 6.543007 1E-06
v 0.788123 6.543007 1E-06
v 0.981451 3.925807 -20.93762
v 1.308601 -0.327147 -20.93762
v 1.308601 3.925807 -20.93762
v 0.981451 -0.327147 -20.93762
v 0.981451 -0.32715 0
v 1.308601 -0.327147 -20.93762
v 0.981451 -0.327147 -20.93762
v 1.308601 -0.32715 0
v 1.308601 3.925804 1E-06
v 0.981451 3.925807 -20.93762
v 1.308601 3.925807 -20.93762
v 0.981451 3.925804 1E-06
v 0.981451 -0.32715 0
v 0.981451 3.925807 -20.93762
v 0.981451 3.925804 1E-06
v 0.981451 -0.327147 -20.93762
v 1.308601 -0.327147 -20.93762
v 1.308601 3.925804 1E-06
v 1.308601 3.925807 -20.93762
v 1.308601 -0.32715 0
v 1.308601 3.925804 1E-06
v 0.981451 3.925807 -20.93762
v 0.981451 3.925804 1E-06
v 1.308601 3.925807 -20.93762
v 0.788123 6.543007 1E-06
v 0.981451 3.925807 -20.93762
v 0.788123 6.54301 -20.93762
v 0.981451 3.925804 1E-06
v 0.425235 6.543007 1E-06
v 0.962593 4.181107 -20.93762
v 0.425235 6.54301 -20.93762
v 0.962593 4.181104 1E-06
v 0.058303 6.543007 1E-06
v 0.906742 4.426593 -20.93762
v 0.058303 6.54301 -20.93762
v 0.906742 4.426589 1E-06
v -0.347377 6.543007 1E-06
v 0.816047 4.652828 -20.93762
v -0.347377 6.54301 -20.93762
v 0.816047 4.652824 1E-06
v -0.852184 6.543007 1E-06
v 0.693991 4.851132 -20.93762
v -0.852184 6.54301 -20.93762
v 0.69399 4.851129 1E-06
v -1.308601 6.335082 1E-06
v 0.545266 5.013869 -20.93762
v -1.308601 6.335085 -20.93762
v 0.545266 5.013865 1E-06
v -1.308601 5.815987 1E-06
v 0.375586 5.134802 -20.93762
v -1.308601 5.81599 -20.93762
v 0.375586 5.134799 1E-06
v -1.308601 5.406252 1E-06
v 0.191471 5.209269 -20.93762
v -1.308601 5.406255 -20.93762
v 0.191472 5.209256 1E-06
v 0 5.234409 -20.93762
v -1.308601 5.06256 1E-06
v 0 5.234406 1E-06
v -1.308601 5.062563 -20.93762
v -0.191472 5.209269 -20.93762
v -1.308601 4.75742 1E-06
v -0.191471 5.209266 1E-06
v -1.308601 4.757423 -20.93762
v -0.375585 5.134802 -20.93762
v -1.308601 4.469855 1E-06
v -0.375585 5.134799 1E-06
v -1.308601 4.469848 -20.93762
v -0.545264 5.013869 -20.93762
v -1.308601 4.178599 1E-06
v -0.545265 5.013865 1E-06
v -1.308601 4.178603 -20.93762
v -1.263536 3.925804 1E-06
v -1.308601 3.925807 -20.93762
v -1.308601 3.925804 1E-06
v -1.263536 3.925807 -20.93762
v -1.107496 3.925804 1E-06
v -1.107496 3.925807 -20.93762
v -1.020675 3.925804 1E-06
v -1.020675 3.925807 -20.93762
v -0.981451 3.925807 -20.93762
v -0.981451 3.925804 1E-06
v -0.693992 4.851121 -20.93762
v -1.263536 3.925804 1E-06
v -0.693991 4.851129 1E-06
v -1.263536 3.925807 -20.93762
v -0.816046 4.652828 -20.93762
v -1.107496 3.925804 1E-06
v -0.816046 4.652824 1E-06
v -1.107496 3.925807 -20.93762
v -1.107496 3.925804 1E-06
v -0.906743 4.426583 -20.93762
v -0.906743 4.426579 1E-06
v -1.107496 3.925807 -20.93762
v -0.906743 4.426583 -20.93762
v -1.020675 3.925804 1E-06
v -0.906743 4.426579 1E-06
v -1.020675 3.925807 -20.93762
v -1.020675 3.925804 1E-06
v -0.962593 4.181107 -20.93762
v -0.962593 4.181104 1E-06
v -1.020675 3.925807 -20.93762
v -0.962593 4.181107 -20.93762
v -0.981451 3.925804 1E-06
v -0.962593 4.181104 1E-06
v -0.981451 3.925807 -20.93762
v -1.308601 -0.32715 0
v 1.308601 0.020447 0
v 1.308601 -0.32715 0
v -1.308601 0.020447 0
v -1.308601 0.02045 -20.93762
v 1.308601 -0.327147 -20.93762
v 1.308601 0.02045 -20.93762
v -1.308601 -0.327147 -20.93762
v -1.308601 -0.32715 0
v 1.308601 -0.327147 -20.93762
v -1.308601 -0.327147 -20.93762
v 1.308601 -0.32715 0
v 1.308601 0.020447 0
v -1.308601 0.02045 -20.93762
v 1.308601 0.02045 -20.93762
v -1.308601 0.020447 0
v -1.308601 -0.32715 0
v -1.308601 0.02045 -20.93762
v -1.308601 0.020447 0
v -1.308601 -0.327147 -20.93762
v 1.308601 -0.327147 -20.93762
v 1.308601 0.020447 0
v 1.308601 0.02045 -20.93762
v 1.308601 -0.32715 0
vt 0.2151 2.7857
vt 0.2627 2.1411
vt 0.1161 2.7857
vt 0.2475 2.2081
vt 0.0159 2.7857
vt 0.2227 2.2699
vt -0.0948 2.7857
vt 0.1894 2.324
vt -0.2326 2.7857
vt -0.3571 2.7857
vt 0.1488 2.3684
vt -0.3571 2.729
vt 0.1025 2.4014
vt -0.3571 2.5873
vt 0.0523 2.4217
vt -0.3571 2.4755
vt 0 2.4286
vt -0.3571 2.3817
vt -0.0523 2.4217
vt -0.3571 2.2984
vt -0.1025 2.4014
vt -0.3571 2.2199
vt -0.1488 2.3684
vt -0.3571 2.1404
vt -0.3571 2.0714
vt -0.1894 2.324
vt -0.3448 2.0714
vt -0.2227 2.2699
vt -0.3023 2.0714
vt -0.2475 2.2081
vt -0.2786 2.0714
vt -0.2627 2.1411
vt -0.2679 2.0714
vt -0.3571 0.9107
vt -0.2679 0.9107
vt -0.3571 2.0714
vt -0.2679 0.9107
vt -0.2679 2.0714
vt -0.3571 0.9107
vt -0.3571 1
vt -0.2679 6.7143
vt -0.3571 6.7143
vt -0.2679 1
vt -0.2679 1
vt -0.3571 6.7143
vt -0.2679 6.7143
vt -0.3571 1
vt 0 0.9107
vt 5.7143 2.0714
vt 0 2.0714
vt 5.7143 0.9107
vt 5.7143 0.9107
vt 0 2.0714
vt 5.7143 2.0714
vt 0 0.9107
vt 0.2679 0.9107
vt 0.3571 2.0714
vt 0.3571 0.9107
vt 0.2679 2.0714
vt 0.3571 2.7857
vt 0.2151 2.7857
vt 0.2679 2.0714
vt 0.3571 0.9107
vt 0.3571 2.0714
vt 0.2679 0.9107
vt 0.2679 1
vt 0.3571 6.7143
vt 0.2679 6.7143
vt 0.3571 1
vt 0.3571 1
vt 0.2679 6.7143
vt 0.3571 6.7143
vt 0.2679 1
vt 0 0.9107
vt 5.7143 2.0714
vt 0 2.0714
vt 5.7143 0.9107
vt 5.7143 0.9107
vt 0 2.0714
vt 5.7143 2.0714
vt 0 0.9107
vt 0.3571 1
vt 0.2679 6.7143
vt 0.2679 1
vt 0.3571 6.7143
vt 0 2.7857
vt 5.7143 2.0714
vt 5.7143 2.7857
vt 0 2.0714
vt 0 2.7857
vt 5.7143 2.1411
vt 5.7143 2.7857
vt 0 2.1411
vt 0 2.7857
vt 5.7143 2.2081
vt 5.7143 2.7857
vt 0 2.2081
vt 0 2.7857
vt 5.7143 2.2699
vt 5.7143 2.7857
vt 0 2.2699
vt 0 2.7857
vt 5.7143 2.324
vt 5.7143 2.7857
vt 0 2.324
vt -0.3571 1
vt 0.1488 6.7143
vt -0.3571 6.7143
vt 0.1488 1
vt -0.3571 1
vt 0.1025 6.7143
vt -0.3571 6.7143
vt 0.1025 1
vt -0.3571 1
vt 0.0523 6.7143
vt -0.3571 6.7143
vt 0.0523 1
vt 0 6.7143
vt -0.3571 1
vt 0 1
vt -0.3571 6.7143
vt -0.0523 6.7143
vt -0.3571 1
vt -0.0523 1
vt -0.3571 6.7143
vt -0.1025 6.7143
vt -0.3571 1
vt -0.1025 1
vt -0.3571 6.7143
vt 5.7143 2.3684
vt 0 2.1404
vt 0 2.3684
vt 5.7143 2.1404
vt -0.3448 1
vt -0.3571 6.7143
vt -0.3571 1
vt -0.3448 6.7143
vt -0.3023 1
vt -0.3023 6.7143
vt -0.2786 1
vt -0.2786 6.7143
vt -0.2679 6.7143
vt -0.2679 1
vt 5.7143 2.324
vt 0 2.0714
vt 0 2.324
vt 5.7143 2.0714
vt 5.7143 2.2699
vt 0 2.0714
vt 0 2.2699
vt 5.7143 2.0714
vt 0 2.0714
vt 5.7143 2.2081
vt 0 2.2081
vt 5.7143 2.0714
vt 5.7143 2.2081
vt 0 2.0714
vt 0 2.2081
vt 5.7143 2.0714
vt 0 2.0714
vt 5.7143 2.1411
vt 0 2.1411
vt 5.7143 2.0714
vt 5.7143 2.1411
vt 0 2.0714
vt 0 2.1411
vt 5.7143 2.0714
vt -0.25 0.9375
vt 0.25 1.0039
vt 0.25 0.9375
vt -0.25 1.0039
vt -0.25 1.0039
vt 0.25 0.9375
vt 0.25 1.0039
vt -0.25 0.9375
vt -0.25 1
vt 0.25 5
vt -0.25 5
vt 0.25 1
vt 0.25 1
vt -0.25 5
vt 0.25 5
vt -0.25 1
vt 0 0.9375
vt 4 1.0039
vt 0 1.0039
vt 4 0.9375
vt 4 0.9375
vt 0 1.0039
vt 4 1.0039
vt 0 0.9375
vn 0 0 1
vn 0 0 1
vn 0 0 1
vn 0 0 1
vn 0 0 1
vn 0 0 1
vn 0 0 1
vn 0 0 1
vn 0 0 1
vn 0 0 1
vn 0 0 1
vn 0 0 1
vn 0 0 1
vn 0 0 1
vn 0 0 1
vn 0 0 1
vn 0 0 1
vn 0 0 1
vn 0 0 1
vn 0 0 1
vn 0 0 1
vn 0 0 1
vn 0 0 1
vn 0 0 1
vn 0 0 1
vn 0 0 1
vn 0 0 1
vn 0 0 1
vn 0 0 1
vn 0 0 1
vn 0 0 1
vn 0 0 1
vn 0 0 1
vn 0 0 1
vn 0 0 1
vn 0 0 -1
vn 0 0 -1
vn 0 0 -1
vn 0 0 -1
vn 0 -1 0
vn 0 -1 0
vn 0 -1 0
vn 0 -1 0
vn 0 1 0
vn 0 1 0
vn 0 1 0
vn 0 1 0
vn -1 0 0
vn -1 0 0
vn -1 0 0
vn -1 0 0
vn 1 0 0
vn 1 0 0
vn 1 0 0
vn 1 0 0
vn 0 0 1
vn 0 0 1
vn 0 0 1
vn 0 0 1
vn 0 0 1
vn 0 0 1
vn 0 0 -1
vn 0 0 -1
vn 0 0 -1
vn 0 0 -1
vn 0 -1 0
vn 0 -1 0
vn 0 -1 0
vn 0 -1 0
vn 0 1 0
vn 0 1 0
vn 0 1 0
vn 0 1 0
vn -1 0 0
vn -1 0 0
vn -1 0 0
vn -1 0 0
vn 1 0 0
vn 1 0 0
vn 1 0 0
vn 1 0 0
vn 0 -1 0
vn 0 -1 0
vn 0 -1 0
vn 0 -1 0
vn -0.9972806 -0.07369857 0
vn -0.9972806 -0.07369857 0
vn -0.9972806 -0.07369857 0
vn -0.9972806 -0.07369857 0
vn -0.9750925 -0.2217983 0
vn -0.9750925 -0.2217983 0
vn -0.9750925 -0.2217983 0
vn -0.9750925 -0.2217983 0
vn -0.9281937 -0.3720975 0
vn -0.9281937 -0.3720975 0
vn -0.9281937 -0.3720975 0
vn -0.9281937 -0.3720975 0
vn -0.8515965 -0.5241979 0
vn -0.8515965 -0.5241979 0
vn -0.8515965 -0.5241979 0
vn -0.8515965 -0.5241979 0
vn -0.7381909 -0.6745917 0
vn -0.7381909 -0.6745917 0
vn -0.7381909 -0.6745917 0
vn -0.7381909 -0.6745917 0
vn -0.5803676 -0.8143546 0
vn -0.5803676 -0.8143546 0
vn -0.5803676 -0.8143546 0
vn -0.5803676 -0.8143546 0
vn -0.3750086 -0.9270213 0
vn -0.3750086 -0.9270213 0
vn -0.3750086 -0.9270213 0
vn -0.3750086 -0.9270213 0
vn -0.1301984 -0.991488 0
vn -0.1301984 -0.991488 0
vn -0.1301984 -0.991488 0
vn -0.1301984 -0.991488 0
vn 0.1301984 -0.991488 0
vn 0.1301984 -0.991488 0
vn 0.1301984 -0.991488 0
vn 0.1301984 -0.991488 0
vn 0.3750086 -0.9270213 0
vn 0.3750086 -0.9270213 0
vn 0.3750086 -0.9270213 0
vn 0.3750086 -0.9270213 0
vn 0.5803676 -0.8143546 0
vn 0.5803676 -0.8143546 0
vn 0.5803676 -0.8143546 0
vn 0.5804149 -0.8143209 0
vn 0.7381909 -0.6745917 0
vn 0.7381909 -0.6745917 0
vn 0.7381909 -0.6745917 0
vn 0.7381909 -0.6745917 0
vn 0 -1 0
vn 0 -1 0
vn 0 -1 0
vn 0 -1 0
vn 0 -1 0
vn 0 -1 0
vn 0 -1 0
vn 0 -1 0
vn 0 -1 0
vn 0 -1 0
vn 0.8515965 -0.5241979 0
vn 0.8515965 -0.5241979 0
vn 0.8515965 -0.5241979 0
vn 0.8515965 -0.5241979 0
vn 0.9281937 -0.3720975 0
vn 0.9281937 -0.3720975 0
vn 0.9281937 -0.3720975 0
vn 0.9281937 -0.3720975 0
vn -0.9281937 0.3720975 0
vn -0.9281937 0.3720975 0
vn -0.9281937 0.3720975 0
vn -0.9281937 0.3720975 0
vn 0.9750925 -0.2217983 0
vn 0.9750925 -0.2217983 0
vn 0.9750925 -0.2217983 0
vn 0.9750925 -0.2217983 0
vn -0.9750925 0.2217983 0
vn -0.9750925 0.2217983 0
vn -0.9750925 0.2217983 0
vn -0.9750925 0.2217983 0
vn 0.9972806 -0.07369857 0
vn 0.9972806 -0.07369857 0
vn 0.9972806 -0.07369857 0
vn 0.9972806 -0.07369857 0
vn 0 0 1
vn 0 0 1
vn 0 0 1
vn 0 0 1
vn 0 0 -1
vn 0 0 -1
vn 0 0 -1
vn 0 0 -1
vn 0 -1 0
vn 0 -1 0
vn 0 -1 0
vn 0 -1 0
vn 0 1 0
vn 0 1 0
vn 0 1 0
vn 0 1 0
vn -1 0 0
vn -1 0 0
vn -1 0 0
vn -1 0 0
vn 1 0 0
vn 1 0 0
vn 1 0 0
vn 1 0 0
g default_0
f 3/3/3 2/2/2 1/1/1
f 3/3/3 5/5/5 4/4/4
f 5/5/5 7/7/7 6/6/6
f 7/7/7 9/9/9 8/8/8
f 11/11/11 9/9/9 10/10/10
f 12/12/12 11/11/11 10/10/10
f 12/12/12 14/14/14 13/13/13
f 14/14/14 16/16/16 15/15/15
f 16/16/16 18/18/18 17/17/17
f 18/18/18 20/20/20 19/19/19
f 20/20/20 22/22/22 21/21/21
f 22/22/22 24/24/24 23/23/23
f 26/26/26 24/24/24 25/25/25
f 27/27/27 26/26/26 25/25/25
f 27/27/27 29/29/29 28/28/28
f 29/29/29 31/31/31 30/30/30
f 31/31/31 33/33/33 32/32/32
f 33/33/33 25/25/25 34/34/34
f 35/35/35 33/33/33 34/34/34
f 38/38/38 37/37/37 36/36/36
f 37/37/37 39/39/39 36/36/36
f 42/42/42 41/41/41 40/40/40
f 41/41/41 43/43/43 40/40/40
f 46/46/46 45/45/45 44/44/44
f 45/45/45 47/47/47 44/44/44
f 50/50/50 49/49/49 48/48/48
f 49/49/49 51/51/51 48/48/48
f 54/54/54 53/53/53 52/52/52
f 53/53/53 55/55/55 52/52/52
f 58/58/58 57/57/57 56/56/56
f 57/57/57 59/59/59 56/56/56
f 57/57/57 60/60/60 59/59/59
f 60/60/60 61/61/61 59/59/59
f 64/64/64 63/63/63 62/62/62
f 63/63/63 65/65/65 62/62/62
f 68/68/68 67/67/67 66/66/66
f 67/67/67 69/69/69 66/66/66
f 72/72/72 71/71/71 70/70/70
f 71/71/71 73/73/73 70/70/70
f 76/76/76 75/75/75 74/74/74
f 75/75/75 77/77/77 74/74/74
f 80/80/80 79/79/79 78/78/78
f 79/79/79 81/81/81 78/78/78
f 84/84/84 83/83/83 82/82/82
f 83/83/83 85/85/85 82/82/82
f 88/88/88 87/87/87 86/86/86
f 87/87/87 89/89/89 86/86/86
f 92/92/92 91/91/91 90/90/90
f 91/91/91 93/93/93 90/90/90
f 96/96/96 95/95/95 94/94/94
f 95/95/95 97/97/97 94/94/94
f 100/100/100 99/99/99 98/98/98
f 99/99/99 101/101/101 98/98/98
f 104/104/104 103/103/103 102/102/102
f 103/103/103 105/105/105 102/102/102
f 108/108/108 107/107/107 106/106/106
f 107/107/107 109/109/109 106/106/106
f 112/112/112 111/111/111 110/110/110
f 111/111/111 113/113/113 110/110/110
f 116/116/116 115/115/115 114/114/114
f 115/115/115 117/117/117 114/114/114
f 120/120/120 119/119/119 118/118/118
f 119/119/119 121/121/121 118/118/118
f 124/124/124 123/123/123 122/122/122
f 123/123/123 125/125/125 122/122/122
f 128/128/128 127/127/127 126/126/126
f 127/127/127 129/129/129 126/126/126
f 132/132/132 131/131/131 130/130/130
f 131/131/131 133/133/133 130/130/130
f 136/136/136 135/135/135 134/134/134
f 135/135/135 137/137/137 134/134/134
f 134/134/134 137/137/137 138/138/138
f 137/137/137 139/139/139 138/138/138
f 140/140/140 138/138/138 139/139/139
f 141/141/141 140/140/140 139/139/139
f 141/141/141 142/142/142 140/140/140
f 142/142/142 143/143/143 140/140/140
f 146/146/146 145/145/145 144/144/144
f 145/145/145 147/147/147 144/144/144
f 150/150/150 149/149/149 148/148/148
f 149/149/149 151/151/151 148/148/148
f 154/154/154 153/153/153 152/152/152
f 153/153/153 155/155/155 152/152/152
f 158/158/158 157/157/157 156/156/156
f 157/157/157 159/159/159 156/156/156
f 162/162/162 161/161/161 160/160/160
f 161/161/161 163/163/163 160/160/160
f 166/166/166 165/165/165 164/164/164
f 165/165/165 167/167/167 164/164/164
f 170/170/170 169/169/169 168/168/168
f 169/169/169 171/171/171 168/168/168
f 174/174/174 173/173/173 172/172/172
f 173/173/173 175/175/175 172/172/172
f 178/178/178 177/177/177 176/176/176
f 177/177/177 179/179/179 176/176/176
f 182/182/182 181/181/181 180/180/180
f 181/181/181 183/183/183 180/180/180
f 186/186/186 185/185/185 184/184/184
f 185/185/185 187/187/187 184/184/184
f 190/190/190 189/189/189 188/188/188
f 189/189/189 191/191/191 188/188/188
