g Door_Left_LOD2
v 0.1585637 1.174947 -0.04105165
v 0.1585637 1.274834 -0.04105165
v 0.4817035 1.274834 0.04078185
v 0.1585637 1.274834 -0.04105165
v 0.4817035 1.274834 -0.04105165
v 0.4817035 1.274834 0.04078185
v 0.1585637 1.274834 -0.04105165
v 0.1585637 1.174947 -0.04105165
v 0.4817035 1.274834 -0.04105165
v 0.1585637 1.174947 -0.04105165
v 0.4817035 1.274834 0.04078185
v 0.4817035 1.274834 -0.04105165
v 0.4817035 0.4744922 0.04078185
v 0.4817035 1.075777 -0.04105165
v 0.4817035 0.4744922 -0.04105165
v 0.1585637 0.4744922 -0.04105165
v 0.1585637 1.075777 -0.04105165
v 0.1585637 0.4744922 0.04078185
v 0.4817035 -1.276141 0.04078185
v 0.4817035 -1.176254 -0.04105165
v 0.4817035 -1.276141 -0.04105165
v 0.1585637 -1.276141 -0.04105165
v 0.1585637 -1.176254 -0.04105165
v 0.1585637 -1.276141 0.04078185
v 0.1585637 -0.4723584 0.04078185
v 0.1585637 -0.4723584 -0.04105165
v 0.4817035 -0.4723584 -0.04105165
v 0.1585637 -1.073643 -0.04105165
v 0.1585637 -1.073643 0.04078185
v 0.4817035 -1.073643 -0.04105165
v 0.2457217 1.496783 0.05
v -0.5827456 1.298883 0.04999999
v -0.5325946 1.580815 -0.05
v -0.07060745 0.1555334 -0.05
v 0.2477048 0.1552029 0.00996263
v -0.2245361 -0.1224293 -0.05
v -0.5325946 1.580815 -0.05
v 0.6159952 1.624797 -0.05
v 0.2457217 1.496783 0.05
v -0.04312836 -1.624797 -0.05
v -0.1718452 -1.301221 -0.05
v 0.2477046 -1.301221 0.00996263
v -0.446983 0.4303634 -0.05
v -0.5827456 1.298883 0.04999999
v -0.07060745 0.1555334 -0.05
v 0.2477046 -1.301221 0.00996263
v 0.6159952 -1.624797 -0.05
v -0.04312836 -1.624797 -0.05
v -0.07060745 0.1555334 -0.05
v -0.2245361 -0.1224293 -0.05
v 0.2477048 0.1552029 -0.00996263
v -0.5827456 1.298883 0.04999999
v -0.446983 0.4303634 -0.05
v -0.5325946 1.580815 -0.05
v 0.2477046 -1.301221 -0.00996263
v -0.04312836 -1.624797 -0.05
v 0.6159952 -1.624797 -0.05
v 0.1585637 0.4744922 0.04078185
v 0.1585637 1.075777 -0.04105165
v 0.4817035 1.075777 -0.04105165
v 0.4817035 0.4744922 0.04078185
v 0.1585637 1.075777 -0.04105165
v 0.1585637 0.4744922 -0.04105165
v 0.4817035 0.4744922 -0.04105165
v 0.4817035 1.075777 -0.04105165
v 0.1585637 0.4744922 -0.04105165
v 0.1585637 0.4744922 0.04078185
v 0.4817035 0.4744922 0.04078185
v 0.4817035 0.4744922 -0.04105165
v 0.1585637 -1.276141 0.04078185
v 0.1585637 -1.176254 -0.04105165
v 0.4817035 -1.176254 -0.04105165
v 0.4817035 -1.276141 0.04078185
v 0.1585637 -1.176254 -0.04105165
v 0.1585637 -1.276141 -0.04105165
v 0.4817035 -1.276141 -0.04105165
v 0.4817035 -1.176254 -0.04105165
v 0.1585637 -1.276141 -0.04105165
v 0.1585637 -1.276141 0.04078185
v 0.4817035 -1.276141 0.04078185
v 0.4817035 -1.276141 -0.04105165
v 0.1585637 -1.073643 0.04078185
v 0.1585637 -0.4723584 0.04078185
v 0.4817035 -0.4723584 -0.04105165
v 0.4817035 -1.073643 -0.04105165
v 0.1585637 -0.4723584 -0.04105165
v 0.1585637 -1.073643 -0.04105165
v 0.4817035 -1.073643 -0.04105165
v 0.4817035 -0.4723584 -0.04105165
v 0.1585637 -1.073643 -0.04105165
v 0.1585637 -0.4723584 -0.04105165
v 0.1585637 -0.4723584 0.04078185
v 0.1585637 -1.073643 0.04078185
v -0.1718452 -1.301221 -0.05
v -0.2245361 -0.1224293 -0.05
v 0.2477048 0.1552029 0.00996263
v 0.2477046 -1.301221 0.00996263
v 0.6159952 -1.624797 -0.05
v 0.2477046 -1.301221 0.00996263
v 0.2477048 0.1552029 0.00996263
v 0.6159952 0.1552029 -0.05
v 0.6159952 0.1552029 -0.05
v 0.2477048 0.1552029 0.00996263
v 0.2457217 1.496783 0.05
v 0.6159952 1.624797 -0.05
v 0.2457217 1.496783 0.05
v 0.2477048 0.1552029 0.00996263
v -0.07060745 0.1555334 -0.05
v -0.5827456 1.298883 0.04999999
v -0.1718452 -1.301221 -0.05
v 0.2477048 0.1552029 -0.00996263
v -0.2245361 -0.1224293 -0.05
v 0.2477046 -1.301221 -0.00996263
v -0.04312836 -1.624797 -0.05
v 0.6159952 -1.624797 -0.05
v 0.6159952 0.1552029 -0.05
v 0.2477048 0.1552029 -0.00996263
v 0.2477046 -1.301221 -0.00996263
v -0.5325946 1.580815 -0.05
v 0.2457217 1.496783 -0.05
v 0.6159952 1.624797 -0.05
v -0.07060745 0.1555334 -0.05
v 0.2477048 0.1552029 -0.00996263
v -0.446983 0.4303634 -0.05
v 0.6159952 0.1552029 -0.05
v 0.6159952 1.624797 -0.05
v 0.2457217 1.496783 -0.05
v 0.2477048 0.1552029 -0.00996263
vt 0.2351752 0.8584806
vt 0.1683694 0.8584807
vt 0.1891129 0.9403905
vt 0.1683694 0.8584807
vt 0.16837 0.9403901
vt 0.1891129 0.9403905
vt 0.2604945 0.8584805
vt 0.2351752 0.8584806
vt 0.2604947 0.9403899
vt 0.2351752 0.8584806
vt 0.1891129 0.9403905
vt 0.2604947 0.9403899
vt 0.8896451 0.9721073
vt 0.8689021 0.8196937
vt 0.8689021 0.9721071
vt 0.9922975 0.9721073
vt 0.9715544 0.7989507
vt 0.9715546 0.9721072
vt 0.0877651 0.8443349
vt 0.06244516 0.8650777
vt 0.08776456 0.8650779
vt 0.08776432 0.9469869
vt 0.06244498 0.9469868
vt 0.08776405 0.9677303
vt 0.5896791 0.9744318
vt 0.5896791 0.9951749
vt 0.6923316 0.9744319
vt 0.5896791 0.8012755
vt 0.5896791 0.8220184
vt 0.6923316 0.8220184
vt 0.8194636 0.02681991
vt 0.9930341 0.06828164
vt 0.9825269 0.009214573
vt 0.885737 0.3078222
vt 0.8190481 0.3078913
vt 0.9179862 0.3660575
vt 0.9825269 0.009214573
vt 0.7209376 2.328306E-10
vt 0.8194636 0.02681991
vt 0.8799798 0.6808151
vt 0.906947 0.6130235
vt 0.819048 0.6130235
vt 0.9645906 0.2502432
vt 0.9930341 0.06828164
vt 0.885737 0.3078222
vt 0.819048 0.6130235
vt 0.7209375 0.6808151
vt 0.8799798 0.6808151
vt 0.5770889 0.3078221
vt 0.5448397 0.3660576
vt 0.6437778 0.3078914
vt 0.2831494 0.7644433
vt 0.1101654 0.7843604
vt 0.3393021 0.7843603
vt 0.6437778 0.6130235
vt 0.582846 0.6808151
vt 0.7209375 0.6808151
vt 0.9715546 0.9721072
vt 0.9715544 0.7989507
vt 0.8689021 0.8196937
vt 0.8896451 0.9721073
vt 0.7869928 0.8196937
vt 0.7869929 0.9721073
vt 0.8689021 0.9721071
vt 0.8689021 0.8196937
vt 0.9715544 0.9928503
vt 0.9715546 0.9721072
vt 0.8896451 0.9721073
vt 0.8896453 0.9928503
vt 0.01638246 0.9469868
vt 0.06244498 0.9469868
vt 0.06244516 0.8650777
vt 0.01638246 0.8650776
vt 0.06244498 0.9469868
vt 0.08776432 0.9469869
vt 0.08776456 0.8650779
vt 0.06244516 0.8650777
vt 0.08776432 0.9469869
vt 0.1085075 0.9469869
vt 0.1085078 0.8650777
vt 0.08776456 0.8650779
vt 0.5896791 0.8220184
vt 0.5896791 0.9744318
vt 0.6923316 0.9744319
vt 0.6923316 0.8220184
vt 0.7742407 0.9744319
vt 0.7742407 0.8220184
vt 0.6923316 0.8220184
vt 0.6923316 0.9744319
vt 0.5689361 0.8220184
vt 0.5689361 0.974432
vt 0.5896791 0.9744318
vt 0.5896791 0.8220184
vt 0.906947 0.6130235
vt 0.9179862 0.3660575
vt 0.8190481 0.3078913
vt 0.819048 0.6130235
vt 0.7209375 0.6808151
vt 0.819048 0.6130235
vt 0.8190481 0.3078913
vt 0.7209376 0.3078913
vt 0.7209376 0.3078913
vt 0.8190481 0.3078913
vt 0.8194636 0.02681991
vt 0.7209376 2.328306E-10
vt 0.8194636 0.02681991
vt 0.8190481 0.3078913
vt 0.885737 0.3078222
vt 0.9930341 0.06828164
vt 0.5558789 0.6130235
vt 0.6437778 0.3078914
vt 0.5448397 0.3660576
vt 0.6437778 0.6130235
vt 0.582846 0.6808151
vt 0.7209375 0.6808151
vt 0.7209376 0.3078913
vt 0.6437778 0.3078914
vt 0.6437778 0.6130235
vt 0.4802991 0.009214515
vt 0.6433623 0.02681988
vt 0.7209376 2.328306E-10
vt 0.5770889 0.3078221
vt 0.6437778 0.3078914
vt 0.4982353 0.2502431
vt 0.7209376 0.3078913
vt 0.7209376 2.328306E-10
vt 0.6433623 0.02681988
vt 0.6437778 0.3078914
vn -0.2454947 0 0.9693979
vn -0.2454948 0 0.9693979
vn -0.2454947 0 0.9693979
vn 0 1 0
vn 0 1 0
vn 0 1 0
vn 0 0 -1
vn 0 0 -1
vn 0 0 -1
vn 0.2953265 -0.9553964 0
vn 0.2953265 -0.9553964 0
vn 0.2953265 -0.9553964 0
vn 1 0 0
vn 1 0 0
vn 1 0 0
vn -1 0 0
vn -1 0 0
vn -1 0 0
vn 1 0 0
vn 1 0 0
vn 1 0 0
vn -1 0 0
vn -1 0 0
vn -1 0 0
vn 0 1 0
vn 0 1 0
vn 0 1 0
vn 0 -1 0
vn 0 -1 0
vn 0 -1 0
vn -0.08269332 0.3461778 0.9345173
vn -0.08269333 0.3461778 0.9345174
vn -0.08269333 0.3461778 0.9345174
vn -0.1840544 0.1019246 0.9776173
vn -0.1840544 0.1019246 0.9776173
vn -0.1840544 0.1019246 0.9776173
vn -0.02526367 0.6597661 0.7510463
vn -0.02526366 0.6597661 0.7510463
vn -0.02526366 0.659766 0.7510463
vn -0.1412601 -0.05619247 0.9883764
vn -0.1412601 -0.05619247 0.9883764
vn -0.1412601 -0.05619248 0.9883764
vn -0.09370138 -0.1283226 0.9872959
vn -0.09370139 -0.1283226 0.9872959
vn -0.09370141 -0.1283227 0.9872959
vn 0 -0.18221 0.9832597
vn 0 -0.18221 0.9832597
vn 0 -0.18221 0.9832597
vn 0.1244298 -0.06890599 -0.989833
vn 0.1244297 -0.06890598 -0.989833
vn 0.1244297 -0.06890599 -0.989833
vn -0.8133843 -0.06052852 -0.5785692
vn -0.8133843 -0.06052853 -0.5785691
vn -0.8133843 -0.06052853 -0.5785692
vn 0 0.1227975 -0.9924318
vn 0 0.1227975 -0.9924318
vn 0 0.1227975 -0.9924318
vn 0 0.1348545 0.9908654
vn 0 0.1348545 0.9908654
vn 0 0.1348545 0.9908654
vn 0 0.1348545 0.9908654
vn 0 0 -1
vn 0 0 -1
vn 0 0 -1
vn 0 0 -1
vn 0 -1 0
vn 0 -1 0
vn 0 -1 0
vn 0 -1 0
vn 0 0.6337364 0.7735491
vn 0 0.6337364 0.7735491
vn 0 0.6337364 0.7735491
vn 0 0.6337364 0.7735491
vn 0 0 -1
vn 0 0 -1
vn 0 0 -1
vn 0 0 -1
vn 0 -1 0
vn 0 -1 0
vn 0 -1 0
vn 0 -1 0
vn 0.2454951 0 0.9693979
vn 0.2454951 0 0.9693979
vn 0.2454951 0 0.9693979
vn 0.2454951 0 0.9693979
vn 0 0 -1
vn 0 0 -1
vn 0 0 -1
vn 0 0 -1
vn -1 0 0
vn -1 0 0
vn -1 0 0
vn -1 0 0
vn -0.1324668 -0.002648649 0.9911839
vn -0.1324668 -0.002648649 0.9911839
vn -0.1324668 -0.002648649 0.9911839
vn -0.1324668 -0.002648649 0.9911839
vn 0.1606974 0 0.9870037
vn 0.1606974 0 0.9870037
vn 0.1606974 0 0.9870037
vn 0.1606974 0 0.9870037
vn 0.2139356 -0.01376017 0.9767509
vn 0.2139356 -0.01376017 0.9767509
vn 0.2139356 -0.01376017 0.9767509
vn 0.2139356 -0.01376017 0.9767509
vn -0.04099278 -0.06467045 0.9970643
vn -0.04099278 -0.06467046 0.9970643
vn -0.04099278 -0.06467044 0.9970643
vn -0.04099278 -0.06467045 0.9970643
vn 0.08888218 0.001777183 -0.9960406
vn 0.08888217 0.001777183 -0.9960406
vn 0.08888217 0.001777183 -0.9960406
vn 0.08888217 0.001777183 -0.9960406
vn 0.09493002 0.0377626 -0.9947674
vn -0.1080746 0 -0.9941428
vn -0.1080746 0 -0.9941428
vn -0.1080746 0 -0.9941428
vn -0.1080746 0 -0.9941428
vn 0 0 -1
vn 0 0 -1
vn 0 0 -1
vn 0 0 -1
vn 0.03583459 -0.008451465 -0.9993219
vn 0 0 -1
vn -0.0516605 -0.0142582 -0.998563
vn -0.0516605 -0.0142582 -0.998563
vn -0.0516605 -0.0142582 -0.998563
vn -0.0516605 -0.0142582 -0.998563
g Door_Left_LOD2_0
f 3/3/3 2/2/2 1/1/1
f 6/6/6 5/5/5 4/4/4
f 9/9/9 8/8/8 7/7/7
f 12/12/12 11/11/11 10/10/10
f 15/15/15 14/14/14 13/13/13
f 18/18/18 17/17/17 16/16/16
f 21/21/21 20/20/20 19/19/19
f 24/24/24 23/23/23 22/22/22
f 27/27/27 26/26/26 25/25/25
f 30/30/30 29/29/29 28/28/28
f 33/33/33 32/32/32 31/31/31
f 36/36/36 35/35/35 34/34/34
f 39/39/39 38/38/38 37/37/37
f 42/42/42 41/41/41 40/40/40
f 45/45/45 44/44/44 43/43/43
f 48/48/48 47/47/47 46/46/46
f 51/51/51 50/50/50 49/49/49
f 54/54/54 53/53/53 52/52/52
f 57/57/57 56/56/56 55/55/55
f 60/60/60 59/59/59 58/58/58
f 61/61/61 60/60/60 58/58/58
f 64/64/64 63/63/63 62/62/62
f 65/65/65 64/64/64 62/62/62
f 68/68/68 67/67/67 66/66/66
f 69/69/69 68/68/68 66/66/66
f 72/72/72 71/71/71 70/70/70
f 73/73/73 72/72/72 70/70/70
f 76/76/76 75/75/75 74/74/74
f 77/77/77 76/76/76 74/74/74
f 80/80/80 79/79/79 78/78/78
f 81/81/81 80/80/80 78/78/78
f 84/84/84 83/83/83 82/82/82
f 85/85/85 84/84/84 82/82/82
f 88/88/88 87/87/87 86/86/86
f 89/89/89 88/88/88 86/86/86
f 92/92/92 91/91/91 90/90/90
f 93/93/93 92/92/92 90/90/90
f 96/96/96 95/95/95 94/94/94
f 97/97/97 96/96/96 94/94/94
f 100/100/100 99/99/99 98/98/98
f 101/101/101 100/100/100 98/98/98
f 104/104/104 103/103/103 102/102/102
f 105/105/105 104/104/104 102/102/102
f 108/108/108 107/107/107 106/106/106
f 109/109/109 108/108/108 106/106/106
f 112/112/112 111/111/111 110/110/110
f 111/111/111 113/113/113 110/110/110
f 110/110/110 113/113/113 114/114/114
f 117/117/117 116/116/116 115/115/115
f 118/118/118 117/117/117 115/115/115
f 121/121/121 120/120/120 119/119/119
f 122/122/122 119/119/119 120/120/120
f 123/123/123 122/122/122 120/120/120
f 119/119/119 122/122/122 124/124/124
f 127/127/127 126/126/126 125/125/125
f 128/128/128 127/127/127 125/125/125
