g Door_Left_LOD1
v 0.1585637 1.174947 -0.04105165
v 0.1585637 1.274834 -0.04105165
v 0.4817035 1.274834 0.04078185
v 0.1585637 1.274834 -0.04105165
v 0.4817035 1.274834 -0.04105165
v 0.4817035 1.274834 0.04078185
v 0.1585637 1.274834 -0.04105165
v 0.1585637 1.174947 -0.04105165
v 0.4817035 1.274834 -0.04105165
v 0.1585637 1.174947 -0.04105165
v 0.4817035 1.274834 0.04078185
v 0.4817035 1.274834 -0.04105165
v 0.4817035 0.4744922 0.04078185
v 0.4817035 1.075777 -0.04105165
v 0.4817035 0.4744922 -0.04105165
v 0.1585637 0.4744922 -0.04105165
v 0.1585637 1.075777 -0.04105165
v 0.1585637 0.4744922 0.04078185
v 0.4817035 -1.276141 0.04078185
v 0.4817035 -1.176254 -0.04105165
v 0.4817035 -1.276141 -0.04105165
v 0.1585637 -1.276141 -0.04105165
v 0.1585637 -1.176254 -0.04105165
v 0.1585637 -1.276141 0.04078185
v 0.1585637 -0.4723584 0.04078185
v 0.1585637 -0.4723584 -0.04105165
v 0.4817035 -0.4723584 -0.04105165
v 0.1585637 -1.073643 -0.04105165
v 0.1585637 -1.073643 0.04078185
v 0.4817035 -1.073643 -0.04105165
v -0.2245361 0.4319299 -0.05
v 0.1360148 0.1552029 0.05
v -0.07060745 0.1555334 -0.05
v -0.07060745 0.1555334 -0.05
v 0.1360148 0.1552029 0.05
v -0.2245361 -0.1224293 -0.05
v -0.3595024 -0.1224293 -0.05
v -0.2245361 -0.1224293 -0.05
v -0.1718452 -1.301221 0.05
v -0.142455 -1.547459 0.05
v -0.1718452 -1.301221 0.05
v 0.1127046 -1.301221 0.05
v 0.6159952 -1.624797 0.05
v -0.04312836 -1.624797 0.05
v 0.4933945 -1.496457 0.05
v 0.6159952 0.1552029 0.05
v 0.4933945 0.1552028 0.05
v 0.6159952 1.624797 0.05
v 0.4933944 1.298883 0.05
v -0.5325946 1.580815 0.05
v 0.2457217 1.496783 0.05
v -0.5827456 1.298883 0.04999999
v 0.1229008 1.298883 0.05
v -0.446983 0.4303634 -0.05
v -0.5827456 1.298883 0.04999999
v -0.2245361 0.4319299 -0.05
v 0.2457217 1.496783 0.05
v 0.2477047 1.298235 0.00996263
v 0.1229008 1.298883 0.05
v 0.1127046 -1.301221 0.05
v 0.2477046 -1.301221 0.00996263
v -0.142455 -1.547459 0.05
v 0.2477046 -1.301221 0.00996263
v 0.4933945 -1.496457 0.05
v -0.142455 -1.547459 0.05
v 0.2457217 1.496783 -0.05
v 0.1229008 1.298883 -0.05
v 0.2477047 1.298235 -0.00996263
v 0.1127046 -1.301221 -0.05
v -0.142455 -1.547459 -0.05
v 0.2477046 -1.301221 -0.00996263
v 0.2477046 -1.301221 -0.00996263
v -0.142455 -1.547459 -0.05
v 0.4933945 -1.496457 -0.05
v 0.1585637 0.4744922 0.04078185
v 0.1585637 1.075777 -0.04105165
v 0.4817035 1.075777 -0.04105165
v 0.4817035 0.4744922 0.04078185
v 0.1585637 1.075777 -0.04105165
v 0.1585637 0.4744922 -0.04105165
v 0.4817035 0.4744922 -0.04105165
v 0.4817035 1.075777 -0.04105165
v 0.1585637 0.4744922 -0.04105165
v 0.1585637 0.4744922 0.04078185
v 0.4817035 0.4744922 0.04078185
v 0.4817035 0.4744922 -0.04105165
v 0.1585637 -1.276141 0.04078185
v 0.1585637 -1.176254 -0.04105165
v 0.4817035 -1.176254 -0.04105165
v 0.4817035 -1.276141 0.04078185
v 0.1585637 -1.176254 -0.04105165
v 0.1585637 -1.276141 -0.04105165
v 0.4817035 -1.276141 -0.04105165
v 0.4817035 -1.176254 -0.04105165
v 0.1585637 -1.276141 -0.04105165
v 0.1585637 -1.276141 0.04078185
v 0.4817035 -1.276141 0.04078185
v 0.4817035 -1.276141 -0.04105165
v 0.1585637 -1.073643 0.04078185
v 0.1585637 -0.4723584 0.04078185
v 0.4817035 -0.4723584 -0.04105165
v 0.4817035 -1.073643 -0.04105165
v 0.1585637 -0.4723584 -0.04105165
v 0.1585637 -1.073643 -0.04105165
v 0.4817035 -1.073643 -0.04105165
v 0.4817035 -0.4723584 -0.04105165
v 0.1585637 -1.073643 -0.04105165
v 0.1585637 -0.4723584 -0.04105165
v 0.1585637 -0.4723584 0.04078185
v 0.1585637 -1.073643 0.04078185
v -0.1718452 -1.301221 0.05
v -0.2245361 -0.1224293 -0.05
v 0.1360148 0.1552029 0.05
v 0.1127046 -1.301221 0.05
v 0.4933945 -1.496457 0.05
v 0.2477046 -1.301221 0.00996263
v 0.2477048 0.1552029 0.00996263
v 0.4933945 0.1552028 0.05
v 0.2477047 1.298235 0.00996263
v 0.4933944 1.298883 0.05
v 0.2457217 1.496783 0.05
v 0.6159952 1.624797 0.05
v 0.4933944 1.298883 0.05
v 0.2477047 1.298235 0.00996263
v 0.1229008 1.298883 0.05
v 0.1360148 0.1552029 0.05
v -0.2245361 0.4319299 -0.05
v -0.5827456 1.298883 0.04999999
v 0.1360148 0.1552029 0.05
v 0.2477046 -1.301221 0.00996263
v 0.1127046 -1.301221 0.05
v 0.2477048 0.1552029 0.00996263
v 0.1229008 1.298883 0.05
v 0.2477047 1.298235 0.00996263
v 0.6159952 -1.624797 -0.05
v -0.142455 -1.547459 -0.05
v -0.04312836 -1.624797 -0.05
v 0.4933945 -1.496457 -0.05
v 0.6159952 0.1552029 -0.05
v 0.4933945 0.1552028 -0.05
v 0.6159952 1.624797 -0.05
v 0.4933944 1.298883 -0.05
v -0.5325946 1.580815 -0.05
v 0.2457217 1.496783 -0.05
v 0.1229008 1.298883 -0.05
v -0.5827456 1.298883 -0.04999999
v -0.2245361 0.4319299 -0.05
v -0.446983 0.4303634 -0.05
v 0.1360148 0.1552029 -0.05
v -0.07060745 0.1555334 -0.05
v -0.2245361 -0.1224293 -0.05
v -0.1718452 -1.301221 -0.05
v -0.3595024 -0.1224293 -0.05
v 0.1127046 -1.301221 -0.05
v 0.4933945 -1.496457 -0.05
v 0.2477048 0.1552029 -0.00996263
v 0.2477046 -1.301221 -0.00996263
v 0.4933945 0.1552028 -0.05
v 0.2477047 1.298235 -0.00996263
v 0.4933944 1.298883 -0.05
v 0.2457217 1.496783 -0.05
v 0.2477047 1.298235 -0.00996263
v 0.4933944 1.298883 -0.05
v 0.6159952 1.624797 -0.05
v -0.5827456 1.298883 0.04999999
v -0.446983 0.4303634 -0.05
v -0.5827456 1.298883 -0.04999999
v -0.5325946 1.580815 0.05
v -0.5325946 1.580815 -0.05
v 0.6159952 1.624797 0.05
v -0.5325946 1.580815 0.05
v -0.5325946 1.580815 -0.05
v 0.6159952 1.624797 -0.05
v 0.6159952 0.1552029 0.05
v 0.6159952 1.624797 0.05
v 0.6159952 1.624797 -0.05
v 0.6159952 0.1552029 -0.05
v 0.6159952 -1.624797 0.05
v 0.6159952 -1.624797 -0.05
v -0.04312836 -1.624797 0.05
v 0.6159952 -1.624797 0.05
v 0.6159952 -1.624797 -0.05
v -0.04312836 -1.624797 -0.05
v 0.1360148 0.1552029 -0.05
v 0.1127046 -1.301221 -0.05
v 0.2477046 -1.301221 -0.00996263
v 0.2477048 0.1552029 -0.00996263
v 0.1229008 1.298883 -0.05
v 0.2477047 1.298235 -0.00996263
v -0.142455 -1.547459 0.05
v -0.142455 -1.547459 -0.05
v -0.1718452 -1.301221 -0.05
v -0.1718452 -1.301221 0.05
v -0.3595024 -0.1224293 -0.05
v -0.04312836 -1.624797 0.05
v -0.04312836 -1.624797 -0.05
v -0.142455 -1.547459 -0.05
v -0.142455 -1.547459 0.05
vt 0.2351752 0.8584806
vt 0.1683694 0.8584807
vt 0.1891129 0.9403905
vt 0.1683694 0.8584807
vt 0.16837 0.9403901
vt 0.1891129 0.9403905
vt 0.2604945 0.8584805
vt 0.2351752 0.8584806
vt 0.2604947 0.9403899
vt 0.2351752 0.8584806
vt 0.1891129 0.9403905
vt 0.2604947 0.9403899
vt 0.8896451 0.9721073
vt 0.8689021 0.8196937
vt 0.8689021 0.9721071
vt 0.9922975 0.9721073
vt 0.9715544 0.7989507
vt 0.9715546 0.9721072
vt 0.0877651 0.8443349
vt 0.06244516 0.8650777
vt 0.08776456 0.8650779
vt 0.08776432 0.9469869
vt 0.06244498 0.9469868
vt 0.08776405 0.9677303
vt 0.5896791 0.9744318
vt 0.5896791 0.9951749
vt 0.6923316 0.9744319
vt 0.5896791 0.8012755
vt 0.5896791 0.8220184
vt 0.6923316 0.8220184
vt 0.9179862 0.2499149
vt 0.8424481 0.3078913
vt 0.885737 0.3078222
vt 0.885737 0.3078222
vt 0.8424481 0.3078913
vt 0.9179862 0.3660575
vt 0.9462626 0.3660575
vt 0.9179862 0.3660575
vt 0.906947 0.6130235
vt 0.9007896 0.6646123
vt 0.906947 0.6130235
vt 0.8473316 0.6130235
vt 0.7418883 0.6808151
vt 0.8799798 0.6808151
vt 0.7675741 0.6539268
vt 0.7418884 0.3078913
vt 0.7675743 0.3078913
vt 0.7418885 0
vt 0.7675743 0.06828155
vt 0.9825269 0.009214573
vt 0.8194636 0.02681991
vt 0.9930341 0.06828164
vt 0.8451956 0.06828161
vt 0.9645906 0.2502432
vt 0.9930341 0.06828164
vt 0.9179862 0.2499149
vt 0.8194636 0.02681991
vt 0.8190482 0.0684173
vt 0.8451956 0.06828161
vt 0.8473316 0.6130235
vt 0.819048 0.6130235
vt 0.9007896 0.6646123
vt 0.819048 0.6130235
vt 0.7675741 0.6539268
vt 0.9007896 0.6646123
vt 0.6433623 0.02681988
vt 0.6176304 0.06828161
vt 0.6437778 0.0684173
vt 0.6154943 0.6130235
vt 0.5620363 0.6646123
vt 0.6437778 0.6130235
vt 0.6437778 0.6130235
vt 0.5620363 0.6646123
vt 0.6952517 0.6539268
vt 0.9715546 0.9721072
vt 0.9715544 0.7989507
vt 0.8689021 0.8196937
vt 0.8896451 0.9721073
vt 0.7869928 0.8196937
vt 0.7869929 0.9721073
vt 0.8689021 0.9721071
vt 0.8689021 0.8196937
vt 0.9715544 0.9928503
vt 0.9715546 0.9721072
vt 0.8896451 0.9721073
vt 0.8896453 0.9928503
vt 0.01638246 0.9469868
vt 0.06244498 0.9469868
vt 0.06244516 0.8650777
vt 0.01638246 0.8650776
vt 0.06244498 0.9469868
vt 0.08776432 0.9469869
vt 0.08776456 0.8650779
vt 0.06244516 0.8650777
vt 0.08776432 0.9469869
vt 0.1085075 0.9469869
vt 0.1085078 0.8650777
vt 0.08776456 0.8650779
vt 0.5896791 0.8220184
vt 0.5896791 0.9744318
vt 0.6923316 0.9744319
vt 0.6923316 0.8220184
vt 0.7742407 0.9744319
vt 0.7742407 0.8220184
vt 0.6923316 0.8220184
vt 0.6923316 0.9744319
vt 0.5689361 0.8220184
vt 0.5689361 0.974432
vt 0.5896791 0.9744318
vt 0.5896791 0.8220184
vt 0.906947 0.6130235
vt 0.9179862 0.3660575
vt 0.8424481 0.3078913
vt 0.8473316 0.6130235
vt 0.7675741 0.6539268
vt 0.819048 0.6130235
vt 0.8190481 0.3078913
vt 0.7675743 0.3078913
vt 0.8190482 0.0684173
vt 0.7675743 0.06828155
vt 0.8194636 0.02681991
vt 0.7418885 0
vt 0.7675743 0.06828155
vt 0.8190482 0.0684173
vt 0.8451956 0.06828161
vt 0.8424481 0.3078913
vt 0.9179862 0.2499149
vt 0.9930341 0.06828164
vt 0.8424481 0.3078913
vt 0.819048 0.6130235
vt 0.8473316 0.6130235
vt 0.8190481 0.3078913
vt 0.8451956 0.06828161
vt 0.8190482 0.0684173
vt 0.7209375 0.6808151
vt 0.5620363 0.6646123
vt 0.582846 0.6808151
vt 0.6952517 0.6539268
vt 0.7209376 0.3078913
vt 0.6952517 0.3078914
vt 0.7209376 2.328306E-10
vt 0.6952517 0.06828161
vt 0.4802991 0.009214515
vt 0.6433623 0.02681988
vt 0.6176304 0.06828161
vt 0.4697919 0.06828161
vt 0.5448397 0.2499149
vt 0.4982353 0.2502431
vt 0.6203779 0.3078914
vt 0.5770889 0.3078221
vt 0.5448397 0.3660576
vt 0.5558789 0.6130235
vt 0.5165632 0.3660576
vt 0.6154943 0.6130235
vt 0.6952517 0.6539268
vt 0.6437778 0.3078914
vt 0.6437778 0.6130235
vt 0.6952517 0.3078914
vt 0.6437778 0.0684173
vt 0.6952517 0.06828161
vt 0.6433623 0.02681988
vt 0.6437778 0.0684173
vt 0.6952517 0.06828161
vt 0.7209376 2.328306E-10
vt 0.2831494 0.7644433
vt 0.1101654 0.7843604
vt 0.2831494 0.7843603
vt 0.3393021 0.7644432
vt 0.3393021 0.7843603
vt 0.5784183 0.7644485
vt 0.3393021 0.7644432
vt 0.3393021 0.7843603
vt 0.5784178 0.7843657
vt 0.7418884 0.3078913
vt 0.7418885 0
vt 0.7209376 2.328306E-10
vt 0.7209376 0.3078913
vt 0.7418883 0.6808151
vt 0.7209375 0.6808151
vt 0.1464992 0.7151963
vt 0.01581019 0.7152384
vt 0.01581651 0.7350659
vt 0.1465054 0.735024
vt 0.6203779 0.3078914
vt 0.6154943 0.6130235
vt 0.6437778 0.6130235
vt 0.6437778 0.3078914
vt 0.6176304 0.06828161
vt 0.6437778 0.0684173
vt 0.1749154 0.7151914
vt 0.1749187 0.7350191
vt 0.2237427 0.735008
vt 0.2237381 0.7151802
vt 0.4574687 0.734955
vt 0.1464992 0.7151963
vt 0.1465054 0.735024
vt 0.1749187 0.7350191
vt 0.1749154 0.7151914
vn -0.2454947 0 0.9693979
vn -0.2454948 0 0.9693979
vn -0.2454947 0 0.9693979
vn 0 1 0
vn 0 1 0
vn 0 1 0
vn 0 0 -1
vn 0 0 -1
vn 0 0 -1
vn 0.2953265 -0.9553964 0
vn 0.2953265 -0.9553964 0
vn 0.2953265 -0.9553964 0
vn 1 0 0
vn 1 0 0
vn 1 0 0
vn -1 0 0
vn -1 0 0
vn -1 0 0
vn 1 0 0
vn 1 0 0
vn 1 0 0
vn -1 0 0
vn -1 0 0
vn -1 0 0
vn 0 1 0
vn 0 1 0
vn 0 1 0
vn 0 -1 0
vn 0 -1 0
vn 0 -1 0
vn -0.4236442 -0.2359327 0.8745635
vn -0.4236442 -0.2359328 0.8745635
vn -0.4236443 -0.2359328 0.8745635
vn -0.4232007 0.2343577 0.8752015
vn -0.4232007 0.2343577 0.8752015
vn -0.4232008 0.2343577 0.8752015
vn 0 0.08452901 0.9964211
vn 0 0.084529 0.9964211
vn 0 0.08452901 0.9964211
vn 0 0 1
vn 0 0 1
vn 0 0 1
vn 0 0 1
vn 0 0 1
vn 0 0 1
vn 0 0 1
vn 0 0 1
vn 0 0 1
vn 0 0 1
vn 0 0 1
vn 0 0 1
vn 0 0 1
vn 0 0 1
vn 0.0008046065 -0.1142585 0.9934506
vn 0.0008046065 -0.1142585 0.9934506
vn 0.0008046065 -0.1142585 0.9934506
vn 0.2992794 -0.1857386 0.935913
vn 0.2992794 -0.1857386 0.935913
vn 0.2992794 -0.1857386 0.9359129
vn 0.2727405 -0.2826215 0.9196399
vn 0.2727405 -0.2826216 0.9196399
vn 0.2727405 -0.2826215 0.9196399
vn -0.01468674 0.1831 0.9829846
vn -0.01468674 0.1831 0.9829846
vn -0.01468674 0.1831 0.9829846
vn 0.2992793 -0.1857385 -0.935913
vn 0.2992793 -0.1857385 -0.935913
vn 0.2992792 -0.1857385 -0.935913
vn 0.2727405 -0.2826215 -0.9196399
vn 0.2727405 -0.2826215 -0.9196399
vn 0.2727405 -0.2826216 -0.9196399
vn -0.01468674 0.1831 -0.9829846
vn -0.01468674 0.1831 -0.9829846
vn -0.01468674 0.1831 -0.9829846
vn 0 0.1348545 0.9908654
vn 0 0.1348545 0.9908654
vn 0 0.1348545 0.9908654
vn 0 0.1348545 0.9908654
vn 0 0 -1
vn 0 0 -1
vn 0 0 -1
vn 0 0 -1
vn 0 -1 0
vn 0 -1 0
vn 0 -1 0
vn 0 -1 0
vn 0 0.6337364 0.7735491
vn 0 0.6337364 0.7735491
vn 0 0.6337364 0.7735491
vn 0 0.6337364 0.7735491
vn 0 0 -1
vn 0 0 -1
vn 0 0 -1
vn 0 0 -1
vn 0 -1 0
vn 0 -1 0
vn 0 -1 0
vn 0 -1 0
vn 0.2454951 0 0.9693979
vn 0.2454951 0 0.9693979
vn 0.2454951 0 0.9693979
vn 0.2454951 0 0.9693979
vn 0 0 -1
vn 0 0 -1
vn 0 0 -1
vn 0 0 -1
vn -1 0 0
vn -1 0 0
vn -1 0 0
vn -1 0 0
vn -0.1679951 0.03551094 0.985148
vn -0.1679951 0.03551094 0.985148
vn -0.1679951 0.03551094 0.985148
vn -0.1679951 0.03551094 0.985148
vn -0.1608375 0 0.9869809
vn -0.1608375 0 0.9869809
vn -0.1608375 0 0.9869809
vn -0.1608375 0 0.9869809
vn -0.1608376 0 0.9869809
vn -0.1608376 0 0.9869809
vn -0.05135453 -0.06427031 0.9966102
vn -0.05135453 -0.0642703 0.9966102
vn -0.05135453 -0.0642703 0.9966102
vn -0.05135453 -0.0642703 0.9966102
vn -0.1111028 -0.06982397 0.991353
vn -0.1111028 -0.06982397 0.991353
vn -0.1111028 -0.069824 0.991353
vn -0.1111028 -0.06982398 0.991353
vn 0.308738 -0.002470707 0.9511439
vn 0.308738 -0.002470707 0.9511439
vn 0.308738 -0.002470708 0.9511439
vn 0.308738 -0.002470708 0.9511439
vn 0.3207102 0.001839238 0.9471755
vn 0.3207102 0.001839238 0.9471755
vn 0 0 -1
vn 0 0 -1
vn 0 0 -1
vn 0 0 -1
vn 0 0 -1
vn 0 0 -1
vn 0 0 -1
vn 0 0 -1
vn 0 0 -1
vn 0 0 -1
vn 0 0 -1
vn 0 0 -1
vn 0 0 -1
vn 0 0 -1
vn 0 0 -1
vn 0 0 -1
vn 0 0 -1
vn 0 0 -1
vn 0 0 -1
vn 0 0 -1
vn -0.1608375 0 -0.9869809
vn -0.1608375 0 -0.9869809
vn -0.1608375 0 -0.9869809
vn -0.1608375 0 -0.9869809
vn -0.1608376 0 -0.9869809
vn -0.1608376 0 -0.9869809
vn -0.05135455 -0.06427033 -0.9966102
vn -0.05135455 -0.06427033 -0.9966102
vn -0.05135455 -0.06427033 -0.9966102
vn -0.05135454 -0.06427032 -0.9966102
vn -0.9998245 -0.01873787 0
vn -0.9880023 -0.1544395 0
vn -0.9996938 -0.02474879 0
vn -0.9845448 0.1751334 0
vn -0.9845448 0.1751334 0
vn -0.0382638 0.9992676 0
vn -0.0382638 0.9992676 0
vn -0.0382638 0.9992676 0
vn -0.0382638 0.9992676 0
vn 1 0 0
vn 1 0 0
vn 1 0 0
vn 1 0 0
vn 1 0 0
vn 1 0 0
vn 0 -1 0
vn 0 -1 0
vn 0 -1 0
vn 0 -1 0
vn 0.308738 -0.002470707 -0.9511439
vn 0.308738 -0.002470708 -0.9511439
vn 0.308738 -0.002470707 -0.9511439
vn 0.308738 -0.002470708 -0.9511439
vn 0.3207102 0.001839238 -0.9471755
vn 0.3207102 0.001839238 -0.9471755
vn -0.9929522 -0.1185152 0
vn -0.9929522 -0.1185152 0
vn -0.9929522 -0.1185152 0
vn -0.9929522 -0.1185152 0
vn -0.9875644 -0.1572149 0
vn -0.6143543 -0.7890303 0
vn -0.6143543 -0.7890303 0
vn -0.6143543 -0.7890303 0
vn -0.6143543 -0.7890303 0
g Door_Left_LOD1_0
f 3/3/3 2/2/2 1/1/1
f 6/6/6 5/5/5 4/4/4
f 9/9/9 8/8/8 7/7/7
f 12/12/12 11/11/11 10/10/10
f 15/15/15 14/14/14 13/13/13
f 18/18/18 17/17/17 16/16/16
f 21/21/21 20/20/20 19/19/19
f 24/24/24 23/23/23 22/22/22
f 27/27/27 26/26/26 25/25/25
f 30/30/30 29/29/29 28/28/28
f 33/33/33 32/32/32 31/31/31
f 36/36/36 35/35/35 34/34/34
f 39/39/39 38/38/38 37/37/37
f 42/42/42 41/41/41 40/40/40
f 40/40/40 44/44/44 43/43/43
f 45/45/45 40/40/40 43/43/43
f 45/45/45 43/43/43 46/46/46
f 47/47/47 45/45/45 46/46/46
f 47/47/47 46/46/46 48/48/48
f 49/49/49 47/47/47 48/48/48
f 51/51/51 48/48/48 50/50/50
f 50/50/50 52/52/52 51/51/51
f 52/52/52 53/53/53 51/51/51
f 56/56/56 55/55/55 54/54/54
f 59/59/59 58/58/58 57/57/57
f 62/62/62 61/61/61 60/60/60
f 65/65/65 64/64/64 63/63/63
f 68/68/68 67/67/67 66/66/66
f 71/71/71 70/70/70 69/69/69
f 74/74/74 73/73/73 72/72/72
f 77/77/77 76/76/76 75/75/75
f 78/78/78 77/77/77 75/75/75
f 81/81/81 80/80/80 79/79/79
f 82/82/82 81/81/81 79/79/79
f 85/85/85 84/84/84 83/83/83
f 86/86/86 85/85/85 83/83/83
f 89/89/89 88/88/88 87/87/87
f 90/90/90 89/89/89 87/87/87
f 93/93/93 92/92/92 91/91/91
f 94/94/94 93/93/93 91/91/91
f 97/97/97 96/96/96 95/95/95
f 98/98/98 97/97/97 95/95/95
f 101/101/101 100/100/100 99/99/99
f 102/102/102 101/101/101 99/99/99
f 105/105/105 104/104/104 103/103/103
f 106/106/106 105/105/105 103/103/103
f 109/109/109 108/108/108 107/107/107
f 110/110/110 109/109/109 107/107/107
f 113/113/113 112/112/112 111/111/111
f 114/114/114 113/113/113 111/111/111
f 117/117/117 116/116/116 115/115/115
f 118/118/118 117/117/117 115/115/115
f 119/119/119 117/117/117 118/118/118
f 120/120/120 119/119/119 118/118/118
f 123/123/123 122/122/122 121/121/121
f 124/124/124 123/123/123 121/121/121
f 127/127/127 126/126/126 125/125/125
f 128/128/128 127/127/127 125/125/125
f 131/131/131 130/130/130 129/129/129
f 130/130/130 132/132/132 129/129/129
f 129/129/129 132/132/132 133/133/133
f 132/132/132 134/134/134 133/133/133
f 137/137/137 136/136/136 135/135/135
f 136/136/136 138/138/138 135/135/135
f 135/135/135 138/138/138 139/139/139
f 138/138/138 140/140/140 139/139/139
f 139/139/139 140/140/140 141/141/141
f 140/140/140 142/142/142 141/141/141
f 141/141/141 144/144/144 143/143/143
f 144/144/144 145/145/145 143/143/143
f 145/145/145 146/146/146 143/143/143
f 147/147/147 146/146/146 145/145/145
f 146/146/146 147/147/147 148/148/148
f 149/149/149 147/147/147 145/145/145
f 149/149/149 150/150/150 147/147/147
f 149/149/149 151/151/151 150/150/150
f 151/151/151 149/149/149 152/152/152
f 151/151/151 152/152/152 153/153/153
f 149/149/149 154/154/154 152/152/152
f 152/152/152 154/154/154 136/136/136
f 157/157/157 156/156/156 155/155/155
f 156/156/156 158/158/158 155/155/155
f 156/156/156 159/159/159 158/158/158
f 159/159/159 160/160/160 158/158/158
f 163/163/163 162/162/162 161/161/161
f 164/164/164 163/163/163 161/161/161
f 167/167/167 166/166/166 165/165/165
f 167/167/167 165/165/165 168/168/168
f 169/169/169 167/167/167 168/168/168
f 172/172/172 171/171/171 170/170/170
f 173/173/173 172/172/172 170/170/170
f 176/176/176 175/175/175 174/174/174
f 177/177/177 176/176/176 174/174/174
f 177/177/177 174/174/174 178/178/178
f 179/179/179 177/177/177 178/178/178
f 182/182/182 181/181/181 180/180/180
f 183/183/183 182/182/182 180/180/180
f 186/186/186 185/185/185 184/184/184
f 187/187/187 186/186/186 184/184/184
f 187/187/187 184/184/184 188/188/188
f 189/189/189 187/187/187 188/188/188
f 192/192/192 191/191/191 190/190/190
f 193/193/193 192/192/192 190/190/190
f 194/194/194 192/192/192 193/193/193
f 197/197/197 196/196/196 195/195/195
f 198/198/198 197/197/197 195/195/195
