g Eyelashes
v -0.05103024 1.69807 0.1004535
v -0.05428802 1.695877 0.09585966
v -0.04505975 1.701593 0.1071463
v -0.03740239 1.702073 0.1102659
v -0.03320855 1.701023 0.1102526
v -0.02575423 1.695722 0.1077899
v -0.05736222 1.694276 0.09295362
v -0.04950657 1.692368 0.1014368
v -0.05261587 1.694352 0.09551539
v -0.0341141 1.689022 0.1080238
v -0.02644432 1.690086 0.1063261
v -0.04151177 1.702176 0.1094086
v -0.04632872 1.690235 0.1047721
v -0.03816985 1.688336 0.1077775
v -0.05886281 1.700936 0.1093434
v -0.06281336 1.69762 0.1041393
v -0.05170545 1.704329 0.1149819
v -0.03757223 1.705186 0.118586
v -0.0452351 1.705778 0.1175713
v -0.03070287 1.703198 0.1190443
v -0.01989283 1.695509 0.116029
v -0.06508111 1.694895 0.100113
v -0.05478266 1.689248 0.1041566
v -0.0499441 1.686568 0.1081167
v -0.0597265 1.691793 0.097523
v -0.06082885 1.692593 0.09424392
v -0.03246296 1.684178 0.1124261
v -0.02335504 1.686098 0.110459
v -0.0380518 1.6835 0.1120747
v -0.06177104 1.693844 0.09703074
v -0.05931915 1.695923 0.1011724
v -0.05495125 1.698497 0.1064335
v -0.048208 1.701697 0.111787
v -0.04322015 1.702611 0.1138264
v -0.0378366 1.702218 0.114415
v -0.0324423 1.700699 0.1146881
v -0.02307569 1.694186 0.1125514
v -0.02963333 1.698597 0.1092703
v -0.02804269 1.697931 0.1138248
v -0.02580651 1.699883 0.1178152
v -0.04437579 1.684297 0.1103182
v -0.04281227 1.688813 0.106915
v -0.0282623 1.68512 0.1113488
v -0.0308792 1.689672 0.10731
v 0.05096457 1.698133 0.1004619
v 0.05423552 1.695889 0.09587367
v 0.04507706 1.701599 0.1070807
v 0.03743853 1.701983 0.1102106
v 0.03338497 1.700904 0.1102036
v 0.02587862 1.695414 0.1076884
v 0.05733887 1.694276 0.09271491
v 0.04944591 1.69233 0.1014468
v 0.05252109 1.694601 0.09559223
v 0.0341001 1.688927 0.1080594
v 0.02648185 1.690051 0.1063136
v 0.04151361 1.702176 0.1093451
v 0.04632933 1.690235 0.1046985
v 0.03814509 1.688326 0.1077375
v 0.05890759 1.700933 0.1092629
v 0.06285843 1.697614 0.1040584
v 0.05174593 1.70433 0.1149058
v 0.03761289 1.705187 0.1185028
v 0.04527826 1.705779 0.1174904
v 0.03074395 1.703197 0.118961
v 0.01993766 1.69551 0.1159471
v 0.06512642 1.694891 0.1000324
v 0.05481738 1.68925 0.1040133
v 0.04997535 1.686569 0.1079758
v 0.0598455 1.691778 0.09725895
v 0.06090747 1.692545 0.09381939
v 0.03249419 1.684178 0.1122814
v 0.02338789 1.686096 0.1103275
v 0.03808146 1.683499 0.1119272
v 0.06195944 1.693805 0.09687305
v 0.05939284 1.695905 0.1010712
v 0.05499606 1.698441 0.1063494
v 0.04824759 1.70169 0.1117108
v 0.04326003 1.702612 0.1137471
v 0.03787592 1.702219 0.1143315
v 0.03248337 1.700699 0.114605
v 0.02312052 1.694187 0.1124695
v 0.02970395 1.69847 0.1092112
v 0.0280878 1.69793 0.1137427
v 0.02585135 1.699884 0.1177333
v 0.04440368 1.684299 0.1101773
v 0.04281306 1.688813 0.1068267
v 0.02829753 1.685121 0.1112042
v 0.03090995 1.689727 0.1073089
v 0.04851592 1.699958 0.1041537
v 0.0515621 1.700233 0.1091243
v 0.05509817 1.70295 0.1122777
v -0.05517755 1.702896 0.1122608
v -0.05163326 1.700202 0.10911
v -0.04851501 1.699926 0.1042041
v -0.02577869 1.685568 0.1108915
v -0.02835148 1.690002 0.1067346
v 0.02581286 1.685569 0.1107525
v 0.02838182 1.690007 0.1067152
vt 0.573381 0.672524
vt 0.571148 0.685095
vt 0.574659 0.660308
vt 0.576062 0.638748
vt 0.574914 0.628722
vt 0.57113 0.612695
vt 0.569563 0.693488
vt 0.554823 0.629698
vt 0.551678 0.614218
vt 0.555791 0.672737
vt 0.552863 0.688624
vt 0.576275 0.648906
vt 0.555852 0.641334
vt 0.556769 0.663255
vt 0.594133 0.675579
vt 0.592035 0.68717
vt 0.59634 0.662612
vt 0.593658 0.636493
vt 0.59545 0.649102
vt 0.591525 0.625134
vt 0.586978 0.603773
vt 0.589518 0.696159
vt 0.567813 0.625959
vt 0.568444 0.64097
vt 0.565499 0.609283
vt 0.562092 0.60265
vt 0.567726 0.676229
vt 0.564045 0.695757
vt 0.568962 0.665289
vt 0.580536 0.695102
vt 0.583119 0.686618
vt 0.584284 0.674309
vt 0.585321 0.661483
vt 0.585605 0.649671
vt 0.584965 0.637768
vt 0.58278 0.626313
vt 0.579343 0.606872
vt 0.573313 0.621497
vt 0.581045 0.617351
vt 0.589297 0.615552
vt 0.569003 0.653265
vt 0.557315 0.652701
vt 0.565674 0.685228
vt 0.553936 0.680915
vt 0.526537 0.672524
vt 0.528771 0.685095
vt 0.525259 0.660308
vt 0.523856 0.638748
vt 0.525004 0.628722
vt 0.528788 0.612695
vt 0.530355 0.693488
vt 0.545095 0.629698
vt 0.54824 0.614218
vt 0.544127 0.672737
vt 0.547056 0.688624
vt 0.523643 0.648906
vt 0.544066 0.641334
vt 0.543149 0.663255
vt 0.505785 0.675579
vt 0.507883 0.68717
vt 0.503578 0.662612
vt 0.50626 0.636493
vt 0.504468 0.649102
vt 0.508394 0.625134
vt 0.51294 0.603773
vt 0.5104 0.696159
vt 0.532105 0.625959
vt 0.531475 0.64097
vt 0.53442 0.609283
vt 0.537826 0.60265
vt 0.532193 0.676229
vt 0.535873 0.695757
vt 0.530956 0.665289
vt 0.519382 0.695102
vt 0.516799 0.686618
vt 0.515634 0.674309
vt 0.514597 0.661483
vt 0.514313 0.649671
vt 0.514953 0.637768
vt 0.517138 0.626313
vt 0.520575 0.606872
vt 0.526605 0.621497
vt 0.518873 0.617351
vt 0.510621 0.615552
vt 0.530915 0.653265
vt 0.542603 0.652701
vt 0.534244 0.685228
vt 0.545982 0.680915
vt 0.525877 0.666214
vt 0.515098 0.667684
vt 0.504645 0.668881
vt 0.595237 0.669096
vt 0.584803 0.667896
vt 0.57402 0.666416
vt 0.56486 0.690493
vt 0.5534 0.68477
vt 0.535058 0.690493
vt 0.546519 0.68477
vn 0.2646367 -0.92621 0.2685191
vn 0.2641509 -0.9273051 0.2651968
vn 0.1953159 -0.9663914 0.1671507
vn -0.1137206 -0.9922964 0.04914594
vn -0.3648451 -0.9300956 0.04254875
vn -0.5749385 -0.8109496 0.1086579
vn 0.2725124 -0.9267873 0.2584615
vn -0.2630414 0.8120162 0.5209979
vn -0.2965222 0.8862663 0.3558183
vn 0.0006685486 0.641939 0.7667554
vn -0.1084696 0.639402 0.7611828
vn 0.06487068 -0.9929924 0.09878153
vn -0.2034248 0.7173317 0.6663736
vn -0.09187835 0.6337866 0.7680318
vn -0.08155604 -0.8339798 0.5457346
vn -0.01377551 -0.8645843 0.5022988
vn -0.1023488 -0.839327 0.5339055
vn -0.1454487 -0.8464749 0.5121767
vn -0.0830214 -0.838797 0.5380772
vn -0.2791717 -0.8177811 0.5032864
vn -0.3924889 -0.7408796 0.5450228
vn 0.04017053 -0.8781332 0.4767267
vn -0.2630025 0.8120216 0.5210092
vn -0.2034561 0.717333 0.6663626
vn -0.2965463 0.8862612 0.355811
vn -0.3028403 0.9117455 0.2775028
vn 0.0006869166 0.6419316 0.7667616
vn -0.1084754 0.639402 0.7611821
vn -0.09184854 0.6337783 0.7680423
vn 0.1584352 -0.9144275 0.3724521
vn 0.1275207 -0.9117714 0.3903989
vn 0.09404024 -0.903584 0.4179623
vn 0.04773756 -0.931061 0.3617272
vn -0.009420013 -0.9444221 0.3286006
vn -0.133627 -0.947722 0.2897702
vn -0.3315934 -0.9002264 0.2822025
vn -0.4981598 -0.7990846 0.3366017
vn -0.5383133 -0.8383591 0.0858649
vn -0.4677965 -0.82507 0.3169003
vn -0.369949 -0.7635579 0.5292608
vn -0.1453384 0.6504952 0.7454749
vn -0.1453125 0.6504964 0.7454789
vn 0.0003362615 0.632377 0.7746607
vn 0.0003355807 0.6323739 0.7746632
vn -0.2634018 -0.9264162 0.2690212
vn -0.262988 -0.9273922 0.2660467
vn -0.1944474 -0.966388 0.1681802
vn 0.1137508 -0.9923404 0.04817851
vn 0.3652763 -0.9300544 0.03964937
vn 0.5760298 -0.810698 0.1046822
vn -0.2713276 -0.9268773 0.2593835
vn 0.261914 0.8127306 0.5204517
vn 0.2952429 0.8868363 0.3554617
vn -0.0007165373 0.6419389 0.7667555
vn 0.1086639 0.6398725 0.7607598
vn -0.06462266 -0.992971 0.09915898
vn 0.2027021 0.7180803 0.6657872
vn 0.09182026 0.6342242 0.7676774
vn 0.0817385 -0.8341913 0.5453839
vn 0.01376323 -0.8645794 0.5023078
vn 0.1025889 -0.8395097 0.533572
vn 0.1454534 -0.8464671 0.512188
vn 0.08301795 -0.8388082 0.5380602
vn 0.2791772 -0.8177794 0.5032861
vn 0.3924748 -0.7408687 0.5450478
vn -0.04015846 -0.8781335 0.4767273
vn 0.2619063 0.8127263 0.5204624
vn 0.2026953 0.7180837 0.6657856
vn 0.295259 0.8868393 0.3554408
vn 0.3015308 0.91225 0.2772705
vn -0.0007441852 0.641929 0.7667637
vn 0.108629 0.639886 0.7607533
vn 0.09177854 0.6342201 0.7676859
vn -0.1578107 -0.9143714 0.3728548
vn -0.1269439 -0.9116973 0.39076
vn -0.09328078 -0.9036637 0.4179601
vn -0.04715675 -0.9309766 0.3620204
vn 0.009559222 -0.94435 0.3288037
vn 0.1336446 -0.9478585 0.2893153
vn 0.3319306 -0.9005329 0.2808245
vn 0.4989834 -0.7993766 0.3346826
vn 0.5392604 -0.8381417 0.0819547
vn 0.4685099 -0.8253746 0.3150481
vn 0.369949 -0.7635601 0.5292577
vn 0.1449848 0.6511548 0.7449676
vn 0.1449667 0.6511552 0.7449708
vn -0.00032325 0.6323587 0.7746757
vn -0.0003331965 0.6323699 0.7746666
vn -0.2630423 -0.9345329 0.2397017
vn -0.08013415 -0.9113199 0.403825
vn 0.10766 -0.8325446 0.5433956
vn -0.1072581 -0.8321487 0.5440811
vn 0.08103134 -0.911209 0.403896
vn 0.2643191 -0.9343526 0.2389992
vn -0.08643582 0.62832 0.7731383
vn -0.08640268 0.6283295 0.7731344
vn 0.08654985 0.6287176 0.7728022
vn 0.0865625 0.6287053 0.7728108
g Eyelashes_0
f 26/26/26 25/25/25 9/9/9
f 9/9/9 25/25/25 8/8/8
f 25/25/25 23/23/23 8/8/8
f 23/23/23 24/24/24 8/8/8
f 24/24/24 13/13/13 8/8/8
f 24/24/24 41/41/41 13/13/13
f 41/41/41 42/42/42 13/13/13
f 41/41/41 29/29/29 42/42/42
f 29/29/29 14/14/14 42/42/42
f 14/14/14 29/29/29 10/10/10
f 29/29/29 27/27/27 10/10/10
f 27/27/27 43/43/43 10/10/10
f 43/43/43 44/44/44 10/10/10
f 43/43/43 95/95/95 44/44/44
f 95/95/95 96/96/96 44/44/44
f 95/95/95 28/28/28 96/96/96
f 28/28/28 11/11/11 96/96/96
f 16/16/16 22/22/22 30/30/30
f 31/31/31 16/16/16 30/30/30
f 31/31/31 30/30/30 7/7/7
f 2/2/2 31/31/31 7/7/7
f 2/2/2 1/1/1 31/31/31
f 31/31/31 32/32/32 16/16/16
f 1/1/1 32/32/32 31/31/31
f 32/32/32 15/15/15 16/16/16
f 92/92/92 15/15/15 32/32/32
f 93/93/93 32/32/32 1/1/1
f 93/93/93 92/92/92 32/32/32
f 94/94/94 93/93/93 1/1/1
f 17/17/17 92/92/92 93/93/93
f 33/33/33 93/93/93 94/94/94
f 33/33/33 17/17/17 93/93/93
f 3/3/3 33/33/33 94/94/94
f 19/19/19 17/17/17 33/33/33
f 34/34/34 33/33/33 3/3/3
f 34/34/34 19/19/19 33/33/33
f 12/12/12 34/34/34 3/3/3
f 19/19/19 34/34/34 35/35/35
f 35/35/35 34/34/34 12/12/12
f 18/18/18 19/19/19 35/35/35
f 4/4/4 35/35/35 12/12/12
f 20/20/20 18/18/18 35/35/35
f 36/36/36 35/35/35 4/4/4
f 36/36/36 20/20/20 35/35/35
f 5/5/5 36/36/36 4/4/4
f 40/40/40 20/20/20 36/36/36
f 39/39/39 36/36/36 5/5/5
f 39/39/39 40/40/40 36/36/36
f 21/21/21 40/40/40 39/39/39
f 38/38/38 39/39/39 5/5/5
f 37/37/37 21/21/21 39/39/39
f 37/37/37 39/39/39 38/38/38
f 6/6/6 37/37/37 38/38/38
f 69/69/69 70/70/70 53/53/53
f 69/69/69 53/53/53 52/52/52
f 67/67/67 69/69/69 52/52/52
f 68/68/68 67/67/67 52/52/52
f 57/57/57 68/68/68 52/52/52
f 85/85/85 68/68/68 57/57/57
f 86/86/86 85/85/85 57/57/57
f 73/73/73 85/85/85 86/86/86
f 58/58/58 73/73/73 86/86/86
f 73/73/73 58/58/58 54/54/54
f 71/71/71 73/73/73 54/54/54
f 87/87/87 71/71/71 54/54/54
f 88/88/88 87/87/87 54/54/54
f 97/97/97 87/87/87 88/88/88
f 98/98/98 97/97/97 88/88/88
f 72/72/72 97/97/97 98/98/98
f 55/55/55 72/72/72 98/98/98
f 66/66/66 60/60/60 74/74/74
f 60/60/60 75/75/75 74/74/74
f 74/74/74 75/75/75 51/51/51
f 75/75/75 46/46/46 51/51/51
f 45/45/45 46/46/46 75/75/75
f 76/76/76 75/75/75 60/60/60
f 76/76/76 45/45/45 75/75/75
f 59/59/59 76/76/76 60/60/60
f 59/59/59 91/91/91 76/76/76
f 76/76/76 90/90/90 45/45/45
f 91/91/91 90/90/90 76/76/76
f 90/90/90 89/89/89 45/45/45
f 91/91/91 61/61/61 90/90/90
f 90/90/90 77/77/77 89/89/89
f 61/61/61 77/77/77 90/90/90
f 77/77/77 47/47/47 89/89/89
f 61/61/61 63/63/63 77/77/77
f 77/77/77 78/78/78 47/47/47
f 63/63/63 78/78/78 77/77/77
f 78/78/78 56/56/56 47/47/47
f 78/78/78 63/63/63 79/79/79
f 78/78/78 79/79/79 56/56/56
f 63/63/63 62/62/62 79/79/79
f 79/79/79 48/48/48 56/56/56
f 62/62/62 64/64/64 79/79/79
f 79/79/79 80/80/80 48/48/48
f 64/64/64 80/80/80 79/79/79
f 80/80/80 49/49/49 48/48/48
f 64/64/64 84/84/84 80/80/80
f 80/80/80 83/83/83 49/49/49
f 84/84/84 83/83/83 80/80/80
f 84/84/84 65/65/65 83/83/83
f 83/83/83 82/82/82 49/49/49
f 65/65/65 81/81/81 83/83/83
f 83/83/83 81/81/81 82/82/82
f 81/81/81 50/50/50 82/82/82
