g GiftWide
v -0.002515163 0.0042247 0.008632681
v 0.003506073 0.0042247 0.008632681
v 0.003506073 0.002427704 0.009527897
v -0.002515163 0.002427704 0.009527897
v 0.003506073 -0.00176921 0.009527897
v -0.002515163 -0.00176921 0.009527897
v 0.003506073 -0.003566206 0.008632681
v -0.002515163 -0.003566206 0.008632681
v -0.00770081 0.003339865 0.008924795
v -0.001990314 -0.002681371 0.008924795
v -0.001990314 0.003339865 0.008924795
v -0.00770081 -0.002681371 0.008924795
v -0.009457918 0.003339865 0.009570486
v -0.009457918 -0.002681371 0.009570486
v -0.01024685 0.003339865 0.01070091
v -0.01024685 -0.002681371 0.01070091
v -0.009973447 0.003339865 0.01225406
v -0.009973447 -0.002681371 0.01225406
v -0.008657558 0.003339865 0.01315728
v -0.008657558 -0.002681371 0.01315728
v -0.007144304 0.003339865 0.01315728
v -0.007144304 -0.002681371 0.01315728
v -0.005834069 0.003339865 0.01252514
v -0.005834069 -0.002681371 0.01252514
v -0.003006842 0.003339865 0.008969347
v -0.003006842 -0.002681371 0.008969347
v 0.003997752 0.003339865 0.008969347
v 0.003997752 -0.002681371 0.008969347
v 0.006824979 0.003339865 0.01252514
v 0.006824979 -0.002681371 0.01252514
v 0.008135214 0.003339865 0.01315728
v 0.008135214 -0.002681371 0.01315728
v 0.009648468 0.003339865 0.01315728
v 0.009648468 -0.002681371 0.01315728
v 0.01096436 0.003339865 0.01225406
v 0.01096436 -0.002681371 0.01225406
v 0.01123776 0.003339865 0.01070091
v 0.01123776 -0.002681371 0.01070091
v 0.01044883 0.003339865 0.009570486
v 0.01044883 -0.002681371 0.009570486
v 0.00869172 0.003339865 0.008924795
v 0.00869172 -0.002681371 0.008924795
v 0.002981224 0.003339865 0.008924795
v 0.002981224 -0.002681371 0.008924795
v -0.008807784 -0.01596505 0.007849811
v -0.008807784 -0.01596505 0.0008745342
v -0.009356047 -0.01573795 0.0008745336
v -0.009356047 -0.01573795 0.007849812
v -0.009583144 -0.01518969 0.0008745348
v -0.009255438 -0.01563735 0.008297466
v -0.008807784 -0.01573795 0.008398074
v -0.008807784 -0.0151897 0.008625171
v -0.009583144 -0.0151897 0.007849812
v -0.009583144 0.01584819 0.0008745515
v -0.009356047 -0.0151897 0.008398075
v -0.008807784 0.01584819 0.008625188
v -0.009583144 0.01584819 0.007849827
v -0.009356047 0.01639646 0.0008745515
v -0.009356047 0.01584819 0.008398091
v -0.009255438 0.01629584 0.008297483
v -0.008807784 0.01639645 0.008398091
v -0.008807784 0.01662355 0.007849828
v -0.009356047 0.01639645 0.007849829
v -0.008807784 0.01662355 0.0008745521
v 0.009332389 0.01662355 0.007849828
v 0.009332389 0.01662355 0.0008745521
v 0.009880651 0.01639646 0.0008745515
v 0.009880651 0.01639645 0.007849829
v 0.01010775 0.01584819 0.0008745515
v 0.009780043 0.01629584 0.008297483
v 0.009332389 0.01639645 0.008398091
v 0.009332389 0.01584819 0.008625188
v 0.01010775 0.01584819 0.007849827
v 0.01010775 -0.01518969 0.0008745348
v 0.009880651 0.01584819 0.008398091
v 0.009880651 -0.0151897 0.008398075
v 0.009332389 -0.0151897 0.008625171
v 0.01010775 -0.0151897 0.007849812
v 0.009880651 -0.01573795 0.0008745336
v 0.009780043 -0.01563735 0.008297466
v 0.009332389 -0.01573795 0.008398074
v 0.009332389 -0.01596505 0.007849811
v 0.009880651 -0.01573795 0.007849812
v 0.009332389 -0.01596505 0.0008745342
v 0.009332389 -0.01596505 0.0008745342
v -0.008807784 -0.01596505 0.0008745342
v -0.008807784 -0.01596505 0.007849811
v 0.009332389 -0.01596505 0.007849811
v 0.009332389 -0.01573795 0.008398074
v -0.008807784 -0.01573795 0.008398074
v -0.008807784 -0.0151897 0.008625171
v 0.009332389 -0.0151897 0.008625171
v 0.009332389 0.01584819 0.008625188
v -0.008807784 0.01584819 0.008625188
v -0.008807784 0.01639645 0.008398091
v 0.009332389 0.01639645 0.008398091
v -0.008807784 0.01662355 0.007849828
v 0.009332389 0.01662355 0.007849828
v -0.008807784 0.01662355 0.0008745521
v 0.009332389 0.01662355 0.0008745521
v -0.002547357 0.0164529 0.0002698457
v 0.003538269 0.0164529 0.0002698457
v 0.003538268 0.01668129 0.0008212494
v -0.002547357 0.01668129 0.0008212494
v -0.002547357 0.01668129 0.00790312
v 0.003538268 0.01668129 0.00790312
v 0.003538268 0.01645289 0.008454525
v -0.002547357 0.01645289 0.008454525
v -0.002547357 0.01590149 0.008682922
v 0.003538268 0.01590149 0.008682922
v 0.003538268 -0.01524299 0.008682916
v -0.002547357 -0.01524299 0.008682916
v -0.002547357 -0.0157944 0.008454517
v 0.003538269 -0.0157944 0.008454517
v 0.003538268 -0.01602279 0.007903114
v -0.002547357 -0.01602279 0.007903114
v -0.002547357 -0.01602279 0.0008212417
v 0.003538268 -0.01602279 0.0008212417
v 0.003538268 -0.01579439 0.0002698386
v -0.002547357 -0.01579439 0.0002698386
v -0.002547357 -0.01524299 4.144073E-05
v 0.003538268 -0.01524299 4.144073E-05
v 0.003538268 0.01590149 4.144788E-05
v -0.002547357 0.01590149 4.144788E-05
v -0.002547357 0.0164529 0.0002698457
v 0.003538269 0.0164529 0.0002698457
v -0.00770081 0.003339865 0.008924795
v -0.001990314 0.003339865 0.008924795
v -0.001990314 -0.002681371 0.008924795
v -0.00770081 -0.002681371 0.008924795
v -0.009457918 0.003339865 0.009570486
v -0.009457918 -0.002681371 0.009570486
v -0.01024685 0.003339865 0.01070091
v -0.01024685 -0.002681371 0.01070091
v -0.009973447 0.003339865 0.01225406
v -0.009973447 -0.002681371 0.01225406
v -0.008657558 0.003339865 0.01315728
v -0.008657558 -0.002681371 0.01315728
v -0.007144304 0.003339865 0.01315728
v -0.007144304 -0.002681371 0.01315728
v -0.005834069 0.003339865 0.01252514
v -0.005834069 -0.002681371 0.01252514
v -0.003006842 0.003339865 0.008969347
v -0.003006842 -0.002681371 0.008969347
v 0.003997752 0.003339865 0.008969347
v 0.003997752 -0.002681371 0.008969347
v 0.006824979 0.003339865 0.01252514
v 0.006824979 -0.002681371 0.01252514
v 0.008135214 0.003339865 0.01315728
v 0.008135214 -0.002681371 0.01315728
v 0.009648468 0.003339865 0.01315728
v 0.009648468 -0.002681371 0.01315728
v 0.01096436 0.003339865 0.01225406
v 0.01096436 -0.002681371 0.01225406
v 0.01123776 0.003339865 0.01070091
v 0.01123776 -0.002681371 0.01070091
v 0.01044883 0.003339865 0.009570486
v 0.01044883 -0.002681371 0.009570486
v 0.00869172 0.003339865 0.008924795
v 0.00869172 -0.002681371 0.008924795
v 0.002981224 0.003339865 0.008924795
v 0.002981224 -0.002681371 0.008924795
v -0.008807784 0.01662355 0.0008745521
v -0.009356047 0.01639646 0.0008745515
v -0.009255438 0.01629585 0.0004268968
v -0.009583144 0.01584819 0.0008745515
v -0.008807784 0.01639646 0.0003262889
v -0.008807784 0.01584819 9.919166E-05
v 0.009332389 0.01662355 0.0008745521
v -0.009356047 0.0158482 0.0003262889
v -0.009356047 -0.01518969 0.0003262722
v -0.009583144 -0.01518969 0.0008745348
v 0.009332389 0.01639646 0.0003262889
v -0.009255438 -0.01563735 0.0004268801
v -0.009356047 -0.01573795 0.0008745336
v -0.008807784 -0.01596505 0.0008745342
v 0.009780043 0.01629585 0.0004268968
v 0.009880651 0.01639646 0.0008745515
v 0.01010775 0.01584819 0.0008745515
v -0.008807784 -0.01518969 9.917498E-05
v -0.008807784 -0.01573795 0.0003262711
v 0.009332389 -0.01596505 0.0008745342
v 0.009332389 0.01584819 9.919166E-05
v 0.009332389 -0.01518969 9.917498E-05
v 0.009880651 0.0158482 0.0003262889
v 0.009880651 -0.01518969 0.0003262722
v 0.01010775 -0.01518969 0.0008745348
v 0.009780043 -0.01563735 0.0004268801
v 0.009880651 -0.01573795 0.0008745336
v 0.009332389 -0.01573795 0.0003262711
vt 0.82799 0.3984855
vt 0.9607584 0.3984855
vt 0.9607584 0.3542171
vt 0.82799 0.354217
vt 0.9607584 0.2616751
vt 0.82799 0.2616751
vt 0.9607584 0.2174066
vt 0.82799 0.2174066
vt 0.9590632 0.9304671
vt 0.8262947 1.056383
vt 0.9590629 1.056384
vt 0.8262948 0.9304671
vt 0.9590632 0.8891897
vt 0.8262949 0.8891896
vt 0.9590632 0.8587936
vt 0.8262949 0.8587936
vt 0.9590634 0.8240201
vt 0.8262949 0.8240201
vt 0.9590632 0.7888272
vt 0.8262949 0.7888272
vt 0.9590632 0.75546
vt 0.8262949 0.75546
vt 0.9590632 0.7233824
vt 0.8262949 0.7233825
vt 0.9590632 0.623214
vt 0.8262949 0.6232142
vt 0.9590632 0.4687626
vt 0.8262946 0.4687627
vt 0.9590632 0.3685943
vt 0.8262946 0.3685943
vt 0.9590632 0.3365168
vt 0.8262946 0.3365168
vt 0.9590632 0.3031495
vt 0.8262946 0.3031496
vt 0.9590632 0.2679567
vt 0.8262946 0.2679566
vt 0.9590632 0.2331831
vt 0.8262946 0.2331831
vt 0.9590632 0.2027871
vt 0.8262948 0.202787
vt 0.9590632 0.1615098
vt 0.8262948 0.1615095
vt 0.9590634 0.03559327
vt 0.8262949 0.03559306
vt 0.477426 -0.06447851
vt 0.2705251 -0.06756078
vt 0.2702726 -0.0498433
vt 0.4741708 -0.04759898
vt 0.2700835 -0.03212091
vt 0.4863202 -0.04489543
vt 0.4960949 -0.05459242
vt 0.5058615 -0.03584047
vt 0.4729242 -0.03167176
vt 0.2700846 0.8714246
vt 0.4889738 -0.03276708
vt 0.5058616 0.8751435
vt 0.4729256 0.8709745
vt 0.2702738 0.8891468
vt 0.4889747 0.8720704
vt 0.4863213 0.8841984
vt 0.496095 0.893895
vt 0.477427 0.9037813
vt 0.4741717 0.8869019
vt 0.2705263 0.906864
vt 0.5801654 0.1371832
vt 0.3732643 0.1341011
vt 0.3730121 0.1518185
vt 0.5769098 0.1540629
vt 0.372823 0.1695407
vt 0.58906 0.1567663
vt 0.5988341 0.1470694
vt 0.6086009 0.1658214
vt 0.5756634 0.1699903
vt 0.3728241 1.073087
vt 0.5917132 0.1688945
vt 0.5917139 1.073732
vt 0.6086009 1.076805
vt 0.5756645 1.072637
vt 0.3730131 1.090809
vt 0.5890602 1.08586
vt 0.5988348 1.095557
vt 0.5801663 1.105443
vt 0.5769108 1.088564
vt 0.3732656 1.108526
vt 0.1271453 1.266794
vt 0.6531892 1.266794
vt 0.6531892 1.064519
vt 0.1271452 1.064519
vt 0.1271452 1.04731
vt 0.6531892 1.04731
vt 0.6531892 1.030101
vt 0.1271452 1.030101
vt 0.1271452 0.1300388
vt 0.6531893 0.1300388
vt 0.6531892 0.1128298
vt 0.1271452 0.1128298
vt 0.6531892 0.09562097
vt 0.1271451 0.09562097
vt 0.6531892 -0.106654
vt 0.1271451 -0.106654
vt 0.8332498 1.423181
vt 0.9663914 1.423181
vt 0.9663913 1.410123
vt 0.8332499 1.410123
vt 0.8332498 1.255186
vt 0.9663913 1.255186
vt 0.9663913 1.242128
vt 0.8332497 1.242128
vt 0.8332497 1.22907
vt 0.9663913 1.22907
vt 0.9663913 0.5476903
vt 0.8332497 0.5476903
vt 0.8332497 0.5346325
vt 0.9663913 0.5346325
vt 0.9663913 0.521575
vt 0.8332498 0.521575
vt 0.8332498 0.3666375
vt 0.9663913 0.3666375
vt 0.9663913 0.3535798
vt 0.8332497 0.3535798
vt 0.8332497 0.3405222
vt 0.9663913 0.3405222
vt 0.9663913 -0.340858
vt 0.8332497 -0.340858
vt 0.8332498 -0.3539156
vt 0.9663913 -0.3539156
vt 0.9590632 0.9304671
vt 0.9590629 1.056384
vt 0.8262947 1.056383
vt 0.8262948 0.9304671
vt 0.9590632 0.8891897
vt 0.8262949 0.8891896
vt 0.9590632 0.8587936
vt 0.8262949 0.8587936
vt 0.9590634 0.8240201
vt 0.8262949 0.8240201
vt 0.9590632 0.7888272
vt 0.8262949 0.7888272
vt 0.9590632 0.75546
vt 0.8262949 0.75546
vt 0.9590632 0.7233824
vt 0.8262949 0.7233825
vt 0.9590632 0.623214
vt 0.8262949 0.6232142
vt 0.9590632 0.4687626
vt 0.8262946 0.4687627
vt 0.9590632 0.3685943
vt 0.8262946 0.3685943
vt 0.9590632 0.3365168
vt 0.8262946 0.3365168
vt 0.9590632 0.3031495
vt 0.8262946 0.3031496
vt 0.9590632 0.2679567
vt 0.8262946 0.2679566
vt 0.9590632 0.2331831
vt 0.8262946 0.2331831
vt 0.9590632 0.2027871
vt 0.8262948 0.202787
vt 0.9590632 0.1615098
vt 0.8262948 0.1615095
vt 0.9590634 0.03559327
vt 0.8262949 0.03559306
vt 0.661507 0.5493592
vt 0.6802309 0.5393419
vt 0.6703969 0.5296229
vt 0.6899543 0.5205163
vt 0.6582009 0.5323507
vt 0.6569494 0.516332
vt 0.1252882 0.5487021
vt 0.6730404 0.5174454
vt 0.6730866 -0.3865207
vt 0.6899544 -0.3895963
vt 0.1285374 0.5318247
vt 0.6704249 -0.3986315
vt 0.6801833 -0.4083283
vt 0.6615181 -0.418192
vt 0.1163957 0.5291408
vt 0.1066362 0.5388324
vt 0.09687265 0.5201072
vt 0.6570623 -0.3854213
vt 0.6582818 -0.4013167
vt 0.1252938 -0.4187638
vt 0.1297587 0.5159417
vt 0.1298651 -0.3857464
vt 0.1137378 0.5170352
vt 0.1137771 -0.3868536
vt 0.09686544 -0.3899207
vt 0.1164171 -0.3990265
vt 0.1065819 -0.4087405
vt 0.1286118 -0.4017523
vn 0 0.445905 0.8950803
vn 0 0.4459051 0.8950803
vn 0 0.2290412 0.9734168
vn 0 0.2290412 0.9734168
vn 0 -0.2290412 0.9734168
vn 0 -0.2290412 0.9734168
vn 0 -0.4459051 0.8950803
vn 0 -0.445905 0.8950803
vn -0.1751695 0 -0.9845383
vn 0 0 -1
vn 0 0 -1
vn -0.1751695 0 -0.9845383
vn -0.6105985 0 -0.7919403
vn -0.6105988 0 -0.7919401
vn -0.976432 0 -0.2158256
vn -0.976432 0 -0.2158255
vn -0.8409542 0 0.5411064
vn -0.8409538 0 0.5411069
vn -0.2962542 0 0.9551091
vn -0.2962534 0 0.9551094
vn 0.2228736 0 0.9748473
vn 0.2228747 0 0.9748471
vn 0.6243389 0 0.7811536
vn 0.6243398 0 0.7811528
vn 0.4345365 0 0.9006543
vn 0.4345365 0 0.9006543
vn -0.4345365 0 0.9006543
vn -0.4345364 0 0.9006543
vn -0.6243398 0 0.7811529
vn -0.6243388 0 0.7811537
vn -0.2228747 0 0.9748471
vn -0.2228737 0 0.9748473
vn 0.2962534 0 0.9551094
vn 0.2962542 0 0.9551091
vn 0.8409538 0 0.5411069
vn 0.8409542 0 0.5411064
vn 0.976432 0 -0.2158257
vn 0.976432 0 -0.2158258
vn 0.6105986 0 -0.7919402
vn 0.6105984 0 -0.7919404
vn 0.1751696 0 -0.9845383
vn 0.1751696 0 -0.9845383
vn 0 0 -1
vn 0 0 -1
vn -0.01183132 -0.9994833 0.02988173
vn -0.01185371 -0.9994825 -0.02990331
vn -0.706972 -0.7070159 -0.01786658
vn -0.7069967 -0.7069911 0.01786594
vn -0.999526 -0.007004188 -0.02997736
vn -0.5773492 -0.5773529 0.5773487
vn -0.007070825 -0.7070937 0.7070844
vn -0.01208702 -0.007103249 0.9999018
vn -0.9995253 -0.007022344 0.02999677
vn -0.9995251 0.007009266 -0.0300087
vn -0.7070975 -0.00418806 0.7071036
vn -0.01207765 0.007087584 0.999902
vn -0.9995263 0.00700277 0.02997078
vn -0.7069978 0.70699 -0.01786782
vn -0.7071049 0.00414966 0.7070965
vn -0.5773499 0.5773501 0.5773509
vn -0.007096245 0.7070838 0.7070941
vn -0.01184112 0.999483 0.02989192
vn -0.7069908 0.706997 0.01786822
vn -0.01183735 0.9994831 -0.02988776
vn 0.01183756 0.9994831 0.02988731
vn 0.01184162 0.999483 -0.02989012
vn 0.7069915 0.7069963 -0.0178674
vn 0.7069978 0.7069899 0.01786823
vn 0.9995261 0.007000722 -0.02997381
vn 0.5773503 0.57735 0.5773504
vn 0.007096484 0.7070917 0.7070862
vn 0.01207523 0.007131868 0.9999017
vn 0.9995254 0.007020212 0.02999535
vn 0.999525 -0.007011164 -0.03000971
vn 0.7070973 0.004149407 0.7071041
vn 0.707105 -0.004187883 0.7070961
vn 0.0120815 -0.007152485 0.9999014
vn 0.9995261 -0.007007003 0.02997398
vn 0.7069963 -0.7069915 -0.01786613
vn 0.5773495 -0.5773525 0.5773488
vn 0.007078379 -0.7070873 0.7070907
vn 0.01185456 -0.9994825 0.02990151
vn 0.7069902 -0.7069977 0.01786658
vn 0.0118312 -0.9994833 -0.02988179
vn 0.0118312 -0.9994833 -0.02988179
vn -0.01185371 -0.9994825 -0.02990331
vn -0.01183132 -0.9994833 0.02988173
vn 0.01185456 -0.9994825 0.02990151
vn 0.007078379 -0.7070873 0.7070907
vn -0.007070825 -0.7070937 0.7070844
vn -0.01208702 -0.007103249 0.9999018
vn 0.0120815 -0.007152485 0.9999014
vn 0.01207523 0.007131868 0.9999017
vn -0.01207765 0.007087584 0.999902
vn -0.007096245 0.7070838 0.7070941
vn 0.007096484 0.7070917 0.7070862
vn -0.01184112 0.999483 0.02989192
vn 0.01183756 0.9994831 0.02988731
vn -0.01183735 0.9994831 -0.02988776
vn 0.01184162 0.999483 -0.02989012
vn 0 0.7071077 -0.7071058
vn 0 0.7071061 -0.7071075
vn 7.925543E-05 0.999553 -0.02989399
vn 0 0.9995529 -0.0298969
vn -0.0001046947 0.999553 0.02989414
vn 0 0.9995529 0.02989708
vn 0 0.7071071 0.7071064
vn 0 0.7071059 0.7071077
vn 0 0.007185386 0.9999743
vn -5.404404E-05 0.007206887 0.999974
vn 0 -0.007186429 0.9999743
vn -6.121625E-05 -0.007208005 0.999974
vn 0 -0.7071066 0.7071068
vn 0 -0.7071075 0.7071059
vn 3.157645E-05 -0.999553 0.02989261
vn 0 -0.9995529 0.02989827
vn 3.045229E-05 -0.999553 -0.02989311
vn 0 -0.9995529 -0.02989876
vn -0.0004786946 -0.7071062 -0.7071072
vn 0 -0.7071066 -0.7071069
vn 0 -0.007185206 -0.9999743
vn -6.493684E-05 -0.007207319 -0.999974
vn 0 0.007186071 -0.9999743
vn -7.155766E-06 0.007208184 -0.999974
vn 0 0.7071077 -0.7071058
vn 0 0.7071061 -0.7071075
vn 0.1751695 0 0.9845383
vn 0 0 1
vn 0 0 1
vn 0.1751695 0 0.9845383
vn 0.6105985 0 0.7919403
vn 0.6105988 0 0.79194
vn 0.976432 0 0.2158256
vn 0.976432 0 0.2158255
vn 0.8409542 0 -0.5411064
vn 0.8409538 0 -0.5411069
vn 0.2962542 0 -0.9551091
vn 0.2962534 0 -0.9551094
vn -0.2228736 0 -0.9748473
vn -0.2228747 0 -0.9748471
vn -0.624339 0 -0.7811536
vn -0.6243398 0 -0.7811528
vn -0.4345365 0 -0.9006543
vn -0.4345365 0 -0.9006543
vn 0.4345365 0 -0.9006543
vn 0.4345364 0 -0.9006543
vn 0.6243397 0 -0.7811529
vn 0.6243388 0 -0.7811537
vn 0.2228747 0 -0.9748471
vn 0.2228737 0 -0.9748473
vn -0.2962534 0 -0.9551094
vn -0.2962542 0 -0.9551091
vn -0.8409538 0 -0.5411069
vn -0.8409542 0 -0.5411064
vn -0.976432 0 0.2158257
vn -0.976432 0 0.2158258
vn -0.6105986 0 0.7919402
vn -0.6105985 0 0.7919403
vn -0.1751696 0 0.9845383
vn -0.1751696 0 0.9845383
vn 0 0 1
vn 0 0 1
vn -0.01183735 0.9994831 -0.02988776
vn -0.7069978 0.70699 -0.01786782
vn -0.5773497 0.5773502 -0.5773509
vn -0.9995251 0.007009266 -0.0300087
vn -0.00709632 0.7070909 -0.707087
vn -0.01209907 0.007109595 -0.9999015
vn 0.01184162 0.999483 -0.02989012
vn -0.707097 0.004150852 -0.7071044
vn -0.7071037 -0.004187703 -0.7070974
vn -0.999526 -0.007004188 -0.02997736
vn 0.007096126 0.7070853 -0.7070927
vn -0.5773491 -0.5773526 -0.5773491
vn -0.706972 -0.7070159 -0.01786658
vn -0.01185371 -0.9994825 -0.02990331
vn 0.5773499 0.57735 -0.5773507
vn 0.7069915 0.7069963 -0.0178674
vn 0.9995261 0.007000722 -0.02997381
vn -0.01211128 -0.007121734 -0.9999013
vn -0.007079512 -0.7070854 -0.7070927
vn 0.0118312 -0.9994833 -0.02988179
vn 0.01207834 0.007087867 -0.9999019
vn 0.01208994 -0.007098949 -0.9999018
vn 0.7071044 0.00414975 -0.707097
vn 0.7070975 -0.004187196 -0.7071036
vn 0.999525 -0.007011164 -0.03000971
vn 0.5773494 -0.5773522 -0.5773491
vn 0.7069963 -0.7069915 -0.01786613
vn 0.007070779 -0.7070926 -0.7070855
g GiftWide_0
f 3/3/3 2/2/2 1/1/1
f 4/4/4 3/3/3 1/1/1
f 3/3/3 4/4/4 5/5/5
f 4/4/4 6/6/6 5/5/5
f 7/7/7 5/5/5 6/6/6
f 8/8/8 7/7/7 6/6/6
f 11/11/11 10/10/10 9/9/9
f 10/10/10 12/12/12 9/9/9
f 9/9/9 12/12/12 13/13/13
f 12/12/12 14/14/14 13/13/13
f 15/15/15 13/13/13 14/14/14
f 16/16/16 15/15/15 14/14/14
f 15/15/15 16/16/16 17/17/17
f 16/16/16 18/18/18 17/17/17
f 17/17/17 18/18/18 19/19/19
f 18/18/18 20/20/20 19/19/19
f 19/19/19 20/20/20 21/21/21
f 20/20/20 22/22/22 21/21/21
f 23/23/23 21/21/21 22/22/22
f 24/24/24 23/23/23 22/22/22
f 23/23/23 24/24/24 25/25/25
f 24/24/24 26/26/26 25/25/25
f 25/25/25 26/26/26 27/27/27
f 26/26/26 28/28/28 27/27/27
f 29/29/29 27/27/27 28/28/28
f 30/30/30 29/29/29 28/28/28
f 29/29/29 30/30/30 31/31/31
f 30/30/30 32/32/32 31/31/31
f 33/33/33 31/31/31 32/32/32
f 34/34/34 33/33/33 32/32/32
f 35/35/35 33/33/33 34/34/34
f 36/36/36 35/35/35 34/34/34
f 37/37/37 35/35/35 36/36/36
f 38/38/38 37/37/37 36/36/36
f 37/37/37 38/38/38 39/39/39
f 38/38/38 40/40/40 39/39/39
f 41/41/41 39/39/39 40/40/40
f 42/42/42 41/41/41 40/40/40
f 43/43/43 41/41/41 42/42/42
f 44/44/44 43/43/43 42/42/42
f 47/47/47 46/46/46 45/45/45
f 48/48/48 47/47/47 45/45/45
f 49/49/49 47/47/47 48/48/48
f 50/50/50 48/48/48 45/45/45
f 51/51/51 50/50/50 45/45/45
f 50/50/50 51/51/51 52/52/52
f 53/53/53 49/49/49 48/48/48
f 48/48/48 50/50/50 53/53/53
f 49/49/49 53/53/53 54/54/54
f 55/55/55 50/50/50 52/52/52
f 50/50/50 55/55/55 53/53/53
f 55/55/55 52/52/52 56/56/56
f 53/53/53 57/57/57 54/54/54
f 57/57/57 53/53/53 55/55/55
f 54/54/54 57/57/57 58/58/58
f 59/59/59 55/55/55 56/56/56
f 59/59/59 57/57/57 55/55/55
f 60/60/60 59/59/59 56/56/56
f 59/59/59 60/60/60 57/57/57
f 61/61/61 60/60/60 56/56/56
f 60/60/60 61/61/61 62/62/62
f 57/57/57 63/63/63 58/58/58
f 60/60/60 63/63/63 57/57/57
f 63/63/63 60/60/60 62/62/62
f 58/58/58 63/63/63 64/64/64
f 63/63/63 62/62/62 64/64/64
f 67/67/67 66/66/66 65/65/65
f 68/68/68 67/67/67 65/65/65
f 69/69/69 67/67/67 68/68/68
f 70/70/70 68/68/68 65/65/65
f 71/71/71 70/70/70 65/65/65
f 70/70/70 71/71/71 72/72/72
f 73/73/73 69/69/69 68/68/68
f 68/68/68 70/70/70 73/73/73
f 69/69/69 73/73/73 74/74/74
f 75/75/75 70/70/70 72/72/72
f 70/70/70 75/75/75 73/73/73
f 76/76/76 75/75/75 72/72/72
f 73/73/73 75/75/75 76/76/76
f 77/77/77 76/76/76 72/72/72
f 73/73/73 78/78/78 74/74/74
f 78/78/78 73/73/73 76/76/76
f 79/79/79 74/74/74 78/78/78
f 80/80/80 76/76/76 77/77/77
f 76/76/76 80/80/80 78/78/78
f 81/81/81 80/80/80 77/77/77
f 80/80/80 81/81/81 82/82/82
f 83/83/83 79/79/79 78/78/78
f 80/80/80 83/83/83 78/78/78
f 83/83/83 80/80/80 82/82/82
f 84/84/84 79/79/79 83/83/83
f 82/82/82 84/84/84 83/83/83
f 87/87/87 86/86/86 85/85/85
f 88/88/88 87/87/87 85/85/85
f 88/88/88 89/89/89 87/87/87
f 89/89/89 90/90/90 87/87/87
f 90/90/90 89/89/89 91/91/91
f 89/89/89 92/92/92 91/91/91
f 91/91/91 92/92/92 93/93/93
f 94/94/94 91/91/91 93/93/93
f 95/95/95 94/94/94 93/93/93
f 96/96/96 95/95/95 93/93/93
f 97/97/97 95/95/95 96/96/96
f 98/98/98 97/97/97 96/96/96
f 97/97/97 98/98/98 99/99/99
f 98/98/98 100/100/100 99/99/99
f 103/103/103 102/102/102 101/101/101
f 104/104/104 103/103/103 101/101/101
f 103/103/103 104/104/104 105/105/105
f 106/106/106 103/103/103 105/105/105
f 106/106/106 105/105/105 107/107/107
f 105/105/105 108/108/108 107/107/107
f 107/107/107 108/108/108 109/109/109
f 110/110/110 107/107/107 109/109/109
f 111/111/111 110/110/110 109/109/109
f 112/112/112 111/111/111 109/109/109
f 112/112/112 113/113/113 111/111/111
f 113/113/113 114/114/114 111/111/111
f 115/115/115 114/114/114 113/113/113
f 116/116/116 115/115/115 113/113/113
f 116/116/116 117/117/117 115/115/115
f 117/117/117 118/118/118 115/115/115
f 118/118/118 117/117/117 119/119/119
f 117/117/117 120/120/120 119/119/119
f 119/119/119 120/120/120 121/121/121
f 122/122/122 119/119/119 121/121/121
f 122/122/122 121/121/121 123/123/123
f 121/121/121 124/124/124 123/123/123
f 124/124/124 125/125/125 123/123/123
f 125/125/125 126/126/126 123/123/123
f 129/129/129 128/128/128 127/127/127
f 130/130/130 129/129/129 127/127/127
f 130/130/130 127/127/127 131/131/131
f 132/132/132 130/130/130 131/131/131
f 131/131/131 133/133/133 132/132/132
f 133/133/133 134/134/134 132/132/132
f 134/134/134 133/133/133 135/135/135
f 136/136/136 134/134/134 135/135/135
f 136/136/136 135/135/135 137/137/137
f 138/138/138 136/136/136 137/137/137
f 138/138/138 137/137/137 139/139/139
f 140/140/140 138/138/138 139/139/139
f 139/139/139 141/141/141 140/140/140
f 141/141/141 142/142/142 140/140/140
f 142/142/142 141/141/141 143/143/143
f 144/144/144 142/142/142 143/143/143
f 144/144/144 143/143/143 145/145/145
f 146/146/146 144/144/144 145/145/145
f 145/145/145 147/147/147 146/146/146
f 147/147/147 148/148/148 146/146/146
f 148/148/148 147/147/147 149/149/149
f 150/150/150 148/148/148 149/149/149
f 149/149/149 151/151/151 150/150/150
f 151/151/151 152/152/152 150/150/150
f 151/151/151 153/153/153 152/152/152
f 153/153/153 154/154/154 152/152/152
f 153/153/153 155/155/155 154/154/154
f 155/155/155 156/156/156 154/154/154
f 156/156/156 155/155/155 157/157/157
f 158/158/158 156/156/156 157/157/157
f 157/157/157 159/159/159 158/158/158
f 159/159/159 160/160/160 158/158/158
f 159/159/159 161/161/161 160/160/160
f 161/161/161 162/162/162 160/160/160
f 165/165/165 164/164/164 163/163/163
f 164/164/164 165/165/165 166/166/166
f 167/167/167 165/165/165 163/163/163
f 165/165/165 167/167/167 168/168/168
f 163/163/163 169/169/169 167/167/167
f 165/165/165 170/170/170 166/166/166
f 170/170/170 165/165/165 168/168/168
f 166/166/166 170/170/170 171/171/171
f 171/171/171 170/170/170 168/168/168
f 172/172/172 166/166/166 171/171/171
f 169/169/169 173/173/173 167/167/167
f 167/167/167 173/173/173 168/168/168
f 171/171/171 174/174/174 172/172/172
f 174/174/174 175/175/175 172/172/172
f 175/175/175 174/174/174 176/176/176
f 177/177/177 173/173/173 169/169/169
f 178/178/178 177/177/177 169/169/169
f 177/177/177 178/178/178 179/179/179
f 174/174/174 171/171/171 180/180/180
f 180/180/180 171/171/171 168/168/168
f 174/174/174 181/181/181 176/176/176
f 181/181/181 174/174/174 180/180/180
f 176/176/176 181/181/181 182/182/182
f 173/173/173 183/183/183 168/168/168
f 173/173/173 177/177/177 183/183/183
f 184/184/184 180/180/180 168/168/168
f 181/181/181 180/180/180 184/184/184
f 183/183/183 184/184/184 168/168/168
f 185/185/185 177/177/177 179/179/179
f 177/177/177 185/185/185 183/183/183
f 185/185/185 179/179/179 186/186/186
f 185/185/185 186/186/186 183/183/183
f 186/186/186 184/184/184 183/183/183
f 179/179/179 187/187/187 186/186/186
f 188/188/188 186/186/186 187/187/187
f 186/186/186 188/188/188 184/184/184
f 189/189/189 188/188/188 187/187/187
f 188/188/188 189/189/189 182/182/182
f 181/181/181 190/190/190 182/182/182
f 190/190/190 181/181/181 184/184/184
f 188/188/188 190/190/190 184/184/184
f 190/190/190 188/188/188 182/182/182
