g Glass
v 0.35 -0.345 0.6
v 0.35 -0.35 0.6
v 0.355 -0.35 0.6
v 0.355 -0.345 0.6
v 0.36 -0.35 0.6
v 0.36 -0.345 0.6
v 0.36 0 0.6
v 0.35 0 0.6
v 0.355 0 0.6
v 0.36 0.345 0.6
v 0.355 0.345 0.6
v 0.35 0.345 0.6
v 0.36 0.35 0.6
v 0.35 0.35 0.6
v 0.355 0.35 0.6
v 0.35 -0.35 0.995
v 0.35 -0.35 1
v 0.355 -0.35 1
v 0.355 -0.35 0.995
v 0.36 -0.35 1
v 0.36 -0.35 0.995
v 0.35 -0.35 0.605
v 0.36 -0.35 0.605
v 0.355 -0.35 0.605
v 0.35 -0.35 0.6
v 0.36 -0.35 0.6
v 0.355 -0.35 0.6
v 0.35 0.35 0.605
v 0.35 0.35 0.6
v 0.355 0.35 0.6
v 0.355 0.35 0.605
v 0.36 0.35 0.6
v 0.36 0.35 0.605
v 0.36 0.35 0.995
v 0.355 0.35 0.995
v 0.35 0.35 0.995
v 0.36 0.35 1
v 0.35 0.35 1
v 0.355 0.35 1
v 0.35 0.345 1
v 0.35 0.35 1
v 0.355 0.35 1
v 0.355 0.345 1
v 0.36 0.35 1
v 0.36 0.345 1
v 0.36 0 1
v 0.355 0 1
v 0.35 0 1
v 0.36 -0.345 1
v 0.35 -0.345 1
v 0.355 -0.345 1
v 0.36 -0.35 1
v 0.35 -0.35 1
v 0.355 -0.35 1
v 0.36 0.345 0.605
v 0.36 0.35 0.6
v 0.36 0.345 0.6
v 0.36 0.35 0.605
v 0.36 0 0.6
v 0.36 0.345 0.995
v 0.36 0.35 0.995
v 0.36 0.35 1
v 0.36 0.345 1
v 0.36 0 0.995
v 0.36 0 1
v 0.36 0 0.605
v 0.36 -0.345 0.6
v 0.36 -0.345 0.605
v 0.36 -0.35 0.6
v 0.36 -0.35 0.605
v 0.36 -0.35 0.995
v 0.36 -0.345 0.995
v 0.36 -0.345 1
v 0.36 -0.35 1
vt 0.909659 0.968214
vt 0.909659 0.975
vt 0.920454 0.975
vt 0.920455 0.968214
vt 0.93125 0.975
vt 0.93125 0.968214
vt 0.93125 0.5
vt 0.909659 0.5
vt 0.920454 0.5
vt 0.93125 0.031786
vt 0.920454 0.031786
vt 0.909659 0.031786
vt 0.93125 0.025
vt 0.909659 0.025
vt 0.920454 0.025
vt 0.999432 0.021071
vt 0.999432 0.014286
vt 0.988636 0.014286
vt 0.988636 0.021071
vt 0.977841 0.014286
vt 0.977841 0.021071
vt 0.999432 0.550357
vt 0.977841 0.550357
vt 0.988636 0.550357
vt 0.999432 0.557143
vt 0.977841 0.557143
vt 0.988636 0.557143
vt 0.976704 0.021071
vt 0.976704 0.014286
vt 0.965909 0.014286
vt 0.965909 0.021071
vt 0.955114 0.014286
vt 0.955114 0.021071
vt 0.955114 0.550357
vt 0.965909 0.550357
vt 0.976704 0.550357
vt 0.955114 0.557143
vt 0.976704 0.557143
vt 0.965909 0.557143
vt 0.932386 0.968214
vt 0.932386 0.975
vt 0.943182 0.975
vt 0.943182 0.968214
vt 0.953977 0.975
vt 0.953977 0.968214
vt 0.953977 0.5
vt 0.943182 0.5
vt 0.932386 0.5
vt 0.953977 0.031786
vt 0.932386 0.031786
vt 0.943182 0.031786
vt 0.953977 0.025
vt 0.932386 0.025
vt 0.943182 0.025
vt 0.875568 0.968214
vt 0.886364 0.975
vt 0.886364 0.968214
vt 0.875568 0.975
vt 0.886363 0.5
vt 0.033523 0.968214
vt 0.033523 0.975
vt 0.022727 0.975
vt 0.022727 0.968214
vt 0.033523 0.5
vt 0.022727 0.5
vt 0.875568 0.5
vt 0.886363 0.031786
vt 0.875568 0.031786
vt 0.886363 0.025
vt 0.875568 0.025
vt 0.033523 0.025
vt 0.033523 0.031786
vt 0.022727 0.031786
vt 0.022727 0.025
vn 0 0 -1
vn 0 -0.7071068 -0.7071068
vn 0 -0.7071068 -0.7071068
vn 0 0 -1
vn 0.5773603 -0.5773303 -0.5773603
vn 0.7071068 0 -0.7071068
vn 0.7071068 0 -0.7071068
vn 0 0 -1
vn 0 0 -1
vn 0.7071068 0 -0.7071068
vn 0 0 -1
vn 0 0 -1
vn 0.5773603 0.5773303 -0.5773603
vn 0 0.7071068 -0.7071068
vn 0 0.7071068 -0.7071068
vn 0 -1 0
vn 0 -0.7071068 0.7071068
vn 0 -0.7071068 0.7071068
vn 0 -1 0
vn 0.5773603 -0.5773303 0.5773603
vn 0.7071068 -0.7071068 0
vn 0 -1 0
vn 0.7071068 -0.7071068 0
vn 0 -1 0
vn 0 -0.7071068 -0.7071068
vn 0.5773603 -0.5773303 -0.5773603
vn 0 -0.7071068 -0.7071068
vn 0 1 0
vn 0 0.7071068 -0.7071068
vn 0 0.7071068 -0.7071068
vn 0 1 0
vn 0.5773603 0.5773303 -0.5773603
vn 0.7071068 0.7071068 0
vn 0.7071068 0.7071068 0
vn 0 1 0
vn 0 1 0
vn 0.5773603 0.5773303 0.5773603
vn 0 0.7071068 0.7071068
vn 0 0.7071068 0.7071068
vn 0 0 1
vn 0 0.7071068 0.7071068
vn 0 0.7071068 0.7071068
vn 0 0 1
vn 0.5773603 0.5773303 0.5773603
vn 0.7071068 0 0.7071068
vn 0.7071068 0 0.7071068
vn 0 0 1
vn 0 0 1
vn 0.7071068 0 0.7071068
vn 0 0 1
vn 0 0 1
vn 0.5773603 -0.5773303 0.5773603
vn 0 -0.7071068 0.7071068
vn 0 -0.7071068 0.7071068
vn 1 0 0
vn 0.5773603 0.5773303 -0.5773603
vn 0.7071068 0 -0.7071068
vn 0.7071068 0.7071068 0
vn 0.7071068 0 -0.7071068
vn 1 0 0
vn 0.7071068 0.7071068 0
vn 0.5773603 0.5773303 0.5773603
vn 0.7071068 0 0.7071068
vn 1 0 0
vn 0.7071068 0 0.7071068
vn 1 0 0
vn 0.7071068 0 -0.7071068
vn 1 0 0
vn 0.5773603 -0.5773303 -0.5773603
vn 0.7071068 -0.7071068 0
vn 0.7071068 -0.7071068 0
vn 1 0 0
vn 0.7071068 0 0.7071068
vn 0.5773603 -0.5773303 0.5773603
g Glass_0
f 3/3/3 2/2/2 1/1/1
f 4/4/4 3/3/3 1/1/1
f 5/5/5 3/3/3 4/4/4
f 6/6/6 5/5/5 4/4/4
f 7/7/7 6/6/6 4/4/4
f 4/4/4 1/1/1 8/8/8
f 9/9/9 7/7/7 4/4/4
f 9/9/9 4/4/4 8/8/8
f 7/7/7 9/9/9 10/10/10
f 11/11/11 9/9/9 8/8/8
f 9/9/9 11/11/11 10/10/10
f 12/12/12 11/11/11 8/8/8
f 13/13/13 10/10/10 11/11/11
f 11/11/11 12/12/12 14/14/14
f 15/15/15 13/13/13 11/11/11
f 15/15/15 11/11/11 14/14/14
f 18/18/18 17/17/17 16/16/16
f 19/19/19 18/18/18 16/16/16
f 20/20/20 18/18/18 19/19/19
f 21/21/21 20/20/20 19/19/19
f 19/19/19 16/16/16 22/22/22
f 23/23/23 21/21/21 19/19/19
f 24/24/24 19/19/19 22/22/22
f 24/24/24 23/23/23 19/19/19
f 24/24/24 22/22/22 25/25/25
f 26/26/26 23/23/23 24/24/24
f 27/27/27 24/24/24 25/25/25
f 27/27/27 26/26/26 24/24/24
f 30/30/30 29/29/29 28/28/28
f 31/31/31 30/30/30 28/28/28
f 32/32/32 30/30/30 31/31/31
f 33/33/33 32/32/32 31/31/31
f 33/33/33 31/31/31 34/34/34
f 35/35/35 31/31/31 28/28/28
f 31/31/31 35/35/35 34/34/34
f 36/36/36 35/35/35 28/28/28
f 37/37/37 34/34/34 35/35/35
f 35/35/35 36/36/36 38/38/38
f 39/39/39 37/37/37 35/35/35
f 39/39/39 35/35/35 38/38/38
f 42/42/42 41/41/41 40/40/40
f 43/43/43 42/42/42 40/40/40
f 44/44/44 42/42/42 43/43/43
f 45/45/45 44/44/44 43/43/43
f 45/45/45 43/43/43 46/46/46
f 47/47/47 43/43/43 40/40/40
f 43/43/43 47/47/47 46/46/46
f 48/48/48 47/47/47 40/40/40
f 49/49/49 46/46/46 47/47/47
f 47/47/47 48/48/48 50/50/50
f 51/51/51 49/49/49 47/47/47
f 51/51/51 47/47/47 50/50/50
f 52/52/52 49/49/49 51/51/51
f 51/51/51 50/50/50 53/53/53
f 54/54/54 52/52/52 51/51/51
f 54/54/54 51/51/51 53/53/53
f 57/57/57 56/56/56 55/55/55
f 56/56/56 58/58/58 55/55/55
f 59/59/59 57/57/57 55/55/55
f 55/55/55 58/58/58 60/60/60
f 58/58/58 61/61/61 60/60/60
f 61/61/61 62/62/62 60/60/60
f 62/62/62 63/63/63 60/60/60
f 60/60/60 63/63/63 64/64/64
f 55/55/55 60/60/60 64/64/64
f 63/63/63 65/65/65 64/64/64
f 66/66/66 59/59/59 55/55/55
f 66/66/66 55/55/55 64/64/64
f 59/59/59 66/66/66 67/67/67
f 66/66/66 68/68/68 67/67/67
f 68/68/68 66/66/66 64/64/64
f 69/69/69 67/67/67 68/68/68
f 70/70/70 69/69/69 68/68/68
f 70/70/70 68/68/68 71/71/71
f 72/72/72 64/64/64 65/65/65
f 72/72/72 68/68/68 64/64/64
f 68/68/68 72/72/72 71/71/71
f 73/73/73 72/72/72 65/65/65
f 74/74/74 71/71/71 72/72/72
f 73/73/73 74/74/74 72/72/72
