g Group_010
v -0.02485 2.428703E-05 -0.002016183
v 0.02485001 2.428703E-05 -0.002016183
v 0.02485001 0.0009959396 -0.001724686
v -0.02485 0.0009959396 -0.001724686
v 0.02485001 0.001724679 -0.000995947
v -0.02485 0.001724679 -0.000995947
v 0.02485001 0.002016174 2.428703E-05
v -0.02485 0.002016174 2.428703E-05
v -0.02485 -0.001724686 0.0009959396
v -0.02485 -0.000995947 0.001724679
v 0.02485001 -0.000995947 0.001724679
v 0.02485001 -0.001724686 0.0009959396
v -0.02485 -0.002016183 2.428703E-05
v 0.02485001 -0.002016183 2.428703E-05
v -0.02485 -0.001724686 -0.000995947
v 0.02485001 -0.001724686 -0.000995947
v -0.02485 -0.000995947 -0.001724686
v 0.02485001 -0.000995947 -0.001724686
v 0.02485001 2.428703E-05 -0.002016183
v -0.02485 2.428703E-05 -0.002016183
v -0.02485 0.002016174 2.428703E-05
v 0.02485001 0.002016174 2.428703E-05
v 0.02485001 0.001724679 0.0009959396
v -0.02485 0.001724679 0.0009959396
v 0.02485001 0.0009959396 0.001724679
v -0.02485 0.0009959396 0.001724679
v 0.02485001 2.428703E-05 0.002016174
v -0.02485 2.428703E-05 0.002016174
v -0.02485 -0.000995947 0.001724679
v 0.02485001 -0.000995947 0.001724679
v -0.02485 -0.001724686 0.0009959396
v -0.02485 -0.002016183 2.428703E-05
v -0.02485 -0.001724686 -0.000995947
v -0.02485 -0.000995947 0.001724679
v -0.02485 -0.000995947 -0.001724686
v -0.02485 2.428703E-05 0.002016174
v -0.02485 2.428703E-05 -0.002016183
v -0.02485 0.0009959396 0.001724679
v -0.02485 0.0009959396 -0.001724686
v -0.02485 0.001724679 0.0009959396
v -0.02485 0.001724679 -0.000995947
v -0.02485 0.002016174 2.428703E-05
vt 10.17303 -63.2394
vt 10.17303 -78.3848
vt 10.1013 -78.3848
vt 10.1013 -63.2394
vt 10.02682 -78.3848
vt 10.02682 -63.2394
vt 9.955093 -78.3848
vt 9.955093 -63.2394
vt -14.38789 -80.1228
vt -14.45963 -80.1228
vt -14.45963 -64.97739
vt -14.38789 -64.97739
vt -14.31341 -80.1228
vt -14.31341 -64.97739
vt -14.24168 -80.1228
vt -14.24168 -64.97739
vt -14.1672 -80.1228
vt -14.1672 -64.97739
vt -14.09547 -64.97739
vt -14.09547 -80.1228
vt -21.82266 -63.2394
vt -21.82266 -78.3848
vt -21.89439 -78.3848
vt -21.89439 -63.2394
vt -21.96887 -78.3848
vt -21.96887 -63.2394
vt -22.0406 -78.3848
vt -22.0406 -63.2394
vt -22.11233 -63.2394
vt -22.11233 -78.3848
vt 10.23648 -61.30553
vt 10.27235 -61.57864
vt 10.27235 -61.89314
vt 10.17303 -61.14828
vt 10.23648 -62.16625
vt 10.1013 -61.14828
vt 10.17303 -62.3235
vt 10.03786 -61.30553
vt 10.1013 -62.3235
vt 10.00199 -61.57864
vt 10.03786 -62.16625
vt 10.00199 -61.89314
vn -0.01587105 0.01587105 -0.9997481
vn -0.01587105 0.01587105 -0.9997481
vn -0.01587105 0.4920015 -0.8704497
vn -0.01587105 0.4920015 -0.8704497
vn -0.01587105 0.8729059 -0.4876305
vn -0.01587105 0.8729059 -0.4876305
vn -0.01587105 0.999874 -0.000345267
vn -0.01587105 0.999874 -0.000345267
vn -0.01587105 -0.8729059 0.4876305
vn -0.01587105 -0.4920015 0.8704497
vn -0.01587105 -0.4920015 0.8704497
vn -0.01587105 -0.8729059 0.4876305
vn -0.01587105 -0.999874 -0.000345267
vn -0.01587105 -0.999874 -0.000345267
vn -0.01587105 -0.8729059 -0.4876305
vn -0.01587105 -0.8729059 -0.4876305
vn -0.01587105 -0.4920015 -0.8704497
vn -0.01587105 -0.4920015 -0.8704497
vn -0.01587105 0.01587105 -0.9997481
vn -0.01587105 0.01587105 -0.9997481
vn -0.01587105 0.999874 -0.000345267
vn -0.01587105 0.999874 -0.000345267
vn -0.01587105 0.8729059 0.4876305
vn -0.01587105 0.8729059 0.4876305
vn -0.01587105 0.4920015 0.8704497
vn -0.01587105 0.4920015 0.8704497
vn -0.01587105 0.01587105 0.9997481
vn -0.01587105 0.01587105 0.9997481
vn -0.01587105 -0.4920015 0.8704497
vn -0.01587105 -0.4920015 0.8704497
vn -0.999874 0.01587105 -0.0003439156
vn -0.999874 0.01587105 -0.0003439156
vn -0.999874 0.01587105 -0.0003439156
vn -0.999874 0.01587105 -0.0003439156
vn -0.999874 0.01587105 -0.0003439156
vn -0.999874 0.01587105 -0.0003439156
vn -0.999874 0.01587105 -0.0003439156
vn -0.999874 0.01587105 -0.0003439156
vn -0.999874 0.01587105 -0.0003439156
vn -0.999874 0.01587105 -0.0003439156
vn -0.999874 0.01587105 -0.0003439156
vn -0.999874 0.01587105 -0.0003439156
g Group_010_0
f 3/3/3 2/2/2 1/1/1
f 1/1/1 4/4/4 3/3/3
f 5/5/5 3/3/3 4/4/4
f 4/4/4 6/6/6 5/5/5
f 7/7/7 5/5/5 6/6/6
f 6/6/6 8/8/8 7/7/7
f 11/11/11 10/10/10 9/9/9
f 9/9/9 12/12/12 11/11/11
f 12/12/12 9/9/9 13/13/13
f 13/13/13 14/14/14 12/12/12
f 14/14/14 13/13/13 15/15/15
f 15/15/15 16/16/16 14/14/14
f 16/16/16 15/15/15 17/17/17
f 17/17/17 18/18/18 16/16/16
f 19/19/19 18/18/18 17/17/17
f 17/17/17 20/20/20 19/19/19
f 23/23/23 22/22/22 21/21/21
f 21/21/21 24/24/24 23/23/23
f 25/25/25 23/23/23 24/24/24
f 24/24/24 26/26/26 25/25/25
f 27/27/27 25/25/25 26/26/26
f 26/26/26 28/28/28 27/27/27
f 27/27/27 28/28/28 29/29/29
f 29/29/29 30/30/30 27/27/27
f 33/33/33 32/32/32 31/31/31
f 31/31/31 34/34/34 33/33/33
f 34/34/34 35/35/35 33/33/33
f 34/34/34 36/36/36 35/35/35
f 36/36/36 37/37/37 35/35/35
f 36/36/36 38/38/38 37/37/37
f 38/38/38 39/39/39 37/37/37
f 38/38/38 40/40/40 39/39/39
f 40/40/40 41/41/41 39/39/39
f 40/40/40 42/42/42 41/41/41
