g ID17inst
v -0.1901865 0.91671 0.0259848
v -0.1706415 0.91842 0.02197175
v -0.1901865 0.91671 0.02197175
v -0.1706415 0.91842 0.0259848
v -0.130654 0.9219199 0.02197175
v -0.130654 0.9219199 0.0259848
v -0.191303 0.92947 0.0259848
v -0.1901865 0.91671 0.0259848
v -0.1901865 0.91671 0.02197175
v -0.191303 0.92947 0.02197175
v -0.1922515 0.9403149 0.0259848
v -0.192206 0.939795 0.0220402
v -0.19327 0.951955 0.02198155
v -0.193101 0.95002 0.0186246
v -0.194223 0.962845 0.01104455
v -0.19393 0.9595 0.00910645
v -0.194572 0.966835 -0.003895565
v -0.194234 0.96297 -0.003895565
v -0.194223 0.962845 -0.01883585
v -0.19393 0.9595 -0.01689775
v -0.19327 0.951955 -0.02977305
v -0.193101 0.95002 -0.0264161
v -0.1922515 0.9403149 -0.0337762
v -0.192206 0.939795 -0.0298316
v -0.191303 0.92947 -0.0337762
v -0.191303 0.92947 -0.0297633
v -0.1901865 0.91671 -0.0337762
v -0.1901865 0.91671 -0.0297633
v -0.1717575 0.93118 0.0259848
v -0.172706 0.9420249 0.0259848
v -0.172661 0.941505 0.0220402
v -0.1717575 0.93118 0.02197175
v -0.172706 0.9420249 -0.03377635
v -0.1717575 0.93118 -0.03377635
v -0.1717575 0.93118 -0.0297633
v -0.172661 0.941505 -0.0298316
v -0.1706415 0.91842 -0.03377635
v -0.1901865 0.91671 -0.0337762
v -0.1901865 0.91671 -0.0297633
v -0.1706415 0.91842 -0.0297633
v -0.130654 0.9219199 -0.03377635
v -0.130654 0.9219199 -0.0297633
v -0.130654 0.9219199 0.0259848
v -0.1317705 0.93468 0.0259848
v -0.1317705 0.93468 0.02197175
v -0.130654 0.9219199 0.02197175
v -0.1317705 0.93468 0.0259848
v -0.1717575 0.93118 0.0259848
v -0.1717575 0.93118 0.02197175
v -0.1317705 0.93468 0.02197175
v -0.1317705 0.93468 -0.03377635
v -0.130654 0.9219199 -0.03377635
v -0.130654 0.9219199 -0.0297633
v -0.1317705 0.93468 -0.0297633
v -0.1717575 0.93118 -0.03377635
v -0.1317705 0.93468 -0.03377635
v -0.1317705 0.93468 -0.0297633
v -0.1717575 0.93118 -0.0297633
v -0.172706 0.9420249 0.0259848
v -0.132719 0.9455199 0.0259848
v -0.1326285 0.94449 0.0221086
v -0.172661 0.941505 0.0220402
v -0.132719 0.9455199 0.0259848
v -0.1335685 0.95523 0.0186246
v -0.1326285 0.94449 0.0221086
v -0.1337375 0.95716 0.02198155
v -0.1343975 0.9647099 0.00910645
v -0.1346905 0.968055 0.01104455
v -0.1347015 0.9681799 -0.003895685
v -0.1350395 0.972045 -0.003895685
v -0.1343975 0.9647099 -0.01689775
v -0.1346905 0.968055 -0.01883585
v -0.1335685 0.95523 -0.0264161
v -0.1337375 0.95716 -0.02977305
v -0.1326285 0.94449 -0.0298999
v -0.132719 0.9455199 -0.03377635
v -0.132719 0.9455199 -0.03377635
v -0.172706 0.9420249 -0.03377635
v -0.172661 0.941505 -0.0298316
v -0.1326285 0.94449 -0.0298999
v -0.1706415 0.91842 0.0259848
v -0.1901865 0.91671 0.0259848
v -0.191303 0.92947 0.0259848
v -0.1717575 0.93118 0.0259848
v -0.1922515 0.9403149 0.0259848
v -0.1317705 0.93468 0.0259848
v -0.130654 0.9219199 0.0259848
v -0.172706 0.9420249 0.0259848
v -0.19327 0.951955 0.02198155
v -0.1737245 0.953665 0.02198155
v -0.132719 0.9455199 0.0259848
v -0.194223 0.962845 0.01104455
v -0.1337375 0.95716 0.02198155
v -0.1746775 0.964555 0.01104455
v -0.194572 0.966835 -0.003895565
v -0.1346905 0.968055 0.01104455
v -0.1750265 0.968545 -0.003895565
v -0.1350395 0.972045 -0.003895685
v -0.1750265 0.968545 -0.003895565
v -0.194572 0.966835 -0.003895565
v -0.194223 0.962845 -0.01883585
v -0.1746775 0.964555 -0.01883585
v -0.1350395 0.972045 -0.003895685
v -0.19327 0.951955 -0.02977305
v -0.1346905 0.968055 -0.01883585
v -0.1737245 0.953665 -0.02977305
v -0.1337375 0.95716 -0.02977305
v -0.1922515 0.9403149 -0.0337762
v -0.172706 0.9420249 -0.03377635
v -0.132719 0.9455199 -0.03377635
v -0.1717575 0.93118 -0.03377635
v -0.191303 0.92947 -0.0337762
v -0.1706415 0.91842 -0.03377635
v -0.1901865 0.91671 -0.0337762
v -0.130654 0.9219199 -0.03377635
v -0.1317705 0.93468 -0.03377635
v -0.1706415 0.91842 0.02197175
v -0.191303 0.92947 0.02197175
v -0.1901865 0.91671 0.02197175
v -0.1717575 0.93118 0.02197175
v -0.192206 0.939795 0.0220402
v -0.1317705 0.93468 0.02197175
v -0.130654 0.9219199 0.02197175
v -0.172661 0.941505 0.0220402
v -0.193101 0.95002 0.0186246
v -0.17355 0.951665 0.01850625
v -0.1326285 0.94449 0.0221086
v -0.19393 0.9595 0.00910645
v -0.1335685 0.95523 0.0186246
v -0.174375 0.9610949 0.00903805
v -0.194234 0.96297 -0.003895565
v -0.1343975 0.9647099 0.00910645
v -0.174677 0.964545 -0.003895565
v -0.1347015 0.9681799 -0.003895685
v -0.174677 0.964545 -0.003895565
v -0.19393 0.9595 -0.01689775
v -0.194234 0.96297 -0.003895565
v -0.174375 0.9610949 -0.01682945
v -0.1347015 0.9681799 -0.003895685
v -0.193101 0.95002 -0.0264161
v -0.1343975 0.9647099 -0.01689775
v -0.17355 0.951665 -0.0262975
v -0.1335685 0.95523 -0.0264161
v -0.192206 0.939795 -0.0298316
v -0.172661 0.941505 -0.0298316
v -0.1326285 0.94449 -0.0298999
v -0.1717575 0.93118 -0.0297633
v -0.191303 0.92947 -0.0297633
v -0.1706415 0.91842 -0.0297633
v -0.1901865 0.91671 -0.0297633
v -0.130654 0.9219199 -0.0297633
v -0.1317705 0.93468 -0.0297633
vt 0.117657 0.822852
vt 0.101545 0.822852
vt 0.117657 0.822852
vt 0.101545 0.822852
vt 0.0685836 0.822852
vt 0.0685836 0.822852
vt 0.117657 0.833369
vt 0.117657 0.822852
vt 0.117657 0.822852
vt 0.117657 0.833369
vt 0.117657 0.842307
vt 0.117657 0.841879
vt 0.117657 0.851902
vt 0.117657 0.850309
vt 0.117657 0.860882
vt 0.117657 0.858122
vt 0.117657 0.86417
vt 0.117657 0.860984
vt 0.117657 0.860882
vt 0.117657 0.858122
vt 0.117657 0.851902
vt 0.117657 0.850309
vt 0.117657 0.842307
vt 0.117657 0.841879
vt 0.117657 0.833369
vt 0.117657 0.833369
vt 0.117657 0.822852
vt 0.117657 0.822852
vt 0.101545 0.833369
vt 0.101545 0.842307
vt 0.101545 0.841879
vt 0.101545 0.833369
vt 0.101545 0.842307
vt 0.101545 0.833369
vt 0.101545 0.833369
vt 0.101545 0.841879
vt 0.101545 0.822852
vt 0.117657 0.822852
vt 0.117657 0.822852
vt 0.101545 0.822852
vt 0.0685836 0.822852
vt 0.0685836 0.822852
vt 0.0685836 0.822852
vt 0.0685836 0.833369
vt 0.0685836 0.833369
vt 0.0685836 0.822852
vt 0.0685836 0.833369
vt 0.101545 0.833369
vt 0.101545 0.833369
vt 0.0685836 0.833369
vt 0.0685836 0.833369
vt 0.0685836 0.822852
vt 0.0685836 0.822852
vt 0.0685836 0.833369
vt 0.101545 0.833369
vt 0.0685836 0.833369
vt 0.0685836 0.833369
vt 0.101545 0.833369
vt 0.101545 0.842307
vt 0.0685836 0.842307
vt 0.0685836 0.841456
vt 0.101545 0.841879
vt 0.0685836 0.842307
vt 0.0685836 0.850309
vt 0.0685836 0.841456
vt 0.0685836 0.851902
vt 0.0685836 0.858122
vt 0.0685836 0.860882
vt 0.0685836 0.860984
vt 0.0685836 0.86417
vt 0.0685836 0.858122
vt 0.0685836 0.860882
vt 0.0685836 0.850309
vt 0.0685836 0.851902
vt 0.0685836 0.841456
vt 0.0685836 0.842307
vt 0.0685836 0.842307
vt 0.101545 0.842307
vt 0.101545 0.841879
vt 0.0685836 0.841456
vt 0.101545 0.822852
vt 0.117657 0.822852
vt 0.117657 0.833369
vt 0.101545 0.833369
vt 0.117657 0.842307
vt 0.0685836 0.833369
vt 0.0685836 0.822852
vt 0.101545 0.842307
vt 0.117657 0.851902
vt 0.101545 0.851902
vt 0.0685836 0.842307
vt 0.117657 0.860882
vt 0.0685836 0.851902
vt 0.101545 0.860882
vt 0.117657 0.86417
vt 0.0685836 0.860882
vt 0.101545 0.86417
vt 0.0685836 0.86417
vt 0.101545 0.86417
vt 0.117657 0.86417
vt 0.117657 0.860882
vt 0.101545 0.860882
vt 0.0685836 0.86417
vt 0.117657 0.851902
vt 0.0685836 0.860882
vt 0.101545 0.851902
vt 0.0685836 0.851902
vt 0.117657 0.842307
vt 0.101545 0.842307
vt 0.0685836 0.842307
vt 0.101545 0.833369
vt 0.117657 0.833369
vt 0.101545 0.822852
vt 0.117657 0.822852
vt 0.0685836 0.822852
vt 0.0685836 0.833369
vt 0.101545 0.822852
vt 0.117657 0.833369
vt 0.117657 0.822852
vt 0.101545 0.833369
vt 0.117657 0.841879
vt 0.0685836 0.833369
vt 0.0685836 0.822852
vt 0.101545 0.841879
vt 0.117657 0.850309
vt 0.101545 0.850256
vt 0.0685836 0.841456
vt 0.117657 0.858122
vt 0.0685836 0.850309
vt 0.101545 0.858028
vt 0.117657 0.860984
vt 0.0685836 0.858122
vt 0.101545 0.860873
vt 0.0685836 0.860984
vt 0.101545 0.860873
vt 0.117657 0.858122
vt 0.117657 0.860984
vt 0.101545 0.858028
vt 0.0685836 0.860984
vt 0.117657 0.850309
vt 0.0685836 0.858122
vt 0.101545 0.850256
vt 0.0685836 0.850309
vt 0.117657 0.841879
vt 0.101545 0.841879
vt 0.0685836 0.841456
vt 0.101545 0.833369
vt 0.117657 0.833369
vt 0.101545 0.822852
vt 0.117657 0.822852
vt 0.0685836 0.822852
vt 0.0685836 0.833369
vn 0.0871588 -0.9961945 0
vn 0.0871748 -0.9961931 0
vn 0.0871588 -0.9961945 0
vn 0.0871748 -0.9961931 0
vn 0.08719081 -0.9961916 0
vn 0.08719081 -0.9961916 0
vn -0.9961956 -0.08714639 0
vn -0.9961938 -0.08716638 0
vn -0.9961938 -0.08716638 0
vn -0.9961956 -0.08714639 0
vn -0.9961956 -0.08714668 1.901347E-05
vn -0.9961956 -0.08714668 1.901347E-05
vn -0.9961942 -0.08716135 1.675961E-05
vn -0.9961942 -0.08716135 1.675961E-05
vn -0.9961935 -0.08716966 0
vn -0.9961935 -0.08716966 0
vn -0.9961922 -0.08718356 0
vn -0.9961922 -0.08718356 0
vn -0.9961935 -0.08716965 0
vn -0.9961935 -0.08716965 0
vn -0.9961942 -0.08716109 -1.67596E-05
vn -0.9961942 -0.08716109 -1.67596E-05
vn -0.9961956 -0.08714639 -1.901339E-05
vn -0.9961956 -0.08714639 -1.901339E-05
vn -0.9961956 -0.08714665 0
vn -0.9961956 -0.08714665 0
vn -0.9961938 -0.08716696 0
vn -0.9961938 -0.08716696 0
vn 0.9961953 0.08714943 -5.883685E-05
vn 0.9961953 0.08714943 -5.883685E-05
vn 0.9961953 0.08714943 -5.883685E-05
vn 0.9961953 0.08714943 -5.883685E-05
vn 0.9961953 0.08714936 5.883566E-05
vn 0.9961953 0.08714936 5.883566E-05
vn 0.9961953 0.08714936 5.883566E-05
vn 0.9961953 0.08714936 5.883566E-05
vn 0.08717471 -0.9961931 0
vn 0.08715682 -0.9961946 0
vn 0.08715682 -0.9961946 0
vn 0.08717471 -0.9961931 0
vn 0.0871926 -0.9961915 0
vn 0.0871926 -0.9961915 0
vn 0.9961938 0.08716588 0
vn 0.9961938 0.08716588 0
vn 0.9961938 0.08716588 0
vn 0.9961938 0.08716588 0
vn -0.08719538 0.9961911 0
vn -0.08719538 0.9961911 0
vn -0.08719538 0.9961911 0
vn -0.08719538 0.9961911 0
vn 0.9961938 0.08716629 0
vn 0.9961938 0.08716629 0
vn 0.9961938 0.08716629 0
vn 0.9961938 0.08716629 0
vn -0.08719538 0.9961911 0
vn -0.08719538 0.9961911 0
vn -0.08719538 0.9961911 0
vn -0.08719538 0.9961911 0
vn 0.07899868 -0.9775955 0.1951062
vn 0.07899868 -0.9775955 0.1951062
vn 0.07899868 -0.9775955 0.1951062
vn 0.07899868 -0.9775955 0.1951062
vn 0.996191 0.08719707 5.692204E-05
vn 0.9961915 0.08719261 5.896746E-05
vn 0.996191 0.08719707 5.692204E-05
vn 0.9961915 0.08719261 5.896746E-05
vn 0.9961922 0.08718334 2.808372E-05
vn 0.9961922 0.08718334 2.808372E-05
vn 0.9961926 0.08718015 0
vn 0.9961926 0.08718015 0
vn 0.9961922 0.08718447 -2.853906E-05
vn 0.9961922 0.08718447 -2.853906E-05
vn 0.9961915 0.08719232 -5.929418E-05
vn 0.9961915 0.08719232 -5.929418E-05
vn 0.996191 0.08719748 -5.692074E-05
vn 0.996191 0.08719748 -5.692074E-05
vn 0.07899923 -0.9775973 -0.1950967
vn 0.07899923 -0.9775973 -0.1950967
vn 0.07899923 -0.9775973 -0.1950967
vn 0.07899923 -0.9775973 -0.1950967
vn 0 0 1
vn 0 0 1
vn 0 0 1
vn 0 0 1
vn -0.01431869 0.1636654 0.9864119
vn 0 0 1
vn 0 0 1
vn -0.01905309 0.2178858 0.9757883
vn -0.0461362 0.5273583 0.8483895
vn -0.04612384 0.5273354 0.8484043
vn -0.02822116 0.3228854 0.9460172
vn -0.07547817 0.8627593 0.4999493
vn -0.04611151 0.5273126 0.8484192
vn -0.07548425 0.8627445 0.499974
vn -0.08715229 0.996195 0
vn -0.07549033 0.8627297 0.4999987
vn -0.08717355 0.9961932 0
vn -0.0871948 0.9961913 0
vn -0.08717355 0.9961932 0
vn -0.08715229 0.996195 0
vn -0.0754793 0.8627623 -0.4999441
vn -0.07548479 0.8627473 -0.4999692
vn -0.0871948 0.9961913 0
vn -0.04613904 0.5273612 -0.8483875
vn -0.07549028 0.8627322 -0.4999944
vn -0.04612521 0.5273396 -0.8484017
vn -0.04611137 0.5273181 -0.8484159
vn -0.0143246 0.163664 -0.986412
vn -0.01905712 0.2178861 -0.9757882
vn -0.02822142 0.3228888 -0.946016
vn -5.024284E-06 0 -1
vn -7.536426E-06 0 -1
vn 0 0 -1
vn -7.536467E-06 0 -1
vn 0 0 -1
vn 0 0 -1
vn 0 0 -1
vn -0.0002877914 0.003289512 -0.9999946
vn 0 0 -1
vn -0.0001918608 0.00219303 -0.9999976
vn 0.01220723 -0.1592502 -0.9871628
vn 0 0 -1
vn 0 0 -1
vn 0.01759952 -0.2126102 -0.9769786
vn 0.04091287 -0.5266066 -0.849124
vn 0.04433384 -0.525337 -0.8497385
vn 0.02808011 -0.3159859 -0.9483483
vn 0.06864949 -0.8633606 -0.4998958
vn 0.04775605 -0.5240595 -0.8503418
vn 0.07375367 -0.8629335 -0.4999061
vn 0.08031555 -0.9967695 0
vn 0.07885594 -0.8624839 -0.4999032
vn 0.0854257 -0.9963445 0
vn 0.09053363 -0.9958934 0
vn 0.0854257 -0.9963445 0
vn 0.0686455 -0.8633623 0.4998935
vn 0.08031555 -0.9967695 0
vn 0.07375191 -0.8629348 0.4999043
vn 0.09053363 -0.9958934 0
vn 0.04090716 -0.5266084 0.8491231
vn 0.07885641 -0.8624847 0.4999019
vn 0.04433154 -0.5253376 0.8497382
vn 0.04775713 -0.5240591 0.850342
vn 0.01220445 -0.1592587 0.9871615
vn 0.01759821 -0.212615 0.9769776
vn 0.02808173 -0.3159836 0.948349
vn -0.0001914386 0.002188144 0.9999976
vn -0.000287158 0.003282218 0.9999946
vn 0 0 1
vn 0 0 1
vn 0 0 1
vn 0 0 1
g ID17inst_0
f 3/3/3 2/2/2 1/1/1
f 2/2/2 4/4/4 1/1/1
f 2/2/2 5/5/5 4/4/4
f 5/5/5 6/6/6 4/4/4
f 9/9/9 8/8/8 7/7/7
f 10/10/10 9/9/9 7/7/7
f 10/10/10 7/7/7 11/11/11
f 12/12/12 10/10/10 11/11/11
f 12/12/12 11/11/11 13/13/13
f 14/14/14 12/12/12 13/13/13
f 14/14/14 13/13/13 15/15/15
f 16/16/16 14/14/14 15/15/15
f 16/16/16 15/15/15 17/17/17
f 18/18/18 16/16/16 17/17/17
f 18/18/18 17/17/17 19/19/19
f 20/20/20 18/18/18 19/19/19
f 20/20/20 19/19/19 21/21/21
f 22/22/22 20/20/20 21/21/21
f 22/22/22 21/21/21 23/23/23
f 24/24/24 22/22/22 23/23/23
f 24/24/24 23/23/23 25/25/25
f 26/26/26 24/24/24 25/25/25
f 26/26/26 25/25/25 27/27/27
f 28/28/28 26/26/26 27/27/27
f 31/31/31 30/30/30 29/29/29
f 32/32/32 31/31/31 29/29/29
f 35/35/35 34/34/34 33/33/33
f 36/36/36 35/35/35 33/33/33
f 39/39/39 38/38/38 37/37/37
f 40/40/40 39/39/39 37/37/37
f 40/40/40 37/37/37 41/41/41
f 42/42/42 40/40/40 41/41/41
f 45/45/45 44/44/44 43/43/43
f 46/46/46 45/45/45 43/43/43
f 49/49/49 48/48/48 47/47/47
f 50/50/50 49/49/49 47/47/47
f 53/53/53 52/52/52 51/51/51
f 54/54/54 53/53/53 51/51/51
f 57/57/57 56/56/56 55/55/55
f 58/58/58 57/57/57 55/55/55
f 61/61/61 60/60/60 59/59/59
f 62/62/62 61/61/61 59/59/59
f 65/65/65 64/64/64 63/63/63
f 64/64/64 66/66/66 63/63/63
f 64/64/64 67/67/67 66/66/66
f 67/67/67 68/68/68 66/66/66
f 67/67/67 69/69/69 68/68/68
f 69/69/69 70/70/70 68/68/68
f 69/69/69 71/71/71 70/70/70
f 71/71/71 72/72/72 70/70/70
f 71/71/71 73/73/73 72/72/72
f 73/73/73 74/74/74 72/72/72
f 73/73/73 75/75/75 74/74/74
f 75/75/75 76/76/76 74/74/74
f 79/79/79 78/78/78 77/77/77
f 80/80/80 79/79/79 77/77/77
f 83/83/83 82/82/82 81/81/81
f 84/84/84 83/83/83 81/81/81
f 85/85/85 83/83/83 84/84/84
f 84/84/84 81/81/81 86/86/86
f 81/81/81 87/87/87 86/86/86
f 88/88/88 85/85/85 84/84/84
f 89/89/89 85/85/85 88/88/88
f 90/90/90 89/89/89 88/88/88
f 90/90/90 88/88/88 91/91/91
f 92/92/92 89/89/89 90/90/90
f 93/93/93 90/90/90 91/91/91
f 94/94/94 92/92/92 90/90/90
f 94/94/94 90/90/90 93/93/93
f 95/95/95 92/92/92 94/94/94
f 96/96/96 94/94/94 93/93/93
f 97/97/97 95/95/95 94/94/94
f 97/97/97 94/94/94 96/96/96
f 98/98/98 97/97/97 96/96/96
f 101/101/101 100/100/100 99/99/99
f 102/102/102 101/101/101 99/99/99
f 102/102/102 99/99/99 103/103/103
f 104/104/104 101/101/101 102/102/102
f 105/105/105 102/102/102 103/103/103
f 106/106/106 104/104/104 102/102/102
f 106/106/106 102/102/102 105/105/105
f 107/107/107 106/106/106 105/105/105
f 108/108/108 104/104/104 106/106/106
f 109/109/109 106/106/106 107/107/107
f 109/109/109 108/108/108 106/106/106
f 110/110/110 109/109/109 107/107/107
f 109/109/109 111/111/111 108/108/108
f 111/111/111 112/112/112 108/108/108
f 111/111/111 113/113/113 112/112/112
f 113/113/113 114/114/114 112/112/112
f 115/115/115 113/113/113 111/111/111
f 116/116/116 115/115/115 111/111/111
f 119/119/119 118/118/118 117/117/117
f 118/118/118 120/120/120 117/117/117
f 118/118/118 121/121/121 120/120/120
f 117/117/117 120/120/120 122/122/122
f 123/123/123 117/117/117 122/122/122
f 121/121/121 124/124/124 120/120/120
f 121/121/121 125/125/125 124/124/124
f 125/125/125 126/126/126 124/124/124
f 124/124/124 126/126/126 127/127/127
f 125/125/125 128/128/128 126/126/126
f 126/126/126 129/129/129 127/127/127
f 128/128/128 130/130/130 126/126/126
f 126/126/126 130/130/130 129/129/129
f 128/128/128 131/131/131 130/130/130
f 130/130/130 132/132/132 129/129/129
f 131/131/131 133/133/133 130/130/130
f 130/130/130 133/133/133 132/132/132
f 133/133/133 134/134/134 132/132/132
f 137/137/137 136/136/136 135/135/135
f 136/136/136 138/138/138 135/135/135
f 135/135/135 138/138/138 139/139/139
f 136/136/136 140/140/140 138/138/138
f 138/138/138 141/141/141 139/139/139
f 140/140/140 142/142/142 138/138/138
f 138/138/138 142/142/142 141/141/141
f 142/142/142 143/143/143 141/141/141
f 140/140/140 144/144/144 142/142/142
f 142/142/142 145/145/145 143/143/143
f 144/144/144 145/145/145 142/142/142
f 145/145/145 146/146/146 143/143/143
f 147/147/147 145/145/145 144/144/144
f 148/148/148 147/147/147 144/144/144
f 149/149/149 147/147/147 148/148/148
f 150/150/150 149/149/149 148/148/148
f 149/149/149 151/151/151 147/147/147
f 151/151/151 152/152/152 147/147/147
