g ID21inst
v 0.021809 0.93526 0.1866575
v 0.0178112 0.9349099 0.1670375
v 0.0178112 0.9349099 0.1866575
v 0.021809 0.93526 0.1670375
v 0.0178112 0.9349099 0.1268975
v 0.021809 0.93526 0.1268975
v 0.02069275 0.948015 0.1866575
v 0.021809 0.93526 0.1866575
v 0.0178112 0.9349099 0.1866575
v 0.016695 0.94767 0.1866575
v 0.0197441 0.9588599 0.1866575
v 0.0158599 0.9579999 0.1866575
v 0.0147377 0.97015 0.1866575
v 0.0115626 0.967925 0.1866575
v 0.00288926 0.98009 0.1866575
v 0.00125136 0.976575 0.1866575
v -0.0123431 0.9827799 0.1866575
v -0.01200495 0.9789149 0.1866575
v -0.02687745 0.97749 0.1866575
v -0.0246539 0.97431 0.1866575
v -0.03682 0.9656399 0.1866575
v -0.03330675 0.964 0.1866575
v -0.0397895 0.95365 0.1866575
v -0.03581455 0.953475 0.1866575
v -0.03884085 0.94281 0.1866575
v -0.0348432 0.9431599 0.1866575
v -0.0377246 0.93005 0.1866575
v -0.03372695 0.9304 0.1866575
v 0.02069275 0.948015 0.1670375
v 0.0197441 0.9588599 0.1670375
v 0.0158599 0.9579999 0.1670375
v 0.016695 0.94767 0.1670375
v -0.03978965 0.95365 0.1670375
v -0.038841 0.94281 0.1670375
v -0.0348432 0.9431599 0.1670375
v -0.03581455 0.953475 0.1670375
v -0.03772475 0.93005 0.1670375
v -0.0377246 0.93005 0.1866575
v -0.03372695 0.9304 0.1866575
v -0.03372695 0.9304 0.1670375
v -0.03772475 0.93005 0.1268975
v -0.03372695 0.9304 0.1268975
v 0.021809 0.93526 0.1268975
v 0.02069275 0.948015 0.1268975
v 0.016695 0.94767 0.1268975
v 0.0178112 0.9349099 0.1268975
v 0.02069275 0.948015 0.1268975
v 0.02069275 0.948015 0.1670375
v 0.016695 0.94767 0.1670375
v 0.016695 0.94767 0.1268975
v -0.038841 0.94281 0.1268975
v -0.03772475 0.93005 0.1268975
v -0.03372695 0.9304 0.1268975
v -0.0348432 0.9431599 0.1268975
v -0.038841 0.94281 0.1670375
v -0.038841 0.94281 0.1268975
v -0.0348432 0.9431599 0.1268975
v -0.0348432 0.9431599 0.1670375
v 0.0197441 0.9588599 0.1670375
v 0.0197441 0.9588599 0.1268975
v 0.015973 0.95749 0.1268975
v 0.0158599 0.9579999 0.1670375
v 0.0197441 0.9588599 0.1268975
v 0.0115626 0.967925 0.1268975
v 0.015973 0.95749 0.1268975
v 0.0147377 0.97015 0.1268975
v 0.00125136 0.976575 0.1268975
v 0.00288926 0.98009 0.1268975
v -0.01200505 0.9789149 0.1268975
v -0.0123432 0.9827799 0.1268975
v -0.0246539 0.97431 0.1268975
v -0.02687745 0.97749 0.1268975
v -0.03330675 0.964 0.1268975
v -0.03682 0.9656399 0.1268975
v -0.0358376 0.9529549 0.1268975
v -0.03978965 0.95365 0.1268975
v -0.03978965 0.95365 0.1268975
v -0.03978965 0.95365 0.1670375
v -0.03581455 0.953475 0.1670375
v -0.0358376 0.9529549 0.1268975
v 0.021809 0.93526 0.1670375
v 0.021809 0.93526 0.1866575
v 0.02069275 0.948015 0.1866575
v 0.02069275 0.948015 0.1670375
v 0.0197441 0.9588599 0.1866575
v 0.02069275 0.948015 0.1268975
v 0.021809 0.93526 0.1268975
v 0.0197441 0.9588599 0.1670375
v 0.0147377 0.97015 0.1866575
v 0.0147377 0.97015 0.1670375
v 0.0197441 0.9588599 0.1268975
v 0.00288926 0.98009 0.1866575
v 0.0147377 0.97015 0.1268975
v 0.00288926 0.98009 0.1670375
v -0.0123431 0.9827799 0.1866575
v 0.00288926 0.98009 0.1268975
v -0.0123431 0.9827799 0.1670375
v -0.0123432 0.9827799 0.1268975
v -0.0123431 0.9827799 0.1670375
v -0.0123431 0.9827799 0.1866575
v -0.02687745 0.97749 0.1866575
v -0.02687745 0.97749 0.1670375
v -0.0123432 0.9827799 0.1268975
v -0.03682 0.9656399 0.1866575
v -0.02687745 0.97749 0.1268975
v -0.03682 0.9656399 0.1670375
v -0.03682 0.9656399 0.1268975
v -0.0397895 0.95365 0.1866575
v -0.03978965 0.95365 0.1670375
v -0.03978965 0.95365 0.1268975
v -0.038841 0.94281 0.1670375
v -0.03884085 0.94281 0.1866575
v -0.03772475 0.93005 0.1670375
v -0.0377246 0.93005 0.1866575
v -0.03772475 0.93005 0.1268975
v -0.038841 0.94281 0.1268975
v 0.0178112 0.9349099 0.1670375
v 0.016695 0.94767 0.1866575
v 0.0178112 0.9349099 0.1866575
v 0.016695 0.94767 0.1670375
v 0.0158599 0.9579999 0.1866575
v 0.016695 0.94767 0.1268975
v 0.0178112 0.9349099 0.1268975
v 0.0158599 0.9579999 0.1670375
v 0.0115626 0.967925 0.1866575
v 0.01145035 0.96785 0.1670375
v 0.015973 0.95749 0.1268975
v 0.00125136 0.976575 0.1866575
v 0.0115626 0.967925 0.1268975
v 0.00119326 0.9764549 0.1670375
v -0.01200495 0.9789149 0.1866575
v 0.00125136 0.976575 0.1268975
v -0.01199315 0.97878 0.1670375
v -0.01200505 0.9789149 0.1268975
v -0.01199315 0.97878 0.1670375
v -0.0246539 0.97431 0.1866575
v -0.01200495 0.9789149 0.1866575
v -0.0245758 0.9742 0.1670375
v -0.01200505 0.9789149 0.1268975
v -0.03330675 0.964 0.1866575
v -0.0246539 0.97431 0.1268975
v -0.0331829 0.9639449 0.1670375
v -0.03330675 0.964 0.1268975
v -0.03581455 0.953475 0.1866575
v -0.03581455 0.953475 0.1670375
v -0.0358376 0.9529549 0.1268975
v -0.0348432 0.9431599 0.1670375
v -0.0348432 0.9431599 0.1866575
v -0.03372695 0.9304 0.1670375
v -0.03372695 0.9304 0.1866575
v -0.03372695 0.9304 0.1268975
v -0.0348432 0.9431599 0.1268975
vt 0.117657 0.822852
vt 0.101545 0.822852
vt 0.117657 0.822852
vt 0.101545 0.822852
vt 0.0685836 0.822852
vt 0.0685836 0.822852
vt 0.117657 0.833369
vt 0.117657 0.822852
vt 0.117657 0.822852
vt 0.117657 0.833369
vt 0.117657 0.842307
vt 0.117657 0.841879
vt 0.117657 0.851902
vt 0.117657 0.850309
vt 0.117657 0.860882
vt 0.117657 0.858122
vt 0.117657 0.86417
vt 0.117657 0.860984
vt 0.117657 0.860882
vt 0.117657 0.858122
vt 0.117657 0.851902
vt 0.117657 0.850309
vt 0.117657 0.842307
vt 0.117657 0.841879
vt 0.117657 0.833369
vt 0.117657 0.833369
vt 0.117657 0.822852
vt 0.117657 0.822852
vt 0.101545 0.833369
vt 0.101545 0.842307
vt 0.101545 0.841879
vt 0.101545 0.833369
vt 0.101545 0.842307
vt 0.101545 0.833369
vt 0.101545 0.833369
vt 0.101545 0.841879
vt 0.101545 0.822852
vt 0.117657 0.822852
vt 0.117657 0.822852
vt 0.101545 0.822852
vt 0.0685836 0.822852
vt 0.0685836 0.822852
vt 0.0685836 0.822852
vt 0.0685836 0.833369
vt 0.0685836 0.833369
vt 0.0685836 0.822852
vt 0.0685836 0.833369
vt 0.101545 0.833369
vt 0.101545 0.833369
vt 0.0685836 0.833369
vt 0.0685836 0.833369
vt 0.0685836 0.822852
vt 0.0685836 0.822852
vt 0.0685836 0.833369
vt 0.101545 0.833369
vt 0.0685836 0.833369
vt 0.0685836 0.833369
vt 0.101545 0.833369
vt 0.101545 0.842307
vt 0.0685836 0.842307
vt 0.0685836 0.841456
vt 0.101545 0.841879
vt 0.0685836 0.842307
vt 0.0685836 0.850309
vt 0.0685836 0.841456
vt 0.0685836 0.851902
vt 0.0685836 0.858122
vt 0.0685836 0.860882
vt 0.0685836 0.860984
vt 0.0685836 0.86417
vt 0.0685836 0.858122
vt 0.0685836 0.860882
vt 0.0685836 0.850309
vt 0.0685836 0.851902
vt 0.0685836 0.841456
vt 0.0685836 0.842307
vt 0.0685836 0.842307
vt 0.101545 0.842307
vt 0.101545 0.841879
vt 0.0685836 0.841456
vt 0.101545 0.822852
vt 0.117657 0.822852
vt 0.117657 0.833369
vt 0.101545 0.833369
vt 0.117657 0.842307
vt 0.0685836 0.833369
vt 0.0685836 0.822852
vt 0.101545 0.842307
vt 0.117657 0.851902
vt 0.101545 0.851902
vt 0.0685836 0.842307
vt 0.117657 0.860882
vt 0.0685836 0.851902
vt 0.101545 0.860882
vt 0.117657 0.86417
vt 0.0685836 0.860882
vt 0.101545 0.86417
vt 0.0685836 0.86417
vt 0.101545 0.86417
vt 0.117657 0.86417
vt 0.117657 0.860882
vt 0.101545 0.860882
vt 0.0685836 0.86417
vt 0.117657 0.851902
vt 0.0685836 0.860882
vt 0.101545 0.851902
vt 0.0685836 0.851902
vt 0.117657 0.842307
vt 0.101545 0.842307
vt 0.0685836 0.842307
vt 0.101545 0.833369
vt 0.117657 0.833369
vt 0.101545 0.822852
vt 0.117657 0.822852
vt 0.0685836 0.822852
vt 0.0685836 0.833369
vt 0.101545 0.822852
vt 0.117657 0.833369
vt 0.117657 0.822852
vt 0.101545 0.833369
vt 0.117657 0.841879
vt 0.0685836 0.833369
vt 0.0685836 0.822852
vt 0.101545 0.841879
vt 0.117657 0.850309
vt 0.101545 0.850256
vt 0.0685836 0.841456
vt 0.117657 0.858122
vt 0.0685836 0.850309
vt 0.101545 0.858028
vt 0.117657 0.860984
vt 0.0685836 0.858122
vt 0.101545 0.860873
vt 0.0685836 0.860984
vt 0.101545 0.860873
vt 0.117657 0.858122
vt 0.117657 0.860984
vt 0.101545 0.858028
vt 0.0685836 0.860984
vt 0.117657 0.850309
vt 0.0685836 0.858122
vt 0.101545 0.850256
vt 0.0685836 0.850309
vt 0.117657 0.841879
vt 0.101545 0.841879
vt 0.0685836 0.841456
vt 0.101545 0.833369
vt 0.117657 0.833369
vt 0.101545 0.822852
vt 0.117657 0.822852
vt 0.0685836 0.822852
vt 0.0685836 0.833369
vn 0.08723918 -0.9961874 0
vn 0.08723515 -0.9961877 0
vn 0.08723918 -0.9961874 0
vn 0.08723515 -0.9961877 0
vn 0.08723112 -0.9961881 0
vn 0.08723112 -0.9961881 0
vn 0 0 1
vn 0 0 1
vn 0 0 1
vn 0 0 1
vn 0 0 1
vn 0 0 1
vn 0 0 1
vn 0 0 1
vn 0 0 1
vn 0 0 1
vn 0 0 1
vn 0 0 1
vn 0 0 1
vn 0 0 1
vn 0 0 1
vn 0 0 1
vn 0 0 1
vn 0 0 1
vn 0 0 1
vn 0 0 1
vn 0 0 1
vn 0 0 1
vn 0 0 -1
vn 0 0 -1
vn 0 0 -1
vn 0 0 -1
vn 0 0 -1
vn 0 0 -1
vn 0 0 -1
vn 0 0 -1
vn 0.08720764 -0.9961901 0
vn 0.08721218 -0.9961898 0
vn 0.08721218 -0.9961898 0
vn 0.08720764 -0.9961901 0
vn 0.0872031 -0.9961905 0
vn 0.0872031 -0.9961905 0
vn 0 0 -1
vn 0 0 -1
vn 0 0 -1
vn 0 0 -1
vn -0.0859573 0.9962988 0
vn -0.0859573 0.9962988 0
vn -0.0859573 0.9962988 0
vn -0.0859573 0.9962988 0
vn 0 0 -1
vn 0 0 -1
vn 0 0 -1
vn 0 0 -1
vn -0.08721711 0.9961893 0
vn -0.08721711 0.9961893 0
vn -0.08721711 0.9961893 0
vn -0.08721711 0.9961893 0
vn 0.2796455 -0.9600813 0.006491947
vn 0.2796455 -0.9600813 0.006491947
vn 0.2796455 -0.9600813 0.006491947
vn 0.2796455 -0.9600813 0.006491947
vn 0 0 -1
vn 0 0 -1
vn 0 0 -1
vn 0 0 -1
vn 0 0 -1
vn 0 0 -1
vn 0 0 -1
vn 0 0 -1
vn 0 0 -1
vn 0 0 -1
vn 0 0 -1
vn 0 0 -1
vn 0 0 -1
vn 0 0 -1
vn -0.1091006 -0.9940096 0.006470483
vn -0.1091006 -0.9940096 0.006470483
vn -0.1091006 -0.9940096 0.006470483
vn -0.1091006 -0.9940096 0.006470483
vn 0.9961923 0.08718218 0
vn 0.9961923 0.08718226 0
vn 0.9961942 0.08716165 0
vn 0.9961935 0.08716845 0
vn 0.9683368 0.2496475 0
vn 0.9961923 0.0871821 0
vn 0.9961923 0.0871821 0
vn 0.9530067 0.3029493 0
vn 0.7990549 0.6012582 0
vn 0.7990562 0.6012564 0
vn 0.9141539 0.4053672 0
vn 0.4226903 0.9062742 0
vn 0.7990574 0.6012546 0
vn 0.4226899 0.9062744 0
vn -0.08702174 0.9962064 0
vn 0.4226894 0.9062746 0
vn -0.087023 0.9962063 0
vn -0.08702427 0.9962062 0
vn -0.087023 0.9962063 0
vn -0.08702174 0.9962064 0
vn -0.5735905 0.8191422 0
vn -0.5735895 0.8191429 0
vn -0.08702427 0.9962062 0
vn -0.8913692 0.4532781 0
vn -0.5735886 0.8191436 0
vn -0.8913686 0.453279 0
vn -0.8913682 0.4532799 0
vn -0.9969792 0.0776699 5.817099E-06
vn -0.9911405 0.1328173 0
vn -0.9706705 0.2404139 0
vn -0.9961945 -0.08715884 5.112462E-06
vn -0.996194 -0.08716424 7.685968E-06
vn -0.9961954 -0.08714813 0
vn -0.9961954 -0.08714819 7.633986E-06
vn -0.9961954 -0.08714806 0
vn -0.9961954 -0.08714806 0
vn -0.9961958 -0.08714327 0
vn -0.9964774 -0.08386192 0
vn -0.9961958 -0.0871433 0
vn -0.9963847 -0.0849558 0
vn -0.969475 -0.2451844 0.001717876
vn -0.9961958 -0.08714323 0
vn -0.9961958 -0.08714323 0
vn -0.9546509 -0.2977258 0.001003544
vn -0.7998326 -0.6002013 0.005126585
vn -0.8005328 -0.5992867 0.001629642
vn -0.9170635 -0.3987411 -0.0004140109
vn -0.4225988 -0.9062911 0.006833616
vn -0.8012225 -0.5983636 -0.001869214
vn -0.4226077 -0.9063111 0.001746761
vn 0.08713452 -0.996173 0.006860582
vn -0.4226056 -0.9063076 -0.003340147
vn 0.0871364 -0.9961948 0.001753543
vn 0.08713601 -0.9961908 -0.003353546
vn 0.0871364 -0.9961948 0.001753543
vn 0.5735393 -0.8191491 0.006881672
vn 0.08713452 -0.996173 0.006860582
vn 0.5735518 -0.8191674 0.00175888
vn 0.08713601 -0.9961908 -0.003353546
vn 0.8919387 -0.4521267 0.005157218
vn 0.5735491 -0.8191642 -0.003363968
vn 0.8924658 -0.451112 0.001635351
vn 0.8929808 -0.4500907 -0.001888429
vn 0.9973285 -0.07302601 0.001723621
vn 0.9918594 -0.1273346 0.001002709
vn 0.9723982 -0.2333273 -0.0004278282
vn 0.9960002 0.08935004 0
vn 0.9959009 0.09045109 0
vn 0.9961954 0.08714792 0
vn 0.9961954 0.08714816 0
vn 0.9961954 0.08714767 0
vn 0.9961954 0.08714767 0
g ID21inst_0
f 3/3/3 2/2/2 1/1/1
f 2/2/2 4/4/4 1/1/1
f 2/2/2 5/5/5 4/4/4
f 5/5/5 6/6/6 4/4/4
f 9/9/9 8/8/8 7/7/7
f 10/10/10 9/9/9 7/7/7
f 10/10/10 7/7/7 11/11/11
f 12/12/12 10/10/10 11/11/11
f 12/12/12 11/11/11 13/13/13
f 14/14/14 12/12/12 13/13/13
f 14/14/14 13/13/13 15/15/15
f 16/16/16 14/14/14 15/15/15
f 16/16/16 15/15/15 17/17/17
f 18/18/18 16/16/16 17/17/17
f 18/18/18 17/17/17 19/19/19
f 20/20/20 18/18/18 19/19/19
f 20/20/20 19/19/19 21/21/21
f 22/22/22 20/20/20 21/21/21
f 22/22/22 21/21/21 23/23/23
f 24/24/24 22/22/22 23/23/23
f 24/24/24 23/23/23 25/25/25
f 26/26/26 24/24/24 25/25/25
f 26/26/26 25/25/25 27/27/27
f 28/28/28 26/26/26 27/27/27
f 31/31/31 30/30/30 29/29/29
f 32/32/32 31/31/31 29/29/29
f 35/35/35 34/34/34 33/33/33
f 36/36/36 35/35/35 33/33/33
f 39/39/39 38/38/38 37/37/37
f 40/40/40 39/39/39 37/37/37
f 40/40/40 37/37/37 41/41/41
f 42/42/42 40/40/40 41/41/41
f 45/45/45 44/44/44 43/43/43
f 46/46/46 45/45/45 43/43/43
f 49/49/49 48/48/48 47/47/47
f 50/50/50 49/49/49 47/47/47
f 53/53/53 52/52/52 51/51/51
f 54/54/54 53/53/53 51/51/51
f 57/57/57 56/56/56 55/55/55
f 58/58/58 57/57/57 55/55/55
f 61/61/61 60/60/60 59/59/59
f 62/62/62 61/61/61 59/59/59
f 65/65/65 64/64/64 63/63/63
f 64/64/64 66/66/66 63/63/63
f 64/64/64 67/67/67 66/66/66
f 67/67/67 68/68/68 66/66/66
f 67/67/67 69/69/69 68/68/68
f 69/69/69 70/70/70 68/68/68
f 69/69/69 71/71/71 70/70/70
f 71/71/71 72/72/72 70/70/70
f 71/71/71 73/73/73 72/72/72
f 73/73/73 74/74/74 72/72/72
f 73/73/73 75/75/75 74/74/74
f 75/75/75 76/76/76 74/74/74
f 79/79/79 78/78/78 77/77/77
f 80/80/80 79/79/79 77/77/77
f 83/83/83 82/82/82 81/81/81
f 84/84/84 83/83/83 81/81/81
f 85/85/85 83/83/83 84/84/84
f 84/84/84 81/81/81 86/86/86
f 81/81/81 87/87/87 86/86/86
f 88/88/88 85/85/85 84/84/84
f 89/89/89 85/85/85 88/88/88
f 90/90/90 89/89/89 88/88/88
f 90/90/90 88/88/88 91/91/91
f 92/92/92 89/89/89 90/90/90
f 93/93/93 90/90/90 91/91/91
f 94/94/94 92/92/92 90/90/90
f 94/94/94 90/90/90 93/93/93
f 95/95/95 92/92/92 94/94/94
f 96/96/96 94/94/94 93/93/93
f 97/97/97 95/95/95 94/94/94
f 97/97/97 94/94/94 96/96/96
f 98/98/98 97/97/97 96/96/96
f 101/101/101 100/100/100 99/99/99
f 102/102/102 101/101/101 99/99/99
f 102/102/102 99/99/99 103/103/103
f 104/104/104 101/101/101 102/102/102
f 105/105/105 102/102/102 103/103/103
f 106/106/106 104/104/104 102/102/102
f 106/106/106 102/102/102 105/105/105
f 107/107/107 106/106/106 105/105/105
f 108/108/108 104/104/104 106/106/106
f 109/109/109 106/106/106 107/107/107
f 109/109/109 108/108/108 106/106/106
f 110/110/110 109/109/109 107/107/107
f 109/109/109 111/111/111 108/108/108
f 111/111/111 112/112/112 108/108/108
f 111/111/111 113/113/113 112/112/112
f 113/113/113 114/114/114 112/112/112
f 115/115/115 113/113/113 111/111/111
f 116/116/116 115/115/115 111/111/111
f 119/119/119 118/118/118 117/117/117
f 118/118/118 120/120/120 117/117/117
f 118/118/118 121/121/121 120/120/120
f 117/117/117 120/120/120 122/122/122
f 123/123/123 117/117/117 122/122/122
f 121/121/121 124/124/124 120/120/120
f 121/121/121 125/125/125 124/124/124
f 125/125/125 126/126/126 124/124/124
f 124/124/124 126/126/126 127/127/127
f 125/125/125 128/128/128 126/126/126
f 126/126/126 129/129/129 127/127/127
f 128/128/128 130/130/130 126/126/126
f 126/126/126 130/130/130 129/129/129
f 128/128/128 131/131/131 130/130/130
f 130/130/130 132/132/132 129/129/129
f 131/131/131 133/133/133 130/130/130
f 130/130/130 133/133/133 132/132/132
f 133/133/133 134/134/134 132/132/132
f 137/137/137 136/136/136 135/135/135
f 136/136/136 138/138/138 135/135/135
f 135/135/135 138/138/138 139/139/139
f 136/136/136 140/140/140 138/138/138
f 138/138/138 141/141/141 139/139/139
f 140/140/140 142/142/142 138/138/138
f 138/138/138 142/142/142 141/141/141
f 142/142/142 143/143/143 141/141/141
f 140/140/140 144/144/144 142/142/142
f 142/142/142 145/145/145 143/143/143
f 144/144/144 145/145/145 142/142/142
f 145/145/145 146/146/146 143/143/143
f 147/147/147 145/145/145 144/144/144
f 148/148/148 147/147/147 144/144/144
f 149/149/149 147/147/147 148/148/148
f 150/150/150 149/149/149 148/148/148
f 149/149/149 151/151/151 147/147/147
f 151/151/151 152/152/152 147/147/147
