g ID22inst
v 0.0692845 0.96109 0.1194875
v 0.0692845 0.96109 0.1078075
v 0.0568945 0.960005 0.1078075
v 0.0568945 0.960005 0.1194875
v 0.0700795 0.952005 0.1078075
v 0.057689 0.9509199 0.1078075
v 0.0568945 0.960005 0.1078075
v 0.0692845 0.96109 0.1078075
v 0.0582625 0.9443699 0.1194875
v 0.0706525 0.945455 0.1194875
v 0.0692845 0.96109 0.1194875
v 0.0568945 0.960005 0.1194875
v 0.069101 0.96319 0.1210525
v 0.0567105 0.9621049 0.1210525
v 0.0567105 0.9621049 0.1062375
v 0.069101 0.96319 0.1062375
v 0.0700795 0.952005 0.1062375
v 0.069101 0.96319 0.1062375
v 0.0567105 0.9621049 0.1062375
v 0.057689 0.9509199 0.1062375
v 0.0582625 0.9443699 0.1210525
v 0.0567105 0.9621049 0.1210525
v 0.069101 0.96319 0.1210525
v 0.0706525 0.945455 0.1210525
v 0.0700795 0.952005 0.1062375
v 0.057689 0.9509199 0.1062375
v 0.057689 0.9509199 0.1078075
v 0.0700795 0.952005 0.1078075
v 0.057689 0.9509199 0.1062375
v 0.0568945 0.960005 0.1078075
v 0.057689 0.9509199 0.1078075
v 0.0567105 0.9621049 0.1062375
v 0.0568945 0.960005 0.1194875
v 0.0567105 0.9621049 0.1210525
v 0.0582625 0.9443699 0.1194875
v 0.0582625 0.9443699 0.1210525
v 0.069101 0.96319 0.1062375
v 0.0700795 0.952005 0.1062375
v 0.0700795 0.952005 0.1078075
v 0.0692845 0.96109 0.1078075
v 0.069101 0.96319 0.1210525
v 0.0692845 0.96109 0.1194875
v 0.0706525 0.945455 0.1210525
v 0.0706525 0.945455 0.1194875
v 0.0582625 0.9443699 0.1210525
v 0.0706525 0.945455 0.1210525
v 0.0706525 0.945455 0.1194875
v 0.0582625 0.9443699 0.1194875
v 0.0724375 0.70502 0.04417255
v 0.06046 0.9522049 0.1142075
v 0.0710105 0.704895 0.0476327
v 0.0618865 0.9523299 0.1107425
v 0.0758835 0.7053199 0.0427425
v 0.0653325 0.9526299 0.1093125
v 0.0710105 0.704895 0.0476327
v 0.06046 0.9522049 0.1142075
v 0.0618865 0.9523299 0.1176625
v 0.0724375 0.70502 0.0510925
v 0.0724375 0.70502 0.0510925
v 0.0618865 0.9523299 0.1176625
v 0.0653325 0.9526299 0.1190975
v 0.0758835 0.7053199 0.05252749
v 0.0758835 0.7053199 0.05252749
v 0.0653325 0.9526299 0.1190975
v 0.0687785 0.9529349 0.1176625
v 0.0793295 0.705625 0.0510925
v 0.070206 0.9530599 0.1142075
v 0.0807575 0.70575 0.0476327
v 0.0807575 0.70575 0.0476327
v 0.070206 0.9530599 0.1142075
v 0.0687785 0.9529349 0.1107425
v 0.0793295 0.705625 0.04417255
v 0.0793295 0.705625 0.04417255
v 0.0687785 0.9529349 0.1107425
v 0.0653325 0.9526299 0.1093125
v 0.0758835 0.7053199 0.0427425
v 0.0618865 0.9523299 0.1107425
v 0.0618865 0.9523299 0.1176625
v 0.06046 0.9522049 0.1142075
v 0.0653325 0.9526299 0.1190975
v 0.0687785 0.9529349 0.1176625
v 0.0653325 0.9526299 0.1093125
v 0.070206 0.9530599 0.1142075
v 0.0687785 0.9529349 0.1107425
v 0.0706895 0.9580299 0.1183275
v 0.070538 0.959765 0.1165875
v 0.0704825 0.9603949 0.1142125
v 0.07089649 0.9556649 0.1189625
v 0.0711035 0.953295 0.1183275
v 0.070538 0.959765 0.1118375
v 0.0712555 0.951565 0.1165875
v 0.0706895 0.9580299 0.1100975
v 0.0713105 0.95093 0.1142125
v 0.07089649 0.9556649 0.1094625
v 0.0712555 0.951565 0.1118375
v 0.0711035 0.953295 0.1100975
v 0.0604145 0.958875 0.1118375
v 0.070538 0.959765 0.1118375
v 0.0704825 0.9603949 0.1142125
v 0.0605665 0.957145 0.1100975
v 0.0603595 0.95951 0.1142125
v 0.0706895 0.9580299 0.1100975
v 0.070538 0.959765 0.1165875
v 0.0607735 0.954775 0.1094625
v 0.0604145 0.958875 0.1165875
v 0.07089649 0.9556649 0.1094625
v 0.0706895 0.9580299 0.1183275
v 0.0609805 0.95241 0.1100975
v 0.0605665 0.957145 0.1183275
v 0.0711035 0.953295 0.1100975
v 0.07089649 0.9556649 0.1189625
v 0.061132 0.95068 0.1118375
v 0.0607735 0.954775 0.1189625
v 0.0712555 0.951565 0.1118375
v 0.0711035 0.953295 0.1183275
v 0.0611875 0.9500449 0.1142125
v 0.0609805 0.95241 0.1183275
v 0.0713105 0.95093 0.1142125
v 0.0712555 0.951565 0.1165875
v 0.061132 0.95068 0.1165875
vt 0.0541802 0.892764
vt 0.0479214 0.892764
vt 0.0479214 0.892764
vt 0.0541802 0.892764
vt 0.0479214 0.887878
vt 0.0479214 0.887878
vt 0.0479214 0.892764
vt 0.0479214 0.892764
vt 0.0541802 0.884354
vt 0.0541802 0.884354
vt 0.0541802 0.892764
vt 0.0541802 0.892764
vt 0.0550188 0.893895
vt 0.0550188 0.893895
vt 0.0470801 0.893895
vt 0.0470801 0.893895
vt 0.0470801 0.887878
vt 0.0470801 0.893895
vt 0.0470801 0.893895
vt 0.0470801 0.887878
vt 0.0550188 0.884354
vt 0.0550188 0.893895
vt 0.0550188 0.893895
vt 0.0550188 0.884354
vt 0.0470801 0.887878
vt 0.0470801 0.887878
vt 0.0479214 0.887878
vt 0.0479214 0.887878
vt 0.0470801 0.887878
vt 0.0479214 0.892764
vt 0.0479214 0.887878
vt 0.0470801 0.893895
vt 0.0541802 0.892764
vt 0.0550188 0.893895
vt 0.0541802 0.884354
vt 0.0550188 0.884354
vt 0.0470801 0.893895
vt 0.0470801 0.887878
vt 0.0479214 0.887878
vt 0.0479214 0.892764
vt 0.0550188 0.893895
vt 0.0541802 0.892764
vt 0.0550188 0.884354
vt 0.0541802 0.884354
vt 0.0550188 0.884354
vt 0.0550188 0.884354
vt 0.0541802 0.884354
vt 0.0541802 0.884354
vt 0.0138222 0.755923
vt 0.0513509 0.888434
vt 0.0156763 0.755923
vt 0.0494941 0.888434
vt 0.013056 0.755923
vt 0.0487279 0.888434
vt 0.0156763 0.755923
vt 0.0513509 0.888434
vt 0.0532023 0.888434
vt 0.0175303 0.755923
vt 0.0175303 0.755923
vt 0.0532023 0.888434
vt 0.0539712 0.888434
vt 0.0182993 0.755923
vt 0.0182993 0.755923
vt 0.0539712 0.888434
vt 0.0532023 0.888434
vt 0.0175303 0.755923
vt 0.0513509 0.888434
vt 0.0156763 0.755923
vt 0.0156763 0.755923
vt 0.0513509 0.888434
vt 0.0494941 0.888434
vt 0.0138222 0.755923
vt 0.0138222 0.755923
vt 0.0494941 0.888434
vt 0.0487279 0.888434
vt 0.013056 0.755923
vt 0.0494941 0.888434
vt 0.0532023 0.888434
vt 0.0513509 0.888434
vt 0.0539712 0.888434
vt 0.0532023 0.888434
vt 0.0487279 0.888434
vt 0.0513509 0.888434
vt 0.0494941 0.888434
vt 0.0535586 0.891065
vt 0.0526262 0.891998
vt 0.0513535 0.892338
vt 0.0538989 0.889792
vt 0.0535586 0.88852
vt 0.0500809 0.891998
vt 0.0526262 0.887587
vt 0.0491485 0.891065
vt 0.0513535 0.887247
vt 0.0488082 0.889792
vt 0.0500809 0.887587
vt 0.0491485 0.88852
vt 0.0500809 0.891998
vt 0.0500809 0.891998
vt 0.0513535 0.892338
vt 0.0491485 0.891065
vt 0.0513535 0.892338
vt 0.0491485 0.891065
vt 0.0526262 0.891998
vt 0.0488082 0.889792
vt 0.0526262 0.891998
vt 0.0488082 0.889792
vt 0.0535586 0.891065
vt 0.0491485 0.88852
vt 0.0535586 0.891065
vt 0.0491485 0.88852
vt 0.0538989 0.889792
vt 0.0500809 0.887587
vt 0.0538989 0.889792
vt 0.0500809 0.887587
vt 0.0535586 0.88852
vt 0.0513535 0.887247
vt 0.0535586 0.88852
vt 0.0513535 0.887247
vt 0.0526262 0.887587
vt 0.0526262 0.887587
vn 0.08723587 -0.9961876 0
vn 0.08723587 -0.9961876 0
vn 0.08723587 -0.9961876 0
vn 0.08723587 -0.9961876 0
vn 0 0 1
vn 0 0 1
vn 0 0 1
vn 0 0 1
vn 0 0 -1
vn 0 0 -1
vn 0 0 -1
vn 0 0 -1
vn -0.08724506 0.9961869 0
vn -0.08724506 0.9961869 0
vn -0.08724506 0.9961869 0
vn -0.08724506 0.9961869 0
vn 0 0 -1
vn 0 0 -1
vn 0 0 -1
vn 0 0 -1
vn 0 0 1
vn 0 0 1
vn 0 0 1
vn 0 0 1
vn 0.08723348 -0.9961879 0
vn 0.08723348 -0.9961879 0
vn 0.08723348 -0.9961879 0
vn 0.08723348 -0.9961879 0
vn -0.9961964 -0.08713689 9.897906E-05
vn -0.99619 -0.08720944 4.948952E-05
vn -0.9961964 -0.08713689 9.897906E-05
vn -0.99619 -0.08720944 4.948952E-05
vn -0.9961885 -0.08722662 -3.795063E-05
vn -0.9961885 -0.08722662 -3.795063E-05
vn -0.9961933 -0.08717126 -7.590126E-05
vn -0.9961933 -0.08717126 -7.590126E-05
vn 0.9961993 0.0871029 4.003622E-05
vn 0.9961944 0.08716022 8.007243E-05
vn 0.9961944 0.08716022 8.007243E-05
vn 0.9961993 0.0871029 4.003622E-05
vn 0.9961994 0.08710113 -3.727309E-05
vn 0.9961994 0.08710113 -3.727309E-05
vn 0.9961946 0.0871567 -7.454619E-05
vn 0.9961946 0.0871567 -7.454619E-05
vn 0.0872452 -0.9961868 0
vn 0.0872452 -0.9961868 0
vn 0.0872452 -0.9961868 0
vn 0.0872452 -0.9961868 0
vn -0.7099173 0.1546644 -0.6870927
vn -0.9235737 0.06243266 -0.3783038
vn -0.9235737 0.06243266 -0.3783038
vn -0.7099173 0.1546644 -0.6870927
vn -0.02113831 0.2590252 -0.9656392
vn -0.02113831 0.2590252 -0.9656392
vn -0.9132288 -0.1417847 0.3819821
vn -0.9132288 -0.1417847 0.3819821
vn -0.9132288 -0.1417847 0.3819821
vn -0.9132288 -0.1417847 0.3819821
vn -0.3523201 -0.2572443 0.899831
vn -0.3523201 -0.2572443 0.899831
vn 0.02110237 -0.2590271 0.9656395
vn 0.02110237 -0.2590271 0.9656395
vn 0.02110237 -0.2590271 0.9656395
vn 0.02110237 -0.2590271 0.9656395
vn 0.7101626 -0.1545892 0.686856
vn 0.7101626 -0.1545892 0.686856
vn 0.9232728 -0.06263226 0.3790047
vn 0.9232728 -0.06263226 0.3790047
vn 0.9133482 0.1417206 -0.3817203
vn 0.9133482 0.1417206 -0.3817203
vn 0.9133482 0.1417206 -0.3817203
vn 0.9133482 0.1417206 -0.3817203
vn 0.3508625 0.2573286 -0.9003763
vn 0.3508625 0.2573286 -0.9003763
vn -0.02113831 0.2590252 -0.9656392
vn -0.02113831 0.2590252 -0.9656392
vn -0.08716986 0.9961934 0
vn -0.08689668 0.9962173 0
vn -0.08689668 0.9962173 0
vn -0.08716986 0.9961934 0
vn -0.08766921 0.9961497 0
vn -0.08766921 0.9961497 0
vn -0.08789536 0.9961296 0
vn -0.08789536 0.9961296 0
vn 0.996203 0.08706108 -7.861649E-05
vn 0.996203 0.08706108 -7.861649E-05
vn 0.9961992 0.08710389 -2.671157E-05
vn 0.9961992 0.08710389 -2.671157E-05
vn 0.9961933 0.08717211 4.012654E-05
vn 0.9961933 0.08717211 4.012654E-05
vn 0.996196 0.08714114 -1.393407E-05
vn 0.996196 0.08714114 -1.393407E-05
vn 0.9961939 0.08716533 -2.652686E-05
vn 0.9961939 0.08716533 -2.652686E-05
vn 0.9961868 0.0872459 2.987416E-05
vn 0.9961868 0.0872459 2.987416E-05
vn -0.07564878 0.8629238 -0.4996397
vn -0.07564878 0.8629238 -0.4996397
vn -0.08733206 0.9961792 0
vn -0.04364721 0.4978884 -0.866142
vn -0.08733206 0.9961792 0
vn -0.04364721 0.4978884 -0.866142
vn -0.0756489 0.8629229 0.4996413
vn 0 0 -1
vn -0.0756489 0.8629229 0.4996413
vn 0 0 -1
vn -0.04364727 0.497889 0.8661417
vn 0.04358966 -0.4982153 -0.865957
vn -0.04364727 0.497889 0.8661417
vn 0.04358966 -0.4982153 -0.865957
vn 0 0 1
vn 0.07543697 -0.8628751 -0.4997558
vn 0 0 1
vn 0.07543697 -0.8628751 -0.4997558
vn 0.04358687 -0.4982119 0.8659591
vn 0.08709249 -0.9962003 0
vn 0.04358687 -0.4982119 0.8659591
vn 0.08709249 -0.9962003 0
vn 0.07543416 -0.8628743 0.4997576
vn 0.07543416 -0.8628743 0.4997576
g ID22inst_0
f 3/3/3 2/2/2 1/1/1
f 4/4/4 3/3/3 1/1/1
f 7/7/7 6/6/6 5/5/5
f 8/8/8 7/7/7 5/5/5
f 11/11/11 10/10/10 9/9/9
f 12/12/12 11/11/11 9/9/9
f 15/15/15 14/14/14 13/13/13
f 16/16/16 15/15/15 13/13/13
f 19/19/19 18/18/18 17/17/17
f 20/20/20 19/19/19 17/17/17
f 23/23/23 22/22/22 21/21/21
f 24/24/24 23/23/23 21/21/21
f 27/27/27 26/26/26 25/25/25
f 28/28/28 27/27/27 25/25/25
f 31/31/31 30/30/30 29/29/29
f 30/30/30 32/32/32 29/29/29
f 30/30/30 33/33/33 32/32/32
f 33/33/33 34/34/34 32/32/32
f 33/33/33 35/35/35 34/34/34
f 35/35/35 36/36/36 34/34/34
f 39/39/39 38/38/38 37/37/37
f 40/40/40 39/39/39 37/37/37
f 40/40/40 37/37/37 41/41/41
f 42/42/42 40/40/40 41/41/41
f 42/42/42 41/41/41 43/43/43
f 44/44/44 42/42/42 43/43/43
f 47/47/47 46/46/46 45/45/45
f 48/48/48 47/47/47 45/45/45
f 51/51/51 50/50/50 49/49/49
f 50/50/50 52/52/52 49/49/49
f 49/49/49 52/52/52 53/53/53
f 52/52/52 54/54/54 53/53/53
f 57/57/57 56/56/56 55/55/55
f 58/58/58 57/57/57 55/55/55
f 61/61/61 60/60/60 59/59/59
f 62/62/62 61/61/61 59/59/59
f 65/65/65 64/64/64 63/63/63
f 66/66/66 65/65/65 63/63/63
f 67/67/67 65/65/65 66/66/66
f 68/68/68 67/67/67 66/66/66
f 71/71/71 70/70/70 69/69/69
f 72/72/72 71/71/71 69/69/69
f 75/75/75 74/74/74 73/73/73
f 76/76/76 75/75/75 73/73/73
f 79/79/79 78/78/78 77/77/77
f 78/78/78 80/80/80 77/77/77
f 80/80/80 81/81/81 77/77/77
f 81/81/81 82/82/82 77/77/77
f 81/81/81 83/83/83 82/82/82
f 83/83/83 84/84/84 82/82/82
f 87/87/87 86/86/86 85/85/85
f 88/88/88 87/87/87 85/85/85
f 88/88/88 89/89/89 87/87/87
f 89/89/89 90/90/90 87/87/87
f 89/89/89 91/91/91 90/90/90
f 91/91/91 92/92/92 90/90/90
f 91/91/91 93/93/93 92/92/92
f 93/93/93 94/94/94 92/92/92
f 93/93/93 95/95/95 94/94/94
f 95/95/95 96/96/96 94/94/94
f 99/99/99 98/98/98 97/97/97
f 97/97/97 98/98/98 100/100/100
f 101/101/101 99/99/99 97/97/97
f 98/98/98 102/102/102 100/100/100
f 103/103/103 99/99/99 101/101/101
f 100/100/100 102/102/102 104/104/104
f 105/105/105 103/103/103 101/101/101
f 102/102/102 106/106/106 104/104/104
f 107/107/107 103/103/103 105/105/105
f 104/104/104 106/106/106 108/108/108
f 109/109/109 107/107/107 105/105/105
f 106/106/106 110/110/110 108/108/108
f 111/111/111 107/107/107 109/109/109
f 108/108/108 110/110/110 112/112/112
f 113/113/113 111/111/111 109/109/109
f 110/110/110 114/114/114 112/112/112
f 115/115/115 111/111/111 113/113/113
f 112/112/112 114/114/114 116/116/116
f 117/117/117 115/115/115 113/113/113
f 114/114/114 118/118/118 116/116/116
f 119/119/119 115/115/115 117/117/117
f 116/116/116 118/118/118 120/120/120
f 120/120/120 119/119/119 117/117/117
f 118/118/118 119/119/119 120/120/120
