g ID25inst
v 0.181873 0.9492599 -0.0260787
v 0.1623275 0.9475549 -0.02206565
v 0.181873 0.9492599 -0.02206565
v 0.1623275 0.9475549 -0.0260787
v 0.1223405 0.944055 -0.02206565
v 0.1223405 0.944055 -0.0260787
v 0.1807565 0.96202 -0.0260787
v 0.181873 0.9492599 -0.0260787
v 0.181873 0.9492599 -0.02206565
v 0.1807565 0.96202 -0.02206565
v 0.179808 0.972865 -0.0260787
v 0.1798535 0.972345 -0.0221341
v 0.1787895 0.984505 -0.02207545
v 0.1789585 0.98257 -0.0187185
v 0.1778365 0.9954 -0.01113845
v 0.1781295 0.9920499 -0.00920035
v 0.1774875 0.9993899 0.0038017
v 0.1778255 0.995525 0.0038017
v 0.1778365 0.9954 0.01874195
v 0.1781295 0.9920499 0.01680385
v 0.1787895 0.984505 0.02967915
v 0.1789585 0.98257 0.0263222
v 0.179808 0.972865 0.0336823
v 0.1798535 0.972345 0.0297377
v 0.1807565 0.96202 0.0336823
v 0.1807565 0.96202 0.0296694
v 0.181873 0.9492599 0.0336823
v 0.181873 0.9492599 0.0296694
v 0.1612115 0.96031 -0.0260787
v 0.1602625 0.971155 -0.0260787
v 0.160308 0.970635 -0.0221341
v 0.1612115 0.96031 -0.02206565
v 0.1602625 0.971155 0.03368245
v 0.1612115 0.96031 0.03368245
v 0.1612115 0.96031 0.0296694
v 0.160308 0.970635 0.0297377
v 0.1623275 0.9475549 0.03368245
v 0.181873 0.9492599 0.0336823
v 0.181873 0.9492599 0.0296694
v 0.1623275 0.9475549 0.0296694
v 0.1223405 0.944055 0.03368245
v 0.1223405 0.944055 0.0296694
v 0.1223405 0.944055 -0.0260787
v 0.121224 0.956815 -0.0260787
v 0.121224 0.956815 -0.02206565
v 0.1223405 0.944055 -0.02206565
v 0.121224 0.956815 -0.0260787
v 0.1612115 0.96031 -0.0260787
v 0.1612115 0.96031 -0.02206565
v 0.121224 0.956815 -0.02206565
v 0.121224 0.956815 0.03368245
v 0.1223405 0.944055 0.03368245
v 0.1223405 0.944055 0.0296694
v 0.121224 0.956815 0.0296694
v 0.1612115 0.96031 0.03368245
v 0.121224 0.956815 0.03368245
v 0.121224 0.956815 0.0296694
v 0.1612115 0.96031 0.0296694
v 0.1602625 0.971155 -0.0260787
v 0.1202755 0.9676549 -0.0260787
v 0.120366 0.9666249 -0.0222025
v 0.160308 0.970635 -0.0221341
v 0.1202755 0.9676549 -0.0260787
v 0.119426 0.977365 -0.0187185
v 0.120366 0.9666249 -0.0222025
v 0.119257 0.979295 -0.02207545
v 0.118597 0.986845 -0.00920035
v 0.118304 0.99019 -0.01113845
v 0.118293 0.990315 0.003801815
v 0.117955 0.99418 0.003801815
v 0.118597 0.986845 0.01680385
v 0.118304 0.99019 0.01874195
v 0.119426 0.977365 0.0263222
v 0.119257 0.979295 0.02967915
v 0.120366 0.9666249 0.029806
v 0.1202755 0.9676549 0.03368245
v 0.1202755 0.9676549 0.03368245
v 0.1602625 0.971155 0.03368245
v 0.160308 0.970635 0.0297377
v 0.120366 0.9666249 0.029806
v 0.1623275 0.9475549 -0.0260787
v 0.181873 0.9492599 -0.0260787
v 0.1807565 0.96202 -0.0260787
v 0.1612115 0.96031 -0.0260787
v 0.179808 0.972865 -0.0260787
v 0.121224 0.956815 -0.0260787
v 0.1223405 0.944055 -0.0260787
v 0.1602625 0.971155 -0.0260787
v 0.1787895 0.984505 -0.02207545
v 0.1592445 0.982795 -0.02207545
v 0.1202755 0.9676549 -0.0260787
v 0.1778365 0.9954 -0.01113845
v 0.119257 0.979295 -0.02207545
v 0.158291 0.99369 -0.01113845
v 0.1774875 0.9993899 0.0038017
v 0.118304 0.99019 -0.01113845
v 0.157942 0.9976799 0.0038017
v 0.117955 0.99418 0.003801815
v 0.157942 0.9976799 0.0038017
v 0.1774875 0.9993899 0.0038017
v 0.1778365 0.9954 0.01874195
v 0.158291 0.99369 0.01874195
v 0.117955 0.99418 0.003801815
v 0.1787895 0.984505 0.02967915
v 0.118304 0.99019 0.01874195
v 0.1592445 0.982795 0.02967915
v 0.119257 0.979295 0.02967915
v 0.179808 0.972865 0.0336823
v 0.1602625 0.971155 0.03368245
v 0.1202755 0.9676549 0.03368245
v 0.1612115 0.96031 0.03368245
v 0.1807565 0.96202 0.0336823
v 0.1623275 0.9475549 0.03368245
v 0.181873 0.9492599 0.0336823
v 0.1223405 0.944055 0.03368245
v 0.121224 0.956815 0.03368245
v 0.1623275 0.9475549 -0.02206565
v 0.1807565 0.96202 -0.02206565
v 0.181873 0.9492599 -0.02206565
v 0.1612115 0.96031 -0.02206565
v 0.1798535 0.972345 -0.0221341
v 0.121224 0.956815 -0.02206565
v 0.1223405 0.944055 -0.02206565
v 0.160308 0.970635 -0.0221341
v 0.1789585 0.98257 -0.0187185
v 0.159419 0.980795 -0.01860015
v 0.120366 0.9666249 -0.0222025
v 0.1781295 0.9920499 -0.00920035
v 0.119426 0.977365 -0.0187185
v 0.158594 0.990225 -0.00913195
v 0.1778255 0.995525 0.0038017
v 0.118597 0.986845 -0.00920035
v 0.158292 0.99368 0.0038017
v 0.118293 0.990315 0.003801815
v 0.158292 0.99368 0.0038017
v 0.1781295 0.9920499 0.01680385
v 0.1778255 0.995525 0.0038017
v 0.158594 0.990225 0.01673555
v 0.118293 0.990315 0.003801815
v 0.1789585 0.98257 0.0263222
v 0.118597 0.986845 0.01680385
v 0.159419 0.980795 0.0262036
v 0.119426 0.977365 0.0263222
v 0.1798535 0.972345 0.0297377
v 0.160308 0.970635 0.0297377
v 0.120366 0.9666249 0.029806
v 0.1612115 0.96031 0.0296694
v 0.1807565 0.96202 0.0296694
v 0.1623275 0.9475549 0.0296694
v 0.181873 0.9492599 0.0296694
v 0.1223405 0.944055 0.0296694
v 0.121224 0.956815 0.0296694
vt 0.117657 0.822852
vt 0.101545 0.822852
vt 0.117657 0.822852
vt 0.101545 0.822852
vt 0.0685836 0.822852
vt 0.0685836 0.822852
vt 0.117657 0.833369
vt 0.117657 0.822852
vt 0.117657 0.822852
vt 0.117657 0.833369
vt 0.117657 0.842307
vt 0.117657 0.841879
vt 0.117657 0.851902
vt 0.117657 0.850309
vt 0.117657 0.860882
vt 0.117657 0.858122
vt 0.117657 0.86417
vt 0.117657 0.860984
vt 0.117657 0.860882
vt 0.117657 0.858122
vt 0.117657 0.851902
vt 0.117657 0.850309
vt 0.117657 0.842307
vt 0.117657 0.841879
vt 0.117657 0.833369
vt 0.117657 0.833369
vt 0.117657 0.822852
vt 0.117657 0.822852
vt 0.101545 0.833369
vt 0.101545 0.842307
vt 0.101545 0.841879
vt 0.101545 0.833369
vt 0.101545 0.842307
vt 0.101545 0.833369
vt 0.101545 0.833369
vt 0.101545 0.841879
vt 0.101545 0.822852
vt 0.117657 0.822852
vt 0.117657 0.822852
vt 0.101545 0.822852
vt 0.0685836 0.822852
vt 0.0685836 0.822852
vt 0.0685836 0.822852
vt 0.0685836 0.833369
vt 0.0685836 0.833369
vt 0.0685836 0.822852
vt 0.0685836 0.833369
vt 0.101545 0.833369
vt 0.101545 0.833369
vt 0.0685836 0.833369
vt 0.0685836 0.833369
vt 0.0685836 0.822852
vt 0.0685836 0.822852
vt 0.0685836 0.833369
vt 0.101545 0.833369
vt 0.0685836 0.833369
vt 0.0685836 0.833369
vt 0.101545 0.833369
vt 0.101545 0.842307
vt 0.0685836 0.842307
vt 0.0685836 0.841456
vt 0.101545 0.841879
vt 0.0685836 0.842307
vt 0.0685836 0.850309
vt 0.0685836 0.841456
vt 0.0685836 0.851902
vt 0.0685836 0.858122
vt 0.0685836 0.860882
vt 0.0685836 0.860984
vt 0.0685836 0.86417
vt 0.0685836 0.858122
vt 0.0685836 0.860882
vt 0.0685836 0.850309
vt 0.0685836 0.851902
vt 0.0685836 0.841456
vt 0.0685836 0.842307
vt 0.0685836 0.842307
vt 0.101545 0.842307
vt 0.101545 0.841879
vt 0.0685836 0.841456
vt 0.101545 0.822852
vt 0.117657 0.822852
vt 0.117657 0.833369
vt 0.101545 0.833369
vt 0.117657 0.842307
vt 0.0685836 0.833369
vt 0.0685836 0.822852
vt 0.101545 0.842307
vt 0.117657 0.851902
vt 0.101545 0.851902
vt 0.0685836 0.842307
vt 0.117657 0.860882
vt 0.0685836 0.851902
vt 0.101545 0.860882
vt 0.117657 0.86417
vt 0.0685836 0.860882
vt 0.101545 0.86417
vt 0.0685836 0.86417
vt 0.101545 0.86417
vt 0.117657 0.86417
vt 0.117657 0.860882
vt 0.101545 0.860882
vt 0.0685836 0.86417
vt 0.117657 0.851902
vt 0.0685836 0.860882
vt 0.101545 0.851902
vt 0.0685836 0.851902
vt 0.117657 0.842307
vt 0.101545 0.842307
vt 0.0685836 0.842307
vt 0.101545 0.833369
vt 0.117657 0.833369
vt 0.101545 0.822852
vt 0.117657 0.822852
vt 0.0685836 0.822852
vt 0.0685836 0.833369
vt 0.101545 0.822852
vt 0.117657 0.833369
vt 0.117657 0.822852
vt 0.101545 0.833369
vt 0.117657 0.841879
vt 0.0685836 0.833369
vt 0.0685836 0.822852
vt 0.101545 0.841879
vt 0.117657 0.850309
vt 0.101545 0.850256
vt 0.0685836 0.841456
vt 0.117657 0.858122
vt 0.0685836 0.850309
vt 0.101545 0.858028
vt 0.117657 0.860984
vt 0.0685836 0.858122
vt 0.101545 0.860873
vt 0.0685836 0.860984
vt 0.101545 0.860873
vt 0.117657 0.858122
vt 0.117657 0.860984
vt 0.101545 0.858028
vt 0.0685836 0.860984
vt 0.117657 0.850309
vt 0.0685836 0.858122
vt 0.101545 0.850256
vt 0.0685836 0.850309
vt 0.117657 0.841879
vt 0.101545 0.841879
vt 0.0685836 0.841456
vt 0.101545 0.833369
vt 0.117657 0.833369
vt 0.101545 0.822852
vt 0.117657 0.822852
vt 0.0685836 0.822852
vt 0.0685836 0.833369
vn 0.08690228 -0.9962168 0
vn 0.08704795 -0.9962041 0
vn 0.08690228 -0.9962168 0
vn 0.08704795 -0.9962041 0
vn 0.08719363 -0.9961914 0
vn 0.08719363 -0.9961914 0
vn 0.9961956 0.08714578 0
vn 0.9961938 0.08716679 0
vn 0.9961938 0.08716679 0
vn 0.9961956 0.08714578 0
vn 0.9961956 0.08714635 1.821754E-05
vn 0.9961956 0.08714635 1.821754E-05
vn 0.9961963 0.08713791 3.03855E-05
vn 0.9961963 0.08713791 3.03855E-05
vn 0.9961981 0.08711702 1.245249E-05
vn 0.9961981 0.08711702 1.245249E-05
vn 0.9961973 0.08712599 0
vn 0.9961973 0.08712599 0
vn 0.9961981 0.08711614 -1.246243E-05
vn 0.9961981 0.08711614 -1.246243E-05
vn 0.9961964 0.08713721 -3.038529E-05
vn 0.9961964 0.08713721 -3.038529E-05
vn 0.9961956 0.08714615 -1.821758E-05
vn 0.9961956 0.08714615 -1.821758E-05
vn 0.9961956 0.08714564 0
vn 0.9961956 0.08714564 0
vn 0.9961938 0.08716694 0
vn 0.9961938 0.08716694 0
vn -0.9961931 -0.08717392 0
vn -0.9961931 -0.08717392 0
vn -0.9961931 -0.08717392 0
vn -0.9961931 -0.08717392 0
vn -0.9961931 -0.08717418 0
vn -0.9961931 -0.08717418 0
vn -0.9961931 -0.08717418 0
vn -0.9961931 -0.08717418 0
vn 0.08704784 -0.9962041 0
vn 0.08690031 -0.996217 0
vn 0.08690031 -0.996217 0
vn 0.08704784 -0.9962041 0
vn 0.08719538 -0.9961911 0
vn 0.08719538 -0.9961911 0
vn -0.9961936 -0.08716727 0
vn -0.9961936 -0.08716727 0
vn -0.9961936 -0.08716727 0
vn -0.9961936 -0.08716727 0
vn -0.08706994 0.9962022 0
vn -0.08706994 0.9962022 0
vn -0.08706994 0.9962022 0
vn -0.08706994 0.9962022 0
vn -0.9961938 -0.08716684 0
vn -0.9961938 -0.08716684 0
vn -0.9961938 -0.08716684 0
vn -0.9961938 -0.08716684 0
vn -0.08706991 0.9962022 0
vn -0.08706991 0.9962022 0
vn -0.08706991 0.9962022 0
vn -0.08706991 0.9962022 0
vn 0.0919157 -0.9764623 -0.1951228
vn 0.0919157 -0.9764623 -0.1951228
vn 0.0919157 -0.9764623 -0.1951228
vn 0.0919157 -0.9764623 -0.1951228
vn -0.9961911 -0.08719609 5.769126E-05
vn -0.9961915 -0.08719205 5.902372E-05
vn -0.9961911 -0.08719609 5.769126E-05
vn -0.9961915 -0.08719205 5.902372E-05
vn -0.996192 -0.08718702 2.781165E-05
vn -0.996192 -0.08718702 2.781165E-05
vn -0.9961921 -0.08718564 0
vn -0.9961921 -0.08718564 0
vn -0.996192 -0.08718685 -2.78832E-05
vn -0.996192 -0.08718685 -2.78832E-05
vn -0.9961915 -0.08719208 -5.940722E-05
vn -0.9961915 -0.08719208 -5.940722E-05
vn -0.9961911 -0.08719572 -5.845858E-05
vn -0.9961911 -0.08719572 -5.845858E-05
vn 0.09191474 -0.9764642 0.1951133
vn 0.09191474 -0.9764642 0.1951133
vn 0.09191474 -0.9764642 0.1951133
vn 0.09191474 -0.9764642 0.1951133
vn 0 0 -1
vn 0 0 -1
vn 0 0 -1
vn 0 0 -1
vn -0.01431919 0.1636656 -0.9864119
vn 0 0 -1
vn 0 0 -1
vn -0.01906691 0.217885 -0.9757882
vn -0.04613057 0.527262 -0.8484496
vn -0.04614026 0.5272611 -0.8484496
vn -0.02826115 0.3228824 -0.946017
vn -0.07547744 0.8627031 -0.5000464
vn -0.04614995 0.5272602 -0.8484497
vn -0.07549408 0.8627018 -0.5000462
vn -0.08715516 0.9961947 0
vn -0.07551073 0.8627005 -0.500046
vn -0.087175 0.9961931 0
vn -0.08719482 0.9961913 0
vn -0.087175 0.9961931 0
vn -0.08715516 0.9961947 0
vn -0.07547681 0.8627059 0.5000418
vn -0.07549383 0.8627043 0.500042
vn -0.08719482 0.9961913 0
vn -0.04612825 0.5272652 0.8484477
vn -0.07551086 0.8627027 0.5000422
vn -0.04613958 0.5272655 0.848447
vn -0.0461509 0.5272659 0.8484461
vn -0.01431322 0.1636653 0.986412
vn -0.01906312 0.2178861 0.9757879
vn -0.02826168 0.3228864 0.9460156
vn 5.122864E-06 0 1
vn 7.684295E-06 0 1
vn 0 0 1
vn 7.684326E-06 0 1
vn 0 0 1
vn 0 0 1
vn 0 0 1
vn -0.0002877968 0.003289512 0.9999946
vn 0 0 1
vn -0.0001918644 0.002193007 0.9999976
vn 0.01563247 -0.1589504 0.9871628
vn 0 0 1
vn 0 0 1
vn 0.01958265 -0.2124362 0.9769787
vn 0.05115362 -0.5257105 0.8491241
vn 0.04755169 -0.5250545 0.8497391
vn 0.0272018 -0.3160613 0.9483487
vn 0.08230392 -0.8620765 0.5000501
vn 0.04394716 -0.5243909 0.8503428
vn 0.07720265 -0.8625647 0.5000219
vn 0.09398548 -0.9955735 0
vn 0.0720992 -0.8630301 0.4999806
vn 0.08889098 -0.9960414 0
vn 0.08379439 -0.9964831 0
vn 0.08889098 -0.9960414 0
vn 0.08230395 -0.8620776 -0.5000484
vn 0.09398548 -0.9955735 0
vn 0.07720258 -0.8625655 -0.5000206
vn 0.08379439 -0.9964831 0
vn 0.05115721 -0.5257117 -0.8491231
vn 0.07209905 -0.8630307 -0.4999797
vn 0.04755298 -0.5250551 -0.8497387
vn 0.04394615 -0.5243908 -0.8503429
vn 0.01563614 -0.1589584 -0.9871615
vn 0.01958444 -0.2124408 -0.9769777
vn 0.0271999 -0.3160595 -0.9483494
vn -0.0001914459 0.002188179 -0.9999976
vn -0.000287169 0.003282305 -0.9999946
vn 0 0 -1
vn 0 0 -1
vn 0 0 -1
vn 0 0 -1
g ID25inst_0
f 3/3/3 2/2/2 1/1/1
f 2/2/2 4/4/4 1/1/1
f 2/2/2 5/5/5 4/4/4
f 5/5/5 6/6/6 4/4/4
f 9/9/9 8/8/8 7/7/7
f 10/10/10 9/9/9 7/7/7
f 10/10/10 7/7/7 11/11/11
f 12/12/12 10/10/10 11/11/11
f 12/12/12 11/11/11 13/13/13
f 14/14/14 12/12/12 13/13/13
f 14/14/14 13/13/13 15/15/15
f 16/16/16 14/14/14 15/15/15
f 16/16/16 15/15/15 17/17/17
f 18/18/18 16/16/16 17/17/17
f 18/18/18 17/17/17 19/19/19
f 20/20/20 18/18/18 19/19/19
f 20/20/20 19/19/19 21/21/21
f 22/22/22 20/20/20 21/21/21
f 22/22/22 21/21/21 23/23/23
f 24/24/24 22/22/22 23/23/23
f 24/24/24 23/23/23 25/25/25
f 26/26/26 24/24/24 25/25/25
f 26/26/26 25/25/25 27/27/27
f 28/28/28 26/26/26 27/27/27
f 31/31/31 30/30/30 29/29/29
f 32/32/32 31/31/31 29/29/29
f 35/35/35 34/34/34 33/33/33
f 36/36/36 35/35/35 33/33/33
f 39/39/39 38/38/38 37/37/37
f 40/40/40 39/39/39 37/37/37
f 40/40/40 37/37/37 41/41/41
f 42/42/42 40/40/40 41/41/41
f 45/45/45 44/44/44 43/43/43
f 46/46/46 45/45/45 43/43/43
f 49/49/49 48/48/48 47/47/47
f 50/50/50 49/49/49 47/47/47
f 53/53/53 52/52/52 51/51/51
f 54/54/54 53/53/53 51/51/51
f 57/57/57 56/56/56 55/55/55
f 58/58/58 57/57/57 55/55/55
f 61/61/61 60/60/60 59/59/59
f 62/62/62 61/61/61 59/59/59
f 65/65/65 64/64/64 63/63/63
f 64/64/64 66/66/66 63/63/63
f 64/64/64 67/67/67 66/66/66
f 67/67/67 68/68/68 66/66/66
f 67/67/67 69/69/69 68/68/68
f 69/69/69 70/70/70 68/68/68
f 69/69/69 71/71/71 70/70/70
f 71/71/71 72/72/72 70/70/70
f 71/71/71 73/73/73 72/72/72
f 73/73/73 74/74/74 72/72/72
f 73/73/73 75/75/75 74/74/74
f 75/75/75 76/76/76 74/74/74
f 79/79/79 78/78/78 77/77/77
f 80/80/80 79/79/79 77/77/77
f 83/83/83 82/82/82 81/81/81
f 84/84/84 83/83/83 81/81/81
f 85/85/85 83/83/83 84/84/84
f 84/84/84 81/81/81 86/86/86
f 81/81/81 87/87/87 86/86/86
f 88/88/88 85/85/85 84/84/84
f 89/89/89 85/85/85 88/88/88
f 90/90/90 89/89/89 88/88/88
f 90/90/90 88/88/88 91/91/91
f 92/92/92 89/89/89 90/90/90
f 93/93/93 90/90/90 91/91/91
f 94/94/94 92/92/92 90/90/90
f 94/94/94 90/90/90 93/93/93
f 95/95/95 92/92/92 94/94/94
f 96/96/96 94/94/94 93/93/93
f 97/97/97 95/95/95 94/94/94
f 97/97/97 94/94/94 96/96/96
f 98/98/98 97/97/97 96/96/96
f 101/101/101 100/100/100 99/99/99
f 102/102/102 101/101/101 99/99/99
f 102/102/102 99/99/99 103/103/103
f 104/104/104 101/101/101 102/102/102
f 105/105/105 102/102/102 103/103/103
f 106/106/106 104/104/104 102/102/102
f 106/106/106 102/102/102 105/105/105
f 107/107/107 106/106/106 105/105/105
f 108/108/108 104/104/104 106/106/106
f 109/109/109 106/106/106 107/107/107
f 109/109/109 108/108/108 106/106/106
f 110/110/110 109/109/109 107/107/107
f 109/109/109 111/111/111 108/108/108
f 111/111/111 112/112/112 108/108/108
f 111/111/111 113/113/113 112/112/112
f 113/113/113 114/114/114 112/112/112
f 115/115/115 113/113/113 111/111/111
f 116/116/116 115/115/115 111/111/111
f 119/119/119 118/118/118 117/117/117
f 118/118/118 120/120/120 117/117/117
f 118/118/118 121/121/121 120/120/120
f 117/117/117 120/120/120 122/122/122
f 123/123/123 117/117/117 122/122/122
f 121/121/121 124/124/124 120/120/120
f 121/121/121 125/125/125 124/124/124
f 125/125/125 126/126/126 124/124/124
f 124/124/124 126/126/126 127/127/127
f 125/125/125 128/128/128 126/126/126
f 126/126/126 129/129/129 127/127/127
f 128/128/128 130/130/130 126/126/126
f 126/126/126 130/130/130 129/129/129
f 128/128/128 131/131/131 130/130/130
f 130/130/130 132/132/132 129/129/129
f 131/131/131 133/133/133 130/130/130
f 130/130/130 133/133/133 132/132/132
f 133/133/133 134/134/134 132/132/132
f 137/137/137 136/136/136 135/135/135
f 136/136/136 138/138/138 135/135/135
f 135/135/135 138/138/138 139/139/139
f 136/136/136 140/140/140 138/138/138
f 138/138/138 141/141/141 139/139/139
f 140/140/140 142/142/142 138/138/138
f 138/138/138 142/142/142 141/141/141
f 142/142/142 143/143/143 141/141/141
f 140/140/140 144/144/144 142/142/142
f 142/142/142 145/145/145 143/143/143
f 144/144/144 145/145/145 142/142/142
f 145/145/145 146/146/146 143/143/143
f 147/147/147 145/145/145 144/144/144
f 148/148/148 147/147/147 144/144/144
f 149/149/149 147/147/147 148/148/148
f 150/150/150 149/149/149 148/148/148
f 149/149/149 151/151/151 147/147/147
f 151/151/151 152/152/152 147/147/147
