g ID39inst
v 0.176348 -0.0628925 0.230999
v 0.176328 -0.0628925 0.266752
v -0.161572 -0.0628925 0.266752
v -0.161572 -0.0628925 0.230999
v -0.161572 -0.0628925 -8.38485E-07
v 0.176348 -0.0628925 -9.0253E-07
v -0.161572 -0.0628925 -0.231001
v 0.176348 -0.0628925 -0.231001
v 0.176323 -0.0628925 -0.266754
v -0.161572 -0.0628925 -0.2667535
v -0.161572 -0.1980075 -0.2667535
v -0.161572 -0.0628925 -0.2667535
v -0.161572 -0.0628925 -0.231001
v -0.161572 -0.2078175 -0.231001
v -0.161572 -0.2133975 -8.38485E-07
v -0.161572 -0.0628925 -8.38485E-07
v -0.161572 -0.0628925 0.230999
v -0.161572 -0.2078175 0.230999
v -0.161572 -0.1980075 0.266752
v -0.161572 -0.0628925 0.266752
v 0.176323 -0.1865925 -0.231001
v 0.176323 -0.1865925 -0.266754
v -0.161572 -0.1980075 -0.2667535
v -0.161572 -0.2078175 -0.231001
v 0.176323 -0.1865925 -0.266754
v 0.176323 -0.0628925 -0.266754
v -0.161572 -0.0628925 -0.2667535
v -0.161572 -0.1980075 -0.2667535
v 0.176328 -0.1865925 0.230999
v -0.161572 -0.2078175 0.230999
v -0.161572 -0.1980075 0.266752
v 0.176328 -0.1865925 0.266752
v 0.176328 -0.1865925 0.266752
v -0.161572 -0.1980075 0.266752
v -0.161572 -0.0628925 0.266752
v 0.176328 -0.0628925 0.266752
vt 0.599639 0.346794
vt 0.615323 0.346794
vt 0.615323 0.346794
vt 0.599639 0.346794
vt 0.498309 0.346794
vt 0.498309 0.346794
vt 0.396978 0.346794
vt 0.396978 0.346794
vt 0.381294 0.346794
vt 0.381295 0.346794
vt 0.381295 0.287524
vt 0.381295 0.346794
vt 0.396978 0.346794
vt 0.396978 0.283221
vt 0.498309 0.280773
vt 0.498309 0.346794
vt 0.599639 0.346794
vt 0.599639 0.283221
vt 0.615323 0.287524
vt 0.615323 0.346794
vt 0.396978 0.292532
vt 0.381294 0.292532
vt 0.381295 0.287524
vt 0.396978 0.283221
vt 0.381294 0.292532
vt 0.381294 0.346794
vt 0.381295 0.346794
vt 0.381295 0.287524
vt 0.599639 0.292532
vt 0.599639 0.283221
vt 0.615323 0.287524
vt 0.615323 0.292532
vt 0.615323 0.292532
vt 0.615323 0.287524
vt 0.615323 0.346794
vt 0.615323 0.346794
vn 0 1 0
vn 0 1 0
vn 0 1 0
vn 0 1 0
vn 0 1 0
vn 0 1 0
vn 0 1 0
vn 0 1 0
vn 0 1 0
vn 0 1 0
vn -1 0 0
vn -1 0 0
vn -1 0 0
vn -1 0 0
vn -1 0 0
vn -1 0 0
vn -1 0 0
vn -1 0 0
vn -1 0 0
vn -1 0 0
vn 0.047796 -0.9895877 -0.1357636
vn 0.047796 -0.9895877 -0.1357636
vn 0.047796 -0.9895877 -0.1357636
vn 0.047796 -0.9895877 -0.1357636
vn 0 0 -1
vn 0 0 -1
vn 0 0 -1
vn 0 0 -1
vn 0.04779536 -0.9895878 0.1357626
vn 0.04779536 -0.9895878 0.1357626
vn 0.04779536 -0.9895878 0.1357626
vn 0.04779536 -0.9895878 0.1357626
vn 0 0 1
vn 0 0 1
vn 0 0 1
vn 0 0 1
g ID39inst_0
f 3/3/3 2/2/2 1/1/1
f 4/4/4 3/3/3 1/1/1
f 4/4/4 1/1/1 5/5/5
f 1/1/1 6/6/6 5/5/5
f 5/5/5 6/6/6 7/7/7
f 6/6/6 8/8/8 7/7/7
f 7/7/7 8/8/8 9/9/9
f 10/10/10 7/7/7 9/9/9
f 13/13/13 12/12/12 11/11/11
f 14/14/14 13/13/13 11/11/11
f 14/14/14 15/15/15 13/13/13
f 15/15/15 16/16/16 13/13/13
f 16/16/16 15/15/15 17/17/17
f 15/15/15 18/18/18 17/17/17
f 17/17/17 18/18/18 19/19/19
f 20/20/20 17/17/17 19/19/19
f 23/23/23 22/22/22 21/21/21
f 24/24/24 23/23/23 21/21/21
f 27/27/27 26/26/26 25/25/25
f 28/28/28 27/27/27 25/25/25
f 31/31/31 30/30/30 29/29/29
f 32/32/32 31/31/31 29/29/29
f 35/35/35 34/34/34 33/33/33
f 36/36/36 35/35/35 33/33/33
