g ID43inst
v -0.2901725 0.0588815 -0.64281
v -0.2774275 0.061772 -0.64281
v -0.2649425 0.0579035 -0.64281
v -0.2560625 0.04830975 -0.64281
v -0.2997675 0.050006 -0.64281
v -0.2531725 0.03556525 -0.64281
v -0.3036375 0.03752075 -0.64281
v -0.3071875 -0.0541425 -0.64281
v -0.2567275 -0.056102 -0.64281
v -0.2901725 0.0588815 -0.66756
v -0.2649425 0.0579035 -0.66756
v -0.2774275 0.061772 -0.66756
v -0.2560625 0.04830975 -0.66756
v -0.2997675 0.050006 -0.66756
v -0.3036375 0.03752075 -0.66756
v -0.2531725 0.03556525 -0.66756
v -0.2567275 -0.056102 -0.66756
v -0.3071875 -0.0541425 -0.66756
v -0.2531725 0.03556525 -0.66756
v -0.2567275 -0.056102 -0.66756
v -0.2567275 -0.056102 -0.64281
v -0.2531725 0.03556525 -0.64281
v -0.2560625 0.04830975 -0.64281
v -0.2560625 0.04830975 -0.66756
v -0.2649425 0.0579035 -0.64281
v -0.2649425 0.0579035 -0.66756
v -0.2774275 0.061772 -0.64281
v -0.2774275 0.061772 -0.66756
v -0.2901725 0.0588815 -0.64281
v -0.2901725 0.0588815 -0.66756
v -0.2997675 0.050006 -0.64281
v -0.2997675 0.050006 -0.66756
v -0.3036375 0.03752075 -0.64281
v -0.3036375 0.03752075 -0.66756
v -0.3071875 -0.0541425 -0.66756
v -0.3071875 -0.0541425 -0.64281
v -0.2567275 -0.056102 -0.66756
v -0.3071875 -0.0541425 -0.66756
v -0.3071875 -0.0541425 -0.64281
v -0.2567275 -0.056102 -0.64281
v -0.2977175 0.00705975 -0.66354
v -0.2854575 0.00446926 -0.66372
v -0.2859975 0.00705975 -0.66372
v -0.2854575 0.00965125 -0.66372
v -0.2962475 -3.234485E-06 -0.66354
v -0.2922925 -0.00603275 -0.66354
v -0.2840025 0.00225775 -0.66372
v -0.2817925 0.00080277 -0.66372
v -0.2962475 0.01412175 -0.66354
v -0.2993875 0.007058249 -0.663
v -0.2977875 -0.0006427299 -0.663
v -0.2977875 0.01475925 -0.663
v -0.2934725 -0.00721575 -0.663
v -0.2934725 0.02133275 -0.663
v -0.2922925 0.02014875 -0.66354
v -0.2840025 0.01186275 -0.66372
v -0.2817925 0.01331525 -0.66372
v -0.2862675 -0.00999275 -0.66354
v -0.2869025 -0.01153675 -0.663005
v -0.2791975 -0.01313075 -0.663005
v -0.2862675 0.02410975 -0.66354
v -0.2869025 0.02564925 -0.663
v -0.2791975 0.02724425 -0.663
v -0.2792025 -0.01145425 -0.66354
v -0.2792025 0.0002662705 -0.66372
v -0.2766075 0.00080277 -0.66372
v -0.2792025 0.02557175 -0.66354
v -0.2792025 0.01385275 -0.66372
v -0.2766075 0.01331525 -0.66372
v -0.2721425 -0.00999275 -0.66354
v -0.2714975 -0.01153675 -0.663005
v -0.2649275 -0.00721575 -0.663005
v -0.2721425 0.02410975 -0.66354
v -0.2714975 0.02564925 -0.663
v -0.2649275 0.02133275 -0.663005
v -0.2661125 -0.00603275 -0.66354
v -0.2743975 0.00225775 -0.66372
v -0.2729475 0.00446926 -0.66372
v -0.2661125 0.02014875 -0.66354
v -0.2743975 0.01186275 -0.66372
v -0.2729475 0.00965125 -0.66372
v -0.2621525 -3.234485E-06 -0.66354
v -0.2606075 -0.0006427299 -0.663005
v -0.2590125 0.007058249 -0.663005
v -0.2621525 0.01412175 -0.66354
v -0.2606075 0.01475925 -0.663005
v -0.2606925 0.00705975 -0.66354
v -0.2724125 0.00705975 -0.66372
v -0.2869025 0.02564925 -0.663
v -0.2868975 0.02564375 -0.6015199
v -0.2934675 0.02132725 -0.6015199
v -0.2934725 0.02133275 -0.663
v -0.2791975 0.02724425 -0.663
v -0.2977825 0.01475375 -0.6015199
v -0.2791925 0.02723975 -0.601525
v -0.2977875 0.01475925 -0.663
v -0.2714975 0.02564925 -0.663
v -0.2993775 0.007052749 -0.6015199
v -0.2714925 0.02564375 -0.601525
v -0.2993875 0.007058249 -0.663
v -0.2649275 0.02133275 -0.663005
v -0.2977825 -0.00064723 -0.601525
v -0.2649175 0.02132725 -0.60153
v -0.2977875 -0.0006427299 -0.663
v -0.2606075 0.01475925 -0.663005
v -0.2934675 -0.00722025 -0.601525
v -0.2605975 0.01475375 -0.60153
v -0.2934725 -0.00721575 -0.663
v -0.2590125 0.007058249 -0.663005
v -0.2868975 -0.01154125 -0.60153
v -0.2590075 0.007052749 -0.601535
v -0.2869025 -0.01153675 -0.663005
v -0.2606075 -0.0006427299 -0.663005
v -0.2791925 -0.01313525 -0.60153
v -0.2605975 -0.00064723 -0.601535
v -0.2791975 -0.01313075 -0.663005
v -0.2649275 -0.00721575 -0.663005
v -0.2714925 -0.01154125 -0.601535
v -0.2649175 -0.00722025 -0.601535
v -0.2714975 -0.01153675 -0.663005
vt 0.563976 0.296161
vt 0.560027 0.297057
vt 0.556158 0.295858
vt 0.553407 0.292885
vt 0.56695 0.293411
vt 0.55251 0.288936
vt 0.568149 0.289541
vt 0.569249 0.261136
vt 0.553613 0.260528
vt 0.563976 0.296161
vt 0.556158 0.295858
vt 0.560027 0.297057
vt 0.553407 0.292885
vt 0.56695 0.293411
vt 0.568149 0.289541
vt 0.55251 0.288936
vt 0.553613 0.260528
vt 0.569249 0.261136
vt 0.55251 0.288936
vt 0.553613 0.260528
vt 0.553613 0.260528
vt 0.55251 0.288936
vt 0.553407 0.292885
vt 0.553407 0.292885
vt 0.556158 0.295858
vt 0.556158 0.295858
vt 0.560027 0.297057
vt 0.560027 0.297057
vt 0.563976 0.296161
vt 0.563976 0.296161
vt 0.56695 0.293411
vt 0.56695 0.293411
vt 0.568149 0.289541
vt 0.568149 0.289541
vt 0.569249 0.261136
vt 0.569249 0.261136
vt 0.553613 0.260528
vt 0.569249 0.261136
vt 0.569249 0.261136
vt 0.553613 0.260528
vt 0.566315 0.280102
vt 0.562516 0.279299
vt 0.562683 0.280102
vt 0.562516 0.280905
vt 0.565859 0.277913
vt 0.564634 0.276044
vt 0.562065 0.278613
vt 0.56138 0.278163
vt 0.565859 0.282291
vt 0.566832 0.280102
vt 0.566337 0.277714
vt 0.566337 0.282488
vt 0.564999 0.275678
vt 0.564999 0.284525
vt 0.564634 0.284158
vt 0.562065 0.28159
vt 0.56138 0.282041
vt 0.562766 0.274817
vt 0.562964 0.274339
vt 0.560576 0.273845
vt 0.562766 0.285385
vt 0.562964 0.285863
vt 0.560576 0.286357
vt 0.560577 0.274364
vt 0.560577 0.277996
vt 0.559773 0.278163
vt 0.560577 0.285838
vt 0.560577 0.282207
vt 0.559773 0.282041
vt 0.558389 0.274817
vt 0.55819 0.274339
vt 0.556153 0.275678
vt 0.558389 0.285385
vt 0.55819 0.285863
vt 0.556153 0.284525
vt 0.55652 0.276044
vt 0.559088 0.278613
vt 0.558638 0.279299
vt 0.55652 0.284158
vt 0.559088 0.28159
vt 0.558638 0.280905
vt 0.555293 0.277913
vt 0.554815 0.277714
vt 0.55432 0.280102
vt 0.555293 0.282291
vt 0.554815 0.282488
vt 0.554841 0.280102
vt 0.558473 0.280102
vt 0.562964 0.285863
vt 0.562962 0.285861
vt 0.564998 0.284523
vt 0.564999 0.284525
vt 0.560576 0.286357
vt 0.566335 0.282486
vt 0.560574 0.286355
vt 0.566337 0.282488
vt 0.55819 0.285863
vt 0.56683 0.2801
vt 0.558188 0.285861
vt 0.566832 0.280102
vt 0.556153 0.284525
vt 0.566335 0.277714
vt 0.556151 0.284523
vt 0.566337 0.277714
vt 0.554815 0.282488
vt 0.564998 0.275676
vt 0.554811 0.282486
vt 0.564999 0.275678
vt 0.55432 0.280102
vt 0.562962 0.274337
vt 0.554318 0.2801
vt 0.562964 0.274339
vt 0.554815 0.277714
vt 0.560574 0.273843
vt 0.554811 0.277714
vt 0.560576 0.273845
vt 0.556153 0.275678
vt 0.558188 0.274337
vt 0.556151 0.275676
vt 0.55819 0.274339
vn 0 0 1
vn 0 0 1
vn 0 0 1
vn 0 0 1
vn 0 0 1
vn 0 0 1
vn 0 0 1
vn 0 0 1
vn 0 0 1
vn 0 0 -1
vn 0 0 -1
vn 0 0 -1
vn 0 0 -1
vn 0 0 -1
vn 0 0 -1
vn 0 0 -1
vn 0 0 -1
vn 0 0 -1
vn 0.9957603 0.09198661 0
vn 0.9992488 -0.03875244 0
vn 0.9992488 -0.03875244 0
vn 0.9957603 0.09198661 0
vn 0.8847271 0.4661095 0
vn 0.8847271 0.4661095 0
vn 0.5330855 0.8460613 0
vn 0.5330855 0.8460613 0
vn 0.03871438 0.9992502 0
vn 0.03871438 0.9992502 0
vn -0.4659805 0.884795 0
vn -0.4659805 0.884795 0
vn -0.8459488 0.5332643 0
vn -0.8459488 0.5332643 0
vn -0.9856452 0.1688295 0
vn -0.9856452 0.1688295 0
vn -0.9992508 0.03869954 0
vn -0.9992508 0.03869954 0
vn -0.03880344 -0.9992468 0
vn -0.03880344 -0.9992468 0
vn -0.03880344 -0.9992468 0
vn -0.03880344 -0.9992468 0
vn -0.1630497 0 -0.9866179
vn -0.01423071 -0.005903768 -0.9998813
vn -0.01535401 0 -0.9998821
vn -0.01423122 0.00590411 -0.9998813
vn -0.1510948 -0.06261539 -0.9865341
vn -0.1151803 -0.1148596 -0.9866817
vn -0.01085991 -0.01085159 -0.9998821
vn -0.005894737 -0.0142251 -0.9998815
vn -0.1511241 0.06263278 -0.9865286
vn -0.3074497 8.257166E-06 -0.9515644
vn -0.2848415 -0.1180351 -0.9512797
vn -0.2848976 0.1180686 -0.9512587
vn -0.2171822 -0.2165557 -0.9518064
vn -0.2174736 0.2173493 -0.9515589
vn -0.1153335 0.1152674 -0.9866163
vn -0.01086034 0.01085375 -0.9998821
vn -0.00589608 0.01422626 -0.9998814
vn -0.06227175 -0.1498621 -0.9867439
vn -0.1173875 -0.2824636 -0.9520685
vn -1.454616E-05 -0.3040168 -0.9526666
vn -0.06260236 0.1511106 -0.9865326
vn -0.1180175 0.2848785 -0.9512708
vn -1.460654E-05 0.3073137 -0.9516083
vn -7.27003E-06 -0.1612768 -0.9869092
vn 0 -0.0153529 -0.9998821
vn 0.005894614 -0.0142254 -0.9998815
vn -7.299695E-06 0.1629804 -0.9866292
vn 0 0.01535344 -0.9998821
vn 0.005895984 0.01423101 -0.9998814
vn 0.06189857 -0.149387 -0.9868395
vn 0.1166581 -0.2815454 -0.9524301
vn 0.2150126 -0.2149602 -0.9526604
vn 0.06222902 0.1506311 -0.9866295
vn 0.1172883 0.283948 -0.9516391
vn 0.2153048 0.2157506 -0.9524156
vn 0.1140622 -0.1140321 -0.9869076
vn 0.01085964 -0.01085243 -0.9998821
vn 0.01423135 -0.005890086 -0.9998814
vn 0.1142156 0.1144392 -0.9868427
vn 0.01086009 0.01085714 -0.9998821
vn 0.0142319 0.005890435 -0.9998814
vn 0.1493699 -0.06188769 -0.9868427
vn 0.2815064 -0.1166415 -0.9524436
vn 0.3036732 1.077986E-05 -0.9527763
vn 0.1493991 0.06190509 -0.9868373
vn 0.2815624 0.116675 -0.952423
vn 0.1611005 5.456619E-06 -0.986938
vn 0.01535532 0 -0.9998821
vn -0.3827161 0.923866 0.0001097027
vn -0.3827161 0.923866 0.0001097027
vn -0.7072497 0.7069638 0.0001206979
vn -0.7072497 0.7069638 0.0001206979
vn 6.403518E-05 1 8.134313E-05
vn -0.9238757 0.3826925 0.0001296306
vn 6.403518E-05 1 8.134313E-05
vn -0.9238757 0.3826925 0.0001296306
vn 0.3826949 0.9238747 3.60428E-05
vn -1 -6.711323E-06 0.0001229925
vn 0.3826949 0.9238747 3.60428E-05
vn -1 -6.711323E-06 0.0001229925
vn 0.7070001 0.7072135 -4.066374E-05
vn -0.9238668 -0.3827142 6.665182E-05
vn 0.7070001 0.7072135 -4.066374E-05
vn -0.9238668 -0.3827142 6.665182E-05
vn 0.9238936 0.3826497 -9.59817E-05
vn -0.7074069 -0.7068065 5.705159E-06
vn 0.9238936 0.3826497 -9.59817E-05
vn -0.7074069 -0.7068065 5.705159E-06
vn 1 -6.695238E-06 -0.0001211331
vn -0.3828508 -0.9238101 -3.657208E-05
vn 1 -6.695238E-06 -0.0001211331
vn -0.3828508 -0.9238101 -3.657208E-05
vn 0.9238846 -0.3826712 -0.0001590616
vn 6.391098E-05 -1 -7.321664E-05
vn 0.9238846 -0.3826712 -0.0001590616
vn 6.391098E-05 -1 -7.321664E-05
vn 0.7071574 -0.707056 -0.0001556193
vn 0.3828295 -0.923819 -0.0001101838
vn 0.7071574 -0.707056 -0.0001556193
vn 0.3828295 -0.923819 -0.0001101838
g ID43inst_0
f 3/3/3 2/2/2 1/1/1
f 4/4/4 3/3/3 1/1/1
f 5/5/5 4/4/4 1/1/1
f 6/6/6 4/4/4 5/5/5
f 7/7/7 6/6/6 5/5/5
f 7/7/7 8/8/8 6/6/6
f 8/8/8 9/9/9 6/6/6
f 12/12/12 11/11/11 10/10/10
f 11/11/11 13/13/13 10/10/10
f 13/13/13 14/14/14 10/10/10
f 14/14/14 13/13/13 15/15/15
f 13/13/13 16/16/16 15/15/15
f 16/16/16 17/17/17 15/15/15
f 17/17/17 18/18/18 15/15/15
f 21/21/21 20/20/20 19/19/19
f 22/22/22 21/21/21 19/19/19
f 22/22/22 19/19/19 23/23/23
f 19/19/19 24/24/24 23/23/23
f 23/23/23 24/24/24 25/25/25
f 24/24/24 26/26/26 25/25/25
f 25/25/25 26/26/26 27/27/27
f 26/26/26 28/28/28 27/27/27
f 27/27/27 28/28/28 29/29/29
f 28/28/28 30/30/30 29/29/29
f 29/29/29 30/30/30 31/31/31
f 30/30/30 32/32/32 31/31/31
f 31/31/31 32/32/32 33/33/33
f 32/32/32 34/34/34 33/33/33
f 34/34/34 35/35/35 33/33/33
f 35/35/35 36/36/36 33/33/33
f 39/39/39 38/38/38 37/37/37
f 40/40/40 39/39/39 37/37/37
f 43/43/43 42/42/42 41/41/41
f 44/44/44 43/43/43 41/41/41
f 42/42/42 45/45/45 41/41/41
f 45/45/45 42/42/42 46/46/46
f 42/42/42 47/47/47 46/46/46
f 47/47/47 48/48/48 46/46/46
f 49/49/49 44/44/44 41/41/41
f 41/41/41 45/45/45 50/50/50
f 41/41/41 50/50/50 49/49/49
f 45/45/45 51/51/51 50/50/50
f 50/50/50 52/52/52 49/49/49
f 53/53/53 51/51/51 45/45/45
f 46/46/46 53/53/53 45/45/45
f 49/49/49 52/52/52 54/54/54
f 44/44/44 49/49/49 55/55/55
f 55/55/55 49/49/49 54/54/54
f 56/56/56 44/44/44 55/55/55
f 57/57/57 56/56/56 55/55/55
f 46/46/46 58/58/58 53/53/53
f 48/48/48 58/58/58 46/46/46
f 58/58/58 59/59/59 53/53/53
f 60/60/60 59/59/59 58/58/58
f 55/55/55 54/54/54 61/61/61
f 61/61/61 57/57/57 55/55/55
f 54/54/54 62/62/62 61/61/61
f 61/61/61 62/62/62 63/63/63
f 58/58/58 48/48/48 64/64/64
f 64/64/64 60/60/60 58/58/58
f 48/48/48 65/65/65 64/64/64
f 65/65/65 66/66/66 64/64/64
f 57/57/57 61/61/61 67/67/67
f 67/67/67 61/61/61 63/63/63
f 68/68/68 57/57/57 67/67/67
f 69/69/69 68/68/68 67/67/67
f 64/64/64 70/70/70 60/60/60
f 66/66/66 70/70/70 64/64/64
f 70/70/70 71/71/71 60/60/60
f 72/72/72 71/71/71 70/70/70
f 67/67/67 63/63/63 73/73/73
f 73/73/73 69/69/69 67/67/67
f 63/63/63 74/74/74 73/73/73
f 73/73/73 74/74/74 75/75/75
f 70/70/70 66/66/66 76/76/76
f 76/76/76 72/72/72 70/70/70
f 66/66/66 77/77/77 76/76/76
f 77/77/77 78/78/78 76/76/76
f 69/69/69 73/73/73 79/79/79
f 79/79/79 73/73/73 75/75/75
f 80/80/80 69/69/69 79/79/79
f 81/81/81 80/80/80 79/79/79
f 76/76/76 82/82/82 72/72/72
f 78/78/78 82/82/82 76/76/76
f 82/82/82 83/83/83 72/72/72
f 84/84/84 83/83/83 82/82/82
f 79/79/79 75/75/75 85/85/85
f 85/85/85 81/81/81 79/79/79
f 75/75/75 86/86/86 85/85/85
f 85/85/85 86/86/86 84/84/84
f 82/82/82 78/78/78 87/87/87
f 87/87/87 84/84/84 82/82/82
f 87/87/87 85/85/85 84/84/84
f 81/81/81 85/85/85 87/87/87
f 78/78/78 88/88/88 87/87/87
f 88/88/88 81/81/81 87/87/87
f 91/91/91 90/90/90 89/89/89
f 92/92/92 91/91/91 89/89/89
f 89/89/89 90/90/90 93/93/93
f 94/94/94 91/91/91 92/92/92
f 90/90/90 95/95/95 93/93/93
f 96/96/96 94/94/94 92/92/92
f 93/93/93 95/95/95 97/97/97
f 98/98/98 94/94/94 96/96/96
f 95/95/95 99/99/99 97/97/97
f 100/100/100 98/98/98 96/96/96
f 97/97/97 99/99/99 101/101/101
f 102/102/102 98/98/98 100/100/100
f 99/99/99 103/103/103 101/101/101
f 104/104/104 102/102/102 100/100/100
f 101/101/101 103/103/103 105/105/105
f 106/106/106 102/102/102 104/104/104
f 103/103/103 107/107/107 105/105/105
f 108/108/108 106/106/106 104/104/104
f 105/105/105 107/107/107 109/109/109
f 110/110/110 106/106/106 108/108/108
f 107/107/107 111/111/111 109/109/109
f 112/112/112 110/110/110 108/108/108
f 109/109/109 111/111/111 113/113/113
f 114/114/114 110/110/110 112/112/112
f 111/111/111 115/115/115 113/113/113
f 116/116/116 114/114/114 112/112/112
f 113/113/113 115/115/115 117/117/117
f 118/118/118 114/114/114 116/116/116
f 115/115/115 119/119/119 117/117/117
f 120/120/120 118/118/118 116/116/116
f 117/117/117 119/119/119 120/120/120
f 119/119/119 118/118/118 120/120/120
