g ID45inst
v -0.314315 0.3149705 0.325168
v -0.314315 0.345897 0.3168575
v -0.314315 0.3477045 0.316371
v -0.368455 0.160495 0.335152
v -0.368455 0.161036 0.3351395
v -0.35297 0.2233795 0.333399
v -0.314315 0.1604285 0.3342075
v -0.368455 0.100899 0.335835
v -0.368595 0.160495 0.335152
v -0.378815 0.119326 0.3356545
v -0.314315 0.100199 0.3355955
v -0.25766 0.0993025 0.3353785
v -0.25766 0.1601965 0.3333565
v -0.25766 0.2236045 0.331237
v -0.21152 0.098334 0.3353215
v -0.199925 0.1025215 0.335145
v -0.199925 0.1596645 0.333071
v -0.146445 0.121834 0.3344485
v -0.314315 0.2234975 0.332445
v -0.314315 0.2730245 0.330318
v -0.340715 0.272737 0.330762
v -0.330275 0.314751 0.3253205
v -0.146445 0.159112 0.3331375
v -0.10256 0.158821 0.3333325
v -0.146445 0.223367 0.3308265
v -0.10256 0.137681 0.334025
v -0.061145 0.1526355 0.3332715
v -0.199925 0.223527 0.330834
v -0.199925 0.273737 0.329219
v -0.25766 0.273559 0.3294935
v -0.25766 0.3156375 0.324665
v -0.314315 0.3149705 0.325168
v -0.314315 0.345897 0.3168575
v -0.327495 0.325958 0.3223115
v -0.314315 0.3477045 0.316371
v -0.25766 0.344521 0.3164045
v -0.199925 0.341278 0.316813
v -0.199925 0.31586 0.3244055
v -0.146445 0.338273 0.316861
v -0.146445 0.315653 0.3238235
v -0.10256 0.335808 0.315815
v -0.146445 0.273622 0.3289705
v -0.10256 0.2732785 0.328228
v -0.10256 0.3150335 0.3223525
v -0.061145 0.3334815 0.3143605
v -0.061145 0.314376 0.320472
v -0.01508985 0.330894 0.3132095
v -0.10256 0.2232285 0.330804
v -0.061145 0.223133 0.3303385
v -0.061145 0.2729345 0.327044
v -0.01508985 0.27282 0.3254715
v -0.01508985 0.3140575 0.3186655
v 0.0377251 0.313895 0.3167335
v 0.0377251 0.327402 0.312302
v 0.0377251 0.3279265 0.3121305
v 0.0529 0.3138485 0.3161795
v 0.04298005 0.27282 0.323348
v 0.0377251 0.27282 0.32354
v 0.0377251 0.251106 0.325083
v 0.0309551 0.2230995 0.32732
v -0.01508985 0.2230995 0.329005
v -0.01508985 0.1692655 0.3313605
v 0.02109515 0.182334 0.3294655
v -0.04438484 0.1586885 0.332627
v -0.061145 0.158703 0.3330875
vt 0.283236 0.436364
vt 0.283236 0.445049
vt 0.283236 0.445556
vt 0.268033 0.392987
vt 0.268033 0.393139
vt 0.272381 0.410645
vt 0.283236 0.392968
vt 0.268033 0.376252
vt 0.267994 0.392987
vt 0.265124 0.381426
vt 0.283236 0.376055
vt 0.299145 0.375803
vt 0.299145 0.392903
vt 0.299145 0.410708
vt 0.312102 0.375531
vt 0.315358 0.376707
vt 0.315358 0.392754
vt 0.330375 0.382131
vt 0.283236 0.410678
vt 0.283236 0.424586
vt 0.275823 0.424505
vt 0.278754 0.436303
vt 0.330375 0.392598
vt 0.342698 0.392517
vt 0.330375 0.410642
vt 0.342698 0.38658
vt 0.354328 0.39078
vt 0.315358 0.410687
vt 0.315358 0.424786
vt 0.299145 0.424736
vt 0.299145 0.436552
vt 0.283236 0.436364
vt 0.283236 0.445049
vt 0.279535 0.43945
vt 0.283236 0.445556
vt 0.299145 0.444662
vt 0.315358 0.443752
vt 0.315358 0.436614
vt 0.330375 0.442908
vt 0.330375 0.436556
vt 0.342698 0.442216
vt 0.330375 0.424754
vt 0.342698 0.424657
vt 0.342698 0.436382
vt 0.354328 0.441563
vt 0.354328 0.436198
vt 0.36726 0.440836
vt 0.342698 0.410603
vt 0.354328 0.410576
vt 0.354328 0.424561
vt 0.36726 0.424528
vt 0.36726 0.436108
vt 0.382091 0.436062
vt 0.382091 0.439855
vt 0.382091 0.440003
vt 0.386352 0.436049
vt 0.383567 0.424528
vt 0.382091 0.424528
vt 0.382091 0.418431
vt 0.38019 0.410566
vt 0.36726 0.410566
vt 0.36726 0.39545
vt 0.377421 0.399119
vt 0.359034 0.392479
vt 0.354328 0.392484
vn 0.009882192 0.1923485 0.9812769
vn 0.008274681 0.2629165 0.9647831
vn 0.009924796 0.2667826 0.9637057
vn 0.01147415 0.0180433 0.9997714
vn 0.02043257 0.02538073 0.9994691
vn 0.02080664 0.03543827 0.9991552
vn 0.0148461 0.02536927 0.9995679
vn 0.006994308 0.01437363 0.9998722
vn 0.002933676 0.01146711 0.99993
vn 0.002933676 0.01146711 0.99993
vn 0.01037839 0.02271048 0.9996883
vn 0.006668798 0.03143803 0.9994835
vn 0.009417889 0.03194021 0.9994454
vn 0.01196754 0.03431692 0.9993393
vn 0.003635752 0.03473493 0.99939
vn 0.001619093 0.03528124 0.9993761
vn 0.002265665 0.03506215 0.9993826
vn -0.001935235 0.03505101 0.9993837
vn 0.01937725 0.03510557 0.9991958
vn 0.01545109 0.08154023 0.9965502
vn 0.01684855 0.08462085 0.9962708
vn 0.009581211 0.1917894 0.9813893
vn -0.001491374 0.03579156 0.9993581
vn 0.002425949 0.03624713 0.9993399
vn 0.00233392 0.03793373 0.9992775
vn 0.001404073 0.03323616 0.9994466
vn 0.01688148 0.03125081 0.9993691
vn 0.003534986 0.03443116 0.9994009
vn 0.005149226 0.07489841 0.9971778
vn 0.009537457 0.0760794 0.9970561
vn 0.00767492 0.1953132 0.9807109
vn 0.009882192 0.1923485 0.9812769
vn 0.008274681 0.2629165 0.9647831
vn 0.006624409 0.2590454 0.9658424
vn 0.009924796 0.2667826 0.9637057
vn 0.008008604 0.2735189 0.9618333
vn 0.009788254 0.2850987 0.9584482
vn 0.007990113 0.2011287 0.9795322
vn 0.02564185 0.2934185 0.9556401
vn 0.02152518 0.2094831 0.9775753
vn 0.04350427 0.2994115 0.9531318
vn 0.01149122 0.08172607 0.9965886
vn 0.02350324 0.09536749 0.9951646
vn 0.03807686 0.2200208 0.9747518
vn 0.04470482 0.3040449 0.9516082
vn 0.04129889 0.2295817 0.9724128
vn 0.03823085 0.3078749 0.9506584
vn 0.009008504 0.04533612 0.9989311
vn 0.02216806 0.05278907 0.9983596
vn 0.03179565 0.1087594 0.9935595
vn 0.03535874 0.1156024 0.9926659
vn 0.0375352 0.2352752 0.9712037
vn 0.03624689 0.237595 0.9706877
vn 0.03594253 0.3105875 0.949865
vn 0.03626424 0.3096318 0.9501647
vn 0.03610158 0.2381725 0.9705517
vn 0.03643758 0.1172521 0.9924335
vn 0.03643219 0.1171597 0.9924446
vn 0.03644308 0.07083203 0.9968224
vn 0.03649497 0.05726808 0.9976916
vn 0.03319904 0.05651897 0.9978493
vn 0.0323762 0.04340634 0.9985328
vn 0.03652087 0.04369556 0.9983772
vn 0.02785607 0.03670949 0.9989377
vn 0.01766809 0.03663772 0.9991724
g ID45inst_0
f 3/3/3 2/2/2 1/1/1
f 6/6/6 5/5/5 4/4/4
f 6/6/6 4/4/4 7/7/7
f 4/4/4 8/8/8 7/7/7
f 8/8/8 4/4/4 9/9/9
f 10/10/10 8/8/8 9/9/9
f 8/8/8 11/11/11 7/7/7
f 11/11/11 12/12/12 7/7/7
f 12/12/12 13/13/13 7/7/7
f 13/13/13 14/14/14 7/7/7
f 13/13/13 12/12/12 15/15/15
f 13/13/13 15/15/15 16/16/16
f 16/16/16 17/17/17 13/13/13
f 14/14/14 13/13/13 17/17/17
f 16/16/16 18/18/18 17/17/17
f 7/7/7 19/19/19 6/6/6
f 14/14/14 19/19/19 7/7/7
f 6/6/6 19/19/19 20/20/20
f 19/19/19 14/14/14 20/20/20
f 21/21/21 6/6/6 20/20/20
f 22/22/22 21/21/21 20/20/20
f 18/18/18 23/23/23 17/17/17
f 23/23/23 18/18/18 24/24/24
f 23/23/23 25/25/25 17/17/17
f 25/25/25 23/23/23 24/24/24
f 18/18/18 26/26/26 24/24/24
f 26/26/26 27/27/27 24/24/24
f 28/28/28 14/14/14 17/17/17
f 25/25/25 28/28/28 17/17/17
f 14/14/14 28/28/28 29/29/29
f 28/28/28 25/25/25 29/29/29
f 14/14/14 30/30/30 20/20/20
f 30/30/30 14/14/14 29/29/29
f 30/30/30 31/31/31 20/20/20
f 31/31/31 30/30/30 29/29/29
f 32/32/32 22/22/22 20/20/20
f 31/31/31 32/32/32 20/20/20
f 22/22/22 32/32/32 33/33/33
f 34/34/34 22/22/22 33/33/33
f 35/35/35 32/32/32 31/31/31
f 31/31/31 36/36/36 35/35/35
f 36/36/36 31/31/31 37/37/37
f 31/31/31 38/38/38 37/37/37
f 38/38/38 31/31/31 29/29/29
f 39/39/39 37/37/37 38/38/38
f 40/40/40 39/39/39 38/38/38
f 40/40/40 38/38/38 29/29/29
f 39/39/39 40/40/40 41/41/41
f 42/42/42 40/40/40 29/29/29
f 40/40/40 42/42/42 43/43/43
f 25/25/25 42/42/42 29/29/29
f 42/42/42 25/25/25 43/43/43
f 40/40/40 44/44/44 41/41/41
f 44/44/44 40/40/40 43/43/43
f 45/45/45 41/41/41 44/44/44
f 46/46/46 45/45/45 44/44/44
f 46/46/46 44/44/44 43/43/43
f 45/45/45 46/46/46 47/47/47
f 25/25/25 48/48/48 43/43/43
f 48/48/48 49/49/49 43/43/43
f 49/49/49 50/50/50 43/43/43
f 50/50/50 46/46/46 43/43/43
f 46/46/46 50/50/50 51/51/51
f 50/50/50 49/49/49 51/51/51
f 48/48/48 25/25/25 24/24/24
f 49/49/49 48/48/48 24/24/24
f 46/46/46 52/52/52 47/47/47
f 52/52/52 46/46/46 51/51/51
f 47/47/47 52/52/52 53/53/53
f 53/53/53 52/52/52 51/51/51
f 47/47/47 53/53/53 54/54/54
f 54/54/54 55/55/55 47/47/47
f 56/56/56 54/54/54 53/53/53
f 56/56/56 53/53/53 57/57/57
f 53/53/53 58/58/58 57/57/57
f 58/58/58 53/53/53 51/51/51
f 59/59/59 57/57/57 58/58/58
f 59/59/59 58/58/58 51/51/51
f 51/51/51 60/60/60 59/59/59
f 51/51/51 61/61/61 60/60/60
f 49/49/49 61/61/61 51/51/51
f 60/60/60 61/61/61 62/62/62
f 62/62/62 61/61/61 49/49/49
f 63/63/63 60/60/60 62/62/62
f 49/49/49 64/64/64 62/62/62
f 49/49/49 65/65/65 64/64/64
f 27/27/27 64/64/64 65/65/65
f 65/65/65 49/49/49 24/24/24
f 27/27/27 65/65/65 24/24/24
