g ID46inst
v -0.459566 -0.230005 0.0319118
v -0.444916 -0.230735 0.060701
v -0.422101 -0.23188 0.0835475
v -0.464616 -0.22976 -8.51E-07
v -0.459566 -0.230005 -0.0319135
v -0.393346 -0.23332 0.0982165
v -0.444916 -0.230735 -0.060702
v -0.361476 -0.234905 0.103271
v -0.422101 -0.23188 -0.083549
v -0.329601 -0.2365 0.0982165
v -0.393346 -0.23332 -0.098218
v -0.300846 -0.23794 0.0835475
v -0.361476 -0.234905 -0.1032725
v -0.278026 -0.23908 0.0607005
v -0.329601 -0.2365 -0.098218
v -0.263376 -0.239815 0.0319118
v -0.300846 -0.23794 -0.083549
v -0.258326 -0.24007 -8.632949E-07
v -0.278026 -0.23908 -0.0607025
v -0.263376 -0.239815 -0.0319136
v -0.361476 -0.234905 -0.1032725
v -0.360036 -0.20612 -0.1032725
v -0.391906 -0.20453 -0.098218
v -0.393346 -0.23332 -0.098218
v -0.420661 -0.20309 -0.083549
v -0.422101 -0.23188 -0.083549
v -0.443481 -0.20195 -0.060702
v -0.444916 -0.230735 -0.060702
v -0.458126 -0.201215 -0.0319135
v -0.459566 -0.230005 -0.0319135
v -0.463176 -0.20097 -8.51085E-07
v -0.464616 -0.22976 -8.51E-07
v -0.458126 -0.201215 0.0319118
v -0.459566 -0.230005 0.0319118
v -0.443481 -0.20195 0.060701
v -0.444916 -0.230735 0.060701
v -0.420661 -0.20309 0.0835475
v -0.422101 -0.23188 0.0835475
v -0.391906 -0.20453 0.0982165
v -0.393346 -0.23332 0.0982165
v -0.360036 -0.20612 0.103271
v -0.361476 -0.234905 0.103271
v -0.329601 -0.2365 -0.098218
v -0.360036 -0.20612 -0.1032725
v -0.361476 -0.234905 -0.1032725
v -0.328161 -0.20771 -0.098218
v -0.300846 -0.23794 -0.083549
v -0.299411 -0.20915 -0.083549
v -0.278026 -0.23908 -0.0607025
v -0.276591 -0.210295 -0.0607025
v -0.263376 -0.239815 -0.0319136
v -0.261936 -0.211025 -0.0319136
v -0.258326 -0.24007 -8.632949E-07
v -0.256891 -0.21128 -8.63385E-07
v -0.263376 -0.239815 0.0319118
v -0.261936 -0.211025 0.0319118
v -0.278026 -0.23908 0.0607005
v -0.276591 -0.210295 0.0607005
v -0.300846 -0.23794 0.0835475
v -0.299411 -0.20915 0.0835475
v -0.329601 -0.2365 0.0982165
v -0.328161 -0.20771 0.0982165
v -0.361476 -0.234905 0.103271
v -0.360036 -0.20612 0.103271
vt 0.696157 0.328856
vt 0.701535 0.318289
vt 0.709908 0.309903
vt 0.694304 0.340569
vt 0.696157 0.352283
vt 0.720463 0.304519
vt 0.701535 0.362849
vt 0.73216 0.302664
vt 0.709908 0.371235
vt 0.74386 0.304519
vt 0.720463 0.376619
vt 0.754414 0.309903
vt 0.73216 0.378474
vt 0.762791 0.318289
vt 0.74386 0.376619
vt 0.768168 0.328856
vt 0.754414 0.371235
vt 0.770022 0.340569
vt 0.762791 0.36285
vt 0.768168 0.352283
vt 0.73216 0.378474
vt 0.73269 0.378474
vt 0.720991 0.376619
vt 0.720463 0.376619
vt 0.710437 0.371235
vt 0.709908 0.371235
vt 0.702061 0.362849
vt 0.701535 0.362849
vt 0.696685 0.352283
vt 0.696157 0.352283
vt 0.694832 0.340569
vt 0.694304 0.340569
vt 0.696685 0.328856
vt 0.696157 0.328856
vt 0.702061 0.318289
vt 0.701535 0.318289
vt 0.710437 0.309903
vt 0.709908 0.309903
vt 0.720991 0.304519
vt 0.720463 0.304519
vt 0.73269 0.302664
vt 0.73216 0.302664
vt 0.74386 0.376619
vt 0.73269 0.378474
vt 0.73216 0.378474
vt 0.744389 0.376619
vt 0.754414 0.371235
vt 0.754941 0.371235
vt 0.762791 0.36285
vt 0.763317 0.36285
vt 0.768168 0.352283
vt 0.768696 0.352283
vt 0.770022 0.340569
vt 0.770549 0.340569
vt 0.768168 0.328856
vt 0.768696 0.328856
vt 0.762791 0.318289
vt 0.763317 0.318289
vt 0.754414 0.309903
vt 0.754941 0.309903
vt 0.74386 0.304519
vt 0.744389 0.304519
vt 0.73216 0.302664
vt 0.73269 0.302664
vn -0.05043217 -0.9987274 0.0003251317
vn -0.05043217 -0.9987274 0.0003251317
vn -0.05012145 -0.9987431 0.0001343304
vn -0.05012145 -0.9987431 0.0001343304
vn -0.04978236 -0.9987601 -7.846947E-05
vn -0.04978236 -0.9987601 -7.846947E-05
vn -0.04988144 -0.9987552 -2.200569E-05
vn -0.04988144 -0.9987552 -2.200569E-05
vn -0.04999892 -0.9987493 5.491763E-05
vn -0.04999892 -0.9987493 5.491763E-05
vn -0.04989307 -0.9987546 -5.46304E-06
vn -0.04989307 -0.9987546 -5.46304E-06
vn -0.0499034 -0.998754 -2.436228E-05
vn -0.0499034 -0.998754 -2.436228E-05
vn -0.05003674 -0.9987473 2.19347E-05
vn -0.05003674 -0.9987473 2.19347E-05
vn -0.04993343 -0.9987526 -4.891801E-05
vn -0.04993343 -0.9987526 -4.891801E-05
vn -0.04980302 -0.998759 -0.0001261252
vn -0.04980302 -0.998759 -0.0001261252
vn -1.258249E-05 0 -1
vn -1.258249E-05 0 -1
vn -0.3086286 0.01543727 -0.9510573
vn -0.3086286 0.01543727 -0.9510573
vn -0.5870525 0.0293334 -0.8090174
vn -0.5870525 0.0293334 -0.8090174
vn -0.8080376 0.04034878 -0.5877476
vn -0.8080376 0.04034878 -0.5877476
vn -0.9498752 0.04747204 -0.3090042
vn -0.9498752 0.04747204 -0.3090042
vn -0.9987515 0.04995368 0
vn -0.9987515 0.04995368 0
vn -0.9498767 0.04747212 0.3089994
vn -0.9498767 0.04747212 0.3089994
vn -0.8080371 0.04034877 0.5877483
vn -0.8080371 0.04034877 0.5877483
vn -0.5870479 0.0293331 0.8090206
vn -0.5870479 0.0293331 0.8090206
vn -0.3086287 0.01543728 0.9510573
vn -0.3086287 0.01543728 0.9510573
vn -1.253723E-05 0 1
vn -1.253723E-05 0 1
vn 0.3086344 -0.01541744 -0.9510558
vn -1.258249E-05 0 -1
vn -1.258249E-05 0 -1
vn 0.3086344 -0.01541744 -0.9510558
vn 0.5870426 -0.02928187 -0.8090262
vn 0.5870426 -0.02928187 -0.8090262
vn 0.8079812 -0.04031545 -0.5878274
vn 0.8079812 -0.04031545 -0.5878274
vn 0.9498667 -0.04742903 -0.3090369
vn 0.9498667 -0.04742903 -0.3090369
vn 0.9987558 -0.04986789 0
vn 0.9987558 -0.04986789 0
vn 0.9498662 -0.04742898 0.3090385
vn 0.9498662 -0.04742898 0.3090385
vn 0.8079837 -0.04031551 0.5878239
vn 0.8079837 -0.04031551 0.5878239
vn 0.5870471 -0.02928209 0.809023
vn 0.5870471 -0.02928209 0.809023
vn 0.3086345 -0.01541741 0.9510558
vn 0.3086345 -0.01541741 0.9510558
vn -1.253723E-05 0 1
vn -1.253723E-05 0 1
g ID46inst_0
f 3/3/3 2/2/2 1/1/1
f 4/4/4 3/3/3 1/1/1
f 4/4/4 5/5/5 3/3/3
f 5/5/5 6/6/6 3/3/3
f 5/5/5 7/7/7 6/6/6
f 7/7/7 8/8/8 6/6/6
f 7/7/7 9/9/9 8/8/8
f 9/9/9 10/10/10 8/8/8
f 9/9/9 11/11/11 10/10/10
f 11/11/11 12/12/12 10/10/10
f 11/11/11 13/13/13 12/12/12
f 13/13/13 14/14/14 12/12/12
f 13/13/13 15/15/15 14/14/14
f 15/15/15 16/16/16 14/14/14
f 15/15/15 17/17/17 16/16/16
f 17/17/17 18/18/18 16/16/16
f 17/17/17 19/19/19 18/18/18
f 19/19/19 20/20/20 18/18/18
f 23/23/23 22/22/22 21/21/21
f 24/24/24 23/23/23 21/21/21
f 25/25/25 23/23/23 24/24/24
f 26/26/26 25/25/25 24/24/24
f 27/27/27 25/25/25 26/26/26
f 28/28/28 27/27/27 26/26/26
f 29/29/29 27/27/27 28/28/28
f 30/30/30 29/29/29 28/28/28
f 31/31/31 29/29/29 30/30/30
f 32/32/32 31/31/31 30/30/30
f 33/33/33 31/31/31 32/32/32
f 34/34/34 33/33/33 32/32/32
f 35/35/35 33/33/33 34/34/34
f 36/36/36 35/35/35 34/34/34
f 37/37/37 35/35/35 36/36/36
f 38/38/38 37/37/37 36/36/36
f 39/39/39 37/37/37 38/38/38
f 40/40/40 39/39/39 38/38/38
f 41/41/41 39/39/39 40/40/40
f 42/42/42 41/41/41 40/40/40
f 45/45/45 44/44/44 43/43/43
f 44/44/44 46/46/46 43/43/43
f 43/43/43 46/46/46 47/47/47
f 46/46/46 48/48/48 47/47/47
f 47/47/47 48/48/48 49/49/49
f 48/48/48 50/50/50 49/49/49
f 49/49/49 50/50/50 51/51/51
f 50/50/50 52/52/52 51/51/51
f 51/51/51 52/52/52 53/53/53
f 52/52/52 54/54/54 53/53/53
f 53/53/53 54/54/54 55/55/55
f 54/54/54 56/56/56 55/55/55
f 55/55/55 56/56/56 57/57/57
f 56/56/56 58/58/58 57/57/57
f 57/57/57 58/58/58 59/59/59
f 58/58/58 60/60/60 59/59/59
f 59/59/59 60/60/60 61/61/61
f 60/60/60 62/62/62 61/61/61
f 61/61/61 62/62/62 63/63/63
f 62/62/62 64/64/64 63/63/63
