g ID59inst
v 2.9805 0.386278 -0.0403785
v 2.982125 0.396368 -0.02307345
v 2.974905 0.3857875 -0.02341315
v 2.98667 0.396812 -0.0401265
v 2.99015 0.3971875 -0.0557905
v 2.98483 0.386692 -0.05595599
v 2.98693 0.386969 -0.069129
v 3.006245 0.4062535 -0.03967445
v 3.00477 0.4059485 -0.0223579
v 3.042965 0.412825 -0.0212896
v 3.007165 0.4065145 -0.05559799
v 3.03928 0.4128975 -0.0390456
v 3.07911 0.416439 -0.0383518
v 3.08898 0.416645 -0.0200684
v 3.13516 0.4170555 -0.01889415
v 3.03595 0.412968 -0.0554015
v 3.007145 0.4066985 -0.0690695
v 2.991715 0.3974415 -0.069038
v 2.99203 0.39762 -0.081011
v 2.9875 0.3871595 -0.081104
v 2.987425 0.387323 -0.0932375
v 3.00667 0.4068395 -0.081035
v 2.99186 0.397777 -0.09301
v 2.987275 0.3874005 -0.0993865
v 3.033295 0.413035 -0.069245
v 3.064855 0.416207 -0.06951749
v 3.00621 0.406978 -0.092631
v 3.00602 0.4070475 -0.098379
v 3.03147 0.413115 -0.0812
v 2.9917 0.3978525 -0.09905849
v 2.991515 0.3979265 -0.105122
v 2.987095 0.3874765 -0.10556
v 3.00582 0.407117 -0.1041135
v 3.030095 0.413344 -0.1025575
v 3.03055 0.4132215 -0.0921235
v 3.030295 0.4132815 -0.097371
v 3.059625 0.416331 -0.09622149
v 3.059425 0.4163835 -0.1007505
v 3.088905 0.416014 -0.09898949
v 3.05994 0.416282 -0.091575
v 3.06145 0.416213 -0.0814585
v 3.091595 0.415902 -0.0817635
v 3.089515 0.4159335 -0.09107349
v 3.08911 0.4159705 -0.09511899
v 3.11386 0.411977 -0.094251
v 3.113655 0.412013 -0.097574
v 3.128735 0.4041575 -0.0967985
v 3.11432 0.4119495 -0.0907065
v 3.12896 0.4041265 -0.0938045
v 3.134335 0.394123 -0.093757
v 3.134115 0.394152 -0.0966415
v 3.129435 0.4041045 -0.090561
v 3.13483 0.394103 -0.0906135
v 3.132295 0.4041235 -0.082326
v 3.13778 0.394128 -0.082513
v 3.145165 0.394306 -0.0706065
v 3.13942 0.4042895 -0.070417
v 3.116875 0.4119495 -0.082068
v 3.096585 0.41597 -0.069836
v 3.123195 0.4120785 -0.0701525
v 3.10557 0.416183 -0.055098
v 3.15262 0.4046895 -0.0550825
v 3.145165 0.394306 -0.0706065
v 3.1589 0.39473 -0.055197
v 3.180095 0.395461 -0.03702614
v 3.172965 0.405383 -0.03699775
v 3.134815 0.412409 -0.05504199
v 3.070675 0.41628 -0.0552265
v 3.119125 0.416571 -0.0377047
v 3.15262 0.412988 -0.037216
v 3.17381 0.413704 -0.01796615
v 3.197255 0.4062385 -0.017484
v 3.180095 0.395461 -0.03702614
v 3.205415 0.3963635 -0.01742465
v 2.9805 0.386278 -0.0403785
v 2.974905 0.3857875 -0.02341315
v 2.98306 0.3759125 -0.0233539
v 2.98763 0.3763565 -0.04040695
v 3.00652 0.3684465 -0.02287165
v 2.99109 0.376732 -0.056071
v 2.98483 0.386692 -0.05595599
v 2.98693 0.386969 -0.069129
v 3.007975 0.368752 -0.0401884
v 3.04147 0.3651685 -0.0396997
v 3.04517 0.3650955 -0.02194375
v 3.081485 0.3653005 -0.03905265
v 3.09136 0.365506 -0.02076925
v 3.13737 0.369326 -0.0195482
v 3.03816 0.3652385 -0.0560555
v 3.008895 0.3690125 -0.056112
v 2.992675 0.376986 -0.069318
v 2.99297 0.3771645 -0.08129149
v 2.9875 0.3871595 -0.081104
v 2.987425 0.387323 -0.0932375
v 3.008875 0.3691965 -0.069583
v 2.99282 0.3773215 -0.09329
v 2.987275 0.3874005 -0.0993865
v 3.121315 0.368842 -0.0383588
v 3.175545 0.3762025 -0.01848
v 3.035505 0.3653055 -0.069899
v 3.06723 0.3650685 -0.070218
v 3.0084 0.369338 -0.081549
v 3.033685 0.3653855 -0.081854
v 3.073035 0.3651415 -0.055927
v 3.10778 0.368454 -0.055752
v 3.15435 0.375486 -0.0377299
v 3.173925 0.3849275 -0.03727805
v 3.19821 0.3857835 -0.0177643
v 3.180095 0.395461 -0.03702614
v 3.205415 0.3963635 -0.01742465
v 3.15356 0.384234 -0.055363
v 3.180095 0.395461 -0.03702614
v 3.1589 0.39473 -0.055197
v 3.145165 0.394306 -0.0706065
v 3.140355 0.383834 -0.0706975
v 3.136545 0.374907 -0.0555555
v 3.098795 0.36824 -0.0704905
v 3.124925 0.3745775 -0.0706665
v 3.093805 0.3681725 -0.0824175
v 3.13325 0.383668 -0.0826065
v 3.145165 0.394306 -0.0706065
v 3.13778 0.394128 -0.082513
v 3.13483 0.394103 -0.0906135
v 3.11861 0.374448 -0.082582
v 3.130395 0.383649 -0.090841
v 3.134335 0.394123 -0.093757
v 3.063825 0.3650745 -0.082159
v 3.06232 0.3651435 -0.092276
v 3.091705 0.368204 -0.0917275
v 3.061985 0.3651925 -0.0969225
v 3.03274 0.3654925 -0.09277749
v 3.11605 0.3744475 -0.0912205
v 3.11559 0.3744755 -0.0947645
v 3.129895 0.383671 -0.094085
v 3.129695 0.383702 -0.097079
v 3.134115 0.394152 -0.0966415
v 3.115385 0.3745115 -0.0980875
v 3.091115 0.368285 -0.099644
v 3.091315 0.368241 -0.0957735
v 3.061785 0.365245 -0.101451
v 3.0323 0.3656145 -0.1032115
v 3.032505 0.365552 -0.09802499
v 3.007755 0.3695455 -0.098893
v 3.00755 0.3696155 -0.1046275
v 2.99247 0.3774715 -0.1054025
v 3.00794 0.369476 -0.0931445
v 2.992655 0.377397 -0.099339
v 2.987095 0.3874765 -0.10556
vt 0.669308 0.251654
vt 0.670022 0.244048
vt 0.666849 0.244198
vt 0.67202 0.251544
vt 0.673549 0.258428
vt 0.671211 0.258501
vt 0.672134 0.264291
vt 0.680624 0.251345
vt 0.679976 0.243734
vt 0.696764 0.243264
vt 0.681028 0.258344
vt 0.695143 0.251068
vt 0.712651 0.250764
vt 0.716988 0.242727
vt 0.737285 0.242211
vt 0.693681 0.258257
vt 0.681019 0.264265
vt 0.674237 0.264251
vt 0.674376 0.269513
vt 0.672385 0.269554
vt 0.672352 0.274887
vt 0.68081 0.269524
vt 0.674301 0.274787
vt 0.672287 0.27759
vt 0.692513 0.264342
vt 0.706384 0.264462
vt 0.680609 0.274621
vt 0.680525 0.277147
vt 0.691711 0.269597
vt 0.674232 0.277446
vt 0.67415 0.280111
vt 0.672206 0.280303
vt 0.680437 0.279668
vt 0.691106 0.278984
vt 0.691306 0.274398
vt 0.691195 0.276704
vt 0.704086 0.276199
vt 0.703998 0.27819
vt 0.716955 0.277416
vt 0.704224 0.274157
vt 0.704888 0.26971
vt 0.718138 0.269844
vt 0.717223 0.273936
vt 0.717045 0.275714
vt 0.727923 0.275333
vt 0.727834 0.276793
vt 0.734461 0.276453
vt 0.728125 0.273775
vt 0.73456 0.275137
vt 0.736923 0.275116
vt 0.736826 0.276384
vt 0.734769 0.273711
vt 0.73714 0.273734
vt 0.736027 0.270092
vt 0.738437 0.270174
vt 0.741683 0.26494
vt 0.739158 0.264857
vt 0.729249 0.269978
vt 0.72033 0.264602
vt 0.732026 0.264741
vt 0.72428 0.258124
vt 0.744959 0.258117
vt 0.741683 0.26494
vt 0.74772 0.258168
vt 0.757036 0.250181
vt 0.753902 0.250168
vt 0.737134 0.258099
vt 0.708942 0.258181
vt 0.730237 0.250479
vt 0.744959 0.250264
vt 0.754273 0.241804
vt 0.764578 0.241592
vt 0.757036 0.250181
vt 0.768164 0.241566
vt 0.669289 0.230672
vt 0.666829 0.238129
vt 0.670414 0.238155
vt 0.672422 0.23066
vt 0.680725 0.238367
vt 0.673944 0.223775
vt 0.671192 0.223826
vt 0.672115 0.218036
vt 0.681365 0.230756
vt 0.696087 0.230971
vt 0.697713 0.238775
vt 0.713674 0.231255
vt 0.718015 0.239291
vt 0.738238 0.239828
vt 0.694633 0.223782
vt 0.681769 0.223757
vt 0.67464 0.217953
vt 0.67477 0.21269
vt 0.672365 0.212772
vt 0.672333 0.207439
vt 0.68176 0.217836
vt 0.674704 0.207416
vt 0.672267 0.204737
vt 0.731181 0.23156
vt 0.755018 0.240297
vt 0.693465 0.217697
vt 0.707409 0.217557
vt 0.681551 0.212577
vt 0.692665 0.212443
vt 0.70996 0.223838
vt 0.725232 0.223915
vt 0.745701 0.231837
vt 0.754304 0.232035
vt 0.764978 0.240612
vt 0.757016 0.232146
vt 0.768145 0.240761
vt 0.745354 0.224086
vt 0.757016 0.232146
vt 0.7477 0.224159
vt 0.741664 0.217386
vt 0.73955 0.217346
vt 0.737875 0.224002
vt 0.721283 0.217437
vt 0.732769 0.21736
vt 0.71909 0.212195
vt 0.736427 0.212112
vt 0.741664 0.217386
vt 0.738418 0.212153
vt 0.737121 0.208593
vt 0.729992 0.212123
vt 0.735173 0.208493
vt 0.736904 0.207211
vt 0.705912 0.212309
vt 0.705251 0.207862
vt 0.718166 0.208103
vt 0.705104 0.20582
vt 0.69225 0.207641
vt 0.728868 0.208326
vt 0.728665 0.206768
vt 0.734952 0.207067
vt 0.734864 0.205751
vt 0.736807 0.205943
vt 0.728575 0.205308
vt 0.717907 0.204624
vt 0.717995 0.206325
vt 0.705016 0.203829
vt 0.692056 0.203056
vt 0.692146 0.205335
vt 0.681268 0.204954
vt 0.681178 0.202433
vt 0.674551 0.202092
vt 0.68135 0.20748
vt 0.674631 0.204758
vt 0.672187 0.202023
vn -0.8388727 0.499548 -0.2162047
vn -0.6426173 0.7518977 -0.1472854
vn -0.8189995 0.5258225 -0.2296751
vn -0.6657048 0.7332113 -0.1387022
vn -0.7091497 0.6980612 -0.09908196
vn -0.8771365 0.4531152 -0.1591174
vn -0.9047219 0.4199596 -0.07150051
vn -0.3174273 0.9482008 -0.0124595
vn -0.3002499 0.9537454 -0.01482953
vn -0.136674 0.9902867 0.02554423
vn -0.3501952 0.9366764 -0.000842113
vn -0.1433094 0.9893191 0.02664685
vn -0.0460981 0.9989117 0.007094616
vn -0.04606166 0.9989132 0.007128344
vn 0.04582394 0.9964513 -0.07060581
vn -0.1561295 0.9873118 0.02896477
vn -0.3760562 0.9264575 0.01606921
vn -0.7410057 0.67046 -0.03733593
vn -0.7570383 0.6533328 0.007017619
vn -0.9163737 0.4002715 -0.006473288
vn -0.9198948 0.3915797 0.02142141
vn -0.3914615 0.9198637 0.02466737
vn -0.7631854 0.6457102 0.02462357
vn -0.9207624 0.3889486 0.0302589
vn -0.1666376 0.985575 0.02956185
vn -0.04622379 0.9988888 0.009192491
vn -0.3982784 0.916926 0.02491864
vn -0.4002667 0.9160723 0.02445807
vn -0.1732692 0.9845318 0.02597704
vn -0.7649145 0.6434312 0.03003511
vn -0.7651908 0.6430343 0.03146202
vn -0.9208866 0.3884963 0.03222285
vn -0.4005926 0.9159238 0.0246812
vn -0.1772944 0.9839841 0.01849357
vn -0.1763148 0.9841068 0.02113767
vn -0.177173 0.9839987 0.01887913
vn -0.04617362 0.9988461 0.01321504
vn -0.04616845 0.9988427 0.01347656
vn 0.08584035 0.9962887 0.006357695
vn -0.04618327 0.9988569 0.01232539
vn -0.04620878 0.9988727 0.01086051
vn 0.08133999 0.996235 -0.02999615
vn 0.08484316 0.9963526 -0.009118578
vn 0.08577188 0.9963104 0.002969288
vn 0.3145651 0.94898 -0.02204554
vn 0.3148498 0.9490862 -0.0102446
vn 0.7019913 0.7108366 -0.04381186
vn 0.3113199 0.9481673 -0.06370707
vn 0.7003077 0.7103282 -0.07073343
vn 0.8767556 0.4713313 -0.09563737
vn 0.879409 0.4720543 -0.06168092
vn 0.687768 0.7068013 -0.1655513
vn 0.8581569 0.4662117 -0.2149727
vn 0.6503992 0.6950248 -0.306466
vn 0.8042669 0.4507751 -0.3872423
vn 0.7234972 0.42966 -0.5403184
vn 0.5915495 0.6778136 -0.436621
vn 0.2997607 0.9450669 -0.1303537
vn 0.07436588 0.9958741 -0.05200503
vn 0.278484 0.9399323 -0.1974183
vn 0.06418744 0.9956391 -0.06769484
vn 0.5249264 0.6637366 -0.5328284
vn 0.7726814 0.1861806 -0.6068776
vn 0.704958 0.04225278 -0.7079895
vn 0.6372588 0.04023202 -0.769599
vn 0.4699199 0.6679357 -0.5770938
vn 0.2501216 0.9359562 -0.2478406
vn -0.04617617 0.9989035 0.007711017
vn 0.05208028 0.9960382 -0.07207973
vn 0.2194179 0.9386896 -0.265928
vn 0.2044257 0.9426422 -0.2638861
vn 0.4488934 0.677557 -0.5825902
vn 0.6310019 0.1782814 -0.7550181
vn 0.5512379 0.4246123 -0.7182209
vn -0.7893587 -0.56888 -0.2308429
vn -0.7671191 -0.5926673 -0.2455069
vn -0.5705789 -0.8036892 -0.1688886
vn -0.5953358 -0.7874892 -0.1594862
vn -0.2109976 -0.9766162 -0.04123965
vn -0.6417834 -0.7575845 -0.1190792
vn -0.8316024 -0.5278691 -0.1726028
vn -0.862019 -0.4998596 -0.08404481
vn -0.2286587 -0.9727362 -0.03872308
vn -0.05140439 -0.9986777 -0.0005840769
vn -0.04471909 -0.9989982 -0.001657061
vn 0.04628855 -0.9987219 -0.02029536
vn 0.04632847 -0.9987205 -0.0202746
vn 0.1374786 -0.985662 -0.09782593
vn -0.0643335 -0.997927 0.001726747
vn -0.2623796 -0.9645881 -0.02695539
vn -0.6759717 -0.7347558 -0.056534
vn -0.6934722 -0.7203863 -0.01182091
vn -0.875353 -0.4831267 -0.01859428
vn -0.8795013 -0.4758052 0.009322562
vn -0.2890447 -0.9572661 -0.009734174
vn -0.7002124 -0.7139111 0.005778617
vn -0.8805044 -0.473672 0.01862394
vn 0.1436652 -0.9846392 -0.09922686
vn 0.2900966 -0.9122453 -0.2892274
vn -0.07493742 -0.9971854 0.002363836
vn 0.04615 -0.9987691 -0.01817487
vn -0.304997 -0.9523528 -0.000960287
vn -0.08164263 -0.9966611 -0.001140211
vn 0.04620345 -0.9987386 -0.01966315
vn 0.1556993 -0.9832458 -0.09479077
vn 0.3046618 -0.9068652 -0.2911643
vn 0.5287955 -0.6056051 -0.5946578
vn 0.5088251 -0.616964 -0.6003769
vn 0.6438342 -0.09819036 -0.7588387
vn 0.5873066 -0.35162 -0.7289955
vn 0.5831393 -0.5976887 -0.5501972
vn 0.6372588 0.04023202 -0.769599
vn 0.704958 0.04225278 -0.7079895
vn 0.7858911 -0.09782792 -0.6105775
vn 0.651035 -0.6083191 -0.4539839
vn 0.3350782 -0.9017556 -0.2730562
vn 0.1658912 -0.9829673 -0.07909155
vn 0.3638198 -0.9044822 -0.2225921
vn 0.1728782 -0.9832814 -0.05719025
vn 0.7115195 -0.6233811 -0.3242472
vn 0.7594177 -0.3464735 -0.5506731
vn 0.8422219 -0.3635626 -0.3981011
vn 0.8970999 -0.378331 -0.2282048
vn 0.3854432 -0.9095069 -0.155663
vn 0.7497392 -0.6352537 -0.185321
vn 0.9164405 -0.3855468 -0.1071929
vn 0.04617099 -0.9987967 -0.0165309
vn 0.0462099 -0.998818 -0.01507403
vn 0.1763767 -0.9836531 -0.03630391
vn 0.04620644 -0.9988316 -0.01415525
vn -0.08474034 -0.9963851 -0.005983519
vn 0.3972522 -0.9133164 -0.0896878
vn 0.4006726 -0.9149912 -0.04746262
vn 0.7627564 -0.6405139 -0.08913273
vn 0.7646079 -0.6417638 -0.0592787
vn 0.9193822 -0.3871548 -0.06962543
vn 0.4009835 -0.9154281 -0.03469289
vn 0.1774014 -0.9839216 -0.02066092
vn 0.1773183 -0.9838594 -0.02405885
vn 0.04619335 -0.998836 -0.0138846
vn -0.08572367 -0.996281 -0.008693324
vn -0.08560868 -0.9962942 -0.008308339
vn -0.3142074 -0.9493538 -0.001094123
vn -0.3145141 -0.9492524 -0.0008009938
vn -0.7024169 -0.7116469 0.01300788
vn -0.3121276 -0.9500399 -0.0007734896
vn -0.7020835 -0.7119999 0.0116242
vn -0.8807178 -0.4731997 0.02044945
g ID59inst_0
f 3/3/3 2/2/2 1/1/1
f 2/2/2 4/4/4 1/1/1
f 4/4/4 5/5/5 1/1/1
f 5/5/5 6/6/6 1/1/1
f 6/6/6 5/5/5 7/7/7
f 4/4/4 2/2/2 8/8/8
f 2/2/2 9/9/9 8/8/8
f 9/9/9 10/10/10 8/8/8
f 4/4/4 8/8/8 11/11/11
f 5/5/5 4/4/4 11/11/11
f 10/10/10 12/12/12 8/8/8
f 8/8/8 12/12/12 11/11/11
f 12/12/12 10/10/10 13/13/13
f 10/10/10 14/14/14 13/13/13
f 14/14/14 15/15/15 13/13/13
f 12/12/12 16/16/16 11/11/11
f 16/16/16 12/12/12 13/13/13
f 5/5/5 11/11/11 17/17/17
f 11/11/11 16/16/16 17/17/17
f 5/5/5 18/18/18 7/7/7
f 18/18/18 5/5/5 17/17/17
f 18/18/18 19/19/19 7/7/7
f 19/19/19 20/20/20 7/7/7
f 20/20/20 19/19/19 21/21/21
f 18/18/18 17/17/17 22/22/22
f 19/19/19 18/18/18 22/22/22
f 19/19/19 23/23/23 21/21/21
f 21/21/21 23/23/23 24/24/24
f 16/16/16 25/25/25 17/17/17
f 17/17/17 25/25/25 22/22/22
f 25/25/25 16/16/16 26/26/26
f 19/19/19 22/22/22 27/27/27
f 23/23/23 19/19/19 27/27/27
f 27/27/27 28/28/28 23/23/23
f 25/25/25 29/29/29 22/22/22
f 22/22/22 29/29/29 27/27/27
f 29/29/29 25/25/25 26/26/26
f 23/23/23 30/30/30 24/24/24
f 28/28/28 30/30/30 23/23/23
f 24/24/24 30/30/30 31/31/31
f 31/31/31 30/30/30 28/28/28
f 32/32/32 24/24/24 31/31/31
f 33/33/33 31/31/31 28/28/28
f 33/33/33 28/28/28 34/34/34
f 27/27/27 35/35/35 28/28/28
f 29/29/29 35/35/35 27/27/27
f 28/28/28 36/36/36 34/34/34
f 35/35/35 36/36/36 28/28/28
f 34/34/34 36/36/36 37/37/37
f 37/37/37 36/36/36 35/35/35
f 38/38/38 34/34/34 37/37/37
f 38/38/38 37/37/37 39/39/39
f 35/35/35 29/29/29 40/40/40
f 40/40/40 37/37/37 35/35/35
f 29/29/29 41/41/41 40/40/40
f 41/41/41 29/29/29 26/26/26
f 41/41/41 42/42/42 40/40/40
f 42/42/42 41/41/41 26/26/26
f 40/40/40 43/43/43 37/37/37
f 42/42/42 43/43/43 40/40/40
f 37/37/37 44/44/44 39/39/39
f 43/43/43 44/44/44 37/37/37
f 39/39/39 44/44/44 45/45/45
f 45/45/45 44/44/44 43/43/43
f 46/46/46 39/39/39 45/45/45
f 46/46/46 45/45/45 47/47/47
f 43/43/43 42/42/42 48/48/48
f 48/48/48 45/45/45 43/43/43
f 45/45/45 49/49/49 47/47/47
f 47/47/47 49/49/49 50/50/50
f 51/51/51 47/47/47 50/50/50
f 52/52/52 49/49/49 45/45/45
f 50/50/50 49/49/49 52/52/52
f 48/48/48 52/52/52 45/45/45
f 53/53/53 50/50/50 52/52/52
f 52/52/52 54/54/54 53/53/53
f 54/54/54 52/52/52 48/48/48
f 54/54/54 55/55/55 53/53/53
f 55/55/55 54/54/54 56/56/56
f 54/54/54 57/57/57 56/56/56
f 58/58/58 54/54/54 48/48/48
f 42/42/42 58/58/58 48/48/48
f 57/57/57 54/54/54 58/58/58
f 42/42/42 59/59/59 58/58/58
f 59/59/59 42/42/42 26/26/26
f 60/60/60 57/57/57 58/58/58
f 59/59/59 60/60/60 58/58/58
f 61/61/61 59/59/59 26/26/26
f 59/59/59 61/61/61 60/60/60
f 62/62/62 57/57/57 60/60/60
f 57/57/57 62/62/62 63/63/63
f 62/62/62 64/64/64 63/63/63
f 64/64/64 62/62/62 65/65/65
f 62/62/62 66/66/66 65/65/65
f 67/67/67 62/62/62 60/60/60
f 61/61/61 67/67/67 60/60/60
f 66/66/66 62/62/62 67/67/67
f 68/68/68 61/61/61 26/26/26
f 16/16/16 68/68/68 26/26/26
f 68/68/68 16/16/16 13/13/13
f 61/61/61 68/68/68 13/13/13
f 69/69/69 61/61/61 13/13/13
f 61/61/61 69/69/69 67/67/67
f 15/15/15 69/69/69 13/13/13
f 69/69/69 70/70/70 67/67/67
f 69/69/69 15/15/15 70/70/70
f 70/70/70 66/66/66 67/67/67
f 15/15/15 71/71/71 70/70/70
f 71/71/71 72/72/72 70/70/70
f 72/72/72 66/66/66 70/70/70
f 66/66/66 72/72/72 73/73/73
f 72/72/72 74/74/74 73/73/73
f 77/77/77 76/76/76 75/75/75
f 78/78/78 77/77/77 75/75/75
f 77/77/77 78/78/78 79/79/79
f 80/80/80 78/78/78 75/75/75
f 81/81/81 80/80/80 75/75/75
f 80/80/80 81/81/81 82/82/82
f 78/78/78 83/83/83 79/79/79
f 78/78/78 80/80/80 83/83/83
f 83/83/83 84/84/84 79/79/79
f 84/84/84 85/85/85 79/79/79
f 85/85/85 84/84/84 86/86/86
f 87/87/87 85/85/85 86/86/86
f 88/88/88 87/87/87 86/86/86
f 89/89/89 84/84/84 83/83/83
f 84/84/84 89/89/89 86/86/86
f 80/80/80 90/90/90 83/83/83
f 90/90/90 89/89/89 83/83/83
f 91/91/91 80/80/80 82/82/82
f 80/80/80 91/91/91 90/90/90
f 92/92/92 91/91/91 82/82/82
f 93/93/93 92/92/92 82/82/82
f 92/92/92 93/93/93 94/94/94
f 91/91/91 95/95/95 90/90/90
f 91/91/91 92/92/92 95/95/95
f 96/96/96 92/92/92 94/94/94
f 94/94/94 97/97/97 96/96/96
f 98/98/98 88/88/88 86/86/86
f 88/88/88 98/98/98 99/99/99
f 100/100/100 89/89/89 90/90/90
f 95/95/95 100/100/100 90/90/90
f 89/89/89 100/100/100 101/101/101
f 92/92/92 102/102/102 95/95/95
f 92/92/92 96/96/96 102/102/102
f 103/103/103 100/100/100 95/95/95
f 100/100/100 103/103/103 101/101/101
f 102/102/102 103/103/103 95/95/95
f 89/89/89 104/104/104 86/86/86
f 104/104/104 89/89/89 101/101/101
f 104/104/104 105/105/105 86/86/86
f 105/105/105 98/98/98 86/86/86
f 105/105/105 104/104/104 101/101/101
f 98/98/98 106/106/106 99/99/99
f 98/98/98 105/105/105 106/106/106
f 106/106/106 107/107/107 99/99/99
f 107/107/107 108/108/108 99/99/99
f 108/108/108 107/107/107 109/109/109
f 110/110/110 108/108/108 109/109/109
f 111/111/111 107/107/107 106/106/106
f 107/107/107 111/111/111 112/112/112
f 111/111/111 113/113/113 112/112/112
f 113/113/113 111/111/111 114/114/114
f 111/111/111 115/115/115 114/114/114
f 116/116/116 111/111/111 106/106/106
f 105/105/105 116/116/116 106/106/106
f 115/115/115 111/111/111 116/116/116
f 105/105/105 117/117/117 116/116/116
f 117/117/117 105/105/105 101/101/101
f 118/118/118 115/115/115 116/116/116
f 117/117/117 118/118/118 116/116/116
f 119/119/119 117/117/117 101/101/101
f 117/117/117 119/119/119 118/118/118
f 120/120/120 115/115/115 118/118/118
f 115/115/115 120/120/120 121/121/121
f 120/120/120 122/122/122 121/121/121
f 122/122/122 120/120/120 123/123/123
f 124/124/124 120/120/120 118/118/118
f 119/119/119 124/124/124 118/118/118
f 120/120/120 125/125/125 123/123/123
f 125/125/125 120/120/120 124/124/124
f 123/123/123 125/125/125 126/126/126
f 127/127/127 119/119/119 101/101/101
f 103/103/103 127/127/127 101/101/101
f 119/119/119 127/127/127 128/128/128
f 127/127/127 103/103/103 128/128/128
f 119/119/119 129/129/129 124/124/124
f 129/129/129 119/119/119 128/128/128
f 128/128/128 130/130/130 129/129/129
f 103/103/103 131/131/131 128/128/128
f 128/128/128 131/131/131 130/130/130
f 131/131/131 103/103/103 102/102/102
f 132/132/132 125/125/125 124/124/124
f 129/129/129 132/132/132 124/124/124
f 132/132/132 133/133/133 125/125/125
f 132/132/132 129/129/129 133/133/133
f 125/125/125 134/134/134 126/126/126
f 133/133/133 134/134/134 125/125/125
f 126/126/126 134/134/134 135/135/135
f 135/135/135 134/134/134 133/133/133
f 136/136/136 126/126/126 135/135/135
f 137/137/137 135/135/135 133/133/133
f 137/137/137 133/133/133 138/138/138
f 129/129/129 139/139/139 133/133/133
f 133/133/133 139/139/139 138/138/138
f 130/130/130 139/139/139 129/129/129
f 138/138/138 139/139/139 130/130/130
f 140/140/140 138/138/138 130/130/130
f 140/140/140 130/130/130 141/141/141
f 130/130/130 142/142/142 141/141/141
f 141/141/141 142/142/142 143/143/143
f 131/131/131 142/142/142 130/130/130
f 143/143/143 142/142/142 131/131/131
f 144/144/144 141/141/141 143/143/143
f 144/144/144 143/143/143 145/145/145
f 146/146/146 143/143/143 131/131/131
f 146/146/146 131/131/131 102/102/102
f 96/96/96 146/146/146 102/102/102
f 146/146/146 96/96/96 143/143/143
f 96/96/96 147/147/147 143/143/143
f 143/143/143 147/147/147 145/145/145
f 97/97/97 147/147/147 96/96/96
f 145/145/145 147/147/147 97/97/97
f 148/148/148 145/145/145 97/97/97
