g ID76inst
v -0.314314 0.345897 0.3126985
v -0.3302745 0.314751 0.3211615
v -0.3274945 0.325958 0.3181525
v -0.314314 0.3149705 0.321009
v -0.314314 0.3477045 0.312212
v -0.2576595 0.3156375 0.320506
v -0.2576595 0.344521 0.3122455
v 0.0377257 0.313895 0.3125745
v 0.0377257 0.327402 0.308143
v 0.0529005 0.3138485 0.3120205
v -0.01508925 0.330894 0.3090505
v 0.0377257 0.3279265 0.3079715
v -0.01508925 0.3140575 0.3145065
v -0.0611445 0.314376 0.316313
v -0.0611445 0.3334815 0.3102015
v -0.1025595 0.3150335 0.3181935
v -0.0611445 0.3334815 0.3102015
v -0.0611445 0.314376 0.316313
v -0.1025595 0.335808 0.311656
v -0.1464445 0.315653 0.3196645
v -0.1464445 0.338273 0.312702
v -0.0611445 0.158703 0.3289285
v -0.04438424 0.1586885 0.328468
v -0.0611445 0.1526355 0.3291125
v -0.0611445 0.223133 0.3261795
v -0.01508925 0.1692655 0.3272015
v -0.01508925 0.2230995 0.324846
v 0.03095565 0.2230995 0.323161
v 0.02109575 0.182334 0.3253065
v -0.211519 0.098334 0.3311625
v -0.2576595 0.0993025 0.3312195
v -0.2576595 0.1601965 0.3291975
v -0.1999245 0.1025215 0.330986
v -0.1999245 0.1596645 0.328912
v -0.1464445 0.121834 0.3302895
v -0.1464445 0.159112 0.3289785
v -0.2576595 0.2236045 0.327078
v -0.1464445 0.223367 0.3266675
v -0.1999245 0.223527 0.326675
v -0.1999245 0.273737 0.32506
v -0.2576595 0.273559 0.3253345
v -0.1464445 0.273622 0.3248115
v -0.1464445 0.315653 0.3196645
v -0.2576595 0.3156375 0.320506
v -0.1999245 0.31586 0.3202465
v -0.1464445 0.338273 0.312702
v -0.1999245 0.341278 0.312654
v -0.2576595 0.344521 0.3122455
v -0.3685945 0.160495 0.330993
v -0.3684545 0.100899 0.331676
v -0.3788145 0.119326 0.3314955
v -0.3684545 0.160495 0.330993
v -0.314314 0.1604285 0.3300485
v -0.314314 0.100199 0.3314365
v -0.2576595 0.0993025 0.3312195
v -0.2576595 0.1601965 0.3291975
v -0.2576595 0.2236045 0.327078
v -0.314314 0.2234975 0.328286
v -0.3529695 0.2233795 0.32924
v -0.3684545 0.161036 0.3309805
v 0.04298065 0.27282 0.319189
v 0.0377257 0.313895 0.3125745
v 0.0529005 0.3138485 0.3120205
v 0.0377257 0.27282 0.319381
v -0.01508925 0.27282 0.3213125
v -0.01508925 0.3140575 0.3145065
v 0.0377257 0.251106 0.320924
v -0.0611445 0.314376 0.316313
v 0.03095565 0.2230995 0.323161
v -0.0611445 0.2729345 0.322885
v -0.01508925 0.2230995 0.324846
v -0.0611445 0.223133 0.3261795
v -0.1025595 0.2732785 0.324069
v -0.1025595 0.2232285 0.326645
v -0.1464445 0.223367 0.3266675
v -0.1464445 0.273622 0.3248115
v -0.0611445 0.223133 0.3261795
v -0.1464445 0.315653 0.3196645
v -0.0611445 0.2729345 0.322885
v -0.1025595 0.3150335 0.3181935
v -0.0611445 0.314376 0.316313
v -0.1025595 0.158821 0.3291735
v -0.1464445 0.121834 0.3302895
v -0.1464445 0.159112 0.3289785
v -0.1025595 0.137681 0.329866
v -0.1464445 0.223367 0.3266675
v -0.0611445 0.1526355 0.3291125
v -0.1025595 0.2232285 0.326645
v -0.0611445 0.158703 0.3289285
v -0.0611445 0.223133 0.3261795
v -0.314314 0.2730245 0.326159
v -0.2576595 0.273559 0.3253345
v -0.2576595 0.2236045 0.327078
v -0.314314 0.2234975 0.328286
v -0.2576595 0.3156375 0.320506
v -0.3529695 0.2233795 0.32924
v -0.314314 0.3149705 0.321009
v -0.3407145 0.272737 0.326603
v -0.3302745 0.314751 0.3211615
vt 0 1
vt 0 1
vt 0 1
vt 0 1
vt 0 1
vt 0 1
vt 0 1
vt 0 1
vt 0 1
vt 0 1
vt 0 1
vt 0 1
vt 0 1
vt 0 1
vt 0 1
vt 0 1
vt 0 1
vt 0 1
vt 0 1
vt 0 1
vt 0 1
vt 0 1
vt 0 1
vt 0 1
vt 0 1
vt 0 1
vt 0 1
vt 0 1
vt 0 1
vt 0 1
vt 0 1
vt 0 1
vt 0 1
vt 0 1
vt 0 1
vt 0 1
vt 0 1
vt 0 1
vt 0 1
vt 0 1
vt 0 1
vt 0 1
vt 0 1
vt 0 1
vt 0 1
vt 0 1
vt 0 1
vt 0 1
vt 0 1
vt 0 1
vt 0 1
vt 0 1
vt 0 1
vt 0 1
vt 0 1
vt 0 1
vt 0 1
vt 0 1
vt 0 1
vt 0 1
vt 0 1
vt 0 1
vt 0 1
vt 0 1
vt 0 1
vt 0 1
vt 0 1
vt 0 1
vt 0 1
vt 0 1
vt 0 1
vt 0 1
vt 0 1
vt 0 1
vt 0 1
vt 0 1
vt 0 1
vt 0 1
vt 0 1
vt 0 1
vt 0 1
vt 0 1
vt 0 1
vt 0 1
vt 0 1
vt 0 1
vt 0 1
vt 0 1
vt 0 1
vt 0 1
vt 0 1
vt 0 1
vt 0 1
vt 0 1
vt 0 1
vt 0 1
vt 0 1
vt 0 1
vt 0 1
vn 0.008274647 0.2629156 0.9647834
vn 0.009580951 0.191789 0.9813895
vn 0.006623712 0.259044 0.9658428
vn 0.00988219 0.1923482 0.981277
vn 0.009925427 0.2667823 0.9637057
vn 0.007675048 0.1953132 0.9807109
vn 0.00800892 0.2735188 0.9618333
vn 0.03624619 0.2375948 0.9706879
vn 0.03594204 0.3105872 0.9498652
vn 0.03610004 0.2381725 0.9705517
vn 0.03823102 0.3078743 0.9506586
vn 0.03626449 0.3096312 0.9501649
vn 0.03753534 0.2352749 0.9712038
vn 0.04129873 0.2295815 0.9724129
vn 0.04470453 0.3040449 0.9516082
vn 0.03807662 0.2200208 0.9747518
vn 0.04470453 0.3040449 0.9516082
vn 0.04129873 0.2295815 0.9724129
vn 0.04350393 0.2994117 0.9531317
vn 0.02152527 0.2094831 0.9775753
vn 0.02564195 0.2934189 0.95564
vn 0.01766768 0.03663775 0.9991724
vn 0.02785525 0.03670954 0.9989377
vn 0.01688071 0.03125081 0.9993691
vn 0.02216802 0.0527892 0.9983596
vn 0.03237616 0.04340656 0.9985328
vn 0.03319895 0.056519 0.9978493
vn 0.03649488 0.05726803 0.9976916
vn 0.03652089 0.04369587 0.9983771
vn 0.003635947 0.03473555 0.9993899
vn 0.006669043 0.0314387 0.9994835
vn 0.009418047 0.03194049 0.9994454
vn 0.001619061 0.03528155 0.9993761
vn 0.002265699 0.03506226 0.9993826
vn -0.001935268 0.03505123 0.9993837
vn -0.001491391 0.03579166 0.9993581
vn 0.01196761 0.0343169 0.9993393
vn 0.00233392 0.03793383 0.9992775
vn 0.003535137 0.03443128 0.9994009
vn 0.005149364 0.07489844 0.9971778
vn 0.009537461 0.0760795 0.9970561
vn 0.01149126 0.08172598 0.9965886
vn 0.02152527 0.2094831 0.9775753
vn 0.007675048 0.1953132 0.9807109
vn 0.007990205 0.2011288 0.9795322
vn 0.02564195 0.2934189 0.95564
vn 0.009788358 0.2850991 0.9584481
vn 0.00800892 0.2735188 0.9618333
vn 0.002932992 0.01146711 0.99993
vn 0.006993808 0.01437372 0.9998722
vn 0.002932992 0.01146711 0.99993
vn 0.01147375 0.01804341 0.9997714
vn 0.01484603 0.02536952 0.9995679
vn 0.01037838 0.02271094 0.9996881
vn 0.006669043 0.0314387 0.9994835
vn 0.009418047 0.03194049 0.9994454
vn 0.01196761 0.0343169 0.9993393
vn 0.01937714 0.03510558 0.9991958
vn 0.02080658 0.03543836 0.9991552
vn 0.02043236 0.02538087 0.9994691
vn 0.03643446 0.1172526 0.9924335
vn 0.03624619 0.2375948 0.9706879
vn 0.03610004 0.2381725 0.9705517
vn 0.03643058 0.1171598 0.9924447
vn 0.03535872 0.1156024 0.9926661
vn 0.03753534 0.2352749 0.9712038
vn 0.03644077 0.07083236 0.9968224
vn 0.04129873 0.2295815 0.9724129
vn 0.03649488 0.05726803 0.9976916
vn 0.03179561 0.1087594 0.9935595
vn 0.03319895 0.056519 0.9978493
vn 0.02216802 0.0527892 0.9983596
vn 0.02350318 0.09536741 0.9951646
vn 0.009008505 0.0453362 0.9989311
vn 0.00233392 0.03793383 0.9992775
vn 0.01149126 0.08172598 0.9965886
vn 0.02216802 0.0527892 0.9983596
vn 0.02152527 0.2094831 0.9775753
vn 0.03179561 0.1087594 0.9935595
vn 0.03807662 0.2200208 0.9747518
vn 0.04129873 0.2295815 0.9724129
vn 0.002425997 0.03624725 0.9993399
vn -0.001935268 0.03505123 0.9993837
vn -0.001491391 0.03579166 0.9993581
vn 0.001404169 0.03323639 0.9994466
vn 0.00233392 0.03793383 0.9992775
vn 0.01688071 0.03125081 0.9993691
vn 0.009008505 0.0453362 0.9989311
vn 0.01766768 0.03663775 0.9991724
vn 0.02216802 0.0527892 0.9983596
vn 0.01545107 0.08154036 0.9965502
vn 0.009537461 0.0760795 0.9970561
vn 0.01196761 0.0343169 0.9993393
vn 0.01937714 0.03510558 0.9991958
vn 0.007675048 0.1953132 0.9807109
vn 0.02080658 0.03543836 0.9991552
vn 0.00988219 0.1923482 0.981277
vn 0.01684868 0.08462116 0.9962708
vn 0.009580951 0.191789 0.9813895
g ID76inst_0
f 3/3/3 2/2/2 1/1/1
f 2/2/2 4/4/4 1/1/1
f 5/5/5 1/1/1 4/4/4
f 5/5/5 4/4/4 6/6/6
f 6/6/6 7/7/7 5/5/5
f 10/10/10 9/9/9 8/8/8
f 11/11/11 8/8/8 9/9/9
f 9/9/9 12/12/12 11/11/11
f 11/11/11 13/13/13 8/8/8
f 14/14/14 13/13/13 11/11/11
f 15/15/15 14/14/14 11/11/11
f 18/18/18 17/17/17 16/16/16
f 17/17/17 19/19/19 16/16/16
f 20/20/20 16/16/16 19/19/19
f 21/21/21 20/20/20 19/19/19
f 24/24/24 23/23/23 22/22/22
f 25/25/25 22/22/22 23/23/23
f 25/25/25 23/23/23 26/26/26
f 26/26/26 27/27/27 25/25/25
f 28/28/28 27/27/27 26/26/26
f 29/29/29 28/28/28 26/26/26
f 32/32/32 31/31/31 30/30/30
f 32/32/32 30/30/30 33/33/33
f 33/33/33 34/34/34 32/32/32
f 33/33/33 35/35/35 34/34/34
f 35/35/35 36/36/36 34/34/34
f 37/37/37 32/32/32 34/34/34
f 36/36/36 38/38/38 34/34/34
f 39/39/39 37/37/37 34/34/34
f 38/38/38 39/39/39 34/34/34
f 37/37/37 39/39/39 40/40/40
f 39/39/39 38/38/38 40/40/40
f 41/41/41 37/37/37 40/40/40
f 38/38/38 42/42/42 40/40/40
f 42/42/42 43/43/43 40/40/40
f 44/44/44 41/41/41 40/40/40
f 43/43/43 45/45/45 40/40/40
f 45/45/45 44/44/44 40/40/40
f 43/43/43 46/46/46 45/45/45
f 46/46/46 47/47/47 45/45/45
f 44/44/44 45/45/45 47/47/47
f 48/48/48 44/44/44 47/47/47
f 51/51/51 50/50/50 49/49/49
f 50/50/50 52/52/52 49/49/49
f 52/52/52 50/50/50 53/53/53
f 50/50/50 54/54/54 53/53/53
f 54/54/54 55/55/55 53/53/53
f 55/55/55 56/56/56 53/53/53
f 56/56/56 57/57/57 53/53/53
f 57/57/57 58/58/58 53/53/53
f 53/53/53 58/58/58 59/59/59
f 59/59/59 52/52/52 53/53/53
f 59/59/59 60/60/60 52/52/52
f 63/63/63 62/62/62 61/61/61
f 62/62/62 64/64/64 61/61/61
f 64/64/64 62/62/62 65/65/65
f 62/62/62 66/66/66 65/65/65
f 67/67/67 61/61/61 64/64/64
f 67/67/67 64/64/64 65/65/65
f 66/66/66 68/68/68 65/65/65
f 65/65/65 69/69/69 67/67/67
f 68/68/68 70/70/70 65/65/65
f 65/65/65 71/71/71 69/69/69
f 70/70/70 72/72/72 65/65/65
f 72/72/72 71/71/71 65/65/65
f 75/75/75 74/74/74 73/73/73
f 76/76/76 75/75/75 73/73/73
f 74/74/74 77/77/77 73/73/73
f 78/78/78 76/76/76 73/73/73
f 77/77/77 79/79/79 73/73/73
f 80/80/80 78/78/78 73/73/73
f 79/79/79 81/81/81 73/73/73
f 81/81/81 80/80/80 73/73/73
f 84/84/84 83/83/83 82/82/82
f 83/83/83 85/85/85 82/82/82
f 86/86/86 84/84/84 82/82/82
f 85/85/85 87/87/87 82/82/82
f 88/88/88 86/86/86 82/82/82
f 87/87/87 89/89/89 82/82/82
f 90/90/90 88/88/88 82/82/82
f 89/89/89 90/90/90 82/82/82
f 93/93/93 92/92/92 91/91/91
f 94/94/94 93/93/93 91/91/91
f 92/92/92 95/95/95 91/91/91
f 96/96/96 94/94/94 91/91/91
f 95/95/95 97/97/97 91/91/91
f 98/98/98 96/96/96 91/91/91
f 97/97/97 99/99/99 91/91/91
f 99/99/99 98/98/98 91/91/91
