g ID77inst
v -0.314314 0.3149705 -0.3217865
v -0.3274945 0.325958 -0.31893
v -0.3302745 0.314751 -0.3219395
v -0.314314 0.345897 -0.313476
v -0.314314 0.3477045 -0.31299
v -0.2576595 0.344521 -0.313023
v -0.2576595 0.3156375 -0.3212835
v 0.0377257 0.327402 -0.3089205
v 0.0377257 0.313895 -0.3133525
v 0.0529005 0.3138485 -0.312798
v -0.01508925 0.3140575 -0.3152845
v 0.0377257 0.3279265 -0.308749
v -0.01508925 0.330894 -0.309828
v -0.0611445 0.3334815 -0.310979
v -0.0611445 0.314376 -0.317091
v -0.1025595 0.335808 -0.3124335
v -0.0611445 0.314376 -0.317091
v -0.0611445 0.3334815 -0.310979
v -0.1025595 0.3150335 -0.318971
v -0.1464445 0.338273 -0.3134795
v -0.1464445 0.315653 -0.320442
v -0.1999245 0.341278 -0.3134315
v -0.1464445 0.315653 -0.320442
v -0.1464445 0.338273 -0.3134795
v -0.1999245 0.31586 -0.321024
v -0.2576595 0.344521 -0.313023
v -0.2576595 0.3156375 -0.3212835
v -0.1464445 0.273622 -0.325589
v -0.2576595 0.273559 -0.326112
v -0.1999245 0.273737 -0.3258375
v -0.1999245 0.223527 -0.3274525
v -0.1464445 0.223367 -0.327445
v -0.2576595 0.2236045 -0.3278555
v -0.1464445 0.159112 -0.329756
v -0.2576595 0.1601965 -0.329975
v -0.1999245 0.1596645 -0.3296895
v -0.1999245 0.1025215 -0.3317635
v -0.1464445 0.121834 -0.331067
v -0.211519 0.098334 -0.33194
v -0.2576595 0.0993025 -0.331997
v -0.04438424 0.1586885 -0.329246
v -0.0611445 0.158703 -0.3297065
v -0.0611445 0.1526355 -0.3298905
v -0.0611445 0.223133 -0.3269575
v -0.01508925 0.2230995 -0.325624
v -0.01508925 0.1692655 -0.327979
v 0.02109575 0.182334 -0.3260845
v 0.03095565 0.2230995 -0.323939
v -0.1025595 0.137681 -0.330644
v -0.1464445 0.159112 -0.329756
v -0.1464445 0.121834 -0.331067
v -0.1025595 0.158821 -0.3299515
v -0.0611445 0.158703 -0.3297065
v -0.0611445 0.1526355 -0.3298905
v -0.1025595 0.2232285 -0.327423
v -0.1464445 0.223367 -0.327445
v -0.0611445 0.223133 -0.3269575
v -0.3407145 0.272737 -0.3273805
v -0.314314 0.3149705 -0.3217865
v -0.3302745 0.314751 -0.3219395
v -0.314314 0.2730245 -0.3269365
v -0.314314 0.2234975 -0.329064
v -0.3529695 0.2233795 -0.3300175
v -0.2576595 0.273559 -0.326112
v -0.2576595 0.3156375 -0.3212835
v -0.2576595 0.2236045 -0.3278555
v -0.0611445 0.2729345 -0.3236625
v -0.01508925 0.3140575 -0.3152845
v -0.0611445 0.314376 -0.317091
v -0.01508925 0.27282 -0.32209
v -0.01508925 0.2230995 -0.325624
v -0.0611445 0.223133 -0.3269575
v 0.03095565 0.2230995 -0.323939
v 0.0377257 0.27282 -0.3201585
v 0.0377257 0.313895 -0.3133525
v 0.0377257 0.251106 -0.321702
v 0.0529005 0.3138485 -0.312798
v 0.04298065 0.27282 -0.319967
v -0.3684545 0.160495 -0.3317705
v -0.3685945 0.160495 -0.3317705
v -0.3788145 0.119326 -0.3322735
v -0.3684545 0.100899 -0.332454
v -0.314314 0.100199 -0.3322145
v -0.314314 0.1604285 -0.330826
v -0.2576595 0.1601965 -0.329975
v -0.2576595 0.0993025 -0.331997
v -0.314314 0.2234975 -0.329064
v -0.2576595 0.2236045 -0.3278555
v -0.3529695 0.2233795 -0.3300175
v -0.3684545 0.161036 -0.331758
v -0.1025595 0.2232285 -0.327423
v -0.1464445 0.273622 -0.325589
v -0.1464445 0.223367 -0.327445
v -0.1025595 0.2732785 -0.3248465
v -0.0611445 0.2729345 -0.3236625
v -0.0611445 0.223133 -0.3269575
v -0.1025595 0.3150335 -0.318971
v -0.1464445 0.315653 -0.320442
v -0.0611445 0.314376 -0.317091
vt 0 1
vt 0 1
vt 0 1
vt 0 1
vt 0 1
vt 0 1
vt 0 1
vt 0 1
vt 0 1
vt 0 1
vt 0 1
vt 0 1
vt 0 1
vt 0 1
vt 0 1
vt 0 1
vt 0 1
vt 0 1
vt 0 1
vt 0 1
vt 0 1
vt 0 1
vt 0 1
vt 0 1
vt 0 1
vt 0 1
vt 0 1
vt 0 1
vt 0 1
vt 0 1
vt 0 1
vt 0 1
vt 0 1
vt 0 1
vt 0 1
vt 0 1
vt 0 1
vt 0 1
vt 0 1
vt 0 1
vt 0 1
vt 0 1
vt 0 1
vt 0 1
vt 0 1
vt 0 1
vt 0 1
vt 0 1
vt 0 1
vt 0 1
vt 0 1
vt 0 1
vt 0 1
vt 0 1
vt 0 1
vt 0 1
vt 0 1
vt 0 1
vt 0 1
vt 0 1
vt 0 1
vt 0 1
vt 0 1
vt 0 1
vt 0 1
vt 0 1
vt 0 1
vt 0 1
vt 0 1
vt 0 1
vt 0 1
vt 0 1
vt 0 1
vt 0 1
vt 0 1
vt 0 1
vt 0 1
vt 0 1
vt 0 1
vt 0 1
vt 0 1
vt 0 1
vt 0 1
vt 0 1
vt 0 1
vt 0 1
vt 0 1
vt 0 1
vt 0 1
vt 0 1
vt 0 1
vt 0 1
vt 0 1
vt 0 1
vt 0 1
vt 0 1
vt 0 1
vt 0 1
vt 0 1
vn 0.009887964 0.192347 -0.981277
vn 0.006635176 0.2590541 -0.9658401
vn 0.009592796 0.1917905 -0.981389
vn 0.008280087 0.2629161 -0.9647831
vn 0.009924846 0.2667733 -0.9637082
vn 0.008008456 0.273514 -0.9618347
vn 0.007674811 0.195311 -0.9807113
vn 0.03595887 0.3106163 -0.949855
vn 0.03625525 0.2376071 -0.9706845
vn 0.0361179 0.2381884 -0.9705471
vn 0.0375355 0.2352823 -0.971202
vn 0.03626499 0.3096588 -0.9501559
vn 0.0382314 0.3078994 -0.9506505
vn 0.04470226 0.3040613 -0.9516031
vn 0.04129624 0.2295858 -0.9724119
vn 0.04350125 0.2994163 -0.9531304
vn 0.04129624 0.2295858 -0.9724119
vn 0.04470226 0.3040613 -0.9516031
vn 0.03807383 0.2200218 -0.9747517
vn 0.02564191 0.293418 -0.9556403
vn 0.02152511 0.2094828 -0.9775754
vn 0.009788424 0.2850983 -0.9584483
vn 0.02152511 0.2094828 -0.9775754
vn 0.02564191 0.293418 -0.9556403
vn 0.007990238 0.2011285 -0.9795323
vn 0.008008456 0.273514 -0.9618347
vn 0.007674811 0.195311 -0.9807113
vn 0.01148956 0.08172734 -0.9965885
vn 0.009538635 0.0760809 -0.997056
vn 0.005149306 0.07489844 -0.9971778
vn 0.003535085 0.0344314 -0.9994009
vn 0.002329567 0.03793495 -0.9992775
vn 0.01196986 0.03431717 -0.9993393
vn -0.001497027 0.03579183 -0.9993581
vn 0.009420162 0.03194046 -0.9994454
vn 0.002265817 0.03506225 -0.9993826
vn 0.001619283 0.03528129 -0.9993761
vn -0.001940953 0.03505177 -0.9993836
vn 0.003635954 0.03473526 -0.9993899
vn 0.006671116 0.03144029 -0.9994833
vn 0.02785791 0.03670631 -0.9989378
vn 0.01766911 0.03663659 -0.9991724
vn 0.01688077 0.0312499 -0.9993691
vn 0.02216951 0.05279347 -0.9983593
vn 0.03319827 0.05652205 -0.9978492
vn 0.03237639 0.04340273 -0.9985329
vn 0.03651605 0.04369085 -0.9983776
vn 0.03649111 0.05727054 -0.9976916
vn 0.00139833 0.03323806 -0.9994465
vn -0.001497027 0.03579183 -0.9993581
vn -0.001940953 0.03505177 -0.9993836
vn 0.002420298 0.03624788 -0.9993399
vn 0.01766911 0.03663659 -0.9991724
vn 0.01688077 0.0312499 -0.9993691
vn 0.00900449 0.04533974 -0.998931
vn 0.002329567 0.03793495 -0.9992775
vn 0.02216951 0.05279347 -0.9983593
vn 0.0168508 0.08462044 -0.9962708
vn 0.009887964 0.192347 -0.981277
vn 0.009592796 0.1917905 -0.981389
vn 0.01545325 0.08154146 -0.9965501
vn 0.01937604 0.03510641 -0.9991958
vn 0.02079988 0.03543963 -0.9991553
vn 0.009538635 0.0760809 -0.997056
vn 0.007674811 0.195311 -0.9807113
vn 0.01196986 0.03431717 -0.9993393
vn 0.0317943 0.1087602 -0.9935594
vn 0.0375355 0.2352823 -0.971202
vn 0.04129624 0.2295858 -0.9724119
vn 0.0353578 0.1156018 -0.9926661
vn 0.03319827 0.05652205 -0.9978492
vn 0.02216951 0.05279347 -0.9983593
vn 0.03649111 0.05727054 -0.9976916
vn 0.03640725 0.1171653 -0.9924449
vn 0.03625525 0.2376071 -0.9706845
vn 0.03639308 0.07084866 -0.996823
vn 0.0361179 0.2381884 -0.9705471
vn 0.03638922 0.1172641 -0.9924339
vn 0.01147727 0.01804742 -0.9997713
vn 0.002948995 0.01147453 -0.9999298
vn 0.002948995 0.01147453 -0.9999298
vn 0.007001838 0.01438138 -0.9998721
vn 0.01038048 0.02271662 -0.999688
vn 0.01484684 0.02537062 -0.9995678
vn 0.009420162 0.03194046 -0.9994454
vn 0.006671116 0.03144029 -0.9994833
vn 0.01937604 0.03510641 -0.9991958
vn 0.01196986 0.03431717 -0.9993393
vn 0.02079988 0.03543963 -0.9991553
vn 0.02042687 0.02537758 -0.9994692
vn 0.00900449 0.04533974 -0.998931
vn 0.01148956 0.08172734 -0.9965885
vn 0.002329567 0.03793495 -0.9992775
vn 0.02350048 0.09536978 -0.9951645
vn 0.0317943 0.1087602 -0.9935594
vn 0.02216951 0.05279347 -0.9983593
vn 0.03807383 0.2200218 -0.9747517
vn 0.02152511 0.2094828 -0.9775754
vn 0.04129624 0.2295858 -0.9724119
g ID77inst_0
f 3/3/3 2/2/2 1/1/1
f 2/2/2 4/4/4 1/1/1
f 1/1/1 4/4/4 5/5/5
f 1/1/1 5/5/5 6/6/6
f 6/6/6 7/7/7 1/1/1
f 10/10/10 9/9/9 8/8/8
f 8/8/8 9/9/9 11/11/11
f 11/11/11 12/12/12 8/8/8
f 11/11/11 13/13/13 12/12/12
f 14/14/14 13/13/13 11/11/11
f 15/15/15 14/14/14 11/11/11
f 18/18/18 17/17/17 16/16/16
f 17/17/17 19/19/19 16/16/16
f 20/20/20 16/16/16 19/19/19
f 21/21/21 20/20/20 19/19/19
f 24/24/24 23/23/23 22/22/22
f 23/23/23 25/25/25 22/22/22
f 26/26/26 22/22/22 25/25/25
f 27/27/27 26/26/26 25/25/25
f 23/23/23 28/28/28 25/25/25
f 27/27/27 25/25/25 29/29/29
f 28/28/28 30/30/30 25/25/25
f 25/25/25 30/30/30 29/29/29
f 31/31/31 30/30/30 28/28/28
f 29/29/29 30/30/30 31/31/31
f 32/32/32 31/31/31 28/28/28
f 33/33/33 29/29/29 31/31/31
f 32/32/32 34/34/34 31/31/31
f 33/33/33 31/31/31 35/35/35
f 34/34/34 36/36/36 31/31/31
f 31/31/31 36/36/36 35/35/35
f 37/37/37 36/36/36 34/34/34
f 38/38/38 37/37/37 34/34/34
f 36/36/36 37/37/37 39/39/39
f 39/39/39 35/35/35 36/36/36
f 39/39/39 40/40/40 35/35/35
f 43/43/43 42/42/42 41/41/41
f 41/41/41 42/42/42 44/44/44
f 41/41/41 44/44/44 45/45/45
f 45/45/45 46/46/46 41/41/41
f 47/47/47 46/46/46 45/45/45
f 48/48/48 47/47/47 45/45/45
f 51/51/51 50/50/50 49/49/49
f 50/50/50 52/52/52 49/49/49
f 49/49/49 52/52/52 53/53/53
f 54/54/54 49/49/49 53/53/53
f 55/55/55 52/52/52 50/50/50
f 53/53/53 52/52/52 55/55/55
f 56/56/56 55/55/55 50/50/50
f 57/57/57 53/53/53 55/55/55
f 60/60/60 59/59/59 58/58/58
f 59/59/59 61/61/61 58/58/58
f 58/58/58 61/61/61 62/62/62
f 63/63/63 58/58/58 62/62/62
f 64/64/64 61/61/61 59/59/59
f 62/62/62 61/61/61 64/64/64
f 65/65/65 64/64/64 59/59/59
f 66/66/66 62/62/62 64/64/64
f 69/69/69 68/68/68 67/67/67
f 68/68/68 70/70/70 67/67/67
f 67/67/67 70/70/70 71/71/71
f 72/72/72 67/67/67 71/71/71
f 73/73/73 71/71/71 70/70/70
f 74/74/74 70/70/70 68/68/68
f 73/73/73 70/70/70 74/74/74
f 75/75/75 74/74/74 68/68/68
f 74/74/74 76/76/76 73/73/73
f 75/75/75 77/77/77 74/74/74
f 76/76/76 74/74/74 78/78/78
f 77/77/77 78/78/78 74/74/74
f 81/81/81 80/80/80 79/79/79
f 82/82/82 81/81/81 79/79/79
f 82/82/82 79/79/79 83/83/83
f 79/79/79 84/84/84 83/83/83
f 83/83/83 84/84/84 85/85/85
f 86/86/86 83/83/83 85/85/85
f 85/85/85 84/84/84 87/87/87
f 87/87/87 84/84/84 79/79/79
f 88/88/88 85/85/85 87/87/87
f 79/79/79 89/89/89 87/87/87
f 79/79/79 90/90/90 89/89/89
f 93/93/93 92/92/92 91/91/91
f 92/92/92 94/94/94 91/91/91
f 91/91/91 94/94/94 95/95/95
f 96/96/96 91/91/91 95/95/95
f 97/97/97 94/94/94 92/92/92
f 95/95/95 94/94/94 97/97/97
f 98/98/98 97/97/97 92/92/92
f 99/99/99 95/95/95 97/97/97
