g ID78inst
v -0.531795 0.160368 -0.332356
v -0.59377 0.115923 -0.33224
v -0.53291 0.1218085 -0.3325495
v -0.58866 0.159788 -0.3313565
v -0.580675 0.2230625 -0.329318
v -0.529795 0.223142 -0.331104
v -0.528325 0.2718365 -0.3281225
v -0.65421 0.1554015 -0.3290855
v -0.66393 0.1170315 -0.3303585
v -0.63643 0.221216 -0.3264505
v -0.62374 0.270579 -0.323346
v -0.57479 0.2717685 -0.326276
v -0.569945 0.3131845 -0.3209245
v -0.52711 0.3133875 -0.322341
v -0.613585 0.311782 -0.3185015
v -0.6034 0.35312 -0.310638
v -0.52589 0.3547325 -0.3126895
v -0.56507 0.3545905 -0.311955
v -0.6014 0.3614825 -0.30781
v -0.6012949 0.3619245 -0.3076605
v -0.56425 0.3612775 -0.309375
v -0.525715 0.360604 -0.3102295
v -0.4944595 0.1260825 -0.332688
v -0.531795 0.160368 -0.332356
v -0.53291 0.1218085 -0.3325495
v -0.4944595 0.1605595 -0.332688
v -0.4944595 0.2231695 -0.3317005
v -0.529795 0.223142 -0.331104
v -0.528325 0.2718365 -0.3281225
v -0.4701945 0.1605555 -0.3326215
v -0.4779495 0.127916 -0.3326545
v -0.4617195 0.2231845 -0.3315715
v -0.4617195 0.196191 -0.3320135
v -0.4553045 0.223192 -0.3315145
v -0.4944595 0.271861 -0.3287375
v -0.4944595 0.313455 -0.322812
v -0.52711 0.3133875 -0.322341
v -0.52589 0.3547325 -0.3126895
v -0.4617195 0.271916 -0.328649
v -0.443704 0.271988 -0.328541
v -0.4553045 0.223192 -0.3315145
v -0.4337945 0.313686 -0.3226645
v -0.4617195 0.3135335 -0.3227625
v -0.4944595 0.35478 -0.312935
v -0.4617195 0.3548225 -0.312839
v -0.4944595 0.3600585 -0.31062
v -0.525715 0.360604 -0.3102295
v -0.4617195 0.359487 -0.3107175
v -0.4239895 0.3549355 -0.3125845
v -0.4337945 0.313686 -0.3226645
v -0.65421 0.1554015 -0.3290855
v -0.72813 0.1180445 -0.3257635
v -0.66393 0.1170315 -0.3303585
v -0.717595 0.143784 -0.324937
v -0.73114 0.147255 -0.322823
v -0.686385 0.215889 -0.3226205
v -0.69089 0.2175205 -0.3217735
v -0.671975 0.25055 -0.320501
v -0.63643 0.221216 -0.3264505
v -0.66231 0.267417 -0.3197385
v -0.62374 0.270579 -0.323346
v -0.613585 0.311782 -0.3185015
v -0.638385 0.309192 -0.316026
v -0.6034 0.35312 -0.310638
v -0.614075 0.35163 -0.3099035
v -0.6014 0.3614825 -0.30781
vt 0 1
vt 0 1
vt 0 1
vt 0 1
vt 0 1
vt 0 1
vt 0 1
vt 0 1
vt 0 1
vt 0 1
vt 0 1
vt 0 1
vt 0 1
vt 0 1
vt 0 1
vt 0 1
vt 0 1
vt 0 1
vt 0 1
vt 0 1
vt 0 1
vt 0 1
vt 0 1
vt 0 1
vt 0 1
vt 0 1
vt 0 1
vt 0 1
vt 0 1
vt 0 1
vt 0 1
vt 0 1
vt 0 1
vt 0 1
vt 0 1
vt 0 1
vt 0 1
vt 0 1
vt 0 1
vt 0 1
vt 0 1
vt 0 1
vt 0 1
vt 0 1
vt 0 1
vt 0 1
vt 0 1
vt 0 1
vt 0 1
vt 0 1
vt 0 1
vt 0 1
vt 0 1
vt 0 1
vt 0 1
vt 0 1
vt 0 1
vt 0 1
vt 0 1
vt 0 1
vt 0 1
vt 0 1
vt 0 1
vt 0 1
vt 0 1
vt 0 1
vn -0.01427317 0.01572976 -0.9997744
vn -0.02161249 0.02290648 -0.999504
vn -0.009127445 0.008353761 -0.9999235
vn -0.02845776 0.02975017 -0.9991522
vn -0.04129878 0.05273987 -0.9977539
vn -0.02342121 0.04298014 -0.9988014
vn -0.02696398 0.1002866 -0.9945931
vn -0.05711156 0.04913712 -0.9971579
vn -0.05211665 0.04375239 -0.9976821
vn -0.06846336 0.06874264 -0.9952825
vn -0.07958408 0.1112308 -0.9906029
vn -0.04804712 0.1016637 -0.9936579
vn -0.04400726 0.1746936 -0.9836389
vn -0.02270845 0.1818233 -0.9830689
vn -0.08315091 0.1739656 -0.9812348
vn -0.07953528 0.2765833 -0.957693
vn -0.01515266 0.305726 -0.9519989
vn -0.03416518 0.287685 -0.9571155
vn -0.07677138 0.3435057 -0.9360075
vn -0.04148373 0.3443169 -0.9379365
vn -0.02895243 0.3589893 -0.9328926
vn -0.01130435 0.3836582 -0.923406
vn -0.001963628 0.001477623 -0.999997
vn -0.01427317 0.01572976 -0.9997744
vn -0.009127445 0.008353761 -0.9999235
vn -0.003340455 0.009268565 -0.9999515
vn -0.005926655 0.03891105 -0.9992251
vn -0.02342121 0.04298014 -0.9988014
vn -0.02696398 0.1002866 -0.9945931
vn 0.00291876 0.00813231 -0.9999627
vn 0.0024431 0.0002087912 -0.999997
vn 0.005515562 0.03808283 -0.9992593
vn 0.006129282 0.01621313 -0.9998498
vn 0.007707522 0.03797767 -0.9992488
vn -0.007212013 0.1005018 -0.9949108
vn -0.006036845 0.1860318 -0.9825251
vn -0.02270845 0.1818233 -0.9830689
vn -0.01515266 0.305726 -0.9519989
vn 0.003842434 0.100024 -0.9949775
vn 0.00515719 0.099544 -0.9950198
vn 0.007707522 0.03797767 -0.9992488
vn 0.004018215 0.1874301 -0.9822697
vn 0.002892538 0.1872229 -0.9823132
vn -0.003134825 0.317353 -0.9483023
vn 0.003557852 0.3238148 -0.9461138
vn -0.001463198 0.4006193 -0.9162434
vn -0.01130435 0.3836582 -0.923406
vn 0.004085635 0.4107369 -0.9117448
vn 0.004604685 0.3259918 -0.9453614
vn 0.004018215 0.1874301 -0.9822697
vn -0.05711156 0.04913712 -0.9971579
vn -0.1025601 0.07075179 -0.9922075
vn -0.05211665 0.04375239 -0.9976821
vn -0.1051924 0.07428184 -0.9916738
vn -0.1340425 0.08867547 -0.9870002
vn -0.1124486 0.09184007 -0.9894042
vn -0.1388239 0.1052862 -0.9847044
vn -0.1170495 0.1058482 -0.9874693
vn -0.06846336 0.06874264 -0.9952825
vn -0.100015 0.1191656 -0.9878242
vn -0.07958408 0.1112308 -0.9906029
vn -0.08315091 0.1739656 -0.9812348
vn -0.1098051 0.1770394 -0.9780593
vn -0.07953528 0.2765833 -0.957693
vn -0.1121925 0.2759429 -0.9546037
vn -0.07677138 0.3435057 -0.9360075
g ID78inst_0
f 3/3/3 2/2/2 1/1/1
f 2/2/2 4/4/4 1/1/1
f 1/1/1 4/4/4 5/5/5
f 6/6/6 1/1/1 5/5/5
f 6/6/6 5/5/5 7/7/7
f 8/8/8 4/4/4 2/2/2
f 5/5/5 4/4/4 8/8/8
f 9/9/9 8/8/8 2/2/2
f 10/10/10 5/5/5 8/8/8
f 10/10/10 11/11/11 5/5/5
f 5/5/5 12/12/12 7/7/7
f 11/11/11 12/12/12 5/5/5
f 7/7/7 12/12/12 13/13/13
f 13/13/13 12/12/12 11/11/11
f 14/14/14 7/7/7 13/13/13
f 15/15/15 13/13/13 11/11/11
f 15/15/15 16/16/16 13/13/13
f 14/14/14 13/13/13 17/17/17
f 16/16/16 18/18/18 13/13/13
f 13/13/13 18/18/18 17/17/17
f 18/18/18 16/16/16 19/19/19
f 18/18/18 19/19/19 20/20/20
f 20/20/20 21/21/21 18/18/18
f 17/17/17 18/18/18 21/21/21
f 22/22/22 17/17/17 21/21/21
f 25/25/25 24/24/24 23/23/23
f 24/24/24 26/26/26 23/23/23
f 27/27/27 26/26/26 24/24/24
f 28/28/28 27/27/27 24/24/24
f 28/28/28 29/29/29 27/27/27
f 23/23/23 26/26/26 30/30/30
f 30/30/30 26/26/26 27/27/27
f 31/31/31 23/23/23 30/30/30
f 30/30/30 27/27/27 32/32/32
f 32/32/32 33/33/33 30/30/30
f 33/33/33 32/32/32 34/34/34
f 29/29/29 35/35/35 27/27/27
f 36/36/36 35/35/35 29/29/29
f 37/37/37 36/36/36 29/29/29
f 37/37/37 38/38/38 36/36/36
f 27/27/27 35/35/35 39/39/39
f 32/32/32 27/27/27 39/39/39
f 39/39/39 35/35/35 36/36/36
f 32/32/32 39/39/39 40/40/40
f 41/41/41 32/32/32 40/40/40
f 42/42/42 40/40/40 39/39/39
f 43/43/43 42/42/42 39/39/39
f 43/43/43 39/39/39 36/36/36
f 38/38/38 44/44/44 36/36/36
f 43/43/43 36/36/36 45/45/45
f 36/36/36 44/44/44 45/45/45
f 46/46/46 44/44/44 38/38/38
f 45/45/45 44/44/44 46/46/46
f 47/47/47 46/46/46 38/38/38
f 48/48/48 45/45/45 46/46/46
f 48/48/48 49/49/49 45/45/45
f 43/43/43 45/45/45 49/49/49
f 50/50/50 43/43/43 49/49/49
f 53/53/53 52/52/52 51/51/51
f 52/52/52 54/54/54 51/51/51
f 55/55/55 54/54/54 52/52/52
f 51/51/51 54/54/54 56/56/56
f 56/56/56 54/54/54 55/55/55
f 57/57/57 56/56/56 55/55/55
f 57/57/57 58/58/58 56/56/56
f 59/59/59 51/51/51 56/56/56
f 56/56/56 58/58/58 60/60/60
f 59/59/59 56/56/56 60/60/60
f 60/60/60 61/61/61 59/59/59
f 62/62/62 61/61/61 60/60/60
f 63/63/63 62/62/62 60/60/60
f 62/62/62 63/63/63 64/64/64
f 63/63/63 65/65/65 64/64/64
f 66/66/66 64/64/64 65/65/65
