g ID79inst
v -0.4617195 0.2231845 0.3307945
v -0.4553045 0.223192 0.3307375
v -0.4617195 0.196191 0.331236
v -0.4944595 0.2231695 0.330923
v -0.4944595 0.271861 0.32796
v -0.4701945 0.1605555 0.3318435
v -0.4944595 0.1605595 0.3319105
v -0.4779495 0.127916 0.331877
v -0.4944595 0.1260825 0.3319105
v -0.53291 0.1218085 0.331772
v -0.531795 0.160368 0.3315785
v -0.529795 0.223142 0.330326
v -0.528325 0.2718365 0.327345
v -0.52711 0.3133875 0.321563
v -0.4617195 0.271916 0.3278715
v -0.4553045 0.223192 0.3307375
v -0.443704 0.271988 0.327763
v -0.4617195 0.3135335 0.321985
v -0.4337945 0.313686 0.321887
v -0.4944595 0.313455 0.3220345
v -0.4944595 0.35478 0.3121575
v -0.52589 0.3547325 0.311912
v -0.525715 0.360604 0.309452
v -0.4944595 0.3600585 0.3098425
v -0.4617195 0.359487 0.30994
v -0.4617195 0.3548225 0.3120615
v -0.4337945 0.313686 0.321887
v -0.4239895 0.3549355 0.311807
v -0.6034 0.35312 0.3098605
v -0.614075 0.35163 0.309126
v -0.6014 0.3614825 0.3070325
v -0.613585 0.311782 0.317724
v -0.638385 0.309192 0.3152485
v -0.62374 0.270579 0.3225685
v -0.66231 0.267417 0.318961
v -0.63643 0.221216 0.325673
v -0.686385 0.215889 0.321843
v -0.671975 0.25055 0.3197235
v -0.69089 0.2175205 0.320996
v -0.717595 0.143784 0.3241595
v -0.65421 0.1554015 0.328308
v -0.73114 0.147255 0.3220455
v -0.66393 0.1170315 0.329581
v -0.72813 0.1180445 0.324986
v -0.56507 0.3545905 0.3111775
v -0.525715 0.360604 0.309452
v -0.52589 0.3547325 0.311912
v -0.56425 0.3612775 0.3085975
v -0.6012949 0.3619245 0.306883
v -0.6014 0.3614825 0.3070325
v -0.6034 0.35312 0.3098605
v -0.52711 0.3133875 0.321563
v -0.613585 0.311782 0.317724
v -0.569945 0.3131845 0.320147
v -0.57479 0.2717685 0.3254985
v -0.528325 0.2718365 0.327345
v -0.62374 0.270579 0.3225685
v -0.529795 0.223142 0.330326
v -0.63643 0.221216 0.325673
v -0.580675 0.2230625 0.3285405
v -0.58866 0.159788 0.330579
v -0.531795 0.160368 0.3315785
v -0.65421 0.1554015 0.328308
v -0.53291 0.1218085 0.331772
v -0.66393 0.1170315 0.329581
v -0.59377 0.115923 0.3314625
vt 0 1
vt 0 1
vt 0 1
vt 0 1
vt 0 1
vt 0 1
vt 0 1
vt 0 1
vt 0 1
vt 0 1
vt 0 1
vt 0 1
vt 0 1
vt 0 1
vt 0 1
vt 0 1
vt 0 1
vt 0 1
vt 0 1
vt 0 1
vt 0 1
vt 0 1
vt 0 1
vt 0 1
vt 0 1
vt 0 1
vt 0 1
vt 0 1
vt 0 1
vt 0 1
vt 0 1
vt 0 1
vt 0 1
vt 0 1
vt 0 1
vt 0 1
vt 0 1
vt 0 1
vt 0 1
vt 0 1
vt 0 1
vt 0 1
vt 0 1
vt 0 1
vt 0 1
vt 0 1
vt 0 1
vt 0 1
vt 0 1
vt 0 1
vt 0 1
vt 0 1
vt 0 1
vt 0 1
vt 0 1
vt 0 1
vt 0 1
vt 0 1
vt 0 1
vt 0 1
vt 0 1
vt 0 1
vt 0 1
vt 0 1
vt 0 1
vt 0 1
vn 0.005520041 0.03808072 0.9992594
vn 0.00772028 0.03797545 0.9992488
vn 0.006131223 0.01619959 0.99985
vn -0.005932097 0.03890962 0.9992251
vn -0.007217541 0.1005032 0.9949105
vn 0.002925017 0.008131371 0.9999627
vn -0.003338859 0.009269195 0.9999515
vn 0.002455384 0.0002158901 0.999997
vn -0.001957177 0.001481378 0.999997
vn -0.009127043 0.008354319 0.9999235
vn -0.01427342 0.01573196 0.9997744
vn -0.0234222 0.04297908 0.9988014
vn -0.02696505 0.1002866 0.9945931
vn -0.02270956 0.1818236 0.9830689
vn 0.003848924 0.1000267 0.9949773
vn 0.00772028 0.03797545 0.9992488
vn 0.005173906 0.09954703 0.9950194
vn 0.002895624 0.1872208 0.9823136
vn 0.004024053 0.187426 0.9822704
vn -0.006040523 0.186032 0.9825251
vn -0.003136888 0.3173537 0.9483021
vn -0.01515323 0.3057238 0.9519997
vn -0.01130427 0.3836589 0.9234057
vn -0.00146338 0.4006231 0.9162418
vn 0.004085362 0.4107363 0.911745
vn 0.003557818 0.3238144 0.9461139
vn 0.004024053 0.187426 0.9822704
vn 0.004604466 0.3259895 0.9453622
vn -0.07953554 0.2765823 0.9576933
vn -0.1121925 0.275943 0.9546037
vn -0.07677177 0.3435034 0.9360083
vn -0.08315111 0.1739659 0.9812348
vn -0.1098055 0.1770397 0.9780592
vn -0.07958431 0.1112309 0.9906029
vn -0.1000157 0.1191657 0.9878241
vn -0.0684635 0.06874267 0.9952825
vn -0.1124486 0.09183998 0.9894043
vn -0.1170499 0.1058482 0.9874692
vn -0.1388233 0.105286 0.9847045
vn -0.1051916 0.07428215 0.9916738
vn -0.0571116 0.04913771 0.9971578
vn -0.1340411 0.0886754 0.9870004
vn -0.05211667 0.04375352 0.9976821
vn -0.1025591 0.07075258 0.9922075
vn -0.03416387 0.2876817 0.9571165
vn -0.01130427 0.3836589 0.9234057
vn -0.01515323 0.3057238 0.9519997
vn -0.02895257 0.3589851 0.9328941
vn -0.04148451 0.3443122 0.9379382
vn -0.07677177 0.3435034 0.9360083
vn -0.07953554 0.2765823 0.9576933
vn -0.02270956 0.1818236 0.9830689
vn -0.08315111 0.1739659 0.9812348
vn -0.04400455 0.1746937 0.983639
vn -0.04804437 0.1016634 0.993658
vn -0.02696505 0.1002866 0.9945931
vn -0.07958431 0.1112309 0.9906029
vn -0.0234222 0.04297908 0.9988014
vn -0.0684635 0.06874267 0.9952825
vn -0.04129617 0.05273928 0.997754
vn -0.02845661 0.02975151 0.9991522
vn -0.01427342 0.01573196 0.9997744
vn -0.0571116 0.04913771 0.9971578
vn -0.009127043 0.008354319 0.9999235
vn -0.05211667 0.04375352 0.9976821
vn -0.02161257 0.02290724 0.999504
g ID79inst_0
f 3/3/3 2/2/2 1/1/1
f 3/3/3 1/1/1 4/4/4
f 4/4/4 1/1/1 5/5/5
f 4/4/4 6/6/6 3/3/3
f 4/4/4 7/7/7 6/6/6
f 8/8/8 6/6/6 7/7/7
f 9/9/9 8/8/8 7/7/7
f 10/10/10 9/9/9 7/7/7
f 11/11/11 10/10/10 7/7/7
f 12/12/12 11/11/11 7/7/7
f 4/4/4 12/12/12 7/7/7
f 12/12/12 4/4/4 5/5/5
f 13/13/13 12/12/12 5/5/5
f 14/14/14 13/13/13 5/5/5
f 1/1/1 15/15/15 5/5/5
f 1/1/1 16/16/16 15/15/15
f 16/16/16 17/17/17 15/15/15
f 18/18/18 15/15/15 17/17/17
f 15/15/15 18/18/18 5/5/5
f 19/19/19 18/18/18 17/17/17
f 20/20/20 14/14/14 5/5/5
f 18/18/18 20/20/20 5/5/5
f 14/14/14 20/20/20 21/21/21
f 20/20/20 18/18/18 21/21/21
f 22/22/22 14/14/14 21/21/21
f 23/23/23 22/22/22 21/21/21
f 24/24/24 23/23/23 21/21/21
f 25/25/25 24/24/24 21/21/21
f 18/18/18 26/26/26 21/21/21
f 26/26/26 25/25/25 21/21/21
f 18/18/18 27/27/27 26/26/26
f 25/25/25 26/26/26 28/28/28
f 27/27/27 28/28/28 26/26/26
f 31/31/31 30/30/30 29/29/29
f 32/32/32 29/29/29 30/30/30
f 33/33/33 32/32/32 30/30/30
f 32/32/32 33/33/33 34/34/34
f 33/33/33 35/35/35 34/34/34
f 36/36/36 34/34/34 35/35/35
f 35/35/35 37/37/37 36/36/36
f 35/35/35 38/38/38 37/37/37
f 39/39/39 37/37/37 38/38/38
f 36/36/36 37/37/37 40/40/40
f 37/37/37 39/39/39 40/40/40
f 41/41/41 36/36/36 40/40/40
f 39/39/39 42/42/42 40/40/40
f 43/43/43 41/41/41 40/40/40
f 42/42/42 44/44/44 40/40/40
f 44/44/44 43/43/43 40/40/40
f 47/47/47 46/46/46 45/45/45
f 46/46/46 48/48/48 45/45/45
f 45/45/45 48/48/48 49/49/49
f 49/49/49 50/50/50 45/45/45
f 50/50/50 51/51/51 45/45/45
f 52/52/52 47/47/47 45/45/45
f 51/51/51 53/53/53 45/45/45
f 54/54/54 52/52/52 45/45/45
f 53/53/53 54/54/54 45/45/45
f 52/52/52 54/54/54 55/55/55
f 54/54/54 53/53/53 55/55/55
f 56/56/56 52/52/52 55/55/55
f 53/53/53 57/57/57 55/55/55
f 58/58/58 56/56/56 55/55/55
f 57/57/57 59/59/59 55/55/55
f 60/60/60 58/58/58 55/55/55
f 59/59/59 60/60/60 55/55/55
f 58/58/58 60/60/60 61/61/61
f 60/60/60 59/59/59 61/61/61
f 62/62/62 58/58/58 61/61/61
f 59/59/59 63/63/63 61/61/61
f 64/64/64 62/62/62 61/61/61
f 63/63/63 65/65/65 61/61/61
f 66/66/66 64/64/64 61/61/61
f 65/65/65 66/66/66 61/61/61
