g ID81inst
v -1.260325 -0.0173222 -0.2444605
v -1.218505 -0.050891 -0.2512705
v -1.218485 -0.0183682 -0.266508
v -1.260325 -0.04466625 -0.232961
v -1.260325 -0.072256 -0.19532
v -1.299305 -0.0163447 -0.2173915
v -1.299305 -0.0388352 -0.2081955
v -1.332105 -0.0155227 -0.189776
v -1.332105 -0.0335692 -0.1821275
v -1.332105 -0.054591 -0.1517465
v -1.355375 -0.0149377 -0.166211
v -1.355375 -0.0290562 -0.1599075
v -1.37355 -0.0144812 -0.138899
v -1.299305 -0.063306 -0.174071
v -1.299305 -0.081821 -0.130575
v -1.37355 -0.0243697 -0.134368
v -1.37355 -0.0393152 -0.1109395
v -1.39108 -0.0140472 -0.1002505
v -1.39108 -0.0185872 -0.0983385
v -1.401875 -0.0137732 -0.0712135
v -1.396845 -0.0254887 -0.0712135
v -1.39108 -0.0293712 -0.0826405
v -1.39108 -0.0340122 -0.0712135
v -1.355375 -0.0471562 -0.132339
v -1.37355 -0.050691 -0.081669
v -1.37355 -0.053306 -0.0712135
v -1.355375 -0.067586 -0.0712135
v -1.355375 -0.060921 -0.0977815
v -1.332105 -0.070541 -0.1132465
v -1.332105 -0.079236 -0.0787605
v -1.332105 -0.08036599 -0.0712135
v -1.299305 -0.094711 -0.0712135
v -1.299305 -0.09176599 -0.09108599
v -1.260325 -0.104401 -0.1030445
v -1.260325 -0.109111 -0.0712135
v -1.218505 -0.121771 -0.0712135
v -1.260325 -0.093216 -0.147285
v -1.218505 -0.103181 -0.160895
v -1.218505 -0.115456 -0.11308
v -1.18239 -0.130881 -0.0742055
v -1.18239 -0.131341 -0.0712135
v -1.18239 -0.123801 -0.1202
v -1.18239 -0.110731 -0.1704075
v -1.18239 -0.086681 -0.2224095
v -1.218505 -0.08037099 -0.2115045
v -1.18239 -0.056281 -0.2634715
v -1.18239 -0.0241327 -0.2808565
v -1.218485 -0.0183682 -0.266508
v -1.182245 -0.0192772 -0.2801455
v -1.06841 -0.107991 -0.2403855
v -1.03049 -0.086591 -0.2868375
v -1.06841 -0.07931099 -0.283589
v -1.01549 -0.117656 -0.244965
v -1.01549 -0.141246 -0.1902675
v -1.06841 -0.131966 -0.1858665
v -1.16059 -0.136426 -0.0712135
v -1.18239 -0.130881 -0.0742055
v -1.18239 -0.131341 -0.0712135
v -1.16059 -0.135651 -0.07620149
v -1.14061 -0.140206 -0.0712135
v -1.18239 -0.123801 -0.1202
v -1.14061 -0.139266 -0.0773375
v -1.14061 -0.131901 -0.125243
v -1.109985 -0.145861 -0.0712135
v -1.109985 -0.144696 -0.07917999
v -1.06841 -0.152921 -0.0712135
v -1.06841 -0.151561 -0.08135149
v -1.06841 -0.144791 -0.1317045
v -1.16059 -0.128306 -0.123414
v -1.16059 -0.114846 -0.174825
v -1.18239 -0.110731 -0.1704075
v -1.14061 -0.118391 -0.1773825
v -1.109985 -0.124226 -0.1813165
v -1.06841 -0.131966 -0.1858665
v -1.109985 -0.137506 -0.1282085
v -1.01549 -0.160921 -0.0712135
v -1.06841 -0.151561 -0.08135149
v -1.06841 -0.152921 -0.0712135
v -1.01549 -0.159481 -0.0834745
v -1.06841 -0.144791 -0.1317045
v -1.01549 -0.153431 -0.1351225
v -1.01549 -0.141246 -0.1902675
v -1.06841 -0.131966 -0.1858665
v -1.063865 -0.0222412 -0.3110795
v -1.06841 -0.0221272 -0.3104485
v -1.06841 -0.0275217 -0.310093
v -1.060215 -0.0292527 -0.3109805
v -1.06841 -0.052351 -0.303795
v -1.04578 -0.057111 -0.305872
v -1.06841 -0.07931099 -0.283589
v -1.03049 -0.086591 -0.2868375
v -1.06841 -0.0275217 -0.310093
v -1.06841 -0.0221272 -0.3104485
v -1.11001 -0.0210857 -0.302442
v -1.06841 -0.052351 -0.303795
v -1.109985 -0.0419312 -0.298492
v -1.14061 -0.0334962 -0.2932455
v -1.14054 -0.0203182 -0.294439
v -1.16041 -0.0198252 -0.2882335
v -1.109985 -0.070336 -0.278632
v -1.06841 -0.07931099 -0.283589
v -1.14061 -0.063466 -0.2738685
v -1.16059 -0.059631 -0.269909
v -1.16059 -0.0283302 -0.288559
v -1.18239 -0.0241327 -0.2808565
v -1.182245 -0.0192772 -0.2801455
v -1.18239 -0.056281 -0.2634715
v -1.06841 -0.107991 -0.2403855
v -1.109985 -0.124226 -0.1813165
v -1.06841 -0.131966 -0.1858665
v -1.109985 -0.09980099 -0.2355165
v -1.14061 -0.093676 -0.231086
v -1.14061 -0.118391 -0.1773825
v -1.16059 -0.114846 -0.174825
v -1.109985 -0.070336 -0.278632
v -1.06841 -0.07931099 -0.283589
v -1.14061 -0.063466 -0.2738685
v -1.16059 -0.059631 -0.269909
v -1.16059 -0.090211 -0.227827
v -1.18239 -0.086681 -0.2224095
v -1.18239 -0.110731 -0.1704075
v -1.18239 -0.056281 -0.2634715
vt 0 1
vt 0 1
vt 0 1
vt 0 1
vt 0 1
vt 0 1
vt 0 1
vt 0 1
vt 0 1
vt 0 1
vt 0 1
vt 0 1
vt 0 1
vt 0 1
vt 0 1
vt 0 1
vt 0 1
vt 0 1
vt 0 1
vt 0 1
vt 0 1
vt 0 1
vt 0 1
vt 0 1
vt 0 1
vt 0 1
vt 0 1
vt 0 1
vt 0 1
vt 0 1
vt 0 1
vt 0 1
vt 0 1
vt 0 1
vt 0 1
vt 0 1
vt 0 1
vt 0 1
vt 0 1
vt 0 1
vt 0 1
vt 0 1
vt 0 1
vt 0 1
vt 0 1
vt 0 1
vt 0 1
vt 0 1
vt 0 1
vt 0 1
vt 0 1
vt 0 1
vt 0 1
vt 0 1
vt 0 1
vt 0 1
vt 0 1
vt 0 1
vt 0 1
vt 0 1
vt 0 1
vt 0 1
vt 0 1
vt 0 1
vt 0 1
vt 0 1
vt 0 1
vt 0 1
vt 0 1
vt 0 1
vt 0 1
vt 0 1
vt 0 1
vt 0 1
vt 0 1
vt 0 1
vt 0 1
vt 0 1
vt 0 1
vt 0 1
vt 0 1
vt 0 1
vt 0 1
vt 0 1
vt 0 1
vt 0 1
vt 0 1
vt 0 1
vt 0 1
vt 0 1
vt 0 1
vt 0 1
vt 0 1
vt 0 1
vt 0 1
vt 0 1
vt 0 1
vt 0 1
vt 0 1
vt 0 1
vt 0 1
vt 0 1
vt 0 1
vt 0 1
vt 0 1
vt 0 1
vt 0 1
vt 0 1
vt 0 1
vt 0 1
vt 0 1
vt 0 1
vt 0 1
vt 0 1
vt 0 1
vt 0 1
vt 0 1
vt 0 1
vt 0 1
vt 0 1
vt 0 1
vt 0 1
vn -0.4877029 -0.3457685 -0.8016171
vn -0.3757034 -0.5918675 -0.7131198
vn -0.3953241 -0.2211891 -0.8915125
vn -0.4586218 -0.5586415 -0.6910757
vn -0.3837624 -0.8009409 -0.4595868
vn -0.5826856 -0.3117687 -0.7505183
vn -0.5477594 -0.5277582 -0.6491771
vn -0.6545469 -0.2952797 -0.695973
vn -0.617992 -0.5056249 -0.602021
vn -0.5230234 -0.7495297 -0.4057729
vn -0.7521565 -0.2661888 -0.6028301
vn -0.714745 -0.4625739 -0.5245616
vn -0.8561324 -0.2117645 -0.4713735
vn -0.4567225 -0.7763367 -0.434403
vn -0.4105937 -0.864343 -0.2903859
vn -0.82177 -0.3846647 -0.4203892
vn -0.729987 -0.6089195 -0.3103805
vn -0.9126315 -0.1630278 -0.3748676
vn -0.8877872 -0.3063163 -0.3435175
vn -0.9083714 -0.2720785 -0.3175447
vn -0.843726 -0.4723702 -0.2549371
vn -0.8129067 -0.5159665 -0.2701136
vn -0.7620693 -0.6120204 -0.2113796
vn -0.6182654 -0.6971179 -0.3630078
vn -0.6835761 -0.695261 -0.2221166
vn -0.6702757 -0.7198871 -0.1802581
vn -0.5264718 -0.8310829 -0.1792447
vn -0.5695986 -0.7821217 -0.2526726
vn -0.4756902 -0.8353455 -0.2755299
vn -0.4472058 -0.8771105 -0.1751687
vn -0.4376958 -0.8892847 -0.1326465
vn -0.3704193 -0.9188114 -0.1362903
vn -0.3812633 -0.9066024 -0.1808601
vn -0.3231573 -0.9278713 -0.1860757
vn -0.3146608 -0.9388625 -0.1397348
vn -0.2636125 -0.9536834 -0.1449014
vn -0.3468042 -0.8873472 -0.3038777
vn -0.2921288 -0.902627 -0.3161095
vn -0.2747979 -0.9422389 -0.191499
vn -0.2380898 -0.9599367 -0.1477662
vn -0.2389561 -0.9596802 -0.1480335
vn -0.2415582 -0.9504098 -0.1958849
vn -0.2552215 -0.910716 -0.3247435
vn -0.2785254 -0.8272946 -0.4878597
vn -0.3184322 -0.8182809 -0.4785576
vn -0.3317074 -0.6195667 -0.7114123
vn -0.3627868 -0.1707772 -0.91609
vn -0.3953241 -0.2211891 -0.8915125
vn -0.3384824 0.113587 -0.9340919
vn -0.2107846 -0.8572971 -0.4696932
vn -0.1957297 -0.7161171 -0.6699747
vn -0.2149038 -0.7076892 -0.6730471
vn -0.1973621 -0.8618271 -0.4672284
vn -0.1871969 -0.9331647 -0.3068566
vn -0.1966516 -0.9297317 -0.3113315
vn -0.2043075 -0.9674217 -0.1495122
vn -0.2380898 -0.9599367 -0.1477662
vn -0.2389561 -0.9596802 -0.1480335
vn -0.2044442 -0.9673818 -0.1495829
vn -0.1822301 -0.9721105 -0.1476258
vn -0.2415582 -0.9504098 -0.1958849
vn -0.1843208 -0.9716862 -0.1478235
vn -0.1937088 -0.9611983 -0.1964045
vn -0.1737638 -0.9746753 -0.1407629
vn -0.1773203 -0.9739867 -0.1410929
vn -0.1585664 -0.9788294 -0.1294208
vn -0.1630248 -0.9780558 -0.1297289
vn -0.1772821 -0.9679123 -0.1780927
vn -0.2090397 -0.9575818 -0.1983421
vn -0.2226841 -0.9177125 -0.3289615
vn -0.2552215 -0.910716 -0.3247435
vn -0.2119022 -0.9210395 -0.3267775
vn -0.2115913 -0.9235692 -0.3197642
vn -0.1966516 -0.9297317 -0.3113315
vn -0.1904367 -0.9632754 -0.1892996
vn -0.1500248 -0.9810467 -0.1226364
vn -0.1630248 -0.9780558 -0.1297289
vn -0.1585664 -0.9788294 -0.1294208
vn -0.1548611 -0.9802656 -0.1228715
vn -0.1772821 -0.9679123 -0.1780927
vn -0.1693626 -0.9705183 -0.1714949
vn -0.1871969 -0.9331647 -0.3068566
vn -0.1966516 -0.9297317 -0.3113315
vn -0.1285988 -0.0740644 -0.9889271
vn -0.159458 -0.0693464 -0.9847661
vn -0.1645261 -0.1507012 -0.9747925
vn -0.1369105 -0.1611337 -0.9773901
vn -0.1923746 -0.4149732 -0.8892633
vn -0.1688444 -0.4290043 -0.887382
vn -0.2149038 -0.7076892 -0.6730471
vn -0.1957297 -0.7161171 -0.6699747
vn -0.1645261 -0.1507012 -0.9747925
vn -0.159458 -0.0693464 -0.9847661
vn -0.204812 -0.1418461 -0.9684687
vn -0.1923746 -0.4149732 -0.8892633
vn -0.2347631 -0.375325 -0.8966702
vn -0.2708281 -0.3145134 -0.9097986
vn -0.249662 -0.0904563 -0.9640988
vn -0.3004462 0.02282067 -0.9535257
vn -0.2483239 -0.6882344 -0.6816661
vn -0.2149038 -0.7076892 -0.6730471
vn -0.2676764 -0.6678609 -0.6944862
vn -0.2951418 -0.6455013 -0.7044283
vn -0.3202469 -0.2394418 -0.9165749
vn -0.3627868 -0.1707772 -0.91609
vn -0.3384824 0.113587 -0.9340919
vn -0.3317074 -0.6195667 -0.7114123
vn -0.2107846 -0.8572971 -0.4696932
vn -0.2115913 -0.9235692 -0.3197642
vn -0.1966516 -0.9297317 -0.3113315
vn -0.232474 -0.848209 -0.4759174
vn -0.2361564 -0.8422966 -0.4845271
vn -0.2119022 -0.9210395 -0.3267775
vn -0.2226841 -0.9177125 -0.3289615
vn -0.2483239 -0.6882344 -0.6816661
vn -0.2149038 -0.7076892 -0.6730471
vn -0.2676764 -0.6678609 -0.6944862
vn -0.2951418 -0.6455013 -0.7044283
vn -0.2471553 -0.836024 -0.4898756
vn -0.2785254 -0.8272946 -0.4878597
vn -0.2552215 -0.910716 -0.3247435
vn -0.3317074 -0.6195667 -0.7114123
g ID81inst_0
f 3/3/3 2/2/2 1/1/1
f 2/2/2 4/4/4 1/1/1
f 4/4/4 2/2/2 5/5/5
f 1/1/1 4/4/4 6/6/6
f 4/4/4 7/7/7 6/6/6
f 4/4/4 5/5/5 7/7/7
f 8/8/8 6/6/6 7/7/7
f 9/9/9 8/8/8 7/7/7
f 9/9/9 7/7/7 10/10/10
f 8/8/8 9/9/9 11/11/11
f 9/9/9 12/12/12 11/11/11
f 9/9/9 10/10/10 12/12/12
f 13/13/13 11/11/11 12/12/12
f 5/5/5 14/14/14 7/7/7
f 7/7/7 14/14/14 10/10/10
f 15/15/15 14/14/14 5/5/5
f 10/10/10 14/14/14 15/15/15
f 16/16/16 13/13/13 12/12/12
f 16/16/16 12/12/12 17/17/17
f 13/13/13 16/16/16 18/18/18
f 16/16/16 19/19/19 18/18/18
f 16/16/16 17/17/17 19/19/19
f 20/20/20 18/18/18 19/19/19
f 20/20/20 19/19/19 21/21/21
f 19/19/19 22/22/22 21/21/21
f 17/17/17 22/22/22 19/19/19
f 21/21/21 22/22/22 23/23/23
f 23/23/23 22/22/22 17/17/17
f 10/10/10 24/24/24 12/12/12
f 12/12/12 24/24/24 17/17/17
f 25/25/25 23/23/23 17/17/17
f 23/23/23 25/25/25 26/26/26
f 26/26/26 25/25/25 27/27/27
f 17/17/17 24/24/24 28/28/28
f 25/25/25 17/17/17 28/28/28
f 28/28/28 24/24/24 10/10/10
f 25/25/25 28/28/28 27/27/27
f 29/29/29 28/28/28 10/10/10
f 29/29/29 10/10/10 15/15/15
f 30/30/30 27/27/27 28/28/28
f 29/29/29 30/30/30 28/28/28
f 29/29/29 15/15/15 30/30/30
f 31/31/31 27/27/27 30/30/30
f 31/31/31 30/30/30 32/32/32
f 30/30/30 33/33/33 32/32/32
f 15/15/15 33/33/33 30/30/30
f 32/32/32 33/33/33 34/34/34
f 34/34/34 33/33/33 15/15/15
f 35/35/35 32/32/32 34/34/34
f 35/35/35 34/34/34 36/36/36
f 37/37/37 34/34/34 15/15/15
f 37/37/37 38/38/38 34/34/34
f 37/37/37 15/15/15 5/5/5
f 37/37/37 5/5/5 38/38/38
f 34/34/34 39/39/39 36/36/36
f 38/38/38 39/39/39 34/34/34
f 36/36/36 39/39/39 40/40/40
f 36/36/36 40/40/40 41/41/41
f 39/39/39 42/42/42 40/40/40
f 42/42/42 39/39/39 38/38/38
f 43/43/43 42/42/42 38/38/38
f 43/43/43 38/38/38 44/44/44
f 5/5/5 45/45/45 38/38/38
f 38/38/38 45/45/45 44/44/44
f 2/2/2 45/45/45 5/5/5
f 44/44/44 45/45/45 2/2/2
f 46/46/46 44/44/44 2/2/2
f 46/46/46 2/2/2 47/47/47
f 2/2/2 48/48/48 47/47/47
f 48/48/48 49/49/49 47/47/47
f 52/52/52 51/51/51 50/50/50
f 51/51/51 53/53/53 50/50/50
f 50/50/50 53/53/53 54/54/54
f 55/55/55 50/50/50 54/54/54
f 58/58/58 57/57/57 56/56/56
f 57/57/57 59/59/59 56/56/56
f 60/60/60 56/56/56 59/59/59
f 57/57/57 61/61/61 59/59/59
f 62/62/62 60/60/60 59/59/59
f 62/62/62 59/59/59 63/63/63
f 60/60/60 62/62/62 64/64/64
f 62/62/62 65/65/65 64/64/64
f 62/62/62 63/63/63 65/65/65
f 66/66/66 64/64/64 65/65/65
f 67/67/67 66/66/66 65/65/65
f 67/67/67 65/65/65 68/68/68
f 61/61/61 69/69/69 59/59/59
f 59/59/59 69/69/69 63/63/63
f 70/70/70 69/69/69 61/61/61
f 63/63/63 69/69/69 70/70/70
f 71/71/71 70/70/70 61/61/61
f 72/72/72 63/63/63 70/70/70
f 72/72/72 73/73/73 63/63/63
f 74/74/74 68/68/68 73/73/73
f 63/63/63 75/75/75 65/65/65
f 73/73/73 75/75/75 63/63/63
f 65/65/65 75/75/75 68/68/68
f 68/68/68 75/75/75 73/73/73
f 78/78/78 77/77/77 76/76/76
f 77/77/77 79/79/79 76/76/76
f 77/77/77 80/80/80 79/79/79
f 80/80/80 81/81/81 79/79/79
f 82/82/82 81/81/81 80/80/80
f 83/83/83 82/82/82 80/80/80
f 86/86/86 85/85/85 84/84/84
f 87/87/87 86/86/86 84/84/84
f 86/86/86 87/87/87 88/88/88
f 87/87/87 89/89/89 88/88/88
f 90/90/90 88/88/88 89/89/89
f 91/91/91 90/90/90 89/89/89
f 94/94/94 93/93/93 92/92/92
f 92/92/92 95/95/95 94/94/94
f 95/95/95 96/96/96 94/94/94
f 94/94/94 96/96/96 97/97/97
f 98/98/98 94/94/94 97/97/97
f 98/98/98 97/97/97 99/99/99
f 100/100/100 96/96/96 95/95/95
f 97/97/97 96/96/96 100/100/100
f 101/101/101 100/100/100 95/95/95
f 102/102/102 97/97/97 100/100/100
f 102/102/102 103/103/103 97/97/97
f 97/97/97 104/104/104 99/99/99
f 103/103/103 104/104/104 97/97/97
f 99/99/99 104/104/104 105/105/105
f 105/105/105 104/104/104 103/103/103
f 106/106/106 99/99/99 105/105/105
f 107/107/107 105/105/105 103/103/103
f 110/110/110 109/109/109 108/108/108
f 109/109/109 111/111/111 108/108/108
f 112/112/112 111/111/111 109/109/109
f 113/113/113 112/112/112 109/109/109
f 113/113/113 114/114/114 112/112/112
f 108/108/108 111/111/111 115/115/115
f 115/115/115 111/111/111 112/112/112
f 116/116/116 108/108/108 115/115/115
f 117/117/117 115/115/115 112/112/112
f 117/117/117 112/112/112 118/118/118
f 114/114/114 119/119/119 112/112/112
f 112/112/112 119/119/119 118/118/118
f 120/120/120 119/119/119 114/114/114
f 118/118/118 119/119/119 120/120/120
f 121/121/121 120/120/120 114/114/114
f 122/122/122 118/118/118 120/120/120
