g ID84inst
v -0.7120299 0.4314625 -0.01013575
v -0.681795 0.4308455 -0.0225328
v -0.68315 0.4304405 -0.01013575
v -0.710675 0.4312195 -0.0281026
v -0.73518 0.4327095 -0.0101356
v -0.70411 0.4306985 -0.059154
v -0.718185 0.4310715 -0.0861975
v -0.67851 0.430896 -0.04848125
v -0.67506 0.43063 -0.0777035
v -0.7302449 0.432026 -0.0446447
v -0.76004 0.430643 -0.01013575
v -0.688915 0.429942 -0.092657
v -0.67242 0.431739 -0.106134
v -0.667875 0.4324755 -0.133945
v -0.753475 0.4300055 -0.061173
v -0.753475 0.4300055 -0.061173
v -0.79158 0.423677 -0.01013575
v -0.734955 0.4288175 -0.1270545
v -0.773775 0.4193585 -0.12893
v -0.69786 0.4295255 -0.1485195
v -0.72582 0.424167 -0.1789325
v -0.695265 0.4300445 -0.1181235
v -0.663675 0.4326995 -0.156677
v -0.66138 0.4323 -0.1815735
v -0.786405 0.422581 -0.066691
v -0.83198 0.403497 -0.066807
v -0.8373749 0.4049465 -0.01013575
v -0.8187599 0.3994835 -0.129278
v -0.80519 0.3944565 -0.179633
v -0.879015 0.362082 -0.129815
v -0.83198 0.403497 -0.066807
v -0.69387 0.427927 -0.1811725
v -0.686395 0.424304 -0.2144315
v -0.65717 0.430178 -0.210057
v -0.65119 0.4248825 -0.2412505
v -0.760845 0.4149935 -0.1788225
v -0.748565 0.408067 -0.2193925
v -0.715315 0.418479 -0.2173045
v -0.706085 0.409229 -0.2508845
v -0.67851 0.4177115 -0.2466515
v -0.64496 0.4138285 -0.269474
v -0.670795 0.402837 -0.274129
v -0.66383 0.3743695 -0.293166
v -0.68886 0.3484255 -0.2973475
v -0.639985 0.394433 -0.28905
v -0.660485 0.36672 -0.2967255
v -0.6816 0.3301275 -0.303675
v -0.7035499 0.2920915 -0.309085
v -0.697485 0.3885125 -0.278094
v -0.72737 0.3717105 -0.281007
v -0.71565 0.3211515 -0.3007965
v -0.732655 0.2416585 -0.3131105
v -0.75123 0.2826715 -0.3031815
v -0.737875 0.397161 -0.253662
v -0.77987 0.375058 -0.255164
v -0.8026499 0.2231115 -0.3041665
v -0.8224999 0.3010675 -0.2833475
v -0.861905 0.164766 -0.302922
v -0.775375 0.167622 -0.315631
v -0.824965 0.081708 -0.318355
v -0.76689 0.3450295 -0.2827855
v -0.792005 0.38684 -0.220665
v -0.851505 0.348569 -0.221094
v -0.83802 0.3364715 -0.255573
v -0.901385 0.28971 -0.254446
v -0.884245 0.2514935 -0.281697
v -0.942195 0.207975 -0.2768485
v -0.865145 0.3566055 -0.180155
v -0.929265 0.310115 -0.180589
v -0.91562 0.3017925 -0.2208475
v -0.97294 0.2550495 -0.2200925
v -0.9589099 0.2430835 -0.251336
v -1.01228 0.1933985 -0.245642
v -0.9209949 0.1299315 -0.2986165
v -0.902065 0.04271925 -0.3170435
v -0.845705 0.0457928 -0.3222125
v -0.824965 0.081708 -0.318355
v -0.978335 0.1069615 -0.2903425
v -0.963995 0.0474978 -0.3074665
v -0.902065 0.04271925 -0.3170435
v -1.024945 0.0576905 -0.2890745
v -0.996365 0.165355 -0.268986
v -1.046805 0.1184745 -0.258289
v -1.03235 0.084214 -0.2771875
v -1.06196 0.068533 -0.2720335
v -1.086265 0.07936399 -0.2530745
v -1.106115 0.089352 -0.231141
v -1.063155 0.137459 -0.236765
v -1.079745 0.1482645 -0.2093275
v -1.12554 0.09948349 -0.2030225
v -1.02662 0.20499 -0.2168955
v -1.039935 0.214024 -0.179325
v -1.094975 0.1579875 -0.1726895
v -1.143625 0.109083 -0.165868
v -1.108145 0.166828 -0.125114
v -1.156315 0.119461 -0.1189315
v -0.98611 0.2636595 -0.181135
v -0.999405 0.2700745 -0.13152
v -1.052845 0.221342 -0.130455
v -1.118585 0.174986 -0.0648645
v -1.16495 0.12746 -0.061114
v -1.167145 0.1305575 -0.0101357
v -1.12232 0.178199 -0.0101357
v -1.065935 0.227785 -0.0678105
v -1.071425 0.2302745 -0.01013555
v -1.065935 0.227785 -0.0678105
v -0.9430549 0.315997 -0.1305565
v -0.9577299 0.320757 -0.0676385
v -0.9577299 0.320757 -0.0676385
v -1.01384 0.275447 -0.0683
v -1.020065 0.277462 -0.0101357
v -1.071425 0.2302745 -0.01013555
v -0.963995 0.3224985 -0.01013575
v -0.8931 0.3664985 -0.067132
v -0.898975 0.368107 -0.01013575
v -0.963995 0.3224985 -0.01013575
v -0.8373749 0.4049465 -0.01013575
vt 0 1
vt 0 1
vt 0 1
vt 0 1
vt 0 1
vt 0 1
vt 0 1
vt 0 1
vt 0 1
vt 0 1
vt 0 1
vt 0 1
vt 0 1
vt 0 1
vt 0 1
vt 0 1
vt 0 1
vt 0 1
vt 0 1
vt 0 1
vt 0 1
vt 0 1
vt 0 1
vt 0 1
vt 0 1
vt 0 1
vt 0 1
vt 0 1
vt 0 1
vt 0 1
vt 0 1
vt 0 1
vt 0 1
vt 0 1
vt 0 1
vt 0 1
vt 0 1
vt 0 1
vt 0 1
vt 0 1
vt 0 1
vt 0 1
vt 0 1
vt 0 1
vt 0 1
vt 0 1
vt 0 1
vt 0 1
vt 0 1
vt 0 1
vt 0 1
vt 0 1
vt 0 1
vt 0 1
vt 0 1
vt 0 1
vt 0 1
vt 0 1
vt 0 1
vt 0 1
vt 0 1
vt 0 1
vt 0 1
vt 0 1
vt 0 1
vt 0 1
vt 0 1
vt 0 1
vt 0 1
vt 0 1
vt 0 1
vt 0 1
vt 0 1
vt 0 1
vt 0 1
vt 0 1
vt 0 1
vt 0 1
vt 0 1
vt 0 1
vt 0 1
vt 0 1
vt 0 1
vt 0 1
vt 0 1
vt 0 1
vt 0 1
vt 0 1
vt 0 1
vt 0 1
vt 0 1
vt 0 1
vt 0 1
vt 0 1
vt 0 1
vt 0 1
vt 0 1
vt 0 1
vt 0 1
vt 0 1
vt 0 1
vt 0 1
vt 0 1
vt 0 1
vt 0 1
vt 0 1
vt 0 1
vt 0 1
vt 0 1
vt 0 1
vt 0 1
vt 0 1
vt 0 1
vt 0 1
vt 0 1
vt 0 1
vt 0 1
vn 0.0379247 0.9992787 -0.001962024
vn 0.01443438 0.9998958 5.492731E-05
vn 0.02344544 0.9996976 0.007426288
vn 0.03182701 0.9994813 -0.004934406
vn -0.01178565 0.9997591 -0.01851245
vn 0.01972079 0.9997541 -0.01013805
vn 0.00108923 0.9997882 -0.02055292
vn -0.002257533 0.9999093 -0.01328409
vn -0.04654915 0.9988983 0.005950196
vn -0.008249835 0.9997596 -0.02031559
vn -0.1455648 0.9888166 -0.03244411
vn -0.03487166 0.9993723 0.006242368
vn -0.08334786 0.9962111 0.02483175
vn -0.08876037 0.99604 0.005080177
vn -0.141848 0.9887735 -0.04697052
vn -0.141848 0.9887735 -0.04697052
vn -0.2992809 0.95296 -0.04794
vn -0.1270661 0.9889507 -0.07635962
vn -0.3146409 0.9391733 -0.1376756
vn -0.08263125 0.9956046 -0.04408677
vn -0.187689 0.9700109 -0.1544394
vn -0.04099594 0.9991351 -0.006960307
vn -0.1061415 0.9939604 -0.02786931
vn -0.1368102 0.9870259 -0.08404032
vn -0.3031583 0.9496236 -0.07943619
vn -0.4519203 0.8854154 -0.1086634
vn -0.449127 0.8910748 -0.06534875
vn -0.4571578 0.870887 -0.1804512
vn -0.4595917 0.8506525 -0.2552759
vn -0.5418226 0.8144619 -0.2075574
vn -0.4519203 0.8854154 -0.1086634
vn -0.1300421 0.9859009 -0.1053015
vn -0.1735064 0.9650599 -0.196354
vn -0.1693006 0.9707289 -0.1703608
vn -0.1979294 0.9192716 -0.3402407
vn -0.329453 0.9205755 -0.2097654
vn -0.3406595 0.885182 -0.3168659
vn -0.2258629 0.9400679 -0.2554569
vn -0.2512169 0.8409926 -0.4791886
vn -0.2115833 0.8969864 -0.3881338
vn -0.221452 0.7395482 -0.6356316
vn -0.2258436 0.6850789 -0.6925761
vn -0.1871115 0.4217095 -0.887215
vn -0.173288 0.3326947 -0.9269765
vn -0.1865436 0.4749272 -0.8600265
vn -0.1571423 0.3274775 -0.9316999
vn -0.1554214 0.2643554 -0.9518195
vn -0.1502233 0.2108161 -0.9659138
vn -0.2259736 0.5816143 -0.7814479
vn -0.2444194 0.4921607 -0.835486
vn -0.1680817 0.2666373 -0.9490274
vn -0.1591917 0.1617756 -0.9739028
vn -0.180522 0.2096354 -0.9609708
vn -0.3252284 0.7665124 -0.5537918
vn -0.404142 0.6846999 -0.6065107
vn -0.1784706 0.1711652 -0.9689432
vn -0.2862939 0.3497718 -0.8920177
vn -0.1681629 0.1671303 -0.9714878
vn -0.1550124 0.1307745 -0.9792187
vn -0.1345575 0.1386016 -0.9811646
vn -0.2771655 0.4107072 -0.8686189
vn -0.4532944 0.8139709 -0.3632845
vn -0.5203177 0.7582742 -0.3927973
vn -0.4466206 0.6209589 -0.6441584
vn -0.4706675 0.5765806 -0.6678525
vn -0.2910843 0.3183218 -0.9021869
vn -0.3274904 0.3107197 -0.8923022
vn -0.5364527 0.7950858 -0.2829437
vn -0.5808641 0.7567736 -0.2998177
vn -0.5593004 0.7179835 -0.4143462
vn -0.6010057 0.6686521 -0.4378316
vn -0.5084072 0.5327392 -0.6765435
vn -0.5628101 0.4782399 -0.6741894
vn -0.1919574 0.1917952 -0.9624795
vn -0.1475977 0.1749773 -0.9734464
vn -0.1208845 0.1552794 -0.9804465
vn -0.1345575 0.1386016 -0.9811646
vn -0.2746211 0.2289786 -0.9338908
vn -0.2281275 0.2187327 -0.9487433
vn -0.1475977 0.1749773 -0.9734464
vn -0.3012193 0.2770424 -0.9124223
vn -0.4052071 0.3137466 -0.8587027
vn -0.464681 0.3527525 -0.8121805
vn -0.3469744 0.2920101 -0.8912569
vn -0.364919 0.3338608 -0.8691209
vn -0.4760679 0.3891139 -0.7886379
vn -0.586093 0.4624004 -0.6653427
vn -0.5888914 0.4550404 -0.667941
vn -0.6592283 0.5534895 -0.5089867
vn -0.6509047 0.5457848 -0.527676
vn -0.6463626 0.600423 -0.4708583
vn -0.6686266 0.6608214 -0.3409598
vn -0.685007 0.625743 -0.3731098
vn -0.6813737 0.6197668 -0.3893828
vn -0.6963351 0.6688831 -0.2602167
vn -0.6977504 0.6658512 -0.2641715
vn -0.6247853 0.7139962 -0.3159949
vn -0.6353351 0.7350779 -0.2366636
vn -0.6766415 0.692779 -0.2494265
vn -0.7093259 0.6888541 -0.1494546
vn -0.7139876 0.6851038 -0.1444111
vn -0.7212342 0.6878769 -0.08152561
vn -0.7155455 0.6930515 -0.08760298
vn -0.6865138 0.710493 -0.1545915
vn -0.6915576 0.7160268 -0.09515135
vn -0.6865138 0.710493 -0.1545915
vn -0.5903386 0.7754611 -0.2239653
vn -0.5967342 0.7896696 -0.1425844
vn -0.5967342 0.7896696 -0.1425844
vn -0.6446195 0.7493569 -0.1514259
vn -0.6488844 0.7549794 -0.09463277
vn -0.6915576 0.7160268 -0.09515135
vn -0.5992621 0.7956265 -0.0886761
vn -0.5438293 0.8291735 -0.1293102
vn -0.5442015 0.8351926 -0.07936036
vn -0.5992621 0.7956265 -0.0886761
vn -0.449127 0.8910748 -0.06534875
g ID84inst_0
f 3/3/3 2/2/2 1/1/1
f 2/2/2 4/4/4 1/1/1
f 1/1/1 4/4/4 5/5/5
f 4/4/4 2/2/2 6/6/6
f 6/6/6 7/7/7 4/4/4
f 2/2/2 8/8/8 6/6/6
f 8/8/8 9/9/9 6/6/6
f 4/4/4 10/10/10 5/5/5
f 7/7/7 10/10/10 4/4/4
f 5/5/5 10/10/10 11/11/11
f 9/9/9 12/12/12 6/6/6
f 6/6/6 12/12/12 7/7/7
f 13/13/13 12/12/12 9/9/9
f 13/13/13 14/14/14 12/12/12
f 10/10/10 15/15/15 11/11/11
f 16/16/16 10/10/10 7/7/7
f 11/11/11 15/15/15 17/17/17
f 18/18/18 16/16/16 7/7/7
f 18/18/18 19/19/19 15/15/15
f 18/18/18 7/7/7 20/20/20
f 18/18/18 21/21/21 19/19/19
f 18/18/18 20/20/20 21/21/21
f 12/12/12 22/22/22 7/7/7
f 14/14/14 22/22/22 12/12/12
f 7/7/7 22/22/22 20/20/20
f 20/20/20 22/22/22 14/14/14
f 23/23/23 20/20/20 14/14/14
f 23/23/23 24/24/24 20/20/20
f 15/15/15 25/25/25 17/17/17
f 19/19/19 25/25/25 15/15/15
f 17/17/17 25/25/25 26/26/26
f 26/26/26 25/25/25 19/19/19
f 27/27/27 17/17/17 26/26/26
f 28/28/28 26/26/26 19/19/19
f 28/28/28 19/19/19 29/29/29
f 28/28/28 29/29/29 30/30/30
f 28/28/28 30/30/30 31/31/31
f 24/24/24 32/32/32 20/20/20
f 33/33/33 32/32/32 24/24/24
f 20/20/20 32/32/32 21/21/21
f 21/21/21 32/32/32 33/33/33
f 34/34/34 33/33/33 24/24/24
f 34/34/34 35/35/35 33/33/33
f 21/21/21 36/36/36 19/19/19
f 19/19/19 36/36/36 29/29/29
f 37/37/37 36/36/36 21/21/21
f 29/29/29 36/36/36 37/37/37
f 38/38/38 21/21/21 33/33/33
f 38/38/38 37/37/37 21/21/21
f 38/38/38 33/33/33 39/39/39
f 38/38/38 39/39/39 37/37/37
f 35/35/35 40/40/40 33/33/33
f 33/33/33 40/40/40 39/39/39
f 35/35/35 41/41/41 40/40/40
f 41/41/41 42/42/42 40/40/40
f 39/39/39 40/40/40 42/42/42
f 43/43/43 42/42/42 41/41/41
f 42/42/42 43/43/43 44/44/44
f 45/45/45 43/43/43 41/41/41
f 46/46/46 43/43/43 45/45/45
f 44/44/44 43/43/43 46/46/46
f 47/47/47 44/44/44 46/46/46
f 47/47/47 48/48/48 44/44/44
f 49/49/49 39/39/39 42/42/42
f 49/49/49 42/42/42 44/44/44
f 49/49/49 50/50/50 39/39/39
f 49/49/49 44/44/44 50/50/50
f 48/48/48 51/51/51 44/44/44
f 44/44/44 51/51/51 50/50/50
f 48/48/48 52/52/52 51/51/51
f 52/52/52 53/53/53 51/51/51
f 50/50/50 51/51/51 53/53/53
f 50/50/50 54/54/54 39/39/39
f 55/55/55 54/54/54 50/50/50
f 39/39/39 54/54/54 37/37/37
f 37/37/37 54/54/54 55/55/55
f 56/56/56 53/53/53 52/52/52
f 53/53/53 56/56/56 57/57/57
f 57/57/57 56/56/56 58/58/58
f 59/59/59 56/56/56 52/52/52
f 59/59/59 60/60/60 56/56/56
f 60/60/60 58/58/58 56/56/56
f 61/61/61 50/50/50 53/53/53
f 61/61/61 55/55/55 50/50/50
f 61/61/61 53/53/53 57/57/57
f 61/61/61 57/57/57 55/55/55
f 62/62/62 37/37/37 55/55/55
f 62/62/62 55/55/55 63/63/63
f 62/62/62 29/29/29 37/37/37
f 62/62/62 63/63/63 29/29/29
f 57/57/57 64/64/64 55/55/55
f 55/55/55 64/64/64 63/63/63
f 65/65/65 64/64/64 57/57/57
f 63/63/63 64/64/64 65/65/65
f 66/66/66 57/57/57 58/58/58
f 66/66/66 65/65/65 57/57/57
f 66/66/66 58/58/58 67/67/67
f 66/66/66 67/67/67 65/65/65
f 63/63/63 68/68/68 29/29/29
f 69/69/69 68/68/68 63/63/63
f 29/29/29 68/68/68 30/30/30
f 30/30/30 68/68/68 69/69/69
f 70/70/70 63/63/63 65/65/65
f 70/70/70 69/69/69 63/63/63
f 70/70/70 65/65/65 71/71/71
f 70/70/70 71/71/71 69/69/69
f 67/67/67 72/72/72 65/65/65
f 65/65/65 72/72/72 71/71/71
f 73/73/73 72/72/72 67/67/67
f 71/71/71 72/72/72 73/73/73
f 58/58/58 74/74/74 67/67/67
f 75/75/75 74/74/74 58/58/58
f 76/76/76 75/75/75 58/58/58
f 58/58/58 77/77/77 76/76/76
f 67/67/67 74/74/74 78/78/78
f 79/79/79 78/78/78 74/74/74
f 80/80/80 79/79/79 74/74/74
f 79/79/79 81/81/81 78/78/78
f 82/82/82 73/73/73 67/67/67
f 82/82/82 67/67/67 78/78/78
f 82/82/82 78/78/78 83/83/83
f 82/82/82 83/83/83 73/73/73
f 81/81/81 84/84/84 78/78/78
f 78/78/78 84/84/84 83/83/83
f 85/85/85 84/84/84 81/81/81
f 83/83/83 84/84/84 85/85/85
f 86/86/86 83/83/83 85/85/85
f 86/86/86 87/87/87 83/83/83
f 87/87/87 88/88/88 83/83/83
f 83/83/83 88/88/88 73/73/73
f 88/88/88 87/87/87 89/89/89
f 73/73/73 88/88/88 89/89/89
f 87/87/87 90/90/90 89/89/89
f 91/91/91 73/73/73 89/89/89
f 91/91/91 89/89/89 92/92/92
f 91/91/91 71/71/71 73/73/73
f 91/91/91 92/92/92 71/71/71
f 89/89/89 90/90/90 93/93/93
f 89/89/89 93/93/93 92/92/92
f 90/90/90 94/94/94 93/93/93
f 93/93/93 94/94/94 95/95/95
f 92/92/92 93/93/93 95/95/95
f 94/94/94 96/96/96 95/95/95
f 92/92/92 97/97/97 71/71/71
f 98/98/98 97/97/97 92/92/92
f 71/71/71 97/97/97 69/69/69
f 69/69/69 97/97/97 98/98/98
f 99/99/99 92/92/92 95/95/95
f 99/99/99 98/98/98 92/92/92
f 95/95/95 96/96/96 100/100/100
f 96/96/96 101/101/101 100/100/100
f 100/100/100 101/101/101 102/102/102
f 103/103/103 100/100/100 102/102/102
f 99/99/99 95/95/95 104/104/104
f 95/95/95 100/100/100 104/104/104
f 104/104/104 100/100/100 103/103/103
f 105/105/105 104/104/104 103/103/103
f 99/99/99 106/106/106 98/98/98
f 107/107/107 69/69/69 98/98/98
f 107/107/107 30/30/30 69/69/69
f 107/107/107 98/98/98 108/108/108
f 107/107/107 109/109/109 30/30/30
f 106/106/106 110/110/110 98/98/98
f 98/98/98 110/110/110 108/108/108
f 111/111/111 110/110/110 106/106/106
f 108/108/108 110/110/110 111/111/111
f 112/112/112 111/111/111 106/106/106
f 113/113/113 108/108/108 111/111/111
f 109/109/109 114/114/114 30/30/30
f 30/30/30 114/114/114 31/31/31
f 115/115/115 114/114/114 109/109/109
f 31/31/31 114/114/114 115/115/115
f 116/116/116 115/115/115 109/109/109
f 117/117/117 31/31/31 115/115/115
