g ID85inst
v -1.16495 0.12746 0.0610135
v -1.167145 0.1305575 0.0100353
v -1.12232 0.178199 0.0100353
v -1.118585 0.174986 0.064764
v -1.071425 0.2302745 0.0100351
v -1.065935 0.227785 0.06771
v -1.052845 0.221342 0.130355
v -1.108145 0.166828 0.125014
v -1.156315 0.119461 0.1188305
v -1.094975 0.1579875 0.1725895
v -1.143625 0.109083 0.1657675
v -1.079745 0.1482645 0.209227
v -1.02662 0.20499 0.2167955
v -1.063155 0.137459 0.2366645
v -1.12554 0.09948349 0.202922
v -1.106115 0.089352 0.2310405
v -1.086265 0.07936399 0.252974
v -1.039935 0.214024 0.179224
v -0.98611 0.2636595 0.1810345
v -1.046805 0.1184745 0.2581885
v -0.996365 0.165355 0.2688855
v -1.03235 0.084214 0.2770875
v -1.06196 0.068533 0.271933
v -1.024945 0.0576905 0.288974
v -0.963995 0.0474978 0.307366
v -0.978335 0.1069615 0.290242
v -0.902065 0.04271925 0.316943
v -0.9209949 0.1299315 0.298516
v -1.01228 0.1933985 0.2455415
v -0.9589099 0.2430835 0.2512355
v -0.97294 0.2550495 0.219992
v -0.91562 0.3017925 0.220747
v -0.942195 0.207975 0.2767485
v -0.884245 0.2514935 0.281597
v -0.901385 0.28971 0.2543455
v -0.83802 0.3364715 0.255473
v -0.861905 0.164766 0.3028215
v -0.902065 0.04271925 0.316943
v -0.845705 0.0457928 0.322112
v -0.824965 0.081708 0.318254
v -0.8026499 0.2231115 0.304066
v -0.8224999 0.3010675 0.283247
v -0.76689 0.3450295 0.282685
v -0.775375 0.167622 0.3155305
v -0.824965 0.081708 0.318254
v -0.75123 0.2826715 0.303081
v -0.732655 0.2416585 0.31301
v -0.7035499 0.2920915 0.3089845
v -0.71565 0.3211515 0.300696
v -0.6816 0.3301275 0.3035745
v -0.68886 0.3484255 0.297247
v -0.697485 0.3885125 0.2779935
v -0.66383 0.3743695 0.2930655
v -0.660485 0.36672 0.296625
v -0.639985 0.394433 0.2889495
v -0.670795 0.402837 0.2740285
v -0.64496 0.4138285 0.2693735
v -0.65119 0.4248825 0.24115
v -0.67851 0.4177115 0.246551
v -0.65717 0.430178 0.2099565
v -0.72737 0.3717105 0.2809065
v -0.737875 0.397161 0.2535615
v -0.706085 0.409229 0.250784
v -0.715315 0.418479 0.217204
v -0.686395 0.424304 0.214331
v -0.69387 0.427927 0.181072
v -0.66138 0.4323 0.181473
v -0.663675 0.4326995 0.1565765
v -0.77987 0.375058 0.255064
v -0.792005 0.38684 0.2205645
v -0.748565 0.408067 0.219292
v -0.760845 0.4149935 0.1787225
v -0.72582 0.424167 0.178832
v -0.734955 0.4288175 0.1269535
v -0.69786 0.4295255 0.148419
v -0.695265 0.4300445 0.1180225
v -0.667875 0.4324755 0.1338445
v -0.67242 0.431739 0.1060335
v -0.851505 0.348569 0.220994
v -0.865145 0.3566055 0.180055
v -0.80519 0.3944565 0.1795325
v -0.8187599 0.3994835 0.1291775
v -0.773775 0.4193585 0.1288295
v -0.786405 0.422581 0.0665905
v -0.688915 0.429942 0.0925565
v -0.67506 0.43063 0.077603
v -0.67851 0.430896 0.0483803
v -0.70411 0.4306985 0.0590535
v -0.929265 0.310115 0.1804885
v -0.9430549 0.315997 0.1304565
v -0.718185 0.4310715 0.086097
v -0.710675 0.4312195 0.02800205
v -0.681795 0.4308455 0.0224323
v -0.68315 0.4304405 0.01003525
v -0.7120299 0.4314625 0.01003525
v -0.7302449 0.432026 0.0445442
v -0.753475 0.4300055 0.06107249
v -0.73518 0.4327095 0.0100351
v -0.753475 0.4300055 0.06107249
v -0.76004 0.430643 0.01003525
v -0.79158 0.423677 0.01003525
v -0.8373749 0.4049465 0.01003525
v -0.83198 0.403497 0.0667065
v -0.8931 0.3664985 0.0670315
v -0.83198 0.403497 0.0667065
v -0.8373749 0.4049465 0.01003525
v -0.898975 0.368107 0.0100353
v -0.963995 0.3224985 0.0100353
v -0.9577299 0.320757 0.067538
v -0.879015 0.362082 0.1297145
v -1.01384 0.275447 0.0681995
v -0.9577299 0.320757 0.067538
v -0.963995 0.3224985 0.0100353
v -1.020065 0.277462 0.0100353
v -1.071425 0.2302745 0.0100351
v -1.065935 0.227785 0.06771
v -0.999405 0.2700745 0.1314195
vt 0 1
vt 0 1
vt 0 1
vt 0 1
vt 0 1
vt 0 1
vt 0 1
vt 0 1
vt 0 1
vt 0 1
vt 0 1
vt 0 1
vt 0 1
vt 0 1
vt 0 1
vt 0 1
vt 0 1
vt 0 1
vt 0 1
vt 0 1
vt 0 1
vt 0 1
vt 0 1
vt 0 1
vt 0 1
vt 0 1
vt 0 1
vt 0 1
vt 0 1
vt 0 1
vt 0 1
vt 0 1
vt 0 1
vt 0 1
vt 0 1
vt 0 1
vt 0 1
vt 0 1
vt 0 1
vt 0 1
vt 0 1
vt 0 1
vt 0 1
vt 0 1
vt 0 1
vt 0 1
vt 0 1
vt 0 1
vt 0 1
vt 0 1
vt 0 1
vt 0 1
vt 0 1
vt 0 1
vt 0 1
vt 0 1
vt 0 1
vt 0 1
vt 0 1
vt 0 1
vt 0 1
vt 0 1
vt 0 1
vt 0 1
vt 0 1
vt 0 1
vt 0 1
vt 0 1
vt 0 1
vt 0 1
vt 0 1
vt 0 1
vt 0 1
vt 0 1
vt 0 1
vt 0 1
vt 0 1
vt 0 1
vt 0 1
vt 0 1
vt 0 1
vt 0 1
vt 0 1
vt 0 1
vt 0 1
vt 0 1
vt 0 1
vt 0 1
vt 0 1
vt 0 1
vt 0 1
vt 0 1
vt 0 1
vt 0 1
vt 0 1
vt 0 1
vt 0 1
vt 0 1
vt 0 1
vt 0 1
vt 0 1
vt 0 1
vt 0 1
vt 0 1
vt 0 1
vt 0 1
vt 0 1
vt 0 1
vt 0 1
vt 0 1
vt 0 1
vt 0 1
vt 0 1
vt 0 1
vt 0 1
vt 0 1
vt 0 1
vn -0.7139882 0.6851032 0.1444111
vn -0.7212344 0.6878769 0.08152576
vn -0.7155455 0.6930515 0.08760311
vn -0.7093263 0.6888539 0.1494543
vn -0.6915576 0.7160267 0.09515148
vn -0.6865138 0.7104931 0.1545909
vn -0.676641 0.6927792 0.2494272
vn -0.6963357 0.6688826 0.2602167
vn -0.6977522 0.6658494 0.2641708
vn -0.6850074 0.6257426 0.3731102
vn -0.6813752 0.6197647 0.3893835
vn -0.6592283 0.5534887 0.5089875
vn -0.6463623 0.6004232 0.4708584
vn -0.5888914 0.4550394 0.6679417
vn -0.6509048 0.5457837 0.5276772
vn -0.5860932 0.4624004 0.6653425
vn -0.4760712 0.3891139 0.7886359
vn -0.6686262 0.660822 0.3409594
vn -0.6247855 0.713996 0.3159949
vn -0.4646824 0.3527537 0.8121793
vn -0.4052086 0.3137471 0.8587018
vn -0.3469765 0.2920061 0.8912575
vn -0.3649261 0.3338519 0.8691214
vn -0.3012207 0.2770315 0.9124252
vn -0.2281254 0.2187309 0.9487442
vn -0.2746202 0.2289778 0.9338912
vn -0.1475959 0.1749775 0.9734466
vn -0.1919562 0.1917931 0.9624802
vn -0.5628104 0.4782391 0.6741897
vn -0.5084083 0.5327405 0.6765416
vn -0.6010055 0.6686524 0.4378314
vn -0.5593014 0.7179826 0.4143462
vn -0.3274926 0.3107196 0.8923016
vn -0.2910834 0.318322 0.9021871
vn -0.4706689 0.5765813 0.6678509
vn -0.4466206 0.6209579 0.6441594
vn -0.16816 0.1671282 0.9714887
vn -0.1475959 0.1749775 0.9734466
vn -0.1208809 0.15528 0.9804468
vn -0.1345558 0.1386002 0.9811651
vn -0.1784696 0.171164 0.9689435
vn -0.2862917 0.3497699 0.8920191
vn -0.2771631 0.4107054 0.8686206
vn -0.1550125 0.1307727 0.9792189
vn -0.1345558 0.1386002 0.9811651
vn -0.1805217 0.2096354 0.9609709
vn -0.1591912 0.1617755 0.9739028
vn -0.150223 0.2108156 0.9659141
vn -0.1680816 0.266637 0.9490275
vn -0.1554211 0.264355 0.9518197
vn -0.1732878 0.3326944 0.9269767
vn -0.2259736 0.581614 0.7814481
vn -0.1871111 0.4217096 0.887215
vn -0.1571418 0.3274776 0.9316999
vn -0.1865434 0.4749275 0.8600265
vn -0.2258434 0.6850788 0.6925761
vn -0.2214517 0.7395485 0.6356313
vn -0.1979294 0.9192716 0.3402406
vn -0.2115833 0.8969864 0.3881339
vn -0.1693006 0.9707289 0.1703608
vn -0.2444178 0.4921604 0.8354868
vn -0.3252267 0.7665129 0.5537919
vn -0.2512169 0.8409925 0.4791887
vn -0.2258624 0.9400679 0.2554571
vn -0.1735064 0.9650598 0.196354
vn -0.1300423 0.9859009 0.1053014
vn -0.1368102 0.9870259 0.08404034
vn -0.1061416 0.9939604 0.02786927
vn -0.4041397 0.6847 0.6065121
vn -0.4532937 0.8139718 0.3632834
vn -0.3406589 0.8851822 0.3168658
vn -0.3294526 0.9205756 0.2097655
vn -0.1876883 0.9700112 0.1544392
vn -0.127066 0.9889507 0.07635927
vn -0.0826313 0.9956046 0.04408665
vn -0.04099654 0.9991351 0.006960275
vn -0.08876108 0.99604 -0.005080268
vn -0.08334848 0.9962111 -0.0248318
vn -0.5203182 0.7582744 0.3927965
vn -0.5364525 0.7950861 0.2829434
vn -0.4595915 0.8506526 0.2552758
vn -0.4571577 0.8708872 0.1804506
vn -0.3146405 0.9391736 0.137675
vn -0.3031581 0.9496236 0.07943625
vn -0.03487198 0.9993723 -0.006242421
vn -0.04654834 0.9988983 -0.005950275
vn -0.002256532 0.9999093 0.01328403
vn 0.01972042 0.9997541 0.01013803
vn -0.5808647 0.7567729 0.2998182
vn -0.5903388 0.7754609 0.2239654
vn 0.001088185 0.9997882 0.02055299
vn 0.03182673 0.9994813 0.004934413
vn 0.01443394 0.9998958 -5.491613E-05
vn 0.02344419 0.9996976 -0.0074263
vn 0.03792482 0.9992787 0.001962023
vn -0.008250005 0.9997596 0.02031565
vn -0.1418481 0.9887734 0.04697061
vn -0.01178438 0.9997591 0.01851247
vn -0.1418481 0.9887734 0.04697061
vn -0.1455646 0.9888166 0.03244413
vn -0.2992811 0.95296 0.04794001
vn -0.4491271 0.891075 0.06534877
vn -0.45192 0.8854154 0.1086634
vn -0.5438291 0.8291735 0.1293101
vn -0.45192 0.8854154 0.1086634
vn -0.4491271 0.891075 0.06534877
vn -0.5442016 0.8351924 0.0793604
vn -0.5992622 0.7956263 0.08867618
vn -0.5967343 0.7896695 0.1425841
vn -0.5418223 0.8144622 0.2075569
vn -0.6446196 0.7493569 0.1514255
vn -0.5967343 0.7896695 0.1425841
vn -0.5992622 0.7956263 0.08867618
vn -0.6488845 0.7549792 0.09463287
vn -0.6915576 0.7160267 0.09515148
vn -0.6865138 0.7104931 0.1545909
vn -0.6353353 0.7350776 0.2366643
g ID85inst_0
f 3/3/3 2/2/2 1/1/1
f 4/4/4 3/3/3 1/1/1
f 5/5/5 3/3/3 4/4/4
f 6/6/6 5/5/5 4/4/4
f 7/7/7 6/6/6 4/4/4
f 8/8/8 4/4/4 1/1/1
f 8/8/8 7/7/7 4/4/4
f 9/9/9 8/8/8 1/1/1
f 10/10/10 8/8/8 9/9/9
f 7/7/7 8/8/8 10/10/10
f 11/11/11 10/10/10 9/9/9
f 12/12/12 10/10/10 11/11/11
f 12/12/12 13/13/13 10/10/10
f 13/13/13 12/12/12 14/14/14
f 15/15/15 12/12/12 11/11/11
f 14/14/14 12/12/12 15/15/15
f 16/16/16 14/14/14 15/15/15
f 16/16/16 17/17/17 14/14/14
f 18/18/18 7/7/7 10/10/10
f 13/13/13 18/18/18 10/10/10
f 7/7/7 18/18/18 19/19/19
f 18/18/18 13/13/13 19/19/19
f 17/17/17 20/20/20 14/14/14
f 20/20/20 21/21/21 14/14/14
f 20/20/20 17/17/17 22/22/22
f 21/21/21 20/20/20 22/22/22
f 17/17/17 23/23/23 22/22/22
f 23/23/23 24/24/24 22/22/22
f 24/24/24 25/25/25 22/22/22
f 25/25/25 26/26/26 22/22/22
f 26/26/26 21/21/21 22/22/22
f 25/25/25 27/27/27 26/26/26
f 27/27/27 28/28/28 26/26/26
f 21/21/21 26/26/26 28/28/28
f 29/29/29 13/13/13 14/14/14
f 21/21/21 29/29/29 14/14/14
f 13/13/13 29/29/29 30/30/30
f 29/29/29 21/21/21 30/30/30
f 13/13/13 31/31/31 19/19/19
f 31/31/31 13/13/13 30/30/30
f 31/31/31 32/32/32 19/19/19
f 32/32/32 31/31/31 30/30/30
f 33/33/33 21/21/21 28/28/28
f 21/21/21 33/33/33 30/30/30
f 34/34/34 33/33/33 28/28/28
f 33/33/33 34/34/34 30/30/30
f 35/35/35 32/32/32 30/30/30
f 34/34/34 35/35/35 30/30/30
f 32/32/32 35/35/35 36/36/36
f 35/35/35 34/34/34 36/36/36
f 37/37/37 34/34/34 28/28/28
f 37/37/37 28/28/28 38/38/38
f 37/37/37 38/38/38 39/39/39
f 39/39/39 40/40/40 37/37/37
f 34/34/34 37/37/37 41/41/41
f 34/34/34 42/42/42 36/36/36
f 42/42/42 34/34/34 41/41/41
f 42/42/42 43/43/43 36/36/36
f 43/43/43 42/42/42 41/41/41
f 44/44/44 41/41/41 37/37/37
f 45/45/45 44/44/44 37/37/37
f 41/41/41 44/44/44 46/46/46
f 46/46/46 43/43/43 41/41/41
f 44/44/44 47/47/47 46/46/46
f 47/47/47 48/48/48 46/46/46
f 48/48/48 49/49/49 46/46/46
f 43/43/43 46/46/46 49/49/49
f 48/48/48 50/50/50 49/49/49
f 50/50/50 51/51/51 49/49/49
f 51/51/51 52/52/52 49/49/49
f 51/51/51 50/50/50 53/53/53
f 52/52/52 51/51/51 53/53/53
f 50/50/50 54/54/54 53/53/53
f 54/54/54 55/55/55 53/53/53
f 53/53/53 55/55/55 56/56/56
f 56/56/56 52/52/52 53/53/53
f 55/55/55 57/57/57 56/56/56
f 57/57/57 58/58/58 56/56/56
f 58/58/58 59/59/59 56/56/56
f 52/52/52 56/56/56 59/59/59
f 58/58/58 60/60/60 59/59/59
f 61/61/61 43/43/43 49/49/49
f 52/52/52 61/61/61 49/49/49
f 43/43/43 61/61/61 62/62/62
f 61/61/61 52/52/52 62/62/62
f 63/63/63 52/52/52 59/59/59
f 52/52/52 63/63/63 62/62/62
f 64/64/64 63/63/63 59/59/59
f 63/63/63 64/64/64 62/62/62
f 60/60/60 65/65/65 59/59/59
f 65/65/65 64/64/64 59/59/59
f 65/65/65 60/60/60 66/66/66
f 64/64/64 65/65/65 66/66/66
f 60/60/60 67/67/67 66/66/66
f 67/67/67 68/68/68 66/66/66
f 69/69/69 43/43/43 62/62/62
f 70/70/70 69/69/69 62/62/62
f 43/43/43 69/69/69 36/36/36
f 69/69/69 70/70/70 36/36/36
f 64/64/64 71/71/71 62/62/62
f 71/71/71 70/70/70 62/62/62
f 71/71/71 64/64/64 72/72/72
f 70/70/70 71/71/71 72/72/72
f 73/73/73 64/64/64 66/66/66
f 64/64/64 73/73/73 72/72/72
f 74/74/74 73/73/73 66/66/66
f 73/73/73 74/74/74 72/72/72
f 75/75/75 74/74/74 66/66/66
f 68/68/68 75/75/75 66/66/66
f 75/75/75 68/68/68 76/76/76
f 74/74/74 75/75/75 76/76/76
f 68/68/68 77/77/77 76/76/76
f 77/77/77 78/78/78 76/76/76
f 70/70/70 79/79/79 36/36/36
f 79/79/79 70/70/70 80/80/80
f 79/79/79 32/32/32 36/36/36
f 32/32/32 79/79/79 80/80/80
f 81/81/81 70/70/70 72/72/72
f 70/70/70 81/81/81 80/80/80
f 82/82/82 81/81/81 72/72/72
f 81/81/81 82/82/82 80/80/80
f 74/74/74 83/83/83 72/72/72
f 83/83/83 82/82/82 72/72/72
f 83/83/83 74/74/74 84/84/84
f 82/82/82 83/83/83 84/84/84
f 78/78/78 85/85/85 76/76/76
f 78/78/78 86/86/86 85/85/85
f 86/86/86 87/87/87 85/85/85
f 85/85/85 88/88/88 76/76/76
f 87/87/87 88/88/88 85/85/85
f 89/89/89 32/32/32 80/80/80
f 90/90/90 89/89/89 80/80/80
f 32/32/32 89/89/89 19/19/19
f 89/89/89 90/90/90 19/19/19
f 91/91/91 74/74/74 76/76/76
f 88/88/88 91/91/91 76/76/76
f 92/92/92 88/88/88 87/87/87
f 93/93/93 92/92/92 87/87/87
f 93/93/93 94/94/94 92/92/92
f 94/94/94 95/95/95 92/92/92
f 91/91/91 88/88/88 96/96/96
f 88/88/88 92/92/92 96/96/96
f 92/92/92 95/95/95 96/96/96
f 74/74/74 91/91/91 96/96/96
f 97/97/97 74/74/74 96/96/96
f 95/95/95 98/98/98 96/96/96
f 96/96/96 98/98/98 99/99/99
f 98/98/98 100/100/100 99/99/99
f 74/74/74 99/99/99 84/84/84
f 99/99/99 100/100/100 84/84/84
f 100/100/100 101/101/101 84/84/84
f 101/101/101 102/102/102 84/84/84
f 102/102/102 103/103/103 84/84/84
f 103/103/103 82/82/82 84/84/84
f 82/82/82 105/105/105 104/104/104
f 105/105/105 106/106/106 104/104/104
f 106/106/106 107/107/107 104/104/104
f 107/107/107 108/108/108 104/104/104
f 108/108/108 109/109/109 104/104/104
f 109/109/109 90/90/90 104/104/104
f 110/110/110 82/82/82 104/104/104
f 90/90/90 110/110/110 104/104/104
f 82/82/82 110/110/110 80/80/80
f 110/110/110 90/90/90 80/80/80
f 90/90/90 112/112/112 111/111/111
f 112/112/112 113/113/113 111/111/111
f 113/113/113 114/114/114 111/111/111
f 114/114/114 115/115/115 111/111/111
f 115/115/115 116/116/116 111/111/111
f 116/116/116 7/7/7 111/111/111
f 117/117/117 90/90/90 111/111/111
f 7/7/7 117/117/117 111/111/111
f 90/90/90 117/117/117 19/19/19
f 117/117/117 7/7/7 19/19/19
