g Interior_002
v 0 0.00275 0.0875
v -0.001875 0.00325 0.0875
v -0.00375 0.00175 -0.005
v 0 0.00275 -0.005
v 0.003 0.00175 0
v 0 0.00275 -0.003
v 0 -0.00225 -0.003
v 0.003 -0.00225 0
v -0.003 0.00175 0
v 0 0.00275 0.003
v 0 -0.00225 0.003
v -0.003 -0.00225 0
v 0 0.00275 0.003
v 0.003 0.00175 0
v 0.003 -0.00225 0
v 0 -0.00225 0.003
v 0 0.00275 -0.003
v -0.003 0.00175 0
v -0.003 -0.00225 0
v 0 -0.00225 -0.003
v 0.001875 0.00325 0.0875
v 0 0.00275 0.0875
v 0 0.00275 -0.005
v 0.00375 0.00175 -0.005
vt 0.235079 0.58097
vt 0.234022 0.580969
vt 0.23246 0.639779
vt 0.234574 0.639825
vt 0.561948 0.457805
vt 0.56434 0.458441
vt 0.56434 0.455258
vt 0.561948 0.455258
vt 0.561948 0.455895
vt 0.559555 0.455258
vt 0.559555 0.458441
vt 0.561948 0.458441
vt 0.569125 0.455258
vt 0.566733 0.455895
vt 0.566733 0.458441
vt 0.569125 0.458441
vt 0.557163 0.455258
vt 0.55477 0.455895
vt 0.55477 0.458441
vt 0.557163 0.458441
vt 0.236137 0.580993
vt 0.235079 0.58097
vt 0.234574 0.639825
vt 0.236689 0.639825
vn -0.08853526 0.9960472 -0.007172102
vn -0.08853526 0.9960472 -0.007172102
vn -0.08853526 0.9960472 -0.007172102
vn -0.08853526 0.9960472 -0.007172102
vn 1 0 0
vn 0 0 -1
vn 0 0 -1
vn 1 0 0
vn -1 0 0
vn 0 0 1
vn 0 0 1
vn -1 0 0
vn 0 0 1
vn 1 0 0
vn 1 0 0
vn 0 0 1
vn 0 0 -1
vn -1 0 0
vn -1 0 0
vn 0 0 -1
vn 0.08853526 0.9960472 -0.007172102
vn 0.08853526 0.9960472 -0.007172102
vn 0.08853526 0.9960472 -0.007172102
vn 0.08853526 0.9960472 -0.007172102
g Interior_002_0
f 3/3/3 2/2/2 1/1/1
f 4/4/4 3/3/3 1/1/1
f 7/7/7 6/6/6 5/5/5
f 8/8/8 7/7/7 5/5/5
f 11/11/11 10/10/10 9/9/9
f 12/12/12 11/11/11 9/9/9
f 15/15/15 14/14/14 13/13/13
f 16/16/16 15/15/15 13/13/13
f 19/19/19 18/18/18 17/17/17
f 20/20/20 19/19/19 17/17/17
f 23/23/23 22/22/22 21/21/21
f 24/24/24 23/23/23 21/21/21
