g kolo.001
v 0.007588123 0.005069525 -0.009964749
v 0.007737101 0.003556923 -0.00996475
v 0.007588123 0.00204432 -0.00996475
v 0.007146913 0.0005898458 -0.00996475
v 0.007146912 0.006523999 -0.009964749
v 0.006430427 -0.0007506066 -0.00996475
v 0.006430427 0.00786445 -0.009964749
v 0.005466198 0.009039366 -0.00996475
v -0.00646292 -0.0007506025 -0.00996475
v 0.004291284 0.01000359 -0.009964749
v 0.002950832 0.01072008 -0.009964749
v 0.001496358 0.01116129 -0.009964749
v -1.624522E-05 0.01131027 -0.009964749
v -0.001528836 0.01116129 -0.009964749
v -0.002983311 0.01072009 -0.009964749
v -0.004323764 0.0100036 -0.009964751
v -0.005498682 0.009039373 -0.009964751
v -0.006462912 0.007864459 -0.009964749
v -0.007179399 0.006524008 -0.00996475
v -0.007179406 0.0005898505 -0.00996475
v -0.007620612 0.005069533 -0.009964751
v -0.007620614 0.002044326 -0.00996475
v -0.00776959 0.00355693 -0.009964751
vt 0 0
vt 0 0
vt 0 0
vt 0 0
vt 0 0
vt 0 0
vt 0 0
vt 0 0
vt 0 0
vt 0 0
vt 0 0
vt 0 0
vt 0 0
vt 0 0
vt 0 0
vt 0 0
vt 0 0
vt 0 0
vt 0 0
vt 0 0
vt 0 0
vt 0 0
vt 0 0
vn 0 0 1
vn 0 0 1
vn 0 0 1
vn 0 0 1
vn 0 0 1
vn 0 0 1
vn 0 0 1
vn 0 0 1
vn 0 0 1
vn 0 0 1
vn 0 0 1
vn 0 0 1
vn 0 0 1
vn 0 0 1
vn 0 0 1
vn 0 0 1
vn 0 0 1
vn 0 0 1
vn 0 0 1
vn 0 0 1
vn 0 0 1
vn 0 0 1
vn 0 0 1
g kolo.001_0
f 3/3/3 2/2/2 1/1/1
f 1/1/1 4/4/4 3/3/3
f 1/1/1 5/5/5 4/4/4
f 5/5/5 6/6/6 4/4/4
f 5/5/5 7/7/7 6/6/6
f 7/7/7 8/8/8 6/6/6
f 8/8/8 9/9/9 6/6/6
f 8/8/8 10/10/10 9/9/9
f 10/10/10 11/11/11 9/9/9
f 11/11/11 12/12/12 9/9/9
f 12/12/12 13/13/13 9/9/9
f 13/13/13 14/14/14 9/9/9
f 14/14/14 15/15/15 9/9/9
f 15/15/15 16/16/16 9/9/9
f 16/16/16 17/17/17 9/9/9
f 17/17/17 18/18/18 9/9/9
f 18/18/18 19/19/19 9/9/9
f 19/19/19 20/20/20 9/9/9
f 19/19/19 21/21/21 20/20/20
f 21/21/21 22/22/22 20/20/20
f 21/21/21 23/23/23 22/22/22
