g Lamps
v -3.384412 2.452728 -10.13279
v -3.384412 2.207365 -10.17188
v -3.384412 2.207365 -10.13279
v -3.384412 2.452728 -10.17188
v -3.79335 2.452728 -10.17188
v -3.79335 2.207365 -10.13279
v -3.79335 2.207365 -10.17188
v -3.79335 2.452728 -10.13279
v -3.384412 2.452728 -10.13279
v -3.79335 2.207365 -10.13279
v -3.79335 2.452728 -10.13279
v -3.384412 2.207365 -10.13279
v -3.384412 2.207365 -10.17188
v -3.79335 2.452728 -10.17188
v -3.79335 2.207365 -10.17188
v -3.384412 2.452728 -10.17188
v -3.384412 2.452728 -10.13279
v -3.79335 2.452728 -10.17188
v -3.384412 2.452728 -10.17188
v -3.79335 2.452728 -10.13279
v -3.79335 2.207365 -10.13279
v -3.384412 2.207365 -10.17188
v -3.79335 2.207365 -10.17188
v -3.384412 2.207365 -10.13279
v -3.79335 2.452728 10.13279
v -3.79335 2.207365 10.17188
v -3.79335 2.207365 10.13279
v -3.79335 2.452728 10.17188
v -3.384412 2.452728 10.17188
v -3.384412 2.207365 10.13279
v -3.384412 2.207365 10.17188
v -3.384412 2.452728 10.13279
v -3.79335 2.452728 10.13279
v -3.384412 2.207365 10.13279
v -3.384412 2.452728 10.13279
v -3.79335 2.207365 10.13279
v -3.79335 2.207365 10.17188
v -3.384412 2.452728 10.17188
v -3.384412 2.207365 10.17188
v -3.79335 2.452728 10.17188
v -3.79335 2.452728 10.13279
v -3.384412 2.452728 10.17188
v -3.79335 2.452728 10.17188
v -3.384412 2.452728 10.13279
v -3.384412 2.207365 10.13279
v -3.79335 2.207365 10.17188
v -3.384412 2.207365 10.17188
v -3.79335 2.207365 10.13279
v -10.12301 2.452728 3.721335
v -10.16211 2.207365 3.721335
v -10.12301 2.207365 3.721335
v -10.16211 2.452728 3.721335
v -10.16211 2.452728 4.130273
v -10.12301 2.207365 4.130273
v -10.16211 2.207365 4.130273
v -10.12301 2.452728 4.130273
v -10.12301 2.452728 3.721335
v -10.12301 2.207365 4.130273
v -10.12301 2.452728 4.130273
v -10.12301 2.207365 3.721335
v -10.16211 2.207365 3.721335
v -10.16211 2.452728 4.130273
v -10.16211 2.207365 4.130273
v -10.16211 2.452728 3.721335
v -10.12301 2.452728 3.721335
v -10.16211 2.452728 4.130273
v -10.16211 2.452728 3.721335
v -10.12301 2.452728 4.130273
v -10.12301 2.207365 4.130273
v -10.16211 2.207365 3.721335
v -10.16211 2.207365 4.130273
v -10.12301 2.207365 3.721335
v -10.12301 2.452728 -4.130273
v -10.16211 2.207365 -4.130273
v -10.12301 2.207365 -4.130273
v -10.16211 2.452728 -4.130273
v -10.16211 2.452728 -3.721335
v -10.12301 2.207365 -3.721335
v -10.16211 2.207365 -3.721335
v -10.12301 2.452728 -3.721335
v -10.12301 2.452728 -4.130273
v -10.12301 2.207365 -3.721335
v -10.12301 2.452728 -3.721335
v -10.12301 2.207365 -4.130273
v -10.16211 2.207365 -4.130273
v -10.16211 2.452728 -3.721335
v -10.16211 2.207365 -3.721335
v -10.16211 2.452728 -4.130273
v -10.12301 2.452728 -4.130273
v -10.16211 2.452728 -3.721335
v -10.16211 2.452728 -4.130273
v -10.12301 2.452728 -3.721335
v -10.12301 2.207365 -3.721335
v -10.16211 2.207365 -4.130273
v -10.16211 2.207365 -3.721335
v -10.12301 2.207365 -4.130273
v -0.03111834 3.916031 -3.721335
v 0.2142446 3.955126 -3.721335
v 0.2142446 3.916031 -3.721335
v -0.03111834 3.955126 -3.721335
v -0.03111834 3.955126 -4.130273
v 0.2142446 3.916031 -4.130273
v 0.2142446 3.955126 -4.130273
v -0.03111834 3.916031 -4.130273
v -0.03111834 3.916031 -3.721335
v 0.2142446 3.916031 -4.130273
v -0.03111834 3.916031 -4.130273
v 0.2142446 3.916031 -3.721335
v 0.2142446 3.955126 -3.721335
v -0.03111834 3.955126 -4.130273
v 0.2142446 3.955126 -4.130273
v -0.03111834 3.955126 -3.721335
v -0.03111834 3.916031 -3.721335
v -0.03111834 3.955126 -4.130273
v -0.03111834 3.955126 -3.721335
v -0.03111834 3.916031 -4.130273
v 0.2142446 3.916031 -4.130273
v 0.2142446 3.955126 -3.721335
v 0.2142446 3.955126 -4.130273
v 0.2142446 3.916031 -3.721335
v -0.03111834 3.916031 4.130273
v 0.2142446 3.955126 4.130273
v 0.2142446 3.916031 4.130273
v -0.03111834 3.955126 4.130273
v -0.03111834 3.955126 3.721335
v 0.2142446 3.916031 3.721335
v 0.2142446 3.955126 3.721335
v -0.03111834 3.916031 3.721335
v -0.03111834 3.916031 4.130273
v 0.2142446 3.916031 3.721335
v -0.03111834 3.916031 3.721335
v 0.2142446 3.916031 4.130273
v 0.2142446 3.955126 4.130273
v -0.03111834 3.955126 3.721335
v 0.2142446 3.955126 3.721335
v -0.03111834 3.955126 4.130273
v -0.03111834 3.916031 4.130273
v -0.03111834 3.955126 3.721335
v -0.03111834 3.955126 4.130273
v -0.03111834 3.916031 3.721335
v 0.2142446 3.916031 3.721335
v 0.2142446 3.955126 4.130273
v 0.2142446 3.955126 3.721335
v 0.2142446 3.916031 4.130273
vt -7.13254 0.861852
vt -7.15076 0.747523
vt -7.13254 0.747523
vt -7.15076 0.861852
vt -6.99356 0.866616
vt -6.97534 0.752287
vt -6.99356 0.752287
vt -6.97534 0.866616
vt -1.33861 0.861852
vt -1.14806 0.747523
vt -1.14806 0.861852
vt -1.33861 0.747523
vt -1.33861 0.747523
vt -1.14806 0.861852
vt -1.14806 0.747523
vt -1.33861 0.861852
vt -3.92138 -2.47317
vt -3.73083 -2.49139
vt -3.92138 -2.49139
vt -3.73083 -2.47317
vt -3.73083 -2.47317
vt -3.92138 -2.49139
vt -3.73083 -2.49139
vt -3.92138 -2.47317
vt -7.13254 0.861852
vt -7.15076 0.747523
vt -7.13254 0.747523
vt -7.15076 0.861852
vt -6.99356 0.866616
vt -6.97534 0.752287
vt -6.99356 0.752287
vt -6.97534 0.866616
vt -1.33861 0.861852
vt -1.14806 0.747523
vt -1.14806 0.861852
vt -1.33861 0.747523
vt -1.33861 0.747523
vt -1.14806 0.861852
vt -1.14806 0.747523
vt -1.33861 0.861852
vt -1.78723 -4.60732
vt -1.59668 -4.62554
vt -1.78723 -4.62554
vt -1.59668 -4.60732
vt -1.59668 -4.60732
vt -1.78723 -4.62554
vt -1.59668 -4.62554
vt -1.78723 -4.60732
vt -7.13254 0.861852
vt -7.15076 0.747523
vt -7.13254 0.747523
vt -7.15076 0.861852
vt -6.99356 0.866616
vt -6.97534 0.752287
vt -6.99356 0.752287
vt -6.97534 0.866616
vt -1.33861 0.861852
vt -1.14806 0.747523
vt -1.14806 0.861852
vt -1.33861 0.747523
vt -1.33861 0.747523
vt -1.14806 0.861852
vt -1.14806 0.747523
vt -1.33861 0.861852
vt -1.78723 -4.60732
vt -1.59668 -4.62554
vt -1.78723 -4.62554
vt -1.59668 -4.60732
vt -1.59668 -4.60732
vt -1.78723 -4.62554
vt -1.59668 -4.62554
vt -1.78723 -4.60732
vt -7.13254 0.861852
vt -7.15076 0.747523
vt -7.13254 0.747523
vt -7.15076 0.861852
vt -6.99356 0.866616
vt -6.97534 0.752287
vt -6.99356 0.752287
vt -6.97534 0.866616
vt -1.33861 0.861852
vt -1.14806 0.747523
vt -1.14806 0.861852
vt -1.33861 0.747523
vt -1.33861 0.747523
vt -1.14806 0.861852
vt -1.14806 0.747523
vt -1.33861 0.861852
vt -3.92138 -2.47317
vt -3.73083 -2.49139
vt -3.92138 -2.49139
vt -3.73083 -2.47317
vt -3.73083 -2.47317
vt -3.92138 -2.49139
vt -3.73083 -2.49139
vt -3.92138 -2.47317
vt -7.13254 0.861852
vt -7.15076 0.747523
vt -7.13254 0.747523
vt -7.15076 0.861852
vt -6.99356 0.866616
vt -6.97534 0.752287
vt -6.99356 0.752287
vt -6.97534 0.866616
vt -1.33861 0.861852
vt -1.14806 0.747523
vt -1.14806 0.861852
vt -1.33861 0.747523
vt -1.33861 0.747523
vt -1.14806 0.861852
vt -1.14806 0.747523
vt -1.33861 0.861852
vt -1.78723 -4.60732
vt -1.59668 -4.62554
vt -1.78723 -4.62554
vt -1.59668 -4.60732
vt -1.59668 -4.60732
vt -1.78723 -4.62554
vt -1.59668 -4.62554
vt -1.78723 -4.60732
vt -5.32233 2.67207
vt -5.208 2.69028
vt -5.208 2.67207
vt -5.32233 2.69028
vt -5.16513 2.69505
vt -5.0508 2.67683
vt -5.0508 2.69505
vt -5.16513 2.67683
vt -1.33861 0.861852
vt -1.14806 0.747523
vt -1.14806 0.861852
vt -1.33861 0.747523
vt 0.685765 -1.07719
vt 0.571435 -0.886642
vt 0.685765 -0.886642
vt 0.571435 -1.07719
vt -3.92138 1.17626
vt -3.73083 1.19447
vt -3.92138 1.19447
vt -3.73083 1.17626
vt -3.73083 1.17626
vt -3.92138 1.19447
vt -3.73083 1.19447
vt -3.92138 1.17626
vn 1 0 0
vn 1 0 0
vn 1 0 0
vn 1 0 0
vn -1 0 0
vn -1 0 0
vn -1 0 0
vn -1 0 0
vn 0 0 1
vn 0 0 1
vn 0 0 1
vn 0 0 1
vn 0 0 -1
vn 0 0 -1
vn 0 0 -1
vn 0 0 -1
vn 0 1 0
vn 0 1 0
vn 0 1 0
vn 0 1 0
vn 0 -1 0
vn 0 -1 0
vn 0 -1 0
vn 0 -1 0
vn -1 0 0
vn -1 0 0
vn -1 0 0
vn -1 0 0
vn 1 0 0
vn 1 0 0
vn 1 0 0
vn 1 0 0
vn 0 0 -1
vn 0 0 -1
vn 0 0 -1
vn 0 0 -1
vn 0 0 1
vn 0 0 1
vn 0 0 1
vn 0 0 1
vn 0 1 0
vn 0 1 0
vn 0 1 0
vn 0 1 0
vn 0 -1 0
vn 0 -1 0
vn 0 -1 0
vn 0 -1 0
vn 0 0 -1
vn 0 0 -1
vn 0 0 -1
vn 0 0 -1
vn 0 0 1
vn 0 0 1
vn 0 0 1
vn 0 0 1
vn 1 0 0
vn 1 0 0
vn 1 0 0
vn 1 0 0
vn -1 0 0
vn -1 0 0
vn -1 0 0
vn -1 0 0
vn 0 1 0
vn 0 1 0
vn 0 1 0
vn 0 1 0
vn 0 -1 0
vn 0 -1 0
vn 0 -1 0
vn 0 -1 0
vn 0 0 -1
vn 0 0 -1
vn 0 0 -1
vn 0 0 -1
vn 0 0 1
vn 0 0 1
vn 0 0 1
vn 0 0 1
vn 1 0 0
vn 1 0 0
vn 1 0 0
vn 1 0 0
vn -1 0 0
vn -1 0 0
vn -1 0 0
vn -1 0 0
vn 0 1 0
vn 0 1 0
vn 0 1 0
vn 0 1 0
vn 0 -1 0
vn 0 -1 0
vn 0 -1 0
vn 0 -1 0
vn 0 0 1
vn 0 0 1
vn 0 0 1
vn 0 0 1
vn 0 0 -1
vn 0 0 -1
vn 0 0 -1
vn 0 0 -1
vn 0 -1 0
vn 0 -1 0
vn 0 -1 0
vn 0 -1 0
vn 0 1 0
vn 0 1 0
vn 0 1 0
vn 0 1 0
vn -1 0 0
vn -1 0 0
vn -1 0 0
vn -1 0 0
vn 1 0 0
vn 1 0 0
vn 1 0 0
vn 1 0 0
vn 0 0 1
vn 0 0 1
vn 0 0 1
vn 0 0 1
vn 0 0 -1
vn 0 0 -1
vn 0 0 -1
vn 0 0 -1
vn 0 -1 0
vn 0 -1 0
vn 0 -1 0
vn 0 -1 0
vn 0 1 0
vn 0 1 0
vn 0 1 0
vn 0 1 0
vn -1 0 0
vn -1 0 0
vn -1 0 0
vn -1 0 0
vn 1 0 0
vn 1 0 0
vn 1 0 0
vn 1 0 0
g Lamps_0
f 3/3/3 2/2/2 1/1/1
f 2/2/2 4/4/4 1/1/1
f 7/7/7 6/6/6 5/5/5
f 6/6/6 8/8/8 5/5/5
f 11/11/11 10/10/10 9/9/9
f 10/10/10 12/12/12 9/9/9
f 15/15/15 14/14/14 13/13/13
f 14/14/14 16/16/16 13/13/13
f 19/19/19 18/18/18 17/17/17
f 18/18/18 20/20/20 17/17/17
f 23/23/23 22/22/22 21/21/21
f 22/22/22 24/24/24 21/21/21
f 27/27/27 26/26/26 25/25/25
f 26/26/26 28/28/28 25/25/25
f 31/31/31 30/30/30 29/29/29
f 30/30/30 32/32/32 29/29/29
f 35/35/35 34/34/34 33/33/33
f 34/34/34 36/36/36 33/33/33
f 39/39/39 38/38/38 37/37/37
f 38/38/38 40/40/40 37/37/37
f 43/43/43 42/42/42 41/41/41
f 42/42/42 44/44/44 41/41/41
f 47/47/47 46/46/46 45/45/45
f 46/46/46 48/48/48 45/45/45
f 51/51/51 50/50/50 49/49/49
f 50/50/50 52/52/52 49/49/49
f 55/55/55 54/54/54 53/53/53
f 54/54/54 56/56/56 53/53/53
f 59/59/59 58/58/58 57/57/57
f 58/58/58 60/60/60 57/57/57
f 63/63/63 62/62/62 61/61/61
f 62/62/62 64/64/64 61/61/61
f 67/67/67 66/66/66 65/65/65
f 66/66/66 68/68/68 65/65/65
f 71/71/71 70/70/70 69/69/69
f 70/70/70 72/72/72 69/69/69
f 75/75/75 74/74/74 73/73/73
f 74/74/74 76/76/76 73/73/73
f 79/79/79 78/78/78 77/77/77
f 78/78/78 80/80/80 77/77/77
f 83/83/83 82/82/82 81/81/81
f 82/82/82 84/84/84 81/81/81
f 87/87/87 86/86/86 85/85/85
f 86/86/86 88/88/88 85/85/85
f 91/91/91 90/90/90 89/89/89
f 90/90/90 92/92/92 89/89/89
f 95/95/95 94/94/94 93/93/93
f 94/94/94 96/96/96 93/93/93
f 99/99/99 98/98/98 97/97/97
f 98/98/98 100/100/100 97/97/97
f 103/103/103 102/102/102 101/101/101
f 102/102/102 104/104/104 101/101/101
f 107/107/107 106/106/106 105/105/105
f 106/106/106 108/108/108 105/105/105
f 111/111/111 110/110/110 109/109/109
f 110/110/110 112/112/112 109/109/109
f 115/115/115 114/114/114 113/113/113
f 114/114/114 116/116/116 113/113/113
f 119/119/119 118/118/118 117/117/117
f 118/118/118 120/120/120 117/117/117
f 123/123/123 122/122/122 121/121/121
f 122/122/122 124/124/124 121/121/121
f 127/127/127 126/126/126 125/125/125
f 126/126/126 128/128/128 125/125/125
f 131/131/131 130/130/130 129/129/129
f 130/130/130 132/132/132 129/129/129
f 135/135/135 134/134/134 133/133/133
f 134/134/134 136/136/136 133/133/133
f 139/139/139 138/138/138 137/137/137
f 138/138/138 140/140/140 137/137/137
f 143/143/143 142/142/142 141/141/141
f 142/142/142 144/144/144 141/141/141
