g Lamps
v -0.03111834 8.168985 4.130273
v 0.2142446 8.20808 4.130273
v 0.2142446 8.168985 4.130273
v -0.03111834 8.20808 4.130273
v -0.03111834 8.20808 3.721335
v 0.2142446 8.168985 3.721335
v 0.2142446 8.20808 3.721335
v -0.03111834 8.168985 3.721335
v -0.03111834 8.168985 4.130273
v 0.2142446 8.168985 3.721335
v -0.03111834 8.168985 3.721335
v 0.2142446 8.168985 4.130273
v 0.2142446 8.20808 4.130273
v -0.03111834 8.20808 3.721335
v 0.2142446 8.20808 3.721335
v -0.03111834 8.20808 4.130273
v -0.03111834 8.168985 4.130273
v -0.03111834 8.20808 3.721335
v -0.03111834 8.20808 4.130273
v -0.03111834 8.168985 3.721335
v 0.2142446 8.168985 3.721335
v 0.2142446 8.20808 4.130273
v 0.2142446 8.20808 3.721335
v 0.2142446 8.168985 4.130273
v -0.03111834 8.168985 -3.721335
v 0.2142446 8.20808 -3.721335
v 0.2142446 8.168985 -3.721335
v -0.03111834 8.20808 -3.721335
v -0.03111834 8.20808 -4.130273
v 0.2142446 8.168985 -4.130273
v 0.2142446 8.20808 -4.130273
v -0.03111834 8.168985 -4.130273
v -0.03111834 8.168985 -3.721335
v 0.2142446 8.168985 -4.130273
v -0.03111834 8.168985 -4.130273
v 0.2142446 8.168985 -3.721335
v 0.2142446 8.20808 -3.721335
v -0.03111834 8.20808 -4.130273
v 0.2142446 8.20808 -4.130273
v -0.03111834 8.20808 -3.721335
v -0.03111834 8.168985 -3.721335
v -0.03111834 8.20808 -4.130273
v -0.03111834 8.20808 -3.721335
v -0.03111834 8.168985 -4.130273
v 0.2142446 8.168985 -4.130273
v 0.2142446 8.20808 -3.721335
v 0.2142446 8.20808 -4.130273
v 0.2142446 8.168985 -3.721335
v 5.121498 8.168985 6.420326
v 5.121498 8.20808 6.665689
v 5.121498 8.168985 6.665689
v 5.121498 8.20808 6.420326
v 5.530436 8.20808 6.420326
v 5.530436 8.168985 6.665689
v 5.530436 8.20808 6.665689
v 5.530436 8.168985 6.420326
v 5.121498 8.168985 6.420326
v 5.530436 8.168985 6.665689
v 5.530436 8.168985 6.420326
v 5.121498 8.168985 6.665689
v 5.121498 8.20808 6.665689
v 5.530436 8.20808 6.420326
v 5.530436 8.20808 6.665689
v 5.121498 8.20808 6.420326
v 5.121498 8.168985 6.420326
v 5.530436 8.20808 6.420326
v 5.121498 8.20808 6.420326
v 5.530436 8.168985 6.420326
v 5.530436 8.168985 6.665689
v 5.121498 8.20808 6.665689
v 5.530436 8.20808 6.665689
v 5.121498 8.168985 6.665689
v 5.121498 8.168985 -0.1226814
v 5.121498 8.20808 0.1226814
v 5.121498 8.168985 0.1226814
v 5.121498 8.20808 -0.1226814
v 5.530436 8.20808 -0.1226814
v 5.530436 8.168985 0.1226814
v 5.530436 8.20808 0.1226814
v 5.530436 8.168985 -0.1226814
v 5.121498 8.168985 -0.1226814
v 5.530436 8.168985 0.1226814
v 5.530436 8.168985 -0.1226814
v 5.121498 8.168985 0.1226814
v 5.121498 8.20808 0.1226814
v 5.530436 8.20808 -0.1226814
v 5.530436 8.20808 0.1226814
v 5.121498 8.20808 -0.1226814
v 5.121498 8.168985 -0.1226814
v 5.530436 8.20808 -0.1226814
v 5.121498 8.20808 -0.1226814
v 5.530436 8.168985 -0.1226814
v 5.530436 8.168985 0.1226814
v 5.121498 8.20808 0.1226814
v 5.530436 8.20808 0.1226814
v 5.121498 8.168985 0.1226814
v 5.121498 8.168985 -6.665689
v 5.121498 8.20808 -6.420326
v 5.121498 8.168985 -6.420326
v 5.121498 8.20808 -6.665689
v 5.530436 8.20808 -6.665689
v 5.530436 8.168985 -6.420326
v 5.530436 8.20808 -6.420326
v 5.530436 8.168985 -6.665689
v 5.121498 8.168985 -6.665689
v 5.530436 8.168985 -6.420326
v 5.530436 8.168985 -6.665689
v 5.121498 8.168985 -6.420326
v 5.121498 8.20808 -6.420326
v 5.530436 8.20808 -6.665689
v 5.530436 8.20808 -6.420326
v 5.121498 8.20808 -6.665689
v 5.121498 8.168985 -6.665689
v 5.530436 8.20808 -6.665689
v 5.121498 8.20808 -6.665689
v 5.530436 8.168985 -6.665689
v 5.530436 8.168985 -6.420326
v 5.121498 8.20808 -6.420326
v 5.530436 8.20808 -6.420326
v 5.121498 8.168985 -6.420326
v -5.510889 8.168985 6.420326
v -5.510889 8.20808 6.665689
v -5.510889 8.168985 6.665689
v -5.510889 8.20808 6.420326
v -5.101951 8.20808 6.420326
v -5.101951 8.168985 6.665689
v -5.101951 8.20808 6.665689
v -5.101951 8.168985 6.420326
v -5.510889 8.168985 6.420326
v -5.101951 8.168985 6.665689
v -5.101951 8.168985 6.420326
v -5.510889 8.168985 6.665689
v -5.510889 8.20808 6.665689
v -5.101951 8.20808 6.420326
v -5.101951 8.20808 6.665689
v -5.510889 8.20808 6.420326
v -5.510889 8.168985 6.420326
v -5.101951 8.20808 6.420326
v -5.510889 8.20808 6.420326
v -5.101951 8.168985 6.420326
v -5.101951 8.168985 6.665689
v -5.510889 8.20808 6.665689
v -5.101951 8.20808 6.665689
v -5.510889 8.168985 6.665689
v -5.510889 8.168985 -0.1226814
v -5.510889 8.20808 0.1226814
v -5.510889 8.168985 0.1226814
v -5.510889 8.20808 -0.1226814
v -5.101951 8.20808 -0.1226814
v -5.101951 8.168985 0.1226814
v -5.101951 8.20808 0.1226814
v -5.101951 8.168985 -0.1226814
v -5.510889 8.168985 -0.1226814
v -5.101951 8.168985 0.1226814
v -5.101951 8.168985 -0.1226814
v -5.510889 8.168985 0.1226814
v -5.510889 8.20808 0.1226814
v -5.101951 8.20808 -0.1226814
v -5.101951 8.20808 0.1226814
v -5.510889 8.20808 -0.1226814
v -5.510889 8.168985 -0.1226814
v -5.101951 8.20808 -0.1226814
v -5.510889 8.20808 -0.1226814
v -5.101951 8.168985 -0.1226814
v -5.101951 8.168985 0.1226814
v -5.510889 8.20808 0.1226814
v -5.101951 8.20808 0.1226814
v -5.510889 8.168985 0.1226814
v -5.510889 8.168985 -6.665689
v -5.510889 8.20808 -6.420326
v -5.510889 8.168985 -6.420326
v -5.510889 8.20808 -6.665689
v -5.101951 8.20808 -6.665689
v -5.101951 8.168985 -6.420326
v -5.101951 8.20808 -6.420326
v -5.101951 8.168985 -6.665689
v -5.510889 8.168985 -6.665689
v -5.101951 8.168985 -6.420326
v -5.101951 8.168985 -6.665689
v -5.510889 8.168985 -6.420326
v -5.510889 8.20808 -6.420326
v -5.101951 8.20808 -6.665689
v -5.101951 8.20808 -6.420326
v -5.510889 8.20808 -6.665689
v -5.510889 8.168985 -6.665689
v -5.101951 8.20808 -6.665689
v -5.510889 8.20808 -6.665689
v -5.101951 8.168985 -6.665689
v -5.101951 8.168985 -6.420326
v -5.510889 8.20808 -6.420326
v -5.101951 8.20808 -6.420326
v -5.510889 8.168985 -6.420326
vt -3.34062 4.65377
vt -3.22629 4.67199
vt -3.22629 4.65377
vt -3.34062 4.67199
vt -3.18342 4.67675
vt -3.06909 4.65854
vt -3.06909 4.67675
vt -3.18342 4.65854
vt 0.571435 -1.07719
vt 0.685764 -0.886642
vt 0.571435 -0.886642
vt 0.685764 -1.07719
vt 0.685764 -1.07719
vt 0.571435 -0.886642
vt 0.685764 -0.886642
vt 0.571435 -1.07719
vt -3.92138 5.13967
vt -3.73083 5.15789
vt -3.92138 5.15789
vt -3.73083 5.13967
vt -3.73083 5.13967
vt -3.92138 5.15789
vt -3.73083 5.15789
vt -3.92138 5.13967
vt -3.34062 4.65377
vt -3.22629 4.67199
vt -3.22629 4.65377
vt -3.34062 4.67199
vt -3.18342 4.67675
vt -3.06909 4.65854
vt -3.06909 4.67675
vt -3.18342 4.65854
vt -3.0871 2.58135
vt -2.97277 2.7719
vt -3.0871 2.7719
vt -2.97277 2.58135
vt -2.97277 2.58135
vt -3.0871 2.7719
vt -2.97277 2.7719
vt -3.0871 2.58135
vt -3.92138 5.13967
vt -3.73083 5.15789
vt -3.92138 5.15789
vt -3.73083 5.13967
vt -3.73083 5.13967
vt -3.92138 5.15789
vt -3.73083 5.15789
vt -3.92138 5.13967
vt -6.31774 7.65989
vt -6.43207 7.67811
vt -6.43207 7.65989
vt -6.31774 7.67811
vt -6.16054 7.68287
vt -6.27487 7.66465
vt -6.27487 7.68287
vt -6.16054 7.66465
vt -1.33861 0.861852
vt -1.14806 0.747523
vt -1.14806 0.861852
vt -1.33861 0.747523
vt -1.33861 0.747523
vt -1.14806 0.861852
vt -1.14806 0.747523
vt -1.33861 0.861852
vt -3.92138 5.13967
vt -3.73083 5.15789
vt -3.92138 5.15789
vt -3.73083 5.13967
vt -3.73083 5.13967
vt -3.92138 5.15789
vt -3.73083 5.15789
vt -3.92138 5.13967
vt -3.26896 4.61111
vt -3.38329 4.62933
vt -3.38329 4.61111
vt -3.26896 4.62933
vt -3.11176 4.63409
vt -3.22609 4.61587
vt -3.22609 4.63409
vt -3.11176 4.61587
vt -1.33861 0.861852
vt -1.14806 0.747523
vt -1.14806 0.861852
vt -1.33861 0.747523
vt -1.33861 0.747523
vt -1.14806 0.861852
vt -1.14806 0.747523
vt -1.33861 0.861852
vt -3.92138 5.13967
vt -3.73083 5.15789
vt -3.92138 5.15789
vt -3.73083 5.13967
vt -3.73083 5.13967
vt -3.92138 5.15789
vt -3.73083 5.15789
vt -3.92138 5.13967
vt -0.220179 1.56233
vt -0.334508 1.58055
vt -0.334508 1.56233
vt -0.220179 1.58055
vt -0.0629756 1.58531
vt -0.177305 1.56709
vt -0.177305 1.58531
vt -0.0629756 1.56709
vt -1.33861 0.861852
vt -1.14806 0.747523
vt -1.14806 0.861852
vt -1.33861 0.747523
vt -1.33861 0.747523
vt -1.14806 0.861852
vt -1.14806 0.747523
vt -1.33861 0.861852
vt -3.92138 5.13967
vt -3.73083 5.15789
vt -3.92138 5.15789
vt -3.73083 5.13967
vt -3.73083 5.13967
vt -3.92138 5.15789
vt -3.73083 5.15789
vt -3.92138 5.13967
vt -6.31774 7.65989
vt -6.43207 7.67811
vt -6.43207 7.65989
vt -6.31774 7.67811
vt -6.16054 7.68287
vt -6.27486 7.66465
vt -6.27486 7.68287
vt -6.16054 7.66465
vt -1.33861 0.861852
vt -1.14806 0.747523
vt -1.14806 0.861852
vt -1.33861 0.747523
vt -1.33861 0.747523
vt -1.14806 0.861852
vt -1.14806 0.747523
vt -1.33861 0.861852
vt -3.92138 5.13967
vt -3.73083 5.15789
vt -3.92138 5.15789
vt -3.73083 5.13967
vt -3.73083 5.13967
vt -3.92138 5.15789
vt -3.73083 5.15789
vt -3.92138 5.13967
vt -3.26896 4.61111
vt -3.38329 4.62933
vt -3.38329 4.61111
vt -3.26896 4.62933
vt -3.11175 4.63409
vt -3.22608 4.61587
vt -3.22608 4.63409
vt -3.11175 4.61587
vt -1.33861 0.861852
vt -1.14806 0.747523
vt -1.14806 0.861852
vt -1.33861 0.747523
vt -1.33861 0.747523
vt -1.14806 0.861852
vt -1.14806 0.747523
vt -1.33861 0.861852
vt -3.92138 5.13967
vt -3.73083 5.15789
vt -3.92138 5.15789
vt -3.73083 5.13967
vt -3.73083 5.13967
vt -3.92138 5.15789
vt -3.73083 5.15789
vt -3.92138 5.13967
vt -0.220178 1.56233
vt -0.334507 1.58055
vt -0.334507 1.56233
vt -0.220178 1.58055
vt -0.0629742 1.58531
vt -0.177303 1.56709
vt -0.177303 1.58531
vt -0.0629742 1.56709
vt -1.33861 0.861852
vt -1.14806 0.747523
vt -1.14806 0.861852
vt -1.33861 0.747523
vt -1.33861 0.747523
vt -1.14806 0.861852
vt -1.14806 0.747523
vt -1.33861 0.861852
vt -3.92138 5.13967
vt -3.73083 5.15789
vt -3.92138 5.15789
vt -3.73083 5.13967
vt -3.73083 5.13967
vt -3.92138 5.15789
vt -3.73083 5.15789
vt -3.92138 5.13967
vn 0 0 1
vn 0 0 1
vn 0 0 1
vn 0 0 1
vn 0 0 -1
vn 0 0 -1
vn 0 0 -1
vn 0 0 -1
vn 0 -1 0
vn 0 -1 0
vn 0 -1 0
vn 0 -1 0
vn 0 1 0
vn 0 1 0
vn 0 1 0
vn 0 1 0
vn -1 0 0
vn -1 0 0
vn -1 0 0
vn -1 0 0
vn 1 0 0
vn 1 0 0
vn 1 0 0
vn 1 0 0
vn 0 0 1
vn 0 0 1
vn 0 0 1
vn 0 0 1
vn 0 0 -1
vn 0 0 -1
vn 0 0 -1
vn 0 0 -1
vn 0 -1 0
vn 0 -1 0
vn 0 -1 0
vn 0 -1 0
vn 0 1 0
vn 0 1 0
vn 0 1 0
vn 0 1 0
vn -1 0 0
vn -1 0 0
vn -1 0 0
vn -1 0 0
vn 1 0 0
vn 1 0 0
vn 1 0 0
vn 1 0 0
vn -1 0 0
vn -1 0 0
vn -1 0 0
vn -1 0 0
vn 1 0 0
vn 1 0 0
vn 1 0 0
vn 1 0 0
vn 0 -1 0
vn 0 -1 0
vn 0 -1 0
vn 0 -1 0
vn 0 1 0
vn 0 1 0
vn 0 1 0
vn 0 1 0
vn 0 0 -1
vn 0 0 -1
vn 0 0 -1
vn 0 0 -1
vn 0 0 1
vn 0 0 1
vn 0 0 1
vn 0 0 1
vn -1 0 0
vn -1 0 0
vn -1 0 0
vn -1 0 0
vn 1 0 0
vn 1 0 0
vn 1 0 0
vn 1 0 0
vn 0 -1 0
vn 0 -1 0
vn 0 -1 0
vn 0 -1 0
vn 0 1 0
vn 0 1 0
vn 0 1 0
vn 0 1 0
vn 0 0 -1
vn 0 0 -1
vn 0 0 -1
vn 0 0 -1
vn 0 0 1
vn 0 0 1
vn 0 0 1
vn 0 0 1
vn -1 0 0
vn -1 0 0
vn -1 0 0
vn -1 0 0
vn 1 0 0
vn 1 0 0
vn 1 0 0
vn 1 0 0
vn 0 -1 0
vn 0 -1 0
vn 0 -1 0
vn 0 -1 0
vn 0 1 0
vn 0 1 0
vn 0 1 0
vn 0 1 0
vn 0 0 -1
vn 0 0 -1
vn 0 0 -1
vn 0 0 -1
vn 0 0 1
vn 0 0 1
vn 0 0 1
vn 0 0 1
vn -1 0 0
vn -1 0 0
vn -1 0 0
vn -1 0 0
vn 1 0 0
vn 1 0 0
vn 1 0 0
vn 1 0 0
vn 0 -1 0
vn 0 -1 0
vn 0 -1 0
vn 0 -1 0
vn 0 1 0
vn 0 1 0
vn 0 1 0
vn 0 1 0
vn 0 0 -1
vn 0 0 -1
vn 0 0 -1
vn 0 0 -1
vn 0 0 1
vn 0 0 1
vn 0 0 1
vn 0 0 1
vn -1 0 0
vn -1 0 0
vn -1 0 0
vn -1 0 0
vn 1 0 0
vn 1 0 0
vn 1 0 0
vn 1 0 0
vn 0 -1 0
vn 0 -1 0
vn 0 -1 0
vn 0 -1 0
vn 0 1 0
vn 0 1 0
vn 0 1 0
vn 0 1 0
vn 0 0 -1
vn 0 0 -1
vn 0 0 -1
vn 0 0 -1
vn 0 0 1
vn 0 0 1
vn 0 0 1
vn 0 0 1
vn -1 0 0
vn -1 0 0
vn -1 0 0
vn -1 0 0
vn 1 0 0
vn 1 0 0
vn 1 0 0
vn 1 0 0
vn 0 -1 0
vn 0 -1 0
vn 0 -1 0
vn 0 -1 0
vn 0 1 0
vn 0 1 0
vn 0 1 0
vn 0 1 0
vn 0 0 -1
vn 0 0 -1
vn 0 0 -1
vn 0 0 -1
vn 0 0 1
vn 0 0 1
vn 0 0 1
vn 0 0 1
g Lamps_0
f 3/3/3 2/2/2 1/1/1
f 2/2/2 4/4/4 1/1/1
f 7/7/7 6/6/6 5/5/5
f 6/6/6 8/8/8 5/5/5
f 11/11/11 10/10/10 9/9/9
f 10/10/10 12/12/12 9/9/9
f 15/15/15 14/14/14 13/13/13
f 14/14/14 16/16/16 13/13/13
f 19/19/19 18/18/18 17/17/17
f 18/18/18 20/20/20 17/17/17
f 23/23/23 22/22/22 21/21/21
f 22/22/22 24/24/24 21/21/21
f 27/27/27 26/26/26 25/25/25
f 26/26/26 28/28/28 25/25/25
f 31/31/31 30/30/30 29/29/29
f 30/30/30 32/32/32 29/29/29
f 35/35/35 34/34/34 33/33/33
f 34/34/34 36/36/36 33/33/33
f 39/39/39 38/38/38 37/37/37
f 38/38/38 40/40/40 37/37/37
f 43/43/43 42/42/42 41/41/41
f 42/42/42 44/44/44 41/41/41
f 47/47/47 46/46/46 45/45/45
f 46/46/46 48/48/48 45/45/45
f 51/51/51 50/50/50 49/49/49
f 50/50/50 52/52/52 49/49/49
f 55/55/55 54/54/54 53/53/53
f 54/54/54 56/56/56 53/53/53
f 59/59/59 58/58/58 57/57/57
f 58/58/58 60/60/60 57/57/57
f 63/63/63 62/62/62 61/61/61
f 62/62/62 64/64/64 61/61/61
f 67/67/67 66/66/66 65/65/65
f 66/66/66 68/68/68 65/65/65
f 71/71/71 70/70/70 69/69/69
f 70/70/70 72/72/72 69/69/69
f 75/75/75 74/74/74 73/73/73
f 74/74/74 76/76/76 73/73/73
f 79/79/79 78/78/78 77/77/77
f 78/78/78 80/80/80 77/77/77
f 83/83/83 82/82/82 81/81/81
f 82/82/82 84/84/84 81/81/81
f 87/87/87 86/86/86 85/85/85
f 86/86/86 88/88/88 85/85/85
f 91/91/91 90/90/90 89/89/89
f 90/90/90 92/92/92 89/89/89
f 95/95/95 94/94/94 93/93/93
f 94/94/94 96/96/96 93/93/93
f 99/99/99 98/98/98 97/97/97
f 98/98/98 100/100/100 97/97/97
f 103/103/103 102/102/102 101/101/101
f 102/102/102 104/104/104 101/101/101
f 107/107/107 106/106/106 105/105/105
f 106/106/106 108/108/108 105/105/105
f 111/111/111 110/110/110 109/109/109
f 110/110/110 112/112/112 109/109/109
f 115/115/115 114/114/114 113/113/113
f 114/114/114 116/116/116 113/113/113
f 119/119/119 118/118/118 117/117/117
f 118/118/118 120/120/120 117/117/117
f 123/123/123 122/122/122 121/121/121
f 122/122/122 124/124/124 121/121/121
f 127/127/127 126/126/126 125/125/125
f 126/126/126 128/128/128 125/125/125
f 131/131/131 130/130/130 129/129/129
f 130/130/130 132/132/132 129/129/129
f 135/135/135 134/134/134 133/133/133
f 134/134/134 136/136/136 133/133/133
f 139/139/139 138/138/138 137/137/137
f 138/138/138 140/140/140 137/137/137
f 143/143/143 142/142/142 141/141/141
f 142/142/142 144/144/144 141/141/141
f 147/147/147 146/146/146 145/145/145
f 146/146/146 148/148/148 145/145/145
f 151/151/151 150/150/150 149/149/149
f 150/150/150 152/152/152 149/149/149
f 155/155/155 154/154/154 153/153/153
f 154/154/154 156/156/156 153/153/153
f 159/159/159 158/158/158 157/157/157
f 158/158/158 160/160/160 157/157/157
f 163/163/163 162/162/162 161/161/161
f 162/162/162 164/164/164 161/161/161
f 167/167/167 166/166/166 165/165/165
f 166/166/166 168/168/168 165/165/165
f 171/171/171 170/170/170 169/169/169
f 170/170/170 172/172/172 169/169/169
f 175/175/175 174/174/174 173/173/173
f 174/174/174 176/176/176 173/173/173
f 179/179/179 178/178/178 177/177/177
f 178/178/178 180/180/180 177/177/177
f 183/183/183 182/182/182 181/181/181
f 182/182/182 184/184/184 181/181/181
f 187/187/187 186/186/186 185/185/185
f 186/186/186 188/188/188 185/185/185
f 191/191/191 190/190/190 189/189/189
f 190/190/190 192/192/192 189/189/189
