g LampSquare
v 0.01 -0.01 -0.001149985
v -0.01 -0.01 -0.001149985
v -0.01 -0.01 0.001149985
v 0.01 -0.01 0.001149985
v -0.01 -0.01 -0.001149985
v -0.01 0.01 -0.001149985
v -0.01 0.01 0.001149985
v -0.01 -0.01 0.001149985
v 0.01 0.01 -0.001149985
v 0.01 -0.01 -0.001149985
v 0.01 -0.01 0.001149985
v 0.01 0.01 0.001149985
v -0.01 0.01 -0.001149985
v 0.01 0.01 -0.001149985
v 0.01 0.01 0.001149985
v -0.01 0.01 0.001149985
v 0.00922457 0.00922457 0.001149985
v 0.00922457 0.00922457 0.0006941603
v -0.00922457 0.00922457 0.0006941603
v -0.00922457 0.00922457 0.001149985
v 0.00922457 -0.00922457 0.001149985
v 0.00922457 -0.00922457 0.0006941603
v 0.00922457 0.00922457 0.0006941603
v 0.00922457 0.00922457 0.001149985
v -0.00922457 0.00922457 0.001149985
v -0.00922457 0.00922457 0.0006941603
v -0.00922457 -0.00922457 0.0006941603
v -0.00922457 -0.00922457 0.001149985
v -0.00922457 -0.00922457 0.001149985
v -0.00922457 -0.00922457 0.0006941603
v 0.00922457 -0.00922457 0.0006941603
v 0.00922457 -0.00922457 0.001149985
v 0.008798251 0.008798251 0.0006941603
v 0.008798251 0.008798251 0.01147953
v -0.008798251 0.008798251 0.01147953
v -0.008798251 0.008798251 0.0006941603
v 0.008383947 -0.008383947 -0.001149985
v 0.008383947 -0.008383947 -0.0008486237
v -0.008383947 -0.008383947 -0.0008486237
v -0.008383947 -0.008383947 -0.001149985
v 0.008798251 -0.008798251 0.0006941603
v 0.008798251 -0.008798251 0.01147953
v 0.008798251 0.008798251 0.01147953
v 0.008798251 0.008798251 0.0006941603
v -0.008798251 0.008798251 0.0006941603
v -0.008798251 0.008798251 0.01147953
v -0.008798251 -0.008798251 0.01147953
v -0.008798251 -0.008798251 0.0006941603
v -0.008798251 -0.008798251 0.0006941603
v -0.008798251 -0.008798251 0.01147953
v 0.008798251 -0.008798251 0.01147953
v 0.008798251 -0.008798251 0.0006941603
v -0.008383947 -0.008383947 -0.001149985
v -0.008383947 -0.008383947 -0.0008486237
v -0.008383947 0.008383947 -0.0008486237
v -0.008383947 0.008383947 -0.001149985
v 0.008383947 0.008383947 -0.001149985
v 0.008383947 0.008383947 -0.0008486237
v 0.008383947 -0.008383947 -0.0008486237
v 0.008383947 -0.008383947 -0.001149985
v -0.008383947 0.008383947 -0.001149985
v -0.008383947 0.008383947 -0.0008486237
v 0.008383947 0.008383947 -0.0008486237
v 0.008383947 0.008383947 -0.001149985
v -0.01 0.01 -0.001149985
v 0.008383947 0.008383947 -0.001149985
v 0.01 0.01 -0.001149985
v -0.008383947 0.008383947 -0.001149985
v 0.008383947 -0.008383947 -0.001149985
v -0.01 -0.01 -0.001149985
v 0.01 -0.01 -0.001149985
v -0.008383947 -0.008383947 -0.001149985
v -0.01 -0.01 0.001149985
v -0.00922457 -0.00922457 0.001149985
v 0.00922457 -0.00922457 0.001149985
v 0.01 -0.01 0.001149985
v -0.01 0.01 0.001149985
v 0.00922457 0.00922457 0.001149985
v -0.00922457 0.00922457 0.001149985
v 0.01 0.01 0.001149985
v -0.00922457 0.00922457 0.0006941603
v -0.008798251 -0.008798251 0.0006941603
v -0.00922457 -0.00922457 0.0006941603
v -0.008798251 0.008798251 0.0006941603
v 0.008798251 -0.008798251 0.0006941603
v 0.00922457 0.00922457 0.0006941603
v 0.00922457 -0.00922457 0.0006941603
v 0.008798251 0.008798251 0.0006941603
v -0.008383947 0.008383947 -0.0008486237
v -0.008383947 -0.008383947 -0.0008486237
v 0.008383947 -0.008383947 -0.0008486237
v 0.008383947 0.008383947 -0.0008486237
vt 0.7182081 0.9889091
vt 0.7182081 0.7444541
vt 0.6900961 0.7444541
vt 0.6900961 0.9889091
vt 0.7182081 0.7444541
vt 0.7182081 0.4999994
vt 0.6900962 0.4999994
vt 0.6900961 0.7444541
vt 0.7182081 0.255545
vt 0.7182081 0.01109089
vt 0.6900963 0.01109089
vt 0.6900962 0.255545
vt 0.7182081 0.4999994
vt 0.7182081 0.255545
vt 0.6900962 0.255545
vt 0.6900962 0.4999994
vt 0.4317357 0.2481021
vt 0.434588 0.244972
vt 0.4345984 0.01393599
vt 0.4317461 0.01109089
vt 0.6679144 0.2475406
vt 0.6650621 0.244695
vt 0.434588 0.244972
vt 0.4317357 0.2481021
vt 0.4317461 0.01109089
vt 0.4345984 0.01393599
vt 0.6650656 0.01422707
vt 0.6679144 0.01138152
vt 0.6679144 0.01138152
vt 0.6650656 0.01422707
vt 0.6650621 0.244695
vt 0.6679144 0.2475406
vt 0.01109092 0.6563227
vt 0.1429175 0.6563227
vt 0.1429175 0.4412454
vt 0.01109089 0.4412454
vt 0.7699397 0.2160304
vt 0.7662564 0.2160304
vt 0.7662557 0.4210075
vt 0.7699397 0.4210075
vt 0.01109097 0.8713999
vt 0.1429176 0.8713998
vt 0.1429175 0.6563227
vt 0.01109092 0.6563227
vt 0.01109089 0.4412454
vt 0.1429175 0.4412454
vt 0.1429175 0.2261682
vt 0.0110909 0.2261682
vt 0.0110909 0.2261682
vt 0.1429175 0.2261682
vt 0.1429175 0.01109089
vt 0.01109093 0.01109089
vt 0.7440732 0.01109089
vt 0.7403906 0.01109089
vt 0.7403906 0.2160304
vt 0.7440739 0.2160304
vt 0.7699389 0.01109089
vt 0.7662564 0.01109089
vt 0.7662564 0.2160304
vt 0.7699397 0.2160304
vt 0.7440739 0.2160304
vt 0.7403906 0.2160304
vt 0.7403899 0.4210074
vt 0.7440739 0.4210074
vt 0.4095539 0.01109089
vt 0.3898013 0.2357929
vt 0.4095539 0.2555455
vt 0.3898013 0.03084353
vt 0.184852 0.2357928
vt 0.1650994 0.01109091
vt 0.1650993 0.2555454
vt 0.184852 0.03084355
vt 0.4095539 0.2777273
vt 0.4000762 0.287205
vt 0.4000762 0.5127042
vt 0.4095539 0.5221819
vt 0.1650993 0.2777273
vt 0.174577 0.5127041
vt 0.174577 0.287205
vt 0.1650993 0.5221819
vt 0.4317357 0.2777273
vt 0.652024 0.2829379
vt 0.6572345 0.2777273
vt 0.4369463 0.2829379
vt 0.652024 0.4980155
vt 0.4317357 0.5032262
vt 0.6572345 0.5032261
vt 0.4369463 0.4980155
vt 9.998001E-05 0.0001001932
vt 0.0001002643 0.9999
vt 0.9999 0.9999
vt 0.9999 9.998001E-05
vn 0 -1 0
vn 0 -1 0
vn 0 -1 0
vn 0 -1 0
vn -1 0 0
vn -1 0 0
vn -1 0 0
vn -1 0 0
vn 1 0 0
vn 1 0 0
vn 1 0 0
vn 1 0 0
vn 0 1 0
vn 0 1 0
vn 0 1 0
vn 0 1 0
vn 0 -1 0
vn 0 -1 0
vn 0 -1 0
vn 0 -1 0
vn -1 0 0
vn -1 0 0
vn -1 0 0
vn -1 0 0
vn 1 0 0
vn 1 0 0
vn 1 0 0
vn 1 0 0
vn 0 1 0
vn 0 1 0
vn 0 1 0
vn 0 1 0
vn 0 1 0
vn 0 1 0
vn 0 1 0
vn 0 1 0
vn 0 1 0
vn 0 1 0
vn 0 1 0
vn 0 1 0
vn 1 0 0
vn 1 0 0
vn 1 0 0
vn 1 0 0
vn -1 0 0
vn -1 0 0
vn -1 0 0
vn -1 0 0
vn 0 -1 0
vn 0 -1 0
vn 0 -1 0
vn 0 -1 0
vn 1 0 0
vn 1 0 0
vn 1 0 0
vn 1 0 0
vn -1 0 0
vn -1 0 0
vn -1 0 0
vn -1 0 0
vn 0 -1 0
vn 0 -1 0
vn 0 -1 0
vn 0 -1 0
vn 0 0 -1
vn 0 0 -1
vn 0 0 -1
vn 0 0 -1
vn 0 0 -1
vn 0 0 -1
vn 0 0 -1
vn 0 0 -1
vn 0 0 1
vn 0 0 1
vn 0 0 1
vn 0 0 1
vn 0 0 1
vn 0 0 1
vn 0 0 1
vn 0 0 1
vn 0 0 1
vn 0 0 1
vn 0 0 1
vn 0 0 1
vn 0 0 1
vn 0 0 1
vn 0 0 1
vn 0 0 1
vn 0 0 -1
vn 0 0 -1
vn 0 0 -1
vn 0 0 -1
g LampSquare_0
f 3/3/3 2/2/2 1/1/1
f 4/4/4 3/3/3 1/1/1
f 7/7/7 6/6/6 5/5/5
f 8/8/8 7/7/7 5/5/5
f 11/11/11 10/10/10 9/9/9
f 12/12/12 11/11/11 9/9/9
f 15/15/15 14/14/14 13/13/13
f 16/16/16 15/15/15 13/13/13
f 19/19/19 18/18/18 17/17/17
f 20/20/20 19/19/19 17/17/17
f 23/23/23 22/22/22 21/21/21
f 24/24/24 23/23/23 21/21/21
f 27/27/27 26/26/26 25/25/25
f 28/28/28 27/27/27 25/25/25
f 31/31/31 30/30/30 29/29/29
f 32/32/32 31/31/31 29/29/29
f 35/35/35 34/34/34 33/33/33
f 36/36/36 35/35/35 33/33/33
f 39/39/39 38/38/38 37/37/37
f 40/40/40 39/39/39 37/37/37
f 43/43/43 42/42/42 41/41/41
f 44/44/44 43/43/43 41/41/41
f 47/47/47 46/46/46 45/45/45
f 48/48/48 47/47/47 45/45/45
f 51/51/51 50/50/50 49/49/49
f 52/52/52 51/51/51 49/49/49
f 55/55/55 54/54/54 53/53/53
f 56/56/56 55/55/55 53/53/53
f 59/59/59 58/58/58 57/57/57
f 60/60/60 59/59/59 57/57/57
f 63/63/63 62/62/62 61/61/61
f 64/64/64 63/63/63 61/61/61
f 67/67/67 66/66/66 65/65/65
f 66/66/66 68/68/68 65/65/65
f 69/69/69 66/66/66 67/67/67
f 65/65/65 68/68/68 70/70/70
f 71/71/71 69/69/69 67/67/67
f 68/68/68 72/72/72 70/70/70
f 72/72/72 69/69/69 71/71/71
f 70/70/70 72/72/72 71/71/71
f 75/75/75 74/74/74 73/73/73
f 76/76/76 75/75/75 73/73/73
f 73/73/73 74/74/74 77/77/77
f 78/78/78 75/75/75 76/76/76
f 74/74/74 79/79/79 77/77/77
f 80/80/80 78/78/78 76/76/76
f 77/77/77 79/79/79 80/80/80
f 79/79/79 78/78/78 80/80/80
f 83/83/83 82/82/82 81/81/81
f 82/82/82 84/84/84 81/81/81
f 85/85/85 82/82/82 83/83/83
f 81/81/81 84/84/84 86/86/86
f 87/87/87 85/85/85 83/83/83
f 84/84/84 88/88/88 86/86/86
f 88/88/88 85/85/85 87/87/87
f 86/86/86 88/88/88 87/87/87
g LampSquare_1
f 91/91/91 90/90/90 89/89/89
f 92/92/92 91/91/91 89/89/89
