g LCZ_AirlockRoom_LOD1
v -10.43614 -0.05464077 -2.941589
v -10.10112 -0.05464077 -2.941589
v -10.10112 8.178711 -2.941589
v -10.43614 8.178711 -2.941589
v 10.43614 -0.05464077 2.941589
v 10.10112 -0.05464077 2.941589
v 10.10112 8.178711 2.941589
v 10.43614 8.178711 2.941589
v -10.10112 -0.05464077 2.941589
v -10.43614 -0.05464077 2.941589
v -10.43614 8.178711 2.941589
v -10.10112 8.178711 2.941589
v -10.10112 3.271484 0.9814453
v -10.10112 -0.05464077 0.9814453
v -10.10112 3.271484 -0.9814453
v -10.10112 8.178711 -2.941589
v -10.10112 -0.05464077 -0.9814453
v -10.10112 -0.05464077 -2.941589
v -10.43614 8.178711 -2.941589
v -10.43614 8.178711 2.941589
v -10.43614 -0.05464077 -2.941589
v -10.43614 -0.05464077 -0.9814453
v -10.10112 -0.05464077 -0.9814453
v -10.10112 -0.05464077 -2.941589
v -10.43614 3.271484 0.9814453
v -10.10112 3.271484 0.9814453
v -10.10112 3.271484 -0.9814453
v -10.43614 3.271484 -0.9814453
v -10.43614 -0.05464077 0.9814453
v -10.10112 -0.05464077 0.9814453
v -10.10112 3.271484 0.9814453
v -10.43614 3.271484 0.9814453
v -10.43614 3.271484 -0.9814453
v -10.10112 3.271484 -0.9814453
v -10.10112 -0.05464077 -0.9814453
v -10.43614 -0.05464077 -0.9814453
v 10.10112 -0.05464077 -0.9814453
v 10.43614 -0.05464077 -0.9814453
v 10.43614 -0.05464077 -2.941589
v 10.10112 -0.05464077 -2.941589
v 10.10112 -0.05464077 -2.941589
v 10.43614 -0.05464077 -2.941589
v 10.43614 8.178711 -2.941589
v 10.10112 8.178711 -2.941589
v 10.10112 3.271484 -0.9814453
v 10.10112 -0.05464077 -0.9814453
v 10.10112 3.271484 0.9814453
v 10.10112 8.178711 2.941589
v 10.10112 -0.05464077 0.9814453
v 10.10112 -0.05464077 2.941589
v 10.43614 8.178711 2.941589
v 10.43614 8.178711 -2.941589
v 10.43614 -0.05464077 2.941589
v 10.43614 -0.05464077 0.9814453
v 10.10112 -0.05464077 0.9814453
v 10.10112 -0.05464077 2.941589
v 10.43614 3.271484 -0.9814453
v 10.10112 3.271484 -0.9814453
v 10.10112 3.271484 0.9814453
v 10.43614 3.271484 0.9814453
v 10.43614 -0.05464077 -0.9814453
v 10.10112 -0.05464077 -0.9814453
v 10.10112 3.271484 -0.9814453
v 10.43614 3.271484 -0.9814453
v 10.43614 3.271484 0.9814453
v 10.10112 3.271484 0.9814453
v 10.10112 -0.05464077 0.9814453
v 10.43614 -0.05464077 0.9814453
v -10.10112 -0.05464077 0.9814453
v -10.43614 -0.05464077 0.9814453
v -10.43614 -0.05464077 2.941589
v -10.10112 -0.05464077 2.941589
v -2.805489 5.040901 2.819049
v -2.85496 5.356675 2.611287
v -3.553952 5.335478 2.646719
v -2.846189 5.092972 -2.790366
v -3.552938 5.337712 -2.648465
v -2.854084 5.354496 -2.608288
v 4.401433 -0.05463929 -0.98145
v 4.401433 3.271499 -0.98145
v 4.401433 -0.05463928 -1.03007
v 4.401433 4.271499 -1.03007
v 10.10114 -0.05463928 -1.03007
v 10.10114 4.271499 -1.03007
v 4.401433 4.271499 1.03007
v 4.401433 3.271499 0.9814506
v 4.401433 -0.05463928 0.9698962
v 10.10114 -0.05463928 1.03007
v 4.401433 4.271499 1.03007
v 4.401433 -0.05463928 0.9698962
v 10.10114 4.271499 1.03007
v 4.401433 4.271499 -1.03007
v 10.10114 4.271499 -1.03007
v 4.401433 3.271499 0.9814506
v 4.160333 3.271499 0.9814506
v 4.146609 0.2683283 0.9814506
v 4.128712 5.399038E-05 0.9814506
v 4.401433 -0.05463928 0.9698962
v 4.128712 5.399038E-05 0.9814506
v 4.138103 0.2630608 2.836442
v 4.127329 8.869171E-07 2.836442
v 4.160332 5.72127 2.836438
v 4.160333 3.271499 0.9814506
v 4.160333 3.271499 -0.98145
v 4.160333 5.72127 -2.836438
v 4.142658 0.2658818 -0.98145
v 4.141844 0.2653775 -2.836442
v 4.127329 8.869171E-07 -2.836442
v 4.12686 -4.226094E-05 -0.98145
v 4.401433 3.271499 -0.98145
v 4.160333 3.271499 -0.98145
v 4.401433 -0.05463929 -0.98145
v 4.12686 -4.226094E-05 -0.98145
v -4.401433 -0.05463929 0.98145
v -4.401433 3.271499 0.98145
v -4.401433 -0.05463928 1.03007
v -4.401433 4.271499 1.03007
v -10.10114 -0.05463928 1.03007
v -10.10114 4.271499 1.03007
v -4.401433 4.271499 -1.03007
v -4.401433 3.271499 -0.9814506
v -4.401433 -0.05463928 -0.9698961
v -10.10114 -0.05463928 -1.03007
v -4.401433 4.271499 -1.03007
v -4.401433 -0.05463928 -0.9698961
v -10.10114 4.271499 -1.03007
v -4.401433 4.271499 1.03007
v -10.10114 4.271499 1.03007
v -4.401433 3.271499 -0.9814506
v -4.160333 3.271499 -0.9814506
v -4.146609 0.2683283 -0.9814506
v -4.128712 5.399038E-05 -0.9814506
v -4.401433 -0.05463928 -0.9698961
v -4.128712 5.399038E-05 -0.9814506
v -4.138103 0.2630608 -2.836442
v -4.127329 8.869171E-07 -2.836442
v -4.160332 5.72127 -2.836438
v -4.160333 3.271499 -0.9814506
v -4.160333 3.271499 0.98145
v -4.160333 5.72127 2.836438
v -4.142658 0.2658818 0.98145
v -4.141844 0.2653775 2.836442
v -4.127329 8.869171E-07 2.836442
v -4.12686 -4.226094E-05 0.98145
v -4.401433 3.271499 0.98145
v -4.160333 3.271499 0.98145
v -4.401433 -0.05463929 0.98145
v -4.12686 -4.226094E-05 0.98145
v 2.85496 5.356675 2.611287
v 2.242928 5.719504 2.271673
v 2.804967 5.042615 2.817684
v 3.557042 5.333719 2.626453
v 4.160339 5.719564 2.272714
v 4.160339 5.033801 2.833632
v 2.804967 5.042615 2.817684
v 2.800374 1.971288 2.833516
v 4.160339 1.972173 2.833019
v 4.160339 1.307427 2.284727
v 2.252141 1.306222 2.285157
v 2.223629 0.2673527 2.254928
v 4.14356 0.271907 2.259268
v 4.127335 8.869171E-07 2.238338
v 2.198269 8.535385E-07 2.230934
v 4.160333 3.271499 -0.98145
v 4.160333 3.271499 0.9814506
v 4.401433 3.271499 0.9814506
v 4.401433 3.271499 -0.98145
v -2.800374 1.971288 2.833516
v -4.160339 1.307426 2.284727
v -2.25214 1.306222 2.285157
v -4.160339 1.972173 2.833019
v -4.16034 5.034219 2.833547
v -2.805489 5.040901 2.819049
v -3.553952 5.335478 2.646719
v -4.160339 5.719564 2.272714
v -2.242433 5.719566 2.271762
v -4.160339 5.719564 2.272714
v -2.85496 5.356675 2.611287
v -2.805489 5.040901 2.819049
v -4.160333 3.271499 0.98145
v -4.160333 3.271499 -0.9814506
v -4.401433 3.271499 -0.9814506
v -4.401433 3.271499 0.98145
v 2.85496 5.356675 2.611287
v 3.567663 5.395672 2.785312
v 3.557042 5.333719 2.626453
v 2.804967 5.042615 2.817684
v 3.557042 5.333719 2.626453
v 4.160339 5.033572 -2.833775
v 3.552907 5.337882 -2.648586
v 4.160339 5.719214 -2.270977
v -2.846189 5.092972 -2.790366
v 2.863856 5.337712 -2.648465
v 4.160339 5.719214 -2.270977
v -2.854084 5.354496 -2.608288
v -4.160339 5.719965 -2.274727
v -3.552938 5.337712 -2.648465
v -4.160339 5.032332 -2.833421
v 4.160339 1.97132 -2.833722
v -4.160339 1.973749 -2.833358
v -4.160339 1.307427 -2.284727
v 4.160339 1.306962 -2.286005
v 4.143464 0.2702008 -2.259852
v -4.143222 0.2704049 -2.258961
v 4.127347 8.751782E-07 -2.235376
v -4.127342 8.765457E-07 -2.236487
v 10.43614 5.7 -10.43614
v -10.43614 5.7 -10.43614
v -10.43614 5.7 10.43614
v 10.43614 5.7 10.43614
v -10.43614 0.01884473 -10.43614
v 10.43614 0.01884473 -10.43614
v 10.43614 0.01884473 10.43614
v -10.43614 0.01884473 10.43614
vt 0.8417395 0.07040571
vt 0.8058943 0.07053136
vt 0.8085626 0.9526249
vt 0.8444874 0.9525534
vt 0.8417395 0.07040571
vt 0.8058943 0.07053136
vt 0.8085626 0.9526249
vt 0.8444874 0.9525534
vt 0.1734561 0.06944721
vt 0.137295 0.06969254
vt 0.1421653 0.9544243
vt 0.1780775 0.9542908
vt 0.3876231 0.4268918
vt 0.385085 0.06795599
vt 0.5977508 0.4269603
vt 0.8085626 0.9526249
vt 0.5962906 0.07143112
vt 0.8058943 0.07053136
vt 0.8086181 0.9885437
vt 0.1782217 0.9901679
vt 0.8057667 0.03468918
vt 0.5961311 0.03559294
vt 0.5962906 0.07143112
vt 0.8058943 0.07053136
vt 0.08655512 0.5603029
vt 0.1211424 0.5603653
vt 0.1210936 0.358837
vt 0.08675009 0.3588322
vt 0.08580226 0.9045247
vt 0.1204844 0.9045939
vt 0.1211424 0.5603653
vt 0.08655512 0.5603029
vt 0.08675009 0.3588322
vt 0.1210936 0.358837
vt 0.1213641 0.01788718
vt 0.08706409 0.01789016
vt 0.385085 0.06795599
vt 0.3848158 0.03175386
vt 0.1732147 0.03327625
vt 0.1734561 0.06944721
vt 0.1734561 0.06944721
vt 0.137295 0.06969254
vt 0.1421653 0.9544243
vt 0.1780775 0.9542908
vt 0.3876231 0.4268918
vt 0.385085 0.06795599
vt 0.5977508 0.4269603
vt 0.8085626 0.9526249
vt 0.5962906 0.07143112
vt 0.8058943 0.07053136
vt 0.8086181 0.9885437
vt 0.1782217 0.9901679
vt 0.8057667 0.03468918
vt 0.5961311 0.03559294
vt 0.5962906 0.07143112
vt 0.8058943 0.07053136
vt 0.08655512 0.5603029
vt 0.1211424 0.5603653
vt 0.1210936 0.358837
vt 0.08675009 0.3588322
vt 0.08580226 0.9045247
vt 0.1204844 0.9045939
vt 0.1211424 0.5603653
vt 0.08655512 0.5603029
vt 0.08675009 0.3588322
vt 0.1210936 0.358837
vt 0.1213641 0.01788718
vt 0.08706409 0.01789016
vt 0.385085 0.06795599
vt 0.3848158 0.03175386
vt 0.1732147 0.03327625
vt 0.1734561 0.06944721
vt 0.3854393 0.1244495
vt 0.3854393 0.1537992
vt 0.4322827 0.1509319
vt 0.4284192 0.0458777
vt 0.3816494 0.07233556
vt 0.4303831 0.07343753
vt 0.4774143 0.006591856
vt 0.4774143 0.2055486
vt 0.4898894 0.006591797
vt 0.4898889 0.2653648
vt 0.8308237 0.006593168
vt 0.8308227 0.2653662
vt 0.3475266 0.2653648
vt 0.3600011 0.2055486
vt 0.3516846 0.006591856
vt 0.006591797 0.006592214
vt 0.3475266 0.2653648
vt 0.3516846 0.006591856
vt 0.006592155 0.2653652
vt 0.3475266 0.4077274
vt 0.006592274 0.4077276
vt 0.7266223 0.4714193
vt 0.741044 0.4714193
vt 0.7410439 0.2910877
vt 0.7410439 0.2753886
vt 0.7266222 0.2724622
vt 0.741044 0.2745423
vt 0.8520025 0.290488
vt 0.8520025 0.2745423
vt 0.8520023 0.6179548
vt 0.741044 0.4714193
vt 0.6236306 0.4714187
vt 0.5126724 0.6179548
vt 0.6236309 0.2908191
vt 0.5126722 0.2907493
vt 0.5126722 0.2745423
vt 0.6236308 0.2745423
vt 0.6380523 0.4714187
vt 0.6236306 0.4714187
vt 0.6380527 0.2724621
vt 0.6236309 0.2753124
vt 0.4774143 0.006591856
vt 0.4774143 0.2055486
vt 0.4898894 0.006591797
vt 0.4898889 0.2653648
vt 0.8308237 0.006593168
vt 0.8308227 0.2653662
vt 0.3475266 0.2653648
vt 0.3600011 0.2055486
vt 0.3516846 0.006591856
vt 0.006591797 0.006592214
vt 0.3475266 0.2653648
vt 0.3516846 0.006591856
vt 0.006592155 0.2653652
vt 0.3475266 0.4077274
vt 0.006592274 0.4077276
vt 0.7266223 0.4714193
vt 0.741044 0.4714193
vt 0.7410439 0.2910877
vt 0.7410439 0.2753886
vt 0.7266222 0.2724622
vt 0.741044 0.2745423
vt 0.8520025 0.290488
vt 0.8520025 0.2745423
vt 0.8520023 0.6179548
vt 0.741044 0.4714193
vt 0.6236306 0.4714187
vt 0.5126724 0.6179548
vt 0.6236309 0.2908191
vt 0.5126722 0.2907493
vt 0.5126722 0.2745423
vt 0.6236308 0.2745423
vt 0.6380523 0.4714187
vt 0.6236306 0.4714187
vt 0.6380527 0.2724621
vt 0.6236309 0.2753124
vt 0.9384588 0.3451032
vt 0.9738329 0.3757126
vt 0.9413227 0.3223473
vt 0.8955142 0.3424667
vt 0.8596985 0.3738867
vt 0.8602241 0.3211894
vt 0.9413227 0.3223473
vt 0.9423485 0.1383381
vt 0.8608068 0.1380972
vt 0.8609612 0.086574
vt 0.9749344 0.08679888
vt 0.9768617 0.02313648
vt 0.8620015 0.02324314
vt 0.863116 0.006679072
vt 0.9785171 0.006591797
vt 0.3724204 0.3898729
vt 0.3716543 0.2724621
vt 0.3572333 0.2725561
vt 0.3579986 0.3899671
vt 0.8958791 0.5143721
vt 0.9772662 0.4626079
vt 0.8632931 0.462833
vt 0.9774208 0.5141312
vt 0.9780033 0.6972234
vt 0.8968906 0.698288
vt 0.9427163 0.7185054
vt 0.9785288 0.749921
vt 0.8643934 0.7517496
vt 0.9785288 0.749921
vt 0.8997687 0.7211372
vt 0.8968906 0.698288
vt 0.3724204 0.3898729
vt 0.3716543 0.2724621
vt 0.3572333 0.2725561
vt 0.3579986 0.3899671
vt 0.4303208 0.1126117
vt 0.3854393 0.1025251
vt 0.3810831 0.1127981
vt 0.4284192 0.08516362
vt 0.3854393 0.08516362
vt 0.5043892 0.7299483
vt 0.468778 0.752062
vt 0.5040471 0.7833422
vt 0.0854297 0.7345296
vt 0.4257857 0.7462853
vt 0.5040471 0.7833422
vt 0.08511575 0.753209
vt 0.00695564 0.7832969
vt 0.04220752 0.7511342
vt 0.006618874 0.7298498
vt 0.5044177 0.54665
vt 0.006592807 0.546784
vt 0.006598591 0.4951309
vt 0.5044066 0.4951156
vt 0.5034954 0.4317472
vt 0.007522741 0.4317512
vt 0.5024407 0.4152036
vt 0.008554953 0.4152372
vt 1.192093E-07 0.9999999
vt 1 0.9999999
vt 1 -2.980232E-08
vt 1.192093E-07 -2.980232E-08
vt 0 0.9999999
vt 1 1
vt 1 5.960464E-08
vt 0 0
vn 0 0 -1
vn 0 0 -1
vn 0.5773501 0.5773501 -0.5773505
vn 0 0.7071068 -0.7071068
vn 0 0 1
vn 0 0 1
vn -0.5773501 0.5773501 0.5773505
vn 0 0.7071066 0.7071069
vn 0.5773502 -0.5773503 0.5773503
vn 0 -0.7071068 0.7071068
vn 0 0.7071068 0.7071068
vn 0.5773503 0.5773503 0.5773502
vn 1 0 0
vn 1 0 0
vn 1 0 0
vn 0.5773501 0.5773501 -0.5773505
vn 1 0 0
vn 1 0 0
vn 0 0.7071068 -0.7071068
vn 0 0.7071068 0.7071068
vn 0 -1 0
vn 0 -1 0
vn 0 -1 0
vn 0 -1 0
vn 0 -1 0
vn 0 -1 0
vn 0 -1 0
vn 0 -1 0
vn 0 0 -1
vn 0 0 -1
vn 0 0 -1
vn 0 0 -1
vn 0 0 1
vn 0 0 1
vn 0 0 1
vn 0 0 1
vn 0 -1 0
vn 0 -1 0
vn 0 -0.7071068 -0.7071068
vn -0.5773502 -0.5773503 -0.5773503
vn -0.5773502 -0.5773503 -0.5773503
vn 0 -0.7071068 -0.7071068
vn 0 0.7071068 -0.7071068
vn -0.5773504 0.5773501 -0.5773504
vn -1 0 0
vn -1 0 0
vn -1 0 0
vn -0.5773501 0.5773501 0.5773505
vn -1 0 0
vn -1 0 0
vn 0 0.7071066 0.7071069
vn 0 0.7071068 -0.7071068
vn 0 -1 0
vn 0 -1 0
vn 0 -1 0
vn 0 -1 0
vn 0 -1 0
vn 0 -1 0
vn 0 -1 0
vn 0 -1 0
vn 0 0 1
vn 0 0 1
vn 0 0 1
vn 0 0 1
vn 0 0 -1
vn 0 0 -1
vn 0 0 -1
vn 0 0 -1
vn 0 -1 0
vn 0 -1 0
vn 0 -0.7071068 0.7071068
vn 0.5773502 -0.5773503 0.5773503
vn -0.03481198 -0.3319733 -0.9426463
vn -0.05025952 -0.6129834 -0.7884955
vn 0.009195257 -0.6111095 -0.7914927
vn -0.008594775 -0.573318 0.819288
vn 0.01120402 -0.6047767 0.7963163
vn -0.01193212 -0.6263129 0.7794805
vn 1 0 0
vn 1 1.558198E-07 4.282813E-06
vn 0.7071066 0 0.7071069
vn 0.5773498 -0.5773504 0.5773506
vn 0 0 1
vn 0 -0.7071066 0.7071069
vn 1 0 5.191733E-07
vn 0.9486834 5.826349E-05 -0.3162276
vn -0.03338147 0.003416806 -0.9994368
vn 0.004363365 0.005748712 -0.999974
vn 0.004397302 -0.7042124 -0.7099758
vn 0.01055575 0.0139072 -0.9998475
vn 0 -0.7071069 -0.7071066
vn 0.5773498 -0.5773504 0.5773506
vn 0 -0.7071066 0.7071069
vn 0.9486834 5.826349E-05 -0.3162276
vn 0 0 -1
vn -0.7127907 0.02221597 -0.7010249
vn -0.6924428 0.03823109 -0.7204592
vn -0.03338147 0.003416806 -0.9994368
vn -0.6924428 0.03823109 -0.7204592
vn -0.9995685 0.02912081 -0.003837247
vn -0.998544 0.05388172 -0.002584335
vn -0.9999963 0.001753018 -0.002101225
vn -0.9999939 0.002248204 -0.002694682
vn -0.9999962 0.002261348 0.001609045
vn -0.9999977 0.001763265 0.001254638
vn -0.7001193 0.02148703 0.7137026
vn -0.9995295 0.03063445 0.001563638
vn -0.9983763 0.05696416 8.572047E-05
vn -0.6758438 0.03856152 0.7360353
vn 0 0 1
vn 0 0 1
vn 0 0 1
vn -0.6758438 0.03856152 0.7360353
vn -1 0 0
vn -1 -1.266238E-07 -4.28281E-06
vn -0.7071066 0 -0.7071069
vn -0.5773498 -0.5773504 -0.5773506
vn 0 0 -1
vn 0 -0.7071066 -0.7071069
vn -1 0 -5.191732E-07
vn -0.9486834 5.828407E-05 0.3162275
vn 0.03338189 0.003416852 0.9994368
vn -0.004363365 0.005748783 0.999974
vn -0.004397302 -0.7042124 0.7099758
vn -0.01055575 0.01390727 0.9998475
vn 0 -0.7071069 0.7071066
vn -0.5773498 -0.5773504 -0.5773506
vn 0 -0.7071066 -0.7071069
vn -0.9486834 5.828407E-05 0.3162275
vn 0 0 1
vn 0.7127908 0.022216 0.7010247
vn 0.692443 0.03823112 0.720459
vn 0.03338189 0.003416852 0.9994368
vn 0.692443 0.03823112 0.720459
vn 0.9995685 0.02912081 0.003837247
vn 0.998544 0.05388172 0.002584335
vn 0.9999963 0.001753018 0.002101225
vn 0.9999939 0.002248204 0.002694682
vn 0.9999962 0.002261348 -0.001609045
vn 0.9999977 0.001763265 -0.001254638
vn 0.7001193 0.02148703 -0.7137026
vn 0.9995295 0.03063445 -0.001563638
vn 0.9983763 0.05696416 -8.572047E-05
vn 0.6758438 0.03856152 -0.7360353
vn 0 0 -1
vn 0 0 -1
vn 0 0 -1
vn 0.6758438 0.03856152 -0.7360353
vn 0.04563906 -0.5444353 -0.8375603
vn 0.03874573 -0.643568 -0.7644076
vn 0.03251359 -0.2165137 -0.975738
vn -0.01149788 -0.701084 -0.7129861
vn -0.02730889 -0.6542843 -0.7557554
vn -0.01282503 -0.3206413 -0.9471138
vn 0.03251359 -0.2165137 -0.975738
vn 0.002169901 0.3884643 -0.9214612
vn 0.002688943 0.336835 -0.9415599
vn 0.0001828547 0.3524612 -0.9358265
vn 0.0003804945 0.2761686 -0.9611092
vn 0.002001123 0.05593061 -0.9984326
vn 0.001936861 0.05409726 -0.9985338
vn 0.002942694 0.08279353 -0.9965624
vn 0.002942694 0.08279353 -0.9965624
vn 0 -1 0
vn 0 -1 0
vn 0 -1 0
vn 0 -1 0
vn -0.001931141 0.3885608 -0.9214211
vn 0.0006260892 0.6363829 -0.771373
vn 0.0006260892 0.6363829 -0.771373
vn -0.002406595 0.3369326 -0.9415257
vn 0.02282145 -0.3133158 -0.9493747
vn -0.03481198 -0.3319733 -0.9426463
vn 0.009195257 -0.6111095 -0.7914927
vn 0.07597052 -0.6314723 -0.7716678
vn -0.04270057 -0.6514474 -0.7574912
vn -0.004458798 -0.6907055 -0.7231225
vn -0.05025952 -0.6129834 -0.7884955
vn -0.03481198 -0.3319733 -0.9426463
vn 0 -1 0
vn 0 -1 0
vn 0 -1 0
vn 0 -1 0
vn 0.04563906 -0.5444353 -0.8375603
vn -0.01713184 -0.8604482 -0.5092497
vn -0.01149788 -0.701084 -0.7129861
vn 0.03251359 -0.2165137 -0.975738
vn -0.01149788 -0.701084 -0.7129861
vn -0.02856646 -0.314123 0.9489524
vn -0.01587842 -0.6160015 0.7875849
vn -0.08192433 -0.6323323 0.7703534
vn -0.008594775 -0.573318 0.819288
vn 0.006781045 -0.6281226 0.7780848
vn 0.004709046 -0.7029353 0.7112382
vn -0.01193212 -0.6263129 0.7794805
vn 0.04253385 -0.6524392 0.7566465
vn 0.01120402 -0.6047767 0.7963163
vn 0.02746967 -0.3124802 0.949527
vn 0.0001070262 0.3379853 0.9411513
vn 0.0001394375 0.3376023 0.9412888
vn 0.0001732087 0.3510493 0.9363569
vn 0.0001633617 0.3514642 0.9362013
vn 7.157456E-05 0.05513133 0.9984791
vn 4.948396E-05 0.05496088 0.9984885
vn -1.214176E-05 0.08652177 0.99625
vn -1.214176E-05 0.08652177 0.99625
vn 0 -1 0
vn 0 -1 0
vn 0 -1 0
vn 0 -1 0
vn 0 1 0
vn 0 1 0
vn 0 1 0
vn 0 1 0
g LCZ_AirlockRoom_LOD1_0
f 3/3/3 2/2/2 1/1/1
f 1/1/1 4/4/4 3/3/3
f 7/7/7 6/6/6 5/5/5
f 5/5/5 8/8/8 7/7/7
f 11/11/11 10/10/10 9/9/9
f 12/12/12 11/11/11 9/9/9
f 13/13/13 12/12/12 9/9/9
f 14/14/14 13/13/13 9/9/9
f 13/13/13 15/15/15 12/12/12
f 15/15/15 16/16/16 12/12/12
f 16/16/16 15/15/15 17/17/17
f 18/18/18 16/16/16 17/17/17
f 16/16/16 19/19/19 12/12/12
f 19/19/19 20/20/20 12/12/12
f 23/23/23 22/22/22 21/21/21
f 24/24/24 23/23/23 21/21/21
f 27/27/27 26/26/26 25/25/25
f 28/28/28 27/27/27 25/25/25
f 31/31/31 30/30/30 29/29/29
f 32/32/32 31/31/31 29/29/29
f 35/35/35 34/34/34 33/33/33
f 36/36/36 35/35/35 33/33/33
f 39/39/39 38/38/38 37/37/37
f 40/40/40 39/39/39 37/37/37
f 43/43/43 42/42/42 41/41/41
f 44/44/44 43/43/43 41/41/41
f 45/45/45 44/44/44 41/41/41
f 46/46/46 45/45/45 41/41/41
f 45/45/45 47/47/47 44/44/44
f 47/47/47 48/48/48 44/44/44
f 48/48/48 47/47/47 49/49/49
f 50/50/50 48/48/48 49/49/49
f 44/44/44 48/48/48 51/51/51
f 51/51/51 52/52/52 44/44/44
f 55/55/55 54/54/54 53/53/53
f 56/56/56 55/55/55 53/53/53
f 59/59/59 58/58/58 57/57/57
f 60/60/60 59/59/59 57/57/57
f 63/63/63 62/62/62 61/61/61
f 64/64/64 63/63/63 61/61/61
f 67/67/67 66/66/66 65/65/65
f 68/68/68 67/67/67 65/65/65
f 71/71/71 70/70/70 69/69/69
f 72/72/72 71/71/71 69/69/69
g LCZ_AirlockRoom_LOD1_1
f 75/75/75 74/74/74 73/73/73
f 78/78/78 77/77/77 76/76/76
f 81/81/81 80/80/80 79/79/79
f 82/82/82 80/80/80 81/81/81
f 81/81/81 83/83/83 82/82/82
f 83/83/83 84/84/84 82/82/82
f 80/80/80 82/82/82 85/85/85
f 86/86/86 80/80/80 85/85/85
f 85/85/85 87/87/87 86/86/86
f 90/90/90 89/89/89 88/88/88
f 88/88/88 89/89/89 91/91/91
f 89/89/89 92/92/92 91/91/91
f 92/92/92 93/93/93 91/91/91
f 96/96/96 95/95/95 94/94/94
f 96/96/96 94/94/94 97/97/97
f 94/94/94 98/98/98 97/97/97
f 100/100/100 96/96/96 99/99/99
f 101/101/101 100/100/100 99/99/99
f 96/96/96 100/100/100 102/102/102
f 103/103/103 96/96/96 102/102/102
f 103/103/103 102/102/102 104/104/104
f 102/102/102 105/105/105 104/104/104
f 106/106/106 104/104/104 105/105/105
f 107/107/107 106/106/106 105/105/105
f 107/107/107 108/108/108 106/106/106
f 108/108/108 109/109/109 106/106/106
f 111/111/111 106/106/106 110/110/110
f 106/106/106 112/112/112 110/110/110
f 106/106/106 113/113/113 112/112/112
f 116/116/116 115/115/115 114/114/114
f 117/117/117 115/115/115 116/116/116
f 116/116/116 118/118/118 117/117/117
f 118/118/118 119/119/119 117/117/117
f 115/115/115 117/117/117 120/120/120
f 121/121/121 115/115/115 120/120/120
f 120/120/120 122/122/122 121/121/121
f 125/125/125 124/124/124 123/123/123
f 123/123/123 124/124/124 126/126/126
f 124/124/124 127/127/127 126/126/126
f 127/127/127 128/128/128 126/126/126
f 131/131/131 130/130/130 129/129/129
f 131/131/131 129/129/129 132/132/132
f 129/129/129 133/133/133 132/132/132
f 135/135/135 131/131/131 134/134/134
f 136/136/136 135/135/135 134/134/134
f 131/131/131 135/135/135 137/137/137
f 138/138/138 131/131/131 137/137/137
f 138/138/138 137/137/137 139/139/139
f 137/137/137 140/140/140 139/139/139
f 141/141/141 139/139/139 140/140/140
f 142/142/142 141/141/141 140/140/140
f 142/142/142 143/143/143 141/141/141
f 143/143/143 144/144/144 141/141/141
f 146/146/146 141/141/141 145/145/145
f 141/141/141 147/147/147 145/145/145
f 141/141/141 148/148/148 147/147/147
f 151/151/151 150/150/150 149/149/149
f 152/152/152 149/149/149 150/150/150
f 153/153/153 152/152/152 150/150/150
f 152/152/152 153/153/153 154/154/154
f 154/154/154 155/155/155 152/152/152
f 155/155/155 154/154/154 156/156/156
f 154/154/154 157/157/157 156/156/156
f 157/157/157 158/158/158 156/156/156
f 158/158/158 159/159/159 156/156/156
f 159/159/159 158/158/158 160/160/160
f 158/158/158 161/161/161 160/160/160
f 160/160/160 161/161/161 162/162/162
f 163/163/163 160/160/160 162/162/162
f 166/166/166 165/165/165 164/164/164
f 167/167/167 166/166/166 164/164/164
f 170/170/170 169/169/169 168/168/168
f 169/169/169 171/171/171 168/168/168
f 168/168/168 171/171/171 172/172/172
f 173/173/173 168/168/168 172/172/172
f 172/172/172 174/174/174 173/173/173
f 175/175/175 174/174/174 172/172/172
f 174/174/174 177/177/177 176/176/176
f 178/178/178 174/174/174 176/176/176
f 176/176/176 179/179/179 178/178/178
f 182/182/182 181/181/181 180/180/180
f 183/183/183 182/182/182 180/180/180
f 186/186/186 185/185/185 184/184/184
f 184/184/184 185/185/185 187/187/187
f 185/185/185 188/188/188 187/187/187
f 191/191/191 190/190/190 189/189/189
f 189/189/189 190/190/190 192/192/192
f 190/190/190 193/193/193 192/192/192
f 190/190/190 194/194/194 193/193/193
f 193/193/193 194/194/194 192/192/192
f 194/194/194 195/195/195 192/192/192
f 194/194/194 196/196/196 195/195/195
f 196/196/196 197/197/197 195/195/195
f 197/197/197 196/196/196 198/198/198
f 197/197/197 198/198/198 192/192/192
f 198/198/198 189/189/189 192/192/192
f 199/199/199 189/189/189 198/198/198
f 200/200/200 199/199/199 198/198/198
f 201/201/201 199/199/199 200/200/200
f 202/202/202 199/199/199 201/201/201
f 202/202/202 201/201/201 203/203/203
f 201/201/201 204/204/204 203/203/203
f 205/205/205 203/203/203 204/204/204
f 206/206/206 205/205/205 204/204/204
g LCZ_AirlockRoom_LOD1_2
f 209/209/209 208/208/208 207/207/207
f 210/210/210 209/209/209 207/207/207
g LCZ_AirlockRoom_LOD1_3
f 213/213/213 212/212/212 211/211/211
f 214/214/214 213/213/213 211/211/211
