g Leaf.01
v 7.774046E-07 0 0.00116873
v 0 0.01 0
v 0.01 0.01 0
v -0.01 0.01 0
v -0.01 0 0.0002035782
v -0.01 0.01 0
v 7.774046E-07 0 0.00116873
v -0.01 -0.01 0
v -0.01 -0.01 0
v 7.774046E-07 0 0.00116873
v 0 -0.01 0
v 0.009945421 -0.01 0
v 7.774046E-07 0 0.00116873
v 0.01 -0.01 0
v 0.009945421 -0.01 0
v 0.01 0 0
v 0.01 0.01 0
vt 0.5 0.5
vt 0.5 1
vt 1 1
vt 0 1
vt 0 0.5
vt 0 1
vt 0.5 0.5
vt 0 0
vt 0 0
vt 0.5 0.5
vt 0.5 0
vt 0.9972711 0
vt 0.5 0.5
vt 1 0
vt 0.9972711 0
vt 1 0.5
vt 1 1
vn 0 0.1160829 0.9932395
vn 0 0.1160829 0.9932395
vn 0 0.1160829 0.9932395
vn 0 0.1160829 0.9932395
vn -0.09604166 0.02025952 0.9951711
vn -0.09604166 0.02025952 0.9951711
vn -0.09604166 0.02025952 0.9951711
vn -0.09604166 -0.02025951 0.9951711
vn 0 -0.1160829 0.9932395
vn 0 -0.1160829 0.9932395
vn 0 -0.1160829 0.9932395
vn 0 -0.1160829 0.9932395
vn 0.11547 -0.0006302238 0.9933108
vn 0.11547 -0.0006302238 0.9933108
vn 0.11547 -0.0006302238 0.9933108
vn 0.11547 -0.0006302238 0.9933108
vn 0.1160918 0 0.9932384
g Leaf.01_0
f 3/3/3 2/2/2 1/1/1
f 1/1/1 2/2/2 4/4/4
f 7/7/7 6/6/6 5/5/5
f 5/5/5 8/8/8 7/7/7
f 11/11/11 10/10/10 9/9/9
f 12/12/12 10/10/10 11/11/11
f 15/15/15 14/14/14 13/13/13
f 14/14/14 16/16/16 13/13/13
f 13/13/13 16/16/16 17/17/17
