g leaflet
v -0.01152833 -0.001892117 -4.848951E-05
v -0.006755354 0.001892117 0.0002826092
v -0.006755354 -0.001892117 0.0002826092
v -0.01152833 0.001892117 -4.848951E-05
v -0.01324492 -0.001892117 -0.0001228799
v -0.01324492 0.001892117 -0.0001228799
v -0.0163013 -0.001892117 -0.0001228797
v -0.0163013 0.001892117 -0.0001228797
v 0.00500003 -0.01003177 0.0005030785
v 0.01000003 -0.005031772 0.0005030785
v 0.009842489 -0.0100576 0.001161213
v 0.005095957 -0.0050142 7.310979E-05
v 0 -0.01 0
v 0.01 0 7.756535E-05
v 0 -0.005 0
v -0.005 -0.01 0
v 0.005 0 0
v 0.01 0.005 0.0001952328
v -0.005 -0.005 0
v -0.01 -0.01 0
v -0.01 -0.005 0
v 0.005 0.005 0
v 0.01 0.01 0.000488923
v 0.005 0.01 0.0001952328
v 0 0 0
v -0.005 0 0
v -0.01 0 0
v 0 0.005 0
v 0 0.01 0
v -0.005 0.005 0
v -0.01 0.005 0
v -0.005 0.01 0
v -0.01 0.01 0
vt 0.1997434 0.8416196
vt 0.3995712 0.9996725
vt 0.3995712 0.8416196
vt 0.1997434 0.9996725
vt 0.1279805 0.8416196
vt 0.1279805 0.9996726
vt 0.0003274323 0.8416196
vt 0.0003274323 0.9996725
vt 0.2080419 0.8393199
vt 0.0003274323 0.6292172
vt 0.003958935 0.8409635
vt 0.2058842 0.6290186
vt 0.4178829 0.8388511
vt 0.002447627 0.4183427
vt 0.418844 0.6299244
vt 0.6267379 0.8398867
vt 0.2112825 0.4196489
vt 0.003619916 0.2094814
vt 0.6278056 0.6310096
vt 0.8355785 0.8409647
vt 0.8366565 0.6321241
vt 0.2125651 0.2108558
vt 0.004483642 0.0003274323
vt 0.2136335 0.001910289
vt 0.4201093 0.4209515
vt 0.6289632 0.4221572
vt 0.8377856 0.4233213
vt 0.4213589 0.2121128
vt 0.4225918 0.003307708
vt 0.6301677 0.2133347
vt 0.8389664 0.2145319
vt 0.6313835 0.004535119
vt 0.8401713 0.005743905
vn -0.05624584 0 0.998417
vn -0.06918649 0 0.9976038
vn -0.06918649 0 0.9976038
vn -0.05624584 0 0.998417
vn -0.02163784 0 0.9997659
vn -0.02163784 0 0.9997659
vn 0 0 1
vn 0 0 1
vn -0.08328658 0.0765724 0.9935794
vn -0.08041886 0.07941172 0.9935927
vn -0.1097775 0.1097775 0.9878754
vn -0.05649006 0.0526447 0.9970143
vn -0.02841276 0.0217292 0.9993601
vn -0.03915545 0.01864691 0.9990591
vn -0.01596128 0.01263474 0.9997928
vn 0 0 1
vn -0.02124129 0.01098687 0.999714
vn -0.03802638 -0.03027461 0.998818
vn 0 0 1
vn 0 0 1
vn 0 0 1
vn -0.02386556 -0.0199897 0.9995153
vn -0.04877002 -0.04877002 0.9976186
vn -0.03415101 -0.03415101 0.998833
vn -0.001800641 0.001800641 0.9999968
vn 0 0 1
vn 0 0 1
vn -0.004852477 -0.004852477 0.9999765
vn -0.00973567 -0.00973567 0.9999052
vn 0 0 1
vn 0 0 1
vn 0 0 1
vn 0 0 1
g leaflet_0
f 3/3/3 2/2/2 1/1/1
f 2/2/2 4/4/4 1/1/1
f 1/1/1 4/4/4 5/5/5
f 4/4/4 6/6/6 5/5/5
f 5/5/5 6/6/6 7/7/7
f 6/6/6 8/8/8 7/7/7
f 11/11/11 10/10/10 9/9/9
f 10/10/10 12/12/12 9/9/9
f 9/9/9 12/12/12 13/13/13
f 10/10/10 14/14/14 12/12/12
f 12/12/12 15/15/15 13/13/13
f 13/13/13 15/15/15 16/16/16
f 14/14/14 17/17/17 12/12/12
f 12/12/12 17/17/17 15/15/15
f 14/14/14 18/18/18 17/17/17
f 15/15/15 19/19/19 16/16/16
f 16/16/16 19/19/19 20/20/20
f 19/19/19 21/21/21 20/20/20
f 18/18/18 22/22/22 17/17/17
f 18/18/18 23/23/23 22/22/22
f 23/23/23 24/24/24 22/22/22
f 17/17/17 25/25/25 15/15/15
f 15/15/15 25/25/25 19/19/19
f 17/17/17 22/22/22 25/25/25
f 19/19/19 26/26/26 21/21/21
f 25/25/25 26/26/26 19/19/19
f 26/26/26 27/27/27 21/21/21
f 22/22/22 24/24/24 28/28/28
f 22/22/22 28/28/28 25/25/25
f 25/25/25 28/28/28 26/26/26
f 24/24/24 29/29/29 28/28/28
f 26/26/26 30/30/30 27/27/27
f 28/28/28 30/30/30 26/26/26
f 28/28/28 29/29/29 30/30/30
f 30/30/30 31/31/31 27/27/27
f 29/29/29 32/32/32 30/30/30
f 30/30/30 32/32/32 31/31/31
f 32/32/32 33/33/33 31/31/31
