g Left_Something
v 0.041522 0 -0.02902
v 0.041522 -0.00098 -0.03
v 0.042502 -0.00098 -0.02902
v 0.041522 0 0.02902
v 0.042502 -0.00098 0.02902
v 0.041522 -0.00098 0.03
v -0.009742 -0.00098 0.024245
v -0.005624 -0.00098 0.028458
v -0.005624 -0.01902 0.028458
v -0.009742 -0.01902 0.024245
v -0.011249 -0.00098 0.018489
v -0.008859 -0.02 0.023745
v -0.005109 -0.02 0.027583
v -0.011249 -0.01902 0.018489
v -0.010269 -0.02 0.018363
v -0.008859 -0.02 0.023745
v -0.011249 -0.01902 -0.018489
v -0.011249 -0.00098 -0.018489
v -0.010269 0 0.018363
v -0.010269 0 -0.018363
v -0.009742 -0.01902 -0.024245
v -0.009742 -0.00098 -0.024245
v -0.010269 0 -0.018363
v -0.008859 0 -0.023745
v -0.005624 -0.01902 -0.028458
v -0.005624 -0.00098 -0.028458
v -0.008859 0 -0.023745
v -0.005109 0 -0.027583
v -0.005624 -0.00098 -0.028458
v -0.005624 -0.01902 -0.028458
v -0.0001 -0.01902 -0.029973
v 0 -0.00098 -0.03
v -0.005109 0 -0.027583
v 0.000132 0 -0.02902
v 0.041522 -0.00433 -0.03
v 0.041522 -0.00098 -0.03
v 0.000132 0 -0.02902
v 0.041522 0 -0.02902
v 0.041522 -0.00098 0.03
v 0.041522 -0.004309 0.03
v -0.0001 -0.018998 0.029973
v 0 -0.00098 0.03
v 0.041522 0 0.02902
v 0.000132 0 0.02902
v -0.005624 -0.00098 0.028458
v -0.005624 -0.01902 0.028458
v -0.005109 -0.02 0.027583
v 4.7E-05 -0.019983 0.028998
v 0.000132 0 0.02902
v 0.041522 0 -0.02902
v 0.041522 0 0.02902
v 0.000132 0 -0.02902
v -0.005109 0 -0.027583
v -0.005109 0 0.027583
v -0.008859 0 -0.023745
v -0.010269 0 -0.018363
v -0.010269 0 0.018363
v -0.005624 -0.00098 0.028458
v 0 -0.00098 0.03
v -0.009742 -0.00098 0.024245
v -0.008859 0 0.023745
v -0.011249 -0.00098 0.018489
v -0.010269 -0.02 0.018363
v -0.008859 -0.02 0.023745
v -0.005109 -0.02 0.027583
v -0.010269 -0.02 -0.018363
v -0.011249 -0.01902 0.018489
v -0.011249 -0.01902 -0.018489
v -0.008859 -0.02 -0.023745
v -0.009742 -0.01902 -0.024245
v -0.005078 -0.02 -0.027614
v -0.005624 -0.01902 -0.028458
v 4.7E-05 -0.019983 -0.02902
v 4.7E-05 -0.019983 0.028998
v -0.0001 -0.01902 -0.029973
v 0.041578 -0.005326 -0.02902
v 0.042502 -0.00402 -0.02902
v 0.041522 -0.00433 -0.03
v -0.0001 -0.01902 -0.029973
v 4.7E-05 -0.019983 -0.02902
v 0.041578 -0.005326 0.028998
v 4.7E-05 -0.019983 0.028998
v 0.041522 -0.004309 0.03
v -0.0001 -0.018998 0.029973
v 0.042502 -0.00402 0.02902
v 0.042502 -0.00098 -0.02902
v 0.041522 -0.00098 -0.03
v 0.041522 -0.00433 -0.03
v 0.042502 -0.00402 -0.02902
v 0.042502 -0.00402 0.02902
v 0.041578 -0.005326 0.028998
v 0.041578 -0.005326 -0.02902
v 0.042502 -0.00098 0.02902
v 0.041522 0 -0.02902
v 0.041522 0 0.02902
v 0.041522 -0.00098 0.03
v 0.041522 -0.004309 0.03
vt 0.80907 0.917987
vt 0.80907 0.91841
vt 0.809498 0.917987
vt 0.80907 0.89297
vt 0.809498 0.89297
vt 0.80907 0.892548
vt 0.839059 0.920151
vt 0.839059 0.918335
vt 0.831182 0.918335
vt 0.831182 0.920151
vt 0.839059 0.922632
vt 0.830754 0.920071
vt 0.830754 0.918417
vt 0.831182 0.922632
vt 0.830754 0.922579
vt 0.830754 0.92026
vt 0.831182 0.938571
vt 0.839059 0.938571
vt 0.839487 0.922686
vt 0.839487 0.938517
vt 0.831182 0.941052
vt 0.839059 0.941052
vt 0.839487 0.938624
vt 0.839487 0.940944
vt 0.831182 0.942868
vt 0.839059 0.942868
vt 0.839487 0.941132
vt 0.839487 0.942786
vt 0.799555 0.963686
vt 0.807432 0.963686
vt 0.807432 0.961305
vt 0.799555 0.961262
vt 0.799127 0.963576
vt 0.799127 0.961317
vt 0.801017 0.943365
vt 0.799555 0.943365
vt 0.799127 0.961205
vt 0.799127 0.943365
vt 0.969534 0.890189
vt 0.968081 0.890189
vt 0.961666 0.908129
vt 0.969534 0.908086
vt 0.969962 0.890189
vt 0.969962 0.908029
vt 0.969534 0.91051
vt 0.961657 0.91051
vt 0.961229 0.9104
vt 0.961229 0.908177
vt 0.790996 0.89297
vt 0.80907 0.917987
vt 0.80907 0.89297
vt 0.790996 0.917987
vt 0.788707 0.917367
vt 0.788707 0.89359
vt 0.78707 0.915714
vt 0.786454 0.913394
vt 0.786454 0.897563
vt 0.788482 0.893212
vt 0.790938 0.892548
vt 0.786684 0.895028
vt 0.78707 0.895244
vt 0.786026 0.897509
vt 0.917459 0.853432
vt 0.918074 0.855752
vt 0.919712 0.857406
vt 0.917459 0.837602
vt 0.917031 0.853487
vt 0.917031 0.837547
vt 0.918074 0.835282
vt 0.917689 0.835067
vt 0.919725 0.833614
vt 0.919487 0.833251
vt 0.921964 0.833009
vt 0.921964 0.858016
vt 0.921899 0.832598
vt 0.940099 0.833009
vt 0.940503 0.833009
vt 0.940214 0.832586
vt 0.922038 0.832586
vt 0.921964 0.833008
vt 0.940099 0.858016
vt 0.921964 0.858016
vt 0.940217 0.858448
vt 0.922041 0.858448
vt 0.940503 0.858026
vt 0.952923 0.733019
vt 0.952923 0.733441
vt 0.954386 0.733442
vt 0.95425 0.733019
vt 0.95425 0.708009
vt 0.954678 0.708018
vt 0.954678 0.733019
vt 0.952923 0.708009
vt 0.952495 0.733019
vt 0.952495 0.708008
vt 0.952923 0.707586
vt 0.954376 0.707586
vn 0.3415692 0.8755918 -0.3415692
vn 0.3415993 0.3412322 -0.8757114
vn 0.8755918 0.3415692 -0.3415692
vn 0.3415692 0.8755918 0.3415692
vn 0.8755918 0.3415692 0.3415692
vn 0.3415993 0.3412322 0.8757114
vn -0.8087689 0.3692872 0.4577334
vn -0.4716159 0.3691921 0.8007969
vn -0.4711041 -0.3692897 0.8010531
vn -0.8087689 -0.3692872 0.4577334
vn -0.9198788 0.3738905 0.1184447
vn -0.3701987 -0.9050173 0.2095149
vn -0.2146424 -0.9048359 0.3676963
vn -0.9198788 -0.3738905 0.1184447
vn -0.4033472 -0.9135732 0.05191383
vn -0.3701987 -0.9050173 0.2095149
vn -0.9198788 -0.3738905 -0.1184447
vn -0.9198788 0.3738905 -0.1184447
vn -0.4033472 0.9135732 0.05191383
vn -0.4033472 0.9135732 -0.05191383
vn -0.8087689 -0.3692872 -0.4577334
vn -0.8087689 0.3692872 -0.4577334
vn -0.4033472 0.9135732 -0.05191383
vn -0.3701987 0.9050173 -0.2095149
vn -0.4731725 -0.3677895 -0.8005239
vn -0.4716159 0.3691921 -0.8007969
vn -0.3701987 0.9050173 -0.2095149
vn -0.216196 0.9047033 -0.367112
vn -0.4716159 0.3691921 -0.8007969
vn -0.4731725 -0.3677895 -0.8005239
vn -0.0539583 -0.4025487 -0.913807
vn -0.1235103 0.3733091 -0.9194484
vn -0.216196 0.9047033 -0.367112
vn -0.054355 0.9131476 -0.4039888
vn 0.408038 -0.2916693 -0.8651208
vn 0.3415993 0.3412322 -0.8757114
vn -0.054355 0.9131476 -0.4039888
vn 0.3415692 0.8755918 -0.3415692
vn 0.3415993 0.3412322 0.8757114
vn 0.4067616 -0.2914286 0.8658026
vn -0.05322507 -0.4035541 0.9134064
vn -0.1235103 0.3733091 0.9194484
vn 0.3415692 0.8755918 0.3415692
vn -0.054355 0.9131476 0.4039888
vn -0.4716159 0.3691921 0.8007969
vn -0.4711041 -0.3692897 0.8010531
vn -0.2146424 -0.9048359 0.3676963
vn 0.1037962 -0.911799 0.3973022
vn -0.054355 0.9131476 0.4039888
vn 0.3415692 0.8755918 -0.3415692
vn 0.3415692 0.8755918 0.3415692
vn -0.054355 0.9131476 -0.4039888
vn -0.216196 0.9047033 -0.367112
vn -0.216196 0.9047033 0.367112
vn -0.3701987 0.9050173 -0.2095149
vn -0.4033472 0.9135732 -0.05191383
vn -0.4033472 0.9135732 0.05191383
vn -0.4716159 0.3691921 0.8007969
vn -0.1235103 0.3733091 0.9194484
vn -0.8087689 0.3692872 0.4577334
vn -0.3701987 0.9050173 0.2095149
vn -0.9198788 0.3738905 0.1184447
vn -0.4033472 -0.9135732 0.05191383
vn -0.3701987 -0.9050173 0.2095149
vn -0.2146424 -0.9048359 0.3676963
vn -0.4033472 -0.9135732 -0.05191383
vn -0.9198788 -0.3738905 0.1184447
vn -0.9198788 -0.3738905 -0.1184447
vn -0.3701987 -0.9050173 -0.2095149
vn -0.8087689 -0.3692872 -0.4577334
vn -0.213758 -0.9041365 -0.3699254
vn -0.4731725 -0.3677895 -0.8005239
vn 0.1033372 -0.9112015 -0.3987896
vn 0.1037962 -0.911799 0.3973022
vn -0.0539583 -0.4025487 -0.913807
vn 0.5481294 -0.7664353 -0.3348596
vn 0.9049724 -0.2601198 -0.3366939
vn 0.408038 -0.2916693 -0.8651208
vn -0.0539583 -0.4025487 -0.913807
vn 0.1033372 -0.9112015 -0.3987896
vn 0.5472987 -0.7674029 0.3340015
vn 0.1037962 -0.911799 0.3973022
vn 0.4067616 -0.2914286 0.8658026
vn -0.05322507 -0.4035541 0.9134064
vn 0.9038933 -0.2620086 0.3381248
vn 0.8755918 0.3415692 -0.3415692
vn 0.3415993 0.3412322 -0.8757114
vn 0.408038 -0.2916693 -0.8651208
vn 0.9049724 -0.2601198 -0.3366939
vn 0.9038933 -0.2620086 0.3381248
vn 0.5472987 -0.7674029 0.3340015
vn 0.5481294 -0.7664353 -0.3348596
vn 0.8755918 0.3415692 0.3415692
vn 0.3415692 0.8755918 -0.3415692
vn 0.3415692 0.8755918 0.3415692
vn 0.3415993 0.3412322 0.8757114
vn 0.4067616 -0.2914286 0.8658026
g Left_Something_0
f 3/3/3 2/2/2 1/1/1
f 6/6/6 5/5/5 4/4/4
f 9/9/9 8/8/8 7/7/7
f 10/10/10 9/9/9 7/7/7
f 10/10/10 7/7/7 11/11/11
f 10/10/10 12/12/12 9/9/9
f 12/12/12 13/13/13 9/9/9
f 14/14/14 10/10/10 11/11/11
f 14/14/14 15/15/15 10/10/10
f 15/15/15 16/16/16 10/10/10
f 17/17/17 14/14/14 11/11/11
f 18/18/18 17/17/17 11/11/11
f 11/11/11 19/19/19 18/18/18
f 19/19/19 20/20/20 18/18/18
f 21/21/21 17/17/17 18/18/18
f 22/22/22 21/21/21 18/18/18
f 18/18/18 23/23/23 22/22/22
f 23/23/23 24/24/24 22/22/22
f 25/25/25 21/21/21 22/22/22
f 26/26/26 25/25/25 22/22/22
f 22/22/22 27/27/27 26/26/26
f 27/27/27 28/28/28 26/26/26
f 31/31/31 30/30/30 29/29/29
f 32/32/32 31/31/31 29/29/29
f 29/29/29 33/33/33 32/32/32
f 33/33/33 34/34/34 32/32/32
f 35/35/35 31/31/31 32/32/32
f 36/36/36 35/35/35 32/32/32
f 32/32/32 37/37/37 36/36/36
f 37/37/37 38/38/38 36/36/36
f 41/41/41 40/40/40 39/39/39
f 42/42/42 41/41/41 39/39/39
f 39/39/39 43/43/43 42/42/42
f 43/43/43 44/44/44 42/42/42
f 41/41/41 42/42/42 45/45/45
f 46/46/46 41/41/41 45/45/45
f 46/46/46 47/47/47 41/41/41
f 47/47/47 48/48/48 41/41/41
f 51/51/51 50/50/50 49/49/49
f 50/50/50 52/52/52 49/49/49
f 52/52/52 53/53/53 49/49/49
f 53/53/53 54/54/54 49/49/49
f 54/54/54 53/53/53 55/55/55
f 55/55/55 56/56/56 54/54/54
f 56/56/56 57/57/57 54/54/54
f 54/54/54 58/58/58 49/49/49
f 58/58/58 59/59/59 49/49/49
f 60/60/60 58/58/58 54/54/54
f 57/57/57 61/61/61 54/54/54
f 61/61/61 60/60/60 54/54/54
f 57/57/57 62/62/62 61/61/61
f 62/62/62 60/60/60 61/61/61
f 65/65/65 64/64/64 63/63/63
f 65/65/65 63/63/63 66/66/66
f 63/63/63 67/67/67 66/66/66
f 67/67/67 68/68/68 66/66/66
f 66/66/66 68/68/68 69/69/69
f 65/65/65 66/66/66 69/69/69
f 68/68/68 70/70/70 69/69/69
f 69/69/69 70/70/70 71/71/71
f 69/69/69 71/71/71 65/65/65
f 70/70/70 72/72/72 71/71/71
f 71/71/71 73/73/73 65/65/65
f 71/71/71 72/72/72 73/73/73
f 73/73/73 74/74/74 65/65/65
f 72/72/72 75/75/75 73/73/73
f 78/78/78 77/77/77 76/76/76
f 79/79/79 78/78/78 76/76/76
f 80/80/80 79/79/79 76/76/76
f 80/80/80 76/76/76 81/81/81
f 82/82/82 80/80/80 81/81/81
f 81/81/81 83/83/83 82/82/82
f 83/83/83 84/84/84 82/82/82
f 85/85/85 83/83/83 81/81/81
f 88/88/88 87/87/87 86/86/86
f 89/89/89 88/88/88 86/86/86
f 90/90/90 89/89/89 86/86/86
f 90/90/90 91/91/91 89/89/89
f 91/91/91 92/92/92 89/89/89
f 93/93/93 90/90/90 86/86/86
f 86/86/86 94/94/94 93/93/93
f 94/94/94 95/95/95 93/93/93
f 93/93/93 96/96/96 90/90/90
f 96/96/96 97/97/97 90/90/90
