g Lighting
v 0.2 -0.01912079 0.12
v 0.2 0.01911926 -0.12
v 0.2 -0.01912079 -0.12
v 0.2 0.01911926 0.12
v -0.2 0.01911926 0.12
v -0.2 -0.01912079 -0.12
v -0.2 0.01911926 -0.12
v -0.2 -0.01912079 0.12
v 0.2 -0.01912079 0.12
v -0.2 -0.01912079 -0.12
v -0.2 -0.01912079 0.12
v 0.2 -0.01912079 -0.12
v 0.2 0.01911926 -0.12
v -0.2 0.01911926 0.12
v -0.2 0.01911926 -0.12
v 0.2 0.01911926 0.12
v 0.2 -0.01912079 0.12
v -0.2 0.01911926 0.12
v 0.2 0.01911926 0.12
v -0.2 -0.01912079 0.12
v -0.2 -0.01912079 -0.12
v 0.2 0.01911926 -0.12
v -0.2 0.01911926 -0.12
v 0.2 -0.01912079 -0.12
vt 4.06366 1.97201
vt 4.17799 1.99023
vt 4.17799 1.97201
vt 4.06366 1.99023
vt 4.06366 1.99023
vt 4.17799 1.97201
vt 4.17799 1.99023
vt 4.06366 1.97201
vt -25.6574 3.74411
vt -25.8479 3.85844
vt -25.8479 3.74411
vt -25.6574 3.85844
vt -25.6574 3.85844
vt -25.8479 3.74411
vt -25.8479 3.85844
vt -25.6574 3.74411
vt -25.6574 1.97201
vt -25.8479 1.99023
vt -25.6574 1.99023
vt -25.8479 1.97201
vt -25.8479 1.97201
vt -25.6574 1.99023
vt -25.8479 1.99023
vt -25.6574 1.97201
vn 1 0 0
vn 1 0 0
vn 1 0 0
vn 1 0 0
vn -1 0 0
vn -1 0 0
vn -1 0 0
vn -1 0 0
vn 0 -1 0
vn 0 -1 0
vn 0 -1 0
vn 0 -1 0
vn 0 1 0
vn 0 1 0
vn 0 1 0
vn 0 1 0
vn 0 0 1
vn 0 0 1
vn 0 0 1
vn 0 0 1
vn 0 0 -1
vn 0 0 -1
vn 0 0 -1
vn 0 0 -1
g Lighting_0
f 3/3/3 2/2/2 1/1/1
f 2/2/2 4/4/4 1/1/1
f 7/7/7 6/6/6 5/5/5
f 6/6/6 8/8/8 5/5/5
f 11/11/11 10/10/10 9/9/9
f 10/10/10 12/12/12 9/9/9
f 15/15/15 14/14/14 13/13/13
f 14/14/14 16/16/16 13/13/13
f 19/19/19 18/18/18 17/17/17
f 18/18/18 20/20/20 17/17/17
f 23/23/23 22/22/22 21/21/21
f 22/22/22 24/24/24 21/21/21
