g LMG_Bullet16_Mesh_LOD2
v -0.0002282169 0.002066415 -0.004362361
v -0.000133929 0.002043768 -0.004276252
v -0.0001997159 0.00218776 -0.004350137
v -0.0007251191 0.002071959 -0.004320178
v -0.0006691579 0.002069581 -0.004360404
v -0.0009054235 0.002042009 -0.004320782
v -0.001061503 0.002234588 -0.003875834
v -0.0007362808 0.00234567 -0.003920929
v -0.0009080156 0.002278305 -0.003864422
v -0.0007436076 0.002022843 -0.003882848
v -0.0007339544 0.00219814 -0.003816977
v -0.0007362808 0.00234567 -0.003920929
v 0.0002706714 0.002089076 -0.004785746
v -0.00101436 0.002186877 -0.00482307
v -0.001016736 0.001992035 -0.004753701
v -0.0009995115 0.002364705 -0.004735127
v 0.0002702919 0.002341129 -0.004677011
v -0.001015334 0.002401591 -0.004565899
v 0.00057936 0.002237971 -0.0047442
v 0.0005796774 0.002070473 -0.004741367
v 0.0005793602 0.002336302 -0.004612015
v 0.0002631082 0.002306843 -0.004433878
v -0.001013743 0.002251264 -0.004355843
v 0.0005786691 0.002279277 -0.004444179
v 0.000262568 0.0020903 -0.00438883
v -0.001017136 0.002041992 -0.004373962
v 0.000579657 0.002083445 -0.004414743
v -0.001007157 0.001909823 -0.004542816
v 0.0002702919 0.001953227 -0.004547656
v 0.0005800228 0.001971183 -0.004578377
v 0.0002706714 0.002089076 -0.004785746
v -0.001016736 0.001992035 -0.004753701
v 0.0005796774 0.002070473 -0.004741367
v -0.0009995115 0.002364705 -0.004735127
v -0.001015334 0.002401591 -0.004565899
v -0.00101436 0.002186877 -0.00482307
v -0.001080992 0.002389785 -0.004634225
v -0.001080992 0.0022715 -0.004798354
v -0.001080992 0.002346275 -0.00442989
v -0.001105095 0.00201234 -0.004788341
v -0.001016736 0.001992035 -0.004753701
v -0.001013743 0.002251264 -0.004355843
v -0.001108174 0.002226069 -0.004339308
v -0.00110289 0.002018939 -0.004371099
v -0.001017136 0.002041992 -0.004373962
v -0.001100645 0.001904307 -0.004602274
v -0.001007157 0.001909823 -0.004542816
v -0.001105095 0.00201234 -0.004788341
v -0.001080992 0.0022715 -0.004798354
v -0.001124926 0.002274663 -0.004811713
v -0.001080992 0.002389785 -0.004634225
v -0.001126619 0.002408304 -0.004541879
v -0.001080992 0.002346275 -0.00442989
v -0.001108174 0.002226069 -0.004339308
v 0.00057936 0.002237971 -0.0047442
v 0.0005796774 0.002070473 -0.004741367
v -0.0003598741 0.002137761 -0.004758
v -0.0003598741 0.002319098 -0.004654821
v 0.0005793602 0.002336302 -0.004612015
v -0.0003598741 0.002277005 -0.004450472
v 0.0005786691 0.002279277 -0.004444179
v 0.000579657 0.002083445 -0.004414743
v -0.0003598741 0.002069651 -0.004427359
v 0.0005800228 0.001971183 -0.004578377
v -0.0003598741 0.001983594 -0.004617422
v 0.0005796774 0.002070473 -0.004741367
v -0.0003598741 0.002137761 -0.004758
v 0.0005449632 0.00224228 -0.004750204
v 0.0005448246 0.001991771 -0.004651199
v 0.0009289094 0.002043349 -0.004705566
v 0.001029393 0.00215522 -0.004728633
v 0.00128249 0.002134575 -0.004569974
v 0.001278603 0.002188203 -0.00458542
v 0.0009584481 0.002321547 -0.00458636
v 0.0005450516 0.002280864 -0.004430109
v 0.0009344684 0.002170223 -0.004409221
v 0.00128249 0.002134575 -0.004569974
v 0.0005448195 0.002003563 -0.004486634
v 0.0009919803 0.002016772 -0.004535916
v 0.0009289094 0.002043349 -0.004705566
v 0.0005448246 0.001991771 -0.004651199
v -0.001125572 0.002276498 -0.004513092
v -0.001126929 0.002116098 -0.004457124
v -0.001126071 0.002235542 -0.004690046
v -0.001124566 0.002100758 -0.004697302
v -0.001125916 0.002023315 -0.004582425
v -0.000137717 0.002027176 -0.003897911
v -0.0001475415 0.002201885 -0.003853493
v 5.132879E-06 0.002037978 -0.003883337
v 1.042747E-05 0.002264668 -0.003884067
v -0.0001475415 0.002401855 -0.004010766
v 1.042705E-05 0.002401863 -0.004132822
v -0.0001607808 0.00224102 -0.00432561
v 1.173541E-05 0.002194467 -0.004324233
v -0.0001997159 0.00218776 -0.004350137
v -6.64981E-07 0.002027743 -0.004273362
v -0.000133929 0.002043768 -0.004276252
v -0.000133929 0.002043768 -0.004276252
v -0.0002282169 0.002066415 -0.004362361
v -0.0001467147 0.002248109 -0.004299083
v -0.0001607808 0.00224102 -0.00432561
v -0.0007339544 0.00219814 -0.003816977
v -0.0007436076 0.002022843 -0.003882848
v -0.0008998987 0.002048747 -0.003870871
v -0.001059569 0.002080003 -0.003864555
v -0.0009080156 0.002278305 -0.003864422
v -0.001061503 0.002234588 -0.003875834
v -0.0009080156 0.002414619 -0.003986731
v -0.0007362808 0.00234567 -0.003920929
v -0.0007362808 0.00240689 -0.004203233
v -0.0009080156 0.002373864 -0.004221694
v -0.0007362808 0.002380826 -0.004191431
v -0.0006954796 0.002226718 -0.004339841
v -0.0009080156 0.002269567 -0.004326864
v -0.0006954796 0.002226718 -0.004339841
v -0.0006691579 0.002069581 -0.004360404
v -0.0009054235 0.002042009 -0.004320782
v -0.0009080156 0.002373864 -0.004221694
v -0.0009054235 0.002042009 -0.004320782
v -0.0006954796 0.002226718 -0.004339841
v -0.0007251191 0.002071959 -0.004320178
v -0.0009080156 0.002373864 -0.004221694
v -0.0007362808 0.002380826 -0.004191431
v -0.0009080156 0.002414619 -0.003986731
v -0.0009080156 0.002278305 -0.003864422
v -0.0007362808 0.00234567 -0.003920929
v -0.001061503 0.002234588 -0.003875834
v -0.0007436076 0.002022843 -0.003882848
v -0.0007362808 0.00234567 -0.003920929
v -0.0008998987 0.002048747 -0.003870871
v -0.001059569 0.002080003 -0.003864555
v -0.0003598741 0.002069651 -0.004427359
v -0.0003598741 0.002137761 -0.004758
v -0.0003598741 0.001983594 -0.004617422
v -0.0003598741 0.002277005 -0.004450472
v -0.0003598741 0.002319098 -0.004654821
v -0.0007251191 0.002071959 -0.004320178
v -0.0002282169 0.002066415 -0.004362361
v -0.0006691579 0.002069581 -0.004360404
v -0.0001607808 0.00224102 -0.00432561
v -0.0006954796 0.002226718 -0.004339841
v -0.0006591755 0.00233902 -0.004421121
v -0.0002213888 0.002398836 -0.004472306
v -0.0006591755 0.002408552 -0.004604719
v -0.0002213888 0.002359998 -0.004741769
v -0.0006606524 0.002224773 -0.004824591
v -0.0002193202 0.0021418 -0.004839246
v -0.0006425463 0.002018655 -0.004773543
v -0.0002291098 0.00202871 -0.004787756
v -0.0001997159 0.00218776 -0.004350137
v -0.0006691579 0.002069581 -0.004360404
v -0.0002282169 0.002066415 -0.004362361
v -0.0006954796 0.002226718 -0.004339841
v -0.0006591755 0.00233902 -0.004421121
v -0.0002213888 0.002376063 -0.004510423
v -0.0006591755 0.002408552 -0.004604719
v -0.0002213888 0.002332971 -0.004741691
v -0.0006606524 0.002224773 -0.004824591
v -0.0002291098 0.00202871 -0.004787756
v -0.0006425463 0.002018655 -0.004773543
v 1.173541E-05 0.002194467 -0.004324233
v -6.64981E-07 0.002027743 -0.004273362
v -0.000133929 0.002043768 -0.004276252
v -0.0001467147 0.002248109 -0.004299083
v 1.042705E-05 0.002401863 -0.004132822
v -0.0001475415 0.002378154 -0.004055224
v 1.042747E-05 0.002264668 -0.003884067
v -0.0001475415 0.002233787 -0.003884063
v -0.000137717 0.002027176 -0.003897911
v 5.132879E-06 0.002037978 -0.003883337
v -0.0002193202 0.0021418 -0.004839246
v -0.0002291098 0.00202871 -0.004787756
v -0.0002213888 0.002332971 -0.004741691
v -0.0002213888 0.002359998 -0.004741769
v -0.0002213888 0.002376063 -0.004510423
v -0.0002213888 0.002398836 -0.004472306
v -0.0001997159 0.00218776 -0.004350137
v -0.0001607808 0.00224102 -0.00432561
v -0.0001607808 0.00224102 -0.00432561
v -0.0001475415 0.002378154 -0.004055224
v -0.0001467147 0.002248109 -0.004299083
v -0.0001475415 0.002401855 -0.004010766
v -0.0001475415 0.002233787 -0.003884063
v -0.0001475415 0.002201885 -0.003853493
v -0.000137717 0.002027176 -0.003897911
v -0.001124566 0.002100758 -0.004697302
v -0.001105095 0.00201234 -0.004788341
v -0.001124926 0.002274663 -0.004811713
v -0.001100645 0.001904307 -0.004602274
v -0.001126071 0.002235542 -0.004690046
v -0.001125916 0.002023315 -0.004582425
v -0.001126619 0.002408304 -0.004541879
v -0.00110289 0.002018939 -0.004371099
v -0.001125572 0.002276498 -0.004513092
v -0.001126929 0.002116098 -0.004457124
v -0.001108174 0.002226069 -0.004339308
vt 0.7462407 0.1957179
vt 0.753453 0.1977151
vt 0.7486453 0.1881224
vt 0.7919942 0.233409
vt 0.7933918 0.2260817
vt 0.780453 0.2300504
vt 0.7969323 0.2516282
vt 0.8222065 0.241775
vt 0.8094169 0.2479507
vt 0.7925016 0.1478812
vt 0.7934378 0.162771
vt 0.7948159 0.175998
vt 0.6812446 0.1053856
vt 0.582321 0.1065699
vt 0.5834856 0.1213605
vt 0.5813568 0.08787194
vt 0.6804234 0.08172108
vt 0.5809742 0.06938111
vt 0.7068586 0.09049383
vt 0.7077701 0.1053818
vt 0.7063384 0.07577436
vt 0.6797796 0.06141236
vt 0.5811752 0.05050229
vt 0.7062364 0.05886201
vt 0.6803255 0.04281659
vt 0.5817748 0.03488911
vt 0.7065964 0.04285764
vt 0.5829967 0.01725474
vt 0.6815868 0.02547608
vt 0.7074844 0.0260127
vt 0.6819605 0.01204238
vt 0.584483 0.001252085
vt 0.7083077 0.01455197
vt 0.6919315 0.187941
vt 0.6826797 0.2019169
vt 0.7113322 0.188195
vt 0.6915438 0.2003172
vt 0.7031304 0.1957513
vt 0.6887115 0.2128995
vt 0.7154834 0.2003459
vt 0.7264434 0.2022042
vt 0.6857684 0.2252596
vt 0.6946321 0.2218773
vt 0.7045597 0.2243017
vt 0.7037947 0.2324817
vt 0.717752 0.2148052
vt 0.7228456 0.2239124
vt 0.8255601 0.1946418
vt 0.8235855 0.2153997
vt 0.826359 0.214462
vt 0.8235855 0.2319626
vt 0.826359 0.2377682
vt 0.8235856 0.2472679
vt 0.8254008 0.2591633
vt 0.6741457 0.4920008
vt 0.6833607 0.4920008
vt 0.681159 0.4255136
vt 0.6697896 0.4255135
vt 0.662996 0.4920008
vt 0.6549231 0.4255135
vt 0.6541076 0.4920008
vt 0.6411384 0.4920008
vt 0.6400566 0.4255135
vt 0.6256764 0.4920008
vt 0.6251903 0.4255135
vt 0.6109318 0.4920008
vt 0.6114898 0.4255135
vt 0.7201302 0.08913878
vt 0.7248936 0.1050625
vt 0.7518632 0.09527785
vt 0.7552818 0.08503439
vt 0.7718039 0.0793924
vt 0.7676904 0.07014943
vt 0.7461619 0.07092313
vt 0.7169381 0.06169313
vt 0.7445422 0.05528413
vt 0.7708256 0.05103195
vt 0.7204098 0.03717113
vt 0.7524234 0.0436252
vt 0.7563397 0.03597402
vt 0.7247642 0.02389802
vt 0.6609973 0.5365162
vt 0.6506089 0.5404893
vt 0.6673557 0.5455035
vt 0.6625668 0.552689
vt 0.6535238 0.550989
vt 0.8282194 0.1826515
vt 0.829263 0.1677883
vt 0.8181869 0.1810873
vt 0.8167459 0.1623588
vt 0.829263 0.1487102
vt 0.8172161 0.1397965
vt 0.829263 0.1217331
vt 0.8170958 0.117594
vt 0.829263 0.1097106
vt 0.8173041 0.1037171
vt 0.8279839 0.1035258
vt 0.753453 0.1977151
vt 0.7462407 0.1957179
vt 0.7535056 0.2068703
vt 0.7496639 0.2089267
vt 0.7934378 0.162771
vt 0.7925016 0.1478812
vt 0.7811183 0.150468
vt 0.7686318 0.1540809
vt 0.7791819 0.1693886
vt 0.7685028 0.1660169
vt 0.7802362 0.1832232
vt 0.7948159 0.175998
vt 0.7934147 0.1987758
vt 0.780072 0.2013236
vt 0.795436 0.1988366
vt 0.7948414 0.2147982
vt 0.780417 0.2125161
vt 0.7948414 0.2147982
vt 0.7933918 0.2260817
vt 0.780453 0.2300504
vt 0.780072 0.2013236
vt 0.808625 0.194743
vt 0.8211186 0.2066756
vt 0.8206239 0.1947025
vt 0.8083891 0.2147921
vt 0.821569 0.2212074
vt 0.8087288 0.2257532
vt 0.8094169 0.2479507
vt 0.8222065 0.241775
vt 0.7969323 0.2516282
vt 0.8217392 0.2660221
vt 0.8222065 0.241775
vt 0.8105371 0.2643968
vt 0.7984202 0.2620719
vt 0.7519689 0.1247422
vt 0.7709421 0.1123157
vt 0.7569413 0.1116365
vt 0.7628965 0.1335211
vt 0.7746227 0.125841
vt 0.6835977 0.1757431
vt 0.6818304 0.1429948
vt 0.6774743 0.1744834
vt 0.695062 0.142661
vt 0.6954558 0.1770178
vt 0.7053409 0.1765627
vt 0.7109683 0.142661
vt 0.7205728 0.175904
vt 0.7315543 0.1426611
vt 0.7431355 0.1761036
vt 0.7497211 0.1426611
vt 0.760297 0.1749509
vt 0.7592314 0.1425899
vt 0.8319154 0.06997902
vt 0.7991987 0.08088811
vt 0.8315816 0.08213989
vt 0.7988333 0.07016561
vt 0.7988332 0.05888409
vt 0.8319153 0.05427118
vt 0.7988333 0.04577078
vt 0.8319153 0.03643591
vt 0.7988333 0.03093099
vt 0.8306054 0.01280154
vt 0.8003263 0.01175234
vt 0.7440126 0.1985933
vt 0.7428041 0.186084
vt 0.7323764 0.1875474
vt 0.7320755 0.2030321
vt 0.7440127 0.2178811
vt 0.7320755 0.2242751
vt 0.7440127 0.2356558
vt 0.7320756 0.2413079
vt 0.7332149 0.256522
vt 0.7428092 0.2567753
vt 0.7497211 0.1426611
vt 0.7592314 0.1425899
vt 0.7329351 0.1407243
vt 0.7315543 0.1426611
vt 0.7128839 0.1407246
vt 0.7109683 0.142661
vt 0.6957473 0.1407243
vt 0.695062 0.142661
vt 0.829263 0.1217331
vt 0.831121 0.1457384
vt 0.831121 0.1229701
vt 0.829263 0.1487102
vt 0.831121 0.1649097
vt 0.829263 0.1677883
vt 0.8282194 0.1826515
vt 0.3936982 0.05867146
vt 0.3828666 0.04308944
vt 0.3741413 0.08130286
vt 0.4154345 0.03304049
vt 0.3923246 0.07860819
vt 0.4106357 0.05217645
vt 0.4088216 0.1069628
vt 0.4429038 0.05364459
vt 0.4152541 0.08707276
vt 0.4273762 0.06759099
vt 0.4421884 0.08809059
vn 0.3208681 0.02883613 -0.9466848
vn 0.244535 -0.2977471 -0.9227943
vn 0.2640768 -0.198162 -0.9439254
vn 0.06920447 -0.540349 0.8385903
vn 0.01931636 -0.9961281 0.08576517
vn 0.1252618 -0.3246765 0.9374937
vn -0.1209762 0.1694112 0.9780924
vn -0.2823826 0.9269865 0.246893
vn -0.1547499 0.671373 0.7247832
vn 0.9973978 -0.03035157 -0.06539543
vn 0.9973978 -0.03035157 -0.06539543
vn 0.9973978 -0.03035157 -0.06539543
vn 0.03346192 -0.3359048 -0.9413014
vn -0.07521221 0.106133 -0.9915035
vn 0.09548564 -0.6983639 -0.709345
vn -0.5244731 0.6591475 -0.5389364
vn 0.04104181 0.8846004 -0.4645404
vn -0.07448342 0.9900136 0.1196883
vn 0.09269273 0.4390421 -0.8936723
vn 0.08182012 -0.5372531 -0.839443
vn 0.08606906 0.9839902 -0.156062
vn 0.06013136 0.7141269 0.6974287
vn 0.07838539 0.393059 0.9161662
vn 0.05895518 0.6800013 0.7308369
vn 0.06207634 -0.3387771 0.9388166
vn 0.04853059 -0.4813688 0.8751737
vn 0.07894596 -0.3736344 0.9242104
vn 0.0649925 -0.9806386 0.1847263
vn 0.04746905 -0.993077 0.1074464
vn 0.04613492 -0.9985025 0.02940116
vn 0.03346192 -0.3359048 -0.9413014
vn 0.09548564 -0.6983639 -0.709345
vn 0.08182012 -0.5372531 -0.839443
vn -0.5244731 0.6591475 -0.5389364
vn -0.07448342 0.9900136 0.1196883
vn -0.07521221 0.106133 -0.9915035
vn 0.04105323 0.9218777 -0.3853001
vn 0.3225335 0.5043395 -0.801008
vn -0.08872456 0.7858257 0.6120505
vn -0.5175697 -0.4725299 -0.7133282
vn 0.09548564 -0.6983639 -0.709345
vn 0.07838539 0.393059 0.9161662
vn -0.5548177 0.1687045 0.8146877
vn -0.5417306 -0.5017452 0.6743736
vn 0.04853059 -0.4813688 0.8751737
vn -0.4805299 -0.8736658 -0.07615177
vn 0.0649925 -0.9806386 0.1847263
vn -0.5175697 -0.4725299 -0.7133282
vn 0.3225335 0.5043395 -0.801008
vn -0.4989478 0.3445486 -0.7951964
vn 0.04105323 0.9218777 -0.3853001
vn -0.436736 0.884994 0.1613919
vn -0.08872456 0.7858257 0.6120505
vn -0.5548177 0.1687045 0.8146877
vn -0.01188815 -0.4422676 0.8968044
vn -0.0009321512 0.4481844 0.8939406
vn 0.0310108 0.1756135 0.9839707
vn 0.03766637 -0.9119958 0.4084664
vn -0.002485174 -0.9885871 0.1506308
vn 0.0217235 -0.6757509 -0.7368099
vn 0.009158579 -0.6329584 -0.7741317
vn 0.01441136 0.4436179 -0.8961002
vn 0.01442981 0.4544809 -0.8906395
vn 0.01599555 0.9969028 0.07699884
vn 0.01601609 0.9940819 0.1074466
vn -0.0009321512 0.4481844 0.8939406
vn 0.0310108 0.1756135 0.9839707
vn -0.08654117 0.4943015 -0.8649721
vn -0.009369766 -0.8661274 -0.4997353
vn 0.1521835 -0.7040524 -0.6936501
vn 0.3266088 0.09905468 -0.9399547
vn 0.9103298 -0.3874249 0.1456077
vn 0.8736247 0.4780703 -0.09071237
vn 0.2332916 0.9717312 -0.03624143
vn -0.1084967 0.6670464 0.7370737
vn 0.2256185 0.08164705 0.9707884
vn 0.9103298 -0.3874249 0.1456077
vn -0.007896846 -0.778976 0.627004
vn 0.266755 -0.9066064 0.3269656
vn 0.1521835 -0.7040524 -0.6936501
vn -0.009369766 -0.8661274 -0.4997353
vn -0.9985241 0.01274815 0.05279215
vn -0.9934464 -0.05607096 0.09960099
vn -0.9994642 -0.01703111 -0.02795163
vn -0.9956794 -0.07030245 -0.06066358
vn -0.9922538 -0.1240445 0.006740944
vn -0.07956032 -0.2498167 0.965019
vn 0.02222718 0.1943556 0.9806793
vn 0.04505193 -0.1381808 0.9893818
vn 0.1286976 0.4869084 0.8639196
vn 0.03176406 0.9560958 0.2913278
vn -0.009452643 0.9706501 -0.2403099
vn 0.3407262 0.3336438 -0.8789696
vn 0.1415901 0.1763576 -0.9740894
vn 0.2640768 -0.198162 -0.9439254
vn 0.06788956 -0.361673 -0.92983
vn 0.244535 -0.2977471 -0.9227943
vn -0.232158 0.1420676 0.9622471
vn -0.2649515 -0.1504266 0.9524561
vn -0.3564242 -0.5354656 0.7656621
vn -0.5233688 0.20884 0.8261181
vn -0.05251051 0.1443496 0.9881324
vn 0.01330859 -0.3523635 0.9357685
vn -0.0128889 -0.3266201 0.9450678
vn -0.1073257 -0.02493706 0.9939111
vn -0.1547499 0.671373 0.7247832
vn -0.1209762 0.1694112 0.9780924
vn 0.1037556 0.927605 0.3588643
vn 0.08566926 0.7591264 0.6452813
vn 0.5765198 0.7685532 -0.2774004
vn -0.1142118 0.8660056 -0.4868161
vn 0.832279 -0.4449552 0.3306454
vn 0.07292779 0.0729252 0.9946675
vn -0.6460044 0.307394 -0.698704
vn -0.04295893 0.03088744 -0.9985992
vn -0.05768272 0.07632146 -0.9954134
vn -0.3176649 0.02516692 -0.9478689
vn -0.9998779 -0.01109631 0.01100347
vn 0.1252618 -0.3246765 0.9374937
vn 0.07292779 0.0729252 0.9946675
vn 0.06920447 -0.540349 0.8385903
vn 0.1216138 -0.7704187 0.6258314
vn 0.832279 -0.4449552 0.3306454
vn -0.1591535 -0.9535117 -0.2559018
vn -0.2098849 -0.8960739 -0.3911522
vn -0.2098849 -0.8960739 -0.3911522
vn -0.08097909 -0.09825115 -0.9918613
vn -0.09674133 -0.1124816 -0.9889333
vn -0.09800605 -0.1143916 -0.9885896
vn -0.08521322 -0.100574 -0.9912737
vn -0.05374644 -0.07333322 -0.9958583
vn 1 0 0
vn 1 0 0
vn 1 -2.812009E-07 0
vn 1 0 0
vn 1 0 0
vn 0.06920447 -0.540349 0.8385903
vn -0.2649515 -0.1504266 0.9524561
vn 0.01931636 -0.9961281 0.08576517
vn -0.5233688 0.20884 0.8261181
vn 0.07292779 0.0729252 0.9946675
vn -0.04888021 0.7879029 0.6138566
vn 0.00410068 0.9106551 0.4131471
vn -0.0775995 0.9844471 -0.1576134
vn 0.02389973 0.7932666 -0.6084052
vn -0.07369263 0.2869175 -0.9551166
vn -0.01133274 0.02021786 -0.9997314
vn -0.05824992 -0.3066916 -0.9500248
vn -0.05824992 -0.3066916 -0.9500248
vn 0.2640768 -0.198162 -0.9439254
vn -0.05768272 0.07632146 -0.9954134
vn 0.3208681 0.02883613 -0.9466848
vn -0.04295893 0.03088744 -0.9985992
vn -0.04166049 -0.7611624 -0.6472219
vn -0.1013529 -0.9325746 -0.3464568
vn 0.01288406 -0.9887068 0.1493077
vn -0.1073012 -0.7029148 0.7031339
vn 0.005893284 -0.3111097 0.9503558
vn -0.1013601 -0.03632049 0.9941865
vn 0.02744085 0.2425817 0.9697428
vn 0.02815987 -0.1824367 0.9828142
vn 0.120518 0.1935174 0.9736665
vn -0.232158 0.1420676 0.9622471
vn -0.3564242 -0.5354656 0.7656621
vn 0.09749516 -0.9768619 0.1903563
vn -0.3746761 -0.9163815 0.1409347
vn 0.05330643 -0.4905795 -0.8697645
vn 0.1016129 -0.3654305 -0.9252758
vn 0.04411149 0.03069148 -0.998555
vn 0.04411149 0.03069148 -0.998555
vn 0.9943546 -0.03949694 0.09848279
vn 0.9941402 -0.04040736 0.1002622
vn 0.9997907 -0.002947074 0.02024624
vn 0.9999913 1.246599E-05 0.00417918
vn 0.9995591 0.02548999 -0.01522815
vn 0.9935198 0.01844811 -0.1121511
vn 0.2640768 -0.198162 -0.9439254
vn 0.3407262 0.3336438 -0.8789696
vn -0.5233688 0.20884 0.8261181
vn -0.3746761 -0.9163815 0.1409347
vn -0.3564242 -0.5354656 0.7656621
vn -0.9997751 -0.01871241 0.009975837
vn -0.9999145 -0.009046042 -0.009440836
vn -0.9981198 -0.04240787 -0.04425498
vn -0.9979435 -0.04435014 -0.0462818
vn -0.9956794 -0.07030245 -0.06066358
vn -0.5175697 -0.4725299 -0.7133282
vn -0.4989478 0.3445486 -0.7951964
vn -0.4805299 -0.8736658 -0.07615177
vn -0.9994642 -0.01703111 -0.02795163
vn -0.9922538 -0.1240445 0.006740944
vn -0.436736 0.884994 0.1613919
vn -0.5417306 -0.5017452 0.6743736
vn -0.9985241 0.01274815 0.05279215
vn -0.9934464 -0.05607096 0.09960099
vn -0.5548177 0.1687045 0.8146877
g LMG_Bullet16_Mesh_LOD2_0
f 3/3/3 2/2/2 1/1/1
f 6/6/6 5/5/5 4/4/4
f 9/9/9 8/8/8 7/7/7
f 12/12/12 11/11/11 10/10/10
f 15/15/15 14/14/14 13/13/13
f 14/14/14 16/16/16 13/13/13
f 16/16/16 17/17/17 13/13/13
f 16/16/16 18/18/18 17/17/17
f 19/19/19 13/13/13 17/17/17
f 19/19/19 20/20/20 13/13/13
f 21/21/21 19/19/19 17/17/17
f 17/17/17 18/18/18 22/22/22
f 17/17/17 22/22/22 21/21/21
f 22/22/22 18/18/18 23/23/23
f 22/22/22 24/24/24 21/21/21
f 25/25/25 22/22/22 23/23/23
f 22/22/22 25/25/25 24/24/24
f 23/23/23 26/26/26 25/25/25
f 25/25/25 27/27/27 24/24/24
f 26/26/26 28/28/28 25/25/25
f 25/25/25 29/29/29 27/27/27
f 28/28/28 29/29/29 25/25/25
f 29/29/29 30/30/30 27/27/27
f 31/31/31 29/29/29 28/28/28
f 29/29/29 31/31/31 30/30/30
f 32/32/32 31/31/31 28/28/28
f 31/31/31 33/33/33 30/30/30
f 36/36/36 35/35/35 34/34/34
f 35/35/35 36/36/36 37/37/37
f 36/36/36 38/38/38 37/37/37
f 37/37/37 39/39/39 35/35/35
f 40/40/40 38/38/38 36/36/36
f 40/40/40 36/36/36 41/41/41
f 39/39/39 42/42/42 35/35/35
f 39/39/39 43/43/43 42/42/42
f 42/42/42 43/43/43 44/44/44
f 45/45/45 42/42/42 44/44/44
f 46/46/46 40/40/40 41/41/41
f 45/45/45 44/44/44 46/46/46
f 46/46/46 41/41/41 47/47/47
f 47/47/47 45/45/45 46/46/46
f 50/50/50 49/49/49 48/48/48
f 49/49/49 50/50/50 51/51/51
f 50/50/50 52/52/52 51/51/51
f 52/52/52 53/53/53 51/51/51
f 52/52/52 54/54/54 53/53/53
f 57/57/57 56/56/56 55/55/55
f 58/58/58 57/57/57 55/55/55
f 58/58/58 55/55/55 59/59/59
f 60/60/60 58/58/58 59/59/59
f 60/60/60 59/59/59 61/61/61
f 61/61/61 62/62/62 60/60/60
f 62/62/62 63/63/63 60/60/60
f 62/62/62 64/64/64 63/63/63
f 64/64/64 65/65/65 63/63/63
f 64/64/64 66/66/66 65/65/65
f 66/66/66 67/67/67 65/65/65
f 70/70/70 69/69/69 68/68/68
f 68/68/68 71/71/71 70/70/70
f 72/72/72 70/70/70 71/71/71
f 73/73/73 72/72/72 71/71/71
f 74/74/74 71/71/71 68/68/68
f 74/74/74 73/73/73 71/71/71
f 75/75/75 74/74/74 68/68/68
f 73/73/73 74/74/74 76/76/76
f 76/76/76 74/74/74 75/75/75
f 77/77/77 73/73/73 76/76/76
f 76/76/76 75/75/75 78/78/78
f 77/77/77 76/76/76 79/79/79
f 79/79/79 76/76/76 78/78/78
f 80/80/80 77/77/77 79/79/79
f 81/81/81 79/79/79 78/78/78
f 80/80/80 79/79/79 81/81/81
f 84/84/84 83/83/83 82/82/82
f 85/85/85 83/83/83 84/84/84
f 86/86/86 83/83/83 85/85/85
f 89/89/89 88/88/88 87/87/87
f 90/90/90 88/88/88 89/89/89
f 90/90/90 91/91/91 88/88/88
f 92/92/92 91/91/91 90/90/90
f 93/93/93 91/91/91 92/92/92
f 94/94/94 93/93/93 92/92/92
f 94/94/94 95/95/95 93/93/93
f 95/95/95 94/94/94 96/96/96
f 97/97/97 95/95/95 96/96/96
f 100/100/100 99/99/99 98/98/98
f 100/100/100 101/101/101 99/99/99
f 104/104/104 103/103/103 102/102/102
f 105/105/105 104/104/104 102/102/102
f 106/106/106 105/105/105 102/102/102
f 107/107/107 105/105/105 106/106/106
f 108/108/108 106/106/106 102/102/102
f 109/109/109 108/108/108 102/102/102
f 108/108/108 109/109/109 110/110/110
f 111/111/111 108/108/108 110/110/110
f 112/112/112 110/110/110 109/109/109
f 112/112/112 113/113/113 110/110/110
f 114/114/114 111/111/111 110/110/110
f 114/114/114 110/110/110 115/115/115
f 115/115/115 116/116/116 114/114/114
f 116/116/116 117/117/117 114/114/114
f 118/118/118 114/114/114 117/117/117
f 121/121/121 120/120/120 119/119/119
f 122/122/122 119/119/119 120/120/120
f 123/123/123 122/122/122 120/120/120
f 122/122/122 123/123/123 124/124/124
f 125/125/125 124/124/124 123/123/123
f 126/126/126 125/125/125 123/123/123
f 129/129/129 128/128/128 127/127/127
f 127/127/127 128/128/128 130/130/130
f 130/130/130 131/131/131 127/127/127
f 134/134/134 133/133/133 132/132/132
f 132/132/132 133/133/133 135/135/135
f 135/135/135 133/133/133 136/136/136
f 139/139/139 138/138/138 137/137/137
f 138/138/138 140/140/140 137/137/137
f 137/137/137 140/140/140 141/141/141
f 142/142/142 141/141/141 140/140/140
f 143/143/143 142/142/142 140/140/140
f 142/142/142 143/143/143 144/144/144
f 143/143/143 145/145/145 144/144/144
f 144/144/144 145/145/145 146/146/146
f 145/145/145 147/147/147 146/146/146
f 148/148/148 146/146/146 147/147/147
f 149/149/149 148/148/148 147/147/147
f 152/152/152 151/151/151 150/150/150
f 151/151/151 153/153/153 150/150/150
f 154/154/154 150/150/150 153/153/153
f 154/154/154 155/155/155 150/150/150
f 156/156/156 155/155/155 154/154/154
f 157/157/157 155/155/155 156/156/156
f 158/158/158 157/157/157 156/156/156
f 159/159/159 157/157/157 158/158/158
f 160/160/160 159/159/159 158/158/158
f 163/163/163 162/162/162 161/161/161
f 164/164/164 163/163/163 161/161/161
f 161/161/161 165/165/165 164/164/164
f 165/165/165 166/166/166 164/164/164
f 165/165/165 167/167/167 166/166/166
f 166/166/166 167/167/167 168/168/168
f 169/169/169 168/168/168 167/167/167
f 170/170/170 169/169/169 167/167/167
f 173/173/173 172/172/172 171/171/171
f 173/173/173 171/171/171 174/174/174
f 175/175/175 173/173/173 174/174/174
f 176/176/176 175/175/175 174/174/174
f 177/177/177 175/175/175 176/176/176
f 178/178/178 177/177/177 176/176/176
f 181/181/181 180/180/180 179/179/179
f 180/180/180 182/182/182 179/179/179
f 180/180/180 183/183/183 182/182/182
f 182/182/182 183/183/183 184/184/184
f 184/184/184 183/183/183 185/185/185
f 188/188/188 187/187/187 186/186/186
f 187/187/187 189/189/189 186/186/186
f 190/190/190 188/188/188 186/186/186
f 189/189/189 191/191/191 186/186/186
f 188/188/188 190/190/190 192/192/192
f 189/189/189 193/193/193 191/191/191
f 190/190/190 194/194/194 192/192/192
f 193/193/193 195/195/195 191/191/191
f 192/192/192 194/194/194 196/196/196
f 195/195/195 193/193/193 196/196/196
f 194/194/194 195/195/195 196/196/196
