g LMG_FrontSightDown_Mesh_LOD3
v 0.01634965 -0.0003670502 0.001181523
v 0.01653081 -0.0002799548 0.001390256
v 0.01663948 -0.0003670855 0.001187518
v 0.01634965 -0.0003670502 0.001181523
v 0.01634707 -0.0002788924 0.001203644
v 0.01653081 -0.0002799548 0.001390256
v 0.01609962 -0.0002714666 0.001137944
v 0.01612625 -0.0003067386 0.001276953
v 0.01621835 -0.0002772457 0.001339083
v 0.01648131 0.0002790608 0.001098693
v 0.01665142 0.000279885 0.001252457
v 0.01653853 0.0003671176 0.001104252
v 0.01589109 0.0003515721 0.001109205
v 0.01575644 0.0003444035 0.00117714
v 0.01572222 0.0003410954 0.000983964
v 0.01648131 0.0002790608 0.001098693
v 0.01653853 0.0003671176 0.001104252
v 0.01635218 0.000279885 0.001236635
v 0.01538015 3.280461E-05 0.001156798
v 0.01538139 -3.093948E-13 0.001312994
v 0.0151603 3.659053E-11 0.00121981
v 0.01578391 -0.0003453172 0.001178888
v 0.01584162 -0.0003618033 0.0009823546
v 0.01573638 -0.0003324811 0.0009827296
v 0.01653081 -0.0002799548 0.001390256
v 0.01664014 -0.0002788925 0.001164056
v 0.01663948 -0.0003670855 0.001187518
v 0.0151603 3.659053E-11 0.00121981
v 0.01538015 -3.280457E-05 0.001156798
v 0.01538015 3.280461E-05 0.001156798
v 0.01524755 -0.0002367072 0.0008510452
v 0.01514675 -0.0001967855 0.0008566864
v 0.01488032 -0.0004714128 0.001028073
v 0.01538015 -3.280457E-05 0.001156798
v 0.0151603 3.659053E-11 0.00121981
v 0.01538139 -3.093948E-13 0.001312994
v 0.01634965 -0.0003670502 0.001181523
v 0.01664014 -0.0002788925 0.001164056
v 0.01634707 -0.0002788924 0.001203644
v 0.01663948 -0.0003670855 0.001187518
v 0.01608399 -0.000259872 0.001287191
v 0.01621835 -0.0002772457 0.001339083
v 0.01612625 -0.0003067386 0.001276953
v 0.01609962 -0.0002714666 0.001137944
v 0.01649389 0.000279885 0.001394166
v 0.01653853 0.0003671176 0.001104252
v 0.01665142 0.000279885 0.001252457
v 0.01635218 0.000279885 0.001236635
v 0.01526426 0.000191092 0.0008477836
v 0.01488032 0.0004714132 0.001028074
v 0.01491517 0.0003971376 0.001519883
v 0.01536726 0.0001782898 0.001575375
v 0.01536938 -0.0001772882 0.001575375
v 0.01524755 -0.0002367072 0.0008510452
v 0.01536726 0.0001782898 0.001575375
v 0.01491517 0.0003971376 0.001519883
v 0.01516161 0.0002908301 0.00158859
v 0.01642509 0.0002997214 0.001575375
v 0.01536938 -0.0001772882 0.001575375
v 0.01642509 -0.0002997214 0.001575375
v 0.01508425 -0.0002826829 0.001581827
v 0.01644447 -0.0002775402 0.001575375
v 0.01732654 -0.0002943358 0.001510622
v 0.01644447 0.0002775403 0.001575375
v 0.01732654 0.0002943359 0.001510622
v 0.01516161 0.0002908301 0.00158859
v 0.01491517 0.0003971376 0.001519883
v 0.01488032 0.0004714132 0.001028074
v 0.01526426 0.000191092 0.0008477836
v 0.01644547 0.0002964762 0.0008765965
v 0.01642509 0.0002997214 0.001575375
v 0.01726959 0.0002943359 0.0009445202
v 0.01732654 0.0002943359 0.001510622
v 0.01726959 0.0002943359 0.0009445202
v 0.01644447 0.0002775403 0.001575375
v 0.01732654 0.0002943359 0.001510622
v 0.01644547 0.0002964762 0.0008765965
v 0.01508425 -0.0002826829 0.001581827
v 0.01487618 -0.0004875885 0.001372867
v 0.01488032 -0.0004714128 0.001028073
v 0.01514675 -0.0001967855 0.0008566864
v 0.01536938 -0.0001772882 0.001575375
v 0.01524755 -0.0002367072 0.0008510452
v 0.01524755 -0.0002367072 0.0008510452
v 0.01488032 -0.0004714128 0.001028073
v 0.01487618 -0.0004875885 0.001372867
v 0.01508425 -0.0002826829 0.001581827
v 0.01644499 -0.000296443 0.000876177
v 0.01642509 -0.0002997214 0.001575375
v 0.01726959 -0.0002943358 0.0009445202
v 0.01732654 -0.0002943358 0.001510622
v 0.01732654 -0.0002943358 0.001510622
v 0.01644447 -0.0002775402 0.001575375
v 0.01726959 -0.0002943358 0.0009445202
v 0.01644499 -0.000296443 0.000876177
v 0.01609962 -0.0002714666 0.001137944
v 0.01621835 -0.0002772457 0.001339083
v 0.01628204 -0.0002629561 0.001248404
v 0.0162151 -0.0002659937 0.001123368
v 0.01644447 0.0002775403 0.001575375
v 0.01644547 0.0002964762 0.0008765965
v 0.01644499 -0.000296443 0.000876177
v 0.01644447 -0.0002775402 0.001575375
v 0.01644499 -0.000296443 0.000876177
v 0.01644547 0.0002964762 0.0008765965
v 0.01526426 0.000191092 0.0008477836
v 0.01524755 -0.0002367072 0.0008510452
v 0.01590327 -0.0002850199 0.0009048191
v 0.01568997 -0.0002565667 0.0009285915
v 0.01584162 -0.0003618033 0.0009823546
v 0.01602413 -0.0003058276 0.001066947
v 0.01573638 -0.0003324811 0.0009827296
v 0.0155871 -0.0002850202 0.00111491
v 0.01578391 -0.0003453172 0.001178888
v 0.01592622 -0.0002732845 0.001212867
v 0.01571128 -0.0002761788 0.001258455
v 0.01572222 0.0003410954 0.000983964
v 0.01568997 0.0002565672 0.0009285912
v 0.01591569 0.0002971642 0.0008936158
v 0.0155871 0.0002850203 0.00111491
v 0.01575644 0.0003444035 0.00117714
v 0.01571395 0.0002761786 0.001259561
v 0.01589109 0.0003515721 0.001109205
v 0.01599348 0.0002802623 0.001076472
v 0.01589851 0.0002790393 0.001238797
v 0.01528557 0.0002629553 0.001336362
v 0.01530476 0.0003129355 0.001289453
v 0.01541371 0.0002559727 0.001227725
v 0.0151944 0.0002667871 0.001226646
v 0.01530161 0.0003006135 0.001157969
v 0.0152887 0.0002631774 0.001116015
vt 0.1768424 0.01292391
vt 0.1792028 0.01503099
vt 0.1799112 0.01221933
vt 0.1672219 0.032247
vt 0.1667651 0.033648
vt 0.1708373 0.03125963
vt 0.2278213 0.02448945
vt 0.2268223 0.02501111
vt 0.2279348 0.02563175
vt 0.1630752 0.01041106
vt 0.1661652 0.01318246
vt 0.1646619 0.01100626
vt 0.2050668 0.02400888
vt 0.2062953 0.02524439
vt 0.2066549 0.02353244
vt 0.1630752 0.01041106
vt 0.1646619 0.01100626
vt 0.1659324 0.007578531
vt 0.6317305 0.6702725
vt 0.6343475 0.6704786
vt 0.633039 0.6667856
vt 0.5587968 0.6835306
vt 0.5579008 0.6840613
vt 0.5582114 0.6859182
vt 0.1708373 0.03125963
vt 0.1668655 0.02874433
vt 0.1674656 0.02976755
vt 0.4387637 0.5156032
vt 0.438228 0.5191855
vt 0.4392995 0.5191855
vt 0.9527778 0.04062011
vt 0.9545019 0.0413083
vt 0.9594373 0.03634361
vt 0.6254576 0.6897443
vt 0.6267661 0.6932312
vt 0.6280746 0.6895382
vt 0.1672219 0.032247
vt 0.1668655 0.02874433
vt 0.1667651 0.033648
vt 0.1674656 0.02976755
vt 0.2943812 0.01964451
vt 0.2954728 0.01792885
vt 0.2941544 0.01851314
vt 0.292185 0.01896884
vt 0.2719986 0.01191015
vt 0.2702538 0.008356287
vt 0.2693489 0.01100576
vt 0.2729031 0.009260328
vt 0.4712313 0.51074
vt 0.4684231 0.5031217
vt 0.4617028 0.5046832
vt 0.4596875 0.5125335
vt 0.4596876 0.5184003
vt 0.4712315 0.5184003
vt 0.47329 0.5677763
vt 0.4678173 0.5709054
vt 0.4708189 0.5694206
vt 0.4869055 0.56936
vt 0.4733099 0.563412
vt 0.4869056 0.5618084
vt 0.4698907 0.5620754
vt 0.4871585 0.5620339
vt 0.4987171 0.561819
vt 0.4871584 0.5691346
vt 0.4987171 0.5693494
vt 0.3686097 0.4895524
vt 0.3652621 0.4842295
vt 0.3602152 0.4843976
vt 0.357321 0.4889607
vt 0.3572552 0.5107179
vt 0.368701 0.5102512
vt 0.3585908 0.5240068
vt 0.3676434 0.5252075
vt 0.2657703 0.3614867
vt 0.2791338 0.351377
vt 0.2646214 0.3524345
vt 0.2789861 0.3628222
vt 0.4599139 0.5237687
vt 0.4631389 0.5283118
vt 0.4684233 0.5278479
vt 0.4712312 0.5220699
vt 0.4596876 0.5184003
vt 0.4712315 0.5184003
vt 0.3573268 0.5635717
vt 0.3602152 0.5682116
vt 0.3652622 0.5683798
vt 0.3686214 0.5629869
vt 0.357235 0.5419066
vt 0.368701 0.5423582
vt 0.3585908 0.5286024
vt 0.3676433 0.5274017
vt 0.3027123 0.3524345
vt 0.2882001 0.351377
vt 0.3015635 0.3614867
vt 0.2883174 0.3628424
vt 0.292185 0.01896884
vt 0.2954728 0.01792885
vt 0.2943358 0.01634885
vt 0.2921135 0.01698218
vt 0.2791338 0.351377
vt 0.2789861 0.3628222
vt 0.2883174 0.3628424
vt 0.2882001 0.351377
vt 0.9333938 0.03968842
vt 0.933409 0.04945586
vt 0.9527913 0.04778987
vt 0.9527778 0.04062011
vt 0.2964495 0.01215795
vt 0.2955061 0.008501096
vt 0.2944458 0.01110257
vt 0.2942511 0.01390767
vt 0.2939032 0.00954859
vt 0.2918299 0.007562759
vt 0.2920497 0.01064878
vt 0.2912657 0.01366409
vt 0.2898289 0.01012553
vt 0.2126672 0.03060479
vt 0.2113497 0.02921379
vt 0.210409 0.032906
vt 0.2150258 0.02827552
vt 0.2149028 0.03080374
vt 0.2170312 0.03085917
vt 0.2138681 0.03252169
vt 0.2130315 0.03489211
vt 0.2161787 0.0340346
vt 0.6700646 0.3244621
vt 0.6692452 0.3254713
vt 0.6697545 0.3271022
vt 0.6677548 0.3241615
vt 0.6682688 0.3260359
vt 0.6671674 0.3264293
vn -0.4610309 -0.6024718 0.65152
vn -0.1760761 -0.8447823 0.5053119
vn -0.008203424 -0.9203011 0.3911248
vn -0.4610309 -0.6024718 0.65152
vn -0.6996979 -0.1931029 0.6878476
vn -0.1760761 -0.8447823 0.5053119
vn -0.02334373 -0.9938183 -0.1085367
vn -0.1811711 -0.9649742 0.1897412
vn 0.2063349 -0.9692328 -0.1342152
vn 0.625779 -0.3630618 -0.6903526
vn 0.625779 -0.3630618 -0.6903526
vn 0.625779 -0.3630618 -0.6903526
vn 0.3124816 0.9385861 0.1463256
vn -0.05047144 0.907009 0.4180758
vn -0.3122441 0.8648027 -0.3932173
vn -0.6472194 0.4589957 -0.6086297
vn -0.2783687 0.9596339 -0.04017085
vn -0.3897457 0.9191551 0.05702861
vn -0.08658116 0.9748362 0.2054218
vn -0.08658116 0.9748362 0.2054218
vn -0.08658116 0.9748362 0.2054218
vn -0.006772287 -0.9399396 0.3412736
vn 0.03807611 -0.9379639 -0.3446359
vn -0.3460763 -0.8461408 -0.4053108
vn 0.8948414 0.108524 0.4329912
vn 0.8948414 0.108524 0.4329912
vn 0.8948414 0.108524 0.4329912
vn -0.2755154 0 -0.9612966
vn -0.2755154 0 -0.9612966
vn -0.2755154 0 -0.9612966
vn 0.1063099 -0.9480968 -0.2996841
vn -0.1984751 -0.3730606 -0.9063296
vn 0.4896489 -0.862506 -0.1277787
vn -0.08658135 -0.9748362 0.2054216
vn -0.08658135 -0.9748362 0.2054216
vn -0.08658135 -0.9748362 0.2054216
vn -0.1041696 0.1484037 -0.9834252
vn -0.009244614 -0.1649473 -0.9862591
vn -0.1300256 0.2377308 -0.9625889
vn 0.01995521 -0.2571815 -0.966157
vn -0.661549 -0.6701239 0.3365813
vn -0.3672847 -0.5022383 0.7828528
vn -0.1811711 -0.9649742 0.1897412
vn -0.02334373 -0.9938183 -0.1085367
vn -0.02267519 0.9583032 0.2848523
vn -0.2783687 0.9596339 -0.04017085
vn 0.2843716 0.9050957 0.3161243
vn -0.3897457 0.9191551 0.05702861
vn -0.8936321 -0.4403514 0.08667287
vn -0.6109307 -0.7880543 -0.07572325
vn -0.504283 -0.8632551 0.02212061
vn -0.416978 -0.2935061 0.8602229
vn -0.377661 0.2827335 0.8817221
vn -0.9881344 0.01904302 0.1524061
vn -0.416978 -0.2935061 0.8602229
vn -0.504283 -0.8632551 0.02212061
vn -0.4113703 -0.8024875 0.4321901
vn 0.01988639 0.01371911 0.9997081
vn -0.377661 0.2827335 0.8817221
vn 0.01971849 -0.0155464 0.9996847
vn -0.5026148 0.8407451 0.2013108
vn 0.03478749 -0.03040685 0.9989321
vn 0.07187881 -0.0628273 0.9954326
vn 0.03478217 0.0304019 0.9989324
vn 0.07187901 0.06281789 0.9954332
vn 0.2293398 0.9732506 -0.01364951
vn 0.3666921 0.9233966 0.113471
vn 0.5359313 0.8442561 0.003042781
vn 0.2017775 0.977537 -0.06088683
vn -0.02196277 0.9989392 -0.04047242
vn -0.02214747 0.9989221 -0.04079429
vn 0.004709879 0.9999864 -0.002231922
vn 0.005931313 0.9999822 -0.0005968323
vn 0.010824 -0.9998637 -0.01246299
vn 0.007098225 -0.9998246 -0.01733498
vn 0.01889821 -0.9998197 -0.001901357
vn -0.0003633879 -0.999633 -0.0270891
vn -0.5026148 0.8407451 0.2013108
vn -0.7137277 0.7000028 0.02426549
vn -0.7114156 0.702408 0.02259916
vn -0.156364 0.9862155 -0.05412195
vn -0.377661 0.2827335 0.8817221
vn 0.35821 0.9236795 -0.1360209
vn 0.1063099 -0.9480968 -0.2996841
vn 0.4896489 -0.862506 -0.1277787
vn 0.6123192 -0.7885789 0.05664422
vn 0.3032024 -0.9525733 0.02593264
vn -0.01375084 -0.9996703 -0.02168403
vn -0.01365831 -0.9996774 -0.02141442
vn 0.004694731 -0.9999865 -0.0022522
vn 0.005931319 -0.9999822 -0.00059674
vn 0.01889819 0.9998197 -0.001901358
vn 0.007124699 0.9998249 -0.01730029
vn 0.01084155 0.9998639 -0.01243998
vn -0.0003145646 0.9996347 -0.0270252
vn -0.02334373 -0.9938183 -0.1085367
vn 0.2063349 -0.9692328 -0.1342152
vn 0.078602 -0.9954904 -0.05310999
vn 0.078602 -0.9954904 -0.05310999
vn 0.9999994 -0.0004202514 0.001077836
vn 0.9999994 -0.0004202514 0.001077836
vn 0.9999994 -0.0004202514 0.001077836
vn 0.9999994 -0.0004202514 0.001077836
vn 0.02273343 -0.003166466 -0.9997365
vn 0.02273343 -0.003166466 -0.9997365
vn 0.02273343 -0.003166466 -0.9997365
vn 0.02273343 -0.003166466 -0.9997365
vn 0.1762854 -0.7659045 -0.6183152
vn -0.4154189 -0.6806214 -0.6034747
vn 0.03807611 -0.9379639 -0.3446359
vn 0.3289335 -0.9378443 0.1106831
vn -0.3460763 -0.8461408 -0.4053108
vn -0.4163889 -0.9090311 0.01681724
vn -0.006772287 -0.9399396 0.3412736
vn 0.2657948 -0.7874611 0.5561099
vn -0.1546669 -0.8685067 0.4709292
vn -0.3122441 0.8648027 -0.3932173
vn -0.4670631 0.6022846 -0.6473835
vn 0.1722949 0.9169993 -0.3597592
vn -0.4856825 0.8734028 0.03577675
vn -0.05047144 0.907009 0.4180758
vn -0.1637268 0.8325072 0.5292687
vn 0.3124816 0.9385861 0.1463256
vn 0.5812957 0.8122241 0.04886178
vn 0.2296462 0.8548433 0.4653017
vn -0.06900419 0.6966689 0.7140664
vn 0.09561163 0.8985482 0.4283333
vn 0.5738752 0.8189132 -0.006974007
vn -0.4726196 0.8811756 -0.01265471
vn 0.07913541 0.8813403 -0.4658079
vn -0.03775877 0.7513434 -0.6588302
g LMG_FrontSightDown_Mesh_LOD3_0
f 3/3/3 2/2/2 1/1/1
f 6/6/6 5/5/5 4/4/4
f 9/9/9 8/8/8 7/7/7
f 12/12/12 11/11/11 10/10/10
f 15/15/15 14/14/14 13/13/13
f 18/18/18 17/17/17 16/16/16
f 21/21/21 20/20/20 19/19/19
f 24/24/24 23/23/23 22/22/22
f 27/27/27 26/26/26 25/25/25
f 30/30/30 29/29/29 28/28/28
f 33/33/33 32/32/32 31/31/31
f 36/36/36 35/35/35 34/34/34
f 39/39/39 38/38/38 37/37/37
f 40/40/40 37/37/37 38/38/38
f 43/43/43 42/42/42 41/41/41
f 43/43/43 41/41/41 44/44/44
f 47/47/47 46/46/46 45/45/45
f 45/45/45 46/46/46 48/48/48
f 51/51/51 50/50/50 49/49/49
f 51/51/51 49/49/49 52/52/52
f 53/53/53 52/52/52 49/49/49
f 54/54/54 53/53/53 49/49/49
f 57/57/57 56/56/56 55/55/55
f 58/58/58 57/57/57 55/55/55
f 58/58/58 55/55/55 59/59/59
f 60/60/60 58/58/58 59/59/59
f 61/61/61 60/60/60 59/59/59
f 58/58/58 60/60/60 62/62/62
f 63/63/63 62/62/62 60/60/60
f 64/64/64 58/58/58 62/62/62
f 58/58/58 64/64/64 65/65/65
f 68/68/68 67/67/67 66/66/66
f 69/69/69 68/68/68 66/66/66
f 70/70/70 69/69/69 66/66/66
f 71/71/71 70/70/70 66/66/66
f 72/72/72 70/70/70 71/71/71
f 72/72/72 71/71/71 73/73/73
f 76/76/76 75/75/75 74/74/74
f 74/74/74 75/75/75 77/77/77
f 80/80/80 79/79/79 78/78/78
f 80/80/80 78/78/78 81/81/81
f 78/78/78 82/82/82 81/81/81
f 82/82/82 83/83/83 81/81/81
f 86/86/86 85/85/85 84/84/84
f 87/87/87 86/86/86 84/84/84
f 87/87/87 84/84/84 88/88/88
f 89/89/89 87/87/87 88/88/88
f 90/90/90 89/89/89 88/88/88
f 89/89/89 90/90/90 91/91/91
f 94/94/94 93/93/93 92/92/92
f 94/94/94 95/95/95 93/93/93
f 98/98/98 97/97/97 96/96/96
f 99/99/99 98/98/98 96/96/96
f 102/102/102 101/101/101 100/100/100
f 103/103/103 102/102/102 100/100/100
f 106/106/106 105/105/105 104/104/104
f 107/107/107 106/106/106 104/104/104
f 110/110/110 109/109/109 108/108/108
f 110/110/110 108/108/108 111/111/111
f 109/109/109 110/110/110 112/112/112
f 112/112/112 113/113/113 109/109/109
f 110/110/110 111/111/111 114/114/114
f 114/114/114 113/113/113 112/112/112
f 114/114/114 111/111/111 115/115/115
f 114/114/114 116/116/116 113/113/113
f 116/116/116 114/114/114 115/115/115
f 119/119/119 118/118/118 117/117/117
f 120/120/120 117/117/117 118/118/118
f 120/120/120 121/121/121 117/117/117
f 122/122/122 121/121/121 120/120/120
f 117/117/117 123/123/123 119/119/119
f 122/122/122 123/123/123 121/121/121
f 124/124/124 119/119/119 123/123/123
f 123/123/123 122/122/122 125/125/125
f 125/125/125 124/124/124 123/123/123
f 128/128/128 127/127/127 126/126/126
f 126/126/126 127/127/127 129/129/129
f 127/127/127 128/128/128 130/130/130
f 129/129/129 127/127/127 130/130/130
f 131/131/131 130/130/130 128/128/128
f 131/131/131 129/129/129 130/130/130
