g LMG_BarrelShort_Mesh_LOD2
v 0.01987293 0.0001856527 -0.0003454492
v 0.01985179 -0.0001972084 -0.0003484436
v 0.02011747 8.906304E-05 -0.0002653809
v 0.02010181 -0.0002769971 -0.0001521668
v 0.01987293 -0.0004658147 -7.560311E-05
v 0.02009605 -0.0003933895 0.0001183146
v 0.01986591 -0.0004792882 0.0003060501
v 0.02010114 -0.0002880027 0.0003954316
v 0.01986607 -0.0001971346 0.0006035877
v 0.02010126 7.183875E-10 0.0005237795
v 0.01986593 0.0001945082 0.0005972428
v 0.02009739 0.0003430299 0.000340743
v 0.01986321 0.0004188915 0.000407555
v 0.01985933 0.0005115722 0.0001155102
v 0.02010656 0.000363786 -1.509315E-05
v 0.01986321 0.0004188913 -0.0001522322
v 0.02011747 8.906304E-05 -0.0002653809
v 0.01987293 0.0001856527 -0.0003454492
v 0.01800954 0.0001201116 -0.0004761766
v 0.01800954 0.0004582549 -0.0002983944
v 0.0179252 0.0002182611 -0.0004587531
v 0.0179252 0.0005689947 -0.0001326607
v 0.01800954 0.0006218851 0.0001276644
v 0.0179252 0.0005531016 0.0004571457
v 0.01800954 0.0005119126 0.0004697136
v 0.01800954 0.000218262 0.000714083
v 0.0179252 2.276432E-05 0.0007529699
v 0.01800954 -0.0001201116 0.000731507
v 0.0179252 -0.0004260604 0.0005859194
v 0.01800954 -0.000458255 0.0005537247
v 0.0179252 -0.0006253049 0.0001504299
v 0.01800954 -0.0006038417 0.0002477766
v 0.01800954 -0.0005689946 -0.0001326609
v 0.0179252 -0.0004582549 -0.0002983943
v 0.01800954 -0.0002182617 -0.0004587532
v 0.0179252 -0.0001201117 -0.0004761766
v 0.0179252 0.0002182611 -0.0004587531
v 0.01800954 0.0001201116 -0.0004761766
v 0.01985179 -0.0001972084 -0.0003484436
v 0.01987293 0.0001856527 -0.0003454492
v 0.01800954 0.0001973824 -0.0003488581
v 0.01800954 -0.0003149686 -0.0002946216
v 0.01987293 -0.0004658147 -7.560311E-05
v 0.01800954 -0.0005116779 0.0001462932
v 0.01986591 -0.0004792882 0.0003060501
v 0.01800954 -0.0003598325 0.000487497
v 0.01986607 -0.0001971346 0.0006035877
v 0.01800954 -4.432173E-10 0.0006434501
v 0.01986593 0.0001945082 0.0005972428
v 0.01800954 0.000452595 0.0003972743
v 0.01986321 0.0004188915 0.000407555
v 0.01985933 0.0005115722 0.0001155102
v 0.01800954 0.0004701434 -6.707494E-05
v 0.01986321 0.0004188913 -0.0001522322
v 0.01800954 0.0001973824 -0.0003488581
v 0.01987293 0.0001856527 -0.0003454492
v 0.01871897 -3.600249E-05 -0.0001196739
v 0.01871897 -0.0002208997 2.65956E-05
v 0.01871897 0.0002147312 -2.518933E-07
v 0.01871897 -0.0002102996 0.0002681801
v 0.01871897 4.825006E-05 0.0003702272
v 0.01871897 0.0002209011 0.0002287282
v 0.02011747 8.906304E-05 -0.0002653809
v 0.02033713 5.825386E-05 -0.0002725297
v 0.02033713 0.0003920222 2.8334E-05
v 0.02010656 0.000363786 -1.509315E-05
v 0.02009739 0.0003430299 0.000340743
v 0.02033713 0.0002799757 0.0004076363
v 0.02010126 7.183875E-10 0.0005237795
v 0.02033713 -7.806742E-05 0.0005201352
v 0.02010114 -0.0002880027 0.0003954316
v 0.02033713 -0.0003574188 0.0002911875
v 0.02009605 -0.0003933895 0.0001183146
v 0.02033713 -0.0003474354 -7.930439E-05
v 0.02010181 -0.0002769971 -0.0001521668
v 0.02033713 5.825386E-05 -0.0002725297
v 0.02011747 8.906304E-05 -0.0002653809
v 0.01871897 -0.0002208997 2.65956E-05
v 0.01871897 -3.600249E-05 -0.0001196739
v 0.02033713 -6.138748E-05 -0.0001146245
v 0.02033713 -0.000227664 4.292619E-05
v 0.01871897 -0.0002102996 0.0002681801
v 0.02033713 -0.0002056362 0.0002650642
v 0.02033713 4.934455E-05 0.0003757275
v 0.01871897 4.825006E-05 0.0003702272
v 0.01871897 0.0002209011 0.0002287282
v 0.02033713 0.0002276654 0.0002123976
v 0.01871897 0.0002147312 -2.518933E-07
v 0.02033713 0.0002003517 -2.177234E-05
v 0.01871897 -3.600249E-05 -0.0001196739
v 0.02033713 -6.138748E-05 -0.0001146245
v 0.02033713 -0.0003474354 -7.930439E-05
v 0.02033713 -0.0002056362 0.0002650642
v 0.02033713 -0.000227664 4.292619E-05
v 0.02033713 -6.138748E-05 -0.0001146245
v 0.02033713 -0.0003574188 0.0002911875
v 0.02033713 5.825386E-05 -0.0002725297
v 0.02033713 -7.806742E-05 0.0005201352
v 0.02033713 0.0002003517 -2.177234E-05
v 0.02033713 4.934455E-05 0.0003757275
v 0.02033713 0.0003920222 2.8334E-05
v 0.02033713 0.0002799757 0.0004076363
v 0.02033713 0.0002276654 0.0002123976
v 0.01800954 0.000452595 0.0003972743
v 0.01800954 0.0005119126 0.0004697136
v 0.01800954 0.0006218851 0.0001276644
v 0.01800954 0.000218262 0.000714083
v 0.01800954 0.0004701434 -6.707494E-05
v 0.01800954 0.0004582549 -0.0002983944
v 0.01800954 0.0001973824 -0.0003488581
v 0.01800954 0.0001201116 -0.0004761766
v 0.01800954 -4.432173E-10 0.0006434501
v 0.01800954 -0.0001201116 0.000731507
v 0.01800954 -0.000458255 0.0005537247
v 0.01800954 -0.0003598325 0.000487497
v 0.01800954 -0.0006038417 0.0002477766
v 0.01800954 -0.0005116779 0.0001462932
v 0.01800954 -0.0005689946 -0.0001326609
v 0.01800954 -0.0003149686 -0.0002946216
v 0.01800954 -0.0002182617 -0.0004587532
vt 0.005658858 0.455999
vt 0.00911393 0.4586972
vt 0.009044792 0.4536164
vt 0.01366157 0.4564646
vt 0.01417925 0.4614575
vt 0.01838169 0.4584076
vt 0.01973899 0.4633884
vt 0.0234899 0.4596415
vt 0.0261039 0.4643894
vt 0.02915516 0.4599661
vt 0.03229424 0.4642514
vt 0.03607704 0.4589655
vt 0.03688847 0.4634912
vt 0.04152266 0.462028
vt 0.04216008 0.4568111
vt 0.04565745 0.4601947
vt 0.04665833 0.4541731
vt 0.04981501 0.4573773
vt 0.00271633 0.4821462
vt 0.00910612 0.4821462
vt 0.00434006 0.4807397
vt 0.01235345 0.4807397
vt 0.01673992 0.4821462
vt 0.02224654 0.4807397
vt 0.02275005 0.4821462
vt 0.02913974 0.4821462
vt 0.03238712 0.4807397
vt 0.0347702 0.4821462
vt 0.04040048 0.4807397
vt 0.04115988 0.4821462
vt 0.04841392 0.4807397
vt 0.04679025 0.4821462
vt 0.05318004 0.4821462
vt 0.05642731 0.4807397
vt 0.06119347 0.4821462
vt 0.06281717 0.4807397
vt 0.06682386 0.4807397
vt 0.06682386 0.4821462
vt 0.04969716 0.03728834
vt 0.05461508 0.03728834
vt 0.05461508 0.006370693
vt 0.04764581 0.006370693
vt 0.04329892 0.03728829
vt 0.03955055 0.006370693
vt 0.03689292 0.03728822
vt 0.03330398 0.006370693
vt 0.03002531 0.03728822
vt 0.0267467 0.006370693
vt 0.02346807 0.03728822
vt 0.01813811 0.006370693
vt 0.0185501 0.03728822
vt 0.01342944 0.03728829
vt 0.0103535 0.006370693
vt 0.008714139 0.03728822
vt 0.003796221 0.006370693
vt 0.003637243 0.03728827
vt 0.1221042 0.3410214
vt 0.1201437 0.3441362
vt 0.1263216 0.3412341
vt 0.1219458 0.347399
vt 0.1261444 0.3474393
vt 0.1279638 0.344431
vt 0.04665833 0.4541731
vt 0.04490391 0.4505679
vt 0.0397047 0.4534652
vt 0.04216008 0.4568111
vt 0.03607704 0.4589655
vt 0.03379669 0.4553879
vt 0.02915516 0.4599661
vt 0.02789279 0.4558811
vt 0.0234899 0.4596415
vt 0.0221668 0.4553069
vt 0.01838169 0.4584076
vt 0.01674717 0.4535949
vt 0.01366157 0.4564646
vt 0.01118656 0.4505143
vt 0.009044792 0.4536164
vt 0.3519714 0.7419641
vt 0.3519714 0.7459006
vt 0.3789611 0.745474
vt 0.3789611 0.7416694
vt 0.3519714 0.7379502
vt 0.3789611 0.7379129
vt 0.3789611 0.7332392
vt 0.3519714 0.7332767
vt 0.3519714 0.7295202
vt 0.3789611 0.7292252
vt 0.3519714 0.7256792
vt 0.378961 0.7252521
vt 0.3519713 0.722373
vt 0.378961 0.7223727
vt 0.005254266 0.4759302
vt 0.01052401 0.4737909
vt 0.007048428 0.4743207
vt 0.00475355 0.4716105
vt 0.01105004 0.4764056
vt 0.002324943 0.4697576
vt 0.01442035 0.4718231
vt 0.006124129 0.4676419
vt 0.01209349 0.4698966
vt 0.006913802 0.4647271
vt 0.01288214 0.4661784
vt 0.009768704 0.466983
vt 0.1313716 0.3479012
vt 0.1330756 0.3495257
vt 0.1346089 0.3438206
vt 0.1280407 0.3532709
vt 0.1321513 0.3406668
vt 0.1319275 0.3369675
vt 0.1276911 0.3362066
vt 0.1265406 0.3337491
vt 0.1245373 0.3520621
vt 0.1225339 0.3538922
vt 0.1171471 0.3506738
vt 0.1187098 0.3496482
vt 0.1144657 0.345824
vt 0.116296 0.3441314
vt 0.1153777 0.3396156
vt 0.1197848 0.3374352
vt 0.1210339 0.3343704
vn 0.4285847 0.3538399 -0.8313318
vn 0.4255385 -0.344185 -0.8369312
vn 0.4744706 0.1959318 -0.858189
vn 0.4814644 -0.5956687 -0.6429393
vn 0.4179656 -0.8313911 -0.3661881
vn 0.4743757 -0.8801157 -0.01908496
vn 0.4174038 -0.8494719 0.322756
vn 0.4694379 -0.6452826 0.6026927
vn 0.4202205 -0.3531505 0.8358825
vn 0.4865079 0.02701749 0.8732584
vn 0.451667 0.3399924 0.8248648
vn 0.4916545 0.7364632 0.4646482
vn 0.3934022 0.7638941 0.5115667
vn 0.4460738 0.8949734 -0.006373334
vn 0.494286 0.7988206 -0.3428802
vn 0.442794 0.7285656 -0.5226142
vn 0.4744706 0.1959318 -0.858189
vn 0.4285847 0.3538399 -0.8313318
vn 0.6832972 0.07910363 -0.7258426
vn 0.5100535 0.6091627 -0.6072612
vn 0.186991 0.3779006 -0.9067665
vn 0.2289821 0.9010024 -0.3684587
vn 0.4587789 0.8885264 0.006531903
vn 0.1734094 0.8534399 0.4914972
vn 0.7508259 0.5204411 0.4066958
vn 0.452924 0.3896145 0.8019105
vn 0.1130849 0.0267998 0.9932239
vn 0.6374952 -0.252025 0.7280682
vn -0.166223 -0.6063077 0.7776637
vn -0.1946521 -0.7583132 0.6221509
vn 0.1351478 -0.9907975 0.007438912
vn 0.6167209 -0.7483612 0.2441535
vn 0.5101241 -0.7936293 -0.3315508
vn 0.2852665 -0.6797644 -0.6756799
vn 0.5503559 -0.3211775 -0.7706838
vn -0.08322167 -0.1079616 -0.9906657
vn 0.186991 0.3779006 -0.9067665
vn 0.6832972 0.07910363 -0.7258426
vn 0.006181059 -0.3977105 -0.9174902
vn -0.008902145 0.3431458 -0.93924
vn -0.008907286 0.3426396 -0.9394247
vn -0.01850613 -0.5679253 -0.822872
vn 0.01980482 -0.9205541 -0.3901128
vn -0.02144339 -0.9997686 0.001737929
vn 0.01940452 -0.9358662 0.3518208
vn -0.01910796 -0.7043187 0.7096268
vn 0.02051532 -0.3881372 0.9213732
vn -0.02441387 0.04275452 0.9987873
vn 0.01237936 0.3550775 0.9347548
vn -0.02637361 0.8498466 0.5263698
vn 0.01198295 0.8294144 0.5585053
vn 0.0107299 0.9998376 -0.01447847
vn -0.01512971 0.9235691 -0.3831334
vn 0.003056975 0.8327674 -0.5536147
vn -0.008907286 0.3426396 -0.9394247
vn -0.008902145 0.3431458 -0.93924
vn 1 4.755245E-06 0
vn 1 1.31585E-06 0
vn 1 1.178317E-06 0
vn 1 0 0
vn 1 0 0
vn 1 0 0
vn 0.06826838 0.2222449 -0.9725979
vn 0.06724551 0.1308717 -0.989116
vn 0.6054149 0.7643435 -0.2219275
vn -0.02634809 0.9037785 -0.4271887
vn 0.04391819 0.8329287 0.5516348
vn 0.6406376 0.5183634 0.5664653
vn -0.0577356 0.07143619 0.9957728
vn 0.606493 -0.1242694 0.7853173
vn -0.009940716 -0.719575 0.6943436
vn 0.6402057 -0.6991135 0.3183977
vn -0.007636481 -0.9998552 -0.01521033
vn 0.604434 -0.6592589 -0.4472553
vn -0.02925337 -0.6275601 -0.7780183
vn 0.06724551 0.1308717 -0.989116
vn 0.06826838 0.2222449 -0.9725979
vn 0.00136486 0.9223179 0.3864297
vn 0.0008757865 0.1543255 0.9880196
vn 0.0008910678 0.1648649 0.9863157
vn 0.001360903 0.9247031 0.3806866
vn 0.0005491651 0.8114673 -0.5843976
vn 0.0005490914 0.8114188 -0.5844648
vn -0.0005493782 -0.1605642 -0.9870252
vn -0.0005493043 -0.1604822 -0.9870386
vn -0.001360972 -0.9230497 -0.3846785
vn -0.001364928 -0.9254239 -0.3789309
vn -0.0008911058 -0.814009 0.5808516
vn -0.0008758241 -0.8077614 0.5895091
vn 0.0008757865 0.1543255 0.9880196
vn 0.0008910678 0.1648649 0.9863157
vn 0.604434 -0.6592589 -0.4472553
vn 1 2.167066E-05 -1.342893E-05
vn 1 2.51747E-05 1.00612E-05
vn 1 1.289854E-05 3.621426E-05
vn 0.6402057 -0.6991135 0.3183977
vn 1 -1.532815E-06 3.33319E-05
vn 0.606493 -0.1242694 0.7853173
vn 1 -3.450361E-05 3.120866E-05
vn 1 -7.217616E-07 -2.786703E-05
vn 0.6054149 0.7643435 -0.2219275
vn 0.6406376 0.5183634 0.5664653
vn 1 -3.881835E-05 -1.912674E-06
vn 1 6.371843E-06 0
vn 0.7508259 0.5204411 0.4066958
vn 0.4587789 0.8885264 0.006531903
vn 0.452924 0.3896145 0.8019105
vn 1 3.400481E-06 0
vn 0.5100535 0.6091627 -0.6072612
vn 1 1.97703E-06 0
vn 0.6832972 0.07910363 -0.7258426
vn 1 -2.109335E-06 0
vn 0.6374952 -0.252025 0.7280682
vn 1 -5.569172E-06 0
vn 1 -3.521485E-06 0
vn 0.6167209 -0.7483612 0.2441535
vn 1 -1.567676E-06 0
vn 0.5101241 -0.7936293 -0.3315508
vn 1 1.270155E-06 0
vn 0.5503559 -0.3211775 -0.7706838
g LMG_BarrelShort_Mesh_LOD2_0
f 3/3/3 2/2/2 1/1/1
f 3/3/3 4/4/4 2/2/2
f 2/2/2 4/4/4 5/5/5
f 4/4/4 6/6/6 5/5/5
f 5/5/5 6/6/6 7/7/7
f 6/6/6 8/8/8 7/7/7
f 7/7/7 8/8/8 9/9/9
f 8/8/8 10/10/10 9/9/9
f 10/10/10 11/11/11 9/9/9
f 10/10/10 12/12/12 11/11/11
f 11/11/11 12/12/12 13/13/13
f 12/12/12 14/14/14 13/13/13
f 12/12/12 15/15/15 14/14/14
f 16/16/16 14/14/14 15/15/15
f 16/16/16 15/15/15 17/17/17
f 18/18/18 16/16/16 17/17/17
f 21/21/21 20/20/20 19/19/19
f 21/21/21 22/22/22 20/20/20
f 22/22/22 23/23/23 20/20/20
f 22/22/22 24/24/24 23/23/23
f 23/23/23 24/24/24 25/25/25
f 24/24/24 26/26/26 25/25/25
f 24/24/24 27/27/27 26/26/26
f 27/27/27 28/28/28 26/26/26
f 28/28/28 27/27/27 29/29/29
f 30/30/30 28/28/28 29/29/29
f 30/30/30 29/29/29 31/31/31
f 32/32/32 30/30/30 31/31/31
f 31/31/31 33/33/33 32/32/32
f 31/31/31 34/34/34 33/33/33
f 34/34/34 35/35/35 33/33/33
f 34/34/34 36/36/36 35/35/35
f 35/35/35 36/36/36 37/37/37
f 38/38/38 35/35/35 37/37/37
f 41/41/41 40/40/40 39/39/39
f 42/42/42 41/41/41 39/39/39
f 39/39/39 43/43/43 42/42/42
f 43/43/43 44/44/44 42/42/42
f 43/43/43 45/45/45 44/44/44
f 45/45/45 46/46/46 44/44/44
f 45/45/45 47/47/47 46/46/46
f 46/46/46 47/47/47 48/48/48
f 47/47/47 49/49/49 48/48/48
f 49/49/49 50/50/50 48/48/48
f 49/49/49 51/51/51 50/50/50
f 51/51/51 52/52/52 50/50/50
f 52/52/52 53/53/53 50/50/50
f 52/52/52 54/54/54 53/53/53
f 55/55/55 53/53/53 54/54/54
f 56/56/56 55/55/55 54/54/54
f 59/59/59 58/58/58 57/57/57
f 59/59/59 60/60/60 58/58/58
f 59/59/59 61/61/61 60/60/60
f 59/59/59 62/62/62 61/61/61
f 65/65/65 64/64/64 63/63/63
f 66/66/66 65/65/65 63/63/63
f 65/65/65 66/66/66 67/67/67
f 68/68/68 65/65/65 67/67/67
f 67/67/67 69/69/69 68/68/68
f 69/69/69 70/70/70 68/68/68
f 71/71/71 70/70/70 69/69/69
f 72/72/72 70/70/70 71/71/71
f 71/71/71 73/73/73 72/72/72
f 74/74/74 72/72/72 73/73/73
f 75/75/75 74/74/74 73/73/73
f 74/74/74 75/75/75 76/76/76
f 75/75/75 77/77/77 76/76/76
f 80/80/80 79/79/79 78/78/78
f 81/81/81 80/80/80 78/78/78
f 81/81/81 78/78/78 82/82/82
f 83/83/83 81/81/81 82/82/82
f 84/84/84 83/83/83 82/82/82
f 85/85/85 84/84/84 82/82/82
f 84/84/84 85/85/85 86/86/86
f 87/87/87 84/84/84 86/86/86
f 87/87/87 86/86/86 88/88/88
f 89/89/89 87/87/87 88/88/88
f 89/89/89 88/88/88 90/90/90
f 91/91/91 89/89/89 90/90/90
f 94/94/94 93/93/93 92/92/92
f 94/94/94 92/92/92 95/95/95
f 93/93/93 96/96/96 92/92/92
f 92/92/92 97/97/97 95/95/95
f 93/93/93 98/98/98 96/96/96
f 99/99/99 95/95/95 97/97/97
f 100/100/100 98/98/98 93/93/93
f 97/97/97 101/101/101 99/99/99
f 100/100/100 102/102/102 98/98/98
f 101/101/101 103/103/103 99/99/99
f 103/103/103 101/101/101 102/102/102
f 100/100/100 103/103/103 102/102/102
f 106/106/106 105/105/105 104/104/104
f 105/105/105 107/107/107 104/104/104
f 106/106/106 104/104/104 108/108/108
f 109/109/109 106/106/106 108/108/108
f 110/110/110 109/109/109 108/108/108
f 111/111/111 109/109/109 110/110/110
f 107/107/107 112/112/112 104/104/104
f 107/107/107 113/113/113 112/112/112
f 112/112/112 113/113/113 114/114/114
f 115/115/115 112/112/112 114/114/114
f 115/115/115 114/114/114 116/116/116
f 117/117/117 115/115/115 116/116/116
f 116/116/116 118/118/118 117/117/117
f 110/110/110 119/119/119 111/111/111
f 118/118/118 119/119/119 117/117/117
f 119/119/119 120/120/120 111/111/111
f 118/118/118 120/120/120 119/119/119
