g LMG_ChamberIndicator_Mesh_LOD3
v 0.001122973 0.001115458 0.002160121
v 0.001072505 0.001181789 0.002164917
v 0.00111121 0.001304559 0.002163314
v 0.001122973 0.001115458 0.002160121
v 0.001131799 0.001184866 0.001882527
v 0.001092443 0.001145539 0.001882527
v 0.00111121 0.001304559 0.002163314
v 0.001127371 0.001342174 0.001882527
v 0.001102692 0.001408085 0.002137826
v 0.001102692 0.001408085 0.002137826
v 0.001080308 0.001302848 0.001882527
v 0.001127371 0.001342174 0.001882527
v 0.00111121 0.001304559 0.002163314
v 0.001092443 0.001145539 0.001882527
v 0.001072505 0.001181789 0.002164917
v 0.001122973 0.001115458 0.002160121
vt 0.2536967 0.6357606
vt 0.2528392 0.6368474
vt 0.2534638 0.6388531
vt 0.4468802 0.4988774
vt 0.44792 0.4946661
vt 0.4458055 0.4946661
vt 0.4501077 0.4992038
vt 0.4506433 0.4946661
vt 0.4518625 0.498328
vt 0.2995456 0.5450946
vt 0.3035664 0.546611
vt 0.3035664 0.5445341
vt 0.2990287 0.5465173
vt 0.3035664 0.5493612
vt 0.2990287 0.548862
vt 0.2999046 0.5505909
vn 0.07906482 -0.01191263 0.9967983
vn 0.07906482 -0.01191263 0.9967983
vn 0.07906482 -0.01191263 0.9967983
vn 0.9983229 -0.05043093 0.02842573
vn 0.9525427 -0.3019192 -0.03882316
vn 0.6985618 -0.6990914 -0.1525862
vn 0.995833 0.06819059 0.06055353
vn 0.9967224 0.05733233 0.05707511
vn 0.992595 0.09899407 0.07039376
vn -0.966199 0.256925 -0.02119332
vn -0.9847285 0.1740591 -0.003626144
vn -0.966199 0.256925 -0.02119332
vn -0.9854019 0.1702213 -0.002818553
vn -0.9995502 -0.02592987 0.01506882
vn -0.9709181 -0.2387205 0.01818466
vn -0.7948935 -0.6063604 0.02171453
g LMG_ChamberIndicator_Mesh_LOD3_0
f 3/3/3 2/2/2 1/1/1
f 6/6/6 5/5/5 4/4/4
f 7/7/7 4/4/4 5/5/5
f 8/8/8 7/7/7 5/5/5
f 7/7/7 8/8/8 9/9/9
f 12/12/12 11/11/11 10/10/10
f 11/11/11 13/13/13 10/10/10
f 11/11/11 14/14/14 13/13/13
f 14/14/14 15/15/15 13/13/13
f 16/16/16 15/15/15 14/14/14
