g LMG_ChamberIndicator_Mesh_LOD0
v 0.001084899 0.001302848 0.002160352
v 0.001080308 0.001302848 0.001882527
v 0.001071128 0.001302848 0.002160352
v 0.001134094 0.001302848 0.001882527
v 0.001129504 0.001302848 0.002160352
v 0.001143275 0.001302848 0.002160352
v 0.001071128 0.001092568 0.002134669
v 0.001072849 0.001184866 0.002160352
v 0.001071128 0.001137012 0.002160352
v 0.001071128 0.001068329 0.002091633
v 0.001071128 0.001066885 0.001882527
v 0.001082604 0.001184866 0.001882527
v 0.001084899 0.001302848 0.002160352
v 0.001080308 0.001302848 0.001882527
v 0.001143275 0.001350701 0.002160352
v 0.001143275 0.001302848 0.002160352
v 0.001129504 0.001302848 0.002160352
v 0.001071128 0.001350701 0.002160352
v 0.001071128 0.001395146 0.002134669
v 0.001143275 0.001395146 0.002134669
v 0.001071128 0.001418951 0.002092846
v 0.001143275 0.001419385 0.002091633
v 0.001071128 0.001420828 0.001882527
v 0.001143275 0.001420828 0.001882527
v 0.001084899 0.001302848 0.002160352
v 0.001071128 0.001302848 0.002160352
v 0.001141554 0.001184866 0.002160352
v 0.001072849 0.001184866 0.002160352
v 0.001143275 0.001137012 0.002160352
v 0.001071128 0.001137012 0.002160352
v 0.001143275 0.001092568 0.002134669
v 0.001071128 0.001092568 0.002134669
v 0.001143275 0.001068763 0.002092846
v 0.001071128 0.001068329 0.002091633
v 0.001143275 0.001066885 0.001882527
v 0.001071128 0.001066885 0.001882527
v 0.001071128 0.001350701 0.002160352
v 0.001071128 0.001302848 0.002160352
v 0.001071128 0.001395146 0.002134669
v 0.001071128 0.001418951 0.002092846
v 0.001080308 0.001302848 0.001882527
v 0.001071128 0.001420828 0.001882527
v 0.001143275 0.001395146 0.002134669
v 0.001143275 0.001302848 0.002160352
v 0.001143275 0.001350701 0.002160352
v 0.001143275 0.001419385 0.002091633
v 0.001134094 0.001302848 0.001882527
v 0.001143275 0.001420828 0.001882527
v 0.001143275 0.001092568 0.002134669
v 0.001143275 0.001137012 0.002160352
v 0.001141554 0.001184866 0.002160352
v 0.001143275 0.001068763 0.002092846
v 0.001143275 0.001066885 0.001882527
v 0.001131799 0.001184866 0.001882527
v 0.001129504 0.001302848 0.002160352
v 0.001134094 0.001302848 0.001882527
vt 0.2990287 0.5466859
vt 0.3035664 0.546611
vt 0.2990287 0.546461
vt 0.4499595 0.4946661
vt 0.4498845 0.4992038
vt 0.4501095 0.4992038
vt 0.2994483 0.5503454
vt 0.2990287 0.5488098
vt 0.2990287 0.5496196
vt 0.300152 0.550724
vt 0.3035664 0.5507649
vt 0.3035664 0.5486505
vt 0.2990287 0.5466859
vt 0.3035664 0.546611
vt 0.2539913 0.6396065
vt 0.2539913 0.6388248
vt 0.2537664 0.6388248
vt 0.2528129 0.6396065
vt 0.2528129 0.6404449
vt 0.2539913 0.6404449
vt 0.2528129 0.6412286
vt 0.2539913 0.6412487
vt 0.2528129 0.6446642
vt 0.2539913 0.6446642
vt 0.2530378 0.6388248
vt 0.2528129 0.6388248
vt 0.2539632 0.6368979
vt 0.252841 0.6368978
vt 0.2539913 0.6361162
vt 0.2528129 0.6361162
vt 0.2539913 0.6352777
vt 0.2528129 0.6352777
vt 0.2539913 0.6344941
vt 0.2528129 0.6344739
vt 0.2539913 0.6310585
vt 0.2528129 0.6310585
vt 0.2990287 0.5456795
vt 0.2990287 0.546461
vt 0.2994483 0.5449536
vt 0.3001319 0.5445759
vt 0.3035664 0.546611
vt 0.3035664 0.5445341
vt 0.451617 0.4987843
vt 0.4501095 0.4992038
vt 0.4508911 0.4992038
vt 0.4519957 0.4980806
vt 0.4499595 0.4946661
vt 0.4520364 0.4946661
vt 0.4462251 0.4987843
vt 0.446951 0.4992038
vt 0.4477607 0.4992038
vt 0.4458476 0.4981007
vt 0.4458055 0.4946661
vt 0.44792 0.4946661
vt 0.4498845 0.4992038
vt 0.4499595 0.4946661
vn 0 -1 0
vn 0 -1 0
vn 0 -1 0
vn 0 -1 0
vn 0 -1 0
vn 0 -1 0
vn -0.9995758 0.02344981 -0.01727342
vn -0.9987789 0.04611358 -0.01772875
vn -0.9974254 0.03587878 -0.06209049
vn -0.9983609 0.05411152 -0.01863774
vn -0.9978681 0.06206635 -0.02017397
vn -0.9985552 0.05167823 -0.01472606
vn -0.9991036 0.04130093 -0.009285543
vn -0.9991036 0.04130093 -0.009285543
vn 0 0.2590039 0.9658763
vn 0 0 1
vn 0 0 1
vn 0 0.2590053 0.9658759
vn 0 0.7094167 0.7047893
vn 0.0009732051 0.7104066 0.7037908
vn -0.002400793 0.9650465 0.2620677
vn -0.0008898966 0.9669285 0.2550461
vn -0.001241607 0.9999723 0.0073299
vn 0 0.9999762 0.006901539
vn 0 0 1
vn 0 0 1
vn 0 0 1
vn 0 0 1
vn 0 -0.2620019 0.9650674
vn 0 -0.262002 0.9650674
vn 0 -0.7094166 0.7047894
vn -0.0009732012 -0.7104071 0.7037904
vn 0.002400804 -0.9650462 0.2620687
vn 0.0008899063 -0.9669281 0.2550476
vn 0.001241611 -0.9999723 0.007330663
vn 0 -0.9999762 0.006902289
vn -1 0 0
vn -0.9994798 -0.02968402 -0.01260561
vn -1 0 0
vn -0.9992468 -0.03571757 -0.01516781
vn -0.9988232 -0.04464026 -0.01895692
vn -0.9988232 -0.04464026 -0.01895692
vn 1 1.569386E-06 2.601994E-06
vn 0.9994855 -0.02952091 -0.01253575
vn 1 0 2.694321E-06
vn 0.9992447 -0.03576712 -0.01518871
vn 0.9988223 -0.04465754 -0.01896454
vn 0.9988223 -0.04465754 -0.01896454
vn 0.9995728 0.02348124 -0.01740346
vn 0.9974255 0.03587878 -0.06208783
vn 0.9987743 0.0461987 -0.01775779
vn 0.9983613 0.05409469 -0.01866641
vn 0.9978673 0.06207634 -0.02017922
vn 0.9985549 0.05168393 -0.01472864
vn 0.9991035 0.04130235 -0.009285454
vn 0.9991035 0.04130235 -0.009285454
g LMG_ChamberIndicator_Mesh_LOD0_0
f 3/3/3 2/2/2 1/1/1
f 6/6/6 5/5/5 4/4/4
f 9/9/9 8/8/8 7/7/7
f 8/8/8 10/10/10 7/7/7
f 11/11/11 10/10/10 8/8/8
f 12/12/12 11/11/11 8/8/8
f 12/12/12 8/8/8 13/13/13
f 14/14/14 12/12/12 13/13/13
f 17/17/17 16/16/16 15/15/15
f 15/15/15 18/18/18 17/17/17
f 18/18/18 15/15/15 19/19/19
f 15/15/15 20/20/20 19/19/19
f 19/19/19 20/20/20 21/21/21
f 20/20/20 22/22/22 21/21/21
f 23/23/23 21/21/21 22/22/22
f 24/24/24 23/23/23 22/22/22
f 18/18/18 25/25/25 17/17/17
f 18/18/18 26/26/26 25/25/25
f 17/17/17 25/25/25 27/27/27
f 25/25/25 28/28/28 27/27/27
f 27/27/27 28/28/28 29/29/29
f 28/28/28 30/30/30 29/29/29
f 29/29/29 30/30/30 31/31/31
f 30/30/30 32/32/32 31/31/31
f 31/31/31 32/32/32 33/33/33
f 32/32/32 34/34/34 33/33/33
f 33/33/33 34/34/34 35/35/35
f 34/34/34 36/36/36 35/35/35
f 39/39/39 38/38/38 37/37/37
f 40/40/40 38/38/38 39/39/39
f 41/41/41 38/38/38 40/40/40
f 42/42/42 41/41/41 40/40/40
f 45/45/45 44/44/44 43/43/43
f 43/43/43 44/44/44 46/46/46
f 46/46/46 44/44/44 47/47/47
f 48/48/48 46/46/46 47/47/47
f 51/51/51 50/50/50 49/49/49
f 52/52/52 51/51/51 49/49/49
f 51/51/51 52/52/52 53/53/53
f 54/54/54 51/51/51 53/53/53
f 55/55/55 51/51/51 54/54/54
f 56/56/56 55/55/55 54/54/54
