g LMG_Bullet13_Mesh_LOD2
v -0.001100744 0.002015527 -0.003026733
v -0.001080992 0.002091225 -0.003292957
v -0.001109385 0.002002669 -0.003177159
v 0.001233597 0.002299928 -0.00310449
v 0.001125751 0.002275572 -0.003219586
v 0.001281742 0.002221967 -0.003102393
v -0.0001607774 0.002386123 -0.002870955
v -0.0002217119 0.002391392 -0.002926536
v -0.0001467713 0.002449473 -0.002880747
v -0.0006484676 0.002211768 -0.002860455
v -0.0007513863 0.002202226 -0.002801335
v -0.0006828798 0.002377126 -0.002894184
v -0.00106643 0.002365707 -0.002385301
v -0.0008998641 0.002327345 -0.002396879
v -0.001048679 0.002355978 -0.002417286
v -0.0002213888 0.00247322 -0.003001546
v -0.0002217119 0.002391392 -0.002926536
v -0.0001607774 0.002386123 -0.002870955
v -0.0006484676 0.002211768 -0.002860455
v -0.0006854647 0.002243353 -0.002874912
v -0.0007513863 0.002202226 -0.002801335
v -0.001080992 0.002091225 -0.003292957
v -0.001127677 0.002192944 -0.003366621
v -0.001109385 0.002002669 -0.003177159
v -0.001080992 0.002313702 -0.003346447
v -0.001107263 0.00246475 -0.003230864
v 0.0005792966 0.00232936 -0.003269468
v 0.0005775767 0.002188469 -0.003285608
v -0.0003598741 0.00230073 -0.003279904
v 0.0005791474 0.002431319 -0.003118175
v -0.0003598741 0.002423841 -0.003111461
v 0.0005787939 0.002353095 -0.002969583
v -0.0003598741 0.002246073 -0.002921308
v 0.0005794885 0.002212887 -0.00293246
v 0.0005794541 0.00205484 -0.003094071
v -0.0003598741 0.002066087 -0.003169841
v 0.0005775767 0.002188469 -0.003285608
v -0.0003598741 0.00230073 -0.003279904
v -0.0001524704 0.002238562 -0.002831273
v -0.0002304975 0.002204694 -0.002883186
v -0.0006484676 0.002211768 -0.002860455
v -0.0001607774 0.002386123 -0.002870955
v -0.0006828798 0.002377126 -0.002894184
v -0.0002213888 0.00247322 -0.003001546
v -0.0006591755 0.002484207 -0.003051813
v -0.0002213888 0.002497385 -0.003145355
v -0.0006591755 0.002476412 -0.003188568
v -0.0002213888 0.002399994 -0.003318524
v -0.0006591755 0.002327774 -0.003349804
v -0.0002193202 0.002163895 -0.003355532
v -0.0006517835 0.0020646 -0.003276659
v -0.0002291098 0.00206821 -0.003276252
v 9.284272E-06 0.002228414 -0.002825778
v -0.0001467713 0.002449473 -0.002880747
v -0.0001524704 0.002238562 -0.002831273
v 1.042705E-05 0.002560242 -0.00279235
v -0.0001475415 0.002614994 -0.00265564
v 1.04272E-05 0.002564103 -0.002478781
v -0.0001475415 0.002597103 -0.002660631
v -0.0001607774 0.002386123 -0.002870955
v -0.0001515734 0.002502574 -0.00241101
v 3.465017E-07 0.002298784 -0.002419586
v -0.0001499307 0.002473517 -0.002434024
v -0.000130397 0.002296065 -0.002429467
v -0.0001524704 0.002238562 -0.002831273
v -0.0001607774 0.002386123 -0.002870955
v 9.284272E-06 0.002228414 -0.002825778
v 1.042705E-05 0.002560242 -0.00279235
v -0.0001475415 0.002597103 -0.002660631
v 1.04272E-05 0.002564103 -0.002478781
v -0.0001499307 0.002473517 -0.002434024
v 3.465017E-07 0.002298784 -0.002419586
v -0.000130397 0.002296065 -0.002429467
v -0.0009013596 0.002188078 -0.002805477
v -0.0006828798 0.002377126 -0.002894184
v -0.0007513863 0.002202226 -0.002801335
v -0.0009080156 0.00252376 -0.002841355
v -0.0007362808 0.002575087 -0.002801901
v -0.0009080156 0.0026015 -0.002560872
v -0.0007362808 0.002578647 -0.002464889
v -0.0009883618 0.002502741 -0.00243077
v -0.0007429655 0.002302726 -0.002393891
v -0.0008998641 0.002327345 -0.002396879
v -0.001048679 0.002355978 -0.002417286
v -0.001081961 0.002504702 -0.00244807
v -0.00106643 0.002365707 -0.002385301
v -0.0001524704 0.002238562 -0.002831273
v -0.0001467713 0.002449473 -0.002880747
v -0.0002217119 0.002391392 -0.002926536
v -0.0002304975 0.002204694 -0.002883186
v -0.0003598741 0.002423841 -0.003111461
v -0.0003598741 0.00230073 -0.003279904
v -0.0003598741 0.002246073 -0.002921308
v -0.0003598741 0.002066087 -0.003169841
v -0.001124739 0.002113167 -0.003111644
v -0.001128449 0.002382013 -0.003084536
v -0.001127574 0.00221537 -0.002978919
v -0.001124653 0.002245907 -0.003252368
v 0.0005446943 0.002067874 -0.003082057
v 0.001002975 0.002138692 -0.00322123
v 0.0005447902 0.002114974 -0.003241238
v 0.0009798747 0.002106979 -0.003059908
v 0.001281742 0.002221967 -0.003102393
v 0.0005447482 0.00222344 -0.002921083
v 0.001030708 0.00223679 -0.002964727
v 0.001233597 0.002299928 -0.00310449
v 0.0009279011 0.002415622 -0.003076543
v 0.0005449002 0.002415442 -0.003062845
v 0.001125751 0.002275572 -0.003219586
v 0.000544821 0.00233819 -0.003274834
v 0.001002975 0.002138692 -0.00322123
v 0.0005447902 0.002114974 -0.003241238
v 0.001281742 0.002221967 -0.003102393
v -0.0006484676 0.002211768 -0.002860455
v -0.0002304975 0.002204694 -0.002883186
v -0.0006854647 0.002243353 -0.002874912
v -0.0002217119 0.002391392 -0.002926536
v -0.0006828798 0.002377126 -0.002894184
v -0.0006591755 0.002484207 -0.003051813
v -0.0006591755 0.002476412 -0.003188568
v -0.0002213888 0.00247322 -0.003001546
v -0.0002213888 0.002398407 -0.003299746
v -0.0006591755 0.002327774 -0.003349804
v -0.0002291098 0.00206821 -0.003276252
v -0.0006517835 0.0020646 -0.003276659
v -0.0008998641 0.002327345 -0.002396879
v -0.0007362808 0.002578647 -0.002464889
v -0.0007429655 0.002302726 -0.002393891
v -0.00106643 0.002365707 -0.002385301
v -0.0009080156 0.002529325 -0.002422623
v -0.0009883618 0.002502741 -0.00243077
v -0.001081961 0.002504702 -0.00244807
v -0.0009080156 0.002632572 -0.002590372
v -0.0007362808 0.002575087 -0.002801901
v -0.0009080156 0.0026015 -0.002560872
v -0.0009883618 0.002502741 -0.00243077
v -0.0009080156 0.00252376 -0.002841355
v -0.0009080156 0.002507494 -0.002897586
v -0.0006828798 0.002377126 -0.002894184
v -0.0009013596 0.002188078 -0.002805477
v -0.0006854647 0.002243353 -0.002874912
v -0.0007513863 0.002202226 -0.002801335
v -0.0002193202 0.002163895 -0.003355532
v -0.0002291098 0.00206821 -0.003276252
v -0.0002213888 0.002398407 -0.003299746
v -0.0002213888 0.002399994 -0.003318524
v -0.0002213888 0.002497385 -0.003145355
v -0.0002213888 0.00247322 -0.003001546
v 0.0002698192 0.002170225 -0.002913473
v -0.001012556 0.001996281 -0.003074919
v -0.001009627 0.002164457 -0.002884016
v 0.0002675511 0.00204114 -0.003111247
v 0.0005794541 0.00205484 -0.003094071
v 0.0005794885 0.002212887 -0.00293246
v -0.001013738 0.002342711 -0.002887746
v 0.0005787939 0.002353095 -0.002969583
v 0.0002513175 0.002397936 -0.002969785
v -0.001012489 0.002494263 -0.003117565
v 0.0005791474 0.002431319 -0.003118175
v 0.0002718104 0.002447793 -0.003158832
v -0.001010205 0.002380059 -0.00330872
v 0.0005792966 0.00232936 -0.003269468
v 0.0002557422 0.00232852 -0.003298999
v -0.001014301 0.002156776 -0.003339587
v 0.0005775767 0.002188469 -0.003285608
v 0.0002592012 0.002144248 -0.003289307
v -0.001012556 0.001996281 -0.003074919
v 0.0005794541 0.00205484 -0.003094071
v 0.0002675511 0.00204114 -0.003111247
v -0.001101343 0.002348457 -0.002884593
v -0.001104304 0.002142751 -0.002882914
v -0.001127574 0.00221537 -0.002978919
v -0.001106824 0.002475807 -0.003015979
v -0.001128449 0.002382013 -0.003084536
v -0.001107263 0.00246475 -0.003230864
v -0.001124653 0.002245907 -0.003252368
v -0.001127677 0.002192944 -0.003366621
v -0.001124739 0.002113167 -0.003111644
v -0.001100744 0.002015527 -0.003026733
v -0.001109385 0.002002669 -0.003177159
v -0.001013738 0.002342711 -0.002887746
v -0.001104304 0.002142751 -0.002882914
v -0.001101343 0.002348457 -0.002884593
v -0.001106824 0.002475807 -0.003015979
v -0.001009627 0.002164457 -0.002884016
v -0.001012489 0.002494263 -0.003117565
v -0.001100744 0.002015527 -0.003026733
v -0.001107263 0.00246475 -0.003230864
v -0.001012556 0.001996281 -0.003074919
v -0.001010205 0.002380059 -0.00330872
v -0.001080992 0.002091225 -0.003292957
v -0.001080992 0.002313702 -0.003346447
v -0.001014301 0.002156776 -0.003339587
vt 0.7171277 0.2180052
vt 0.7158555 0.2013498
vt 0.7186002 0.2099034
vt 0.6755457 0.5409453
vt 0.6760182 0.5357035
vt 0.6725792 0.5381451
vt 0.7518036 0.2072976
vt 0.7460801 0.2105098
vt 0.7527936 0.2093843
vt 0.7519513 0.2263828
vt 0.7458895 0.2267901
vt 0.7506963 0.2384572
vt 0.7674557 0.1544355
vt 0.78139 0.148833
vt 0.771402 0.1536752
vt 0.7054568 0.1424764
vt 0.6967065 0.1407245
vt 0.695062 0.142661
vt 0.7519513 0.2263828
vt 0.7504559 0.2240583
vt 0.7458895 0.2267901
vt 0.8235856 0.1969791
vt 0.826359 0.2057416
vt 0.8253797 0.1882332
vt 0.8235855 0.2153997
vt 0.8252767 0.2300139
vt 0.6765016 0.4920008
vt 0.6833607 0.4920008
vt 0.6772227 0.4255136
vt 0.6634478 0.4920008
vt 0.6623564 0.4255135
vt 0.652113 0.4920008
vt 0.6437398 0.4255135
vt 0.6413437 0.4920008
vt 0.6254317 0.4920008
vt 0.6216215 0.4255135
vt 0.6112305 0.4920009
vt 0.6090287 0.4255135
vt 0.6834009 0.142661
vt 0.6774743 0.1439206
vt 0.6814574 0.1753046
vt 0.695062 0.142661
vt 0.6955191 0.17673
vt 0.7054568 0.1424764
vt 0.7090887 0.1758988
vt 0.7165445 0.1426611
vt 0.7199188 0.1762668
vt 0.7315542 0.1426611
vt 0.7370281 0.1760864
vt 0.749721 0.1426611
vt 0.7591928 0.1752084
vt 0.7592314 0.1425899
vt 0.81723 0.1075987
vt 0.829263 0.1245959
vt 0.8287926 0.1075773
vt 0.8172692 0.1347376
vt 0.829263 0.146296
vt 0.8170222 0.1597042
vt 0.831121 0.1457385
vt 0.831121 0.12297
vt 0.829263 0.1668064
vt 0.8183602 0.1824392
vt 0.8311211 0.1677568
vt 0.8279839 0.1836467
vt 0.7323764 0.1875474
vt 0.7320755 0.2030321
vt 0.7431144 0.1892162
vt 0.7440127 0.2148944
vt 0.7320755 0.2242752
vt 0.7440127 0.23787
vt 0.7320756 0.2439415
vt 0.7428615 0.256569
vt 0.7333547 0.2570735
vt 0.8087965 0.1910975
vt 0.8211144 0.2065388
vt 0.8203222 0.1914689
vt 0.8084668 0.2172983
vt 0.821569 0.2212073
vt 0.8091482 0.2392757
vt 0.8221886 0.2411959
vt 0.8037665 0.2513182
vt 0.8218139 0.2654223
vt 0.8109325 0.2657826
vt 0.7990466 0.2620189
vt 0.7951597 0.2512953
vt 0.7940216 0.2622376
vt 0.7515727 0.196569
vt 0.7536449 0.1848718
vt 0.746794 0.1845656
vt 0.7459329 0.1949517
vt 0.7700074 0.1315861
vt 0.7749797 0.1184804
vt 0.7542825 0.1275865
vt 0.7604524 0.1110396
vt 0.6536809 0.5516896
vt 0.6609364 0.5360779
vt 0.6505979 0.5418448
vt 0.6653581 0.5489514
vt 0.7210419 0.03680784
vt 0.7554724 0.03752736
vt 0.7239068 0.02801849
vt 0.7517745 0.04507802
vt 0.770774 0.05094568
vt 0.7182626 0.0531866
vt 0.7504756 0.05690219
vt 0.7668916 0.06768478
vt 0.7439411 0.07003763
vt 0.7168331 0.07138778
vt 0.7617871 0.07855141
vt 0.7203965 0.09082977
vt 0.7557704 0.0924679
vt 0.7324838 0.1038461
vt 0.7717903 0.07952461
vt 0.8000929 0.08641166
vt 0.8313771 0.08308323
vt 0.7988333 0.07859741
vt 0.8319153 0.06910185
vt 0.7988333 0.07016561
vt 0.7988333 0.06220903
vt 0.7988333 0.05158424
vt 0.8319153 0.05425517
vt 0.8319154 0.03840191
vt 0.7988333 0.03627031
vt 0.8306054 0.01280151
vt 0.8001093 0.01282383
vt 0.78139 0.148833
vt 0.7936182 0.1722864
vt 0.7925651 0.148665
vt 0.7674557 0.1544355
vt 0.7804554 0.1668404
vt 0.7708045 0.1660666
vt 0.7664832 0.1659723
vt 0.7804427 0.1818745
vt 0.7944253 0.1988063
vt 0.778424 0.1788509
vt 0.7784346 0.166306
vt 0.7784033 0.2034661
vt 0.780422 0.2065064
vt 0.7949808 0.2147762
vt 0.7805519 0.2321871
vt 0.7933919 0.2260302
vt 0.7919942 0.233409
vt 0.749721 0.1426611
vt 0.7592314 0.1425899
vt 0.7306491 0.1407243
vt 0.7315542 0.1426611
vt 0.7165445 0.1426611
vt 0.7054568 0.1424764
vt 0.6798505 0.03950261
vt 0.5834436 0.01229623
vt 0.5817942 0.03451708
vt 0.6814706 0.01954155
vt 0.7077534 0.02236364
vt 0.7065895 0.04304098
vt 0.5811854 0.05005784
vt 0.7062552 0.0556289
vt 0.6783063 0.05790632
vt 0.5810104 0.07196029
vt 0.706267 0.07089396
vt 0.6795785 0.07457577
vt 0.5814565 0.09084353
vt 0.7066249 0.08532499
vt 0.6795948 0.09036899
vt 0.582563 0.1097963
vt 0.707436 0.1003875
vt 0.6815266 0.104874
vt 0.5838147 0.1249036
vt 0.7083077 0.1123747
vt 0.6833857 0.1147046
vt 0.4453048 0.08280938
vt 0.4429038 0.05364462
vt 0.4272028 0.06673723
vt 0.4251947 0.1043887
vt 0.4144055 0.08704469
vt 0.3907928 0.1029955
vt 0.3919625 0.07064062
vt 0.3741779 0.06457397
vt 0.4104188 0.05149094
vt 0.4213151 0.03355264
vt 0.3970682 0.0338291
vt 0.6895252 0.2274892
vt 0.7060159 0.2241958
vt 0.6933736 0.2213153
vt 0.6875732 0.2116228
vt 0.7055054 0.2334635
vt 0.6816306 0.2036491
vt 0.7171277 0.2180052
vt 0.6915437 0.2003172
vt 0.7242963 0.2189097
vt 0.6959084 0.1874129
vt 0.7158555 0.2013498
vt 0.7031304 0.1957513
vt 0.7171746 0.1918914
vn 0.9417867 -0.3352464 -0.02545037
vn 0.9417867 -0.3352464 -0.02545037
vn 0.9417867 -0.3352464 -0.02545037
vn 0.6916318 0.7159553 0.09514923
vn 0.3962789 0.2883878 -0.8716625
vn 0.9685547 -0.2388261 0.06974152
vn -0.8547449 0.2585449 0.4500731
vn -0.6398151 0.2535951 0.7254834
vn -0.4175403 0.3162761 -0.8518389
vn 0.1978779 0.20393 0.9587788
vn 0.1083216 0.4326987 0.8950075
vn 0.08193841 0.323058 0.9428253
vn -0.731496 -0.6491878 -0.2084917
vn -0.2092548 -0.9618118 0.1764383
vn -0.3768174 -0.7081209 -0.5971376
vn 0.03930967 -0.9815032 -0.1873666
vn 0.3556905 -0.5279778 -0.7711833
vn 0.5224637 -0.5772893 -0.62751
vn -0.1422499 -0.5448655 -0.8263695
vn -0.1492424 -0.4370034 -0.886992
vn 0.02944644 -0.8835162 -0.4674741
vn -0.06564312 -0.7204096 -0.6904354
vn -0.3963124 -0.1861309 -0.8990505
vn -0.9750426 -0.2140329 -0.05900848
vn -0.170857 0.2914786 -0.9411951
vn -0.5261725 0.7358034 -0.4263051
vn 0.00410811 -0.5189323 0.8548055
vn -0.0170622 0.4021793 0.9154019
vn 0.04229544 -0.2680386 0.9624794
vn 0.02814637 -0.9995143 -0.01337228
vn 0.02823102 -0.9994122 -0.01944851
vn 0.007436298 -0.5772285 -0.8165488
vn 0.05165743 -0.006303853 -0.998645
vn 0.01242288 0.3194354 -0.9475267
vn 0.004371277 0.997425 -0.07158501
vn 0.06471681 0.9729681 0.2216865
vn -0.0170622 0.4021793 0.9154019
vn 0.04229544 -0.2680386 0.9624794
vn -0.03720694 0.09599318 0.9946864
vn 0.01453295 -0.8472882 0.5309347
vn 0.1978779 0.20393 0.9587788
vn -0.07586702 0.1844209 0.9799148
vn 0.08193841 0.323058 0.9428253
vn -0.02160104 0.9124337 0.4086541
vn -0.03970476 0.960471 0.2755337
vn 0.001492215 0.9851633 -0.1716132
vn -0.04997469 0.9230393 -0.3814459
vn 0.01265007 0.5798507 -0.8146246
vn -0.07801615 0.2875898 -0.9545709
vn -0.002164271 -0.2662987 -0.963888
vn -0.09337687 -0.3373847 -0.9367242
vn 0.006192147 -0.6383733 -0.769702
vn 0.2080149 -0.09521937 -0.9734798
vn -0.4175403 0.3162761 -0.8518389
vn 0.3464641 -0.2269624 -0.9101927
vn 0.1429245 0.7601274 -0.6338604
vn -0.5694881 0.8191921 -0.06787961
vn 0.1370821 0.7962456 0.589238
vn -0.9998401 0.009992547 -0.01482796
vn -0.8547449 0.2585449 0.4500731
vn -0.5786061 0.3550246 0.7342837
vn 0.09619153 0.02983785 0.9949156
vn -0.9966986 -0.07692231 0.02597828
vn -0.140275 -0.1024034 0.9848028
vn -0.03720694 0.09599318 0.9946864
vn -0.07586702 0.1844209 0.9799148
vn -0.1994797 0.06497756 0.9777452
vn 0.0279229 -0.7504763 0.6603072
vn 0.1111515 -0.9874161 0.1124933
vn 0.04928707 -0.7909537 -0.6098878
vn 0.07828771 -0.445569 -0.891818
vn -0.02950152 -0.1074852 -0.9937689
vn 0.0757064 -0.0172688 -0.9969806
vn 0.1377861 0.2857535 0.9483459
vn 0.08193841 0.323058 0.9428253
vn 0.1083216 0.4326987 0.8950075
vn 0.1037825 -0.6196991 0.7779474
vn -0.01898083 -0.8427668 0.5379441
vn 0.1016538 -0.9816182 -0.1615308
vn 0.04039302 -0.808247 -0.5874565
vn 0.09737872 -0.3282836 -0.9395463
vn -0.03989472 -0.2283089 -0.972771
vn 0.02339783 -0.1782713 -0.9837031
vn -0.3768174 -0.7081209 -0.5971376
vn 0.01069658 -0.2003804 -0.9796597
vn -0.731496 -0.6491878 -0.2084917
vn 0.3464641 -0.2269624 -0.9101927
vn -0.4175403 0.3162761 -0.8518389
vn 0.3556905 -0.5279778 -0.7711833
vn 0.2598243 -0.2182678 -0.9406649
vn 1 0 0
vn 1 0 0
vn 1 0 0
vn 1 0 0
vn -0.9942635 -0.1018775 0.03257314
vn -0.9939592 0.1072457 0.02330982
vn -0.9923913 -0.02678085 0.1201761
vn -0.9990694 0.04115279 -0.01292238
vn 0.0735816 -0.9638196 0.2561983
vn 0.220719 -0.6788363 -0.7003315
vn 0.0776502 -0.6433392 -0.7616332
vn 0.201955 -0.9215106 0.331711
vn 0.9685547 -0.2388261 0.06974152
vn 0.06067448 -0.06715535 0.995896
vn 0.2790227 -0.03803586 0.9595309
vn 0.6916318 0.7159553 0.09514923
vn 0.1806667 0.9663531 0.1830877
vn 0.01031916 0.9535626 0.3010184
vn 0.3962789 0.2883878 -0.8716625
vn 0.0629518 0.5039422 -0.8614402
vn 0.220719 -0.6788363 -0.7003315
vn 0.0776502 -0.6433392 -0.7616332
vn 0.9685547 -0.2388261 0.06974152
vn -0.1422499 -0.5448655 -0.8263695
vn 0.2598243 -0.2182678 -0.9406649
vn -0.1492424 -0.4370034 -0.886992
vn 0.3556905 -0.5279778 -0.7711833
vn 0.002057309 -0.2494068 -0.9683966
vn 0.002254995 -0.9015152 -0.4327414
vn -0.001811523 -0.9728389 0.2314761
vn 0.03930967 -0.9815032 -0.1873666
vn -0.09055611 -0.5617978 0.8223033
vn -0.02334069 -0.2782827 0.9602155
vn -0.07157464 0.1603726 0.984458
vn -0.07157464 0.1603726 0.984458
vn 0.06846074 0.2188543 0.973353
vn 0.04077765 0.7917287 0.6095104
vn 0.06846074 0.2188543 0.973353
vn -0.0259286 0.2809788 0.9593636
vn -0.04398431 0.5101329 0.8589702
vn -0.2406809 0.5278602 0.8145161
vn -0.1592991 0.3914723 0.9062964
vn -0.6133733 0.7894759 0.02238422
vn 0.1781225 0.8557835 -0.4857025
vn -0.9936312 0.09988971 0.05214454
vn -0.2406809 0.5278602 0.8145161
vn -0.999981 -0.005916235 0.001707016
vn -0.5438103 0.4182785 -0.7275394
vn 0.002057309 -0.2494068 -0.9683966
vn -0.2761792 -0.4351965 -0.85693
vn -0.1492424 -0.4370034 -0.886992
vn 0.02944644 -0.8835162 -0.4674741
vn 0.994859 -0.0150478 0.1001463
vn 0.9944887 -0.01588063 0.1036337
vn 0.9999726 0.001636909 0.007222368
vn 0.9999797 0.006341942 0.0005356626
vn 1 -6.328203E-07 0
vn 1 -6.480193E-07 0
vn 0.05463574 -0.363607 0.9299488
vn -0.03905478 -0.997269 0.06268426
vn 0.05925095 -0.3741596 0.9254696
vn 0.04858008 -0.9988168 -0.002232669
vn 0.1117594 -0.9901812 0.08397092
vn 0.09389845 -0.232465 0.9680615
vn 0.065306 0.4418863 0.8946908
vn 0.05289941 0.6394641 0.7669988
vn 0.05315329 0.6949798 0.7170619
vn 0.03705451 0.9992415 -0.01198175
vn 0.1019101 0.991865 -0.07627644
vn 0.06056486 0.980569 -0.1865916
vn 0.06639621 0.5464868 -0.8348316
vn 0.102461 0.5110714 -0.8534095
vn 0.04290145 0.4209805 -0.9060546
vn -0.04435617 -0.3973207 -0.9166073
vn 0.09291192 -0.4149635 -0.9050816
vn 0.04718114 -0.5259818 -0.8491861
vn -0.03905478 -0.997269 0.06268426
vn 0.1117594 -0.9901812 0.08397092
vn 0.04858008 -0.9988168 -0.002232669
vn -0.5382346 0.3417598 0.7703919
vn -0.5206656 -0.3864355 0.7612981
vn -0.9923913 -0.02678085 0.1201761
vn -0.4857801 0.7829409 0.3886146
vn -0.9939592 0.1072457 0.02330982
vn -0.5261725 0.7358034 -0.4263051
vn -0.9990694 0.04115279 -0.01292238
vn -0.3963124 -0.1861309 -0.8990505
vn -0.9942635 -0.1018775 0.03257314
vn -0.9816568 -0.1656491 0.09439426
vn -0.9750426 -0.2140329 -0.05900848
vn 0.065306 0.4418863 0.8946908
vn -0.5206656 -0.3864355 0.7612981
vn -0.5382346 0.3417598 0.7703919
vn -0.4857801 0.7829409 0.3886146
vn 0.05925095 -0.3741596 0.9254696
vn 0.03705451 0.9992415 -0.01198175
vn 0.002420747 -0.922466 0.3860707
vn -0.5261725 0.7358034 -0.4263051
vn -0.03905478 -0.997269 0.06268426
vn 0.06639621 0.5464868 -0.8348316
vn -0.06564312 -0.7204096 -0.6904354
vn -0.170857 0.2914786 -0.9411951
vn -0.04435617 -0.3973207 -0.9166073
g LMG_Bullet13_Mesh_LOD2_0
f 3/3/3 2/2/2 1/1/1
f 6/6/6 5/5/5 4/4/4
f 9/9/9 8/8/8 7/7/7
f 12/12/12 11/11/11 10/10/10
f 15/15/15 14/14/14 13/13/13
f 18/18/18 17/17/17 16/16/16
f 21/21/21 20/20/20 19/19/19
f 24/24/24 23/23/23 22/22/22
f 23/23/23 25/25/25 22/22/22
f 23/23/23 26/26/26 25/25/25
f 29/29/29 28/28/28 27/27/27
f 27/27/27 30/30/30 29/29/29
f 30/30/30 31/31/31 29/29/29
f 30/30/30 32/32/32 31/31/31
f 32/32/32 33/33/33 31/31/31
f 33/33/33 32/32/32 34/34/34
f 34/34/34 35/35/35 33/33/33
f 35/35/35 36/36/36 33/33/33
f 36/36/36 35/35/35 37/37/37
f 38/38/38 36/36/36 37/37/37
f 41/41/41 40/40/40 39/39/39
f 39/39/39 42/42/42 41/41/41
f 41/41/41 42/42/42 43/43/43
f 42/42/42 44/44/44 43/43/43
f 43/43/43 44/44/44 45/45/45
f 44/44/44 46/46/46 45/45/45
f 45/45/45 46/46/46 47/47/47
f 46/46/46 48/48/48 47/47/47
f 47/47/47 48/48/48 49/49/49
f 48/48/48 50/50/50 49/49/49
f 49/49/49 50/50/50 51/51/51
f 50/50/50 52/52/52 51/51/51
f 55/55/55 54/54/54 53/53/53
f 53/53/53 54/54/54 56/56/56
f 54/54/54 57/57/57 56/56/56
f 56/56/56 57/57/57 58/58/58
f 59/59/59 57/57/57 54/54/54
f 60/60/60 59/59/59 54/54/54
f 57/57/57 61/61/61 58/58/58
f 57/57/57 59/59/59 61/61/61
f 62/62/62 58/58/58 61/61/61
f 59/59/59 63/63/63 61/61/61
f 61/61/61 64/64/64 62/62/62
f 63/63/63 64/64/64 61/61/61
f 67/67/67 66/66/66 65/65/65
f 67/67/67 68/68/68 66/66/66
f 68/68/68 69/69/69 66/66/66
f 68/68/68 70/70/70 69/69/69
f 69/69/69 70/70/70 71/71/71
f 70/70/70 72/72/72 71/71/71
f 71/71/71 72/72/72 73/73/73
f 76/76/76 75/75/75 74/74/74
f 74/74/74 75/75/75 77/77/77
f 75/75/75 78/78/78 77/77/77
f 79/79/79 77/77/77 78/78/78
f 80/80/80 79/79/79 78/78/78
f 79/79/79 80/80/80 81/81/81
f 81/81/81 80/80/80 82/82/82
f 81/81/81 82/82/82 83/83/83
f 84/84/84 81/81/81 83/83/83
f 81/81/81 84/84/84 85/85/85
f 86/86/86 85/85/85 84/84/84
f 89/89/89 88/88/88 87/87/87
f 90/90/90 89/89/89 87/87/87
f 93/93/93 92/92/92 91/91/91
f 94/94/94 92/92/92 93/93/93
f 97/97/97 96/96/96 95/95/95
f 95/95/95 96/96/96 98/98/98
f 101/101/101 100/100/100 99/99/99
f 100/100/100 102/102/102 99/99/99
f 100/100/100 103/103/103 102/102/102
f 104/104/104 99/99/99 102/102/102
f 103/103/103 105/105/105 102/102/102
f 105/105/105 104/104/104 102/102/102
f 103/103/103 106/106/106 105/105/105
f 105/105/105 107/107/107 104/104/104
f 106/106/106 107/107/107 105/105/105
f 107/107/107 108/108/108 104/104/104
f 107/107/107 106/106/106 109/109/109
f 108/108/108 107/107/107 110/110/110
f 107/107/107 109/109/109 110/110/110
f 110/110/110 109/109/109 111/111/111
f 112/112/112 110/110/110 111/111/111
f 109/109/109 113/113/113 111/111/111
f 116/116/116 115/115/115 114/114/114
f 115/115/115 116/116/116 117/117/117
f 116/116/116 118/118/118 117/117/117
f 119/119/119 117/117/117 118/118/118
f 117/117/117 119/119/119 120/120/120
f 121/121/121 117/117/117 120/120/120
f 120/120/120 122/122/122 121/121/121
f 123/123/123 122/122/122 120/120/120
f 122/122/122 123/123/123 124/124/124
f 123/123/123 125/125/125 124/124/124
f 128/128/128 127/127/127 126/126/126
f 127/127/127 129/129/129 126/126/126
f 130/130/130 129/129/129 127/127/127
f 131/131/131 129/129/129 130/130/130
f 132/132/132 129/129/129 131/131/131
f 133/133/133 130/130/130 127/127/127
f 127/127/127 134/134/134 133/133/133
f 130/130/130 133/133/133 135/135/135
f 135/135/135 136/136/136 130/130/130
f 135/135/135 133/133/133 137/137/137
f 134/134/134 138/138/138 133/133/133
f 133/133/133 138/138/138 137/137/137
f 138/138/138 134/134/134 139/139/139
f 137/137/137 138/138/138 140/140/140
f 138/138/138 139/139/139 141/141/141
f 140/140/140 138/138/138 141/141/141
f 142/142/142 140/140/140 141/141/141
f 145/145/145 144/144/144 143/143/143
f 145/145/145 143/143/143 146/146/146
f 147/147/147 145/145/145 146/146/146
f 148/148/148 145/145/145 147/147/147
f 151/151/151 150/150/150 149/149/149
f 149/149/149 150/150/150 152/152/152
f 153/153/153 149/149/149 152/152/152
f 153/153/153 154/154/154 149/149/149
f 155/155/155 151/151/151 149/149/149
f 149/149/149 154/154/154 156/156/156
f 149/149/149 157/157/157 155/155/155
f 157/157/157 149/149/149 156/156/156
f 158/158/158 155/155/155 157/157/157
f 157/157/157 156/156/156 159/159/159
f 160/160/160 158/158/158 157/157/157
f 160/160/160 157/157/157 159/159/159
f 158/158/158 160/160/160 161/161/161
f 159/159/159 162/162/162 160/160/160
f 160/160/160 163/163/163 161/161/161
f 162/162/162 163/163/163 160/160/160
f 163/163/163 164/164/164 161/161/161
f 162/162/162 165/165/165 163/163/163
f 163/163/163 166/166/166 164/164/164
f 165/165/165 166/166/166 163/163/163
f 164/164/164 166/166/166 167/167/167
f 166/166/166 165/165/165 168/168/168
f 166/166/166 169/169/169 167/167/167
f 169/169/169 166/166/166 168/168/168
f 172/172/172 171/171/171 170/170/170
f 170/170/170 173/173/173 172/172/172
f 173/173/173 174/174/174 172/172/172
f 174/174/174 173/173/173 175/175/175
f 176/176/176 174/174/174 175/175/175
f 177/177/177 176/176/176 175/175/175
f 171/171/171 172/172/172 178/178/178
f 178/178/178 176/176/176 177/177/177
f 179/179/179 171/171/171 178/178/178
f 180/180/180 178/178/178 177/177/177
f 179/179/179 178/178/178 180/180/180
f 183/183/183 182/182/182 181/181/181
f 184/184/184 183/183/183 181/181/181
f 182/182/182 185/185/185 181/181/181
f 184/184/184 181/181/181 186/186/186
f 185/185/185 182/182/182 187/187/187
f 188/188/188 184/184/184 186/186/186
f 189/189/189 185/185/185 187/187/187
f 190/190/190 188/188/188 186/186/186
f 187/187/187 191/191/191 189/189/189
f 192/192/192 188/188/188 190/190/190
f 189/189/189 191/191/191 193/193/193
f 193/193/193 192/192/192 190/190/190
f 191/191/191 192/192/192 193/193/193
