g LMG_BarrelStandard_Mesh_LOD2
v 0.01931273 -0.0001010656 0.0003485618
v 0.01931273 0.0001724099 0.0003216149
v 0.01931273 0.0001939545 -4.474754E-05
v 0.01931273 -0.0002590568 0.0001124269
v 0.01931273 -8.473477E-05 -0.0001000035
v 0.02420185 -0.0001874413 -0.000348395
v 0.01800954 0.0002696094 -0.0003249301
v 0.01800954 -0.0002130207 -0.0003379354
v 0.02419463 0.0001945079 -0.0003419201
v 0.0241946 0.0004650491 -8.510755E-05
v 0.01800954 0.0005228581 0.0002316679
v 0.0241919 0.0004941157 0.0002259468
v 0.02419463 0.0003594031 0.0004870631
v 0.01800954 0.0001016967 0.0006389287
v 0.02419476 3.481571E-10 0.0006427999
v 0.01800954 -0.0003486388 0.0005026478
v 0.02418802 -0.0003703272 0.0004808049
v 0.01800954 -0.0005213182 5.17789E-05
v 0.0241919 -0.0004941143 0.0002259467
v 0.02418802 -0.0004679797 -7.933504E-05
v 0.01800954 -0.0002130207 -0.0003379354
v 0.02420185 -0.0001874413 -0.000348395
v 0.02466581 2.651616E-10 -0.0002682827
v 0.02443072 0.0002815449 -0.0001467532
v 0.02444097 7.286724E-06 -0.0002601585
v 0.0246658 0.0003474366 -7.930471E-05
v 0.02443574 0.0003878633 0.000127661
v 0.02466581 0.0003609075 0.0002771544
v 0.02443584 0.0002779684 0.0004056284
v 0.02466581 0.0001515221 0.0004934657
v 0.02443574 3.822976E-10 0.0005155238
v 0.02466581 -0.0001635255 0.0004850806
v 0.02443584 -0.0002779667 0.0004056286
v 0.02466581 -0.0003609064 0.0002771538
v 0.02443574 -0.0003878619 0.0001276614
v 0.0246658 -0.0003474351 -7.930485E-05
v 0.02443584 -0.0002779668 -0.0001503059
v 0.02466581 2.651616E-10 -0.0002682827
v 0.02444097 7.286724E-06 -0.0002601585
v 0.02420185 -0.0001874413 -0.000348395
v 0.02443584 -0.0002779668 -0.0001503059
v 0.02444097 7.286724E-06 -0.0002601585
v 0.02418802 -0.0004679797 -7.933504E-05
v 0.02443574 -0.0003878619 0.0001276614
v 0.0241919 -0.0004941143 0.0002259467
v 0.02443584 -0.0002779667 0.0004056286
v 0.02418802 -0.0003703272 0.0004808049
v 0.02419476 3.481571E-10 0.0006427999
v 0.02443574 3.822976E-10 0.0005155238
v 0.02443584 0.0002779684 0.0004056284
v 0.02419463 0.0003594031 0.0004870631
v 0.0241919 0.0004941157 0.0002259468
v 0.02443574 0.0003878633 0.000127661
v 0.0241946 0.0004650491 -8.510755E-05
v 0.02443072 0.0002815449 -0.0001467532
v 0.02419463 0.0001945079 -0.0003419201
v 0.02444097 7.286724E-06 -0.0002601585
v 0.02420185 -0.0001874413 -0.000348395
v 0.0179252 0.0002412147 -0.0004546786
v 0.0179252 -0.0001201117 -0.0004761771
v 0.01800954 -0.0002182612 -0.0004587536
v 0.01800954 0.0002379854 -0.000446882
v 0.01800954 0.0005823436 -0.0001135501
v 0.0179252 0.0005745469 -0.0001103206
v 0.0179252 0.0005823435 0.0003688798
v 0.01800954 0.0005745467 0.0003656503
v 0.01800954 0.0002412147 0.0007100081
v 0.0179252 0.0002379853 0.0007022115
v 0.0179252 -0.0002182617 0.0007140829
v 0.01800954 -0.0002603259 0.0006966594
v 0.0179252 -0.0005119125 0.0004697135
v 0.01800954 -0.0005119125 0.0004697135
v 0.0179252 -0.0006253048 0.0001504298
v 0.01800954 -0.0006253048 0.0001048997
v 0.0179252 -0.0004582549 -0.0002983949
v 0.01800954 -0.0005119123 -0.0002143842
v 0.01800954 -0.0002182612 -0.0004587536
v 0.0179252 -0.0001201117 -0.0004761771
v 0.01931273 -0.0002590568 0.0001124269
v 0.01931273 -8.473477E-05 -0.0001000035
v 0.02466582 -1.523379E-05 -0.0001313961
v 0.02466582 -0.0002473348 9.165797E-05
v 0.02466582 -0.0001279132 0.0003423917
v 0.01931273 -0.0001010656 0.0003485618
v 0.01931273 0.0001724099 0.0003216149
v 0.02466582 0.0001494354 0.000328012
v 0.02466582 0.0002422868 6.627267E-05
v 0.01931273 0.0001939545 -4.474754E-05
v 0.02466582 -1.523379E-05 -0.0001313961
v 0.01931273 -8.473477E-05 -0.0001000035
v 0.01800954 -0.0002182612 -0.0004587536
v 0.01800954 -0.0005119123 -0.0002143842
v 0.01800954 -0.0005213182 5.17789E-05
v 0.01800954 -0.0006253048 0.0001048997
v 0.01800954 -0.0002130207 -0.0003379354
v 0.01800954 0.0002379854 -0.000446882
v 0.01800954 0.0002696094 -0.0003249301
v 0.01800954 0.0005823436 -0.0001135501
v 0.01800954 -0.0003486388 0.0005026478
v 0.01800954 -0.0005119125 0.0004697135
v 0.01800954 -0.0002603259 0.0006966594
v 0.01800954 0.0001016967 0.0006389287
v 0.01800954 0.0002412147 0.0007100081
v 0.01800954 0.0005228581 0.0002316679
v 0.01800954 0.0005745467 0.0003656503
v 0.02466582 -0.0001279132 0.0003423917
v 0.02466581 -0.0001635255 0.0004850806
v 0.02466581 0.0001515221 0.0004934657
v 0.02466581 -0.0003609064 0.0002771538
v 0.02466582 0.0001494354 0.000328012
v 0.02466582 -0.0002473348 9.165797E-05
v 0.02466581 0.0003609075 0.0002771544
v 0.0246658 -0.0003474351 -7.930485E-05
v 0.02466582 0.0002422868 6.627267E-05
v 0.0246658 0.0003474366 -7.930471E-05
v 0.02466582 -1.523379E-05 -0.0001313961
v 0.02466581 2.651616E-10 -0.0002682827
vt 0.230169 0.01323883
vt 0.2341077 0.0124145
vt 0.2344255 0.0074166
vt 0.2282335 0.00953185
vt 0.2304357 0.006163876
vt 0.3409958 0.7380501
vt 0.3337583 0.8594961
vt 0.3409959 0.8594962
vt 0.3352036 0.7380501
vt 0.3278463 0.7380501
vt 0.3217439 0.8594962
vt 0.3216887 0.7380501
vt 0.3158965 0.7380502
vt 0.3101422 0.8594962
vt 0.3081737 0.7380501
vt 0.3008167 0.8594962
vt 0.3002121 0.7380502
vt 0.2913722 0.8594962
vt 0.2946587 0.7380502
vt 0.2886278 0.7380501
vt 0.2815095 0.8594961
vt 0.2809668 0.7380501
vt 0.5660586 0.624862
vt 0.5603982 0.6225501
vt 0.5630494 0.6267134
vt 0.5632528 0.6196719
vt 0.558506 0.6178204
vt 0.5615672 0.6144971
vt 0.5573607 0.6126965
vt 0.5609677 0.6099087
vt 0.5571097 0.6074241
vt 0.5611692 0.6050586
vt 0.5577511 0.6021808
vt 0.5620896 0.6007346
vt 0.5592499 0.5971277
vt 0.5641882 0.5956216
vt 0.5615011 0.5924416
vt 0.5666769 0.591243
vt 0.563525 0.5893268
vt 0.5596658 0.5875676
vt 0.5615011 0.5924416
vt 0.563525 0.5893268
vt 0.5564485 0.592512
vt 0.5592499 0.5971277
vt 0.554556 0.5968144
vt 0.5577511 0.6021808
vt 0.5533988 0.6010043
vt 0.5526071 0.607187
vt 0.5571097 0.6074241
vt 0.5573607 0.6126965
vt 0.552883 0.6132325
vt 0.5537395 0.6177007
vt 0.558506 0.6178204
vt 0.5553673 0.6222354
vt 0.5603982 0.6225501
vt 0.5580667 0.6272281
vt 0.5630494 0.6267134
vt 0.5609288 0.6307902
vt 0.864378 0.101151
vt 0.864378 0.09526545
vt 0.8630005 0.09526545
vt 0.8630005 0.101151
vt 0.8630005 0.1089981
vt 0.864378 0.1089981
vt 0.864378 0.1168454
vt 0.8630005 0.1168454
vt 0.8630005 0.1246926
vt 0.864378 0.1246926
vt 0.864378 0.132168
vt 0.8630005 0.1329116
vt 0.864378 0.1384252
vt 0.8630005 0.1384252
vt 0.864378 0.1439388
vt 0.8630005 0.1446824
vt 0.864378 0.151786
vt 0.8630005 0.1501961
vt 0.8630005 0.1564533
vt 0.864378 0.1580432
vt 0.3556564 0.7511184
vt 0.3502695 0.7511182
vt 0.350617 0.8561746
vt 0.3553008 0.8561748
vt 0.3607591 0.856175
vt 0.3612721 0.7511185
vt 0.366659 0.7511188
vt 0.3662604 0.8561752
vt 0.3717616 0.8561755
vt 0.3739941 0.7511191
vt 0.3776586 0.8561756
vt 0.3788667 0.7511193
vt 0.4672616 0.5761856
vt 0.462331 0.5798531
vt 0.4629653 0.5843809
vt 0.4608296 0.585068
vt 0.4673226 0.5781
vt 0.4744664 0.5763279
vt 0.4746882 0.5787472
vt 0.479804 0.5816656
vt 0.4652007 0.5913616
vt 0.462331 0.5910265
vt 0.4665745 0.5944094
vt 0.4722466 0.5930966
vt 0.4744664 0.5945517
vt 0.4783155 0.5869102
vt 0.479804 0.5892141
vt 0.7225461 0.3324533
vt 0.7228538 0.3349666
vt 0.7274681 0.3331521
vt 0.7187066 0.3331521
vt 0.7262819 0.3306804
vt 0.7195082 0.3297102
vt 0.7292827 0.3287713
vt 0.7171669 0.3279033
vt 0.7260736 0.3265505
vt 0.72666 0.3239712
vt 0.7215273 0.3255923
vt 0.7207165 0.3230476
vn 1 -7.471218E-07 4.340355E-06
vn 1 1.495942E-05 6.545653E-06
vn 1 1.195309E-06 1.361602E-06
vn 1 -7.973106E-06 2.357428E-07
vn 1 0 -6.037912E-06
vn -0.002748396 -0.3946611 -0.9188227
vn -0.008344985 0.5479133 -0.8364936
vn -0.002752757 -0.3991494 -0.9168817
vn 0.002212276 0.3763243 -0.9264854
vn 0.00520707 0.8992396 -0.4374254
vn -0.01398755 0.9822776 0.1869089
vn 0.004740199 0.9816874 0.19044
vn 0.005045512 0.6824177 0.7309451
vn -0.007495981 0.2069272 0.9783277
vn 0.002090598 0.02838555 0.9995949
vn -0.003491065 -0.6886351 0.7250997
vn -0.003497209 -0.690173 0.723636
vn -0.004070133 -0.9863166 -0.1648119
vn 0.001151075 -0.9871688 0.1596765
vn 0.001960448 -0.9153804 -0.4025854
vn -0.002752757 -0.3991494 -0.9168817
vn -0.002748396 -0.3946611 -0.9188227
vn 0.06245295 -0.002914736 -0.9980437
vn -0.02635493 0.6741725 -0.7381036
vn 0.06262232 0.01757332 -0.9978825
vn 0.6067892 0.6706635 -0.4266348
vn -0.02714179 0.9996245 0.003766344
vn 0.6388547 0.7174652 0.2776841
vn -0.04455233 0.7109704 0.7018093
vn 0.6299541 0.2902778 0.7203448
vn -0.04947006 -0.005549593 0.9987602
vn 0.6355079 -0.3102772 0.7070063
vn -0.04601694 -0.7090302 0.7036752
vn 0.6389491 -0.7182389 0.2754576
vn -0.02883218 -0.9995788 0.003331073
vn 0.6032953 -0.6721293 -0.4292752
vn -0.03315512 -0.6619662 -0.7488
vn 0.06245295 -0.002914736 -0.9980437
vn 0.06262232 0.01757332 -0.9978825
vn 0.4208649 -0.3331237 -0.8437424
vn 0.4718837 -0.6266876 -0.6201521
vn 0.4760562 0.02043182 -0.8791775
vn 0.4196249 -0.8277422 -0.3725021
vn 0.4712752 -0.8816547 0.02417787
vn 0.432045 -0.8829538 0.1836564
vn 0.4605955 -0.6140815 0.6409022
vn 0.4619031 -0.6286824 0.6256227
vn 0.4463341 -0.005375091 0.8948503
vn 0.4463527 -0.003588538 0.8948498
vn 0.4620735 0.6160389 0.6379532
vn 0.4622681 0.6191676 0.6347753
vn 0.4293305 0.8833296 0.1881596
vn 0.4712631 0.8814614 0.03060797
vn 0.4272008 0.8196781 -0.3816115
vn 0.473104 0.6270554 -0.618849
vn 0.4123767 0.350199 -0.8410149
vn 0.4760562 0.02043182 -0.8791775
vn 0.4208649 -0.3331237 -0.8437424
vn 0.09246729 0.4015618 -0.9111519
vn 0.05214928 -0.07783696 -0.9956013
vn 0.5605062 -0.307044 -0.7691273
vn 0.668864 0.3004825 -0.6799495
vn -2.667216E-07 0.9238791 -0.3826845
vn -2.667215E-07 0.9238791 -0.3826844
vn 7.46575E-07 0.9238803 0.3826814
vn 7.465756E-07 0.9238801 0.3826818
vn 0.03065763 0.382219 0.9235631
vn 0.03065841 0.3822093 0.9235671
vn 0.00724973 -0.245237 0.9694361
vn -0.03692271 -0.4485338 0.8930029
vn 0 -0.8314717 0.555567
vn 0 -0.8314717 0.555567
vn -0.02258469 -0.9956696 0.09017693
vn -0.1171587 -0.9865197 -0.1142489
vn 0.1529912 -0.7076297 -0.6898217
vn 0.6167245 -0.701811 -0.356528
vn 0.5605062 -0.307044 -0.7691273
vn 0.05214928 -0.07783696 -0.9956013
vn 0.0006886096 0.9966896 0.08129765
vn 0.003418158 0.3111545 0.9503532
vn -0.008465426 0.08419116 0.9964136
vn -0.003547132 0.9880551 0.1540605
vn -0.002262818 0.5012451 -0.8653024
vn 0.001846372 0.4363325 -0.8997836
vn 0.006270399 -0.7106816 -0.7034858
vn -0.002366242 -0.6059471 -0.7955014
vn -0.008563085 -0.9595478 0.2814153
vn 0.01170268 -0.7906783 0.61212
vn -0.008465426 0.08419116 0.9964136
vn 0.003418158 0.3111545 0.9503532
vn 0.5605062 -0.307044 -0.7691273
vn 0.6167245 -0.701811 -0.356528
vn 1 1.539299E-05 0
vn 1 1.178813E-05 0
vn 1 0 0
vn 0.668864 0.3004825 -0.6799495
vn 1 -1.594999E-06 0
vn 1 -6.77654E-06 0
vn 1 1.239696E-06 0
vn 1 3.969172E-06 0
vn 1 -3.137988E-07 0
vn 1 -2.47081E-06 0
vn 1 -7.946204E-07 0
vn 1 3.26847E-05 0
vn 1 9.29082E-06 0
vn 1 -1.943325E-05 2.541053E-05
vn 0.6355079 -0.3102772 0.7070063
vn 0.6299541 0.2902778 0.7203448
vn 0.6389491 -0.7182389 0.2754576
vn 1 1.821029E-05 2.481414E-05
vn 1 -7.463995E-05 -3.397961E-05
vn 0.6388547 0.7174652 0.2776841
vn 0.6032953 -0.6721293 -0.4292752
vn 1 7.815712E-05 -5.514368E-05
vn 0.6067892 0.6706635 -0.4266348
vn 1 3.426778E-06 -5.849593E-05
vn 1 1.764379E-05 -5.119013E-05
g LMG_BarrelStandard_Mesh_LOD2_0
f 3/3/3 2/2/2 1/1/1
f 3/3/3 1/1/1 4/4/4
f 3/3/3 4/4/4 5/5/5
f 8/8/8 7/7/7 6/6/6
f 7/7/7 9/9/9 6/6/6
f 10/10/10 9/9/9 7/7/7
f 10/10/10 7/7/7 11/11/11
f 12/12/12 10/10/10 11/11/11
f 13/13/13 12/12/12 11/11/11
f 14/14/14 13/13/13 11/11/11
f 15/15/15 13/13/13 14/14/14
f 14/14/14 16/16/16 15/15/15
f 16/16/16 17/17/17 15/15/15
f 16/16/16 18/18/18 17/17/17
f 18/18/18 19/19/19 17/17/17
f 20/20/20 19/19/19 18/18/18
f 18/18/18 21/21/21 20/20/20
f 21/21/21 22/22/22 20/20/20
f 25/25/25 24/24/24 23/23/23
f 24/24/24 26/26/26 23/23/23
f 27/27/27 26/26/26 24/24/24
f 28/28/28 26/26/26 27/27/27
f 28/28/28 27/27/27 29/29/29
f 30/30/30 28/28/28 29/29/29
f 31/31/31 30/30/30 29/29/29
f 32/32/32 30/30/30 31/31/31
f 32/32/32 31/31/31 33/33/33
f 34/34/34 32/32/32 33/33/33
f 35/35/35 34/34/34 33/33/33
f 36/36/36 34/34/34 35/35/35
f 36/36/36 35/35/35 37/37/37
f 36/36/36 37/37/37 38/38/38
f 37/37/37 39/39/39 38/38/38
f 42/42/42 41/41/41 40/40/40
f 41/41/41 43/43/43 40/40/40
f 41/41/41 44/44/44 43/43/43
f 43/43/43 44/44/44 45/45/45
f 45/45/45 44/44/44 46/46/46
f 47/47/47 45/45/45 46/46/46
f 48/48/48 47/47/47 46/46/46
f 49/49/49 48/48/48 46/46/46
f 48/48/48 49/49/49 50/50/50
f 51/51/51 48/48/48 50/50/50
f 52/52/52 51/51/51 50/50/50
f 53/53/53 52/52/52 50/50/50
f 53/53/53 54/54/54 52/52/52
f 54/54/54 53/53/53 55/55/55
f 55/55/55 56/56/56 54/54/54
f 55/55/55 57/57/57 56/56/56
f 56/56/56 57/57/57 58/58/58
f 61/61/61 60/60/60 59/59/59
f 62/62/62 61/61/61 59/59/59
f 63/63/63 62/62/62 59/59/59
f 64/64/64 63/63/63 59/59/59
f 63/63/63 64/64/64 65/65/65
f 66/66/66 63/63/63 65/65/65
f 67/67/67 66/66/66 65/65/65
f 68/68/68 67/67/67 65/65/65
f 67/67/67 68/68/68 69/69/69
f 70/70/70 67/67/67 69/69/69
f 70/70/70 69/69/69 71/71/71
f 72/72/72 70/70/70 71/71/71
f 72/72/72 71/71/71 73/73/73
f 74/74/74 72/72/72 73/73/73
f 74/74/74 73/73/73 75/75/75
f 76/76/76 74/74/74 75/75/75
f 75/75/75 77/77/77 76/76/76
f 75/75/75 78/78/78 77/77/77
f 81/81/81 80/80/80 79/79/79
f 82/82/82 81/81/81 79/79/79
f 79/79/79 83/83/83 82/82/82
f 79/79/79 84/84/84 83/83/83
f 83/83/83 84/84/84 85/85/85
f 86/86/86 83/83/83 85/85/85
f 85/85/85 87/87/87 86/86/86
f 85/85/85 88/88/88 87/87/87
f 88/88/88 89/89/89 87/87/87
f 88/88/88 90/90/90 89/89/89
f 93/93/93 92/92/92 91/91/91
f 94/94/94 92/92/92 93/93/93
f 95/95/95 93/93/93 91/91/91
f 95/95/95 91/91/91 96/96/96
f 97/97/97 95/95/95 96/96/96
f 96/96/96 98/98/98 97/97/97
f 93/93/93 99/99/99 94/94/94
f 99/99/99 100/100/100 94/94/94
f 101/101/101 100/100/100 99/99/99
f 101/101/101 99/99/99 102/102/102
f 103/103/103 101/101/101 102/102/102
f 98/98/98 104/104/104 97/97/97
f 102/102/102 104/104/104 103/103/103
f 98/98/98 105/105/105 104/104/104
f 104/104/104 105/105/105 103/103/103
f 108/108/108 107/107/107 106/106/106
f 109/109/109 106/106/106 107/107/107
f 110/110/110 108/108/108 106/106/106
f 111/111/111 106/106/106 109/109/109
f 110/110/110 112/112/112 108/108/108
f 111/111/111 109/109/109 113/113/113
f 110/110/110 114/114/114 112/112/112
f 114/114/114 115/115/115 112/112/112
f 116/116/116 111/111/111 113/113/113
f 114/114/114 116/116/116 115/115/115
f 117/117/117 116/116/116 113/113/113
f 115/115/115 116/116/116 117/117/117
