g LMG_ChamberIndicator_Mesh_LOD01
v 0.001143275 0.00111786 0.002156654
v 0.001141554 0.001184866 0.002160352
v 0.001143275 0.001068763 0.002092846
v 0.001143275 0.001066885 0.001882527
v 0.001131799 0.001184866 0.001882527
v 0.001140521 0.001305925 0.002164917
v 0.001134094 0.001302848 0.001882527
v 0.001143275 0.00141654 0.002109961
v 0.001143275 0.001420828 0.001882527
v 0.001071128 0.001369854 0.002156654
v 0.00107457 0.001302848 0.002160352
v 0.001071128 0.001418951 0.002092846
v 0.001080308 0.001302848 0.001882527
v 0.001071128 0.001420828 0.001882527
v 0.001082604 0.001184866 0.001882527
v 0.001072505 0.001181789 0.002164917
v 0.001071128 0.001066885 0.001882527
v 0.001071128 0.001071174 0.002109961
v 0.001143275 0.001066885 0.001882527
v 0.001071128 0.001066885 0.001882527
v 0.001071128 0.001071174 0.002109961
v 0.001143275 0.001068763 0.002092846
v 0.001143275 0.00111786 0.002156654
v 0.001072505 0.001181789 0.002164917
v 0.001141554 0.001184866 0.002160352
v 0.00107457 0.001302848 0.002160352
v 0.001140521 0.001305925 0.002164917
v 0.001071128 0.001369854 0.002156654
v 0.001143275 0.00141654 0.002109961
v 0.001071128 0.001418951 0.002092846
v 0.001071128 0.001420828 0.001882527
v 0.001143275 0.001420828 0.001882527
vt 0.4466903 0.4990532
vt 0.4477607 0.4992038
vt 0.4458476 0.4981007
vt 0.4458055 0.4946661
vt 0.44792 0.4946661
vt 0.4501077 0.4992038
vt 0.4499595 0.4946661
vt 0.4518625 0.498328
vt 0.4520364 0.4946661
vt 0.2991794 0.5454187
vt 0.2990287 0.5465173
vt 0.3001319 0.5445759
vt 0.3035664 0.546611
vt 0.3035664 0.5445341
vt 0.3035664 0.5486505
vt 0.2990287 0.548862
vt 0.3035664 0.5507649
vt 0.2999046 0.5505909
vt 0.2539913 0.6310585
vt 0.2528129 0.6310585
vt 0.2528129 0.6347566
vt 0.2539913 0.6344941
vt 0.2539913 0.6358151
vt 0.2528392 0.6368474
vt 0.2539632 0.6368979
vt 0.2528691 0.6388248
vt 0.2539387 0.6388756
vt 0.2528129 0.6399075
vt 0.2539913 0.6409661
vt 0.2528129 0.6412286
vt 0.2528129 0.6446642
vt 0.2539913 0.6446642
vn 0.9994276 0.02681332 -0.02063121
vn 0.9994438 0.02238459 -0.02471883
vn 0.9981921 0.05658956 -0.02025127
vn 0.9978673 0.06207634 -0.02017922
vn 0.9992881 0.02866152 -0.02452997
vn 0.999416 -0.02613751 -0.02201167
vn 0.9993392 -0.02977297 -0.02084974
vn 0.9983953 -0.05518197 -0.01271642
vn 0.9983953 -0.05518197 -0.01271642
vn -0.997716 -0.0535354 -0.04119222
vn -0.9993004 -0.02801735 -0.02477429
vn -0.9982546 -0.05670078 -0.01651498
vn -0.9993656 -0.02938568 -0.02012408
vn -0.9982864 -0.05728174 -0.01195475
vn -0.9992743 0.02946969 -0.02413383
vn -0.9993818 0.02498588 -0.02473378
vn -0.9979454 0.0608976 -0.01991252
vn -0.9979454 0.0608976 -0.01991252
vn -0.006119703 -0.9998382 0.01691264
vn 0 -0.9998223 0.01885364
vn -0.05989679 -0.876963 0.4768106
vn 0.03464174 -0.9590491 0.2811133
vn -0.08408804 -0.456057 0.885969
vn -0.03324984 -0.1187789 0.9923638
vn 0.04516575 -0.01965557 0.9987862
vn -0.04747982 0.01822241 0.998706
vn 0.0307973 0.1153638 0.9928458
vn 0.08700477 0.4586503 0.8843473
vn 0.05982466 0.8776631 0.4755297
vn -0.03464007 0.9590489 0.2811144
vn 0.006119703 0.9998382 0.01691081
vn 0 0.9998223 0.01885156
g LMG_ChamberIndicator_Mesh_LOD01_0
f 3/3/3 2/2/2 1/1/1
f 2/2/2 3/3/3 4/4/4
f 5/5/5 2/2/2 4/4/4
f 6/6/6 2/2/2 5/5/5
f 7/7/7 6/6/6 5/5/5
f 8/8/8 6/6/6 7/7/7
f 9/9/9 8/8/8 7/7/7
f 12/12/12 11/11/11 10/10/10
f 13/13/13 11/11/11 12/12/12
f 14/14/14 13/13/13 12/12/12
f 13/13/13 15/15/15 11/11/11
f 15/15/15 16/16/16 11/11/11
f 15/15/15 17/17/17 16/16/16
f 17/17/17 18/18/18 16/16/16
f 21/21/21 20/20/20 19/19/19
f 22/22/22 21/21/21 19/19/19
f 23/23/23 21/21/21 22/22/22
f 24/24/24 21/21/21 23/23/23
f 25/25/25 24/24/24 23/23/23
f 26/26/26 24/24/24 25/25/25
f 27/27/27 26/26/26 25/25/25
f 28/28/28 26/26/26 27/27/27
f 27/27/27 29/29/29 28/28/28
f 28/28/28 29/29/29 30/30/30
f 31/31/31 30/30/30 29/29/29
f 32/32/32 31/31/31 29/29/29
