g LMG_BarrelStandard_Mesh_LOD0
v 0.01931273 0.0002209011 0.0002287278
v 0.01931273 0.0002276655 4.292566E-05
v 0.01931273 0.0001010669 -9.3239E-05
v 0.01931273 8.473645E-05 0.000355326
v 0.01931273 -0.0001010656 0.0003485618
v 0.01931273 -0.0002276641 0.0002123968
v 0.01931273 -0.0002208996 2.659499E-05
v 0.01931273 -8.473477E-05 -0.0001000035
v 0.0241919 -9.828495E-05 -0.0003664538
v 0.01800954 9.82856E-05 -0.0003664502
v 0.01800954 -0.0002130207 -0.0003379354
v 0.0241919 9.828627E-05 -0.0003664537
v 0.0241919 0.0002798944 -0.0002912293
v 0.01800954 0.0003598325 -0.0002321673
v 0.0241919 0.0004188913 -0.0001522325
v 0.01800954 0.0005116779 0.0001090362
v 0.0241919 0.0004941157 2.937558E-05
v 0.0241919 0.0004941157 0.0002259468
v 0.01800954 0.0004188907 0.0004075582
v 0.0241919 0.0004188914 0.0004075548
v 0.0241919 0.0002798944 0.0005465517
v 0.01800954 0.0001947401 0.0005978079
v 0.0241919 9.828641E-05 0.000621776
v 0.01800954 -9.828555E-05 0.0006217797
v 0.0241919 -9.828487E-05 0.0006217762
v 0.01800954 -0.0003486388 0.0005026478
v 0.0241919 -0.0002798931 0.0005465517
v 0.0241919 -0.0004188899 0.0004075548
v 0.01800954 -0.0005116779 0.0001462929
v 0.0241919 -0.0004941143 0.0002259467
v 0.0241919 -0.0004941142 2.937552E-05
v 0.01800954 -0.0004188904 -0.000152229
v 0.0241919 -0.0004188898 -0.0001522324
v 0.01800954 -0.0002130207 -0.0003379354
v 0.0241919 -0.0002798929 -0.0002912293
v 0.0241919 -9.828495E-05 -0.0003664538
v 0.02466581 2.651616E-10 -0.0002682827
v 0.02443379 0.0002135657 -0.0001919614
v 0.02444097 7.286724E-06 -0.0002601585
v 0.02466581 0.0002762271 -0.0001485648
v 0.02443379 0.0003196234 -8.590377E-05
v 0.02466582 0.0003793096 5.221209E-05
v 0.02443574 0.0003878633 0.000127661
v 0.02466581 0.0003609075 0.0002771544
v 0.02443379 0.0003196236 0.0003412262
v 0.02466581 0.0001515221 0.0004934657
v 0.02443379 0.0002135658 0.0004472838
v 0.02443574 3.822976E-10 0.0005155238
v 0.02466581 -0.0001635255 0.0004850806
v 0.02443379 -0.0002135644 0.0004472838
v 0.02443379 -0.000319622 0.0003412262
v 0.02466581 -0.0003609064 0.0002771538
v 0.02443574 -0.0003878619 0.0001276614
v 0.02466582 -0.0003793082 5.221209E-05
v 0.02443379 -0.000319622 -8.590377E-05
v 0.02466581 -0.0002762258 -0.0001485648
v 0.02443379 -0.0002135643 -0.0001919614
v 0.02466581 2.651616E-10 -0.0002682827
v 0.02444097 7.286724E-06 -0.0002601585
v 0.02443379 -0.0002135643 -0.0001919614
v 0.02444097 7.286724E-06 -0.0002601585
v 0.0241919 -9.828495E-05 -0.0003664538
v 0.0241919 -0.0002798929 -0.0002912293
v 0.02443379 -0.000319622 -8.590377E-05
v 0.0241919 -0.0004188898 -0.0001522324
v 0.0241919 -0.0004941142 2.937552E-05
v 0.02443574 -0.0003878619 0.0001276614
v 0.0241919 -0.0004941143 0.0002259467
v 0.02443379 -0.000319622 0.0003412262
v 0.0241919 -0.0004188899 0.0004075548
v 0.0241919 -0.0002798931 0.0005465517
v 0.02443379 -0.0002135644 0.0004472838
v 0.0241919 -9.828487E-05 0.0006217762
v 0.02443574 3.822976E-10 0.0005155238
v 0.0241919 9.828641E-05 0.000621776
v 0.02443379 0.0002135658 0.0004472838
v 0.0241919 0.0002798944 0.0005465517
v 0.02443379 0.0003196236 0.0003412262
v 0.0241919 0.0004188914 0.0004075548
v 0.0241919 0.0004941157 0.0002259468
v 0.02443574 0.0003878633 0.000127661
v 0.0241919 0.0004941157 2.937558E-05
v 0.02443379 0.0003196234 -8.590377E-05
v 0.0241919 0.0004188913 -0.0001522325
v 0.02443379 0.0002135657 -0.0001919614
v 0.0241919 0.0002798944 -0.0002912293
v 0.02444097 7.286724E-06 -0.0002601585
v 0.0241919 9.828627E-05 -0.0003664537
v 0.0241919 -9.828495E-05 -0.0003664538
v 0.0179252 -0.0001201117 -0.0004761771
v 0.01800954 -0.0003420487 -0.0003842477
v 0.01800954 -0.0001201117 -0.0004761771
v 0.0179252 -0.0003420487 -0.0003842476
v 0.01800954 -0.0005119123 -0.0002143842
v 0.0179252 -0.0005119123 -0.0002143842
v 0.01800954 -0.0006038417 7.553059E-06
v 0.0179252 -0.0006038417 7.553059E-06
v 0.01800954 -0.0006038417 0.0002477762
v 0.0179252 -0.0006038417 0.0002477762
v 0.01800954 -0.0005119125 0.0004697135
v 0.0179252 -0.0005119125 0.0004697135
v 0.01800954 -0.0003420489 0.000639577
v 0.0179252 -0.0003420489 0.0006395771
v 0.01800954 -0.0001201116 0.0007315065
v 0.0179252 -0.0001201116 0.0007315065
v 0.01800954 0.0001201117 0.0007315063
v 0.0179252 0.0001201117 0.0007315063
v 0.0179252 0.000342049 0.000639577
v 0.01800954 0.000342049 0.0006395769
v 0.0179252 0.0005119126 0.0004697134
v 0.01800954 0.0005119126 0.0004697134
v 0.01800954 0.0006038417 0.0002477763
v 0.0179252 0.0006038417 0.0002477763
v 0.01800954 0.0006038419 7.553156E-06
v 0.0179252 0.0006038419 7.553156E-06
v 0.01800954 0.0005119125 -0.0002143842
v 0.0179252 0.0005119125 -0.0002143842
v 0.0179252 0.0003420489 -0.0003842475
v 0.01800954 0.0003420489 -0.0003842476
v 0.0179252 0.0001201116 -0.0004761769
v 0.01800954 0.0001201116 -0.0004761769
v 0.01800954 -0.0001201117 -0.0004761771
v 0.0179252 -0.0001201117 -0.0004761771
v 0.01931273 -0.0002208996 2.659499E-05
v 0.01931273 -8.473477E-05 -0.0001000035
v 0.02466582 -0.0001010653 -9.323916E-05
v 0.02466582 -0.0001987387 -5.13213E-06
v 0.02466582 -0.000242761 0.0001364995
v 0.01931273 -0.0002276641 0.0002123968
v 0.02466582 -0.0001654083 0.0003055693
v 0.01931273 -0.0001010656 0.0003485618
v 0.02466582 -4.663018E-05 0.0003620905
v 0.01931273 8.473645E-05 0.000355326
v 0.02466582 0.000101067 0.0003485617
v 0.01931273 0.0002209011 0.0002287278
v 0.02466582 0.0001987403 0.0002604547
v 0.02466582 0.0002427624 0.0001188231
v 0.01931273 0.0002276655 4.292566E-05
v 0.02466582 0.0001987402 -5.132097E-06
v 0.01931273 0.0001010669 -9.3239E-05
v 0.02466582 8.47363E-05 -0.0001000034
v 0.01931273 -8.473477E-05 -0.0001000035
v 0.02466582 -0.0001010653 -9.323916E-05
v 0.01800954 -0.0005116779 0.0001462929
v 0.01800954 -0.0006038417 7.553059E-06
v 0.01800954 -0.0006038417 0.0002477762
v 0.01800954 -0.0005119123 -0.0002143842
v 0.01800954 -0.0004188904 -0.000152229
v 0.01800954 -0.0003420487 -0.0003842477
v 0.01800954 -0.0003486388 0.0005026478
v 0.01800954 -0.0005119125 0.0004697135
v 0.01800954 -0.0003420489 0.000639577
v 0.01800954 -0.0002130207 -0.0003379354
v 0.01800954 -0.0001201117 -0.0004761771
v 0.01800954 -9.828555E-05 0.0006217797
v 0.01800954 -0.0001201116 0.0007315065
v 0.01800954 0.0001201117 0.0007315063
v 0.01800954 0.0001947401 0.0005978079
v 0.01800954 0.000342049 0.0006395769
v 0.01800954 0.0001201116 -0.0004761769
v 0.01800954 9.82856E-05 -0.0003664502
v 0.01800954 0.0004188907 0.0004075582
v 0.01800954 0.0005119126 0.0004697134
v 0.01800954 0.0006038417 0.0002477763
v 0.01800954 0.0005116779 0.0001090362
v 0.01800954 0.0006038419 7.553156E-06
v 0.01800954 0.0003598325 -0.0002321673
v 0.01800954 0.0003420489 -0.0003842476
v 0.01800954 0.0005119125 -0.0002143842
v 0.02466582 -4.663018E-05 0.0003620905
v 0.02466581 0.0001515221 0.0004934657
v 0.02466582 0.000101067 0.0003485617
v 0.02466582 0.0001987403 0.0002604547
v 0.02466581 -0.0001635255 0.0004850806
v 0.02466581 0.0003609075 0.0002771544
v 0.02466582 -0.0001654083 0.0003055693
v 0.02466582 0.0002427624 0.0001188231
v 0.02466581 -0.0003609064 0.0002771538
v 0.02466582 0.0003793096 5.221209E-05
v 0.02466582 -0.000242761 0.0001364995
v 0.02466582 0.0001987402 -5.132097E-06
v 0.02466582 -0.0003793082 5.221209E-05
v 0.02466581 0.0002762271 -0.0001485648
v 0.02466582 -0.0001987387 -5.13213E-06
v 0.02466582 8.47363E-05 -0.0001000034
v 0.02466581 -0.0002762258 -0.0001485648
v 0.02466581 2.651616E-10 -0.0002682827
v 0.02466582 -0.0001010653 -9.323916E-05
vt 0.2352499 0.01135529
vt 0.2353604 0.008424694
vt 0.2333663 0.006274362
vt 0.2330996 0.01334931
vt 0.230169 0.01323883
vt 0.2281748 0.01108854
vt 0.2282853 0.00815797
vt 0.2304357 0.006163876
vt 0.3409958 0.7380501
vt 0.3371345 0.8594962
vt 0.3409959 0.8594962
vt 0.3371344 0.7380501
vt 0.3332729 0.7380501
vt 0.3313423 0.8594962
vt 0.3294115 0.7380501
vt 0.3239854 0.8594961
vt 0.3255501 0.7380501
vt 0.3216887 0.7380501
vt 0.3178272 0.8594962
vt 0.3178272 0.7380502
vt 0.3139658 0.7380502
vt 0.3120351 0.8594962
vt 0.3101044 0.7380502
vt 0.3062429 0.8594962
vt 0.3062429 0.7380501
vt 0.3008167 0.8594962
vt 0.3023815 0.7380502
vt 0.2985201 0.7380502
vt 0.2930938 0.8594962
vt 0.2946587 0.7380502
vt 0.2907972 0.7380501
vt 0.2869357 0.8594962
vt 0.2869358 0.7380501
vt 0.2815095 0.8594961
vt 0.2830744 0.7380501
vt 0.279213 0.7380501
vt 0.5660586 0.624862
vt 0.5610368 0.6237637
vt 0.5630494 0.6267134
vt 0.5638057 0.6209862
vt 0.55984 0.6214893
vt 0.5624802 0.6178351
vt 0.558506 0.6178204
vt 0.5615672 0.6144971
vt 0.5575358 0.6140053
vt 0.5609677 0.6099087
vt 0.5571856 0.6113878
vt 0.5571097 0.6074241
vt 0.5611692 0.6050586
vt 0.5574808 0.6034754
vt 0.5580213 0.6008863
vt 0.5620896 0.6007346
vt 0.5592499 0.5971277
vt 0.5632634 0.5974477
vt 0.56086 0.5935494
vt 0.56485 0.594315
vt 0.5621423 0.5913339
vt 0.5666769 0.591243
vt 0.563525 0.5893268
vt 0.5621423 0.5913339
vt 0.563525 0.5893268
vt 0.56051 0.5865224
vt 0.5586512 0.5888235
vt 0.56086 0.5935494
vt 0.5570468 0.5913393
vt 0.5556813 0.5940154
vt 0.5592499 0.5971277
vt 0.554556 0.5968144
vt 0.5580213 0.6008863
vt 0.5536753 0.5997069
vt 0.5530443 0.6026676
vt 0.5574808 0.6034754
vt 0.5526673 0.6056731
vt 0.5571097 0.6074241
vt 0.5525469 0.6087008
vt 0.5571856 0.6113878
vt 0.5526845 0.611729
vt 0.5575358 0.6140053
vt 0.5530815 0.6147359
vt 0.5537395 0.6177007
vt 0.558506 0.6178204
vt 0.5546643 0.620602
vt 0.55984 0.6214893
vt 0.5558465 0.6233488
vt 0.5610368 0.6237637
vt 0.5572345 0.6259778
vt 0.5630494 0.6267134
vt 0.5588988 0.6284783
vt 0.5609288 0.6307902
vt 0.864378 0.1580432
vt 0.8630005 0.1541197
vt 0.8630005 0.1580432
vt 0.864378 0.1541197
vt 0.8630005 0.1501961
vt 0.864378 0.1501961
vt 0.8630005 0.1462724
vt 0.864378 0.1462724
vt 0.8630005 0.1423488
vt 0.864378 0.1423488
vt 0.8630005 0.1384252
vt 0.864378 0.1384252
vt 0.8630005 0.1345016
vt 0.864378 0.1345016
vt 0.8630005 0.130578
vt 0.864378 0.130578
vt 0.8630005 0.1266544
vt 0.864378 0.1266544
vt 0.864378 0.1227307
vt 0.8630005 0.1227307
vt 0.864378 0.1188071
vt 0.8630005 0.1188071
vt 0.8630005 0.1148835
vt 0.864378 0.1148835
vt 0.8630005 0.1109599
vt 0.864378 0.1109599
vt 0.8630005 0.1070363
vt 0.864378 0.1070363
vt 0.864378 0.1031128
vt 0.8630005 0.1031128
vt 0.864378 0.09918916
vt 0.8630005 0.09918916
vt 0.8630005 0.09526545
vt 0.864378 0.09526545
vt 0.353937 0.7511184
vt 0.3502695 0.7511182
vt 0.350617 0.8561746
vt 0.3531939 0.8561747
vt 0.3561184 0.8561749
vt 0.3576046 0.7511185
vt 0.3597859 0.8561749
vt 0.3612721 0.7511185
vt 0.3623627 0.8561751
vt 0.3649396 0.7511188
vt 0.3652872 0.8561752
vt 0.3686071 0.751119
vt 0.3678641 0.8561753
vt 0.3707884 0.8561754
vt 0.3722747 0.751119
vt 0.3733653 0.8561755
vt 0.3759422 0.7511191
vt 0.3762897 0.8561755
vt 0.3788667 0.7511193
vt 0.3788667 0.8561757
vt 0.4626217 0.585744
vt 0.4608296 0.583478
vt 0.4608296 0.5874016
vt 0.462331 0.5798531
vt 0.4638504 0.5808683
vt 0.4651055 0.5770786
vt 0.4652007 0.5913616
vt 0.462331 0.5910265
vt 0.4651055 0.593801
vt 0.4673226 0.5781
vt 0.4687305 0.5755771
vt 0.4690868 0.5935102
vt 0.4687305 0.5953024
vt 0.4726539 0.5953024
vt 0.4737806 0.5928959
vt 0.4762788 0.593801
vt 0.4726539 0.5755771
vt 0.4722975 0.5773693
vt 0.477534 0.5900114
vt 0.4790533 0.5910265
vt 0.4805548 0.5874016
vt 0.4787627 0.5851355
vt 0.4805548 0.583478
vt 0.4763989 0.5797331
vt 0.476279 0.5770786
vt 0.4790533 0.5798531
vt 0.723849 0.3326003
vt 0.7274681 0.3331521
vt 0.725897 0.3313768
vt 0.7269163 0.329533
vt 0.7228538 0.3349666
vt 0.7292827 0.3287713
vt 0.7217554 0.3323641
vt 0.7265696 0.3271726
vt 0.7187066 0.3331521
vt 0.7283396 0.325262
vt 0.7196051 0.3303701
vt 0.7252563 0.3255253
vt 0.716892 0.3300036
vt 0.7254582 0.3230476
vt 0.7192584 0.3280097
vt 0.7229431 0.3249424
vt 0.7173636 0.3264004
vt 0.7207165 0.3230476
vt 0.7202778 0.3261659
vn 1 5.080169E-06 4.694425E-06
vn 1 3.0481E-05 6.59796E-07
vn 1 -4.358117E-07 2.552075E-07
vn 1 -1.190358E-05 5.37252E-06
vn 1 -8.927686E-06 4.462425E-06
vn 1 0 2.320064E-06
vn 1 -2.540091E-06 -2.441326E-06
vn 1 -1.524053E-05 -1.328144E-05
vn 0.0005083113 -0.2205379 -0.9753783
vn -0.001722248 0.191576 -0.9814762
vn -0.001411278 -0.3951428 -0.9186186
vn -0.001722248 0.191576 -0.9814762
vn 0.0004022715 0.5743163 -0.8186334
vn -0.002418119 0.7181795 -0.6958539
vn -0.0003748012 0.8277755 -0.5610592
vn -0.002547327 0.9993156 -0.03690277
vn -0.0001416503 0.9787377 -0.205116
vn 0.0005088346 0.9855283 0.1695101
vn -0.001721444 0.8334531 0.5525875
vn -0.001721444 0.8334533 0.5525874
vn 0.000403208 0.5365365 0.8438771
vn -0.001607665 0.3826832 0.9238782
vn 0.0004033182 0.2173221 0.9760998
vn -0.001291167 -0.1858529 0.9825767
vn -0.001291167 -0.1858529 0.9825767
vn -0.002268906 -0.7086715 0.7055348
vn 0.0009421962 -0.5667787 0.8238695
vn -0.0003170998 -0.8259317 0.5637699
vn -0.002722056 -0.9991772 0.04046719
vn -0.0003070602 -0.9779873 0.2086639
vn 0.0005088527 -0.9855282 -0.1695105
vn -0.001410145 -0.8386158 -0.5447215
vn -0.001410145 -0.8386157 -0.5447216
vn -0.001411278 -0.3951428 -0.9186186
vn 0.0009412566 -0.5442595 -0.8389164
vn 0.0005083113 -0.2205379 -0.9753783
vn 0.02449543 -0.002326831 -0.9996972
vn -0.007381916 0.5132658 -0.858198
vn 0.02470142 0.01265864 -0.9996147
vn -0.004899332 0.7011442 -0.7130026
vn -0.03033291 0.8521942 -0.5223456
vn 0.02001687 0.9793726 -0.2010692
vn -0.01384087 0.9992567 -0.03598049
vn 0.02065255 0.9114554 0.4108801
vn 0.001128546 0.8315051 0.5555161
vn 0.6347855 0.2995058 0.7122807
vn -0.008071681 0.5667849 0.8238263
vn -0.01942401 -0.0064244 0.9997907
vn 0.6398209 -0.3202186 0.6986338
vn -0.006753722 -0.5624551 0.8268003
vn -0.002568817 -0.8335688 0.5524098
vn 0.01809942 -0.912518 0.4086361
vn -0.01384118 -0.9992567 -0.03597792
vn 0.02001671 -0.9793732 -0.2010665
vn -0.03033309 -0.8521959 -0.522343
vn -0.009142674 -0.6982567 -0.7157891
vn -0.0133763 -0.5080149 -0.8612444
vn 0.02449543 -0.002326831 -0.9996972
vn 0.02470142 0.01265864 -0.9996147
vn 0.4550497 -0.4767828 -0.752069
vn 0.4595178 0.009672862 -0.8881159
vn 0.4363726 -0.1845663 -0.8806328
vn 0.4548361 -0.4801889 -0.7500285
vn 0.4550753 -0.7513799 -0.4778438
vn 0.4549349 -0.7500569 -0.4800509
vn 0.4389044 -0.8798156 -0.1824486
vn 0.4628314 -0.8864463 -1.641676E-06
vn 0.4389003 -0.8798183 0.1824457
vn 0.4550728 -0.7513821 0.4778427
vn 0.4549325 -0.7500591 0.4800497
vn 0.4549319 -0.4800473 0.7500609
vn 0.4550723 -0.4778404 0.751384
vn 0.438902 -0.1824443 0.8798176
vn 0.4628294 1.112691E-06 0.8864473
vn 0.4389015 0.1824501 0.8798167
vn 0.4550723 0.4778401 0.7513841
vn 0.454932 0.4800471 0.7500612
vn 0.4550736 0.7513815 0.4778431
vn 0.4549333 0.7500584 0.4800501
vn 0.4389003 0.8798182 0.1824462
vn 0.462831 0.8864465 -1.441027E-06
vn 0.4389024 0.8798166 -0.1824478
vn 0.4550747 0.7513805 -0.4778434
vn 0.4549343 0.7500575 -0.4800504
vn 0.451505 0.4823599 -0.7506478
vn 0.4513667 0.4853308 -0.7488139
vn 0.4595178 0.009672862 -0.8881159
vn 0.4322856 0.1864024 -0.8822603
vn 0.4363726 -0.1845663 -0.8806328
vn -4.393989E-07 -0.1950889 -0.9807855
vn -5.858646E-07 -0.5555718 -0.8314685
vn -4.393989E-07 -0.1950889 -0.9807855
vn -5.858644E-07 -0.5555719 -0.8314685
vn -1.464649E-07 -0.831471 -0.5555681
vn -1.464649E-07 -0.831471 -0.5555681
vn 0 -0.9807853 -0.1950908
vn 0 -0.9807853 -0.1950908
vn 0 -0.9807853 0.1950904
vn 0 -0.9807853 0.1950904
vn 1.464658E-07 -0.8314697 0.5555701
vn 1.464658E-07 -0.8314697 0.5555701
vn 1.464658E-07 -0.5555725 0.8314681
vn 1.464657E-07 -0.5555724 0.8314682
vn 0 -0.1950922 0.9807849
vn 0 -0.1950922 0.9807849
vn 0 0.1950929 0.9807848
vn 0 0.1950929 0.9807848
vn 4.394001E-07 0.5555691 0.8314703
vn 4.394003E-07 0.5555692 0.8314703
vn 5.126345E-07 0.8314676 0.5555732
vn 5.126342E-07 0.8314676 0.5555731
vn 0 0.9807853 0.1950904
vn 0 0.9807853 0.1950904
vn 0 0.9807853 -0.1950906
vn 0 0.9807853 -0.1950906
vn -1.46466E-07 0.8314692 -0.5555708
vn -1.46466E-07 0.8314692 -0.5555708
vn -2.929324E-07 0.5555685 -0.8314708
vn -2.929324E-07 0.5555683 -0.8314708
vn -1.464663E-07 0.1950888 -0.9807855
vn -1.464663E-07 0.1950888 -0.9807855
vn -4.393989E-07 -0.1950889 -0.9807855
vn -4.393989E-07 -0.1950889 -0.9807855
vn 0.002488256 0.9078042 0.419387
vn 0.000722529 0.3622021 0.9320993
vn 0.0007253612 0.3636219 0.9315464
vn -0.000429407 0.8441129 0.5361652
vn -0.002886367 0.9979802 -0.06346054
vn 0.003526011 0.9371851 -0.3488146
vn -0.002810027 0.7121285 -0.7020435
vn 0.00220734 0.3899527 -0.9208322
vn -0.000669645 0.2088651 -0.9779442
vn 0.001129793 -0.3716551 -0.9283702
vn 0.00113102 -0.373035 -0.9278166
vn 0.002488251 -0.9078043 -0.4193866
vn -0.0004294122 -0.8441134 -0.5361646
vn -0.002191022 -0.999798 0.01998119
vn 0.002207331 -0.9268657 0.3753867
vn -0.0006696476 -0.839201 0.543821
vn 0.0004134957 -0.3740201 0.9274206
vn 0.000411886 -0.372564 0.9280064
vn 0.000722529 0.3622021 0.9320993
vn 0.0007253612 0.3636219 0.9315464
vn 1 -4.676161E-06 0
vn 1 -4.390824E-06 0
vn 1 -8.251113E-06 0
vn 1 -2.790684E-06 0
vn 1 -2.820961E-06 0
vn 1 -4.513117E-06 0
vn 1 -4.51709E-06 0
vn 1 -8.870289E-06 0
vn 1 -4.554528E-06 0
vn 1 -8.08327E-06 0
vn 1 -3.589138E-06 0
vn 1 -8.768619E-07 0
vn 1 -9.205057E-07 0
vn 1 -6.58026E-07 0
vn 1 -6.684284E-06 0
vn 1 -3.974278E-06 0
vn 1 0 0
vn 1 0 0
vn 1 1.119199E-05 0
vn 1 1.116274E-05 0
vn 1 1.756331E-05 0
vn 1 4.602596E-06 0
vn 1 -1.294459E-06 0
vn 1 -4.796719E-07 0
vn 1 0 0
vn 1 -1.338421E-06 0
vn 1 -5.515465E-06 3.262539E-05
vn 0.6347855 0.2995058 0.7122807
vn 1 1.609434E-05 3.044636E-05
vn 1 2.806659E-05 1.935783E-05
vn 0.6398209 -0.3202186 0.6986338
vn 1 1.275756E-05 1.892317E-05
vn 1 -2.22932E-05 2.294E-05
vn 1 -1.409603E-06 3.669151E-06
vn 1 -2.308997E-05 1.927438E-05
vn 1 -1.011639E-05 -1.443156E-06
vn 1 -1.6436E-05 6.205219E-06
vn 1 5.864377E-06 -1.930921E-05
vn 1 -9.249444E-06 -2.204495E-06
vn 1 3.924104E-06 -2.758024E-05
vn 1 -6.477146E-06 -1.838171E-05
vn 1 1.672505E-06 -4.042897E-05
vn 1 -5.606262E-06 -2.732078E-05
vn 1 -1.222292E-06 -4.553413E-05
vn 1 -4.650123E-06 -3.933578E-05
g LMG_BarrelStandard_Mesh_LOD0_0
f 3/3/3 2/2/2 1/1/1
f 3/3/3 1/1/1 4/4/4
f 3/3/3 4/4/4 5/5/5
f 3/3/3 5/5/5 6/6/6
f 3/3/3 6/6/6 7/7/7
f 3/3/3 7/7/7 8/8/8
f 11/11/11 10/10/10 9/9/9
f 10/10/10 12/12/12 9/9/9
f 12/12/12 10/10/10 13/13/13
f 10/10/10 14/14/14 13/13/13
f 15/15/15 13/13/13 14/14/14
f 14/14/14 16/16/16 15/15/15
f 16/16/16 17/17/17 15/15/15
f 18/18/18 17/17/17 16/16/16
f 16/16/16 19/19/19 18/18/18
f 19/19/19 20/20/20 18/18/18
f 20/20/20 19/19/19 21/21/21
f 19/19/19 22/22/22 21/21/21
f 23/23/23 21/21/21 22/22/22
f 22/22/22 24/24/24 23/23/23
f 24/24/24 25/25/25 23/23/23
f 24/24/24 26/26/26 25/25/25
f 26/26/26 27/27/27 25/25/25
f 26/26/26 28/28/28 27/27/27
f 26/26/26 29/29/29 28/28/28
f 29/29/29 30/30/30 28/28/28
f 31/31/31 30/30/30 29/29/29
f 29/29/29 32/32/32 31/31/31
f 32/32/32 33/33/33 31/31/31
f 32/32/32 34/34/34 33/33/33
f 34/34/34 35/35/35 33/33/33
f 36/36/36 35/35/35 34/34/34
f 39/39/39 38/38/38 37/37/37
f 38/38/38 40/40/40 37/37/37
f 40/40/40 38/38/38 41/41/41
f 40/40/40 41/41/41 42/42/42
f 41/41/41 43/43/43 42/42/42
f 44/44/44 42/42/42 43/43/43
f 44/44/44 43/43/43 45/45/45
f 44/44/44 45/45/45 46/46/46
f 45/45/45 47/47/47 46/46/46
f 48/48/48 46/46/46 47/47/47
f 49/49/49 46/46/46 48/48/48
f 49/49/49 48/48/48 50/50/50
f 50/50/50 51/51/51 49/49/49
f 51/51/51 52/52/52 49/49/49
f 53/53/53 52/52/52 51/51/51
f 54/54/54 52/52/52 53/53/53
f 53/53/53 55/55/55 54/54/54
f 55/55/55 56/56/56 54/54/54
f 57/57/57 56/56/56 55/55/55
f 56/56/56 57/57/57 58/58/58
f 57/57/57 59/59/59 58/58/58
f 62/62/62 61/61/61 60/60/60
f 63/63/63 62/62/62 60/60/60
f 63/63/63 60/60/60 64/64/64
f 65/65/65 63/63/63 64/64/64
f 66/66/66 65/65/65 64/64/64
f 67/67/67 66/66/66 64/64/64
f 66/66/66 67/67/67 68/68/68
f 68/68/68 67/67/67 69/69/69
f 70/70/70 68/68/68 69/69/69
f 71/71/71 70/70/70 69/69/69
f 72/72/72 71/71/71 69/69/69
f 73/73/73 71/71/71 72/72/72
f 74/74/74 73/73/73 72/72/72
f 74/74/74 75/75/75 73/73/73
f 75/75/75 74/74/74 76/76/76
f 77/77/77 75/75/75 76/76/76
f 77/77/77 76/76/76 78/78/78
f 79/79/79 77/77/77 78/78/78
f 80/80/80 79/79/79 78/78/78
f 81/81/81 80/80/80 78/78/78
f 81/81/81 82/82/82 80/80/80
f 81/81/81 83/83/83 82/82/82
f 83/83/83 84/84/84 82/82/82
f 84/84/84 83/83/83 85/85/85
f 86/86/86 84/84/84 85/85/85
f 86/86/86 85/85/85 87/87/87
f 88/88/88 86/86/86 87/87/87
f 88/88/88 87/87/87 89/89/89
f 92/92/92 91/91/91 90/90/90
f 91/91/91 93/93/93 90/90/90
f 91/91/91 94/94/94 93/93/93
f 94/94/94 95/95/95 93/93/93
f 94/94/94 96/96/96 95/95/95
f 96/96/96 97/97/97 95/95/95
f 96/96/96 98/98/98 97/97/97
f 98/98/98 99/99/99 97/97/97
f 98/98/98 100/100/100 99/99/99
f 100/100/100 101/101/101 99/99/99
f 100/100/100 102/102/102 101/101/101
f 102/102/102 103/103/103 101/101/101
f 102/102/102 104/104/104 103/103/103
f 104/104/104 105/105/105 103/103/103
f 104/104/104 106/106/106 105/105/105
f 106/106/106 107/107/107 105/105/105
f 107/107/107 106/106/106 108/108/108
f 106/106/106 109/109/109 108/108/108
f 108/108/108 109/109/109 110/110/110
f 109/109/109 111/111/111 110/110/110
f 111/111/111 112/112/112 110/110/110
f 112/112/112 113/113/113 110/110/110
f 112/112/112 114/114/114 113/113/113
f 114/114/114 115/115/115 113/113/113
f 114/114/114 116/116/116 115/115/115
f 116/116/116 117/117/117 115/115/115
f 117/117/117 116/116/116 118/118/118
f 116/116/116 119/119/119 118/118/118
f 118/118/118 119/119/119 120/120/120
f 119/119/119 121/121/121 120/120/120
f 121/121/121 122/122/122 120/120/120
f 122/122/122 123/123/123 120/120/120
f 126/126/126 125/125/125 124/124/124
f 127/127/127 126/126/126 124/124/124
f 124/124/124 128/128/128 127/127/127
f 124/124/124 129/129/129 128/128/128
f 129/129/129 130/130/130 128/128/128
f 129/129/129 131/131/131 130/130/130
f 131/131/131 132/132/132 130/130/130
f 132/132/132 131/131/131 133/133/133
f 134/134/134 132/132/132 133/133/133
f 134/134/134 133/133/133 135/135/135
f 136/136/136 134/134/134 135/135/135
f 135/135/135 137/137/137 136/136/136
f 135/135/135 138/138/138 137/137/137
f 138/138/138 139/139/139 137/137/137
f 139/139/139 138/138/138 140/140/140
f 141/141/141 139/139/139 140/140/140
f 141/141/141 140/140/140 142/142/142
f 143/143/143 141/141/141 142/142/142
f 146/146/146 145/145/145 144/144/144
f 144/144/144 145/145/145 147/147/147
f 148/148/148 144/144/144 147/147/147
f 148/148/148 147/147/147 149/149/149
f 144/144/144 150/150/150 146/146/146
f 150/150/150 151/151/151 146/146/146
f 152/152/152 151/151/151 150/150/150
f 153/153/153 148/148/148 149/149/149
f 149/149/149 154/154/154 153/153/153
f 150/150/150 155/155/155 152/152/152
f 155/155/155 156/156/156 152/152/152
f 156/156/156 155/155/155 157/157/157
f 155/155/155 158/158/158 157/157/157
f 159/159/159 157/157/157 158/158/158
f 153/153/153 154/154/154 160/160/160
f 161/161/161 153/153/153 160/160/160
f 158/158/158 162/162/162 159/159/159
f 162/162/162 163/163/163 159/159/159
f 163/163/163 162/162/162 164/164/164
f 162/162/162 165/165/165 164/164/164
f 166/166/166 164/164/164 165/165/165
f 167/167/167 161/161/161 160/160/160
f 165/165/165 167/167/167 166/166/166
f 168/168/168 167/167/167 160/160/160
f 167/167/167 169/169/169 166/166/166
f 168/168/168 169/169/169 167/167/167
f 172/172/172 171/171/171 170/170/170
f 171/171/171 172/172/172 173/173/173
f 171/171/171 174/174/174 170/170/170
f 175/175/175 171/171/171 173/173/173
f 176/176/176 170/170/170 174/174/174
f 173/173/173 177/177/177 175/175/175
f 178/178/178 176/176/176 174/174/174
f 177/177/177 179/179/179 175/175/175
f 180/180/180 176/176/176 178/178/178
f 179/179/179 177/177/177 181/181/181
f 180/180/180 178/178/178 182/182/182
f 183/183/183 179/179/179 181/181/181
f 180/180/180 182/182/182 184/184/184
f 181/181/181 185/185/185 183/183/183
f 182/182/182 186/186/186 184/184/184
f 183/183/183 185/185/185 187/187/187
f 188/188/188 184/184/184 186/186/186
f 185/185/185 188/188/188 187/187/187
f 187/187/187 188/188/188 186/186/186
