g LMG_ChamberIndicator_Mesh_LOD2
v 0.001143275 0.00141654 0.002109961
v 0.001071128 0.001404113 0.002143952
v 0.001107201 0.001420828 0.001882527
v 0.00111121 0.001304559 0.002163314
v 0.001141554 0.001184866 0.002160352
v 0.001072505 0.001181789 0.002164917
v 0.00111121 0.001304559 0.002163314
v 0.001143275 0.001083601 0.002143952
v 0.001071128 0.001071174 0.002109961
v 0.001107201 0.001066885 0.001882527
v 0.001071128 0.001404113 0.002143952
v 0.001080308 0.001302848 0.001882527
v 0.001107201 0.001420828 0.001882527
v 0.00111121 0.001304559 0.002163314
v 0.001082604 0.001184866 0.001882527
v 0.001072505 0.001181789 0.002164917
v 0.001107201 0.001066885 0.001882527
v 0.001071128 0.001071174 0.002109961
v 0.001134094 0.001302848 0.001882527
v 0.001143275 0.00141654 0.002109961
v 0.001107201 0.001420828 0.001882527
v 0.00111121 0.001304559 0.002163314
v 0.001131799 0.001184866 0.001882527
v 0.001141554 0.001184866 0.002160352
v 0.001107201 0.001066885 0.001882527
v 0.001143275 0.001083601 0.002143952
vt 0.2539913 0.6409661
vt 0.2528129 0.6404155
vt 0.2534021 0.6446642
vt 0.2534638 0.6388531
vt 0.2539632 0.6368979
vt 0.2528392 0.6368474
vt 0.2534638 0.6388531
vt 0.2539913 0.6353072
vt 0.2528129 0.6347566
vt 0.2534021 0.6310585
vt 0.2995456 0.5450946
vt 0.3035664 0.546611
vt 0.3035664 0.5445341
vt 0.2990287 0.5465173
vt 0.3035664 0.5486505
vt 0.2990287 0.548862
vt 0.3035664 0.5507649
vt 0.2999046 0.5505909
vt 0.4499595 0.4946661
vt 0.4518625 0.498328
vt 0.4520364 0.4946661
vt 0.4501077 0.4992038
vt 0.44792 0.4946661
vt 0.4477607 0.4992038
vt 0.4458055 0.4946661
vt 0.4463663 0.4986869
vn 0.6685508 0.6816691 0.297266
vn 0.188516 0.7231087 0.6645114
vn -0.1501414 0.9877532 0.04244093
vn 0.971772 0.1212101 0.2024041
vn 0.06961511 -0.08816522 0.9936702
vn -0.7029634 -0.07901041 0.7068237
vn 0.06630198 -0.007876513 0.9977685
vn -0.09261724 -0.6834707 0.7240785
vn -0.626862 -0.7297239 0.2730328
vn 0.1501436 -0.9877529 0.04244034
vn -0.9980434 -0.06150977 -0.01122286
vn -0.9988773 0.04550697 0.01315931
vn -0.9980434 -0.06150977 -0.01122286
vn -0.9985857 0.05116476 0.01444742
vn -0.9990034 0.03599921 -0.02638761
vn -0.7029634 -0.07901041 0.7068237
vn -0.9928063 -0.0792786 -0.08972604
vn -0.626862 -0.7297239 0.2730328
vn 0.9989871 0.04497687 -0.00132853
vn 0.6685508 0.6816691 0.297266
vn 0.9992529 -0.02852601 -0.02607634
vn 0.971772 0.1212101 0.2024041
vn 0.9995196 0.009535248 -0.02948943
vn 0.9995245 0.01611189 -0.02628912
vn 0.991919 -0.09741938 -0.08127861
vn 0.991919 -0.09741938 -0.08127861
g LMG_ChamberIndicator_Mesh_LOD2_0
f 3/3/3 2/2/2 1/1/1
f 4/4/4 1/1/1 2/2/2
f 7/7/7 6/6/6 5/5/5
f 5/5/5 6/6/6 8/8/8
f 6/6/6 9/9/9 8/8/8
f 8/8/8 9/9/9 10/10/10
f 13/13/13 12/12/12 11/11/11
f 12/12/12 14/14/14 11/11/11
f 12/12/12 15/15/15 14/14/14
f 15/15/15 16/16/16 14/14/14
f 15/15/15 17/17/17 16/16/16
f 17/17/17 18/18/18 16/16/16
f 21/21/21 20/20/20 19/19/19
f 20/20/20 22/22/22 19/19/19
f 19/19/19 22/22/22 23/23/23
f 22/22/22 24/24/24 23/23/23
f 23/23/23 24/24/24 25/25/25
f 24/24/24 26/26/26 25/25/25
