g LMG_FrontSightDown_Mesh_LOD2
v 0.01584162 -0.0003618033 0.0009823546
v 0.01570924 -0.0003603809 0.001012575
v 0.01576533 -0.0002997914 0.0009879911
v 0.01575636 -0.0003578978 0.001176233
v 0.01584162 -0.0003618033 0.0009823546
v 0.01581214 -0.0003005411 0.001162823
v 0.01642841 -0.0003662879 0.001119401
v 0.01664014 -0.0002788925 0.001164056
v 0.01634707 -0.0002788924 0.001203644
v 0.01615565 -0.0003086489 0.001161913
v 0.01612625 -0.0003067386 0.001276953
v 0.01623267 -0.0002996625 0.001239735
v 0.01573046 0.0003619865 0.0009825398
v 0.01585718 0.000323712 0.001033272
v 0.01572903 0.0003000871 0.001015691
v 0.01585718 0.000323712 0.001033272
v 0.01578856 0.0003012874 0.001164036
v 0.01572903 0.0003000871 0.001015691
v 0.01585921 0.0003595954 0.001148205
v 0.01578856 0.0003012874 0.001164036
v 0.01585718 0.000323712 0.001033272
v 0.01530476 0.0003129355 0.001289453
v 0.01525693 0.0002981882 0.00118451
v 0.01534431 0.0003034433 0.001175829
v 0.01538015 3.280461E-05 0.001156798
v 0.01538139 -3.093948E-13 0.001312994
v 0.0151603 3.659053E-11 0.00121981
v 0.01581214 -0.0003005411 0.001162823
v 0.01584162 -0.0003618033 0.0009823546
v 0.01576533 -0.0002997914 0.0009879911
v 0.01664014 -0.0002788925 0.001164056
v 0.01642841 -0.0003662879 0.001119401
v 0.01663948 -0.0003670855 0.001187518
v 0.01572535 0.0003596405 0.001155108
v 0.01578856 0.0003012874 0.001164036
v 0.01585921 0.0003595954 0.001148205
v 0.0151603 3.659053E-11 0.00121981
v 0.01538015 -3.280457E-05 0.001156798
v 0.01538015 3.280461E-05 0.001156798
v 0.01538015 -3.280457E-05 0.001156798
v 0.0151603 3.659053E-11 0.00121981
v 0.01538139 -3.093948E-13 0.001312994
v 0.01570924 -0.0003603809 0.001012575
v 0.01575636 -0.0003578978 0.001176233
v 0.01576533 -0.0002997914 0.0009879911
v 0.01581214 -0.0003005411 0.001162823
v 0.01642841 -0.0003662879 0.001119401
v 0.01637116 -0.0003662274 0.001298656
v 0.01663948 -0.0003670855 0.001187518
v 0.0165384 -0.000366288 0.00138493
v 0.01572903 0.0003000871 0.001015691
v 0.01578856 0.0003012874 0.001164036
v 0.01572535 0.0003596405 0.001155108
v 0.01573046 0.0003619865 0.0009825398
v 0.01646506 0.0003662934 0.001384879
v 0.01653853 0.0003671176 0.001104252
v 0.01664213 0.0003662934 0.001281285
v 0.01636147 0.0003662935 0.001207806
v 0.01506141 0.0002545748 0.001584969
v 0.01488032 0.0004714132 0.001028074
v 0.01487618 0.0004875892 0.001372866
v 0.01514644 0.0001967408 0.0008567044
v 0.01536726 0.0001782898 0.001575375
v 0.01537318 0.0001714187 0.0008686223
v 0.01536938 -0.0001772882 0.001575375
v 0.01536714 -0.000175044 0.0008686223
v 0.01514675 -0.0001967855 0.0008566864
v 0.01506138 -0.0002545471 0.001584972
v 0.01488032 -0.0004714128 0.001028073
v 0.01487618 -0.0004875885 0.001372867
v 0.01516161 0.0002908301 0.00158859
v 0.01487618 0.0004875892 0.001372866
v 0.01488032 0.0004714132 0.001028074
v 0.01513137 0.0003148127 0.0008621098
v 0.01644547 0.0002964762 0.0008765965
v 0.01642509 0.0002997214 0.001575375
v 0.01726959 0.0002943359 0.0009445202
v 0.01732654 0.0002943359 0.001510622
v 0.01726959 0.0002943359 0.0009445202
v 0.01644447 0.0002775403 0.001575375
v 0.01732654 0.0002943359 0.001510622
v 0.01644547 0.0002964762 0.0008765965
v 0.01732654 0.0002943359 0.001510622
v 0.01644447 0.0002775403 0.001575375
v 0.01642509 0.0002997214 0.001575375
v 0.01644447 -0.0002775402 0.001575375
v 0.01642509 -0.0002997214 0.001575375
v 0.01732654 -0.0002943358 0.001510622
v 0.01536938 -0.0001772882 0.001575375
v 0.01516452 -0.0002903441 0.001589068
v 0.01506138 -0.0002545471 0.001584972
v 0.01487618 -0.0004875885 0.001372867
v 0.01536726 0.0001782898 0.001575375
v 0.01516161 0.0002908301 0.00158859
v 0.01506141 0.0002545748 0.001584969
v 0.01487618 0.0004875892 0.001372866
v 0.01512998 -0.0003160046 0.0008624622
v 0.01488032 -0.0004714128 0.001028073
v 0.01487618 -0.0004875885 0.001372867
v 0.01516452 -0.0002903441 0.001589068
v 0.01644499 -0.000296443 0.000876177
v 0.01642509 -0.0002997214 0.001575375
v 0.01726959 -0.0002943358 0.0009445202
v 0.01732654 -0.0002943358 0.001510622
v 0.01732654 -0.0002943358 0.001510622
v 0.01644447 -0.0002775402 0.001575375
v 0.01726959 -0.0002943358 0.0009445202
v 0.01644499 -0.000296443 0.000876177
v 0.01664014 -0.0002788925 0.001164056
v 0.01663948 -0.0003670855 0.001187518
v 0.0165384 -0.000366288 0.00138493
v 0.01652236 -0.0002790593 0.001390379
v 0.01652236 -0.0002790593 0.001390379
v 0.0165384 -0.000366288 0.00138493
v 0.01637116 -0.0003662274 0.001298656
v 0.01634707 -0.0002788924 0.001203644
v 0.01642841 -0.0003662879 0.001119401
v 0.01598193 0.0002790399 0.001037414
v 0.01598188 0.0002888311 0.001149355
v 0.01591569 0.0002971642 0.0008936158
v 0.01585921 0.0003595954 0.001148205
v 0.01589851 0.0002790393 0.001238797
v 0.01578869 0.0002851711 0.001277344
v 0.01585718 0.000323712 0.001033272
v 0.01572535 0.0003596405 0.001155108
v 0.01567888 0.0002790399 0.001238798
v 0.0155871 0.0002850203 0.00111491
v 0.01573046 0.0003619865 0.0009825398
v 0.01575077 0.0002790397 0.0008821122
v 0.01562524 0.0002790397 0.0009655266
v 0.01514644 0.0001967408 0.0008567044
v 0.01513137 0.0003148127 0.0008621098
v 0.01488032 0.0004714132 0.001028074
v 0.01537318 0.0001714187 0.0008686223
v 0.01644547 0.0002964762 0.0008765965
v 0.01644499 -0.000296443 0.000876177
v 0.01536714 -0.000175044 0.0008686223
v 0.01512998 -0.0003160046 0.0008624622
v 0.01514675 -0.0001967855 0.0008566864
v 0.01488032 -0.0004714128 0.001028073
v 0.01539245 8.814999E-05 0.001109206
v 0.01539255 8.814999E-05 0.001365111
v 0.01539245 -8.814994E-05 0.001365111
v 0.01539255 -8.814994E-05 0.001109206
v 0.01644447 0.0002775403 0.001575375
v 0.01644547 0.0002964762 0.0008765965
v 0.01644499 -0.000296443 0.000876177
v 0.01644447 -0.0002775402 0.001575375
v 0.01575077 -0.0002790398 0.0008821119
v 0.01562524 -0.00027904 0.0009655259
v 0.01570924 -0.0003603809 0.001012575
v 0.0155871 -0.0002850202 0.00111491
v 0.01584162 -0.0003618033 0.0009823546
v 0.01575636 -0.0003578978 0.001176233
v 0.01564586 -0.000285171 0.00121818
v 0.01575077 -0.0002790399 0.001268575
v 0.01590327 -0.0002850199 0.0009048191
v 0.01592622 -0.0002732845 0.001212867
v 0.01593365 -0.000346967 0.001135387
v 0.01598193 -0.0002790398 0.001037414
v 0.01609759 -0.0002618802 0.001151917
v 0.01615565 -0.0003086489 0.001161913
v 0.0162151 -0.0002659937 0.001123368
v 0.01628157 -0.0002680389 0.001205203
v 0.01612625 -0.0003067386 0.001276953
v 0.01623267 -0.0002996625 0.001239735
v 0.01626473 -0.0002680384 0.001288735
v 0.01619376 -0.0002680383 0.001335896
v 0.01606732 -0.0002650069 0.001247255
v 0.01611023 -0.0002680384 0.001319062
v 0.01539974 0.0002680385 0.001288733
v 0.01530476 0.0003129355 0.001289453
v 0.01541249 0.0002671244 0.001184218
v 0.01532877 0.0002680387 0.001335897
v 0.01524524 0.000268039 0.001319062
v 0.0151944 0.0002667871 0.001226646
v 0.01534431 0.0003034433 0.001175829
v 0.01533177 0.0002696478 0.001115651
v 0.01525693 0.0002981882 0.00118451
v 0.01524765 0.000265008 0.001137826
v 0.01648131 0.0002790608 0.001098693
v 0.01664766 0.0002790608 0.001224058
v 0.01653853 0.0003671176 0.001104252
v 0.01636147 0.0003662935 0.001207806
v 0.01664213 0.0003662934 0.001281285
v 0.01635595 0.0002790608 0.001265034
v 0.01652229 0.0002790608 0.001390398
v 0.01646506 0.0003662934 0.001384879
vt 0.5579008 0.6840613
vt 0.5577499 0.6861455
vt 0.5586179 0.685718
vt 0.5577769 0.6887712
vt 0.557942 0.6908778
vt 0.5586591 0.6894608
vt 0.1664336 0.03179387
vt 0.1668655 0.02874433
vt 0.1667651 0.033648
vt 0.2278213 0.02448945
vt 0.2268223 0.02501111
vt 0.2279348 0.02563175
vt 0.5810194 0.7014617
vt 0.5816275 0.703199
vt 0.5818369 0.7010365
vt 0.2050668 0.02400888
vt 0.2062953 0.02524439
vt 0.2066549 0.02353244
vt 0.5811277 0.697183
vt 0.5818852 0.6982431
vt 0.5820529 0.6963493
vt 0.2242198 0.02570688
vt 0.2246775 0.0247595
vt 0.2235104 0.02465217
vt 0.6317305 0.6702725
vt 0.6343475 0.6704786
vt 0.633039 0.6667856
vt 0.5587968 0.6835306
vt 0.5579008 0.6840613
vt 0.5586179 0.685718
vt 0.1668655 0.02874433
vt 0.1664336 0.03179387
vt 0.1674656 0.02976755
vt 0.5809956 0.6992863
vt 0.5818852 0.6982431
vt 0.5811277 0.697183
vt 0.4387637 0.5156032
vt 0.438228 0.5191855
vt 0.4392995 0.5191855
vt 0.6254576 0.6897443
vt 0.6267661 0.6932312
vt 0.6280746 0.6895382
vt 0.5577499 0.6861455
vt 0.5577769 0.6887712
vt 0.5586179 0.685718
vt 0.5586591 0.6894608
vt 0.1770245 0.01176649
vt 0.1766123 0.01438617
vt 0.1799112 0.01221933
vt 0.1792028 0.01503099
vt 0.5818369 0.7010365
vt 0.5818852 0.6982431
vt 0.5809956 0.6992863
vt 0.5810194 0.7014617
vt 0.2719986 0.01191015
vt 0.2702538 0.008356287
vt 0.2693489 0.01100576
vt 0.2729031 0.009260328
vt 0.4599138 0.5072067
vt 0.4684231 0.5031217
vt 0.4631387 0.5026578
vt 0.471231 0.5089013
vt 0.4596875 0.5125335
vt 0.4712315 0.5126811
vt 0.4596876 0.5184003
vt 0.4712315 0.5184003
vt 0.4712312 0.5220699
vt 0.4599139 0.5237687
vt 0.4684233 0.5278479
vt 0.4631389 0.5283118
vt 0.3686097 0.4895524
vt 0.3652621 0.4842295
vt 0.3602152 0.4843976
vt 0.357321 0.4889607
vt 0.3572552 0.5107179
vt 0.368701 0.5102512
vt 0.3585908 0.5240068
vt 0.3676434 0.5252075
vt 0.2657703 0.3614867
vt 0.2791338 0.351377
vt 0.2646214 0.3524345
vt 0.2789861 0.3628222
vt 0.4987171 0.5693494
vt 0.4871584 0.5691346
vt 0.4869055 0.56936
vt 0.4871585 0.5620339
vt 0.4869056 0.5618084
vt 0.4987171 0.561819
vt 0.4733099 0.563412
vt 0.4708624 0.5617837
vt 0.4695111 0.5621893
vt 0.4664553 0.5587144
vt 0.47329 0.5677763
vt 0.4708189 0.5694206
vt 0.4695144 0.5689762
vt 0.4664552 0.5724539
vt 0.3573268 0.5635717
vt 0.3602152 0.5682116
vt 0.3652622 0.5683798
vt 0.3686214 0.5629869
vt 0.357235 0.5419066
vt 0.368701 0.5423582
vt 0.3585908 0.5286024
vt 0.3676433 0.5274017
vt 0.3027123 0.3524345
vt 0.2882001 0.351377
vt 0.3015635 0.3614867
vt 0.2883174 0.3628424
vt 0.1668655 0.02874433
vt 0.1674656 0.02976755
vt 0.1693649 0.03104865
vt 0.1708784 0.03126552
vt 0.1708784 0.03126552
vt 0.1693649 0.03104865
vt 0.1682178 0.03281948
vt 0.1667651 0.033648
vt 0.1664336 0.03179387
vt 0.2123297 0.03481467
vt 0.214351 0.03503771
vt 0.210409 0.032906
vt 0.2143564 0.03260781
vt 0.2161787 0.0340346
vt 0.2172147 0.03222215
vt 0.2128517 0.03234242
vt 0.2149028 0.03080374
vt 0.2169362 0.03015325
vt 0.2150258 0.02827552
vt 0.2126672 0.03060479
vt 0.210383 0.03019221
vt 0.2122909 0.02826115
vt 0.9545007 0.04784729
vt 0.9546851 0.04983915
vt 0.9594373 0.05281283
vt 0.9509444 0.04727272
vt 0.933409 0.04945586
vt 0.9333938 0.03968842
vt 0.9510233 0.04180469
vt 0.9546187 0.03937723
vt 0.9545019 0.0413083
vt 0.9594373 0.03634361
vt 0.5178323 0.6960358
vt 0.5178323 0.7008797
vt 0.5207118 0.7008781
vt 0.5207118 0.6960342
vt 0.2791338 0.351377
vt 0.2789861 0.3628222
vt 0.2883174 0.3628424
vt 0.2882001 0.351377
vt 0.2964728 0.009479567
vt 0.2945649 0.007548383
vt 0.2939032 0.00954859
vt 0.2918299 0.007562759
vt 0.2944458 0.01110257
vt 0.2920497 0.01064878
vt 0.2901904 0.008798592
vt 0.2896416 0.0108128
vt 0.2964495 0.01215795
vt 0.2912657 0.01366409
vt 0.2928255 0.01290083
vt 0.2945261 0.01410194
vt 0.2921207 0.01905197
vt 0.2929744 0.01794867
vt 0.2921135 0.01698218
vt 0.2936559 0.01607664
vt 0.2941544 0.01851314
vt 0.293924 0.01729292
vt 0.2950269 0.01662555
vt 0.2956076 0.01798418
vt 0.2936805 0.01994496
vt 0.2950567 0.01935483
vt 0.6705767 0.3264589
vt 0.6692452 0.3254713
vt 0.6691883 0.3275451
vt 0.6705813 0.3249813
vt 0.6695393 0.3239343
vt 0.6677548 0.3241615
vt 0.6685514 0.3264267
vt 0.6674542 0.3270921
vt 0.6679424 0.3255844
vt 0.6668596 0.325718
vt 0.1630752 0.01041106
vt 0.1660753 0.01342985
vt 0.1646619 0.01100626
vt 0.1654684 0.008935278
vt 0.1666607 0.01181896
vt 0.1660166 0.007332355
vt 0.1691118 0.01033202
vt 0.1674842 0.009743607
vn 0.2206251 0.1843711 0.9577745
vn 0.2206251 0.1843711 0.9577745
vn 0.2206251 0.1843711 0.9577745
vn -0.7146022 0.6185515 -0.3267074
vn -0.7146022 0.6185515 -0.3267074
vn -0.7146022 0.6185515 -0.3267074
vn -0.3115466 -0.4235438 -0.8506171
vn 0.2022141 0.01047808 -0.9792853
vn -0.1029719 0.6389702 -0.7623083
vn -0.1467451 -0.8839771 -0.4439035
vn -0.2831482 -0.9228071 0.2612548
vn 0.3454907 -0.9354664 0.07442295
vn -0.3212831 0.9401754 -0.1133467
vn -0.1598652 0.9840209 -0.07839593
vn 0.5362685 0.7288553 0.4256596
vn -0.1598652 0.9840209 -0.07839593
vn 0.01323487 0.9804763 -0.1961917
vn 0.5362685 0.7288553 0.4256596
vn 0.04324955 0.9796231 0.1961326
vn 0.01323487 0.9804763 -0.1961917
vn -0.1598652 0.9840209 -0.07839593
vn -0.01178517 0.9431961 0.3320273
vn -0.3413938 0.9008245 -0.2682634
vn 0.2397172 0.9342546 -0.2640151
vn -0.08658116 0.9748362 0.2054218
vn -0.08658116 0.9748362 0.2054218
vn -0.08658116 0.9748362 0.2054218
vn -0.6152595 -0.7716234 0.1614094
vn -0.6152595 -0.7716234 0.1614094
vn -0.6152595 -0.7716234 0.1614094
vn 0.2022141 0.01047808 -0.9792853
vn -0.3115466 -0.4235438 -0.8506171
vn 0.1917815 -0.7761723 -0.6006467
vn -0.05048504 -0.2042489 -0.9776163
vn -0.05048504 -0.2042489 -0.9776163
vn -0.05048504 -0.2042489 -0.9776163
vn -0.2755154 0 -0.9612966
vn -0.2755154 0 -0.9612966
vn -0.2755154 0 -0.9612966
vn -0.08658135 -0.9748362 0.2054216
vn -0.08658135 -0.9748362 0.2054216
vn -0.08658135 -0.9748362 0.2054216
vn -0.1165374 -0.9417153 -0.3155809
vn 0.1001529 -0.9456766 0.309298
vn 0.6823651 -0.7070227 -0.1857336
vn 0.6824088 -0.7069821 -0.1857275
vn -0.3115466 -0.4235438 -0.8506171
vn -0.679755 -0.5696889 0.461939
vn 0.1917815 -0.7761723 -0.6006467
vn -0.001935186 -0.9999936 0.003049472
vn 0.5362685 0.7288553 0.4256596
vn 0.01323487 0.9804763 -0.1961917
vn 0.7986076 0.5607873 -0.2185027
vn 0.9995371 -0.007409157 0.02950711
vn -0.2649473 0.5637847 0.7822722
vn 0.2636378 0.5671533 -0.780277
vn 0.7823064 0.5633008 0.2658735
vn -0.7828275 0.5633222 -0.2642899
vn -0.5469685 -0.386579 0.742551
vn -0.7652203 -0.6348239 -0.1069409
vn -0.7910935 -0.6113943 0.01918202
vn -0.3722697 -0.6527079 -0.6598391
vn -0.3602759 -0.3518888 0.8639302
vn -0.7410849 -0.6713982 0.004190824
vn -0.3598762 0.3539003 0.863275
vn -0.7289506 0.684566 0.0006459109
vn -0.3679753 0.6549517 -0.6600246
vn -0.5474816 0.3837914 0.7436182
vn -0.7649181 0.6351603 -0.1071056
vn -0.7911519 0.611319 0.01917363
vn 0.07389122 0.5945659 0.8006443
vn 0.5333412 0.8435004 0.06367324
vn 0.5461335 0.8376877 -0.004191501
vn 0.2359994 0.9716879 0.01126057
vn 0.003318747 0.9999815 0.005091302
vn 0.003877845 0.9999735 0.00615077
vn 0.004709879 0.9999864 -0.002231922
vn 0.005931313 0.9999822 -0.0005968323
vn 0.010824 -0.9998637 -0.01246299
vn 0.007098225 -0.9998246 -0.01733498
vn 0.01889821 -0.9998197 -0.001901357
vn -0.0003633879 -0.999633 -0.0270891
vn 0.07187901 0.06281789 0.9954332
vn 0.03478217 0.0304019 0.9989324
vn 0.01985755 0.01366687 0.9997093
vn 0.03478749 -0.03040685 0.9989321
vn 0.01986834 -0.01352165 0.9997111
vn 0.07187881 -0.0628273 0.9954326
vn -0.3598762 0.3539003 0.863275
vn 0.0766065 -0.5902773 0.8035572
vn -0.5474816 0.3837914 0.7436182
vn 0.4998794 -0.8615894 0.08822723
vn -0.3602759 -0.3518888 0.8639302
vn 0.07389122 0.5945659 0.8006443
vn -0.5469685 -0.386579 0.742551
vn 0.5333412 0.8435004 0.06367324
vn 0.2409758 -0.9705268 0.002943544
vn 0.5117398 -0.8584625 -0.0341258
vn 0.4998794 -0.8615894 0.08822723
vn 0.0766065 -0.5902773 0.8035572
vn 0.003451452 -0.9999782 0.005644524
vn 0.004022373 -0.9999694 0.006725363
vn 0.004694731 -0.9999865 -0.0022522
vn 0.005931319 -0.9999822 -0.00059674
vn 0.01889819 0.9998197 -0.001901358
vn 0.007124699 0.9998249 -0.01730029
vn 0.01084155 0.9998639 -0.01243998
vn -0.0003145646 0.9996347 -0.0270252
vn 0.881694 0.1240776 0.4552148
vn 0.881694 0.1240776 0.4552148
vn 0.881694 0.1240776 0.4552148
vn 0.881694 0.1240776 0.4552148
vn -0.6034263 0.2498125 0.7572782
vn -0.6034263 0.2498125 0.7572782
vn -0.679755 -0.5696889 0.461939
vn -0.9444569 -0.296414 0.1419152
vn -0.3115466 -0.4235438 -0.8506171
vn 0.418938 0.9045751 -0.07896123
vn 0.48561 0.8641298 0.1321459
vn 0.2322843 0.933907 -0.271775
vn 0.04324955 0.9796231 0.1961326
vn 0.3324305 0.7717803 0.5420748
vn 0.004477786 0.8171901 0.5763509
vn -0.1598652 0.9840209 -0.07839593
vn -0.3301993 0.8680538 0.370744
vn -0.3825036 0.762446 0.5218879
vn -0.5420749 0.8354268 0.09064688
vn -0.3212831 0.9401754 -0.1133467
vn -0.1869707 0.7385306 -0.6477765
vn -0.5417724 0.7606412 -0.3576415
vn -0.3722697 -0.6527079 -0.6598391
vn -0.3511772 -0.02903131 -0.9358588
vn -0.7652203 -0.6348239 -0.1069409
vn 0.0131619 -0.01079162 -0.9998552
vn 0.007995069 -0.00106061 -0.9999675
vn 0.007945595 0.001672621 -0.9999671
vn 0.01298345 0.01055011 -0.99986
vn -0.3559441 0.03241681 -0.9339448
vn -0.3679753 0.6549517 -0.6600246
vn -0.7649181 0.6351603 -0.1071056
vn -1 0 0
vn -1 0 0
vn -1 0 0
vn -1 0 0
vn 0.9999994 -0.0004202514 0.001077836
vn 0.9999994 -0.0004202514 0.001077836
vn 0.9999994 -0.0004202514 0.001077836
vn 0.9999994 -0.0004202514 0.001077836
vn -0.1503438 -0.7774313 -0.6107351
vn -0.4666915 -0.797035 -0.38332
vn -0.1165374 -0.9417153 -0.3155809
vn -0.5123646 -0.8552755 0.07737216
vn 0.2032785 -0.8891584 -0.4099698
vn 0.1001529 -0.9456766 0.309298
vn -0.3931483 -0.8279886 0.3998364
vn -0.01333915 -0.7514998 0.6595984
vn 0.3510672 -0.7956941 -0.4935815
vn 0.4659581 -0.635289 0.6158659
vn 0.5852889 -0.767969 0.2601161
vn 0.6791199 -0.715979 -0.1617716
vn -0.5040663 -0.761804 -0.4069051
vn -0.1467451 -0.8839771 -0.4439035
vn 0.2368031 -0.8120556 -0.5333759
vn 0.4752679 -0.8666998 -0.1514985
vn -0.2831482 -0.9228071 0.2612548
vn 0.3454907 -0.9354664 0.07442295
vn 0.3929922 -0.8681554 0.3030897
vn 0.1289998 -0.8778358 0.4612627
vn -0.5704956 -0.8210158 -0.02162815
vn -0.3738647 -0.749377 0.5464974
vn 0.4200965 0.8855497 0.1982942
vn -0.01178517 0.9431961 0.3320273
vn 0.4658156 0.8768801 -0.1187312
vn 0.154281 0.7490243 0.6443291
vn -0.3903293 0.8082438 0.4408911
vn -0.506025 0.8625154 0.002414388
vn 0.2397172 0.9342546 -0.2640151
vn 0.0731748 0.8488368 -0.5235661
vn -0.3413938 0.9008245 -0.2682634
vn -0.3486604 0.7952858 -0.4959399
vn -0.2043683 0.006224741 -0.9788743
vn 0.97872 0.006339779 -0.2051023
vn 0.2636378 0.5671533 -0.780277
vn -0.7828275 0.5633222 -0.2642899
vn 0.7823064 0.5633008 0.2658735
vn -0.978694 0.007105624 0.2052014
vn 0.2052042 0.007094074 0.9786935
vn -0.2649473 0.5637847 0.7822722
g LMG_FrontSightDown_Mesh_LOD2_0
f 3/3/3 2/2/2 1/1/1
f 6/6/6 5/5/5 4/4/4
f 9/9/9 8/8/8 7/7/7
f 12/12/12 11/11/11 10/10/10
f 15/15/15 14/14/14 13/13/13
f 18/18/18 17/17/17 16/16/16
f 21/21/21 20/20/20 19/19/19
f 24/24/24 23/23/23 22/22/22
f 27/27/27 26/26/26 25/25/25
f 30/30/30 29/29/29 28/28/28
f 33/33/33 32/32/32 31/31/31
f 36/36/36 35/35/35 34/34/34
f 39/39/39 38/38/38 37/37/37
f 42/42/42 41/41/41 40/40/40
f 45/45/45 44/44/44 43/43/43
f 46/46/46 44/44/44 45/45/45
f 49/49/49 48/48/48 47/47/47
f 49/49/49 50/50/50 48/48/48
f 53/53/53 52/52/52 51/51/51
f 53/53/53 51/51/51 54/54/54
f 57/57/57 56/56/56 55/55/55
f 55/55/55 56/56/56 58/58/58
f 61/61/61 60/60/60 59/59/59
f 59/59/59 60/60/60 62/62/62
f 59/59/59 62/62/62 63/63/63
f 62/62/62 64/64/64 63/63/63
f 65/65/65 63/63/63 64/64/64
f 66/66/66 65/65/65 64/64/64
f 65/65/65 66/66/66 67/67/67
f 68/68/68 65/65/65 67/67/67
f 69/69/69 68/68/68 67/67/67
f 69/69/69 70/70/70 68/68/68
f 73/73/73 72/72/72 71/71/71
f 74/74/74 73/73/73 71/71/71
f 75/75/75 74/74/74 71/71/71
f 76/76/76 75/75/75 71/71/71
f 77/77/77 75/75/75 76/76/76
f 77/77/77 76/76/76 78/78/78
f 81/81/81 80/80/80 79/79/79
f 79/79/79 80/80/80 82/82/82
f 85/85/85 84/84/84 83/83/83
f 84/84/84 85/85/85 86/86/86
f 85/85/85 87/87/87 86/86/86
f 88/88/88 86/86/86 87/87/87
f 87/87/87 85/85/85 89/89/89
f 87/87/87 89/89/89 90/90/90
f 89/89/89 91/91/91 90/90/90
f 92/92/92 90/90/90 91/91/91
f 85/85/85 93/93/93 89/89/89
f 93/93/93 85/85/85 94/94/94
f 95/95/95 93/93/93 94/94/94
f 94/94/94 96/96/96 95/95/95
f 99/99/99 98/98/98 97/97/97
f 100/100/100 99/99/99 97/97/97
f 100/100/100 97/97/97 101/101/101
f 102/102/102 100/100/100 101/101/101
f 103/103/103 102/102/102 101/101/101
f 102/102/102 103/103/103 104/104/104
f 107/107/107 106/106/106 105/105/105
f 107/107/107 108/108/108 106/106/106
f 111/111/111 110/110/110 109/109/109
f 112/112/112 111/111/111 109/109/109
f 115/115/115 114/114/114 113/113/113
f 116/116/116 115/115/115 113/113/113
f 117/117/117 115/115/115 116/116/116
f 120/120/120 119/119/119 118/118/118
f 119/119/119 120/120/120 121/121/121
f 122/122/122 119/119/119 121/121/121
f 121/121/121 123/123/123 122/122/122
f 124/124/124 121/121/121 120/120/120
f 123/123/123 121/121/121 125/125/125
f 123/123/123 125/125/125 126/126/126
f 126/126/126 125/125/125 127/127/127
f 128/128/128 124/124/124 120/120/120
f 127/127/127 125/125/125 128/128/128
f 120/120/120 129/129/129 128/128/128
f 127/127/127 128/128/128 130/130/130
f 129/129/129 130/130/130 128/128/128
f 133/133/133 132/132/132 131/131/131
f 134/134/134 131/131/131 132/132/132
f 135/135/135 134/134/134 132/132/132
f 134/134/134 135/135/135 136/136/136
f 137/137/137 134/134/134 136/136/136
f 136/136/136 138/138/138 137/137/137
f 138/138/138 139/139/139 137/137/137
f 140/140/140 139/139/139 138/138/138
f 143/143/143 142/142/142 141/141/141
f 144/144/144 143/143/143 141/141/141
f 147/147/147 146/146/146 145/145/145
f 148/148/148 147/147/147 145/145/145
f 151/151/151 150/150/150 149/149/149
f 151/151/151 152/152/152 150/150/150
f 153/153/153 151/151/151 149/149/149
f 154/154/154 152/152/152 151/151/151
f 154/154/154 155/155/155 152/152/152
f 154/154/154 156/156/156 155/155/155
f 153/153/153 149/149/149 157/157/157
f 156/156/156 154/154/154 158/158/158
f 153/153/153 157/157/157 159/159/159
f 153/153/153 159/159/159 154/154/154
f 154/154/154 159/159/159 158/158/158
f 159/159/159 157/157/157 160/160/160
f 159/159/159 160/160/160 158/158/158
f 163/163/163 162/162/162 161/161/161
f 162/162/162 163/163/163 164/164/164
f 162/162/162 165/165/165 161/161/161
f 166/166/166 162/162/162 164/164/164
f 166/166/166 164/164/164 167/167/167
f 166/166/166 167/167/167 168/168/168
f 165/165/165 166/166/166 168/168/168
f 165/165/165 169/169/169 161/161/161
f 165/165/165 168/168/168 170/170/170
f 165/165/165 170/170/170 169/169/169
f 173/173/173 172/172/172 171/171/171
f 171/171/171 172/172/172 174/174/174
f 174/174/174 172/172/172 175/175/175
f 175/175/175 172/172/172 176/176/176
f 172/172/172 173/173/173 177/177/177
f 178/178/178 177/177/177 173/173/173
f 176/176/176 172/172/172 179/179/179
f 178/178/178 179/179/179 177/177/177
f 180/180/180 176/176/176 179/179/179
f 180/180/180 179/179/179 178/178/178
f 183/183/183 182/182/182 181/181/181
f 184/184/184 183/183/183 181/181/181
f 183/183/183 185/185/185 182/182/182
f 184/184/184 181/181/181 186/186/186
f 185/185/185 187/187/187 182/182/182
f 188/188/188 184/184/184 186/186/186
f 185/185/185 188/188/188 187/187/187
f 188/188/188 186/186/186 187/187/187
