g longbarrelvec_LOD2
v -0.0008453692 -0.1392969 0.01281111
v 0.0005531736 -0.07526672 0.01375158
v -0.002029784 -0.07526672 0.01261963
v 0.00108773 -0.1392969 0.01448698
v 0.001322848 -0.07526672 0.01605753
v 0.000811331 -0.1392969 0.01771645
v 0.0006434461 -0.07526672 0.01777325
v -0.001052114 -0.07526672 0.01894963
v -0.001659645 -0.1392969 0.01901725
v -0.003074851 -0.07526672 0.0187398
v -0.003823702 -0.1392969 0.01828937
v -0.004701345 -0.07526672 0.01722392
v -0.00502735 -0.1392969 0.01637521
v -0.004717702 -0.07526672 0.01436858
v -0.003740896 -0.1392969 0.01319435
v -0.002029784 -0.07526672 0.01261963
v -0.0008453692 -0.1392969 0.01281111
v -0.002655532 -0.07526672 0.0128106
v -0.001433621 -0.07526672 0.0127049
v -0.0002806777 -0.07526672 0.01312326
v -0.003410349 -0.07526672 0.01312326
v -0.004058526 -0.07526672 0.01362062
v 0.0003674984 -0.07526672 0.01362062
v -0.00455589 -0.07526672 0.0142688
v 0.0008648613 -0.07526672 0.0142688
v -0.004868546 -0.07526672 0.01502362
v 0.001177517 -0.07526672 0.01502362
v -0.004975187 -0.07526672 0.01583363
v 0.001284157 -0.07526672 0.01583363
v -0.004868547 -0.07526672 0.01664365
v 0.001177517 -0.07526672 0.01664365
v -0.004555892 -0.07526672 0.01739847
v 0.000864861 -0.07526672 0.01739847
v -0.004058529 -0.07526672 0.01804665
v 0.0003674978 -0.07526672 0.01804665
v -0.003410353 -0.07526672 0.01854401
v -0.0002806784 -0.07526672 0.01854401
v -0.002655536 -0.07526672 0.01885667
v -0.001035496 -0.07526672 0.01885667
v -0.001845515 -0.07526672 0.01896331
v -0.001035495 -0.1392969 0.0128106
v -0.001845514 -0.1392969 0.01270395
v -0.002655532 -0.1392969 0.0128106
v -0.0002806778 -0.1392969 0.01312325
v -0.003410349 -0.1392969 0.01312325
v 0.0003674982 -0.1392969 0.01362062
v -0.004058526 -0.1392969 0.01362062
v 0.000864861 -0.1392969 0.01426879
v -0.00455589 -0.1392969 0.01426879
v 0.001177517 -0.1392969 0.01502361
v -0.004868546 -0.1392969 0.01502361
v 0.001284157 -0.1392969 0.01583363
v -0.004975187 -0.1392969 0.01583363
v 0.001177517 -0.1392969 0.01664365
v -0.004868547 -0.1392969 0.01664364
v -0.004555892 -0.1392969 0.01739846
v 0.000864861 -0.1392969 0.01739846
v 0.0003674976 -0.1392969 0.01804664
v -0.004058529 -0.1392969 0.01804664
v -0.003410353 -0.1392969 0.018544
v -0.0002806784 -0.1392969 0.018544
v -0.001035496 -0.1392969 0.01885666
v -0.002655536 -0.1392969 0.01885666
v -0.001845515 -0.1392969 0.0189633
vt 0.000141749 0.006336802
vt 0.3979007 0.01673463
vt 0.3979008 0.002534326
vt 0.0001419964 0.02224826
vt 0.3979006 0.03196046
vt 0.0001421734 0.04253041
vt 0.3979006 0.04343005
vt 0.3979006 0.05625345
vt 0.00014224 0.05992036
vt 0.3979006 0.06880684
vt 0.0001422671 0.07419723
vt 0.3979006 0.0827136
vt 0.0001422247 0.08822551
vt 0.3979007 0.1006759
vt 0.0001420904 0.1099112
vt 0.3979008 0.1193557
vt 0.0001419362 0.121949
vt 0.06824912 0.9287807
vt 0.07258111 0.9349704
vt 0.07877091 0.9393025
vt 0.06693554 0.9238783
vt 0.06693554 0.918803
vt 0.0836733 0.9406161
vt 0.06824912 0.9139006
vt 0.08874864 0.9406161
vt 0.07078678 0.9095053
vt 0.093651 0.9393025
vt 0.07437556 0.9059165
vt 0.09804632 0.9367648
vt 0.07877091 0.9033788
vt 0.1016351 0.933176
vt 0.08367331 0.9020652
vt 0.1041728 0.9287807
vt 0.08874857 0.9020652
vt 0.1054864 0.9238783
vt 0.093651 0.9033788
vt 0.1054864 0.918803
vt 0.09804635 0.9059165
vt 0.1041728 0.9139007
vt 0.1016351 0.9095053
vt 0.7169417 0.9018462
vt 0.7125463 0.9043838
vt 0.7089575 0.9079726
vt 0.7218441 0.9005327
vt 0.7064198 0.9123679
vt 0.7269194 0.9005327
vt 0.7051062 0.9172703
vt 0.7318217 0.9018463
vt 0.7051062 0.9223456
vt 0.7362171 0.904384
vt 0.7064198 0.9272481
vt 0.7398059 0.9079728
vt 0.7089574 0.9316434
vt 0.7423435 0.9123682
vt 0.7125462 0.9352322
vt 0.7169415 0.9377699
vt 0.7436571 0.9172705
vt 0.7436571 0.9223459
vt 0.7218438 0.9390835
vt 0.7269191 0.9390835
vt 0.7423435 0.9272482
vt 0.7398058 0.9316435
vt 0.7318215 0.9377699
vt 0.736217 0.9352323
vn 0.2878852 -0.004547324 -0.9576541
vn 0.7385629 0.004791504 -0.6741676
vn -0.08105838 0.006439503 -0.9966885
vn 0.9262605 -0.004883087 -0.3768522
vn 0.9995996 0.003235049 0.0281083
vn 0.8328603 -0.005096653 0.5534599
vn 0.7831523 0.001495439 0.621828
vn 0.2493368 0.001403855 0.9684157
vn 0.07977631 -0.003418112 0.996807
vn -0.413712 0.002472018 0.9104045
vn -0.6186556 -0.002929847 0.7856568
vn -0.9155768 0.004181134 0.4021213
vn -0.9959436 -0.005432309 0.08981621
vn -0.8806861 0.0065921 -0.4736545
vn -0.6118526 -0.007049978 -0.7909403
vn -0.08105838 0.006439503 -0.9966885
vn 0.2878852 -0.004547324 -0.9576541
vn 0 1 0
vn 0 1 0
vn 0 1 0
vn 0 1 0
vn 0 1 0
vn 0 1 0
vn 0 1 0
vn 0 1 0
vn 0 1 0
vn 0 1 0
vn 0 1 0
vn 0 1 0
vn 0 1 0
vn 0 1 0
vn 0 1 0
vn 0 1 0
vn 0 1 0
vn 0 1 0
vn 0 1 0
vn 0 1 0
vn 0 1 0
vn 0 1 0
vn 0 1 0
vn 0 -1 0
vn 0 -1 0
vn 0 -1 0
vn 0 -1 0
vn 0 -1 0
vn 0 -1 0
vn 0 -1 0
vn 0 -1 0
vn 0 -1 0
vn 0 -1 0
vn 0 -1 0
vn 0 -1 0
vn 0 -1 0
vn 0 -1 0
vn 0 -1 0
vn 0 -1 0
vn 0 -1 0
vn 0 -1 0
vn 0 -1 0
vn 0 -1 0
vn 0 -1 0
vn 0 -1 0
vn 0 -1 0
vn 0 -1 0
g longbarrelvec_LOD2_0
f 3/3/3 2/2/2 1/1/1
f 1/1/1 2/2/2 4/4/4
f 2/2/2 5/5/5 4/4/4
f 4/4/4 5/5/5 6/6/6
f 5/5/5 7/7/7 6/6/6
f 7/7/7 8/8/8 6/6/6
f 6/6/6 8/8/8 9/9/9
f 8/8/8 10/10/10 9/9/9
f 9/9/9 10/10/10 11/11/11
f 10/10/10 12/12/12 11/11/11
f 11/11/11 12/12/12 13/13/13
f 12/12/12 14/14/14 13/13/13
f 13/13/13 14/14/14 15/15/15
f 14/14/14 16/16/16 15/15/15
f 17/17/17 15/15/15 16/16/16
f 20/20/20 19/19/19 18/18/18
f 18/18/18 21/21/21 20/20/20
f 21/21/21 22/22/22 20/20/20
f 22/22/22 23/23/23 20/20/20
f 22/22/22 24/24/24 23/23/23
f 24/24/24 25/25/25 23/23/23
f 24/24/24 26/26/26 25/25/25
f 26/26/26 27/27/27 25/25/25
f 26/26/26 28/28/28 27/27/27
f 28/28/28 29/29/29 27/27/27
f 28/28/28 30/30/30 29/29/29
f 30/30/30 31/31/31 29/29/29
f 30/30/30 32/32/32 31/31/31
f 32/32/32 33/33/33 31/31/31
f 32/32/32 34/34/34 33/33/33
f 34/34/34 35/35/35 33/33/33
f 34/34/34 36/36/36 35/35/35
f 36/36/36 37/37/37 35/35/35
f 36/36/36 38/38/38 37/37/37
f 38/38/38 39/39/39 37/37/37
f 38/38/38 40/40/40 39/39/39
f 43/43/43 42/42/42 41/41/41
f 41/41/41 44/44/44 43/43/43
f 44/44/44 45/45/45 43/43/43
f 44/44/44 46/46/46 45/45/45
f 46/46/46 47/47/47 45/45/45
f 46/46/46 48/48/48 47/47/47
f 48/48/48 49/49/49 47/47/47
f 48/48/48 50/50/50 49/49/49
f 50/50/50 51/51/51 49/49/49
f 50/50/50 52/52/52 51/51/51
f 52/52/52 53/53/53 51/51/51
f 52/52/52 54/54/54 53/53/53
f 54/54/54 55/55/55 53/53/53
f 54/54/54 56/56/56 55/55/55
f 54/54/54 57/57/57 56/56/56
f 57/57/57 58/58/58 56/56/56
f 58/58/58 59/59/59 56/56/56
f 58/58/58 60/60/60 59/59/59
f 58/58/58 61/61/61 60/60/60
f 61/61/61 62/62/62 60/60/60
f 62/62/62 63/63/63 60/60/60
f 62/62/62 64/64/64 63/63/63
