g longbarrelvec_LOD3
v 0.0006792028 -0.1392969 0.01348487
v 0.0005531736 -0.07526672 0.01375158
v -0.002029784 -0.07526672 0.01261963
v 0.001248077 -0.07526672 0.01694977
v 0.000811331 -0.1392969 0.01771645
v -0.001052114 -0.07526672 0.01894963
v -0.002732278 -0.1392969 0.01914308
v -0.004259067 -0.07526672 0.01818746
v -0.00502735 -0.1392969 0.01637521
v -0.004717702 -0.07526672 0.01436858
v -0.003740896 -0.1392969 0.01319435
v -0.002029784 -0.07526672 0.01261963
v 0.0006792028 -0.1392969 0.01348487
v -0.004107524 -0.07526672 0.01357163
v -0.001845527 -0.07526672 0.01263467
v 0.0004164912 -0.07526672 0.01357163
v 0.001283217 -0.07526672 0.01542173
v -0.004974247 -0.07526672 0.01542173
v 0.001069999 -0.07526672 0.01704128
v -0.004761029 -0.07526672 0.01704128
v 7.556892E-05 -0.07526672 0.01833725
v -0.00344499 -0.07526672 0.01860402
v -0.001433602 -0.07526672 0.01896237
v -0.0006378544 -0.1392969 0.01291812
v -0.00267346 -0.1392969 0.01274366
v -0.004349127 -0.1392969 0.01391255
v 0.0006580979 -0.1392969 0.01391254
v 0.001283217 -0.1392969 0.01542172
v -0.004974246 -0.1392969 0.01542172
v 0.001070002 -0.1392969 0.01704127
v -0.004761029 -0.1392969 0.01704127
v 7.558044E-05 -0.1392969 0.01833723
v -0.003444991 -0.1392969 0.01860401
v -0.001433602 -0.1392969 0.01896236
vt 0.0001419031 0.01624599
vt 0.3979007 0.01673463
vt 0.3979008 0.002534326
vt 0.3979006 0.03728765
vt 0.0001421734 0.04253041
vt 0.3979006 0.05625345
vt 0.0001422516 0.06602678
vt 0.3979006 0.07658088
vt 0.0001422247 0.08822551
vt 0.3979007 0.1006759
vt 0.0001420904 0.1099112
vt 0.3979008 0.1193557
vt 0.0001419362 0.121949
vt 0.06736858 0.9188879
vt 0.07115302 0.9329299
vt 0.08375829 0.9401831
vt 0.09584866 0.9380337
vt 0.07258119 0.9077109
vt 0.102904 0.9309784
vt 0.08122214 0.902722
vt 0.1054864 0.9213406
vt 0.09345686 0.9037751
vt 0.102904 0.911703
vt 0.719393 0.9011894
vt 0.70929 0.9082627
vt 0.7051062 0.919808
vt 0.7293706 0.9011894
vt 0.7380115 0.9061784
vt 0.7076886 0.9294457
vt 0.7430003 0.9148194
vt 0.7147439 0.9365011
vt 0.7430003 0.9247971
vt 0.7268342 0.9386505
vt 0.7380114 0.9334379
vn 0.7199115 -0.01150564 -0.6939704
vn 0.7742415 0.004150611 -0.6328766
vn -0.08102819 0.006195376 -0.9966925
vn 0.9492206 0.003997939 0.3145859
vn 0.8372701 -0.008392843 0.5467252
vn 0.2401875 0.00729413 0.9706991
vn -0.2447647 -0.009399942 0.9695369
vn -0.7462492 0.01025437 0.6655877
vn -0.9882056 -0.008972589 0.1528697
vn -0.905706 0.00881993 -0.4238144
vn -0.5324435 -0.01071235 -0.8463977
vn -0.08102819 0.006195376 -0.9966925
vn 0.7199115 -0.01150564 -0.6939704
vn 0 1 0
vn 0 1 0
vn 0 1 0
vn 0 1 0
vn 0 1 0
vn 0 1 0
vn 0 1 0
vn 0 1 0
vn 0 1 0
vn 0 1 0
vn 0 -1 0
vn 0 -1 0
vn 0 -1 0
vn 0 -1 0
vn 0 -1 0
vn 0 -1 0
vn 0 -1 0
vn 0 -1 0
vn 0 -1 0
vn 0 -1 0
vn 0 -1 0
g longbarrelvec_LOD3_0
f 3/3/3 2/2/2 1/1/1
f 2/2/2 4/4/4 1/1/1
f 1/1/1 4/4/4 5/5/5
f 4/4/4 6/6/6 5/5/5
f 5/5/5 6/6/6 7/7/7
f 6/6/6 8/8/8 7/7/7
f 7/7/7 8/8/8 9/9/9
f 8/8/8 10/10/10 9/9/9
f 9/9/9 10/10/10 11/11/11
f 10/10/10 12/12/12 11/11/11
f 13/13/13 11/11/11 12/12/12
f 16/16/16 15/15/15 14/14/14
f 14/14/14 17/17/17 16/16/16
f 14/14/14 18/18/18 17/17/17
f 18/18/18 19/19/19 17/17/17
f 18/18/18 20/20/20 19/19/19
f 20/20/20 21/21/21 19/19/19
f 20/20/20 22/22/22 21/21/21
f 22/22/22 23/23/23 21/21/21
f 26/26/26 25/25/25 24/24/24
f 24/24/24 27/27/27 26/26/26
f 27/27/27 28/28/28 26/26/26
f 28/28/28 29/29/29 26/26/26
f 28/28/28 30/30/30 29/29/29
f 30/30/30 31/31/31 29/29/29
f 30/30/30 32/32/32 31/31/31
f 32/32/32 33/33/33 31/31/31
f 32/32/32 34/34/34 33/33/33
