g longbarrelvec_LOD0
v -0.002655532 -0.07526672 0.0128106
v -0.001845514 -0.07526672 0.01270396
v -0.001035495 -0.07526672 0.01281061
v -0.003410349 -0.07526672 0.01312326
v -0.0002806777 -0.07526672 0.01312326
v -0.004058526 -0.07526672 0.01362062
v 0.0003674984 -0.07526672 0.01362062
v -0.00455589 -0.07526672 0.0142688
v 0.0008648613 -0.07526672 0.0142688
v -0.004868546 -0.07526672 0.01502362
v 0.001177517 -0.07526672 0.01502362
v -0.004975187 -0.07526672 0.01583363
v 0.001284157 -0.07526672 0.01583363
v -0.004868547 -0.07526672 0.01664365
v 0.001177517 -0.07526672 0.01664365
v -0.004555892 -0.07526672 0.01739847
v 0.000864861 -0.07526672 0.01739847
v -0.004058529 -0.07526672 0.01804665
v 0.0003674978 -0.07526672 0.01804665
v -0.003410353 -0.07526672 0.01854401
v -0.0002806784 -0.07526672 0.01854401
v -0.002655536 -0.07526672 0.01885667
v -0.001035496 -0.07526672 0.01885667
v -0.001845515 -0.07526672 0.01896331
v -0.001845514 -0.1072818 0.01270396
v -0.002655532 -0.1392969 0.0128106
v -0.001845514 -0.1392969 0.01270395
v -0.002655532 -0.1072818 0.0128106
v -0.001845514 -0.07526672 0.01270396
v -0.003410349 -0.1392969 0.01312325
v -0.002655532 -0.07526672 0.0128106
v -0.003410349 -0.1072818 0.01312325
v -0.004058526 -0.1392969 0.01362062
v -0.003410349 -0.07526672 0.01312326
v -0.004058526 -0.1072818 0.01362062
v -0.00455589 -0.1392969 0.01426879
v -0.004058526 -0.07526672 0.01362062
v -0.00455589 -0.1072818 0.01426879
v -0.004868546 -0.1392969 0.01502361
v -0.00455589 -0.07526672 0.0142688
v -0.004868546 -0.1072818 0.01502361
v -0.004975187 -0.1392969 0.01583363
v -0.004868546 -0.07526672 0.01502362
v -0.004975187 -0.1072818 0.01583363
v -0.004868547 -0.1392969 0.01664364
v -0.004975187 -0.07526672 0.01583363
v -0.004868547 -0.1072818 0.01664365
v -0.004555892 -0.1392969 0.01739846
v -0.004868547 -0.07526672 0.01664365
v -0.004555892 -0.1072818 0.01739847
v -0.004058529 -0.1392969 0.01804664
v -0.004555892 -0.07526672 0.01739847
v -0.004058529 -0.1072818 0.01804664
v -0.003410353 -0.1392969 0.018544
v -0.004058529 -0.07526672 0.01804665
v -0.003410353 -0.1072818 0.01854401
v -0.002655536 -0.1392969 0.01885666
v -0.003410353 -0.07526672 0.01854401
v -0.002655536 -0.1072818 0.01885666
v -0.001845515 -0.1392969 0.0189633
v -0.002655536 -0.07526672 0.01885667
v -0.001845515 -0.1072818 0.0189633
v -0.001035496 -0.1392969 0.01885666
v -0.001845515 -0.07526672 0.01896331
v -0.001035496 -0.1072818 0.01885666
v -0.0002806784 -0.1392969 0.018544
v -0.001035496 -0.07526672 0.01885667
v -0.0002806784 -0.1072818 0.01854401
v 0.0003674976 -0.1392969 0.01804664
v -0.0002806784 -0.07526672 0.01854401
v 0.0003674978 -0.1072818 0.01804664
v 0.000864861 -0.1392969 0.01739846
v 0.0003674978 -0.07526672 0.01804665
v 0.000864861 -0.1072818 0.01739847
v 0.001177517 -0.1392969 0.01664365
v 0.000864861 -0.07526672 0.01739847
v 0.001177517 -0.1072818 0.01664365
v 0.001284157 -0.1392969 0.01583363
v 0.001177517 -0.07526672 0.01664365
v 0.001284157 -0.1072818 0.01583363
v 0.001177517 -0.1392969 0.01502361
v 0.001284157 -0.07526672 0.01583363
v 0.001177517 -0.1072818 0.01502361
v 0.000864861 -0.1392969 0.01426879
v 0.001177517 -0.07526672 0.01502362
v 0.000864861 -0.1072818 0.01426879
v 0.0003674982 -0.1392969 0.01362062
v 0.0008648613 -0.07526672 0.0142688
v 0.0003674984 -0.1072818 0.01362062
v -0.0002806778 -0.1392969 0.01312325
v 0.0003674984 -0.07526672 0.01362062
v -0.0002806777 -0.1072818 0.01312325
v -0.001035495 -0.1392969 0.0128106
v -0.0002806777 -0.07526672 0.01312326
v -0.001035495 -0.1072818 0.0128106
v -0.001845514 -0.1392969 0.01270395
v -0.001035495 -0.07526672 0.01281061
v -0.001845514 -0.1072818 0.01270396
v -0.001845514 -0.07526672 0.01270396
v -0.001035495 -0.1392969 0.0128106
v -0.001845514 -0.1392969 0.01270395
v -0.002655532 -0.1392969 0.0128106
v -0.0002806778 -0.1392969 0.01312325
v -0.003410349 -0.1392969 0.01312325
v 0.0003674982 -0.1392969 0.01362062
v -0.004058526 -0.1392969 0.01362062
v 0.000864861 -0.1392969 0.01426879
v -0.00455589 -0.1392969 0.01426879
v 0.001177517 -0.1392969 0.01502361
v -0.004868546 -0.1392969 0.01502361
v 0.001284157 -0.1392969 0.01583363
v -0.004975187 -0.1392969 0.01583363
v 0.001177517 -0.1392969 0.01664365
v -0.004868547 -0.1392969 0.01664364
v -0.004555892 -0.1392969 0.01739846
v 0.000864861 -0.1392969 0.01739846
v 0.0003674976 -0.1392969 0.01804664
v -0.004058529 -0.1392969 0.01804664
v -0.003410353 -0.1392969 0.018544
v -0.0002806784 -0.1392969 0.018544
v -0.001035496 -0.1392969 0.01885666
v -0.002655536 -0.1392969 0.01885666
v -0.001845515 -0.1392969 0.0189633
vt 0.06824912 0.9287807
vt 0.07078677 0.933176
vt 0.07437558 0.9367648
vt 0.06693554 0.9238783
vt 0.07877091 0.9393025
vt 0.06693554 0.918803
vt 0.0836733 0.9406161
vt 0.06824912 0.9139006
vt 0.08874864 0.9406161
vt 0.07078678 0.9095053
vt 0.093651 0.9393025
vt 0.07437556 0.9059165
vt 0.09804632 0.9367648
vt 0.07877091 0.9033788
vt 0.1016351 0.933176
vt 0.08367331 0.9020652
vt 0.1041728 0.9287807
vt 0.08874857 0.9020652
vt 0.1054864 0.9238783
vt 0.093651 0.9033788
vt 0.1054864 0.918803
vt 0.09804635 0.9059165
vt 0.1041728 0.9139007
vt 0.1016351 0.9095053
vt 0.199016 0.121952
vt 0.0001419963 0.1168738
vt 0.0001419362 0.121949
vt 0.199016 0.1168766
vt 0.3979008 0.1219505
vt 0.0001421167 0.1117986
vt 0.3979008 0.1168752
vt 0.199016 0.1118011
vt 0.0001421167 0.1067234
vt 0.3979008 0.1117999
vt 0.199016 0.1067257
vt 0.0001421467 0.1016483
vt 0.3979007 0.1067247
vt 0.199016 0.1016502
vt 0.0001421467 0.0965731
vt 0.3979007 0.1016494
vt 0.1990161 0.09657479
vt 0.0001422069 0.09149794
vt 0.3979007 0.09657412
vt 0.1990161 0.09149935
vt 0.0001422069 0.08642279
vt 0.3979006 0.09149885
vt 0.1990161 0.08642393
vt 0.0001422972 0.08134761
vt 0.3979006 0.08642358
vt 0.1990161 0.08134848
vt 0.0001422671 0.07627246
vt 0.3979006 0.08134831
vt 0.1990161 0.07627305
vt 0.0001422671 0.07119727
vt 0.3979006 0.07627305
vt 0.1990161 0.07119761
vt 0.0001422069 0.0661221
vt 0.3979006 0.07119777
vt 0.1990161 0.06612217
vt 0.0001422671 0.06104692
vt 0.3979006 0.0661225
vt 0.1990161 0.06104695
vt 0.000142237 0.05597173
vt 0.3979006 0.06104723
vt 0.1990161 0.0559715
vt 0.000142237 0.05089656
vt 0.3979006 0.0559715
vt 0.1990161 0.05089606
vt 0.000142237 0.04582137
vt 0.3979006 0.05089623
vt 0.1990161 0.04582062
vt 0.0001421167 0.04074619
vt 0.3979006 0.04582095
vt 0.1990161 0.04074519
vt 0.0001421167 0.03567104
vt 0.3979006 0.04074569
vt 0.1990161 0.03566976
vt 0.0001420866 0.03059583
vt 0.3979006 0.03567042
vt 0.199016 0.0305943
vt 0.0001420264 0.02552067
vt 0.3979007 0.03059515
vt 0.199016 0.02551887
vt 0.0001419662 0.02044549
vt 0.3979007 0.02551988
vt 0.199016 0.02044342
vt 0.0001419362 0.01537033
vt 0.3979007 0.02044461
vt 0.199016 0.01536798
vt 0.0001418459 0.01029515
vt 0.3979007 0.01536933
vt 0.199016 0.01029254
vt 0.0001416955 0.00521999
vt 0.3979008 0.01029407
vt 0.199016 0.005217095
vt 0.0001416353 0.0001448016
vt 0.3979008 0.005218787
vt 0.199016 0.0001416353
vt 0.3979008 0.000143523
vt 0.7169417 0.9018462
vt 0.7125463 0.9043838
vt 0.7089575 0.9079726
vt 0.7218441 0.9005327
vt 0.7064198 0.9123679
vt 0.7269194 0.9005327
vt 0.7051062 0.9172703
vt 0.7318217 0.9018463
vt 0.7051062 0.9223456
vt 0.7362171 0.904384
vt 0.7064198 0.9272481
vt 0.7398059 0.9079728
vt 0.7089574 0.9316434
vt 0.7423435 0.9123682
vt 0.7125462 0.9352322
vt 0.7169415 0.9377699
vt 0.7436571 0.9172705
vt 0.7436571 0.9223459
vt 0.7218438 0.9390835
vt 0.7269191 0.9390835
vt 0.7423435 0.9272482
vt 0.7398058 0.9316435
vt 0.7318215 0.9377699
vt 0.736217 0.9352323
vn 0 1 0
vn 0 1 0
vn 0 1 0
vn 0 1 0
vn 0 1 0
vn 0 1 0
vn 0 1 0
vn 0 1 0
vn 0 1 0
vn 0 1 0
vn 0 1 0
vn 0 1 0
vn 0 1 0
vn 0 1 0
vn 0 1 0
vn 0 1 0
vn 0 1 0
vn 0 1 0
vn 0 1 0
vn 0 1 0
vn 0 1 0
vn 0 1 0
vn 0 1 0
vn 0 1 0
vn 0 0 -1
vn -0.2588022 0 -0.9659303
vn 0 0 -1
vn -0.2588022 0 -0.9659303
vn 0 0 -1
vn -0.4999893 0 -0.8660316
vn -0.2588022 0 -0.9659303
vn -0.4999893 0 -0.8660316
vn -0.7071068 0 -0.7071068
vn -0.4999893 0 -0.8660316
vn -0.7071068 0 -0.7071068
vn -0.8660316 0 -0.4999893
vn -0.7071068 0 -0.7071068
vn -0.8660316 0 -0.4999893
vn -0.9659303 0 -0.2588022
vn -0.8660316 0 -0.4999893
vn -0.9659303 0 -0.2588022
vn -1 0 0
vn -0.9659303 0 -0.2588022
vn -1 0 0
vn -0.9659303 0 0.2588022
vn -1 0 0
vn -0.9659303 0 0.2588022
vn -0.8660316 0 0.4999893
vn -0.9659303 0 0.2588022
vn -0.8660316 0 0.4999893
vn -0.7071068 0 0.7071068
vn -0.8660316 0 0.4999893
vn -0.7071068 0 0.7071068
vn -0.4999893 0 0.8660316
vn -0.7071068 0 0.7071068
vn -0.4999893 0 0.8660316
vn -0.2588022 0 0.9659303
vn -0.4999893 0 0.8660316
vn -0.2588022 0 0.9659303
vn 0 0 1
vn -0.2588022 0 0.9659303
vn 0 0 1
vn 0.2588022 0 0.9659303
vn 0 0 1
vn 0.2588022 0 0.9659303
vn 0.4999893 0 0.8660316
vn 0.2588022 0 0.9659303
vn 0.4999893 0 0.8660316
vn 0.7071068 0 0.7071068
vn 0.4999893 0 0.8660316
vn 0.7071068 0 0.7071068
vn 0.8660316 0 0.4999893
vn 0.7071068 0 0.7071068
vn 0.8660316 0 0.4999893
vn 0.9659303 0 0.2588022
vn 0.8660316 0 0.4999893
vn 0.9659303 0 0.2588022
vn 1 0 0
vn 0.9659303 0 0.2588022
vn 1 0 0
vn 0.9659303 0 -0.2588022
vn 1 0 0
vn 0.9659303 0 -0.2588022
vn 0.8660316 0 -0.4999893
vn 0.9659303 0 -0.2588022
vn 0.8660316 0 -0.4999893
vn 0.7071068 0 -0.7071068
vn 0.8660316 0 -0.4999893
vn 0.7071068 0 -0.7071068
vn 0.4999893 0 -0.8660316
vn 0.7071068 0 -0.7071068
vn 0.4999893 0 -0.8660316
vn 0.2588022 0 -0.9659303
vn 0.4999893 0 -0.8660316
vn 0.2588022 0 -0.9659303
vn 0 0 -1
vn 0.2588022 0 -0.9659303
vn 0 0 -1
vn 0 0 -1
vn 0 -1 0
vn 0 -1 0
vn 0 -1 0
vn 0 -1 0
vn 0 -1 0
vn 0 -1 0
vn 0 -1 0
vn 0 -1 0
vn 0 -1 0
vn 0 -1 0
vn 0 -1 0
vn 0 -1 0
vn 0 -1 0
vn 0 -1 0
vn 0 -1 0
vn 0 -1 0
vn 0 -1 0
vn 0 -1 0
vn 0 -1 0
vn 0 -1 0
vn 0 -1 0
vn 0 -1 0
vn 0 -1 0
vn 0 -1 0
g longbarrelvec_LOD0_0
f 3/3/3 2/2/2 1/1/1
f 1/1/1 4/4/4 3/3/3
f 4/4/4 5/5/5 3/3/3
f 4/4/4 6/6/6 5/5/5
f 6/6/6 7/7/7 5/5/5
f 6/6/6 8/8/8 7/7/7
f 8/8/8 9/9/9 7/7/7
f 8/8/8 10/10/10 9/9/9
f 10/10/10 11/11/11 9/9/9
f 10/10/10 12/12/12 11/11/11
f 12/12/12 13/13/13 11/11/11
f 12/12/12 14/14/14 13/13/13
f 14/14/14 15/15/15 13/13/13
f 14/14/14 16/16/16 15/15/15
f 16/16/16 17/17/17 15/15/15
f 16/16/16 18/18/18 17/17/17
f 18/18/18 19/19/19 17/17/17
f 18/18/18 20/20/20 19/19/19
f 20/20/20 21/21/21 19/19/19
f 20/20/20 22/22/22 21/21/21
f 22/22/22 23/23/23 21/21/21
f 22/22/22 24/24/24 23/23/23
f 27/27/27 26/26/26 25/25/25
f 26/26/26 28/28/28 25/25/25
f 25/25/25 28/28/28 29/29/29
f 26/26/26 30/30/30 28/28/28
f 28/28/28 31/31/31 29/29/29
f 30/30/30 32/32/32 28/28/28
f 28/28/28 32/32/32 31/31/31
f 30/30/30 33/33/33 32/32/32
f 32/32/32 34/34/34 31/31/31
f 33/33/33 35/35/35 32/32/32
f 32/32/32 35/35/35 34/34/34
f 33/33/33 36/36/36 35/35/35
f 35/35/35 37/37/37 34/34/34
f 36/36/36 38/38/38 35/35/35
f 35/35/35 38/38/38 37/37/37
f 36/36/36 39/39/39 38/38/38
f 38/38/38 40/40/40 37/37/37
f 39/39/39 41/41/41 38/38/38
f 38/38/38 41/41/41 40/40/40
f 39/39/39 42/42/42 41/41/41
f 41/41/41 43/43/43 40/40/40
f 42/42/42 44/44/44 41/41/41
f 41/41/41 44/44/44 43/43/43
f 42/42/42 45/45/45 44/44/44
f 44/44/44 46/46/46 43/43/43
f 45/45/45 47/47/47 44/44/44
f 44/44/44 47/47/47 46/46/46
f 45/45/45 48/48/48 47/47/47
f 47/47/47 49/49/49 46/46/46
f 48/48/48 50/50/50 47/47/47
f 47/47/47 50/50/50 49/49/49
f 48/48/48 51/51/51 50/50/50
f 50/50/50 52/52/52 49/49/49
f 51/51/51 53/53/53 50/50/50
f 50/50/50 53/53/53 52/52/52
f 51/51/51 54/54/54 53/53/53
f 53/53/53 55/55/55 52/52/52
f 54/54/54 56/56/56 53/53/53
f 53/53/53 56/56/56 55/55/55
f 54/54/54 57/57/57 56/56/56
f 56/56/56 58/58/58 55/55/55
f 57/57/57 59/59/59 56/56/56
f 56/56/56 59/59/59 58/58/58
f 57/57/57 60/60/60 59/59/59
f 59/59/59 61/61/61 58/58/58
f 60/60/60 62/62/62 59/59/59
f 59/59/59 62/62/62 61/61/61
f 60/60/60 63/63/63 62/62/62
f 62/62/62 64/64/64 61/61/61
f 63/63/63 65/65/65 62/62/62
f 62/62/62 65/65/65 64/64/64
f 63/63/63 66/66/66 65/65/65
f 65/65/65 67/67/67 64/64/64
f 66/66/66 68/68/68 65/65/65
f 65/65/65 68/68/68 67/67/67
f 66/66/66 69/69/69 68/68/68
f 68/68/68 70/70/70 67/67/67
f 69/69/69 71/71/71 68/68/68
f 68/68/68 71/71/71 70/70/70
f 69/69/69 72/72/72 71/71/71
f 71/71/71 73/73/73 70/70/70
f 72/72/72 74/74/74 71/71/71
f 71/71/71 74/74/74 73/73/73
f 72/72/72 75/75/75 74/74/74
f 74/74/74 76/76/76 73/73/73
f 75/75/75 77/77/77 74/74/74
f 74/74/74 77/77/77 76/76/76
f 75/75/75 78/78/78 77/77/77
f 77/77/77 79/79/79 76/76/76
f 78/78/78 80/80/80 77/77/77
f 77/77/77 80/80/80 79/79/79
f 78/78/78 81/81/81 80/80/80
f 80/80/80 82/82/82 79/79/79
f 81/81/81 83/83/83 80/80/80
f 80/80/80 83/83/83 82/82/82
f 81/81/81 84/84/84 83/83/83
f 83/83/83 85/85/85 82/82/82
f 84/84/84 86/86/86 83/83/83
f 83/83/83 86/86/86 85/85/85
f 84/84/84 87/87/87 86/86/86
f 86/86/86 88/88/88 85/85/85
f 87/87/87 89/89/89 86/86/86
f 86/86/86 89/89/89 88/88/88
f 87/87/87 90/90/90 89/89/89
f 89/89/89 91/91/91 88/88/88
f 90/90/90 92/92/92 89/89/89
f 89/89/89 92/92/92 91/91/91
f 90/90/90 93/93/93 92/92/92
f 92/92/92 94/94/94 91/91/91
f 93/93/93 95/95/95 92/92/92
f 92/92/92 95/95/95 94/94/94
f 93/93/93 96/96/96 95/95/95
f 95/95/95 97/97/97 94/94/94
f 96/96/96 98/98/98 95/95/95
f 95/95/95 98/98/98 97/97/97
f 98/98/98 99/99/99 97/97/97
f 102/102/102 101/101/101 100/100/100
f 100/100/100 103/103/103 102/102/102
f 103/103/103 104/104/104 102/102/102
f 103/103/103 105/105/105 104/104/104
f 105/105/105 106/106/106 104/104/104
f 105/105/105 107/107/107 106/106/106
f 107/107/107 108/108/108 106/106/106
f 107/107/107 109/109/109 108/108/108
f 109/109/109 110/110/110 108/108/108
f 109/109/109 111/111/111 110/110/110
f 111/111/111 112/112/112 110/110/110
f 111/111/111 113/113/113 112/112/112
f 113/113/113 114/114/114 112/112/112
f 113/113/113 115/115/115 114/114/114
f 113/113/113 116/116/116 115/115/115
f 116/116/116 117/117/117 115/115/115
f 117/117/117 118/118/118 115/115/115
f 117/117/117 119/119/119 118/118/118
f 117/117/117 120/120/120 119/119/119
f 120/120/120 121/121/121 119/119/119
f 121/121/121 122/122/122 119/119/119
f 121/121/121 123/123/123 122/122/122
