g LP_Door LockBottum
v -0.003837971 0 0.001126935
v -0.004000001 0 0
v -0.004000001 0.0004999962 0
v -0.003331138 0 0
v -0.003837971 0.0004999962 0.001126935
v -0.003601492 0 0.00164475
v -0.003331138 0.0004999962 0
v -0.00266491 0 0
v -0.003601492 0.0004999962 0.00164475
v -0.003365013 0 0.002162566
v -0.003262276 0.0004999962 0.0009578943
v -0.00266491 0.0001999962 0
v 0.00266491 0 0
v -0.002609821 0.0001999962 0.0008621049
v 0.00266491 0.0001999964 0
v 0.003331138 0 0
v -0.003061268 0.0004999962 0.001398039
v -0.003365013 0.0003499962 0.002162566
v -0.002619441 0 0.003023
v -0.002449015 0.0001999962 0.001214218
v -0.002860261 0.0003499962 0.001838183
v -0.002619441 0.0003499962 0.003023
v -0.002140549 0 0.003330765
v 0.002609821 0.0001999964 0.0008621025
v 0.003331138 0.0004999964 0
v 0.003999999 0 0
v -0.002226525 0.0003499962 0.002569551
v -0.002140549 0.0004999963 0.003330765
v -0.001661658 0 0.00363853
v 0.003262276 0.0004999964 0.0009578895
v -0.001819467 0.0004999963 0.002831149
v -0.001661658 0.0004999963 0.00363853
v -0.0005692571 0 0.003959286
v -0.001412409 0.0004999963 0.003092751
v -0.0005692571 0.0004999963 0.003959286
v 0.0005692613 0 0.003959286
v -0.0004838686 0.0004999963 0.003365393
v 0.0005692613 0.0004999963 0.003959286
v 0.001661661 0 0.003638527
v 0.000483872 0.0004999963 0.003365393
v 0.001661661 0.0004999964 0.003638527
v 0.002140553 0 0.00333076
v 0.001412412 0.0004999964 0.003092747
v 0.002140553 0.0004999964 0.00333076
v 0.002619444 0 0.003022995
v 0.001819469 0.0004999964 0.002831149
v 0.002619444 0.0003499964 0.003022995
v 0.003365014 0 0.002162561
v 0.002226527 0.0003499964 0.002569547
v 0.001455576 0.0001999964 0.002360706
v 0.00112993 0.0001999964 0.002569988
v 0.0003870975 0.0001999963 0.002788102
v -0.000387095 0.0001999963 0.002788105
v -0.001129927 0.0001999963 0.00256999
v -0.001455574 0.0001999963 0.002360711
v 0.001781222 0.0001999964 0.002151427
v -0.00178122 0.0001999962 0.00215143
v 0.00228821 0.0001999964 0.001566331
v -0.002288209 0.0001999962 0.001566334
v 0.002449015 0.0001999964 0.001214216
v 0.002860262 0.0003499964 0.001838179
v 0.003061269 0.0004999964 0.001398034
v 0.003365014 0.0003499964 0.002162561
v 0.003601493 0 0.001644745
v 0.003601493 0.0004999964 0.001644745
v 0.003837971 0 0.001126928
v 0.003837971 0.0004999964 0.001126928
v 0.003999999 0.0004999964 0
v -0.003837971 0 0.001126935
v -0.004000001 -0.0004999962 0
v -0.004000001 0 0
v -0.003331138 0 0
v -0.003837971 -0.0004999962 0.001126935
v -0.003601492 0 0.00164475
v -0.003331138 -0.0004999962 0
v -0.00266491 0 0
v -0.003601492 -0.0004999962 0.00164475
v -0.003365013 0 0.002162566
v -0.003262276 -0.0004999962 0.0009578943
v -0.00266491 -0.0001999962 0
v 0.00266491 0 0
v -0.002609821 -0.0001999962 0.0008621049
v 0.00266491 -0.0001999964 0
v 0.003331138 0 0
v -0.003061268 -0.0004999962 0.001398039
v -0.003365013 -0.0003499962 0.002162566
v -0.002619441 0 0.003023
v -0.002449015 -0.0001999962 0.001214218
v -0.002860261 -0.0003499962 0.001838183
v -0.002619441 -0.0003499962 0.003023
v -0.002140549 0 0.003330765
v 0.002609821 -0.0001999964 0.0008621025
v 0.003331138 -0.0004999964 0
v 0.003999999 0 0
v -0.002226525 -0.0003499962 0.002569551
v -0.002140549 -0.0004999963 0.003330765
v -0.001661658 0 0.00363853
v 0.003262276 -0.0004999964 0.0009578895
v -0.001819467 -0.0004999963 0.002831149
v -0.001661658 -0.0004999963 0.00363853
v -0.0005692571 0 0.003959286
v -0.001412409 -0.0004999963 0.003092751
v -0.0005692571 -0.0004999963 0.003959286
v 0.0005692613 0 0.003959286
v -0.0004838686 -0.0004999963 0.003365393
v 0.0005692613 -0.0004999963 0.003959286
v 0.001661661 0 0.003638527
v 0.000483872 -0.0004999963 0.003365393
v 0.001661661 -0.0004999964 0.003638527
v 0.002140553 0 0.00333076
v 0.001412412 -0.0004999964 0.003092747
v 0.002140553 -0.0004999964 0.00333076
v 0.002619444 0 0.003022995
v 0.001819469 -0.0004999964 0.002831149
v 0.002619444 -0.0003499964 0.003022995
v 0.003365014 0 0.002162561
v 0.002226527 -0.0003499964 0.002569547
v 0.001455576 -0.0001999964 0.002360706
v 0.00112993 -0.0001999964 0.002569988
v 0.0003870975 -0.0001999963 0.002788102
v -0.000387095 -0.0001999963 0.002788105
v -0.001129927 -0.0001999963 0.00256999
v -0.001455574 -0.0001999963 0.002360711
v 0.001781222 -0.0001999964 0.002151427
v -0.00178122 -0.0001999962 0.00215143
v 0.00228821 -0.0001999964 0.001566331
v -0.002288209 -0.0001999962 0.001566334
v 0.002449015 -0.0001999964 0.001214216
v 0.002860262 -0.0003499964 0.001838179
v 0.003061269 -0.0004999964 0.001398034
v 0.003365014 -0.0003499964 0.002162561
v 0.003601493 0 0.001644745
v 0.003601493 -0.0004999964 0.001644745
v 0.003837971 0 0.001126928
v 0.003837971 -0.0004999964 0.001126928
v 0.003999999 -0.0004999964 0
vt 0.81397 0.004543004
vt 0.7676614 0.007081893
vt 0.7750048 0.01960092
vt 0.7518752 0.03449842
vt 0.8111849 0.0239373
vt 0.8404024 0.01118614
vt 0.7705843 0.03865999
vt 0.7501242 0.06754945
vt 0.831784 0.0313044
vt 0.8663614 0.02459415
vt 0.8053348 0.04538451
vt 0.7600061 0.06779031
vt 0.7509183 0.3322843
vt 0.7988552 0.07408234
vt 0.7608016 0.3319874
vt 0.7528435 0.3653399
vt 0.8229097 0.05351328
vt 0.8568002 0.03897652
vt 0.9129931 0.06165318
vt 0.8141297 0.08235761
vt 0.8427422 0.063419
vt 0.9005322 0.07475817
vt 0.9342892 0.08489409
vt 0.7996565 0.3255183
vt 0.7715388 0.3610798
vt 0.7687797 0.3926807
vt 0.8778888 0.09381433
vt 0.9143911 0.09965995
vt 0.9502919 0.1120754
vt 0.8062714 0.3541847
vt 0.891304 0.1136847
vt 0.9278449 0.1217962
vt 0.9665865 0.1694027
vt 0.9025939 0.1329122
vt 0.9424271 0.1727878
vt 0.9667794 0.2291708
vt 0.9147595 0.1766665
vt 0.9426009 0.2259358
vt 0.9508284 0.2866033
vt 0.9149228 0.2222646
vt 0.9283181 0.2770198
vt 0.9349954 0.313884
vt 0.9030334 0.2660768
vt 0.9150105 0.2992363
vt 0.9138343 0.3372604
vt 0.8918636 0.2853517
vt 0.9012855 0.324218
vt 0.8673766 0.3746579
vt 0.8785837 0.3052756
vt 0.8662403 0.2684557
vt 0.8752387 0.2526914
vt 0.8846995 0.2176885
vt 0.8845091 0.1814392
vt 0.8748682 0.1464646
vt 0.8657725 0.1307466
vt 0.8572574 0.2842469
vt 0.8566933 0.1150045
vt 0.8304268 0.3089153
vt 0.8297238 0.09051599
vt 0.8148828 0.3171624
vt 0.8436234 0.335979
vt 0.8238142 0.3459724
vt 0.8577244 0.3603325
vt 0.8414968 0.3881938
vt 0.8327793 0.3681279
vt 0.8151083 0.394977
vt 0.8122243 0.3755994
vt 0.7760594 0.3801211
vt 0.81397 0.004543004
vt 0.7750048 0.01960092
vt 0.7676614 0.007081893
vt 0.7518752 0.03449842
vt 0.8111849 0.0239373
vt 0.8404024 0.01118614
vt 0.7705843 0.03865999
vt 0.7501242 0.06754945
vt 0.831784 0.0313044
vt 0.8663614 0.02459415
vt 0.8053348 0.04538451
vt 0.7600061 0.06779031
vt 0.7509183 0.3322843
vt 0.7988552 0.07408234
vt 0.7608016 0.3319874
vt 0.7528435 0.3653399
vt 0.8229097 0.05351328
vt 0.8568002 0.03897652
vt 0.9129931 0.06165318
vt 0.8141297 0.08235761
vt 0.8427422 0.063419
vt 0.9005322 0.07475817
vt 0.9342892 0.08489409
vt 0.7996565 0.3255183
vt 0.7715388 0.3610798
vt 0.7687797 0.3926807
vt 0.8778888 0.09381433
vt 0.9143911 0.09965995
vt 0.9502919 0.1120754
vt 0.8062714 0.3541847
vt 0.891304 0.1136847
vt 0.9278449 0.1217962
vt 0.9665865 0.1694027
vt 0.9025939 0.1329122
vt 0.9424271 0.1727878
vt 0.9667794 0.2291708
vt 0.9147595 0.1766665
vt 0.9426009 0.2259358
vt 0.9508284 0.2866033
vt 0.9149228 0.2222646
vt 0.9283181 0.2770198
vt 0.9349954 0.313884
vt 0.9030334 0.2660768
vt 0.9150105 0.2992363
vt 0.9138343 0.3372604
vt 0.8918636 0.2853517
vt 0.9012855 0.324218
vt 0.8673766 0.3746579
vt 0.8785837 0.3052756
vt 0.8662403 0.2684557
vt 0.8752387 0.2526914
vt 0.8846995 0.2176885
vt 0.8845091 0.1814392
vt 0.8748682 0.1464646
vt 0.8657725 0.1307466
vt 0.8572574 0.2842469
vt 0.8566933 0.1150045
vt 0.8304268 0.3089153
vt 0.8297238 0.09051599
vt 0.8148828 0.3171624
vt 0.8436234 0.335979
vt 0.8238142 0.3459724
vt 0.8577244 0.3603325
vt 0.8414968 0.3881938
vt 0.8327793 0.3681279
vt 0.8151083 0.394977
vt 0.8122243 0.3755994
vt 0.7760594 0.3801211
vn -0.9594925 0 0.281734
vn -0.7557498 0 -0.6548605
vn -0.6208474 0.5702105 -0.537967
vn 0 0 -1
vn -0.7066698 0.6764335 0.2074982
vn -0.9096314 0 0.4154164
vn 0.1501442 0.7289789 -0.6678671
vn 0 0 -1
vn -0.5724558 0.7299327 0.3734873
vn -0.841253 0 0.5406417
vn 0.1835272 0.9819955 -0.04475057
vn 0.1418139 0.6314266 -0.7623578
vn 0 0 -1
vn 0.2279128 0.9717774 -0.06086347
vn -0.1418139 0.6314266 -0.7623578
vn 0 0 -1
vn 0.2472147 0.9683957 0.03308836
vn -0.6026236 0.6352286 0.4830417
vn -0.6548604 0 0.7557499
vn 0.1783459 0.9828316 -0.0472731
vn 0.1743115 0.9838231 0.04132407
vn -0.5638864 0.6352289 0.5277464
vn -0.540641 0 0.8412534
vn -0.2279127 0.9717774 -0.06086347
vn -0.1501441 0.7289789 -0.6678671
vn 0.7557495 0 -0.6548609
vn -0.002010978 0.9836144 -0.1802738
vn -0.4511541 0.7299326 0.5134767
vn -0.4154146 0 0.9096322
vn -0.1835273 0.9819955 -0.0447505
vn 0.009264391 0.9619067 -0.2732211
vn -0.3059543 0.6764336 0.6699474
vn -0.1423143 0 0.9898216
vn 0.08895382 0.9772943 -0.1923097
vn -0.104815 0.6764338 0.7290069
vn 0.1423155 0 0.9898214
vn 0.03085402 0.976768 -0.2120669
vn 0.1048158 0.6764336 0.729007
vn 0.4154174 0 0.9096309
vn -0.03085458 0.976768 -0.2120664
vn 0.3059565 0.6764334 0.6699466
vn 0.5406427 0 0.8412523
vn -0.08895425 0.9772942 -0.1923102
vn 0.4511551 0.729933 0.5134752
vn 0.6548608 0 0.7557496
vn -0.009264573 0.9619074 -0.2732186
vn 0.5638866 0.635229 0.5277461
vn 0.8412536 0 0.5406407
vn 0.002010021 0.9836144 -0.1802736
vn -0.08650901 0.9783574 -0.1879709
vn -0.1032479 0.9677429 -0.2298124
vn -0.03569831 0.9670432 -0.2520973
vn 0.03569756 0.967043 -0.2520979
vn 0.1032477 0.9677429 -0.2298124
vn 0.08650962 0.9783571 -0.1879719
vn -0.08517107 0.9912966 -0.1003831
vn 0.08517092 0.9912968 -0.1003825
vn -0.1064383 0.9918265 -0.07036349
vn 0.106438 0.9918265 -0.07036338
vn -0.1783461 0.9828316 -0.04727295
vn -0.1743117 0.9838231 0.04132425
vn -0.2472147 0.9683957 0.03308848
vn 0.6026242 0.6352285 0.483041
vn 0.9096322 0 0.4154146
vn 0.5724565 0.7299326 0.3734863
vn 0.959493 0 0.2817325
vn 0.7066699 0.6764338 0.2074969
vn 0.6208472 0.5702105 -0.5379672
vn -0.9594925 0 0.281734
vn -0.6208474 -0.5702105 -0.537967
vn -0.7557498 0 -0.6548605
vn 0 0 -1
vn -0.7066698 -0.6764335 0.2074982
vn -0.9096314 0 0.4154164
vn 0.1501442 -0.7289789 -0.6678671
vn 0 0 -1
vn -0.5724558 -0.7299326 0.3734872
vn -0.841253 0 0.5406417
vn 0.1835272 -0.9819955 -0.04475056
vn 0.1418139 -0.6314266 -0.7623578
vn 0 0 -1
vn 0.2279128 -0.9717774 -0.06086347
vn -0.1418139 -0.6314266 -0.7623578
vn 0 0 -1
vn 0.2472147 -0.9683957 0.03308837
vn -0.6026237 -0.6352286 0.4830417
vn -0.6548604 0 0.7557499
vn 0.1783459 -0.9828316 -0.0472731
vn 0.1743115 -0.9838231 0.04132409
vn -0.5638864 -0.6352289 0.5277465
vn -0.540641 0 0.8412534
vn -0.2279127 -0.9717774 -0.06086348
vn -0.1501441 -0.7289789 -0.6678671
vn 0.7557495 0 -0.6548609
vn -0.002010978 -0.9836144 -0.1802738
vn -0.4511542 -0.7299325 0.5134768
vn -0.4154146 0 0.9096322
vn -0.1835274 -0.9819955 -0.04475051
vn 0.0092644 -0.9619067 -0.2732211
vn -0.3059544 -0.6764336 0.6699474
vn -0.1423143 0 0.9898216
vn 0.08895382 -0.9772943 -0.1923097
vn -0.104815 -0.6764338 0.7290069
vn 0.1423155 0 0.9898214
vn 0.03085402 -0.976768 -0.2120669
vn 0.1048158 -0.6764336 0.7290069
vn 0.4154174 0 0.9096309
vn -0.03085458 -0.976768 -0.2120664
vn 0.3059565 -0.6764334 0.6699466
vn 0.5406427 0 0.8412523
vn -0.08895425 -0.9772942 -0.1923101
vn 0.4511551 -0.729933 0.5134753
vn 0.6548608 0 0.7557496
vn -0.009264566 -0.9619074 -0.2732186
vn 0.5638866 -0.635229 0.5277462
vn 0.8412536 0 0.5406407
vn 0.00201002 -0.9836144 -0.1802737
vn -0.08650901 -0.9783574 -0.1879708
vn -0.1032479 -0.9677429 -0.2298124
vn -0.03569831 -0.9670432 -0.2520973
vn 0.03569756 -0.967043 -0.2520979
vn 0.1032477 -0.9677429 -0.2298124
vn 0.08650963 -0.9783571 -0.1879719
vn -0.08517107 -0.9912966 -0.1003831
vn 0.08517092 -0.9912968 -0.1003825
vn -0.1064383 -0.9918265 -0.07036348
vn 0.106438 -0.9918265 -0.07036337
vn -0.1783461 -0.9828316 -0.04727297
vn -0.1743117 -0.9838231 0.04132425
vn -0.2472147 -0.9683957 0.03308846
vn 0.6026242 -0.6352285 0.483041
vn 0.9096322 0 0.4154146
vn 0.5724565 -0.7299327 0.3734862
vn 0.959493 0 0.2817325
vn 0.7066699 -0.6764338 0.2074969
vn 0.6208472 -0.5702105 -0.5379672
g LP_Door LockBottum_0
f 3/3/3 2/2/2 1/1/1
f 4/4/4 2/2/2 3/3/3
f 5/5/5 3/3/3 1/1/1
f 5/5/5 1/1/1 6/6/6
f 7/7/7 4/4/4 3/3/3
f 8/8/8 4/4/4 7/7/7
f 9/9/9 5/5/5 6/6/6
f 9/9/9 6/6/6 10/10/10
f 5/5/5 11/11/11 3/3/3
f 11/11/11 7/7/7 3/3/3
f 12/12/12 8/8/8 7/7/7
f 13/13/13 8/8/8 12/12/12
f 14/14/14 12/12/12 7/7/7
f 11/11/11 14/14/14 7/7/7
f 15/15/15 13/13/13 12/12/12
f 12/12/12 14/14/14 15/15/15
f 16/16/16 13/13/13 15/15/15
f 17/17/17 11/11/11 5/5/5
f 9/9/9 17/17/17 5/5/5
f 18/18/18 9/9/9 10/10/10
f 18/18/18 10/10/10 19/19/19
f 20/20/20 14/14/14 11/11/11
f 17/17/17 20/20/20 11/11/11
f 21/21/21 17/17/17 9/9/9
f 18/18/18 21/21/21 9/9/9
f 20/20/20 17/17/17 21/21/21
f 22/22/22 18/18/18 19/19/19
f 22/22/22 19/19/19 23/23/23
f 14/14/14 24/24/24 15/15/15
f 14/14/14 20/20/20 24/24/24
f 25/25/25 16/16/16 15/15/15
f 16/16/16 25/25/25 26/26/26
f 27/27/27 21/21/21 18/18/18
f 22/22/22 27/27/27 18/18/18
f 28/28/28 22/22/22 23/23/23
f 28/28/28 23/23/23 29/29/29
f 15/15/15 24/24/24 30/30/30
f 25/25/25 15/15/15 30/30/30
f 31/31/31 27/27/27 22/22/22
f 28/28/28 31/31/31 22/22/22
f 32/32/32 28/28/28 29/29/29
f 32/32/32 29/29/29 33/33/33
f 34/34/34 31/31/31 28/28/28
f 32/32/32 34/34/34 28/28/28
f 35/35/35 32/32/32 33/33/33
f 35/35/35 33/33/33 36/36/36
f 37/37/37 34/34/34 32/32/32
f 35/35/35 37/37/37 32/32/32
f 38/38/38 35/35/35 36/36/36
f 38/38/38 36/36/36 39/39/39
f 40/40/40 37/37/37 35/35/35
f 38/38/38 40/40/40 35/35/35
f 41/41/41 38/38/38 39/39/39
f 41/41/41 39/39/39 42/42/42
f 43/43/43 40/40/40 38/38/38
f 41/41/41 43/43/43 38/38/38
f 44/44/44 41/41/41 42/42/42
f 44/44/44 42/42/42 45/45/45
f 46/46/46 43/43/43 41/41/41
f 44/44/44 46/46/46 41/41/41
f 47/47/47 44/44/44 45/45/45
f 47/47/47 45/45/45 48/48/48
f 49/49/49 46/46/46 44/44/44
f 47/47/47 49/49/49 44/44/44
f 46/46/46 50/50/50 43/43/43
f 50/50/50 46/46/46 49/49/49
f 43/43/43 51/51/51 40/40/40
f 50/50/50 51/51/51 43/43/43
f 40/40/40 52/52/52 37/37/37
f 51/51/51 52/52/52 40/40/40
f 52/52/52 53/53/53 37/37/37
f 53/53/53 52/52/52 51/51/51
f 37/37/37 53/53/53 34/34/34
f 54/54/54 53/53/53 51/51/51
f 53/53/53 54/54/54 34/34/34
f 54/54/54 51/51/51 50/50/50
f 34/34/34 54/54/54 31/31/31
f 54/54/54 55/55/55 31/31/31
f 55/55/55 54/54/54 50/50/50
f 55/55/55 27/27/27 31/31/31
f 55/55/55 50/50/50 56/56/56
f 50/50/50 49/49/49 56/56/56
f 55/55/55 57/57/57 27/27/27
f 57/57/57 55/55/55 56/56/56
f 27/27/27 57/57/57 21/21/21
f 58/58/58 56/56/56 49/49/49
f 57/57/57 56/56/56 58/58/58
f 57/57/57 59/59/59 21/21/21
f 59/59/59 57/57/57 58/58/58
f 20/20/20 21/21/21 59/59/59
f 20/20/20 59/59/59 60/60/60
f 59/59/59 58/58/58 60/60/60
f 20/20/20 60/60/60 24/24/24
f 61/61/61 58/58/58 49/49/49
f 61/61/61 60/60/60 58/58/58
f 61/61/61 49/49/49 47/47/47
f 24/24/24 60/60/60 62/62/62
f 60/60/60 61/61/61 62/62/62
f 30/30/30 24/24/24 62/62/62
f 63/63/63 61/61/61 47/47/47
f 62/62/62 61/61/61 63/63/63
f 63/63/63 47/47/47 48/48/48
f 63/63/63 48/48/48 64/64/64
f 65/65/65 62/62/62 63/63/63
f 65/65/65 63/63/63 64/64/64
f 30/30/30 62/62/62 65/65/65
f 65/65/65 64/64/64 66/66/66
f 67/67/67 30/30/30 65/65/65
f 67/67/67 65/65/65 66/66/66
f 25/25/25 30/30/30 67/67/67
f 67/67/67 66/66/66 26/26/26
f 68/68/68 25/25/25 67/67/67
f 68/68/68 67/67/67 26/26/26
f 25/25/25 68/68/68 26/26/26
f 71/71/71 70/70/70 69/69/69
f 71/71/71 72/72/72 70/70/70
f 70/70/70 73/73/73 69/69/69
f 69/69/69 73/73/73 74/74/74
f 72/72/72 75/75/75 70/70/70
f 72/72/72 76/76/76 75/75/75
f 73/73/73 77/77/77 74/74/74
f 74/74/74 77/77/77 78/78/78
f 79/79/79 73/73/73 70/70/70
f 75/75/75 79/79/79 70/70/70
f 76/76/76 80/80/80 75/75/75
f 76/76/76 81/81/81 80/80/80
f 80/80/80 82/82/82 75/75/75
f 82/82/82 79/79/79 75/75/75
f 81/81/81 83/83/83 80/80/80
f 82/82/82 80/80/80 83/83/83
f 81/81/81 84/84/84 83/83/83
f 79/79/79 85/85/85 73/73/73
f 85/85/85 77/77/77 73/73/73
f 77/77/77 86/86/86 78/78/78
f 78/78/78 86/86/86 87/87/87
f 82/82/82 88/88/88 79/79/79
f 88/88/88 85/85/85 79/79/79
f 85/85/85 89/89/89 77/77/77
f 89/89/89 86/86/86 77/77/77
f 85/85/85 88/88/88 89/89/89
f 86/86/86 90/90/90 87/87/87
f 87/87/87 90/90/90 91/91/91
f 92/92/92 82/82/82 83/83/83
f 88/88/88 82/82/82 92/92/92
f 84/84/84 93/93/93 83/83/83
f 93/93/93 84/84/84 94/94/94
f 89/89/89 95/95/95 86/86/86
f 95/95/95 90/90/90 86/86/86
f 90/90/90 96/96/96 91/91/91
f 91/91/91 96/96/96 97/97/97
f 92/92/92 83/83/83 98/98/98
f 83/83/83 93/93/93 98/98/98
f 95/95/95 99/99/99 90/90/90
f 99/99/99 96/96/96 90/90/90
f 96/96/96 100/100/100 97/97/97
f 97/97/97 100/100/100 101/101/101
f 99/99/99 102/102/102 96/96/96
f 102/102/102 100/100/100 96/96/96
f 100/100/100 103/103/103 101/101/101
f 101/101/101 103/103/103 104/104/104
f 102/102/102 105/105/105 100/100/100
f 105/105/105 103/103/103 100/100/100
f 103/103/103 106/106/106 104/104/104
f 104/104/104 106/106/106 107/107/107
f 105/105/105 108/108/108 103/103/103
f 108/108/108 106/106/106 103/103/103
f 106/106/106 109/109/109 107/107/107
f 107/107/107 109/109/109 110/110/110
f 108/108/108 111/111/111 106/106/106
f 111/111/111 109/109/109 106/106/106
f 109/109/109 112/112/112 110/110/110
f 110/110/110 112/112/112 113/113/113
f 111/111/111 114/114/114 109/109/109
f 114/114/114 112/112/112 109/109/109
f 112/112/112 115/115/115 113/113/113
f 113/113/113 115/115/115 116/116/116
f 114/114/114 117/117/117 112/112/112
f 117/117/117 115/115/115 112/112/112
f 118/118/118 114/114/114 111/111/111
f 114/114/114 118/118/118 117/117/117
f 119/119/119 111/111/111 108/108/108
f 119/119/119 118/118/118 111/111/111
f 120/120/120 108/108/108 105/105/105
f 120/120/120 119/119/119 108/108/108
f 121/121/121 120/120/120 105/105/105
f 120/120/120 121/121/121 119/119/119
f 121/121/121 105/105/105 102/102/102
f 121/121/121 122/122/122 119/119/119
f 122/122/122 121/121/121 102/102/102
f 119/119/119 122/122/122 118/118/118
f 122/122/122 102/102/102 99/99/99
f 123/123/123 122/122/122 99/99/99
f 122/122/122 123/123/123 118/118/118
f 95/95/95 123/123/123 99/99/99
f 118/118/118 123/123/123 124/124/124
f 117/117/117 118/118/118 124/124/124
f 125/125/125 123/123/123 95/95/95
f 123/123/123 125/125/125 124/124/124
f 125/125/125 95/95/95 89/89/89
f 124/124/124 126/126/126 117/117/117
f 124/124/124 125/125/125 126/126/126
f 127/127/127 125/125/125 89/89/89
f 125/125/125 127/127/127 126/126/126
f 89/89/89 88/88/88 127/127/127
f 127/127/127 88/88/88 128/128/128
f 126/126/126 127/127/127 128/128/128
f 128/128/128 88/88/88 92/92/92
f 126/126/126 129/129/129 117/117/117
f 128/128/128 129/129/129 126/126/126
f 117/117/117 129/129/129 115/115/115
f 128/128/128 92/92/92 130/130/130
f 129/129/129 128/128/128 130/130/130
f 92/92/92 98/98/98 130/130/130
f 129/129/129 131/131/131 115/115/115
f 129/129/129 130/130/130 131/131/131
f 115/115/115 131/131/131 116/116/116
f 116/116/116 131/131/131 132/132/132
f 130/130/130 133/133/133 131/131/131
f 131/131/131 133/133/133 132/132/132
f 130/130/130 98/98/98 133/133/133
f 132/132/132 133/133/133 134/134/134
f 98/98/98 135/135/135 133/133/133
f 133/133/133 135/135/135 134/134/134
f 98/98/98 93/93/93 135/135/135
f 134/134/134 135/135/135 94/94/94
f 93/93/93 136/136/136 135/135/135
f 135/135/135 136/136/136 94/94/94
f 136/136/136 93/93/93 94/94/94
