g LP_Door Lock
v -0.003837969 -5.165304E-10 0.001126935
v -0.003999998 -5.165304E-10 0
v -0.003999998 0.0005000006 0
v -0.003331135 -5.165304E-10 1.192093E-09
v -0.003837969 0.0005000006 0.001126935
v -0.00360149 -5.165304E-10 0.001644751
v -0.003331135 0.0005000006 0
v -0.002664908 -5.165304E-10 1.192093E-09
v -0.00360149 0.0005000006 0.001644751
v -0.00336501 -5.165304E-10 0.002162567
v -0.003262274 0.0005000006 0.0009578943
v -0.002664908 0.0002000006 1.192093E-09
v 0.002664913 -5.165304E-10 -1.192093E-09
v -0.002609818 0.0002000006 0.0008621049
v 0.002664913 0.0002000008 -1.192093E-09
v 0.00333114 -5.165304E-10 -1.192093E-09
v -0.003061266 0.0005000006 0.001398039
v -0.00336501 0.0003500006 0.002162567
v -0.002619438 -5.165304E-10 0.003023001
v -0.002449012 0.0002000006 0.001214219
v -0.002860259 0.0003500006 0.001838182
v -0.002619438 0.0003500006 0.003023001
v -0.002140547 -5.165304E-10 0.003330765
v 0.002609823 0.0002000008 0.0008621013
v 0.00333114 0.0005000008 0
v 0.004000002 -5.165304E-10 -1.192093E-09
v -0.002226523 0.0003500006 0.00256955
v -0.002140547 0.0005000007 0.003330765
v -0.001661655 -5.165304E-10 0.00363853
v 0.003262278 0.0005000008 0.0009578895
v -0.001819465 0.0005000007 0.00283115
v -0.001661655 0.0005000007 0.00363853
v -0.0005692546 -5.165304E-10 0.003959286
v -0.001412407 0.0005000007 0.00309275
v -0.0005692546 0.0005000007 0.003959286
v 0.0005692637 -5.165304E-10 0.003959286
v -0.0004838661 0.0005000007 0.003365393
v 0.0005692637 0.0005000007 0.003959286
v 0.001661664 -5.165304E-10 0.003638527
v 0.0004838744 0.0005000007 0.003365393
v 0.001661664 0.0005000008 0.003638527
v 0.002140555 -5.165304E-10 0.003330761
v 0.001412415 0.0005000008 0.003092748
v 0.002140555 0.0005000008 0.003330761
v 0.002619446 -5.165304E-10 0.003022996
v 0.001819472 0.0005000008 0.002831148
v 0.002619446 0.0003500008 0.003022996
v 0.003365017 -5.165304E-10 0.002162561
v 0.002226529 0.0003500008 0.002569547
v 0.001455578 0.0002000008 0.002360707
v 0.001129932 0.0002000008 0.002569988
v 0.0003871 0.0002000007 0.002788102
v -0.0003870925 0.0002000007 0.002788104
v -0.001129925 0.0002000007 0.002569989
v -0.001455572 0.0002000007 0.00236071
v 0.001781224 0.0002000008 0.002151427
v -0.001781218 0.0002000006 0.00215143
v 0.002288212 0.0002000008 0.001566331
v -0.002288206 0.0002000006 0.001566335
v 0.002449017 0.0002000008 0.001214216
v 0.002860264 0.0003500008 0.001838177
v 0.003061271 0.0005000008 0.001398034
v 0.003365017 0.0003500008 0.002162561
v 0.003601495 -5.165304E-10 0.001644745
v 0.003601495 0.0005000008 0.001644745
v 0.003837974 -5.165304E-10 0.001126928
v 0.003837974 0.0005000008 0.001126928
v 0.004000002 0.0005000008 -1.192093E-09
v -0.003837969 -5.165304E-10 0.001126935
v -0.003999998 -0.0005000017 0
v -0.003999998 -5.165304E-10 0
v -0.003331135 -5.165304E-10 1.192093E-09
v -0.003837969 -0.0005000017 0.001126935
v -0.00360149 -5.165304E-10 0.001644751
v -0.003331135 -0.0005000017 0
v -0.002664908 -5.165304E-10 1.192093E-09
v -0.00360149 -0.0005000017 0.001644751
v -0.00336501 -5.165304E-10 0.002162567
v -0.003262274 -0.0005000017 0.0009578943
v -0.002664908 -0.0002000017 1.192093E-09
v 0.002664913 -5.165304E-10 -1.192093E-09
v -0.002609818 -0.0002000017 0.0008621049
v 0.002664913 -0.0002000018 -1.192093E-09
v 0.00333114 -5.165304E-10 -1.192093E-09
v -0.003061266 -0.0005000017 0.001398039
v -0.00336501 -0.0003500017 0.002162567
v -0.002619438 -5.165304E-10 0.003023001
v -0.002449012 -0.0002000017 0.001214219
v -0.002860259 -0.0003500017 0.001838182
v -0.002619438 -0.0003500017 0.003023001
v -0.002140547 -5.165304E-10 0.003330765
v 0.002609823 -0.0002000018 0.0008621013
v 0.00333114 -0.0005000018 0
v 0.004000002 -5.165304E-10 -1.192093E-09
v -0.002226523 -0.0003500017 0.00256955
v -0.002140547 -0.0005000017 0.003330765
v -0.001661655 -5.165304E-10 0.00363853
v 0.003262278 -0.0005000018 0.0009578895
v -0.001819465 -0.0005000017 0.00283115
v -0.001661655 -0.0005000018 0.00363853
v -0.0005692546 -5.165304E-10 0.003959286
v -0.001412407 -0.0005000018 0.00309275
v -0.0005692546 -0.0005000018 0.003959286
v 0.0005692637 -5.165304E-10 0.003959286
v -0.0004838661 -0.0005000018 0.003365393
v 0.0005692637 -0.0005000018 0.003959286
v 0.001661664 -5.165304E-10 0.003638527
v 0.0004838744 -0.0005000018 0.003365393
v 0.001661664 -0.0005000018 0.003638527
v 0.002140555 -5.165304E-10 0.003330761
v 0.001412415 -0.0005000018 0.003092748
v 0.002140555 -0.0005000018 0.003330761
v 0.002619446 -5.165304E-10 0.003022996
v 0.001819472 -0.0005000018 0.002831148
v 0.002619446 -0.0003500018 0.003022996
v 0.003365017 -5.165304E-10 0.002162561
v 0.002226529 -0.0003500018 0.002569547
v 0.001455578 -0.0002000018 0.002360707
v 0.001129932 -0.0002000018 0.002569988
v 0.0003871 -0.0002000018 0.002788102
v -0.0003870925 -0.0002000018 0.002788104
v -0.001129925 -0.0002000018 0.002569989
v -0.001455572 -0.0002000017 0.00236071
v 0.001781224 -0.0002000018 0.002151427
v -0.001781218 -0.0002000017 0.00215143
v 0.002288212 -0.0002000018 0.001566331
v -0.002288206 -0.0002000017 0.001566335
v 0.002449017 -0.0002000018 0.001214216
v 0.002860264 -0.0003500018 0.001838177
v 0.003061271 -0.0005000018 0.001398034
v 0.003365017 -0.0003500018 0.002162561
v 0.003601495 -5.165304E-10 0.001644745
v 0.003601495 -0.0005000018 0.001644745
v 0.003837974 -5.165304E-10 0.001126928
v 0.003837974 -0.0005000018 0.001126928
v 0.004000002 -0.0005000018 -1.192093E-09
vt 0.899371 0.9694538
vt 0.9694751 0.9658142
vt 0.958415 0.9468331
vt 0.9934896 0.9243858
vt 0.9036718 0.9401107
vt 0.8593922 0.9592828
vt 0.9651895 0.9180046
vt 0.996285 0.8743673
vt 0.8725252 0.9288695
vt 0.8201593 0.9388744
vt 0.9126206 0.9076739
vt 0.9813287 0.8739594
vt 0.996245 0.4736602
vt 0.922554 0.8642652
vt 0.9812844 0.4740662
vt 0.9934762 0.4236188
vt 0.8860548 0.895293
vt 0.8346943 0.9171472
vt 0.74974 0.882577
vt 0.899471 0.8516726
vt 0.8560798 0.8802127
vt 0.7686583 0.8627959
vt 0.7176083 0.847306
vt 0.922445 0.4836874
vt 0.9651601 0.4299846
vt 0.969475 0.3821657
vt 0.8030152 0.8340518
vt 0.7477909 0.8250437
vt 0.6935057 0.806094
vt 0.9125584 0.4402688
vt 0.7827972 0.8039172
vt 0.7275244 0.7914792
vt 0.6690937 0.7192517
vt 0.7657931 0.7747648
vt 0.7056764 0.7142341
vt 0.6690642 0.6287857
vt 0.7475713 0.7084847
vt 0.7056467 0.6337883
vt 0.6934598 0.5419257
vt 0.7475243 0.6394665
vt 0.7274895 0.5565301
vt 0.7175446 0.500703
vt 0.7657124 0.5732044
vt 0.7477294 0.5229615
vt 0.7496766 0.4654132
vt 0.7827036 0.5440789
vt 0.7686132 0.4852093
vt 0.8201593 0.4090121
vt 0.8028916 0.5139804
vt 0.8214131 0.5697653
vt 0.8077239 0.5935866
vt 0.7932503 0.6465256
vt 0.7933794 0.7013935
vt 0.8078184 0.7543736
vt 0.8215166 0.7782043
vt 0.835079 0.5459031
vt 0.8351899 0.8020713
vt 0.875798 0.5086827
vt 0.8759035 0.8392556
vt 0.8993618 0.496268
vt 0.8559424 0.467661
vt 0.8859696 0.4526219
vt 0.834706 0.4307375
vt 0.8593906 0.3886379
vt 0.8724972 0.4190479
vt 0.899362 0.3784866
vt 0.9036421 0.4078292
vt 0.9584012 0.401144
vt 0.899371 0.9694538
vt 0.958415 0.9468331
vt 0.9694751 0.9658142
vt 0.9934896 0.9243858
vt 0.9036718 0.9401107
vt 0.8593922 0.9592828
vt 0.9651895 0.9180046
vt 0.996285 0.8743673
vt 0.8725252 0.9288695
vt 0.8201593 0.9388744
vt 0.9126206 0.9076739
vt 0.9813287 0.8739594
vt 0.996245 0.4736602
vt 0.922554 0.8642652
vt 0.9812844 0.4740662
vt 0.9934762 0.4236188
vt 0.8860548 0.895293
vt 0.8346943 0.9171472
vt 0.74974 0.882577
vt 0.899471 0.8516726
vt 0.8560798 0.8802127
vt 0.7686583 0.8627959
vt 0.7176083 0.847306
vt 0.922445 0.4836874
vt 0.9651601 0.4299846
vt 0.969475 0.3821657
vt 0.8030152 0.8340518
vt 0.7477909 0.8250437
vt 0.6935057 0.806094
vt 0.9125584 0.4402688
vt 0.7827972 0.8039172
vt 0.7275244 0.7914792
vt 0.6690937 0.7192517
vt 0.7657931 0.7747648
vt 0.7056764 0.7142341
vt 0.6690642 0.6287857
vt 0.7475713 0.7084847
vt 0.7056467 0.6337883
vt 0.6934598 0.5419257
vt 0.7475243 0.6394665
vt 0.7274895 0.5565301
vt 0.7175446 0.500703
vt 0.7657124 0.5732044
vt 0.7477294 0.5229615
vt 0.7496766 0.4654132
vt 0.7827036 0.5440789
vt 0.7686132 0.4852093
vt 0.8201593 0.4090121
vt 0.8028916 0.5139804
vt 0.8214131 0.5697653
vt 0.8077239 0.5935866
vt 0.7932503 0.6465256
vt 0.7933794 0.7013935
vt 0.8078184 0.7543736
vt 0.8215166 0.7782043
vt 0.835079 0.5459031
vt 0.8351899 0.8020713
vt 0.875798 0.5086827
vt 0.8759035 0.8392556
vt 0.8993618 0.496268
vt 0.8559424 0.467661
vt 0.8859696 0.4526219
vt 0.834706 0.4307375
vt 0.8593906 0.3886379
vt 0.8724972 0.4190479
vt 0.899362 0.3784866
vt 0.9036421 0.4078292
vt 0.9584012 0.401144
vn -0.9594927 0 0.2817336
vn -0.7557496 0 -0.6548608
vn -0.6208473 0.5702101 -0.5379674
vn 7.011845E-07 0 -1
vn -0.7066698 0.6764337 0.2074978
vn -0.9096315 0 0.4154161
vn 0.1501447 0.7289782 -0.6678678
vn 0 0 -1
vn -0.5724558 0.7299327 0.3734871
vn -0.841253 0 0.5406417
vn 0.1835272 0.9819955 -0.04475053
vn 0.1418142 0.6314263 -0.7623579
vn 0 0 -1
vn 0.2279127 0.9717775 -0.06086337
vn -0.1418137 0.6314267 -0.7623576
vn -1.899505E-07 0 -1
vn 0.2472147 0.9683957 0.03308836
vn -0.6026236 0.6352288 0.4830416
vn -0.6548597 0 0.7557505
vn 0.178346 0.9828316 -0.04727305
vn 0.174312 0.983823 0.04132418
vn -0.563886 0.6352288 0.5277471
vn -0.5406402 0 0.8412539
vn -0.2279126 0.9717775 -0.06086328
vn -0.1501443 0.7289796 -0.6678662
vn 0.7557492 0 -0.6548612
vn -0.002010513 0.9836144 -0.1802736
vn -0.4511536 0.7299327 0.513477
vn -0.4154145 0 0.9096323
vn -0.1835273 0.9819955 -0.04475043
vn 0.009264127 0.961907 -0.2732198
vn -0.3059543 0.6764337 0.6699474
vn -0.1423143 0 0.9898216
vn 0.08895373 0.9772943 -0.1923099
vn -0.1048149 0.6764339 0.7290069
vn 0.1423154 0 0.9898214
vn 0.03085411 0.976768 -0.2120667
vn 0.1048158 0.6764336 0.7290069
vn 0.4154165 0 0.9096313
vn -0.03085443 0.976768 -0.2120664
vn 0.3059558 0.6764337 0.6699467
vn 0.540642 0 0.8412528
vn -0.08895414 0.9772943 -0.1923098
vn 0.4511547 0.7299328 0.513476
vn 0.654861 0 0.7557493
vn -0.009264721 0.9619071 -0.2732195
vn 0.5638869 0.6352289 0.527746
vn 0.8412538 0 0.5406404
vn 0.002010087 0.9836144 -0.1802736
vn -0.08650947 0.9783572 -0.1879713
vn -0.1032479 0.9677429 -0.2298122
vn -0.03569811 0.9670433 -0.2520973
vn 0.03569771 0.9670432 -0.2520975
vn 0.1032474 0.967743 -0.2298122
vn 0.08650918 0.9783572 -0.1879716
vn -0.08517117 0.9912966 -0.1003829
vn 0.08517089 0.9912968 -0.1003829
vn -0.1064384 0.9918265 -0.07036346
vn 0.1064382 0.9918265 -0.0703636
vn -0.1783461 0.9828316 -0.04727291
vn -0.1743119 0.983823 0.04132438
vn -0.2472147 0.9683957 0.0330887
vn 0.6026243 0.6352287 0.4830409
vn 0.9096322 0 0.4154146
vn 0.5724564 0.7299326 0.3734863
vn 0.959493 0 0.2817324
vn 0.70667 0.6764337 0.2074969
vn 0.6208469 0.5702108 -0.5379674
vn -0.9594927 0 0.2817336
vn -0.6208474 -0.5702101 -0.5379675
vn -0.7557496 0 -0.6548608
vn 7.011845E-07 0 -1
vn -0.7066698 -0.6764337 0.2074978
vn -0.9096315 0 0.4154161
vn 0.1501446 -0.7289782 -0.6678678
vn 0 0 -1
vn -0.5724558 -0.7299327 0.3734871
vn -0.841253 0 0.5406417
vn 0.1835272 -0.9819955 -0.04475056
vn 0.1418142 -0.6314263 -0.7623579
vn 0 0 -1
vn 0.2279126 -0.9717775 -0.06086337
vn -0.1418137 -0.6314267 -0.7623576
vn -1.899505E-07 0 -1
vn 0.2472147 -0.9683957 0.03308832
vn -0.6026236 -0.6352288 0.4830416
vn -0.6548597 0 0.7557505
vn 0.178346 -0.9828316 -0.04727304
vn 0.174312 -0.983823 0.04132419
vn -0.563886 -0.6352287 0.527747
vn -0.5406402 0 0.8412539
vn -0.2279126 -0.9717775 -0.06086328
vn -0.1501443 -0.7289796 -0.6678662
vn 0.7557492 0 -0.6548612
vn -0.002010513 -0.9836144 -0.1802736
vn -0.4511537 -0.7299327 0.5134769
vn -0.4154145 0 0.9096323
vn -0.1835273 -0.9819955 -0.04475046
vn 0.009264127 -0.961907 -0.2732198
vn -0.3059543 -0.6764337 0.6699474
vn -0.1423143 0 0.9898216
vn 0.08895373 -0.9772943 -0.1923099
vn -0.1048149 -0.6764339 0.7290069
vn 0.1423154 0 0.9898214
vn 0.03085411 -0.976768 -0.2120667
vn 0.1048157 -0.6764337 0.729007
vn 0.4154165 0 0.9096313
vn -0.03085444 -0.976768 -0.2120664
vn 0.3059557 -0.6764337 0.6699467
vn 0.540642 0 0.8412528
vn -0.08895414 -0.9772943 -0.1923098
vn 0.4511547 -0.7299327 0.513476
vn 0.654861 0 0.7557493
vn -0.009264714 -0.9619071 -0.2732194
vn 0.5638869 -0.6352289 0.527746
vn 0.8412538 0 0.5406404
vn 0.002010101 -0.9836144 -0.1802736
vn -0.08650947 -0.9783572 -0.1879713
vn -0.1032479 -0.9677429 -0.2298121
vn -0.03569812 -0.9670433 -0.2520973
vn 0.03569771 -0.9670432 -0.2520976
vn 0.1032474 -0.967743 -0.2298121
vn 0.08650918 -0.9783572 -0.1879716
vn -0.08517116 -0.9912966 -0.1003828
vn 0.08517087 -0.9912968 -0.1003829
vn -0.1064384 -0.9918265 -0.07036348
vn 0.1064382 -0.9918265 -0.07036357
vn -0.1783461 -0.9828316 -0.04727291
vn -0.1743119 -0.983823 0.04132439
vn -0.2472147 -0.9683957 0.03308871
vn 0.6026243 -0.6352287 0.4830409
vn 0.9096322 0 0.4154146
vn 0.5724564 -0.7299326 0.3734863
vn 0.959493 0 0.2817324
vn 0.70667 -0.6764337 0.2074969
vn 0.6208469 -0.5702108 -0.5379674
g LP_Door Lock_0
f 3/3/3 2/2/2 1/1/1
f 4/4/4 2/2/2 3/3/3
f 5/5/5 3/3/3 1/1/1
f 5/5/5 1/1/1 6/6/6
f 7/7/7 4/4/4 3/3/3
f 8/8/8 4/4/4 7/7/7
f 9/9/9 5/5/5 6/6/6
f 9/9/9 6/6/6 10/10/10
f 5/5/5 11/11/11 3/3/3
f 11/11/11 7/7/7 3/3/3
f 12/12/12 8/8/8 7/7/7
f 13/13/13 8/8/8 12/12/12
f 14/14/14 12/12/12 7/7/7
f 11/11/11 14/14/14 7/7/7
f 15/15/15 13/13/13 12/12/12
f 12/12/12 14/14/14 15/15/15
f 16/16/16 13/13/13 15/15/15
f 17/17/17 11/11/11 5/5/5
f 9/9/9 17/17/17 5/5/5
f 18/18/18 9/9/9 10/10/10
f 18/18/18 10/10/10 19/19/19
f 20/20/20 14/14/14 11/11/11
f 17/17/17 20/20/20 11/11/11
f 21/21/21 17/17/17 9/9/9
f 18/18/18 21/21/21 9/9/9
f 20/20/20 17/17/17 21/21/21
f 22/22/22 18/18/18 19/19/19
f 22/22/22 19/19/19 23/23/23
f 14/14/14 24/24/24 15/15/15
f 14/14/14 20/20/20 24/24/24
f 25/25/25 16/16/16 15/15/15
f 16/16/16 25/25/25 26/26/26
f 27/27/27 21/21/21 18/18/18
f 22/22/22 27/27/27 18/18/18
f 28/28/28 22/22/22 23/23/23
f 28/28/28 23/23/23 29/29/29
f 15/15/15 24/24/24 30/30/30
f 25/25/25 15/15/15 30/30/30
f 31/31/31 27/27/27 22/22/22
f 28/28/28 31/31/31 22/22/22
f 32/32/32 28/28/28 29/29/29
f 32/32/32 29/29/29 33/33/33
f 34/34/34 31/31/31 28/28/28
f 32/32/32 34/34/34 28/28/28
f 35/35/35 32/32/32 33/33/33
f 35/35/35 33/33/33 36/36/36
f 37/37/37 34/34/34 32/32/32
f 35/35/35 37/37/37 32/32/32
f 38/38/38 35/35/35 36/36/36
f 38/38/38 36/36/36 39/39/39
f 40/40/40 37/37/37 35/35/35
f 38/38/38 40/40/40 35/35/35
f 41/41/41 38/38/38 39/39/39
f 41/41/41 39/39/39 42/42/42
f 43/43/43 40/40/40 38/38/38
f 41/41/41 43/43/43 38/38/38
f 44/44/44 41/41/41 42/42/42
f 44/44/44 42/42/42 45/45/45
f 46/46/46 43/43/43 41/41/41
f 44/44/44 46/46/46 41/41/41
f 47/47/47 44/44/44 45/45/45
f 47/47/47 45/45/45 48/48/48
f 49/49/49 46/46/46 44/44/44
f 47/47/47 49/49/49 44/44/44
f 46/46/46 50/50/50 43/43/43
f 50/50/50 46/46/46 49/49/49
f 43/43/43 51/51/51 40/40/40
f 50/50/50 51/51/51 43/43/43
f 40/40/40 52/52/52 37/37/37
f 51/51/51 52/52/52 40/40/40
f 52/52/52 53/53/53 37/37/37
f 53/53/53 52/52/52 51/51/51
f 37/37/37 53/53/53 34/34/34
f 54/54/54 53/53/53 51/51/51
f 53/53/53 54/54/54 34/34/34
f 54/54/54 51/51/51 50/50/50
f 34/34/34 54/54/54 31/31/31
f 54/54/54 55/55/55 31/31/31
f 55/55/55 54/54/54 50/50/50
f 55/55/55 27/27/27 31/31/31
f 55/55/55 50/50/50 56/56/56
f 50/50/50 49/49/49 56/56/56
f 55/55/55 57/57/57 27/27/27
f 57/57/57 55/55/55 56/56/56
f 27/27/27 57/57/57 21/21/21
f 58/58/58 56/56/56 49/49/49
f 57/57/57 56/56/56 58/58/58
f 57/57/57 59/59/59 21/21/21
f 59/59/59 57/57/57 58/58/58
f 20/20/20 21/21/21 59/59/59
f 20/20/20 59/59/59 60/60/60
f 59/59/59 58/58/58 60/60/60
f 20/20/20 60/60/60 24/24/24
f 61/61/61 58/58/58 49/49/49
f 61/61/61 60/60/60 58/58/58
f 61/61/61 49/49/49 47/47/47
f 24/24/24 60/60/60 62/62/62
f 60/60/60 61/61/61 62/62/62
f 30/30/30 24/24/24 62/62/62
f 63/63/63 61/61/61 47/47/47
f 62/62/62 61/61/61 63/63/63
f 63/63/63 47/47/47 48/48/48
f 63/63/63 48/48/48 64/64/64
f 65/65/65 62/62/62 63/63/63
f 65/65/65 63/63/63 64/64/64
f 30/30/30 62/62/62 65/65/65
f 65/65/65 64/64/64 66/66/66
f 67/67/67 30/30/30 65/65/65
f 67/67/67 65/65/65 66/66/66
f 25/25/25 30/30/30 67/67/67
f 67/67/67 66/66/66 26/26/26
f 68/68/68 25/25/25 67/67/67
f 68/68/68 67/67/67 26/26/26
f 25/25/25 68/68/68 26/26/26
f 71/71/71 70/70/70 69/69/69
f 71/71/71 72/72/72 70/70/70
f 70/70/70 73/73/73 69/69/69
f 69/69/69 73/73/73 74/74/74
f 72/72/72 75/75/75 70/70/70
f 72/72/72 76/76/76 75/75/75
f 73/73/73 77/77/77 74/74/74
f 74/74/74 77/77/77 78/78/78
f 79/79/79 73/73/73 70/70/70
f 75/75/75 79/79/79 70/70/70
f 76/76/76 80/80/80 75/75/75
f 76/76/76 81/81/81 80/80/80
f 80/80/80 82/82/82 75/75/75
f 82/82/82 79/79/79 75/75/75
f 81/81/81 83/83/83 80/80/80
f 82/82/82 80/80/80 83/83/83
f 81/81/81 84/84/84 83/83/83
f 79/79/79 85/85/85 73/73/73
f 85/85/85 77/77/77 73/73/73
f 77/77/77 86/86/86 78/78/78
f 78/78/78 86/86/86 87/87/87
f 82/82/82 88/88/88 79/79/79
f 88/88/88 85/85/85 79/79/79
f 85/85/85 89/89/89 77/77/77
f 89/89/89 86/86/86 77/77/77
f 85/85/85 88/88/88 89/89/89
f 86/86/86 90/90/90 87/87/87
f 87/87/87 90/90/90 91/91/91
f 92/92/92 82/82/82 83/83/83
f 88/88/88 82/82/82 92/92/92
f 84/84/84 93/93/93 83/83/83
f 93/93/93 84/84/84 94/94/94
f 89/89/89 95/95/95 86/86/86
f 95/95/95 90/90/90 86/86/86
f 90/90/90 96/96/96 91/91/91
f 91/91/91 96/96/96 97/97/97
f 92/92/92 83/83/83 98/98/98
f 83/83/83 93/93/93 98/98/98
f 95/95/95 99/99/99 90/90/90
f 99/99/99 96/96/96 90/90/90
f 96/96/96 100/100/100 97/97/97
f 97/97/97 100/100/100 101/101/101
f 99/99/99 102/102/102 96/96/96
f 102/102/102 100/100/100 96/96/96
f 100/100/100 103/103/103 101/101/101
f 101/101/101 103/103/103 104/104/104
f 102/102/102 105/105/105 100/100/100
f 105/105/105 103/103/103 100/100/100
f 103/103/103 106/106/106 104/104/104
f 104/104/104 106/106/106 107/107/107
f 105/105/105 108/108/108 103/103/103
f 108/108/108 106/106/106 103/103/103
f 106/106/106 109/109/109 107/107/107
f 107/107/107 109/109/109 110/110/110
f 108/108/108 111/111/111 106/106/106
f 111/111/111 109/109/109 106/106/106
f 109/109/109 112/112/112 110/110/110
f 110/110/110 112/112/112 113/113/113
f 111/111/111 114/114/114 109/109/109
f 114/114/114 112/112/112 109/109/109
f 112/112/112 115/115/115 113/113/113
f 113/113/113 115/115/115 116/116/116
f 114/114/114 117/117/117 112/112/112
f 117/117/117 115/115/115 112/112/112
f 118/118/118 114/114/114 111/111/111
f 114/114/114 118/118/118 117/117/117
f 119/119/119 111/111/111 108/108/108
f 119/119/119 118/118/118 111/111/111
f 120/120/120 108/108/108 105/105/105
f 120/120/120 119/119/119 108/108/108
f 121/121/121 120/120/120 105/105/105
f 120/120/120 121/121/121 119/119/119
f 121/121/121 105/105/105 102/102/102
f 121/121/121 122/122/122 119/119/119
f 122/122/122 121/121/121 102/102/102
f 119/119/119 122/122/122 118/118/118
f 122/122/122 102/102/102 99/99/99
f 123/123/123 122/122/122 99/99/99
f 122/122/122 123/123/123 118/118/118
f 95/95/95 123/123/123 99/99/99
f 118/118/118 123/123/123 124/124/124
f 117/117/117 118/118/118 124/124/124
f 125/125/125 123/123/123 95/95/95
f 123/123/123 125/125/125 124/124/124
f 125/125/125 95/95/95 89/89/89
f 124/124/124 126/126/126 117/117/117
f 124/124/124 125/125/125 126/126/126
f 127/127/127 125/125/125 89/89/89
f 125/125/125 127/127/127 126/126/126
f 89/89/89 88/88/88 127/127/127
f 127/127/127 88/88/88 128/128/128
f 126/126/126 127/127/127 128/128/128
f 128/128/128 88/88/88 92/92/92
f 126/126/126 129/129/129 117/117/117
f 128/128/128 129/129/129 126/126/126
f 117/117/117 129/129/129 115/115/115
f 128/128/128 92/92/92 130/130/130
f 129/129/129 128/128/128 130/130/130
f 92/92/92 98/98/98 130/130/130
f 129/129/129 131/131/131 115/115/115
f 129/129/129 130/130/130 131/131/131
f 115/115/115 131/131/131 116/116/116
f 116/116/116 131/131/131 132/132/132
f 130/130/130 133/133/133 131/131/131
f 131/131/131 133/133/133 132/132/132
f 130/130/130 98/98/98 133/133/133
f 132/132/132 133/133/133 134/134/134
f 98/98/98 135/135/135 133/133/133
f 133/133/133 135/135/135 134/134/134
f 98/98/98 93/93/93 135/135/135
f 134/134/134 135/135/135 94/94/94
f 93/93/93 136/136/136 135/135/135
f 135/135/135 136/136/136 94/94/94
f 136/136/136 93/93/93 94/94/94
