g Main_Wall02
v 10.10077 -0.05464077 -2.941589
v 10.10077 -0.05464077 -0.9814453
v 10.43579 -0.05464077 -0.9814453
v 10.43579 -0.05464077 -2.941589
v 10.10077 8.178711 2.941589
v 10.43579 8.178711 2.941589
v 10.43579 3.271484 2.941589
v 10.10077 3.271484 2.941589
v 10.10077 -0.05464077 2.941589
v 10.43579 -0.05464077 2.941589
v 10.10077 8.178711 -2.941589
v 10.43579 8.178711 -2.941589
v 10.43579 8.178711 -0.9814453
v 10.10077 8.178711 -0.9814453
v 10.43579 8.178711 0.9814453
v 10.10077 8.178711 0.9814453
v 10.10077 8.178711 2.941589
v 10.43579 8.178711 2.941589
v 10.10077 8.178711 -2.941589
v 10.43579 3.271484 -2.941589
v 10.43579 8.178711 -2.941589
v 10.10077 3.271484 -2.941589
v 10.10077 -0.05464077 -2.941589
v 10.43579 -0.05464077 -2.941589
v 10.10077 -0.05464077 2.941589
v 10.43579 -0.05464077 2.941589
v 10.43579 -0.05464077 0.9814453
v 10.10077 -0.05464077 0.9814453
v 10.10077 3.271484 -2.941589
v 10.10077 -0.05464077 -0.9814453
v 10.10077 -0.05464077 -2.941589
v 10.10077 3.271484 -0.9814453
v 10.10077 8.178711 -2.941589
v 10.10077 8.178711 -0.9814453
v 10.10077 8.178711 0.9814453
v 10.10077 3.271484 0.9814453
v 10.10077 8.178711 2.941589
v 10.10077 3.271484 2.941589
v 10.10077 -0.05464077 2.941589
v 10.10077 -0.05464077 0.9814453
v 10.43579 3.271484 0.9814453
v 10.43579 3.271484 -0.9814453
v 10.10077 3.271484 -0.9814453
v 10.10077 3.271484 0.9814453
v 10.43579 3.271484 -0.9814453
v 10.43579 -0.05464077 -0.9814453
v 10.10077 -0.05464077 -0.9814453
v 10.10077 3.271484 -0.9814453
v 10.43579 -0.05464077 0.9814453
v 10.43579 3.271484 0.9814453
v 10.10077 3.271484 0.9814453
v 10.10077 -0.05464077 0.9814453
vt 0.1734561 0.06944721
vt 0.385085 0.06795599
vt 0.3848158 0.03175386
vt 0.1732147 0.03327625
vt 0.8085626 0.9526249
vt 0.8444874 0.9525534
vt 0.8434569 0.4263559
vt 0.8075651 0.4264598
vt 0.8058943 0.07053136
vt 0.8417395 0.07040571
vt 0.1780775 0.9542908
vt 0.1782217 0.9901679
vt 0.3883783 0.9892954
vt 0.3882246 0.9534307
vt 0.598482 0.9888282
vt 0.5984111 0.9529813
vt 0.8085626 0.9526249
vt 0.8086181 0.9885437
vt 0.1780775 0.9542908
vt 0.1398828 0.4286033
vt 0.1421653 0.9544243
vt 0.1758813 0.4284108
vt 0.1734561 0.06944721
vt 0.137295 0.06969254
vt 0.8058943 0.07053136
vt 0.8057667 0.03468918
vt 0.5961311 0.03559294
vt 0.5962906 0.07143112
vt 0.1758813 0.4284108
vt 0.385085 0.06795599
vt 0.1734561 0.06944721
vt 0.3876231 0.4268918
vt 0.1780775 0.9542908
vt 0.3882246 0.9534307
vt 0.5984111 0.9529813
vt 0.5977508 0.4269603
vt 0.8085626 0.9526249
vt 0.8075651 0.4264598
vt 0.8058943 0.07053136
vt 0.5962906 0.07143112
vt 0.08675009 0.3588322
vt 0.08655512 0.5603029
vt 0.1211424 0.5603653
vt 0.1210936 0.358837
vt 0.08655512 0.5603029
vt 0.08580226 0.9045247
vt 0.1204844 0.9045939
vt 0.1211424 0.5603653
vt 0.08706409 0.01789016
vt 0.08675009 0.3588322
vt 0.1210936 0.358837
vt 0.1213641 0.01788718
vn 0 -1 0
vn 0 -1 0
vn 0 -1 0
vn 0 -1 0
vn 0 0 1
vn 0 0 1
vn 0 0 1
vn 0 0 1
vn 0 0 1
vn 0 0 1
vn 0 1 0
vn 0 1 0
vn 0 1 0
vn 0 1 0
vn 0 1 0
vn 0 1 0
vn 0 1 0
vn 0 1 0
vn 0 0 -1
vn 0 0 -1
vn 0 0 -1
vn 0 0 -1
vn 0 0 -1
vn 0 0 -1
vn 0 -1 0
vn 0 -1 0
vn 0 -1 0
vn 0 -1 0
vn -1 0 0
vn -1 0 0
vn -1 0 0
vn -1 0 0
vn -1 0 0
vn -1 0 0
vn -1 0 0
vn -1 0 0
vn -1 0 0
vn -1 0 0
vn -1 0 0
vn -1 0 0
vn 0 -1 0
vn 0 -1 0
vn 0 -1 0
vn 0 -1 0
vn 0 0 1
vn 0 0 1
vn 0 0 1
vn 0 0 1
vn 0 0 -1
vn 0 0 -1
vn 0 0 -1
vn 0 0 -1
g Main_Wall02_0
f 3/3/3 2/2/2 1/1/1
f 4/4/4 3/3/3 1/1/1
f 7/7/7 6/6/6 5/5/5
f 8/8/8 7/7/7 5/5/5
f 7/7/7 8/8/8 9/9/9
f 10/10/10 7/7/7 9/9/9
f 13/13/13 12/12/12 11/11/11
f 14/14/14 13/13/13 11/11/11
f 15/15/15 13/13/13 14/14/14
f 16/16/16 15/15/15 14/14/14
f 15/15/15 16/16/16 17/17/17
f 18/18/18 15/15/15 17/17/17
f 21/21/21 20/20/20 19/19/19
f 20/20/20 22/22/22 19/19/19
f 22/22/22 20/20/20 23/23/23
f 20/20/20 24/24/24 23/23/23
f 27/27/27 26/26/26 25/25/25
f 28/28/28 27/27/27 25/25/25
f 31/31/31 30/30/30 29/29/29
f 30/30/30 32/32/32 29/29/29
f 29/29/29 32/32/32 33/33/33
f 32/32/32 34/34/34 33/33/33
f 34/34/34 32/32/32 35/35/35
f 32/32/32 36/36/36 35/35/35
f 35/35/35 36/36/36 37/37/37
f 36/36/36 38/38/38 37/37/37
f 38/38/38 36/36/36 39/39/39
f 36/36/36 40/40/40 39/39/39
f 43/43/43 42/42/42 41/41/41
f 44/44/44 43/43/43 41/41/41
f 47/47/47 46/46/46 45/45/45
f 48/48/48 47/47/47 45/45/45
f 51/51/51 50/50/50 49/49/49
f 52/52/52 51/51/51 49/49/49
