g medkit_lock_LOD3
v -0.000274716 0.001138438 0.001079039
v -0.0002444202 0.000908449 0.0009003846
v -0.0002367543 0.00114826 0.0008037209
v 0.0002444202 0.000908449 0.0009003846
v 0.0002747161 0.001138438 0.001079039
v 0.0002367543 0.00114826 0.0008037208
v 9.238484E-05 0.0006960799 -0.0003099977
v -9.187741E-05 0.001049199 -0.0003535755
v 9.808065E-05 0.001038324 -0.0003522333
v -9.815094E-05 0.0007065189 -0.0003112859
v -0.0001458002 0.000862531 0.001212733
v 0.0002724674 0.001138129 0.001178209
v 0.0001337216 0.0006252336 -0.0005341124
v 0.0001450904 0.001085158 -0.0005913799
v -0.0001311786 0.001325631 0.001155503
v -0.0002726097 0.0008091672 -0.0005564677
v -0.0001458002 0.000862531 0.001212733
v 0.0001337216 0.0006252336 -0.0005341124
v 5.78976E-06 0.0009608374 -0.0003788476
v 0.0001302743 0.0006122322 -0.0007773197
v -0.000132467 0.0005908814 -0.0007755517
v -0.0001338043 0.0002958811 -0.001312454
v 0.0001549748 0.001088023 -0.0008398413
v 0.0001515959 -0.0004706673 -0.001234656
v 0.0001408042 4.358048E-07 -0.001861016
v -2.975736E-06 0.0009996803 -0.001309143
v -2.480179E-08 0.0007847024 -0.0003543995
v -0.000267538 -0.0003521976 -0.001649461
v -0.0001508037 0.001083068 -0.000840218
v 0.0001417514 -0.000938805 -0.001347758
v -0.0001338043 0.0002958811 -0.001312454
v -0.000132467 0.0005908814 -0.0007755517
v 0.0001515959 -0.0004706673 -0.001234656
v -9.464843E-05 -0.0006158327 -0.0005365314
v -9.993563E-05 -0.0006161588 -0.0005380147
v -9.792748E-05 -0.001078031 -0.0006038485
v -0.0001162925 -0.001317306 0.001113892
v -9.994817E-05 -0.001376527 0.00107747
v -0.0002480749 -0.0008448557 0.002341218
v -9.70638E-05 -0.0008652108 0.001168868
v 0.0001118989 -0.0007833214 0.002115739
v -9.464843E-05 -0.0006158327 -0.0005365314
v 0.0002045258 -0.0009898337 0.002375778
v 0.000146735 0.0004783622 0.002320789
v 0.0001118989 -0.0007833214 0.002115739
v -9.464843E-05 -0.0006158327 -0.0005365314
v 0.000146735 0.0004783622 0.002320789
v -0.0002609423 0.0007733478 0.002392755
v 0.0001280394 0.0009196392 0.001409369
v -0.0001393464 -4.334479E-06 0.002884912
v 0.000187417 0.0007529592 0.002704447
v 0.0001392961 0.001390327 0.001350519
v 0.0001280394 0.0009196392 0.001409369
v -0.0001367969 0.001360251 0.001354951
v -1.309868E-10 0.0009449683 0.0009258373
v -0.0001314473 0.0009252136 0.00140775
v 9.913152E-05 0.0009184988 0.0008822299
v -9.811891E-05 0.0009245846 0.0008811384
v -0.0001299998 0.001030362 -0.0008294833
v -9.813736E-05 0.001038353 -0.0003522369
v -9.815094E-05 0.0007065189 -0.0003112859
v -0.0001300003 0.0005980955 -0.0007761382
v 9.820753E-05 0.0007064897 -0.0003112823
v 9.808065E-05 0.001038324 -0.0003522333
v 0.0001300002 0.001030361 -0.0008294833
v 0.0001299997 0.0005980951 -0.0007761382
v -9.811891E-05 0.0009245846 0.0008811384
v -9.809767E-05 0.001206671 0.0008463269
v -0.0001299998 0.001348009 0.001355466
v -0.0001300003 0.0009112196 0.00140937
v 0.0001300001 0.001348009 0.001355466
v 9.809781E-05 0.001206671 0.0008463268
v 9.811847E-05 0.0009245843 0.0008811384
v 0.0001299997 0.0009112192 0.00140937
v 9.363044E-05 0.0009155997 0.0008822472
v 9.351079E-05 0.001215763 0.0008452047
v -9.809767E-05 0.001206671 0.0008463269
v -9.811891E-05 0.0009245846 0.0008811384
v -3.814491E-10 0.0005886878 -0.0005294133
v 0.0002311589 0.0007156002 -0.0005451688
v 0.0002310786 0.0009723294 -0.0005771544
v 2.82511E-10 0.00110141 -0.0005932501
v -0.0002310782 0.0009723299 -0.0005771544
v -0.0002311593 0.0007156009 -0.0005451689
v 9.255474E-11 0.001362499 0.001150777
v 0.0002304799 0.001233076 0.001166768
v 0.0002304383 0.000974706 0.001198714
v -4.037185E-10 0.00084609 0.001214629
v -0.0002304799 0.001233076 0.001166768
v -0.0002304388 0.0009747065 0.001198714
v -0.0001839643 0.001201234 0.0009461919
v -0.000278186 0.001126687 0.0007662193
v -0.0001839643 0.001057302 0.0007448404
v -0.000278186 0.001167289 0.001010371
v -0.0001839643 0.0009403014 0.001017386
v -0.000278186 0.000891838 0.0009003851
v -0.0001839643 0.001057302 0.0007448404
v -0.000278186 0.001126687 0.0007662193
v 0.0001839643 0.0009403013 0.0007833842
v 0.000278186 0.000891838 0.0009003851
v 0.000278186 0.001126687 0.0007662194
v 0.0001839643 0.001011495 0.001044317
v 0.000278186 0.001167289 0.001010371
v 0.0001839643 0.001212847 0.0009003849
v 0.000278186 0.001126687 0.0007662194
v 0.0001839643 0.0009403013 0.0007833842
vt 0.374711 0.9281346
vt 0.3619946 0.9507635
vt 0.3870236 0.9503604
vt 0.3619946 0.9507635
vt 0.3747109 0.9281345
vt 0.3870236 0.9503604
vt 0.4696601 0.9800313
vt 0.4452562 0.9686584
vt 0.4453458 0.9804787
vt 0.4695801 0.9681676
vt 0.4052282 0.8552338
vt 0.4049468 0.8715456
vt 0.4721949 0.8604159
vt 0.4718376 0.880136
vt 0.4047916 0.8902842
vt 0.4720492 0.9015812
vt 0.4051649 0.910122
vt 0.4722562 0.9152064
vt 0.3927053 0.9097888
vt 0.3711236 0.9077135
vt 0.3658994 0.9142849
vt 0.3408379 0.9151263
vt 0.3733996 0.8915858
vt 0.3054436 0.9060639
vt 0.3263142 0.8894243
vt 0.3587138 0.8861926
vt 0.3918394 0.8874502
vt 0.3154302 0.874488
vt 0.3732854 0.8814656
vt 0.2946842 0.8881546
vt 0.3417574 0.8625528
vt 0.3721553 0.8654779
vt 0.312788 0.8546177
vt 0.2711532 0.8576301
vt 0.2712409 0.8577719
vt 0.2692345 0.8781965
vt 0.192099 0.8788144
vt 0.1933521 0.8791371
vt 0.1407255 0.8740906
vt 0.1914462 0.858592
vt 0.1476754 0.913843
vt 0.2879564 0.9147325
vt 0.1399859 0.8923811
vt 0.08377755 0.9097819
vt 0.1486778 0.853528
vt 0.2711532 0.8576301
vt 0.08645755 0.853297
vt 0.0753366 0.8722582
vt 0.04249561 0.856207
vt 0.1062515 0.8808386
vt 0.08072827 0.8911903
vt 0.03124879 0.8907833
vt 0.03271823 0.9069895
vt 0.03114007 0.879938
vt 0.009735763 0.884993
vt 0.03241334 0.8640078
vt 0.008031287 0.8597724
vt 0.008435839 0.8643383
vt 0.3729953 0.881429
vt 0.3919306 0.8828566
vt 0.3934628 0.8662899
vt 0.3723352 0.8653474
vt 0.3925791 0.907864
vt 0.3917654 0.8911747
vt 0.3727411 0.8917468
vt 0.3713312 0.9078707
vt 0.008435839 0.8643383
vt 0.00971266 0.8813119
vt 0.03114326 0.8799334
vt 0.03220315 0.8636168
vt 0.03120346 0.890925
vt 0.009766051 0.8897982
vt 0.008694508 0.9067744
vt 0.03244995 0.9072113
vt 0.4184475 0.9801282
vt 0.4431048 0.9801179
vt 0.4430366 0.9681676
vt 0.4185123 0.9681676
vt 0.4100545 0.944995
vt 0.4180832 0.959496
vt 0.4343152 0.9594857
vt 0.4424723 0.9449848
vt 0.4343066 0.930489
vt 0.418074 0.930489
vt 0.4503125 0.9457701
vt 0.458497 0.9602298
vt 0.4748313 0.9602247
vt 0.4829601 0.945765
vt 0.4584925 0.9313077
vt 0.4748267 0.9313077
vt 0.3814847 0.9683283
vt 0.3981205 0.9619164
vt 0.3922025 0.9551346
vt 0.3793075 0.9759854
vt 0.3660743 0.9681033
vt 0.3562356 0.9677476
vt 0.3565078 0.9555823
vt 0.3507048 0.9534686
vt 0.3580068 0.9586999
vt 0.3562356 0.9677476
vt 0.3507048 0.9534686
vt 0.3691771 0.9702061
vt 0.3793075 0.9759854
vt 0.383787 0.9659642
vt 0.3981205 0.9619164
vt 0.3935129 0.952527
vn -0.9902361 -0.02371366 -0.1373683
vn -0.9902361 -0.02371366 -0.1373683
vn -0.9902361 -0.02371366 -0.1373683
vn 0.9902361 -0.02371366 -0.1373683
vn 0.9902361 -0.02371366 -0.1373683
vn 0.9902361 -0.02371366 -0.1373683
vn 0 0.122472 0.9924719
vn 0 0.122472 0.9924719
vn 0 0.122472 0.9924719
vn 0 0.122472 0.9924719
vn -0.4882208 -0.835472 0.2522438
vn 0.9891351 0.102057 0.1058109
vn 0.5238305 -0.8515756 0.02050886
vn 0.4849114 0.8373716 -0.2523285
vn -0.5162063 0.8561932 -0.02154675
vn -0.9884614 -0.1072146 -0.1070009
vn -0.4882208 -0.835472 0.2522438
vn 0.5238305 -0.8515756 0.02050886
vn 0.06470114 -0.7409501 0.668436
vn 0.6052302 -0.7436967 0.283922
vn -0.2426613 -0.9060657 0.3466415
vn -0.2390592 -0.4459508 0.8625419
vn -0.2180613 0.9504359 0.2216321
vn 0.8629715 0.3682187 0.3459699
vn 0.3328153 0.1271138 -0.9343854
vn 0.03705058 0.7317336 -0.680583
vn -0.01379454 0.9754755 0.219675
vn -0.8823425 -0.2152219 -0.4185107
vn 0.2107963 0.9751195 -0.0686072
vn 0.3529556 -0.8143464 -0.4607193
vn -0.2390592 -0.4459508 0.8625419
vn -0.2426613 -0.9060657 0.3466415
vn 0.8629715 0.3682187 0.3459699
vn -0.241709 0.9595421 0.144415
vn -0.8648214 0.4686217 0.1802156
vn -0.6798432 -0.722814 -0.1239075
vn -0.8546153 -0.4949524 0.1570187
vn 0.852872 -0.5138717 0.09244075
vn -0.8975607 -0.3952197 0.1954125
vn -0.9123996 0.4092309 0.007538223
vn 0.6817113 0.4754613 -0.556063
vn -0.241709 0.9595421 0.144415
vn 0.6036713 -0.6725838 0.4280328
vn 0.6704218 -0.209028 -0.7119282
vn 0.6817113 0.4754613 -0.556063
vn -0.241709 0.9595421 0.144415
vn 0.6704218 -0.209028 -0.7119282
vn -0.9229228 0.3541721 0.1509161
vn 0.4881831 -0.8635067 -0.1266236
vn -0.2926125 -0.09179998 0.9518144
vn 0.5093958 0.5174223 0.6875973
vn 0.255357 0.9592596 -0.1208879
vn 0.4881831 -0.8635067 -0.1266236
vn -0.4874853 0.8643686 -0.1233897
vn -0.08777191 0.7016869 -0.7070583
vn -0.5010062 -0.8550005 -0.1340411
vn -0.0255137 -0.9996732 0.001556458
vn -0.0255137 -0.9996732 0.001556458
vn -0.9977567 0.008209603 0.06643979
vn -0.9977567 0.008209603 0.06643979
vn -0.9977567 0.008209603 0.06643979
vn -0.9977567 0.008209603 0.06643979
vn 0.9977555 0.008362187 0.06643972
vn 0.9977555 0.008362187 0.06643972
vn 0.9977555 0.008362187 0.06643972
vn 0.9977555 0.008362187 0.06643972
vn -0.9981451 -0.007416048 -0.06042706
vn -0.9981451 -0.007416048 -0.06042706
vn -0.9981451 -0.007416048 -0.06042706
vn -0.9981451 -0.007416048 -0.06042706
vn 0.9981451 -0.007416048 -0.06042706
vn 0.9981451 -0.007416048 -0.06042706
vn 0.9981451 -0.007416048 -0.06042706
vn 0.9981451 -0.007416048 -0.06042706
vn 0 -0.122472 -0.9924719
vn 0 -0.122472 -0.9924719
vn 0 -0.122472 -0.9924719
vn 0 -0.122472 -0.9924719
vn 0 -0.1235727 -0.9923355
vn 0 -0.1235727 -0.9923355
vn 0 -0.1235727 -0.9923355
vn 0 -0.1235727 -0.9923355
vn 0 -0.1235727 -0.9923355
vn 0 -0.1235727 -0.9923355
vn 0 0.1226861 0.9924455
vn 0 0.1226861 0.9924455
vn 0 0.1226861 0.9924455
vn 0 0.1226861 0.9924455
vn 0 0.1226861 0.9924455
vn 0 0.1226861 0.9924455
vn 0.271102 0.9547623 0.1221988
vn -0.2711024 0.5886855 -0.7615465
vn -0.207652 -0.03198403 -0.9776798
vn 0.207649 0.6686944 0.7139536
vn -0.1377306 -0.6295996 0.764614
vn 0.1377327 -0.9858581 -0.0954637
vn -0.207652 -0.03198403 -0.9776798
vn -0.2711024 0.5886855 -0.7615465
vn 0.01065117 -0.6257941 -0.7799156
vn -0.01065098 -0.9939901 0.1089513
vn -0.2180885 0.4229318 -0.879526
vn 0.2180919 -0.3228347 0.9209852
vn 0.04587006 0.6425165 0.7648977
vn -0.04587003 0.9951934 -0.08652131
vn -0.2180885 0.4229318 -0.879526
vn 0.01065117 -0.6257941 -0.7799156
g medkit_lock_LOD3_0
f 3/3/3 2/2/2 1/1/1
f 6/6/6 5/5/5 4/4/4
f 9/9/9 8/8/8 7/7/7
f 8/8/8 10/10/10 7/7/7
f 13/13/13 12/12/12 11/11/11
f 13/13/13 14/14/14 12/12/12
f 14/14/14 15/15/15 12/12/12
f 16/16/16 15/15/15 14/14/14
f 17/17/17 15/15/15 16/16/16
f 18/18/18 17/17/17 16/16/16
f 21/21/21 20/20/20 19/19/19
f 21/21/21 22/22/22 20/20/20
f 22/22/22 23/23/23 20/20/20
f 23/23/23 22/22/22 24/24/24
f 23/23/23 24/24/24 25/25/25
f 23/23/23 25/25/25 26/26/26
f 23/23/23 26/26/26 27/27/27
f 25/25/25 28/28/28 26/26/26
f 28/28/28 29/29/29 26/26/26
f 29/29/29 27/27/27 26/26/26
f 25/25/25 24/24/24 30/30/30
f 25/25/25 30/30/30 28/28/28
f 29/29/29 28/28/28 31/31/31
f 32/32/32 29/29/29 31/31/31
f 31/31/31 28/28/28 33/33/33
f 34/34/34 33/33/33 28/28/28
f 34/34/34 28/28/28 35/35/35
f 36/36/36 35/35/35 28/28/28
f 36/36/36 28/28/28 30/30/30
f 35/35/35 36/36/36 37/37/37
f 36/36/36 30/30/30 38/38/38
f 39/39/39 37/37/37 38/38/38
f 40/40/40 35/35/35 37/37/37
f 40/40/40 37/37/37 39/39/39
f 30/30/30 24/24/24 41/41/41
f 38/38/38 30/30/30 41/41/41
f 42/42/42 41/41/41 24/24/24
f 41/41/41 43/43/43 38/38/38
f 43/43/43 39/39/39 38/38/38
f 43/43/43 41/41/41 44/44/44
f 40/40/40 39/39/39 45/45/45
f 45/45/45 46/46/46 40/40/40
f 47/47/47 45/45/45 39/39/39
f 48/48/48 47/47/47 39/39/39
f 49/49/49 47/47/47 48/48/48
f 43/43/43 50/50/50 39/39/39
f 39/39/39 50/50/50 48/48/48
f 43/43/43 51/51/51 50/50/50
f 43/43/43 44/44/44 51/51/51
f 50/50/50 51/51/51 48/48/48
f 51/51/51 44/44/44 52/52/52
f 48/48/48 51/51/51 52/52/52
f 44/44/44 53/53/53 52/52/52
f 54/54/54 48/48/48 52/52/52
f 52/52/52 55/55/55 54/54/54
f 54/54/54 56/56/56 48/48/48
f 48/48/48 56/56/56 49/49/49
f 49/49/49 56/56/56 57/57/57
f 56/56/56 58/58/58 57/57/57
f 61/61/61 60/60/60 59/59/59
f 62/62/62 61/61/61 59/59/59
f 65/65/65 64/64/64 63/63/63
f 66/66/66 65/65/65 63/63/63
f 69/69/69 68/68/68 67/67/67
f 70/70/70 69/69/69 67/67/67
f 73/73/73 72/72/72 71/71/71
f 74/74/74 73/73/73 71/71/71
f 77/77/77 76/76/76 75/75/75
f 78/78/78 77/77/77 75/75/75
f 81/81/81 80/80/80 79/79/79
f 79/79/79 82/82/82 81/81/81
f 79/79/79 83/83/83 82/82/82
f 79/79/79 84/84/84 83/83/83
f 87/87/87 86/86/86 85/85/85
f 85/85/85 88/88/88 87/87/87
f 85/85/85 89/89/89 88/88/88
f 89/89/89 90/90/90 88/88/88
f 93/93/93 92/92/92 91/91/91
f 92/92/92 94/94/94 91/91/91
f 95/95/95 91/91/91 94/94/94
f 94/94/94 96/96/96 95/95/95
f 96/96/96 97/97/97 95/95/95
f 98/98/98 97/97/97 96/96/96
f 101/101/101 100/100/100 99/99/99
f 100/100/100 102/102/102 99/99/99
f 103/103/103 102/102/102 100/100/100
f 103/103/103 104/104/104 102/102/102
f 103/103/103 105/105/105 104/104/104
f 104/104/104 105/105/105 106/106/106
