g medkit _zipper2_LOD3
v 0.0003835308 -0.001682579 0.001172934
v 0.0003835308 -0.0001357397 0.00161556
v 0.0003835308 -0.001549806 2.491134E-05
v 0.0003835308 0.001679018 0.001135832
v 0.0003835308 0.0009936433 0.001114865
v 0.0003835308 0.001616565 -4.619123E-06
v -0.0003826805 -0.001549806 2.491298E-05
v -0.0003826804 -0.0001324634 0.001615977
v -0.0003826804 -0.001682579 0.001172938
v 0.001471898 0.002362 -0.0009245622
v 0.001365072 -0.002723795 0
v 0.0009874328 0.002130338 0
v 0.0008788995 -0.002739193 -0.0009245622
v -0.001365072 -0.002723795 -0.0009245622
v -0.001471898 0.002362 0
v -0.0008788996 -0.002739193 0
v -0.0009874328 0.002130338 -0.0009245622
v 0.0003835307 -0.001329601 0
v 0.001883878 2.504594E-10 0
v 0.0008059199 -0.002335832 0
v -0.0003826804 -0.001614844 0
v -0.001883878 -1.610469E-10 0
v -0.0009098506 -0.002660632 0
v 0.0008059199 -0.002335832 0
v -0.0003826804 0.001614844 0
v -0.0009874328 0.002130338 0
v 0.0006598283 0.002086658 0
v 0.0003835307 0.001329601 0
v 0.0003854585 0.002331291 0.0001420951
v -0.0003809261 -0.002277357 0.0001343804
v -0.000380843 0.002276956 6.268516E-05
v 0.0003835301 -0.002289789 5.807702E-05
v -0.001230255 -0.01610537 -0.0009203051
v 0.0009540565 -0.015651 -0.001844441
v -0.001442043 -0.01556181 -0.002056814
v -0.00127304 -0.004865644 0.0006192532
v -0.001414797 -0.005133733 -0.0005859392
v 0.0009921782 -0.005062042 -0.0003881646
v 0.001825326 -0.004964633 0.0003654724
v -0.00127304 -0.004865644 0.0006192532
v 0.0009921782 -0.005062042 -0.0003881646
v 0.001862899 -0.01599096 -0.001196032
v 0.0009540565 -0.015651 -0.001844441
v -0.001230255 -0.01610537 -0.0009203051
v 0.001413332 -0.005353839 0.0009763255
v -0.0009897859 -0.005227298 0.0008084602
v 0.001276052 -0.004765537 -0.0001082257
v 0.000989776 -0.01584395 -0.0006734239
v 0.001825855 -0.01594116 -0.001426737
v -0.001276063 -0.01603705 -0.001681515
v -0.001413341 -0.01576821 -0.0004773234
v 0.000989776 -0.01584395 -0.0006734239
v -0.001276063 -0.01603705 -0.001681515
v -0.0009897859 -0.005227298 0.0008084602
v -0.001825866 -0.004927523 0.0001105606
v 0.001276052 -0.004765537 -0.0001082257
v -0.001560035 -0.01589142 -0.0003907577
v 0.001703526 -0.01545607 -0.0003300017
v 0.0004826217 -0.01655527 -0.0004834316
v -0.001703539 -0.005694389 0.001032549
v 0.001560024 -0.005259046 0.001093314
v -0.000482631 -0.004595186 0.001185974
v -0.0002147462 -0.002119119 0.0008422344
v -0.001126828 -0.004684828 0.0004841023
v -0.0008318245 -0.0007799229 0.001029151
v 0.001126415 -0.004693501 0.0004828894
v 0.0009703671 -0.001022267 0.0009953254
v 6.914119E-10 0.0001152715 0.0007720365
v 1.338327E-09 6.296084E-05 0.001146804
v -0.001126828 -0.004658673 0.0002967184
v 0.001126823 -0.004658674 0.000296716
v 0.0007390787 -0.0009027596 0.001012006
v 0.0002043835 -0.002054662 0.0006601876
v 0.0005988062 -0.0006800039 0.0006610291
v -0.0008179832 -0.001108295 0.0009833185
v -0.0008534137 -0.001273059 0.0005782514
v 0.0002043835 -0.002054662 0.0006601876
v -0.001883878 -1.610469E-10 -0.0009245622
v -0.0009098506 -0.002660632 -0.0009245622
v 0.0009098506 -0.002660632 -0.0009245622
v 0.001883878 2.447166E-10 -0.0009245622
v -0.0009874328 0.002130338 -0.0009245622
v 0.0009874328 0.002130338 -0.0009245622
v -0.00170354 -0.005448087 -0.0007320308
v 0.001560022 -0.005012743 -0.0006712708
v -0.0004826332 -0.004348885 -0.0005786002
v 0.001703524 -0.01520977 -0.002094578
v -0.001560037 -0.01564511 -0.002155348
v 0.0004826201 -0.01630897 -0.002248002
v 0.000586697 -0.0006919962 0.0006593591
v 0.0008245863 -0.0003127101 0.0007122966
v -0.0008706231 -0.0007403513 0.0006525974
v 0.0003936997 -0.001948423 0.0004839873
v 0.001126414 -0.00464119 0.0001081217
v -0.000681911 -0.001662979 0.0005238312
v -0.001126828 -0.004632518 0.0001093344
vt 0.8221695 0.7733867
vt 0.8538337 0.783201
vt 0.8244698 0.7505509
vt 0.8920479 0.7726147
vt 0.876524 0.7711874
vt 0.8921563 0.7492194
vt 0.8897815 0.7091764
vt 0.8603702 0.7418466
vt 0.8920818 0.7320123
vt 0.837499 0.1798072
vt 0.8575341 0.2897647
vt 0.8575341 0.1801251
vt 0.837499 0.2933909
vt 0.8374989 0.02769042
vt 0.8575339 0.1376481
vt 0.8575339 0.02406431
vt 0.8374989 0.1373302
vt 0.8500433 0.5432642
vt 0.8788554 0.5142616
vt 0.827013 0.5347935
vt 0.8438621 0.5598677
vt 0.8788554 0.5888886
vt 0.8212 0.5729726
vt 0.827013 0.5347935
vt 0.9138488 0.5598677
vt 0.9250194 0.5729726
vt 0.9225361 0.5366908
vt 0.9076675 0.543264
vt 0.9324946 0.8045883
vt 0.9158955 0.6746635
vt 0.9158948 0.8037956
vt 0.9324997 0.6748267
vt 0.8581403 0.8557587
vt 0.8516014 0.8712285
vt 0.8664848 0.8627559
vt 0.9836293 0.8557596
vt 0.975334 0.8627697
vt 0.990173 0.8712285
vt 0.863133 0.9064436
vt 0.8440636 0.9173511
vt 0.8628004 0.9184275
vt 0.9786065 0.9064339
vt 0.9790304 0.918451
vt 0.9977108 0.917351
vt 0.975307 0.8359843
vt 0.990173 0.844451
vt 0.9835809 0.8289602
vt 0.862578 0.8381962
vt 0.8631654 0.8261108
vt 0.8440636 0.8370185
vt 0.9753071 0.8895394
vt 0.990173 0.898006
vt 0.9835811 0.8825153
vt 0.862578 0.8917512
vt 0.8631655 0.8796659
vt 0.8440636 0.8905736
vt 0.7954134 0.61682
vt 0.7646803 0.6135585
vt 0.7767345 0.6239709
vt 0.7980528 0.5130906
vt 0.7673197 0.5098292
vt 0.7859986 0.5026782
vt 0.8473148 0.4368183
vt 0.831939 0.392347
vt 0.8383868 0.4537373
vt 0.8677061 0.3923469
vt 0.8648026 0.4507846
vt 0.908119 0.7593905
vt 0.9045109 0.7593534
vt 0.906315 0.8085842
vt 0.906315 0.7105327
vt 0.8645669 0.8027209
vt 0.8925223 0.79861
vt 0.8607888 0.794499
vt 0.8280017 0.802721
vt 0.8240644 0.7944989
vt 0.8012384 0.79861
vt 0.8788554 0.5965196
vt 0.8212 0.6124357
vt 0.8212 0.6552306
vt 0.8788554 0.6711468
vt 0.9250194 0.6124357
vt 0.9250194 0.6552306
vt 0.7652592 0.6459728
vt 0.7959923 0.6427114
vt 0.7773134 0.6355605
vt 0.7986317 0.7464408
vt 0.7678987 0.7497023
vt 0.7865776 0.7568532
vt 0.8119613 0.4787187
vt 0.8069281 0.4755599
vt 0.8096461 0.4973006
vt 0.8279274 0.4801976
vt 0.8726699 0.4677017
vt 0.8242077 0.4946848
vt 0.8726699 0.5034689
vn 1 0 0
vn 1 0 0
vn 1 0 0
vn 1 0 0
vn 1 0 0
vn 1 0 0
vn -1 0 0
vn -1 0 0
vn -1 0 0
vn 0.9317501 0.04590083 0.3601872
vn 0.9278384 -0.0854837 -0.363054
vn 0.8765772 0.06818026 0.4764073
vn 0.8811408 -0.1024213 -0.4616285
vn -0.9278384 -0.0854837 0.363054
vn -0.9317501 0.04590083 -0.3601872
vn -0.8811408 -0.1024213 0.4616285
vn -0.8765772 0.06818026 -0.4764073
vn 0 0 1
vn 0 0 1
vn 0 0 1
vn 0 0 1
vn 0 0 1
vn 0 0 1
vn 0 0 1
vn 0 0 1
vn 0 0 1
vn 0 0 1
vn 0 0 1
vn -0.08197364 0.01196339 0.9965627
vn 0.0779765 -0.01461869 0.9968479
vn -0.104162 0.01565634 0.9944371
vn 0.09900388 -0.01812833 0.9949219
vn -0.616152 -0.7425015 -0.2627703
vn 0.3218898 -0.604745 -0.7284713
vn -0.8271349 -0.5466928 -0.130287
vn -0.6170972 0.7834876 -0.07306284
vn -0.828907 0.5593596 -0.005462974
vn 0.3385237 0.7846291 -0.519383
vn 0.5049494 0.5430075 -0.6709464
vn -0.6170972 0.7834876 -0.07306284
vn 0.3385237 0.7846291 -0.519383
vn 0.4948419 -0.3159065 -0.8095275
vn 0.3218898 -0.604745 -0.7284713
vn -0.616152 -0.7425015 -0.2627703
vn 0.7217514 0.4515943 0.5245355
vn -0.5191604 0.6781344 0.5201981
vn 0.5333592 0.6472886 0.5445598
vn 0.5191622 -0.7946591 0.3146225
vn 0.7764413 -0.5204149 0.3553971
vn -0.5333593 -0.7716557 0.3465187
vn -0.72175 -0.5779737 0.3808194
vn 0.5191622 -0.7946591 0.3146225
vn -0.5333593 -0.7716557 0.3465187
vn -0.5191604 0.6781344 0.5201981
vn -0.7764489 0.4031943 0.4843154
vn 0.5333592 0.6472886 0.5445598
vn 0 -0.1382204 0.9904014
vn 0 -0.1382204 0.9904014
vn 0 -0.1382204 0.9904014
vn 0 -0.1382204 0.9904014
vn 0 -0.1382204 0.9904014
vn 0 -0.1382204 0.9904014
vn 0 -0.1382204 0.9904014
vn 0 -0.1382204 0.9904014
vn 0 -0.1382204 0.9904014
vn 0 -0.1382204 0.9904014
vn 0 -0.1382204 0.9904014
vn 0 0.9904014 0.1382204
vn 0 0.9904014 0.1382204
vn -0.9734733 0.2266056 0.03161797
vn 0.9734733 0.2266056 0.03161797
vn -0.7088094 -0.561554 0.4269031
vn -0.2588034 0.9566571 0.1335218
vn -0.3522478 -0.9086357 0.2242825
vn 0.7395151 -0.5227665 -0.4240668
vn 0.8624153 -0.006225944 -0.5061631
vn -0.2588034 0.9566571 0.1335218
vn 0 0 -1
vn 0 0 -1
vn 0 0 -1
vn 0 0 -1
vn 0 0 -1
vn 0 0 -1
vn 0 0.1382204 -0.9904014
vn 0 0.1382204 -0.9904014
vn 0 0.1382204 -0.9904014
vn 0 0.1382204 -0.9904014
vn 0 0.1382204 -0.9904014
vn 0 0.1382204 -0.9904014
vn 0 0.1382204 -0.9904014
vn 0 0.1382204 -0.9904014
vn 3.051896E-05 0.1382204 -0.9904014
vn 0 0.1382204 -0.9904014
vn 0 0.1382204 -0.9904014
vn 3.051896E-05 0.1382204 -0.9904014
vn 0 0.1382204 -0.9904014
g medkit _zipper2_LOD3_0
f 3/3/3 2/2/2 1/1/1
f 5/5/5 4/4/4 2/2/2
f 4/4/4 5/5/5 6/6/6
f 9/9/9 8/8/8 7/7/7
f 12/12/12 11/11/11 10/10/10
f 10/10/10 11/11/11 13/13/13
f 16/16/16 15/15/15 14/14/14
f 14/14/14 15/15/15 17/17/17
f 20/20/20 19/19/19 18/18/18
f 21/21/21 18/18/18 19/19/19
f 22/22/22 21/21/21 19/19/19
f 22/22/22 23/23/23 21/21/21
f 23/23/23 24/24/24 21/21/21
f 25/25/25 22/22/22 19/19/19
f 26/26/26 22/22/22 25/25/25
f 27/27/27 26/26/26 25/25/25
f 28/28/28 25/25/25 19/19/19
f 19/19/19 27/27/27 28/28/28
f 31/31/31 30/30/30 29/29/29
f 29/29/29 30/30/30 32/32/32
f 35/35/35 34/34/34 33/33/33
f 35/35/35 33/33/33 36/36/36
f 37/37/37 35/35/35 36/36/36
f 38/38/38 37/37/37 36/36/36
f 41/41/41 40/40/40 39/39/39
f 39/39/39 42/42/42 41/41/41
f 42/42/42 43/43/43 41/41/41
f 44/44/44 43/43/43 42/42/42
f 47/47/47 46/46/46 45/45/45
f 47/47/47 45/45/45 48/48/48
f 49/49/49 47/47/47 48/48/48
f 50/50/50 49/49/49 48/48/48
f 53/53/53 52/52/52 51/51/51
f 51/51/51 54/54/54 53/53/53
f 54/54/54 55/55/55 53/53/53
f 56/56/56 55/55/55 54/54/54
f 59/59/59 58/58/58 57/57/57
f 60/60/60 57/57/57 58/58/58
f 61/61/61 60/60/60 58/58/58
f 62/62/62 60/60/60 61/61/61
f 65/65/65 64/64/64 63/63/63
f 64/64/64 66/66/66 63/63/63
f 66/66/66 67/67/67 63/63/63
f 70/70/70 69/69/69 68/68/68
f 68/68/68 69/69/69 71/71/71
f 74/74/74 73/73/73 72/72/72
f 74/74/74 72/72/72 75/75/75
f 76/76/76 74/74/74 75/75/75
f 77/77/77 76/76/76 75/75/75
f 80/80/80 79/79/79 78/78/78
f 81/81/81 80/80/80 78/78/78
f 81/81/81 78/78/78 82/82/82
f 83/83/83 81/81/81 82/82/82
f 86/86/86 85/85/85 84/84/84
f 85/85/85 87/87/87 84/84/84
f 87/87/87 88/88/88 84/84/84
f 87/87/87 89/89/89 88/88/88
f 92/92/92 91/91/91 90/90/90
f 93/93/93 90/90/90 91/91/91
f 94/94/94 93/93/93 91/91/91
f 94/94/94 95/95/95 93/93/93
f 96/96/96 92/92/92 95/95/95
f 94/94/94 96/96/96 95/95/95
