g medkit_zipper1_LOD2
v 0.001471898 0.002362 -0.0009245622
v 0.001365072 -0.002723795 0
v 0.0009874328 0.002130338 0
v 0.0008788995 -0.002739193 -0.0009245622
v -0.001365072 -0.002723795 -0.0009245622
v -0.001471898 0.002362 0
v -0.0008788996 -0.002739193 0
v -0.0009874328 0.002130338 -0.0009245622
v -0.0003826804 -0.001900087 0
v -0.0003821878 -0.001210492 0.001674484
v 0.0003835301 -0.002289789 5.807702E-05
v 0.0003832466 0.001201172 0.001646001
v -0.000380843 0.002276956 6.268516E-05
v 0.0003835307 0.001900087 0
v 0.0003835307 -0.001900087 0
v 0.0003835308 -0.001682579 0.001172934
v 0.0003835308 -0.001393772 0.0001012948
v 0.0003835308 -0.0007158436 0.001207837
v 0.0003835308 1.358218E-05 0.001768689
v 0.0003835308 0.0009936433 0.001114865
v 0.0003835308 0.001679018 0.001135832
v 0.0003835307 0.001900087 0
v 0.0003835307 0.001329601 0
v -0.0009874328 0.002130338 -0.0009245622
v 0.001721916 0.000710113 -0.0009245622
v 0.0009874328 0.002130338 -0.0009245622
v -0.001721916 0.0007101127 -0.0009245622
v 0.001721916 -0.0007101127 -0.0009245622
v -0.001721916 -0.0007101129 -0.0009245622
v 0.0009098506 -0.002660632 -0.0009245622
v -0.0009098506 -0.002660632 -0.0009245622
v 0.0005769649 -0.004312617 0.0004456106
v -0.001793632 -0.005221938 0.0003932434
v -0.0004620537 -0.00467905 -0.0005232397
v -0.001678702 -0.005686811 -0.0007083233
v -0.00218011 -0.0157314 -0.00121802
v -0.001387983 -0.01573755 -0.002009355
v -0.0005745647 -0.01700212 -0.001305719
v 0.0004618416 -0.01645391 -0.002186567
v 0.0005769649 -0.004312617 0.0004456106
v -0.0004620537 -0.00467905 -0.0005232397
v 0.00144204 -0.005335861 -0.0005903677
v 0.002160287 -0.00561365 0.0002094012
v 0.001862922 -0.01620675 -0.001191368
v 0.001658632 -0.01540399 -0.00205699
v 0.0004618416 -0.01645391 -0.002186567
v -0.0005745647 -0.01700212 -0.001305719
v 0.0004452931 -0.004938762 0.001095919
v -0.0005745736 -0.004334135 0.0002573799
v 0.001862174 -0.00513073 0.0001418797
v 0.001664867 -0.005924417 0.001014639
v 0.001678725 -0.01564944 -0.0003400166
v 0.002165065 -0.0157246 -0.001255302
v 0.0004620752 -0.0166572 -0.0005251009
v 0.0005769713 -0.01702364 -0.001493954
v -0.0009801508 -0.0007784285 0.0006882603
v 4.247261E-09 -0.0001537512 0.001157793
v -0.001126818 -0.004875051 0.0003058477
v 0.0008801781 -0.0005892676 0.0007147365
v 0.001126832 -0.004875048 0.0003058439
v -0.0009874328 0.002130338 0
v -0.0009874328 0.002130338 -0.0009245622
v 0.0009874328 0.002130338 -0.0009245622
v 0.0009874328 0.002130338 0
v 0.0003837059 0.0004268056 0.001508311
v 0.0003835307 0.001329601 0
v -0.0003826804 0.001329601 0
v -0.0003829004 0.0004197502 0.001457304
v -0.0003826798 -0.001446263 1.775352E-05
v 0.0003835312 -0.001399519 1.064014E-05
v -0.0003826804 0.001244392 0.0006614843
v -0.0003826804 0.001329601 0
v -0.0003826804 0.001900087 0
v -0.0003826804 0.00166962 0.001131015
v -0.0003826804 0.0007464024 0.001208141
v -0.0003826804 1.321798E-05 0.001767895
v -0.0003826804 -0.0007168476 0.001207215
v -0.0003826804 -0.001682579 0.001172938
v -0.0003826805 -0.001393772 0.0001012977
v -0.0003826804 -0.001900087 0
v 0.0009874328 -0.002740877 0
v 0.0009874328 -0.002740877 -0.0009245622
v -0.0009874328 -0.002740877 -0.0009245622
v -0.0009874328 -0.002740877 0
v 0.0005769713 -0.01702364 -0.001493954
v -0.001442016 -0.0160004 -0.0004579735
v 0.0004620752 -0.0166572 -0.0005251009
v -0.001793031 -0.01611223 -0.001442515
v -0.002184344 -0.005603717 0.0001721956
v -0.001414782 -0.005568692 0.0009869764
v -0.0005745736 -0.004334135 0.0002573799
v 0.0004452931 -0.004938762 0.001095919
v -0.0004826233 -0.004564917 -0.0005693465
v 0.001703542 -0.005664058 -0.0007232168
v 0.0009052503 -0.004795938 -0.0006016935
v -0.001703529 -0.005664059 -0.0007232113
v -0.001703523 -0.0154252 -0.002089604
v 0.001703549 -0.0154252 -0.002089608
v 0.0004826431 -0.01652434 -0.002243466
v -0.0009052297 -0.01629332 -0.002211128
v 0.000482649 -0.01677134 -0.0004789814
v -0.0009052267 -0.01654032 -0.0004466471
v -0.00170352 -0.0156722 -0.000325123
v 0.001703552 -0.01567219 -0.0003251283
v -0.001703526 -0.005911059 0.00104127
v 0.001703546 -0.005911055 0.001041265
v 0.0009052533 -0.005042936 0.001162788
v -0.0004826211 -0.004811913 0.001195126
v 0.0002791651 -0.0007690326 0.001071662
v 0.0005363654 -0.002167916 0.0008758419
v 0.0004408734 -0.002245778 0.0004828529
v 0.000342773 -0.0007896514 0.000686686
v -0.0007838639 -0.00128154 0.0006178321
v -0.0008155142 -0.001689065 0.000942876
v 0.0004408734 -0.002245778 0.0004828529
v 0.0005363654 -0.002167916 0.0008758419
v -0.0005322842 -0.001014856 0.001037255
v -0.0007271153 -0.001734956 0.0009364521
v -0.0009709356 -0.0008449371 0.00106104
v 0.0001948367 -0.0008219048 0.001064266
v -0.001126818 -0.00490128 0.0004932216
v 0.0003003876 -0.0004317841 0.001118876
v -0.0001948256 -0.002262105 0.0008626581
v 0.001126425 -0.004909948 0.0004920034
v 0.0005322956 -0.002069154 0.0008896691
v 0.001060265 -0.001115876 0.00102311
v 0.0007271261 -0.001349055 0.0009904674
v -0.0009709366 -0.000792479 0.0006862925
v -0.0003936949 -0.002164874 0.0004941824
v -0.0006819059 -0.00109965 0.0006432938
v 0.0003937044 -0.0008142206 0.0006832496
v -0.001126818 -0.004848822 0.0001184738
v 0.0003003875 -0.0003793257 0.0007441282
v 0.001126424 -0.00485749 0.0001172568
v 0.001060265 -0.001063417 0.0006483603
v 0.0006819154 -0.001879446 0.0005341364
v 0.0009874328 0.002130338 0
v 0.0003835307 0.001900087 0
v -0.0003826804 0.001900087 0
v 0.0003835307 0.001329601 0
v -0.0009874328 0.002130338 0
v 0.001721916 0.000710113 0
v -0.0003826804 0.001329601 0
v -0.001721916 0.0007101127 0
v 0.001721916 -0.0007101127 0
v -0.001721916 -0.0007101129 0
v -0.0003826804 -0.001329601 0
v -0.0009098506 -0.002660632 0
v 0.0003835307 -0.001329601 0
v -0.0003826804 -0.001900087 0
v 0.0009098506 -0.002660632 0
v 0.0003835307 -0.001900087 0
vt 0.837499 0.1798072
vt 0.8575341 0.2897647
vt 0.8575341 0.1801251
vt 0.837499 0.2933909
vt 0.8374989 0.02769042
vt 0.8575339 0.1376481
vt 0.8575339 0.02406431
vt 0.8374989 0.1373302
vt 0.9158967 0.6750831
vt 0.9160149 0.7142383
vt 0.9324997 0.6748267
vt 0.932721 0.7650529
vt 0.9158948 0.8037956
vt 0.9324993 0.8037712
vt 0.8159512 0.7492194
vt 0.8221695 0.7733867
vt 0.8285776 0.751193
vt 0.841911 0.7746591
vt 0.857397 0.7857538
vt 0.876524 0.7711874
vt 0.8920479 0.7726147
vt 0.8983002 0.7492194
vt 0.8859378 0.7492194
vt 0.9250194 0.6124357
vt 0.8942435 0.6711468
vt 0.9250194 0.6552306
vt 0.8942435 0.5965197
vt 0.8634673 0.6711468
vt 0.8634673 0.5965196
vt 0.8212 0.6552306
vt 0.8212 0.6124357
vt 0.9977108 0.8637961
vt 0.9785755 0.8528646
vt 0.9863236 0.8682379
vt 0.9711657 0.8612932
vt 0.8685536 0.8509609
vt 0.8665512 0.8627321
vt 0.8489501 0.8599996
vt 0.8516014 0.8712285
vt 0.8488695 0.9136173
vt 0.8516014 0.9247835
vt 0.8664848 0.916311
vt 0.8685305 0.9045192
vt 0.9786064 0.9064339
vt 0.9711689 0.9148487
vt 0.9863861 0.9218414
vt 0.9977108 0.917351
vt 0.9863861 0.8415089
vt 0.9977108 0.8370184
vt 0.9785506 0.8260924
vt 0.9712367 0.8345252
vt 0.8706087 0.8345157
vt 0.8685275 0.824187
vt 0.8554507 0.8414603
vt 0.8488694 0.8332847
vt 0.908119 0.769577
vt 0.9045109 0.7593534
vt 0.906315 0.8085842
vt 0.908119 0.7513449
vt 0.906315 0.7105327
vt 0.8575339 0.1373302
vt 0.8374989 0.1373302
vt 0.837499 0.1801251
vt 0.8575341 0.1801251
vt 0.8540037 0.6806304
vt 0.8161186 0.6804794
vt 0.8159512 0.6970822
vt 0.8539659 0.6972393
vt 0.9086687 0.6970831
vt 0.9086325 0.6804795
vt 0.8301599 0.722179
vt 0.8283135 0.7078449
vt 0.8159512 0.7078449
vt 0.8223929 0.7311442
vt 0.8410611 0.7335522
vt 0.8568674 0.74435
vt 0.8723637 0.7332749
vt 0.8920818 0.7320123
vt 0.8856736 0.7098185
vt 0.8983002 0.7078449
vt 0.8575341 0.2934273
vt 0.837499 0.2934273
vt 0.837499 0.3362223
vt 0.8575341 0.3362224
vt 0.9977108 0.8905736
vt 0.975323 0.8895359
vt 0.990173 0.898006
vt 0.9784839 0.8796226
vt 0.8685508 0.8777388
vt 0.8664403 0.8895471
vt 0.8489501 0.8867771
vt 0.8516015 0.898006
vt 0.7773134 0.6355605
vt 0.7986318 0.6459728
vt 0.7912097 0.6368017
vt 0.7652591 0.6459728
vt 0.7652591 0.7464408
vt 0.7986318 0.7464409
vt 0.7865776 0.7568532
vt 0.7726814 0.755612
vt 0.7767345 0.6239709
vt 0.7906308 0.6227298
vt 0.7980528 0.6135586
vt 0.7646803 0.6135586
vt 0.7980528 0.5130906
vt 0.7646803 0.5130906
vt 0.7721024 0.5039194
vt 0.7859987 0.5026782
vt 0.8540756 0.802721
vt 0.886957 0.802721
vt 0.8868507 0.7944989
vt 0.8556758 0.794499
vt 0.8279264 0.794499
vt 0.8211942 0.802721
vt 0.8026233 0.794499
vt 0.7991834 0.802721
vt 0.8419023 0.4541174
vt 0.8390018 0.4432923
vt 0.8362657 0.4559789
vt 0.8527272 0.4570177
vt 0.831939 0.392347
vt 0.8542987 0.4628824
vt 0.8469263 0.4353681
vt 0.8677061 0.3923469
vt 0.857751 0.4382685
vt 0.8659359 0.4528301
vt 0.8606517 0.4490935
vt 0.809038 0.4991422
vt 0.8279275 0.4909651
vt 0.8134401 0.4946848
vt 0.8097205 0.4801977
vt 0.8726699 0.5034689
vt 0.8021343 0.4811096
vt 0.8726699 0.4677017
vt 0.8121867 0.4694721
vt 0.8242077 0.4764778
vt 0.9250194 0.5301777
vt 0.92003 0.543264
vt 0.92003 0.5598677
vt 0.9076675 0.543264
vt 0.9250194 0.5729726
vt 0.8942435 0.5142616
vt 0.9076675 0.5598677
vt 0.8942435 0.5888886
vt 0.8634673 0.5142616
vt 0.8634673 0.5888886
vt 0.8500433 0.5598677
vt 0.8212 0.5729726
vt 0.8500433 0.5432642
vt 0.8376808 0.5598677
vt 0.8212 0.5301777
vt 0.8376808 0.5432642
vn 0.9317501 0.04590083 0.3601872
vn 0.9278384 -0.0854837 -0.363054
vn 0.8765772 0.06818026 0.4764073
vn 0.8811408 -0.1024213 -0.4616285
vn -0.9278384 -0.0854837 0.363054
vn -0.9317501 0.04590083 -0.3601872
vn -0.8811408 -0.1024213 0.4616285
vn -0.8765772 0.06818026 -0.4764073
vn -0.4465899 -0.8272884 0.3408098
vn 0.5058821 -0.3660748 0.7810714
vn 0.05124188 -0.8191681 0.5712599
vn -0.4879511 0.3740511 0.7886631
vn -0.04666397 0.8156278 0.5766922
vn 0.4370016 0.8278891 0.3516095
vn 1 0 0
vn 1 0 0
vn 1 0 0
vn 1 0 0
vn 1 0 0
vn 1 0 0
vn 1 0 0
vn 1 0 0
vn 1 0 0
vn 0 0 -1
vn 0 0 -1
vn 0 0 -1
vn 0 0 -1
vn 0 0 -1
vn 0 0 -1
vn 0 0 -1
vn 0 0 -1
vn 0.1792084 0.9077311 -0.379353
vn -0.7222013 0.5957917 -0.3513651
vn -0.2574622 0.9370086 -0.236068
vn -0.823356 0.3481668 -0.4481794
vn -0.8296984 -0.2077145 -0.5181266
vn -0.6880004 -0.4090219 -0.5994634
vn -0.2107028 -0.767185 -0.6058314
vn 0.2154054 -0.845721 -0.4882177
vn 0.1792084 0.9077311 -0.379353
vn -0.2574622 0.9370086 -0.236068
vn 0.6986314 0.5638555 -0.4404328
vn 0.8437728 0.3388276 -0.416225
vn 0.7043284 -0.4619122 -0.5390348
vn 0.8107451 -0.1800028 -0.5570381
vn 0.2154054 -0.845721 -0.4882177
vn -0.2107028 -0.767185 -0.6058314
vn 0.2159862 0.8258564 0.5208755
vn -0.1848866 0.7641143 0.618018
vn 0.7110367 0.4798842 0.5139436
vn 0.841316 0.2153112 0.4958109
vn 0.8186709 -0.4281504 0.3827077
vn 0.8205802 -0.4245275 0.3826546
vn 0.1315989 -0.9290971 0.3456304
vn 0.132849 -0.9288749 0.3457492
vn -0.4934084 0.1274799 0.8604051
vn -0.03247184 0.9964644 0.07748685
vn -0.3935093 -0.07144449 0.9165403
vn 0.5181854 0.2017624 0.8311293
vn 0.4241886 -0.06177118 0.9034647
vn 0 1 0
vn 0 1 0
vn 0 1 0
vn 0 1 0
vn 0.01644992 -0.1729226 -0.984798
vn 0.02127208 -0.8530503 -0.521395
vn 0.02127208 -0.8530503 -0.521395
vn 0.01648013 -0.1752692 -0.9843826
vn 0.0005493419 0.6225265 -0.7825986
vn 0.0005493419 0.6225265 -0.7825986
vn -1 0 0
vn -1 0 0
vn -1 0 0
vn -1 0 0
vn -1 0 0
vn -1 0 0
vn -1 0 0
vn -1 0 0
vn -1 0 0
vn -1 0 0
vn 0 -1 0
vn 0 -1 0
vn 0 -1 0
vn 0 -1 0
vn 0.132849 -0.9288749 0.3457492
vn -0.6735483 -0.580222 0.4579029
vn 0.1315989 -0.9290971 0.3456304
vn -0.6770679 -0.5746455 0.4597409
vn -0.8025982 0.1963006 0.5632958
vn -0.6631912 0.4153414 0.6226305
vn -0.1848866 0.7641143 0.618018
vn 0.2159862 0.8258564 0.5208755
vn 0 0.1386179 -0.990346
vn 0 0.1386179 -0.990346
vn 0 0.1386179 -0.990346
vn 0 0.1386179 -0.990346
vn 0 0.1386179 -0.990346
vn 0 0.1386179 -0.990346
vn 0 0.1386179 -0.990346
vn 0 0.1386179 -0.990346
vn 0 -0.1386179 0.990346
vn 0 -0.1386179 0.990346
vn 0 -0.1386179 0.990346
vn 0 -0.1386179 0.990346
vn 0 -0.1386179 0.990346
vn 0 -0.1386179 0.990346
vn 0 -0.1386179 0.990346
vn 0 -0.1386179 0.990346
vn -0.3628061 -0.9318573 -0.003723278
vn -0.7733466 0.6155643 -0.151709
vn -0.4499775 0.8924167 -0.03335766
vn -0.5836236 -0.8005865 0.1358116
vn 0.9267346 -0.3516989 -0.132177
vn 0.9121661 0.3296714 0.2434539
vn -0.4499775 0.8924167 -0.03335766
vn -0.7733466 0.6155643 -0.151709
vn 0 -0.1386179 0.990346
vn 0 -0.1386179 0.990346
vn 0 -0.1386179 0.990346
vn 0 -0.1386179 0.990346
vn 0 -0.1386179 0.990346
vn 0 -0.1386179 0.990346
vn 0 -0.1386179 0.990346
vn 0 -0.1386179 0.990346
vn 0 -0.1386179 0.990346
vn 0 -0.1386179 0.990346
vn 0 -0.1386179 0.990346
vn 0 0.1386179 -0.990346
vn 0 0.1386179 -0.990346
vn 0 0.1386179 -0.990346
vn 0 0.1386179 -0.990346
vn 0 0.1386179 -0.990346
vn 0 0.1386179 -0.990346
vn 0 0.1386179 -0.990346
vn 0 0.1386179 -0.990346
vn 0 0.1386179 -0.990346
vn 0 0 1
vn 0 0 1
vn 0 0 1
vn 0 0 1
vn 0 0 1
vn 0 0 1
vn 0 0 1
vn 0 0 1
vn 0 0 1
vn 0 0 1
vn 0 0 1
vn 0 0 1
vn 0 0 1
vn 0 0 1
vn 0 0 1
vn 0 0 1
g medkit_zipper1_LOD2_0
f 3/3/3 2/2/2 1/1/1
f 1/1/1 2/2/2 4/4/4
f 7/7/7 6/6/6 5/5/5
f 5/5/5 6/6/6 8/8/8
f 11/11/11 10/10/10 9/9/9
f 12/12/12 10/10/10 11/11/11
f 13/13/13 10/10/10 12/12/12
f 13/13/13 12/12/12 14/14/14
f 17/17/17 16/16/16 15/15/15
f 17/17/17 18/18/18 16/16/16
f 19/19/19 16/16/16 18/18/18
f 19/19/19 18/18/18 20/20/20
f 20/20/20 21/21/21 19/19/19
f 22/22/22 21/21/21 20/20/20
f 23/23/23 22/22/22 20/20/20
f 26/26/26 25/25/25 24/24/24
f 25/25/25 27/27/27 24/24/24
f 25/25/25 28/28/28 27/27/27
f 28/28/28 29/29/29 27/27/27
f 28/28/28 30/30/30 29/29/29
f 30/30/30 31/31/31 29/29/29
f 34/34/34 33/33/33 32/32/32
f 34/34/34 35/35/35 33/33/33
f 33/33/33 35/35/35 36/36/36
f 35/35/35 37/37/37 36/36/36
f 37/37/37 38/38/38 36/36/36
f 37/37/37 39/39/39 38/38/38
f 42/42/42 41/41/41 40/40/40
f 42/42/42 40/40/40 43/43/43
f 43/43/43 44/44/44 42/42/42
f 44/44/44 45/45/45 42/42/42
f 46/46/46 45/45/45 44/44/44
f 47/47/47 46/46/46 44/44/44
f 50/50/50 49/49/49 48/48/48
f 50/50/50 48/48/48 51/51/51
f 50/50/50 51/51/51 52/52/52
f 53/53/53 50/50/50 52/52/52
f 52/52/52 54/54/54 53/53/53
f 54/54/54 55/55/55 53/53/53
f 58/58/58 57/57/57 56/56/56
f 57/57/57 59/59/59 56/56/56
f 59/59/59 57/57/57 60/60/60
f 63/63/63 62/62/62 61/61/61
f 64/64/64 63/63/63 61/61/61
f 67/67/67 66/66/66 65/65/65
f 68/68/68 67/67/67 65/65/65
f 69/69/69 68/68/68 65/65/65
f 70/70/70 69/69/69 65/65/65
f 73/73/73 72/72/72 71/71/71
f 74/74/74 73/73/73 71/71/71
f 71/71/71 75/75/75 74/74/74
f 74/74/74 75/75/75 76/76/76
f 77/77/77 76/76/76 75/75/75
f 78/78/78 76/76/76 77/77/77
f 78/78/78 77/77/77 79/79/79
f 78/78/78 79/79/79 80/80/80
f 83/83/83 82/82/82 81/81/81
f 84/84/84 83/83/83 81/81/81
f 87/87/87 86/86/86 85/85/85
f 86/86/86 88/88/88 85/85/85
f 88/88/88 86/86/86 89/89/89
f 86/86/86 90/90/90 89/89/89
f 91/91/91 89/89/89 90/90/90
f 92/92/92 91/91/91 90/90/90
f 95/95/95 94/94/94 93/93/93
f 94/94/94 96/96/96 93/93/93
f 97/97/97 96/96/96 94/94/94
f 98/98/98 97/97/97 94/94/94
f 97/97/97 98/98/98 99/99/99
f 100/100/100 97/97/97 99/99/99
f 103/103/103 102/102/102 101/101/101
f 104/104/104 103/103/103 101/101/101
f 105/105/105 103/103/103 104/104/104
f 106/106/106 105/105/105 104/104/104
f 105/105/105 106/106/106 107/107/107
f 108/108/108 105/105/105 107/107/107
f 111/111/111 110/110/110 109/109/109
f 112/112/112 111/111/111 109/109/109
f 109/109/109 113/113/113 112/112/112
f 109/109/109 114/114/114 113/113/113
f 115/115/115 113/113/113 114/114/114
f 114/114/114 116/116/116 115/115/115
f 119/119/119 118/118/118 117/117/117
f 119/119/119 117/117/117 120/120/120
f 119/119/119 121/121/121 118/118/118
f 122/122/122 119/119/119 120/120/120
f 123/123/123 118/118/118 121/121/121
f 124/124/124 123/123/123 121/121/121
f 125/125/125 123/123/123 124/124/124
f 122/122/122 120/120/120 126/126/126
f 125/125/125 124/124/124 126/126/126
f 120/120/120 127/127/127 126/126/126
f 127/127/127 125/125/125 126/126/126
f 130/130/130 129/129/129 128/128/128
f 131/131/131 130/130/130 128/128/128
f 129/129/129 132/132/132 128/128/128
f 133/133/133 131/131/131 128/128/128
f 134/134/134 132/132/132 129/129/129
f 133/133/133 135/135/135 131/131/131
f 134/134/134 129/129/129 136/136/136
f 135/135/135 136/136/136 131/131/131
f 135/135/135 134/134/134 136/136/136
f 139/139/139 138/138/138 137/137/137
f 138/138/138 140/140/140 137/137/137
f 141/141/141 139/139/139 137/137/137
f 140/140/140 142/142/142 137/137/137
f 143/143/143 139/139/139 141/141/141
f 140/140/140 143/143/143 142/142/142
f 144/144/144 143/143/143 141/141/141
f 143/143/143 144/144/144 142/142/142
f 142/142/142 144/144/144 145/145/145
f 144/144/144 146/146/146 145/145/145
f 146/146/146 147/147/147 145/145/145
f 147/147/147 146/146/146 148/148/148
f 147/147/147 149/149/149 145/145/145
f 150/150/150 147/147/147 148/148/148
f 145/145/145 149/149/149 151/151/151
f 150/150/150 148/148/148 151/151/151
f 149/149/149 152/152/152 151/151/151
f 152/152/152 150/150/150 151/151/151
