g Mesh01
v 0.08675095 -0.02573574 -0.1715765
v -0.08675095 -0.02573574 -0.1715765
v 0.08675095 0.02444826 -0.1715765
v -0.08675095 0.02444826 -0.1715765
v 0.08675095 0.02444826 -0.1715765
v -0.08675095 0.02444826 -0.1715765
v 0.08675095 0.02444826 -0.1894497
v -0.08675095 0.02444826 -0.1894497
v 0.05964518 0.0122089 -0.1894497
v 0.08675095 -0.02573574 -0.1894497
v 0.08675095 -0.02573574 -0.1715765
v 0.08675095 0.02444826 -0.1715765
v 0.05964518 -0.0137061 -0.1894497
v -0.08675095 -0.02573574 -0.1894497
v 0.04879351 -0.0137061 -0.1894497
v 0.04879351 0.0122089 -0.1894497
v -0.04877653 -0.0137061 -0.1894497
v -0.04877653 0.0122089 -0.1894497
v -0.05966216 0.0122089 -0.1894497
v -0.05966216 -0.0137061 -0.1894497
v -0.08675095 0.02444826 -0.1715765
v -0.08675095 -0.02573574 -0.1715765
v 0.04879351 -0.0137061 -0.1894497
v 0.05964518 -0.0137061 -0.1894497
v 0.04926251 -0.0137061 -0.212168
v 0.0591762 -0.0137061 -0.2165815
v 0.03044654 -0.0137061 -0.2234685
v 0.03467759 -0.0137061 -0.2321258
v -0.03042957 -0.0137061 -0.2234685
v -0.03469466 -0.0137061 -0.2321258
v -0.04931916 -0.0137061 -0.2120061
v -0.05911954 -0.0137061 -0.2167435
v -0.04877653 -0.0137061 -0.1894497
v -0.05966216 -0.0137061 -0.1894497
v 0.03467759 0.0122089 -0.2321258
v 0.0591762 0.0122089 -0.2165815
v 0.0591762 -0.0137061 -0.2165815
v 0.05964518 0.0122089 -0.1894497
v 0.05964518 -0.0137061 -0.1894497
v -0.03469466 0.0122089 -0.2321258
v -0.05911954 -0.0137061 -0.2167435
v -0.05911954 0.0122089 -0.2167435
v -0.05966216 -0.0137061 -0.1894497
v -0.05966216 0.0122089 -0.1894497
v 0.03044654 0.0122089 -0.2234685
v 0.04926251 0.0122089 -0.212168
v -0.03042957 0.0122089 -0.2234685
v 0.0591762 0.0122089 -0.2165815
v 0.04879351 0.0122089 -0.1894497
v 0.05964518 0.0122089 -0.1894497
v -0.05911954 0.0122089 -0.2167435
v -0.04931916 0.0122089 -0.2120061
v -0.05966216 0.0122089 -0.1894497
v -0.04877653 0.0122089 -0.1894497
v -0.07401679 -0.01291933 0.01035572
v -0.06969933 -0.01807216 0.0003824709
v -0.07401679 -0.01807216 0.0003824709
v -0.06969933 -0.01291933 0.01035572
v -0.07401679 -0.004610214 0.01560099
v -0.06969933 -0.004610214 0.01560099
v -0.07401679 0.003112923 0.01560099
v -0.06969933 0.003112923 0.01560099
v -0.07401679 0.01142213 0.01035572
v -0.06969933 0.01142213 0.01035572
v -0.06969933 0.01678458 0.0003824709
v -0.06969933 0.01678458 -0.1778465
v -0.06969933 -0.01828188 -0.1778465
v -0.06969933 -0.01807216 0.0003824709
v -0.06969933 0.01142213 0.01035572
v -0.06969933 -0.01291933 0.01035572
v -0.06969933 0.003112923 0.01560099
v -0.06969933 -0.004610214 0.01560099
v 0.06969933 0.01678458 0.0003824709
v 0.06969933 0.01678458 -0.1778465
v 0.07401679 0.01678458 -0.1778465
v 0.07401679 0.01678458 0.0003824709
v 0.07401679 -0.01807216 -0.1778465
v 0.06969933 0.01142213 0.01035572
v 0.07401679 0.01142213 0.01035572
v 0.07401679 -0.01807216 0.0003824709
v 0.07401679 0.01142213 0.01035572
v 0.07401679 -0.01291933 0.01035572
v 0.07401679 -0.004610214 0.01560099
v 0.07401679 0.003112923 0.01560099
v 0.04926251 0.0122089 -0.212168
v 0.04879351 0.0122089 -0.1894497
v 0.04879351 -0.0137061 -0.1894497
v 0.04926251 -0.0137061 -0.212168
v 0.03044654 0.0122089 -0.2234685
v 0.03044654 -0.0137061 -0.2234685
v -0.03042957 0.0122089 -0.2234685
v -0.03042957 -0.0137061 -0.2234685
v -0.04931916 0.0122089 -0.2120061
v -0.04931916 -0.0137061 -0.2120061
v -0.04877653 0.0122089 -0.1894497
v -0.04877653 -0.0137061 -0.1894497
v 0.07401679 -0.01807216 0.0003824709
v 0.06969933 -0.01807216 0.0003824709
v 0.07401679 -0.01291933 0.01035572
v 0.06969933 -0.01291933 0.01035572
v 0.07401679 -0.004610214 0.01560099
v 0.06969933 -0.004610214 0.01560099
v 0.07401679 0.003112923 0.01560099
v 0.06969933 0.003112923 0.01560099
v 0.07401679 0.01142213 0.01035572
v 0.06969933 0.01142213 0.01035572
v 0.06969933 -0.01828188 -0.1778465
v 0.06969933 0.01678458 -0.1778465
v 0.06969933 0.01678458 0.0003824709
v 0.06969933 -0.01807216 0.0003824709
v 0.06969933 0.01142213 0.01035572
v 0.06969933 -0.01291933 0.01035572
v 0.06969933 0.003112923 0.01560099
v 0.06969933 -0.004610214 0.01560099
v -0.07401679 0.01678458 0.0003824709
v -0.06969933 0.01142213 0.01035572
v -0.07401679 0.01142213 0.01035572
v -0.06969933 0.01678458 0.0003824709
v -0.07401679 0.01678458 -0.1778465
v -0.06969933 0.01678458 -0.1778465
v -0.07401679 -0.01807216 -0.1778465
v -0.07401679 -0.01807216 0.0003824709
v -0.07401679 0.01142213 0.01035572
v -0.07401679 -0.01291933 0.01035572
v -0.07401679 -0.004610214 0.01560099
v -0.07401679 0.003112923 0.01560099
vt 0.040205 0.849316
vt 0.261893 0.849316
vt 0.040205 0.784927
vt 0.261893 0.784927
vt 0.040205 0.95938
vt 0.261893 0.95938
vt 0.040205 0.936543
vt 0.261893 0.936543
vt 0.074838 0.920904
vt 0.040205 0.872154
vt 0.017367 0.872154
vt 0.017367 0.936543
vt 0.074838 0.887792
vt 0.261893 0.872154
vt 0.088704 0.887792
vt 0.088704 0.920904
vt 0.213372 0.887792
vt 0.213372 0.920904
vt 0.227281 0.920904
vt 0.227281 0.887792
vt 0.28473 0.936543
vt 0.28473 0.872154
vt 0.22263 0.775239
vt 0.239301 0.775239
vt 0.22335 0.740338
vt 0.238581 0.733557
vt 0.194443 0.722976
vt 0.200943 0.709676
vt 0.100918 0.722976
vt 0.094366 0.709676
vt 0.071898 0.740587
vt 0.056841 0.733308
vt 0.072731 0.775239
vt 0.056008 0.77524
vt 0.200943 0.669863
vt 0.239394 0.669863
vt 0.239394 0.709676
vt 0.281076 0.669863
vt 0.281076 0.709677
vt 0.094366 0.669863
vt 0.058217 0.709841
vt 0.05812 0.670028
vt 0.020538 0.709953
vt 0.0208 0.670141
vt 0.194443 0.656563
vt 0.22335 0.639201
vt 0.100918 0.656563
vt 0.238581 0.645982
vt 0.22263 0.6043
vt 0.239301 0.6043
vt 0.056841 0.646231
vt 0.071898 0.638952
vt 0.056008 0.6043
vt 0.072732 0.6043
vt 0.87731 0.452453
vt 0.889679 0.481026
vt 0.87731 0.481026
vt 0.889679 0.452453
vt 0.877309 0.428648
vt 0.889678 0.428647
vt 0.877308 0.406521
vt 0.889678 0.406521
vt 0.877308 0.382716
vt 0.889677 0.382716
vt 0.990142 0.481026
vt 0.990142 0.991644
vt 0.889679 0.991644
vt 0.889679 0.481026
vt 0.974779 0.452453
vt 0.905042 0.452453
vt 0.950974 0.437425
vt 0.928847 0.437425
vt 0.764477 0.481026
vt 0.764477 0.991644
vt 0.776846 0.991644
vt 0.776846 0.481026
vt 0.87731 0.991644
vt 0.764477 0.452453
vt 0.776846 0.452453
vt 0.87731 0.481026
vt 0.792209 0.452453
vt 0.861946 0.452453
vt 0.838141 0.437425
vt 0.816014 0.437425
vt 0.063929 0.532888
vt 0.022338 0.532888
vt 0.022338 0.580332
vt 0.063929 0.580332
vt 0.093029 0.532888
vt 0.093029 0.580332
vt 0.204478 0.532887
vt 0.204479 0.580331
vt 0.231772 0.532887
vt 0.231773 0.580331
vt 0.273066 0.532887
vt 0.273067 0.580331
vt 0.87731 0.481026
vt 0.889679 0.481026
vt 0.87731 0.452453
vt 0.889679 0.452453
vt 0.877309 0.428648
vt 0.889678 0.428647
vt 0.877308 0.406521
vt 0.889678 0.406521
vt 0.877308 0.382716
vt 0.889677 0.382716
vt 0.889679 0.991644
vt 0.990142 0.991644
vt 0.990142 0.481026
vt 0.889679 0.481026
vt 0.974779 0.452453
vt 0.905042 0.452453
vt 0.950974 0.437425
vt 0.928847 0.437425
vt 0.776846 0.481026
vt 0.764477 0.452453
vt 0.776846 0.452453
vt 0.764477 0.481026
vt 0.776846 0.991644
vt 0.764477 0.991644
vt 0.87731 0.991644
vt 0.87731 0.481026
vt 0.792209 0.452453
vt 0.861946 0.452453
vt 0.838141 0.437425
vt 0.816014 0.437425
vn 0.894427 0 0.447214
vn -0.447214 0 0.894427
vn 0.4082479 0.4082479 0.8164968
vn -0.6666667 0.6666667 0.3333329
vn 0.4082479 0.4082479 0.8164968
vn -0.6666667 0.6666667 0.3333329
vn 0.5773503 0.5773503 -0.5773503
vn -0.162221 0.162221 -0.9733287
vn 0.4335249 0.216795 -0.8746748
vn 0.3162281 0 -0.9486832
vn 0.894427 0 0.447214
vn 0.4082479 0.4082479 0.8164968
vn 0.2662371 -0.5325531 -0.8034332
vn -0.3713908 9.999997E-07 -0.9284766
vn -0.5297433 -0.2649281 -0.8057203
vn -0.2173191 0.4347301 -0.8739462
vn 0.2171619 -0.4344499 -0.8741248
vn 0.528944 0.264548 -0.8063701
vn -0.3318051 0.6637411 -0.6703381
vn -0.5299219 -0.2650129 -0.8055748
vn -0.6666667 0.6666667 0.3333329
vn -0.447214 0 0.894427
vn -0.5297433 -0.2649281 -0.8057203
vn 0.2662371 -0.5325531 -0.8034332
vn -0.5075671 -0.7502753 0.4236302
vn 0.6299189 -0.7453308 -0.218367
vn -0.123327 -0.7185951 0.684406
vn 0.2570419 -0.7196606 -0.6449946
vn 0.2486021 -0.7187903 0.6492592
vn -0.127809 -0.719511 -0.682619
vn 0.6297048 -0.7501797 0.2017479
vn -0.5132267 -0.7453917 -0.4254288
vn 0.2171619 -0.4344499 -0.8741248
vn -0.5299219 -0.2650129 -0.8055748
vn 0.1285209 0.7196606 -0.6823276
vn 0.5146172 0.7453312 -0.4238521
vn 0.6299189 -0.7453308 -0.218367
vn 0.4335249 0.216795 -0.8746748
vn 0.2662371 -0.5325531 -0.8034332
vn -0.2556171 0.7195112 -0.6457272
vn -0.5132267 -0.7453917 -0.4254288
vn -0.6292357 0.7453917 -0.2201219
vn -0.5299219 -0.2650129 -0.8055748
vn -0.3318051 0.6637411 -0.6703381
vn -0.2466539 0.7185948 0.6502178
vn -0.6288413 0.7502754 0.2040721
vn 0.124301 0.71879 0.684025
vn 0.5146172 0.7453312 -0.4238521
vn -0.2173191 0.4347301 -0.8739462
vn 0.4335249 0.216795 -0.8746748
vn -0.6292357 0.7453917 -0.2201219
vn 0.509446 0.7501799 0.4215389
vn -0.3318051 0.6637411 -0.6703381
vn 0.528944 0.264548 -0.8063701
vn -0.5668302 -0.6548752 0.4998421
vn 0.8320501 -0.4928111 0.2546171
vn -0.9486834 -0.2809451 0.1451541
vn 0.7181723 -0.4682572 0.5147462
vn -0.5683648 -0.3033959 0.7647957
vn 0.3264689 -0.1742709 0.9290036
vn -0.3264689 0.174269 0.9290039
vn 0.5683642 0.3033931 0.7647972
vn -0.808412 0.393769 0.437511
vn 0.7174979 0.5489609 0.4287639
vn 0.7166659 0.68818 0.11313
vn 0.7071068 0.7071068 0
vn 1 0 0
vn 0.8320501 -0.4928111 0.2546171
vn 0.7174979 0.5489609 0.4287639
vn 0.7181723 -0.4682572 0.5147462
vn 0.5683642 0.3033931 0.7647972
vn 0.3264689 -0.1742709 0.9290036
vn -0.7166659 0.68818 0.11313
vn -0.7071068 0.7071068 0
vn 0.447214 0.894427 0
vn 0.716666 0.659694 0.22626
vn 1 0 0
vn -0.7174979 0.5489609 0.4287639
vn 0.808412 0.393769 0.437511
vn 0.9486834 -0.2809451 0.1451541
vn 0.808412 0.393769 0.437511
vn 0.5668302 -0.6548752 0.4998421
vn 0.5683648 -0.3033959 0.7647957
vn 0.3264689 0.174269 0.9290039
vn -0.6288413 0.7502754 0.2040721
vn -0.2173191 0.4347301 -0.8739462
vn -0.5297433 -0.2649281 -0.8057203
vn -0.5075671 -0.7502753 0.4236302
vn -0.2466539 0.7185948 0.6502178
vn -0.123327 -0.7185951 0.684406
vn 0.124301 0.71879 0.684025
vn 0.2486021 -0.7187903 0.6492592
vn 0.509446 0.7501799 0.4215389
vn 0.6297048 -0.7501797 0.2017479
vn 0.528944 0.264548 -0.8063701
vn 0.2171619 -0.4344499 -0.8741248
vn 0.9486834 -0.2809451 0.1451541
vn -0.8320501 -0.4928111 0.2546171
vn 0.5668302 -0.6548752 0.4998421
vn -0.7181723 -0.4682572 0.5147462
vn 0.5683648 -0.3033959 0.7647957
vn -0.3264689 -0.1742709 0.9290036
vn 0.3264689 0.174269 0.9290039
vn -0.5683642 0.3033931 0.7647972
vn 0.808412 0.393769 0.437511
vn -0.7174979 0.5489609 0.4287639
vn -1 0 0
vn -0.7071068 0.7071068 0
vn -0.7166659 0.68818 0.11313
vn -0.8320501 -0.4928111 0.2546171
vn -0.7174979 0.5489609 0.4287639
vn -0.7181723 -0.4682572 0.5147462
vn -0.5683642 0.3033931 0.7647972
vn -0.3264689 -0.1742709 0.9290036
vn -0.716666 0.659694 0.22626
vn 0.7174979 0.5489609 0.4287639
vn -0.808412 0.393769 0.437511
vn 0.7166659 0.68818 0.11313
vn -0.447214 0.894427 0
vn 0.7071068 0.7071068 0
vn -1 0 0
vn -0.9486834 -0.2809451 0.1451541
vn -0.808412 0.393769 0.437511
vn -0.5668302 -0.6548752 0.4998421
vn -0.5683648 -0.3033959 0.7647957
vn -0.3264689 0.174269 0.9290039
g Mesh01_0
f 3/3/3 2/2/2 1/1/1
f 4/4/4 2/2/2 3/3/3
f 7/7/7 6/6/6 5/5/5
f 8/8/8 6/6/6 7/7/7
f 9/9/9 8/8/8 7/7/7
f 10/10/10 9/9/9 7/7/7
f 7/7/7 11/11/11 10/10/10
f 12/12/12 11/11/11 7/7/7
f 13/13/13 9/9/9 10/10/10
f 10/10/10 14/14/14 13/13/13
f 13/13/13 14/14/14 15/15/15
f 16/16/16 8/8/8 9/9/9
f 15/15/15 17/17/17 16/16/16
f 15/15/15 14/14/14 17/17/17
f 16/16/16 17/17/17 18/18/18
f 18/18/18 8/8/8 16/16/16
f 18/18/18 19/19/19 8/8/8
f 8/8/8 19/19/19 20/20/20
f 17/17/17 14/14/14 20/20/20
f 14/14/14 8/8/8 20/20/20
f 8/8/8 14/14/14 21/21/21
f 14/14/14 22/22/22 21/21/21
f 25/25/25 24/24/24 23/23/23
f 26/26/26 24/24/24 25/25/25
f 26/26/26 25/25/25 27/27/27
f 26/26/26 27/27/27 28/28/28
f 28/28/28 27/27/27 29/29/29
f 30/30/30 28/28/28 29/29/29
f 29/29/29 31/31/31 30/30/30
f 30/30/30 31/31/31 32/32/32
f 31/31/31 33/33/33 32/32/32
f 33/33/33 34/34/34 32/32/32
f 30/30/30 35/35/35 28/28/28
f 35/35/35 36/36/36 28/28/28
f 28/28/28 36/36/36 37/37/37
f 36/36/36 38/38/38 37/37/37
f 38/38/38 39/39/39 37/37/37
f 40/40/40 35/35/35 30/30/30
f 30/30/30 41/41/41 40/40/40
f 40/40/40 41/41/41 42/42/42
f 41/41/41 43/43/43 42/42/42
f 42/42/42 43/43/43 44/44/44
f 40/40/40 45/45/45 35/35/35
f 45/45/45 46/46/46 35/35/35
f 40/40/40 47/47/47 45/45/45
f 35/35/35 46/46/46 48/48/48
f 46/46/46 49/49/49 48/48/48
f 49/49/49 50/50/50 48/48/48
f 51/51/51 47/47/47 40/40/40
f 51/51/51 52/52/52 47/47/47
f 51/51/51 53/53/53 52/52/52
f 52/52/52 53/53/53 54/54/54
f 57/57/57 56/56/56 55/55/55
f 56/56/56 58/58/58 55/55/55
f 58/58/58 59/59/59 55/55/55
f 58/58/58 60/60/60 59/59/59
f 61/61/61 59/59/59 60/60/60
f 60/60/60 62/62/62 61/61/61
f 62/62/62 63/63/63 61/61/61
f 62/62/62 64/64/64 63/63/63
f 67/67/67 66/66/66 65/65/65
f 65/65/65 68/68/68 67/67/67
f 65/65/65 69/69/69 68/68/68
f 68/68/68 69/69/69 70/70/70
f 70/70/70 69/69/69 71/71/71
f 70/70/70 71/71/71 72/72/72
f 75/75/75 74/74/74 73/73/73
f 75/75/75 73/73/73 76/76/76
f 76/76/76 77/77/77 75/75/75
f 76/76/76 73/73/73 78/78/78
f 76/76/76 78/78/78 79/79/79
f 77/77/77 76/76/76 80/80/80
f 80/80/80 76/76/76 81/81/81
f 80/80/80 81/81/81 82/82/82
f 83/83/83 82/82/82 81/81/81
f 84/84/84 83/83/83 81/81/81
f 87/87/87 86/86/86 85/85/85
f 88/88/88 87/87/87 85/85/85
f 88/88/88 85/85/85 89/89/89
f 90/90/90 88/88/88 89/89/89
f 91/91/91 90/90/90 89/89/89
f 92/92/92 90/90/90 91/91/91
f 91/91/91 93/93/93 92/92/92
f 93/93/93 94/94/94 92/92/92
f 93/93/93 95/95/95 94/94/94
f 95/95/95 96/96/96 94/94/94
f 99/99/99 98/98/98 97/97/97
f 99/99/99 100/100/100 98/98/98
f 100/100/100 99/99/99 101/101/101
f 101/101/101 102/102/102 100/100/100
f 102/102/102 101/101/101 103/103/103
f 103/103/103 104/104/104 102/102/102
f 105/105/105 104/104/104 103/103/103
f 105/105/105 106/106/106 104/104/104
f 109/109/109 108/108/108 107/107/107
f 109/109/109 107/107/107 110/110/110
f 110/110/110 111/111/111 109/109/109
f 112/112/112 111/111/111 110/110/110
f 113/113/113 111/111/111 112/112/112
f 114/114/114 113/113/113 112/112/112
f 117/117/117 116/116/116 115/115/115
f 116/116/116 118/118/118 115/115/115
f 115/115/115 118/118/118 119/119/119
f 118/118/118 120/120/120 119/119/119
f 115/115/115 119/119/119 121/121/121
f 122/122/122 115/115/115 121/121/121
f 123/123/123 115/115/115 122/122/122
f 124/124/124 123/123/123 122/122/122
f 124/124/124 125/125/125 123/123/123
f 123/123/123 125/125/125 126/126/126
