g Monitor
v -0.006263296 -0.01163389 0.000973283
v -0.006263296 -0.01163389 0
v -0.006263296 0.01163389 0
v -0.006263296 0.01163389 0.000973283
v -0.006263296 0.01163389 0.000973283
v -0.006263296 0.01163389 0
v 0.006263296 0.01163389 0
v 0.006263296 0.01163389 0.000973283
v 0.006263296 0.01163389 0.000973283
v 0.006263296 0.01163389 0
v 0.006263296 -0.01163389 0
v 0.006263296 -0.01163389 0.000973283
v 0.006263296 -0.01163389 0.000973283
v 0.006263296 -0.01163389 0
v -0.006263296 -0.01163389 0
v -0.006263296 -0.01163389 0.000973283
v 0.006263296 0.01163389 0
v -0.006263296 0.01163389 0
v -0.006263296 -0.01163389 0
v 0.006263296 -0.01163389 0
v -0.006308528 0.01170339 0.001406946
v 0.006308528 0.01170339 0.001406946
v 0.006308528 -0.01170339 0.001406946
v -0.006308528 -0.01170339 0.001406946
v -0.006308528 0.01170339 0.001406946
v -0.006308528 -0.01170339 0.001406946
v -0.006416943 -0.01181181 0.001377896
v -0.006416943 0.01181181 0.001377896
v 0.006308528 0.01170339 0.001406946
v -0.006496309 -0.01189117 0.00129853
v -0.006496309 0.01189117 0.00129853
v -0.006525359 -0.01192022 0.001190114
v -0.006525359 0.01192022 0.001190114
v -0.006497649 -0.01188995 0.001081698
v -0.006497649 0.01188995 0.001081698
v -0.006421944 -0.01180723 0.001002332
v -0.006421944 0.01180723 0.001002332
v -0.006318529 -0.01169424 0.000973283
v 0.006416943 0.01181181 0.001377896
v 0.006308528 -0.01170339 0.001406946
v -0.006496309 0.01189117 0.00129853
v 0.006496309 0.01189117 0.00129853
v 0.006525359 0.01192022 0.001190114
v -0.006525359 0.01192022 0.001190114
v -0.006497649 0.01188995 0.001081698
v 0.00649765 0.01188995 0.001081698
v 0.006421944 0.01180723 0.001002332
v -0.006318529 0.01169424 0.000973283
v -0.006263296 -0.01163389 0.000973283
v -0.006263296 0.01163389 0.000973283
v 0.006263296 0.01163389 0.000973283
v 0.00631853 0.01169424 0.000973283
v 0.00631853 -0.01169424 0.000973283
v 0.006263296 -0.01163389 0.000973283
v -0.006263296 -0.01163389 0.000973283
v -0.006318529 -0.01169424 0.000973283
v -0.006421944 -0.01180723 0.001002332
v 0.006421944 -0.01180723 0.001002332
v 0.00649765 -0.01188995 0.001081698
v 0.00649765 0.01188995 0.001081698
v 0.006525359 0.01192022 0.001190114
v 0.006525359 -0.01192022 0.001190114
v 0.00649765 -0.01188995 0.001081698
v -0.006497649 -0.01188995 0.001081698
v -0.006525359 -0.01192022 0.001190114
v 0.006525359 -0.01192022 0.001190114
v -0.006496309 -0.01189117 0.00129853
v 0.006496309 -0.01189117 0.00129853
v 0.006496309 0.01189117 0.00129853
v 0.006496309 -0.01189117 0.00129853
v -0.006416943 -0.01181181 0.001377896
v 0.006416943 -0.01181181 0.001377896
v -0.006308528 -0.01170339 0.001406946
vt 0.01707691 0.00390625
vt 0.003907152 0.00390625
vt 0.00390645 0.318748
vt 0.01707641 0.318748
vt 0.01707641 0.318748
vt 0.00390645 0.318748
vt 0.00390625 0.4882511
vt 0.01707631 0.4882511
vt 0.01707631 0.4882511
vt 0.00390625 0.4882511
vt 0.00390635 0.8031012
vt 0.01707661 0.8031012
vt 0.01707661 0.8031012
vt 0.00390635 0.8031012
vt 0.003906451 0.9726089
vt 0.01707691 0.9726089
vt 0.4054147 0.9637063
vt 0.5749188 0.9637063
vt 0.5749188 0.6488574
vt 0.4054147 0.6488573
vt 0.3082252 0.6584353
vt 0.1374971 0.6584353
vt 0.1374971 0.9751653
vt 0.3082253 0.9751652
vt 0.6403424 0.4138524
vt 0.6991399 0.5439039
vt 0.7024331 0.5450398
vt 0.6426696 0.4131641
vt 0.6205956 0.2827089
vt 0.7057235 0.5456356
vt 0.6450267 0.4124583
vt 0.7087632 0.5450725
vt 0.6474601 0.4117294
vt 0.7112558 0.5429735
vt 0.6499623 0.4110175
vt 0.7129781 0.5397213
vt 0.6524072 0.4104127
vt 0.7141914 0.5360568
vt 0.6229998 0.282688
vt 0.6394008 0.1524018
vt 0.6450267 0.4124583
vt 0.625523 0.2826534
vt 0.6281798 0.2826056
vt 0.6474601 0.4117294
vt 0.6499623 0.4110175
vt 0.6308201 0.2825644
vt 0.6332953 0.2824372
vt 0.6547871 0.4099287
vt 0.7152584 0.5325956
vt 0.6571111 0.409464
vt 0.6378957 0.2819591
vt 0.635627 0.2822121
vt 0.6536511 0.1569257
vt 0.6558304 0.1578317
vt 0.7152584 0.03149565
vt 0.7139611 0.0284373
vt 0.7125877 0.02530748
vt 0.6514591 0.1560346
vt 0.6491764 0.1552384
vt 0.6308201 0.2825644
vt 0.6281798 0.2826056
vt 0.6467596 0.1545248
vt 0.6491764 0.1552384
vt 0.7108424 0.02250093
vt 0.7084169 0.0205758
vt 0.6467596 0.1545248
vt 0.7052038 0.02000545
vt 0.6442465 0.1538218
vt 0.625523 0.2826534
vt 0.6442465 0.1538218
vt 0.7016468 0.02068708
vt 0.6417907 0.1531104
vt 0.6981414 0.02194571
vn -1 0 0
vn -1 0 0
vn -1 0 0
vn -1 0 0
vn 0 1 0
vn 0 1 0
vn 0 1 0
vn 0 1 0
vn 1 0 0
vn 1 0 0
vn 1 0 0
vn 1 0 0
vn 0 -1 0
vn 0 -1 0
vn 0 -1 0
vn 0 -1 0
vn 0 0 -1
vn 0 0 -1
vn 0 0 -1
vn 0 0 -1
vn -0.09844651 0.09844667 0.9902609
vn 0.09844584 0.09844649 0.9902609
vn 0.09844626 -0.09844632 0.9902609
vn -0.09844644 -0.09844666 0.9902609
vn -0.09844651 0.09844667 0.9902609
vn -0.09844644 -0.09844666 0.9902609
vn -0.3331786 -0.3331855 0.8820314
vn -0.3331761 0.3331791 0.8820347
vn 0.09844584 0.09844649 0.9902609
vn -0.9047341 0 0.4259767
vn -0.9047331 0 0.4259789
vn -0.9999764 0 0.006876564
vn -0.9999764 0 0.006878601
vn -0.9131053 0 -0.4077238
vn -0.9131068 0 -0.4077205
vn -0.3441013 -0.3236452 -0.8813898
vn -0.344103 0.3236432 -0.8813899
vn -0.1047564 -0.09299022 -0.9901409
vn 0.3331782 0.3331845 0.8820319
vn 0.09844626 -0.09844632 0.9902609
vn 0 0.9047318 0.4259817
vn 0 0.9047374 0.4259699
vn 0 0.999979 -0.006489185
vn 0 0.999979 -0.006485477
vn 0 0.8965878 -0.442866
vn 0 0.8965894 -0.4428628
vn 0.3440994 0.3236457 -0.8813903
vn -0.1047552 0.09298892 -0.9901411
vn -1.173765E-06 0 -1
vn 2.168698E-07 0 -1
vn 1.17375E-06 0 -1
vn 0.1047564 0.09299021 -0.9901409
vn 0.1047552 -0.09298892 -0.9901411
vn -2.16867E-07 0 -1
vn -1.173765E-06 0 -1
vn -0.1047564 -0.09299022 -0.9901409
vn -0.3441013 -0.3236452 -0.8813898
vn 0.3441012 -0.3236437 -0.8813905
vn 0.9131086 0 -0.4077164
vn 0.9131079 0 -0.4077179
vn 0.9999764 0 0.006881209
vn 0.9999764 0 0.006879158
vn 0 -0.8965873 -0.4428672
vn 0 -0.8965889 -0.4428638
vn 0 -0.999979 -0.006483044
vn 0 -0.9999789 -0.006492417
vn 0 -0.9047347 0.4259755
vn 0 -0.9047344 0.4259761
vn 0.9047354 0 0.4259739
vn 0.9047347 0 0.4259756
vn -0.3331786 -0.3331855 0.8820314
vn 0.3331759 -0.3331789 0.882035
vn -0.09844644 -0.09844666 0.9902609
g Monitor_0
f 3/3/3 2/2/2 1/1/1
f 4/4/4 3/3/3 1/1/1
f 7/7/7 6/6/6 5/5/5
f 8/8/8 7/7/7 5/5/5
f 11/11/11 10/10/10 9/9/9
f 12/12/12 11/11/11 9/9/9
f 15/15/15 14/14/14 13/13/13
f 16/16/16 15/15/15 13/13/13
f 19/19/19 18/18/18 17/17/17
f 20/20/20 19/19/19 17/17/17
f 23/23/23 22/22/22 21/21/21
f 24/24/24 23/23/23 21/21/21
f 27/27/27 26/26/26 25/25/25
f 28/28/28 27/27/27 25/25/25
f 28/28/28 25/25/25 29/29/29
f 30/30/30 27/27/27 28/28/28
f 31/31/31 30/30/30 28/28/28
f 32/32/32 30/30/30 31/31/31
f 33/33/33 32/32/32 31/31/31
f 34/34/34 32/32/32 33/33/33
f 35/35/35 34/34/34 33/33/33
f 36/36/36 34/34/34 35/35/35
f 37/37/37 36/36/36 35/35/35
f 38/38/38 36/36/36 37/37/37
f 39/39/39 28/28/28 29/29/29
f 39/39/39 29/29/29 40/40/40
f 41/41/41 28/28/28 39/39/39
f 42/42/42 41/41/41 39/39/39
f 42/42/42 43/43/43 41/41/41
f 43/43/43 44/44/44 41/41/41
f 45/45/45 44/44/44 43/43/43
f 46/46/46 45/45/45 43/43/43
f 37/37/37 45/45/45 46/46/46
f 47/47/47 37/37/37 46/46/46
f 48/48/48 38/38/38 37/37/37
f 48/48/48 37/37/37 47/47/47
f 38/38/38 48/48/48 49/49/49
f 48/48/48 50/50/50 49/49/49
f 50/50/50 48/48/48 51/51/51
f 48/48/48 52/52/52 51/51/51
f 52/52/52 48/48/48 47/47/47
f 52/52/52 53/53/53 51/51/51
f 53/53/53 54/54/54 51/51/51
f 54/54/54 53/53/53 55/55/55
f 53/53/53 56/56/56 55/55/55
f 56/56/56 53/53/53 57/57/57
f 53/53/53 52/52/52 58/58/58
f 52/52/52 47/47/47 58/58/58
f 53/53/53 58/58/58 57/57/57
f 58/58/58 47/47/47 59/59/59
f 47/47/47 60/60/60 59/59/59
f 59/59/59 60/60/60 61/61/61
f 62/62/62 59/59/59 61/61/61
f 57/57/57 58/58/58 63/63/63
f 64/64/64 57/57/57 63/63/63
f 64/64/64 63/63/63 65/65/65
f 63/63/63 66/66/66 65/65/65
f 65/65/65 66/66/66 67/67/67
f 66/66/66 68/68/68 67/67/67
f 62/62/62 61/61/61 69/69/69
f 70/70/70 62/62/62 69/69/69
f 67/67/67 68/68/68 71/71/71
f 70/70/70 69/69/69 72/72/72
f 68/68/68 72/72/72 71/71/71
f 69/69/69 39/39/39 72/72/72
f 72/72/72 39/39/39 40/40/40
f 71/71/71 72/72/72 40/40/40
f 73/73/73 71/71/71 40/40/40
