g mp7basenozzle_LOD2
v -0.001725232 -0.03072217 0.003721009
v -0.0004255563 -0.03248997 0.003894611
v -0.001331752 -0.0364072 0.004298363
v -0.001284149 -0.03914809 0.0023814
v 8.511628E-05 -0.03758181 0.002711727
v -0.0005617726 -0.03493512 0.002212055
v -0.001513544 -0.03072217 0.002610792
v 8.105731E-05 -0.03234124 0.002779388
v 0.001282749 -0.03072217 0.002377952
v -0.001115554 -0.03752902 0.00381389
v -0.001532629 -0.03914809 0.005134115
v -0.001183214 -0.03228846 0.003809831
v -0.001239165 -0.03072217 0.005427577
v -0.001682942 -0.03493512 0.00445673
v -0.0005617847 -0.03493512 0.005577899
v 8.511599E-05 -0.03758182 0.005078163
v 8.105693E-05 -0.03234123 0.005010503
v 0.001240236 -0.03914809 0.005425158
v 0.001516991 -0.03072217 0.005177698
v 0.001682944 -0.03493512 0.004456731
v 0.001115555 -0.03234124 0.003813891
v 0.001183215 -0.03758181 0.003809832
v 0.001282749 -0.03072217 0.002377952
v 0.001530209 -0.03914809 0.00265471
v 8.511628E-05 -0.03758181 0.002711727
v -0.001284149 -0.03914809 0.0023814
v 8.105731E-05 -0.03234124 0.002779388
v 0.001698196 -0.03914809 0.004092358
v 0.0007328724 -0.03752903 0.003813889
v 0.001331753 -0.0364072 0.004298362
v 0.001009222 -0.03072217 0.005088466
v 0.0007328642 -0.03234124 0.003976005
v 0.001190802 -0.03072217 0.002884626
v 0.0005617816 -0.03493512 0.00519519
v -8.511529E-05 -0.03758181 0.004695473
v -8.105637E-05 -0.03234123 0.004627814
v -0.0007328608 -0.03752902 0.00381389
v -0.0004255563 -0.03248997 0.003894611
v -0.001725232 -0.03072217 0.003721009
v -0.001010322 -0.03914809 0.002704144
v -0.001203913 -0.03914809 0.004870721
v -0.001331752 -0.0364072 0.004298363
v -0.001725232 -0.03072217 0.003721009
v -8.511529E-05 -0.03758181 0.004695473
v 0.001698196 -0.03914809 0.004092358
v -8.105637E-05 -0.03234123 0.004627814
v 0.001009222 -0.03072217 0.005088466
v -0.0004034154 -0.0364072 0.002563196
v -8.38521E-10 -0.03254373 0.003531381
v 0.001190802 -0.03072217 0.002884626
v 8.511866E-05 -0.03758182 0.00309441
v 0.001698196 -0.03914809 0.004092358
v -0.001791884 -0.03072217 0.003538518
v -0.0007194036 -0.03072217 0.002158155
v -0.001366443 -0.03072217 0.003328951
v -0.001519087 -0.03072217 0.004909964
v 1.245984E-10 -0.03072217 0.002415923
v -0.001195162 -0.03072217 0.004693533
v 0.001015021 -0.03072217 0.002375858
v -0.0003564342 -0.03072217 0.005686828
v 0.001195163 -0.03072217 0.003096369
v 1.361052E-09 -0.03072217 0.005373979
v 0.001791884 -0.03072217 0.003538518
v 0.001329279 -0.03072217 0.00522423
v 0.001366444 -0.03072217 0.004460951
v 9.960697E-10 -0.0391481 0.005373975
v -0.001519086 -0.0391481 0.004909968
v -0.0003564341 -0.0391481 0.00568683
v 0.001329279 -0.0391481 0.005224231
v -0.001195163 -0.0391481 0.004693527
v 0.001195165 -0.0391481 0.004693525
v -0.001791884 -0.0391481 0.00353852
v 0.001791884 -0.0391481 0.003538519
v -0.001366443 -0.0391481 0.003328946
v 0.001409789 -0.0391481 0.003614518
v 0.001015021 -0.0391481 0.00237586
v 0.0007985809 -0.0391481 0.002699783
v -0.0007194031 -0.0391481 0.002158156
v -0.0002804256 -0.0391481 0.002485157
vt 0.6598039 0.7377445
vt 0.6731115 0.7353613
vt 0.7061036 0.7332984
vt 0.1784652 0.6855861
vt 0.1710458 0.6752049
vt 0.1441962 0.6785489
vt 0.1099259 0.6875976
vt 0.117347 0.6752014
vt 0.1099265 0.6752009
vt 0.1652589 0.696652
vt 0.1784667 0.7076166
vt 0.1227087 0.6967413
vt 0.1099271 0.7109824
vt 0.1441965 0.7012522
vt 0.1442042 0.7173465
vt 0.1656887 0.7218552
vt 0.1231386 0.7219492
vt 0.1784662 0.7306309
vt 0.1099263 0.7333532
vt 0.1442056 0.7400505
vt 0.1231376 0.7446542
vt 0.1656878 0.744558
vt 0.1099267 0.7560647
vt 0.1784663 0.753333
vt 0.165629 0.7648801
vt 0.1784666 0.7660981
vt 0.1231894 0.7647861
vt 0.7283351 0.7737205
vt 0.7151379 0.77101
vt 0.7061058 0.7756195
vt 0.6598045 0.7823028
vt 0.6730054 0.7736108
vt 0.6598074 0.7644106
vt 0.6940695 0.7868525
vt 0.7209146 0.7901978
vt 0.6672238 0.7901978
vt 0.7151334 0.7379084
vt 0.6731115 0.7353613
vt 0.6598039 0.7377445
vt 0.7283344 0.7465609
vt 0.7283319 0.7289722
vt 0.7061036 0.7332984
vt 0.6598039 0.7377445
vt 0.7154961 0.7199385
vt 0.728332 0.7187205
vt 0.6730636 0.7200328
vt 0.6598027 0.7187186
vt 0.7061045 0.7511501
vt 0.6732254 0.7532702
vt 0.6598074 0.7644106
vt 0.7155617 0.7556655
vt 0.7283351 0.7737205
vt 0.04261555 0.8984836
vt 0.03448739 0.9090703
vt 0.04199274 0.9026717
vt 0.05357243 0.8984836
vt 0.03740912 0.9138879
vt 0.05240428 0.9013039
vt 0.03797109 0.9218327
vt 0.06132023 0.9062313
vt 0.04378374 0.9221157
vt 0.05877902 0.9095317
vt 0.04809402 0.9260259
vt 0.05958172 0.9194646
vt 0.05419533 0.9207479
vt 0.005343713 0.9095361
vt 0.01055022 0.8984879
vt 0.00280249 0.9062356
vt 0.004540996 0.9194691
vt 0.01171843 0.9013082
vt 0.008064366 0.9196785
vt 0.0215072 0.8984879
vt 0.0160287 0.92603
vt 0.02212997 0.902676
vt 0.0160287 0.9229774
vt 0.02615161 0.9218371
vt 0.02399303 0.9196784
vt 0.02963527 0.9090747
vt 0.02729199 0.9117141
vn 0.9778631 0.008911583 0.2090559
vn 0.9759158 0.123237 0.1800028
vn 0.3917151 0.1319654 0.9105737
vn -0.7591265 0.009338777 -0.650876
vn -0.05804721 -0.003357094 -0.9983082
vn 0.01132253 -0.0182198 -0.9997699
vn -0.7366033 -0.01092575 -0.6762369
vn -0.05264479 -0.004516771 -0.998603
vn 0.7213621 -0.01620593 -0.6923684
vn -0.9974566 0.005310328 0.07107905
vn -0.6979362 0.009643965 0.716095
vn -0.997872 0.004242108 0.06506599
vn -0.7180758 -0.007995913 0.695919
vn -0.9999729 -0.007354987 6.103723E-05
vn -0.001281808 0.008545386 0.9999627
vn -0.06881958 -0.003051866 0.9976245
vn -0.07492436 -0.004120077 0.9971807
vn 0.6671263 0.005981827 0.7449206
vn 0.6439803 -0.01327574 0.7649269
vn 0.9999332 0.0099798 0.00582918
vn 0.9969958 -0.003051904 0.07739627
vn 0.9974405 -0.001953193 0.07147464
vn 0.7213621 -0.01620593 -0.6923684
vn 0.7049186 0.007141352 -0.7092522
vn -0.05804721 -0.003357094 -0.9983082
vn -0.7591265 0.009338777 -0.650876
vn -0.05264479 -0.004516771 -0.998603
vn -0.9762965 0.07379446 -0.2034689
vn -0.900834 -0.1242435 -0.4160067
vn -0.9041087 -0.02447661 0.4266011
vn -0.7977442 -0.01699925 -0.6027564
vn -0.9723305 -0.1055342 -0.2084132
vn -0.6464304 0.01471033 0.7628311
vn -0.2264228 0.07938075 -0.9707891
vn 0.0005188149 0.01348919 -0.9999089
vn 0.005523873 0.01202434 -0.9999125
vn 0.9919441 0.1128915 0.05746818
vn 0.9759158 0.123237 0.1800028
vn 0.9778631 0.008911583 0.2090559
vn 0.8429626 0.02105804 0.5375599
vn 0.604982 0.006164877 -0.7962153
vn 0.3917151 0.1319654 0.9105737
vn 0.9778631 0.008911583 0.2090559
vn 0.0005188149 0.01348919 -0.9999089
vn -0.9762965 0.07379446 -0.2034689
vn 0.005523873 0.01202434 -0.9999125
vn -0.7977442 -0.01699925 -0.6027564
vn 0.09891087 -0.1120034 0.9887729
vn -0.007538141 -0.01300101 0.9998871
vn -0.6464304 0.01471033 0.7628311
vn -0.0167547 -0.004394676 0.9998499
vn -0.9762965 0.07379446 -0.2034689
vn 0 1 0
vn 0 1 0
vn 0 1 0
vn 0 1 0
vn 0 1 0
vn 0 1 0
vn 0 1 0
vn 0 1 0
vn 0 1 0
vn 0 1 0
vn 0 1 0
vn 0 1 0
vn 0 1 0
vn 0 -1 0
vn 0 -1 0
vn 0 -1 0
vn 0 -1 0
vn 0 -1 0
vn 0 -1 0
vn 0 -1 0
vn 0 -1 0
vn 0 -1 0
vn 0 -1 0
vn 0 -1 0
vn 0 -1 0
vn 0 -1 0
vn 0 -1 0
g mp7basenozzle_LOD2_0
f 3/3/3 2/2/2 1/1/1
f 6/6/6 5/5/5 4/4/4
f 6/6/6 4/4/4 7/7/7
f 8/8/8 6/6/6 7/7/7
f 7/7/7 9/9/9 8/8/8
f 10/10/10 7/7/7 4/4/4
f 4/4/4 11/11/11 10/10/10
f 10/10/10 12/12/12 7/7/7
f 13/13/13 7/7/7 12/12/12
f 14/14/14 10/10/10 11/11/11
f 13/13/13 12/12/12 14/14/14
f 11/11/11 13/13/13 14/14/14
f 15/15/15 13/13/13 11/11/11
f 16/16/16 15/15/15 11/11/11
f 15/15/15 17/17/17 13/13/13
f 11/11/11 18/18/18 16/16/16
f 17/17/17 16/16/16 18/18/18
f 19/19/19 13/13/13 17/17/17
f 17/17/17 18/18/18 19/19/19
f 20/20/20 19/19/19 18/18/18
f 20/20/20 21/21/21 19/19/19
f 22/22/22 20/20/20 18/18/18
f 23/23/23 19/19/19 21/21/21
f 23/23/23 21/21/21 22/22/22
f 18/18/18 24/24/24 22/22/22
f 22/22/22 24/24/24 23/23/23
f 25/25/25 23/23/23 24/24/24
f 24/24/24 26/26/26 25/25/25
f 23/23/23 25/25/25 27/27/27
f 30/30/30 29/29/29 28/28/28
f 28/28/28 31/31/31 30/30/30
f 31/31/31 32/32/32 30/30/30
f 31/31/31 33/33/33 32/32/32
f 34/34/34 31/31/31 28/28/28
f 28/28/28 35/35/35 34/34/34
f 31/31/31 34/34/34 36/36/36
f 39/39/39 38/38/38 37/37/37
f 40/40/40 39/39/39 37/37/37
f 37/37/37 41/41/41 40/40/40
f 41/41/41 37/37/37 42/42/42
f 42/42/42 43/43/43 41/41/41
f 44/44/44 41/41/41 43/43/43
f 44/44/44 45/45/45 41/41/41
f 46/46/46 44/44/44 43/43/43
f 43/43/43 47/47/47 46/46/46
f 39/39/39 40/40/40 48/48/48
f 48/48/48 49/49/49 39/39/39
f 50/50/50 39/39/39 49/49/49
f 51/51/51 48/48/48 40/40/40
f 49/49/49 51/51/51 50/50/50
f 51/51/51 40/40/40 52/52/52
f 52/52/52 50/50/50 51/51/51
f 55/55/55 54/54/54 53/53/53
f 53/53/53 56/56/56 55/55/55
f 55/55/55 57/57/57 54/54/54
f 56/56/56 58/58/58 55/55/55
f 59/59/59 54/54/54 57/57/57
f 56/56/56 60/60/60 58/58/58
f 61/61/61 59/59/59 57/57/57
f 60/60/60 62/62/62 58/58/58
f 63/63/63 59/59/59 61/61/61
f 60/60/60 64/64/64 62/62/62
f 65/65/65 63/63/63 61/61/61
f 62/62/62 64/64/64 65/65/65
f 64/64/64 63/63/63 65/65/65
f 68/68/68 67/67/67 66/66/66
f 66/66/66 69/69/69 68/68/68
f 67/67/67 70/70/70 66/66/66
f 66/66/66 71/71/71 69/69/69
f 67/67/67 72/72/72 70/70/70
f 73/73/73 69/69/69 71/71/71
f 72/72/72 74/74/74 70/70/70
f 75/75/75 73/73/73 71/71/71
f 76/76/76 73/73/73 75/75/75
f 77/77/77 76/76/76 75/75/75
f 74/74/74 72/72/72 78/78/78
f 78/78/78 76/76/76 77/77/77
f 79/79/79 74/74/74 78/78/78
f 79/79/79 78/78/78 77/77/77
