g mp7basenozzle_LOD3
v 0.001698196 -0.03914809 0.004092358
v 0.001627717 -0.03073115 0.003717314
v 0.0004255562 -0.0373803 0.003895284
v -0.001602255 -0.03913922 0.004063743
v -0.001725232 -0.03072217 0.003721009
v -0.0004255563 -0.03248997 0.003894611
v 0.001627717 -0.03073115 0.003717314
v 0.001698196 -0.03914809 0.004092358
v -0.0001776339 -0.03913912 0.002267225
v -0.0001776339 -0.03913912 0.002267225
v 8.511866E-05 -0.03758182 0.00309441
v 0.001627717 -0.03073115 0.003717314
v 0.001329279 -0.0391481 0.005224231
v 0.001195165 -0.0391481 0.004693525
v -0.0002227524 -0.0391481 0.005510955
v 0.001622256 -0.0391481 0.002810989
v 0.001276332 -0.0391481 0.003042127
v -0.0007194031 -0.0391481 0.002158156
v -0.0002804256 -0.0391481 0.002485157
v -0.00157824 -0.0391481 0.003482323
v 0.001366444 -0.03072217 0.004460951
v 0.001660204 -0.03072217 0.003567887
v 0.001329279 -0.03072217 0.00522423
v -0.0002227502 -0.03072217 0.005510957
v 0.002180021 -0.03914809 0.004141575
v 0.0001062888 -0.03073599 0.001768444
v 6.949141E-05 -0.0391349 0.001789651
v 0.001183215 -0.03758181 0.003809832
v 0.0003170967 -0.03072217 0.006041038
v 0.001682944 -0.03493512 0.004456731
v 0.001115555 -0.03234124 0.003813891
v 8.511599E-05 -0.03758182 0.005078163
v -0.002101788 -0.03913475 0.003821829
v -0.0005617847 -0.03493512 0.005577899
v 8.105693E-05 -0.03234123 0.005010503
v -0.001682942 -0.03493512 0.00445673
v -0.002126496 -0.03073599 0.003788659
v -0.0005617726 -0.03493512 0.002212055
v 0.0001062888 -0.03073599 0.001768444
v 6.949141E-05 -0.0391349 0.001789651
v -0.002101788 -0.03913475 0.003821829
v 0.0007328642 -0.03234124 0.003976005
v 0.001627717 -0.03073115 0.003717314
v -7.238542E-05 -0.03073571 0.005600302
v 0.0004255562 -0.0373803 0.003895284
v 0.001698196 -0.03914809 0.004092358
v 0.0005617816 -0.03493512 0.00519519
v -8.511529E-05 -0.03758181 0.004695473
v -0.0001776339 -0.03913912 0.002267225
v -0.001602255 -0.03913922 0.004063743
v -0.0007328608 -0.03752902 0.00381389
v -0.001725232 -0.03072217 0.003721009
v -0.0004255563 -0.03248997 0.003894611
v -8.38521E-10 -0.03254373 0.003531381
v 0.001627717 -0.03073115 0.003717314
v 8.511866E-05 -0.03758182 0.00309441
v -8.511529E-05 -0.03758181 0.004695473
v -7.238542E-05 -0.03073571 0.005600302
v -0.001602255 -0.03913922 0.004063743
v 0.001698196 -0.03914809 0.004092358
v -0.0007194036 -0.03072217 0.002158155
v 1.245984E-10 -0.03072217 0.002415923
v -0.00157824 -0.03072217 0.003482326
v 0.001015021 -0.03072217 0.002375858
v 0.001660204 -0.03072217 0.003567887
vt 0.7283351 0.7737205
vt 0.6614719 0.7647544
vt 0.7150295 0.7710654
vt 0.7268122 0.729268
vt 0.6598039 0.7377445
vt 0.6731115 0.7353613
vt 0.6614719 0.7647544
vt 0.7283351 0.7737205
vt 0.72667 0.7469045
vt 0.72667 0.7469045
vt 0.7155617 0.7556655
vt 0.6614719 0.7647544
vt 0.004540996 0.9194691
vt 0.008064366 0.9196785
vt 0.003962495 0.9077421
vt 0.02109016 0.9239336
vt 0.02001086 0.9213279
vt 0.02963527 0.9090747
vt 0.02729199 0.9117141
vt 0.02179148 0.9003997
vt 0.05419533 0.9207479
vt 0.04758146 0.9255609
vt 0.05958172 0.9194646
vt 0.06016023 0.9077379
vt 0.1784662 0.7418324
vt 0.1136653 0.7585232
vt 0.1736099 0.7656373
vt 0.1656878 0.744558
vt 0.1099267 0.7230633
vt 0.1442056 0.7400505
vt 0.1231376 0.7446542
vt 0.1656887 0.7218552
vt 0.1740526 0.7039522
vt 0.1442042 0.7173465
vt 0.1231386 0.7219492
vt 0.1441965 0.7012522
vt 0.1138612 0.6904126
vt 0.1441962 0.6785489
vt 0.1120183 0.6752011
vt 0.1756583 0.6816586
vt 0.1740526 0.7039522
vt 0.6730054 0.7736108
vt 0.6614719 0.7647544
vt 0.6615852 0.7841977
vt 0.7150295 0.7710654
vt 0.7283351 0.7737205
vt 0.6940695 0.7868525
vt 0.7209146 0.7901978
vt 0.72667 0.7469045
vt 0.7268122 0.729268
vt 0.7151334 0.7379084
vt 0.6598039 0.7377445
vt 0.6731115 0.7353613
vt 0.6732254 0.7532702
vt 0.6614719 0.7647544
vt 0.7155617 0.7556655
vt 0.7154961 0.7199385
vt 0.6629854 0.719034
vt 0.7268122 0.729268
vt 0.728332 0.7187205
vt 0.03448739 0.9090703
vt 0.03740912 0.9138879
vt 0.04233126 0.9003953
vt 0.03797109 0.9218327
vt 0.04758146 0.9255609
vn -0.8627682 0.06647008 -0.5012113
vn -0.7750826 -0.0632652 0.6286846
vn -0.6981923 -0.05469076 -0.7138182
vn 0.8237949 0.07516789 -0.5618823
vn 0.8553273 0.01675497 0.517817
vn 0.7593734 0.05584975 0.6482537
vn -0.7750826 -0.0632652 0.6286846
vn -0.8627682 0.06647008 -0.5012113
vn 0.6617522 -0.04706092 0.7482442
vn 0.6617522 -0.04706092 0.7482442
vn -0.3300362 -0.05786467 0.9421931
vn -0.7750826 -0.0632652 0.6286846
vn 0 -1 0
vn 0 -1 0
vn 0 -1 0
vn 0 -1 0
vn 0 -1 0
vn 0 -1 0
vn 0 -1 0
vn 0 -1 0
vn 0 1 0
vn 0 1 0
vn 0 1 0
vn 0 1 0
vn 0.923088 -0.1075196 0.3692535
vn 0.3908547 0.2833063 -0.8757684
vn 0.09796564 -0.01095628 -0.9951295
vn 0.9696788 0.2418627 0.03500524
vn 0.2583717 0.1006203 0.9607912
vn 0.9785352 0.1818941 0.09686776
vn 0.9698322 0.2411305 0.03579877
vn -0.1601047 -0.2551726 0.9535478
vn -0.9480963 -0.2974665 0.1123701
vn -0.2647221 -0.3522507 0.8976868
vn -0.1484151 -0.2441844 0.9583042
vn -0.5495275 -0.05267603 0.8338133
vn -0.9972633 0.04162766 -0.06109866
vn -0.7579163 -0.03787445 -0.6512514
vn 0.3908547 0.2833063 -0.8757684
vn 0.09796564 -0.01095628 -0.9951295
vn -0.9480963 -0.2974665 0.1123701
vn -0.9993795 -0.02972563 0.01889134
vn -0.7750826 -0.0632652 0.6286846
vn -0.4212601 0.05984866 -0.904963
vn -0.6981923 -0.05469076 -0.7138182
vn -0.8627682 0.06647008 -0.5012113
vn -0.7455577 -0.02679601 -0.6659021
vn 0.2306924 0.1584847 -0.9600331
vn 0.6617522 -0.04706092 0.7482442
vn 0.8237949 0.07516789 -0.5618823
vn 0.9838715 0.02911512 -0.1764913
vn 0.8553273 0.01675497 0.517817
vn 0.7593734 0.05584975 0.6482537
vn -0.2122305 -0.1220768 0.9695646
vn -0.7750826 -0.0632652 0.6286846
vn -0.3300362 -0.05786467 0.9421931
vn 0.2306924 0.1584847 -0.9600331
vn -0.4212601 0.05984866 -0.904963
vn 0.8237949 0.07516789 -0.5618823
vn -0.8627682 0.06647008 -0.5012113
vn 0 1 0
vn 0 1 0
vn 0 1 0
vn 0 1 0
vn 0 1 0
g mp7basenozzle_LOD3_0
f 3/3/3 2/2/2 1/1/1
f 6/6/6 5/5/5 4/4/4
f 9/9/9 8/8/8 7/7/7
f 12/12/12 11/11/11 10/10/10
f 15/15/15 14/14/14 13/13/13
f 16/16/16 13/13/13 14/14/14
f 17/17/17 16/16/16 14/14/14
f 18/18/18 16/16/16 17/17/17
f 19/19/19 18/18/18 17/17/17
f 19/19/19 20/20/20 18/18/18
f 23/23/23 22/22/22 21/21/21
f 24/24/24 23/23/23 21/21/21
f 27/27/27 26/26/26 25/25/25
f 28/28/28 25/25/25 26/26/26
f 29/29/29 25/25/25 28/28/28
f 28/28/28 30/30/30 29/29/29
f 26/26/26 31/31/31 28/28/28
f 30/30/30 31/31/31 29/29/29
f 26/26/26 29/29/29 31/31/31
f 25/25/25 29/29/29 32/32/32
f 33/33/33 25/25/25 32/32/32
f 32/32/32 34/34/34 33/33/33
f 33/33/33 34/34/34 35/35/35
f 29/29/29 35/35/35 32/32/32
f 35/35/35 29/29/29 33/33/33
f 36/36/36 33/33/33 29/29/29
f 37/37/37 36/36/36 29/29/29
f 39/39/39 38/38/38 37/37/37
f 38/38/38 40/40/40 37/37/37
f 41/41/41 37/37/37 40/40/40
f 44/44/44 43/43/43 42/42/42
f 44/44/44 42/42/42 45/45/45
f 45/45/45 46/46/46 44/44/44
f 47/47/47 44/44/44 46/46/46
f 48/48/48 47/47/47 46/46/46
f 51/51/51 50/50/50 49/49/49
f 49/49/49 52/52/52 51/51/51
f 52/52/52 53/53/53 51/51/51
f 54/54/54 52/52/52 49/49/49
f 55/55/55 52/52/52 54/54/54
f 54/54/54 56/56/56 55/55/55
f 52/52/52 58/58/58 57/57/57
f 57/57/57 59/59/59 52/52/52
f 57/57/57 60/60/60 59/59/59
f 63/63/63 62/62/62 61/61/61
f 64/64/64 61/61/61 62/62/62
f 65/65/65 64/64/64 62/62/62
