g mp7basenozzle_LOD1
v -0.001284149 -0.03914809 0.0023814
v 3.440581E-10 -0.03823588 0.002100257
v -0.0004034155 -0.0364072 0.0021805
v -0.0004034155 -0.03346306 0.002180501
v -0.001513544 -0.03072217 0.002610792
v 3.440581E-10 -0.03163439 0.002100255
v 0.001282749 -0.03072217 0.002377952
v -0.001714445 -0.03640721 0.003491531
v -0.001794689 -0.03823588 0.003894947
v -0.001714445 -0.03346306 0.003491531
v -0.001794689 -0.03163439 0.003894947
v -0.001239165 -0.03072217 0.005427577
v -0.001532629 -0.03914809 0.005134115
v -0.001714444 -0.03346306 0.004298362
v -0.001714445 -0.0364072 0.004298362
v -0.0004034155 -0.0364072 0.005609393
v 3.440581E-10 -0.03823588 0.005689634
v -0.0004034154 -0.03346306 0.005609392
v 3.440581E-10 -0.03163439 0.005689634
v 0.001240236 -0.03914809 0.005425158
v 0.001516991 -0.03072217 0.005177698
v 0.0004034162 -0.0364072 0.005609392
v 0.0004034162 -0.03346306 0.005609392
v 0.001714445 -0.0364072 0.004298362
v 0.001794689 -0.03823588 0.003894947
v 0.001714445 -0.03346306 0.004298362
v 0.001794689 -0.03163439 0.003894947
v 0.001530209 -0.03914809 0.00265471
v 0.001282749 -0.03072217 0.002377952
v 0.001714445 -0.03346306 0.003491532
v 0.001714445 -0.0364072 0.003491532
v 0.0004034162 -0.0364072 0.0021805
v 3.440581E-10 -0.03823588 0.002100257
v -0.001284149 -0.03914809 0.0023814
v 0.0004034162 -0.03346306 0.002180501
v 3.440581E-10 -0.03163439 0.002100255
v -0.001203913 -0.03914809 0.004870721
v 0.001121204 -0.03914809 0.00501615
v 3.440581E-10 -0.03823588 0.005306944
v -0.0004034155 -0.0364072 0.005226701
v -0.0004034155 -0.03346306 0.005226703
v -0.001193514 -0.03072217 0.004904173
v 3.440581E-10 -0.03163439 0.005306947
v 0.001009222 -0.03072217 0.005088466
v -0.001331752 -0.0364072 0.004298363
v -0.001411996 -0.03823588 0.003894947
v -0.001331753 -0.03346306 0.004298362
v -0.001411996 -0.03163439 0.003894947
v -0.001010322 -0.03914809 0.002704144
v -0.0009749297 -0.03072217 0.002689132
v -0.001331752 -0.03346306 0.003491532
v -0.001331752 -0.0364072 0.003491531
v -0.0004034155 -0.03346306 0.002563198
v -0.0004034154 -0.0364072 0.002563196
v 3.440581E-10 -0.03163439 0.002482953
v 3.440581E-10 -0.03823588 0.002482951
v 0.001190802 -0.03072217 0.002884626
v 0.001098397 -0.03914809 0.002834587
v 0.0004034161 -0.0364072 0.002563196
v 0.0004034162 -0.03346306 0.002563198
v 0.001331752 -0.0364072 0.003491532
v 0.001411997 -0.03823588 0.003894947
v 0.001331751 -0.03346306 0.003491532
v 0.001411997 -0.03163439 0.003894947
v 0.001121204 -0.03914809 0.00501615
v 0.001009222 -0.03072217 0.005088466
v 0.001331753 -0.03346306 0.004298362
v 0.001331753 -0.0364072 0.004298362
v 0.0004034162 -0.0364072 0.005226702
v 3.440581E-10 -0.03823588 0.005306944
v 0.0004034162 -0.03346306 0.005226703
v 3.440581E-10 -0.03163439 0.005306947
v 3.440581E-10 -0.03163439 0.002482953
v 0.0004034162 -0.03346306 0.002563198
v 0.0004034162 -0.03346306 0.002180501
v 3.440581E-10 -0.03163439 0.002100255
v 3.440581E-10 -0.03163439 0.005306947
v 3.440581E-10 -0.03163439 0.005689634
v 0.0004034162 -0.03346306 0.005609392
v 0.0004034162 -0.03346306 0.005226703
v 3.440581E-10 -0.03823588 0.002482951
v -0.0004034154 -0.0364072 0.002563196
v -0.0004034155 -0.0364072 0.0021805
v 3.440581E-10 -0.03823588 0.002100257
v 3.440581E-10 -0.03823588 0.005306944
v 3.440581E-10 -0.03823588 0.005689634
v -0.0004034155 -0.0364072 0.005609393
v -0.0004034155 -0.0364072 0.005226701
v 0.0004034162 -0.03346306 0.002180501
v 0.0004034162 -0.03346306 0.002563198
v 0.0004034161 -0.0364072 0.002563196
v 0.0004034162 -0.0364072 0.0021805
v 0.0004034162 -0.03346306 0.005226703
v 0.0004034162 -0.03346306 0.005609392
v 0.0004034162 -0.0364072 0.005609392
v 0.0004034162 -0.0364072 0.005226702
v -0.0004034155 -0.0364072 0.0021805
v -0.0004034154 -0.0364072 0.002563196
v -0.0004034155 -0.03346306 0.002563198
v -0.0004034155 -0.03346306 0.002180501
v -0.0004034155 -0.0364072 0.005609393
v -0.0004034154 -0.03346306 0.005609392
v -0.0004034155 -0.03346306 0.005226703
v -0.0004034155 -0.0364072 0.005226701
v -0.0004034155 -0.03346306 0.002180501
v -0.0004034155 -0.03346306 0.002563198
v 3.440581E-10 -0.03163439 0.002482953
v 3.440581E-10 -0.03163439 0.002100255
v -0.0004034154 -0.03346306 0.005609392
v 3.440581E-10 -0.03163439 0.005689634
v 3.440581E-10 -0.03163439 0.005306947
v -0.0004034155 -0.03346306 0.005226703
v 0.0004034162 -0.0364072 0.0021805
v 0.0004034161 -0.0364072 0.002563196
v 3.440581E-10 -0.03823588 0.002482951
v 3.440581E-10 -0.03823588 0.002100257
v 0.0004034162 -0.0364072 0.005609392
v 3.440581E-10 -0.03823588 0.005689634
v 3.440581E-10 -0.03823588 0.005306944
v 0.0004034162 -0.0364072 0.005226702
v -0.001411996 -0.03163439 0.003894947
v -0.001331752 -0.03346306 0.003491532
v -0.001714445 -0.03346306 0.003491531
v -0.001794689 -0.03163439 0.003894947
v 0.001411997 -0.03163439 0.003894947
v 0.001794689 -0.03163439 0.003894947
v 0.001714445 -0.03346306 0.003491532
v 0.001331751 -0.03346306 0.003491532
v -0.001411996 -0.03823588 0.003894947
v -0.001331752 -0.0364072 0.004298363
v -0.001714445 -0.0364072 0.004298362
v -0.001794689 -0.03823588 0.003894947
v 0.001411997 -0.03823588 0.003894947
v 0.001794689 -0.03823588 0.003894947
v 0.001714445 -0.0364072 0.004298362
v 0.001331753 -0.0364072 0.004298362
v -0.001714445 -0.03346306 0.003491531
v -0.001331752 -0.03346306 0.003491532
v -0.001331752 -0.0364072 0.003491531
v -0.001714445 -0.03640721 0.003491531
v 0.001331751 -0.03346306 0.003491532
v 0.001714445 -0.03346306 0.003491532
v 0.001714445 -0.0364072 0.003491532
v 0.001331752 -0.0364072 0.003491532
v -0.001331752 -0.0364072 0.004298363
v -0.001331753 -0.03346306 0.004298362
v -0.001714444 -0.03346306 0.004298362
v -0.001714445 -0.0364072 0.004298362
v 0.001714445 -0.0364072 0.004298362
v 0.001714445 -0.03346306 0.004298362
v 0.001331753 -0.03346306 0.004298362
v 0.001331753 -0.0364072 0.004298362
v -0.001714444 -0.03346306 0.004298362
v -0.001331753 -0.03346306 0.004298362
v -0.001411996 -0.03163439 0.003894947
v -0.001794689 -0.03163439 0.003894947
v 0.001714445 -0.03346306 0.004298362
v 0.001794689 -0.03163439 0.003894947
v 0.001411997 -0.03163439 0.003894947
v 0.001331753 -0.03346306 0.004298362
v -0.001714445 -0.03640721 0.003491531
v -0.001331752 -0.0364072 0.003491531
v -0.001411996 -0.03823588 0.003894947
v -0.001794689 -0.03823588 0.003894947
v 0.001714445 -0.0364072 0.003491532
v 0.001794689 -0.03823588 0.003894947
v 0.001411997 -0.03823588 0.003894947
v 0.001331752 -0.0364072 0.003491532
v 0.001195163 -0.03072217 0.003096369
v 0.001269037 -0.03072217 0.002625907
v 0.001658077 -0.03072217 0.003208147
v 0.001794689 -0.03072217 0.003894944
v 0.001411996 -0.03072217 0.00389495
v 0.001519087 -0.03072217 0.004909964
v 0.001195163 -0.03072217 0.004693531
v 0.0006867978 -0.03072217 0.005553024
v 0.0005403478 -0.03072217 0.005199467
v 0.0002804253 -0.03072217 0.002485161
v -0.0003564342 -0.03072217 0.005686828
v -0.0002804281 -0.03072217 0.005304741
v 0.0006867981 -0.03072217 0.002236867
v 3.460083E-10 -0.03072217 0.002100255
v -0.0006867975 -0.03072217 0.002236867
v -0.0005403473 -0.03072217 0.002590435
v -0.001269037 -0.03072217 0.002625906
v -0.001195162 -0.03072217 0.004693533
v -0.001269036 -0.03072217 0.005163983
v -0.001658076 -0.03072217 0.004581744
v -0.001411996 -0.03072217 0.00389495
v -0.001794689 -0.03072217 0.003894944
v -0.001195162 -0.03072217 0.003096369
v -0.001658077 -0.03072217 0.003208147
v 0.0005403478 -0.03914809 0.005199463
v 7.501772E-11 -0.03914809 0.005689636
v 0.0006867978 -0.03914809 0.005553025
v 0.001519087 -0.0391481 0.004909966
v 0.001195165 -0.0391481 0.004693525
v 0.001794689 -0.03914809 0.003894947
v -0.0002804286 -0.0391481 0.005304736
v -0.000686797 -0.03914809 0.005553025
v -0.001269036 -0.03914809 0.005163985
v 0.001409789 -0.0391481 0.003614518
v 0.001658077 -0.03914809 0.003208149
v 0.001269037 -0.03914809 0.002625909
v -0.001195163 -0.0391481 0.004693527
v -0.001658076 -0.03914809 0.004581746
v -0.001794689 -0.03914809 0.003894947
v -0.001411996 -0.03914809 0.003894945
v -0.001658077 -0.03914809 0.003208149
v -0.001195162 -0.0391481 0.003096365
v -0.001269037 -0.03914809 0.002625908
v 0.0007985809 -0.0391481 0.002699783
v 0.0006867981 -0.03914809 0.002236869
v 3.460083E-10 -0.03914809 0.002100257
v -0.0002804256 -0.0391481 0.002485157
v -0.0006867975 -0.03914809 0.002236869
vt 0.1784652 0.6855861
vt 0.1710458 0.6752049
vt 0.1561705 0.6785497
vt 0.1322221 0.6785482
vt 0.1099259 0.6875976
vt 0.117347 0.6752014
vt 0.1099265 0.6752009
vt 0.1562237 0.6946454
vt 0.1711025 0.6979498
vt 0.1321686 0.6946399
vt 0.1172901 0.6979451
vt 0.1099271 0.7109824
vt 0.1784667 0.7076166
vt 0.1321689 0.7012495
vt 0.1562242 0.701255
vt 0.156232 0.7173489
vt 0.1711047 0.7206525
vt 0.1321766 0.7173442
vt 0.1172923 0.7206503
vt 0.1784662 0.7306309
vt 0.1099263 0.7333532
vt 0.1562333 0.7239549
vt 0.1321782 0.7239575
vt 0.1562332 0.7400522
vt 0.1711043 0.743355
vt 0.132178 0.7400488
vt 0.1172919 0.7433556
vt 0.1784663 0.753333
vt 0.1099267 0.7560647
vt 0.1321761 0.7466621
vt 0.1562317 0.746658
vt 0.1561711 0.7627532
vt 0.1710464 0.7660984
vt 0.1784666 0.7660981
vt 0.1322223 0.7627541
vt 0.1173474 0.7661005
vt 0.7283319 0.7289722
vt 0.728332 0.7187205
vt 0.7209127 0.7187203
vt 0.7060397 0.7220653
vt 0.6820956 0.7220646
vt 0.6598027 0.7287421
vt 0.6672222 0.7187188
vt 0.6598027 0.7187186
vt 0.7061036 0.7332984
vt 0.7209756 0.7366083
vt 0.6820359 0.7332958
vt 0.6671611 0.7366061
vt 0.7283344 0.7465609
vt 0.6598051 0.7465496
vt 0.6820326 0.7399159
vt 0.7061003 0.7399186
vt 0.6820362 0.7511474
vt 0.7061045 0.7511501
vt 0.6671635 0.7544575
vt 0.7209781 0.75446
vt 0.6598074 0.7644106
vt 0.728337 0.7635175
vt 0.7061053 0.7577702
vt 0.682037 0.7577675
vt 0.7061071 0.7689996
vt 0.7209786 0.7723103
vt 0.6820386 0.7690011
vt 0.6671639 0.7723104
vt 0.7283339 0.7811285
vt 0.6598045 0.7823028
vt 0.6820374 0.7756214
vt 0.7061058 0.7756195
vt 0.7060422 0.7868525
vt 0.7209146 0.7901978
vt 0.6820969 0.7868525
vt 0.6672238 0.7901978
vt 0.1099204 0.8020802
vt 0.1251508 0.8027328
vt 0.1251507 0.7996203
vt 0.1099204 0.7989677
vt 0.4450698 0.2897836
vt 0.4481823 0.2897836
vt 0.4475295 0.2745531
vt 0.4444171 0.2745531
vt 0.9846781 0.9180158
vt 0.9840254 0.9332464
vt 0.987138 0.9332464
vt 0.9877905 0.9180159
vt 0.2280892 0.7204387
vt 0.2312017 0.7204387
vt 0.2305492 0.7052083
vt 0.2274367 0.7052083
vt 0.1251507 0.7996203
vt 0.1251508 0.8027328
vt 0.149096 0.8027328
vt 0.1490958 0.7996202
vt 0.4444171 0.2745531
vt 0.4475295 0.2745531
vt 0.4475295 0.2506081
vt 0.4444171 0.2506081
vt 0.987138 0.9332464
vt 0.9840254 0.9332464
vt 0.9840253 0.9571914
vt 0.9871379 0.9571914
vt 0.2305492 0.7052083
vt 0.2305492 0.6812632
vt 0.2274367 0.6812632
vt 0.2274367 0.7052083
vt 0.9871379 0.9571914
vt 0.9840253 0.9571914
vt 0.9846781 0.9724218
vt 0.9877905 0.9724218
vt 0.2305492 0.6812632
vt 0.2312017 0.6660328
vt 0.2280892 0.6660328
vt 0.2274367 0.6812632
vt 0.1490958 0.7996202
vt 0.149096 0.8027328
vt 0.1643263 0.8020801
vt 0.1643263 0.7989677
vt 0.4475295 0.2506081
vt 0.4481823 0.2353777
vt 0.4450698 0.2353777
vt 0.4444171 0.2506081
vt 0.2280858 0.7255883
vt 0.227433 0.7408186
vt 0.2305456 0.7408186
vt 0.2311984 0.7255883
vt 0.8096099 0.3132623
vt 0.8064975 0.3132623
vt 0.8071499 0.3284928
vt 0.8102625 0.3284928
vt 0.2995724 0.2622937
vt 0.300225 0.2470634
vt 0.2971125 0.2470634
vt 0.2964599 0.2622937
vt 0.9914068 0.5446221
vt 0.9882942 0.5446221
vt 0.988947 0.5598525
vt 0.9920594 0.5598525
vt 0.2305456 0.7408186
vt 0.227433 0.7408186
vt 0.227433 0.7647637
vt 0.2305456 0.7647638
vt 0.8102625 0.3284928
vt 0.8071499 0.3284928
vt 0.8071499 0.3524379
vt 0.8102625 0.3524379
vt 0.300225 0.2470634
vt 0.300225 0.2231182
vt 0.2971125 0.2231182
vt 0.2971125 0.2470634
vt 0.988947 0.5598525
vt 0.988947 0.5837977
vt 0.9920594 0.5837977
vt 0.9920594 0.5598525
vt 0.2971125 0.2231182
vt 0.300225 0.2231182
vt 0.2995724 0.2078879
vt 0.2964599 0.2078879
vt 0.988947 0.5837977
vt 0.9882942 0.5990281
vt 0.9914068 0.5990281
vt 0.9920594 0.5837977
vt 0.2305456 0.7647638
vt 0.227433 0.7647637
vt 0.2280858 0.7799942
vt 0.2311984 0.7799942
vt 0.8071499 0.3524379
vt 0.8064975 0.3676683
vt 0.8096099 0.3676683
vt 0.8102625 0.3524379
vt 0.04378374 0.9221157
vt 0.03998468 0.9238463
vt 0.0452464 0.9260258
vt 0.05094162 0.9260258
vt 0.05033443 0.922973
vt 0.05821692 0.9218327
vt 0.05605837 0.9196742
vt 0.06240997 0.9145574
vt 0.05935732 0.9139502
vt 0.03768817 0.91602
vt 0.06132023 0.9062313
vt 0.05849996 0.9073995
vt 0.03595749 0.9198191
vt 0.03377799 0.9145575
vt 0.03377799 0.9088622
vt 0.03683082 0.9094694
vt 0.03595749 0.9036005
vt 0.05240428 0.9013039
vt 0.05620328 0.8995733
vt 0.05094162 0.8973938
vt 0.04585359 0.9004465
vt 0.0452464 0.8973938
vt 0.0401297 0.9037455
vt 0.03998468 0.8995733
vt 0.004765369 0.9139546
vt 0.001712717 0.9088665
vt 0.001712717 0.9145617
vt 0.005905801 0.9218371
vt 0.008064366 0.9196785
vt 0.01318107 0.9260301
vt 0.005622796 0.9074038
vt 0.00389222 0.9036047
vt 0.007919348 0.8995777
vt 0.0160287 0.9229774
vt 0.01887635 0.9260301
vt 0.02413801 0.9238506
vt 0.01171843 0.9013082
vt 0.01318107 0.8973982
vt 0.01887635 0.8973982
vt 0.0182691 0.9004509
vt 0.02413807 0.8995777
vt 0.02399301 0.9037498
vt 0.0281652 0.9036048
vt 0.02399303 0.9196784
vt 0.0281652 0.9198235
vt 0.03034464 0.9145617
vt 0.02729199 0.9117141
vt 0.03034464 0.9088665
vn -0.6122438 -0.03054963 -0.7900786
vn 0.03433356 -0.009430284 -0.999366
vn -0.2633191 0.06369343 -0.9626039
vn -0.2633191 0.06369343 -0.9626039
vn -0.789343 0.03299102 -0.6130654
vn -0.02020329 0.003936894 -0.9997881
vn 0.6190808 0.02877956 -0.7847998
vn -0.9624168 -0.06155683 -0.2645082
vn -0.9997748 -0.002105817 -0.02111921
vn -0.9624168 -0.06155683 -0.2645082
vn -0.9993848 0.01110902 0.03326603
vn -0.6102691 0.03256436 0.7915246
vn -0.792339 -0.02993932 0.609346
vn -0.9585984 0.07016292 0.2759823
vn -0.9585984 0.07016292 0.2759823
vn -0.2772388 -0.06784476 0.9584026
vn -0.03445558 -0.009125084 0.9993646
vn -0.2772388 -0.06784476 0.9584026
vn 0.01971518 0.003936933 0.9997979
vn 0.6032622 -0.03415037 0.7968115
vn 0.7847604 0.02868767 0.6191349
vn 0.2630462 0.06286985 0.9627326
vn 0.2630462 0.06286985 0.9627326
vn 0.9582208 -0.06665459 0.2781547
vn 0.9993411 -0.007446609 0.03552399
vn 0.9582208 -0.06665459 0.2781547
vn 0.9998072 0.005768118 -0.01876928
vn 0.7967678 -0.03439527 -0.6033058
vn 0.6190808 0.02877956 -0.7847998
vn 0.9629133 0.06503656 -0.2618553
vn 0.9629133 0.06503656 -0.2618553
vn 0.2768999 -0.06894267 -0.9584222
vn 0.03433356 -0.009430284 -0.999366
vn -0.6122438 -0.03054963 -0.7900786
vn 0.2768999 -0.06894267 -0.9584222
vn -0.02020329 0.003936894 -0.9997881
vn 0.8188973 0.005035706 -0.5739179
vn -0.6874129 0.002166858 -0.7262637
vn 0.05771112 0.007965415 -0.9983015
vn 0.3040336 0.01080384 -0.9526
vn 0.3040336 0.01080384 -0.9526
vn 0.8171341 0.005066268 -0.5764253
vn 0.05731395 0.007934838 -0.9983247
vn -0.5895157 -0.02517863 -0.8073643
vn 0.9765519 -0.0002746724 -0.2152821
vn 0.9972753 -0.003112957 0.07370383
vn 0.9765519 -0.0002746724 -0.2152821
vn 0.9972641 -0.003112922 0.07385559
vn 0.5805922 -0.004120056 0.8141841
vn 0.5749803 -0.004150601 0.8181567
vn 0.9508356 -0.005279877 0.309651
vn 0.9508356 -0.005279877 0.309651
vn 0.2157378 0.0006408961 0.976451
vn 0.2157378 0.0006408961 0.976451
vn -0.06116025 -0.001586993 0.9981267
vn -0.06131227 -0.001617496 0.9981173
vn -0.8079773 0.001159747 0.5892125
vn -0.7244985 0.02819986 0.6886993
vn -0.2881917 -0.003387618 0.9575667
vn -0.2881917 -0.003387618 0.9575667
vn -0.9712753 0.0526152 0.2320684
vn -0.9999712 0.007354973 -0.001892151
vn -0.9712753 0.0526152 0.2320684
vn -0.9986744 -0.00222789 -0.05142458
vn -0.6874129 0.002166858 -0.7262637
vn -0.5895157 -0.02517863 -0.8073643
vn -0.9576594 -0.0477319 -0.2839194
vn -0.9576594 -0.0477319 -0.2839194
vn -0.2441205 0.003845379 -0.9697374
vn 0.05771112 0.007965415 -0.9983015
vn -0.2441205 0.003845379 -0.9697374
vn 0.05731395 0.007934838 -0.9983247
vn -0.9765202 -0.2154262 0
vn -0.9765202 -0.2154262 0
vn -0.9765202 -0.2154262 0
vn -0.9765202 -0.2154262 0
vn -0.9765202 -0.215426 0
vn -0.9765202 -0.215426 0
vn -0.9765202 -0.215426 0
vn -0.9765202 -0.215426 0
vn 0.9765203 0.2154254 1.892513E-06
vn 0.9765203 0.2154254 1.892513E-06
vn 0.9765203 0.2154254 1.892513E-06
vn 0.9765203 0.2154254 1.892513E-06
vn 0.9765204 0.2154251 0
vn 0.9765204 0.2154251 0
vn 0.9765204 0.2154251 0
vn 0.9765204 0.2154251 0
vn -1 0 0
vn -1 0 0
vn -1 0 0
vn -1 0 0
vn -1 0 0
vn -1 0 0
vn -1 0 0
vn -1 0 0
vn 1 0 0
vn 1 0 0
vn 1 0 0
vn 1 0 0
vn 1 0 0
vn 1 0 0
vn 1 0 0
vn 1 0 0
vn 0.9765202 -0.2154262 0
vn 0.9765202 -0.2154262 0
vn 0.9765202 -0.2154262 0
vn 0.9765202 -0.2154262 0
vn 0.9765202 -0.215426 0
vn 0.9765202 -0.215426 0
vn 0.9765202 -0.215426 0
vn 0.9765202 -0.215426 0
vn -0.9765203 0.2154254 0
vn -0.9765203 0.2154254 0
vn -0.9765203 0.2154254 0
vn -0.9765203 0.2154254 0
vn -0.9765203 0.2154256 0
vn -0.9765203 0.2154256 0
vn -0.9765203 0.2154256 0
vn -0.9765203 0.2154256 0
vn 5.003761E-07 -0.2154259 0.9765202
vn 5.003761E-07 -0.2154259 0.9765202
vn 5.003761E-07 -0.2154259 0.9765202
vn 5.003761E-07 -0.2154259 0.9765202
vn 0 -0.2154261 0.9765202
vn 0 -0.2154261 0.9765202
vn 0 -0.2154261 0.9765202
vn 0 -0.2154261 0.9765202
vn -1.314405E-06 0.2154247 -0.9765204
vn -1.314405E-06 0.2154247 -0.9765204
vn -1.314405E-06 0.2154247 -0.9765204
vn -1.314405E-06 0.2154247 -0.9765204
vn 0 0.2154252 -0.9765203
vn 0 0.2154252 -0.9765203
vn 0 0.2154252 -0.9765203
vn 0 0.2154252 -0.9765203
vn -1.983813E-06 -2.02451E-07 1
vn -1.983813E-06 -2.02451E-07 1
vn -1.983813E-06 -2.02451E-07 1
vn -1.983813E-06 -2.02451E-07 1
vn 0 0 1
vn 0 0 1
vn 0 0 1
vn 0 0 1
vn 2.645097E-06 -1.518386E-07 -1
vn 2.645097E-06 -1.518386E-07 -1
vn 2.645097E-06 -1.518386E-07 -1
vn 2.645097E-06 -1.518386E-07 -1
vn 0 0 -1
vn 0 0 -1
vn 0 0 -1
vn 0 0 -1
vn 0 -0.2154259 -0.9765202
vn 0 -0.2154259 -0.9765202
vn 0 -0.2154259 -0.9765202
vn 0 -0.2154259 -0.9765202
vn 0 -0.2154258 -0.9765202
vn 0 -0.2154258 -0.9765202
vn 0 -0.2154258 -0.9765202
vn 0 -0.2154258 -0.9765202
vn -2.079287E-06 0.2154262 0.9765201
vn -2.079287E-06 0.2154262 0.9765201
vn -2.079287E-06 0.2154262 0.9765201
vn -2.079287E-06 0.2154262 0.9765201
vn 0 0.2154254 0.9765203
vn 0 0.2154254 0.9765203
vn 0 0.2154254 0.9765203
vn 0 0.2154254 0.9765203
vn 0 1 0
vn 0 1 0
vn 0 1 0
vn 0 1 0
vn 0 1 0
vn 0 1 0
vn 0 1 0
vn 0 1 0
vn 0 1 0
vn 0 1 0
vn 0 1 0
vn 0 1 0
vn 0 1 0
vn 0 1 0
vn 0 1 0
vn 0 1 0
vn 0 1 0
vn 0 1 0
vn 0 1 0
vn 0 1 0
vn 0 1 0
vn 0 1 0
vn 0 1 0
vn 0 1 0
vn 0 -1 0
vn 0 -1 0
vn 0 -1 0
vn 0 -1 0
vn 0 -1 0
vn 0 -1 0
vn 0 -1 0
vn 0 -1 0
vn 0 -1 0
vn 0 -1 0
vn 0 -1 0
vn 0 -1 0
vn 0 -1 0
vn 0 -1 0
vn 0 -1 0
vn 0 -1 0
vn 0 -1 0
vn 0 -1 0
vn 0 -1 0
vn 0 -1 0
vn 0 -1 0
vn 0 -1 0
vn 0 -1 0
vn 0 -1 0
g mp7basenozzle_LOD1_0
f 3/3/3 2/2/2 1/1/1
f 1/1/1 4/4/4 3/3/3
f 4/4/4 1/1/1 5/5/5
f 6/6/6 4/4/4 5/5/5
f 5/5/5 7/7/7 6/6/6
f 8/8/8 5/5/5 1/1/1
f 9/9/9 8/8/8 1/1/1
f 8/8/8 10/10/10 5/5/5
f 10/10/10 11/11/11 5/5/5
f 12/12/12 5/5/5 11/11/11
f 1/1/1 13/13/13 9/9/9
f 12/12/12 11/11/11 14/14/14
f 15/15/15 9/9/9 13/13/13
f 12/12/12 14/14/14 15/15/15
f 13/13/13 12/12/12 15/15/15
f 16/16/16 12/12/12 13/13/13
f 17/17/17 16/16/16 13/13/13
f 12/12/12 16/16/16 18/18/18
f 18/18/18 19/19/19 12/12/12
f 13/13/13 20/20/20 17/17/17
f 21/21/21 12/12/12 19/19/19
f 22/22/22 17/17/17 20/20/20
f 21/21/21 19/19/19 23/23/23
f 20/20/20 23/23/23 22/22/22
f 23/23/23 20/20/20 21/21/21
f 24/24/24 21/21/21 20/20/20
f 25/25/25 24/24/24 20/20/20
f 24/24/24 26/26/26 21/21/21
f 26/26/26 27/27/27 21/21/21
f 20/20/20 28/28/28 25/25/25
f 29/29/29 21/21/21 27/27/27
f 29/29/29 27/27/27 30/30/30
f 31/31/31 25/25/25 28/28/28
f 29/29/29 30/30/30 31/31/31
f 28/28/28 29/29/29 31/31/31
f 32/32/32 29/29/29 28/28/28
f 28/28/28 33/33/33 32/32/32
f 28/28/28 34/34/34 33/33/33
f 29/29/29 32/32/32 35/35/35
f 35/35/35 36/36/36 29/29/29
f 39/39/39 38/38/38 37/37/37
f 37/37/37 40/40/40 39/39/39
f 37/37/37 41/41/41 40/40/40
f 37/37/37 42/42/42 41/41/41
f 43/43/43 41/41/41 42/42/42
f 42/42/42 44/44/44 43/43/43
f 45/45/45 42/42/42 37/37/37
f 37/37/37 46/46/46 45/45/45
f 45/45/45 47/47/47 42/42/42
f 47/47/47 48/48/48 42/42/42
f 46/46/46 37/37/37 49/49/49
f 50/50/50 42/42/42 48/48/48
f 50/50/50 48/48/48 51/51/51
f 49/49/49 52/52/52 46/46/46
f 50/50/50 51/51/51 52/52/52
f 49/49/49 50/50/50 52/52/52
f 53/53/53 50/50/50 49/49/49
f 54/54/54 53/53/53 49/49/49
f 53/53/53 55/55/55 50/50/50
f 49/49/49 56/56/56 54/54/54
f 57/57/57 50/50/50 55/55/55
f 56/56/56 49/49/49 58/58/58
f 58/58/58 59/59/59 56/56/56
f 57/57/57 55/55/55 60/60/60
f 58/58/58 60/60/60 59/59/59
f 60/60/60 58/58/58 57/57/57
f 61/61/61 57/57/57 58/58/58
f 62/62/62 61/61/61 58/58/58
f 61/61/61 63/63/63 57/57/57
f 63/63/63 64/64/64 57/57/57
f 58/58/58 65/65/65 62/62/62
f 66/66/66 57/57/57 64/64/64
f 66/66/66 64/64/64 67/67/67
f 68/68/68 62/62/62 65/65/65
f 66/66/66 67/67/67 68/68/68
f 65/65/65 66/66/66 68/68/68
f 69/69/69 66/66/66 65/65/65
f 65/65/65 70/70/70 69/69/69
f 66/66/66 69/69/69 71/71/71
f 71/71/71 72/72/72 66/66/66
f 75/75/75 74/74/74 73/73/73
f 76/76/76 75/75/75 73/73/73
f 79/79/79 78/78/78 77/77/77
f 80/80/80 79/79/79 77/77/77
f 83/83/83 82/82/82 81/81/81
f 84/84/84 83/83/83 81/81/81
f 87/87/87 86/86/86 85/85/85
f 88/88/88 87/87/87 85/85/85
f 91/91/91 90/90/90 89/89/89
f 92/92/92 91/91/91 89/89/89
f 95/95/95 94/94/94 93/93/93
f 96/96/96 95/95/95 93/93/93
f 99/99/99 98/98/98 97/97/97
f 100/100/100 99/99/99 97/97/97
f 103/103/103 102/102/102 101/101/101
f 104/104/104 103/103/103 101/101/101
f 107/107/107 106/106/106 105/105/105
f 108/108/108 107/107/107 105/105/105
f 111/111/111 110/110/110 109/109/109
f 112/112/112 111/111/111 109/109/109
f 115/115/115 114/114/114 113/113/113
f 116/116/116 115/115/115 113/113/113
f 119/119/119 118/118/118 117/117/117
f 120/120/120 119/119/119 117/117/117
f 123/123/123 122/122/122 121/121/121
f 124/124/124 123/123/123 121/121/121
f 127/127/127 126/126/126 125/125/125
f 128/128/128 127/127/127 125/125/125
f 131/131/131 130/130/130 129/129/129
f 132/132/132 131/131/131 129/129/129
f 135/135/135 134/134/134 133/133/133
f 136/136/136 135/135/135 133/133/133
f 139/139/139 138/138/138 137/137/137
f 140/140/140 139/139/139 137/137/137
f 143/143/143 142/142/142 141/141/141
f 144/144/144 143/143/143 141/141/141
f 147/147/147 146/146/146 145/145/145
f 148/148/148 147/147/147 145/145/145
f 151/151/151 150/150/150 149/149/149
f 152/152/152 151/151/151 149/149/149
f 155/155/155 154/154/154 153/153/153
f 156/156/156 155/155/155 153/153/153
f 159/159/159 158/158/158 157/157/157
f 160/160/160 159/159/159 157/157/157
f 163/163/163 162/162/162 161/161/161
f 164/164/164 163/163/163 161/161/161
f 167/167/167 166/166/166 165/165/165
f 168/168/168 167/167/167 165/165/165
f 171/171/171 170/170/170 169/169/169
f 171/171/171 169/169/169 172/172/172
f 169/169/169 173/173/173 172/172/172
f 172/172/172 173/173/173 174/174/174
f 173/173/173 175/175/175 174/174/174
f 174/174/174 175/175/175 176/176/176
f 175/175/175 177/177/177 176/176/176
f 178/178/178 169/169/169 170/170/170
f 176/176/176 177/177/177 179/179/179
f 177/177/177 180/180/180 179/179/179
f 181/181/181 178/178/178 170/170/170
f 181/181/181 182/182/182 178/178/178
f 182/182/182 183/183/183 178/178/178
f 183/183/183 184/184/184 178/178/178
f 183/183/183 185/185/185 184/184/184
f 179/179/179 180/180/180 186/186/186
f 187/187/187 179/179/179 186/186/186
f 186/186/186 188/188/188 187/187/187
f 188/188/188 186/186/186 189/189/189
f 190/190/190 188/188/188 189/189/189
f 185/185/185 191/191/191 184/184/184
f 190/190/190 189/189/189 191/191/191
f 191/191/191 185/185/185 192/192/192
f 192/192/192 190/190/190 191/191/191
f 195/195/195 194/194/194 193/193/193
f 196/196/196 195/195/195 193/193/193
f 197/197/197 196/196/196 193/193/193
f 198/198/198 196/196/196 197/197/197
f 194/194/194 199/199/199 193/193/193
f 200/200/200 199/199/199 194/194/194
f 200/200/200 201/201/201 199/199/199
f 202/202/202 198/198/198 197/197/197
f 198/198/198 202/202/202 203/203/203
f 204/204/204 203/203/203 202/202/202
f 201/201/201 205/205/205 199/199/199
f 206/206/206 205/205/205 201/201/201
f 206/206/206 207/207/207 205/205/205
f 207/207/207 208/208/208 205/205/205
f 207/207/207 209/209/209 208/208/208
f 209/209/209 210/210/210 208/208/208
f 210/210/210 209/209/209 211/211/211
f 212/212/212 204/204/204 202/202/202
f 212/212/212 213/213/213 204/204/204
f 214/214/214 213/213/213 212/212/212
f 210/210/210 211/211/211 215/215/215
f 215/215/215 214/214/214 212/212/212
f 211/211/211 216/216/216 215/215/215
f 215/215/215 216/216/216 214/214/214
