g mp7handle_LOD3
v 0.001174015 0.03101406 0.01257393
v 0.001174015 0.05092935 0.01283883
v 0.001174015 0.05092935 0.01230902
v -0.0002646672 0.05092935 0.01207571
v -0.0002646672 0.03101406 0.01245727
v -0.0002646672 0.05092935 0.01283883
v 0.001390072 0.03101406 0.01153025
v 0.001572088 0.04722322 0.01153027
v 0.001241697 0.05092935 0.01153027
v 0.000264665 0.05092935 0.01283883
v 0.001174015 0.05092935 0.01283883
v 0.0007193399 0.03101406 0.01283883
v -0.001241619 0.05092273 0.01153027
v -0.001544353 0.04721035 0.01153028
v -0.001390076 0.03101406 0.01153025
v 0.001409865 0.03101406 0.01230902
v 0.001274685 0.05092935 0.01230902
v 0.001572088 0.04722322 0.01230902
v -0.001409869 0.03101406 0.01230902
v -0.001572092 0.04722322 0.01230902
v -0.001274689 0.05092935 0.01230902
v 0.001550578 0.04714505 0.01153028
v 0.001496843 0.04715978 0.01230902
v 0.001778037 0.05092935 0.01191965
v -0.00216479 0.05093727 0.01085783
v -0.0001388737 0.05157765 0.01085793
v -0.0036831 0.05156621 0.01083838
v -0.002162329 0.04960818 0.01385684
v -0.003671687 0.05155833 0.01391633
v -0.002171504 0.05094806 0.01388687
v -0.0001388737 0.05157765 0.01085793
v -0.00216479 0.05093727 0.01085783
v -0.000135151 0.05093357 0.01087154
v -0.0036831 0.05156621 0.01083838
v -0.002160436 0.04960736 0.01087582
v -0.0003272363 0.05114761 0.01425229
v -0.0001309533 0.05092935 0.01384032
v -0.002171504 0.05094806 0.01388687
v 0.002162327 0.04960818 0.01385684
v 0.002171502 0.05094806 0.01388688
v 0.003682401 0.05156809 0.01388785
v 0.003675943 0.05155763 0.01081225
v 0.002164788 0.05093727 0.01085783
v 0.002160418 0.04960733 0.01087592
v 0.003692781 0.05158559 0.01088704
v 0.0001388715 0.05157765 0.01085793
v 0.003675943 0.05155763 0.01081225
v 0.000264665 0.05092935 0.01283883
v 0.000264665 0.03101406 0.01245727
v 0.000264665 0.05092935 0.01207571
v -0.001506585 0.04715975 0.01152993
v -0.002248621 0.05092379 0.01189194
v -0.001498157 0.04716197 0.01231138
v -0.002171504 0.05094806 0.01388687
v -0.003671687 0.05155833 0.01391633
v -0.0003272363 0.05114761 0.01425229
v -0.003671687 0.05155833 0.01391633
v -0.003692784 0.05158559 0.01384032
v -0.0003272363 0.05114761 0.01425229
v 0.003682401 0.05156809 0.01388785
v 0.002171502 0.05094806 0.01388688
v 0.0003272341 0.05114761 0.01425229
v 0.0003272341 0.05114761 0.01425229
v 0.002171502 0.05094806 0.01388688
v 0.0001309511 0.05092935 0.01384032
v -0.001174018 0.05092935 0.01283883
v -0.0002646672 0.05092935 0.01283883
v -0.0007193427 0.03101406 0.01283883
v 0.001134429 0.03101406 0.01143908
v 0.001134429 0.05092935 0.01143908
v -0.001134432 0.05092935 0.01143908
v -0.001134432 0.03101406 0.01143908
v 0.000264665 0.05092935 0.01283883
v -8.822314E-05 0.05092935 0.01233008
v 0.001375356 0.05092935 0.01248563
v 0.001348965 0.05092935 0.01146514
v -0.001348969 0.05092935 0.01149988
v -0.00137536 0.05092935 0.01248563
v 0.003675943 0.05155763 0.01081225
v 0.0001388715 0.05157765 0.01085793
v 0.002164788 0.05093727 0.01085783
v 0.0001351488 0.05093357 0.01087154
v -0.0002646672 0.03101406 0.01283883
v 8.822094E-05 0.03101406 0.01233008
v -0.001331252 0.03101406 0.01241498
v -0.001304861 0.03101406 0.01151204
v 0.001304857 0.03101406 0.01147961
v 0.001331248 0.03101406 0.01241498
v -0.002156857 0.05092935 0.01384032
v -0.00216479 0.05093727 0.01085783
v -0.002160436 0.04960736 0.01087582
v -0.002156857 0.04960515 0.01384032
v -0.0001309533 0.05092935 0.01384032
v -0.000135151 0.05093357 0.01087154
v -0.00216479 0.05093727 0.01085783
v -0.002171504 0.05094806 0.01388687
v -0.002162329 0.04960818 0.01385684
v -0.002160436 0.04960736 0.01087582
v -0.0036831 0.05156621 0.01083838
v -0.003671687 0.05155833 0.01391633
v -0.000135151 0.05093357 0.01087154
v -0.0003272363 0.05114761 0.01425229
v -0.0001309532 0.05158558 0.01384032
v -0.0001388737 0.05157765 0.01085793
v -0.002156857 0.05092935 0.01384032
v -0.002156857 0.04960515 0.01384032
v -0.002162329 0.04960818 0.01385684
v -0.002171504 0.05094806 0.01388687
v -0.003692784 0.05158559 0.01384032
v -0.0036831 0.05156621 0.01083838
v -0.0001388737 0.05157765 0.01085793
v -0.0003272363 0.05114761 0.01425229
v 0.002160418 0.04960733 0.01087592
v 0.002164788 0.05093727 0.01085783
v 0.002156855 0.05092935 0.01384032
v 0.002156855 0.04960515 0.01384032
v 0.002164788 0.05093727 0.01085783
v 0.0001351488 0.05093357 0.01087154
v 0.0001309511 0.05092935 0.01384032
v 0.002171502 0.05094806 0.01388688
v 0.003675943 0.05155763 0.01081225
v 0.002160418 0.04960733 0.01087592
v 0.002162327 0.04960818 0.01385684
v 0.003682401 0.05156809 0.01388785
v 0.000130951 0.05158558 0.01384032
v 0.0003272341 0.05114761 0.01425229
v 0.0001351488 0.05093357 0.01087154
v 0.0001388715 0.05157765 0.01085793
v 0.002162327 0.04960818 0.01385684
v 0.002156855 0.04960515 0.01384032
v 0.002156855 0.05092935 0.01384032
v 0.002171502 0.05094806 0.01388688
v 0.0001388715 0.05157765 0.01085793
v 0.003692781 0.05158559 0.01088704
v 0.003682401 0.05156809 0.01388785
v 0.0003272341 0.05114761 0.01425229
vt 0.5010133 0.8422875
vt 0.3390402 0.840133
vt 0.3390402 0.8444421
vt 0.7986792 0.379696
vt 0.8017825 0.5416694
vt 0.8048859 0.379696
vt 0.8939059 0.7812251
vt 0.8949801 0.6582845
vt 0.8923237 0.6294116
vt 0.2779573 0.05669504
vt 0.2779572 0.06409085
vt 0.4399303 0.06039293
vt 0.2274383 0.8318114
vt 0.256416 0.834428
vt 0.3791829 0.8333932
vt 0.3356079 0.8402044
vt 0.1851397 0.838715
vt 0.217529 0.8410296
vt 0.3826614 0.8330175
vt 0.5007429 0.8342203
vt 0.5331331 0.8318389
vt 0.9060861 0.757672
vt 0.8997526 0.7576682
vt 0.9029194 0.7885423
vt 0.5071375 0.421831
vt 0.5101913 0.438308
vt 0.5100433 0.4117587
vt 0.9451081 0.9710022
vt 0.9350357 0.9846265
vt 0.9451081 0.9817721
vt 0.5101913 0.438308
vt 0.5071375 0.421831
vt 0.5071375 0.438308
vt 0.5100433 0.4117587
vt 0.4963675 0.421831
vt 0.6357924 0.3452059
vt 0.6334418 0.3440641
vt 0.6338162 0.360723
vt 0.2996611 0.9732945
vt 0.2996611 0.9840643
vt 0.3097335 0.986977
vt 0.5219212 0.6685084
vt 0.5319934 0.6656478
vt 0.5319935 0.654878
vt 0.1342979 0.3693906
vt 0.1356981 0.3976792
vt 0.1366485 0.3706681
vt 0.8029856 0.3744344
vt 0.7998823 0.2124614
vt 0.7967791 0.3744344
vt 0.9839391 0.331678
vt 0.9868806 0.3624663
vt 0.9902728 0.3316368
vt 0.9451081 0.9817721
vt 0.9350357 0.9846265
vt 0.9615849 0.9828593
vt 0.9952253 0.5091903
vt 0.9975758 0.5104678
vt 0.9972015 0.4816809
vt 0.3097335 0.986977
vt 0.2996611 0.9840643
vt 0.2831841 0.9851514
vt 0.7363091 0.5896059
vt 0.734333 0.574089
vt 0.7339585 0.5907477
vt 0.8028365 0.04524603
vt 0.7954406 0.04524603
vt 0.7991385 0.2072194
vt 0.8451929 0.526302
vt 0.8451929 0.6882754
vt 0.8636458 0.6882754
vt 0.8636458 0.526302
vt 0.7444584 0.9500903
vt 0.7415883 0.954228
vt 0.7534918 0.9529629
vt 0.7532634 0.9611465
vt 0.7313344 0.9609801
vt 0.7311199 0.9529629
vt 0.5219212 0.6685084
vt 0.5484704 0.6687017
vt 0.5319934 0.6656478
vt 0.5484704 0.6656478
vt 0.9720889 0.849066
vt 0.9762267 0.8519362
vt 0.9754412 0.840178
vt 0.9828553 0.8406072
vt 0.9830419 0.8618199
vt 0.9754411 0.8622593
vt 0.9860692 0.2914585
vt 0.9860692 0.2674393
vt 0.9752993 0.2674393
vt 0.9752993 0.2914585
vt 0.8244717 0.6087684
vt 0.8244717 0.6327878
vt 0.8409485 0.6327878
vt 0.8409485 0.6087684
vt 0.3549709 0.8091701
vt 0.3549709 0.7851509
vt 0.3407142 0.7851509
vt 0.3407142 0.8091701
vt 0.4597063 0.3277642
vt 0.4837256 0.3277642
vt 0.4837256 0.3224269
vt 0.4597063 0.3224269
vt 0.2198061 0.4739566
vt 0.2198061 0.4631866
vt 0.2174557 0.4643283
vt 0.2174557 0.4750982
vt 0.3832701 0.6545753
vt 0.3592507 0.6545753
vt 0.3592507 0.6835441
vt 0.3832701 0.6835441
vt 0.3894964 0.008585665
vt 0.3894964 0.01935563
vt 0.4135157 0.01935563
vt 0.4135157 0.008585663
vt 0.7099392 0.5742707
vt 0.7099392 0.5907477
vt 0.7339585 0.5907477
vt 0.734333 0.574089
vt 0.6889234 0.639655
vt 0.7031801 0.639655
vt 0.7031801 0.6156356
vt 0.6889234 0.6156356
vt 0.3894412 0.03837433
vt 0.3894412 0.04371157
vt 0.414807 0.04305756
vt 0.4138333 0.03855539
vt 0.4158663 0.009727449
vt 0.4135157 0.008585663
vt 0.4135157 0.01935563
vt 0.4158663 0.02049729
vt 0.5271822 0.5354562
vt 0.5271822 0.5644249
vt 0.5512015 0.5644249
vt 0.5512015 0.5354562
vn 1 0 0
vn 1 0 0
vn 1 0 0
vn 1 0 0
vn 1 0 0
vn 1 0 0
vn 3.953919E-05 1.315719E-06 -1
vn 3.953919E-05 1.315719E-06 -1
vn 3.953919E-05 1.315719E-06 -1
vn 0 0 1
vn 0 0 1
vn 0 0 1
vn -4.35395E-05 1.446098E-06 -1
vn -4.35395E-05 1.446098E-06 -1
vn -4.35395E-05 1.446098E-06 -1
vn 3.298016E-06 0 1
vn 3.298016E-06 0 1
vn 3.298016E-06 0 1
vn -3.298004E-06 0 1
vn -3.298004E-06 0 1
vn -3.298004E-06 0 1
vn 0.9952969 -0.06701978 0.069946
vn 0.9952969 -0.06701978 0.069946
vn 0.9952969 -0.06701978 0.069946
vn 0.005571686 -0.01746851 -0.9998319
vn 0.005571686 -0.01746851 -0.9998319
vn 0.005571686 -0.01746851 -0.9998319
vn 0.01054267 -0.02233888 0.9996948
vn 0.01054267 -0.02233888 0.9996948
vn 0.01054267 -0.02233888 0.9996948
vn 0.00671416 -0.02108691 -0.9997551
vn 0.00671416 -0.02108691 -0.9997551
vn 0.00671416 -0.02108691 -0.9997551
vn 0.007214519 -0.01350384 -0.9998828
vn 0.007214519 -0.01350384 -0.9998828
vn 0.002609515 -0.8831317 0.4691179
vn 0.002609515 -0.8831317 0.4691179
vn 0.002609515 -0.8831317 0.4691179
vn 0.008579212 -0.02247104 0.9997106
vn 0.008579212 -0.02247104 0.9997106
vn 0.008579212 -0.02247104 0.9997106
vn -0.0245979 -0.01351413 -0.9996061
vn -0.0245979 -0.01351413 -0.9996061
vn -0.0245979 -0.01351413 -0.9996061
vn 0.0007782858 0.9366243 -0.3503345
vn 0.0007782858 0.9366243 -0.3503345
vn 0.0007782858 0.9366243 -0.3503345
vn -1 0 0
vn -1 0 0
vn -1 0 0
vn -0.9808524 -0.1944337 0.01113146
vn -0.9808524 -0.1944337 0.01113146
vn -0.9808524 -0.1944337 0.01113146
vn -0.1389855 -0.385681 0.9121037
vn -0.1389855 -0.385681 0.9121037
vn -0.1389855 -0.385681 0.9121037
vn 0.08437971 0.9451708 0.3154872
vn 0.08437971 0.9451708 0.3154872
vn 0.08437971 0.9451708 0.3154872
vn 0.1447378 -0.3541488 0.9239208
vn 0.1447378 -0.3541488 0.9239208
vn 0.1447378 -0.3541488 0.9239208
vn -0.002609596 -0.8831422 0.4690982
vn -0.002609596 -0.8831422 0.4690982
vn -0.002609596 -0.8831422 0.4690982
vn 0 0 1
vn 0 0 1
vn 0 0 1
vn 0 0 -1
vn 0 0 -1
vn 0 0 -1
vn 0 0 -1
vn 0 1 0
vn 0 1 0
vn 0 1 0
vn 0 1 0
vn 0 1 -6.185809E-06
vn 0 1 -6.185809E-06
vn -0.01313614 -0.0413985 -0.9990564
vn -0.01313614 -0.0413985 -0.9990564
vn -0.01313614 -0.0413985 -0.9990564
vn -0.006714569 -0.02108691 -0.9997551
vn 0 -1 -8.610932E-06
vn 0 -1 -8.610932E-06
vn 0 -1 -8.610932E-06
vn 0 -1 5.468215E-06
vn 0 -1 1.123572E-06
vn 0 -1 1.123572E-06
vn 0.9999968 0.001627491 -0.001933109
vn 0.9999968 0.001627491 -0.001933109
vn 0.9999968 0.001627491 -0.001933109
vn 0.9999968 0.001627491 -0.001933109
vn -0.005494954 -0.9999844 0.001095769
vn -0.005494954 -0.9999844 0.001095769
vn -0.005494954 -0.9999844 0.001095769
vn -0.005494954 -0.9999844 0.001095769
vn -0.7901643 -0.6128948 0.0005273554
vn -0.7901643 -0.6128948 0.0005273554
vn -0.7901643 -0.6128948 0.0005273554
vn -0.7901643 -0.6128948 0.0005273554
vn 0.9861899 -0.1620499 0.03419581
vn 0.9861899 -0.1620499 0.03419581
vn 0.9861899 -0.1620499 0.03419581
vn 0.9861899 -0.1620499 0.03419581
vn 0.9526963 -0.0001456328 0.3039238
vn 0.9526963 -0.0001456328 0.3039238
vn 0.9526963 -0.0001456328 0.3039238
vn 0.9526963 -0.0001456328 0.3039238
vn 0.05738863 0.9961854 0.06573622
vn 0.05738863 0.9961854 0.06573622
vn 0.05738863 0.9961854 0.06573622
vn 0.05738863 0.9961854 0.06573622
vn -0.9999968 0.001633258 -0.00193049
vn -0.9999968 0.001633258 -0.00193049
vn -0.9999968 0.001633258 -0.00193049
vn -0.9999968 0.001633258 -0.00193049
vn 0.005494954 -0.9999844 0.001094987
vn 0.005494954 -0.9999844 0.001094987
vn 0.005494954 -0.9999844 0.001094987
vn 0.005494954 -0.9999844 0.001094987
vn 0.7899079 -0.6132255 5.458584E-05
vn 0.7899079 -0.6132255 5.458584E-05
vn 0.7899079 -0.6132255 5.458584E-05
vn 0.7899079 -0.6132255 5.458584E-05
vn -0.9861899 -0.1620499 0.03419623
vn -0.9861899 -0.1620499 0.03419623
vn -0.9861899 -0.1620499 0.03419623
vn -0.9861899 -0.1620499 0.03419623
vn -0.9527009 -0.0001457588 0.3039098
vn -0.9527009 -0.0001457588 0.3039098
vn -0.9527009 -0.0001457588 0.3039098
vn -0.9527009 -0.0001457588 0.3039098
vn -0.05828315 0.9957502 0.07130671
vn -0.05828315 0.9957502 0.07130671
vn -0.05828315 0.9957502 0.07130671
vn -0.05828315 0.9957502 0.07130671
g mp7handle_LOD3_0
f 3/3/3 2/2/2 1/1/1
f 6/6/6 5/5/5 4/4/4
f 9/9/9 8/8/8 7/7/7
f 12/12/12 11/11/11 10/10/10
f 15/15/15 14/14/14 13/13/13
f 18/18/18 17/17/17 16/16/16
f 21/21/21 20/20/20 19/19/19
f 24/24/24 23/23/23 22/22/22
f 27/27/27 26/26/26 25/25/25
f 30/30/30 29/29/29 28/28/28
f 33/33/33 32/32/32 31/31/31
f 32/32/32 35/35/35 34/34/34
f 38/38/38 37/37/37 36/36/36
f 41/41/41 40/40/40 39/39/39
f 44/44/44 43/43/43 42/42/42
f 47/47/47 46/46/46 45/45/45
f 50/50/50 49/49/49 48/48/48
f 53/53/53 52/52/52 51/51/51
f 56/56/56 55/55/55 54/54/54
f 59/59/59 58/58/58 57/57/57
f 62/62/62 61/61/61 60/60/60
f 65/65/65 64/64/64 63/63/63
f 68/68/68 67/67/67 66/66/66
f 71/71/71 70/70/70 69/69/69
f 72/72/72 71/71/71 69/69/69
f 75/75/75 74/74/74 73/73/73
f 75/75/75 76/76/76 74/74/74
f 76/76/76 77/77/77 74/74/74
f 77/77/77 78/78/78 74/74/74
f 81/81/81 80/80/80 79/79/79
f 80/80/80 81/81/81 82/82/82
f 85/85/85 84/84/84 83/83/83
f 85/85/85 86/86/86 84/84/84
f 87/87/87 84/84/84 86/86/86
f 87/87/87 88/88/88 84/84/84
f 91/91/91 90/90/90 89/89/89
f 92/92/92 91/91/91 89/89/89
f 95/95/95 94/94/94 93/93/93
f 96/96/96 95/95/95 93/93/93
f 99/99/99 98/98/98 97/97/97
f 100/100/100 99/99/99 97/97/97
f 103/103/103 102/102/102 101/101/101
f 104/104/104 103/103/103 101/101/101
f 107/107/107 106/106/106 105/105/105
f 108/108/108 107/107/107 105/105/105
f 111/111/111 110/110/110 109/109/109
f 112/112/112 111/111/111 109/109/109
f 115/115/115 114/114/114 113/113/113
f 116/116/116 115/115/115 113/113/113
f 119/119/119 118/118/118 117/117/117
f 120/120/120 119/119/119 117/117/117
f 123/123/123 122/122/122 121/121/121
f 124/124/124 123/123/123 121/121/121
f 127/127/127 126/126/126 125/125/125
f 128/128/128 127/127/127 125/125/125
f 131/131/131 130/130/130 129/129/129
f 132/132/132 131/131/131 129/129/129
f 135/135/135 134/134/134 133/133/133
f 136/136/136 135/135/135 133/133/133
