g mp7smollerboi_LOD3
v 0.002277483 -0.01667058 0.00804161
v 0.002277483 -0.01604341 0.007858938
v 0.002277483 -0.01655294 0.007450162
v 0.001268535 -0.01556631 0.006970294
v 0.0008416486 -0.01556631 0.006970294
v 0.001055092 -0.01725682 0.006970295
v 0.001055092 -0.01556631 0.008637917
v 0.0008416486 -0.01556631 0.006970294
v 0.001268535 -0.01556631 0.006970294
v 0.0009644024 -0.01624758 0.006947727
v 0.0009644024 -0.01714787 0.008089104
v 0.002325153 -0.01688057 0.007168849
v 0.002325153 -0.01694801 0.008390049
v 0.0009644024 -0.01588032 0.008390051
v 0.002325153 -0.01554611 0.007728274
v 0.0009644024 -0.01624758 0.006947727
v 0.002325153 -0.01688057 0.007168849
v 0.001268535 -0.01556631 0.008637917
v 0.001268535 -0.01556631 0.006970294
v 0.001268535 -0.01725682 0.006970294
v 0.001268535 -0.01725682 0.008637917
v 0.0008416486 -0.01556631 0.008637917
v 0.001268535 -0.01556631 0.008637917
v 0.001268535 -0.01725682 0.008637917
v 0.0008416486 -0.01725682 0.008637917
v 0.0008416486 -0.01725682 0.008637917
v 0.001268535 -0.01725682 0.008637917
v 0.001268535 -0.01725682 0.006970294
v 0.0008416486 -0.01725682 0.006970294
v 0.002325153 -0.01588686 0.007257897
v 0.002325153 -0.01684415 0.00714168
v 0.002325153 -0.01622102 0.007496141
v 0.002325153 -0.01577065 0.008215171
v 0.002325153 -0.01670321 0.007592049
v 0.002325153 -0.01612511 0.007978329
v 0.002325153 -0.0171031 0.008070564
v 0.002325153 -0.0166073 0.008074238
v 0.002325153 -0.01655555 0.008495986
vt 0.283939 0.1291658
vt 0.2876962 0.1287601
vt 0.285407 0.1257841
vt 0.02630835 0.6545787
vt 0.0228365 0.6545787
vt 0.02457243 0.6683278
vt 0.9946021 0.7666465
vt 0.9963381 0.7530835
vt 0.9928662 0.7530835
vt 0.9431914 0.6943474
vt 0.9431915 0.702492
vt 0.9542584 0.6957066
vt 0.9542585 0.7051131
vt 0.9431913 0.7134185
vt 0.9542585 0.7188842
vt 0.9431913 0.7256122
vt 0.9542586 0.7289334
vt 0.9240663 0.2949297
vt 0.9105034 0.2949297
vt 0.9105034 0.3086789
vt 0.9240663 0.3086789
vt 0.2313612 0.617932
vt 0.2278893 0.617932
vt 0.2278893 0.6316811
vt 0.2313612 0.6316811
vt 0.181904 0.7070825
vt 0.1853759 0.7070825
vt 0.1853759 0.6935196
vt 0.181904 0.6935196
vt 0.7982053 0.5811769
vt 0.8035924 0.5853252
vt 0.8014152 0.5809806
vt 0.8015847 0.5752316
vt 0.8044943 0.5822561
vt 0.8026907 0.5779015
vt 0.8089797 0.5811769
vt 0.8057697 0.579177
vt 0.807608 0.5760633
vn 1 0 0
vn 1 0 0
vn 1 0 0
vn 0 -3.525844E-07 -1
vn 0 -3.525844E-07 -1
vn 0 -3.525844E-07 -1
vn 0 1 2.093194E-06
vn 0 1 2.093194E-06
vn 0 1 2.093194E-06
vn -0.1941338 0.1909292 -0.9622151
vn -0.1868689 -0.9239071 0.3338798
vn 0.1408771 -0.578463 -0.8034514
vn 0.1910536 -0.5779524 0.7933912
vn -0.1329097 0.6572242 0.7418836
vn 0.2113477 0.9766554 -0.03842408
vn -0.1941338 0.1909292 -0.9622151
vn 0.1408771 -0.578463 -0.8034514
vn 1 0 0
vn 1 0 0
vn 1 0 0
vn 1 0 0
vn 0 0 1
vn 0 0 1
vn 0 0 1
vn 0 0 1
vn 0 -1 0
vn 0 -1 0
vn 0 -1 0
vn 0 -1 0
vn 1 0 0
vn 1 0 0
vn 1 0 0
vn 1 0 0
vn 1 0 0
vn 1 0 0
vn 1 0 0
vn 1 0 0
vn 1 0 0
g mp7smollerboi_LOD3_0
f 3/3/3 2/2/2 1/1/1
f 6/6/6 5/5/5 4/4/4
f 9/9/9 8/8/8 7/7/7
f 12/12/12 11/11/11 10/10/10
f 13/13/13 11/11/11 12/12/12
f 14/14/14 11/11/11 13/13/13
f 15/15/15 14/14/14 13/13/13
f 16/16/16 14/14/14 15/15/15
f 17/17/17 16/16/16 15/15/15
f 20/20/20 19/19/19 18/18/18
f 21/21/21 20/20/20 18/18/18
f 24/24/24 23/23/23 22/22/22
f 25/25/25 24/24/24 22/22/22
f 28/28/28 27/27/27 26/26/26
f 29/29/29 28/28/28 26/26/26
f 32/32/32 31/31/31 30/30/30
f 30/30/30 33/33/33 32/32/32
f 32/32/32 34/34/34 31/31/31
f 33/33/33 35/35/35 32/32/32
f 31/31/31 34/34/34 36/36/36
f 35/35/35 33/33/33 37/37/37
f 34/34/34 37/37/37 36/36/36
f 33/33/33 38/38/38 37/37/37
f 36/36/36 37/37/37 38/38/38
