g mp7smolboi_LOD3
v 0.002746281 -0.01948267 -0.001395138
v 0.003061789 -0.01992497 -0.002772978
v 0.002780512 -0.01755282 -0.0004537883
v -0.001975031 -0.003600898 -0.0004706096
v 0.001975031 -0.003473921 -0.0004706096
v 0.001975031 -0.003727868 -0.0004706096
v -0.003061788 -0.01992497 -0.002772981
v -0.002770131 -0.0181534 -0.005115374
v -0.00274628 -0.01948267 -0.001395138
v -0.002780511 -0.01755281 -0.0004537888
v -0.003061788 -0.01992497 -0.002772981
v -0.00274628 -0.01948267 -0.001395138
v -0.001975031 -0.001157923 -0.0004706096
v 0.001975031 -0.001284896 -0.0004706096
v -0.001975031 -0.001411871 -0.0004706096
v -0.001975031 -0.002315922 -0.0004706096
v 0.001975031 -0.002442895 -0.0004706096
v -0.001975031 -0.002569869 -0.0004706096
v -0.001975031 -0.002894922 -0.0004706096
v 0.001975031 -0.003021895 -0.0004706096
v -0.001975031 -0.00314887 -0.0004706096
v 0.003061789 -0.01992497 -0.002772978
v 0.002746281 -0.01948267 -0.001395138
v 0.002770131 -0.0181534 -0.005115374
v -0.003055742 0.001059296 -0.003117375
v 0.002383421 0.001897879 -0.005678027
v 0.003055743 0.0010593 -0.003117378
v -0.002385534 0.001895976 -0.005672224
v 0.002383421 0.001897879 -0.005678027
v -0.003055742 0.001059296 -0.003117375
v 0.003055743 0.0010593 -0.003117378
v -0.002840836 0.0004031479 -0.001113816
v 0.002840836 0.0004031489 -0.001113812
v 0.002278333 -7.359149E-06 0.0001396918
v -0.002278333 -7.361356E-06 0.0001396918
v 0.001437431 -0.01914635 -0.005229199
v 0.001437431 -0.01839754 -0.005675572
v 0.001437431 -0.01494567 -0.005686874
v 0.00143743 -0.01993863 -0.003867761
v 0.00143743 -0.02012576 -0.002245243
v 0.001437431 -0.01914635 -0.0003179783
v 0.001437431 -0.01494567 0.0001396918
v 0.001437431 -0.01839755 0.0001283901
v -0.001437431 -0.01494567 0.0001396918
v 0.001437431 -0.01494567 0.0001396918
v 0.001437431 -0.01494567 -0.005686874
v -0.001437431 -0.01494567 -0.005686874
v 0.001437431 -0.01494567 -0.005686875
v 0.002651658 -0.01844792 -0.005704746
v 0.002275578 0.001900773 -0.005686877
v 0.001437431 -0.01876041 -0.005617335
v 0.003089559 -0.0202905 -0.002773587
v 0.00143743 -0.02026167 -0.002773586
v 0.001437431 -0.01876042 7.015302E-05
v 0.002655193 -0.01846388 0.0001526367
v 0.001437431 -0.01494567 0.0001396919
v 0.002401293 -0.005713033 0.0001396919
v -0.002401275 -0.005712412 0.0001396919
v -0.001437431 -0.01494567 0.0001396919
v 0.002275578 0.001900773 -0.005686877
v -0.001437431 -0.01494567 -0.005686875
v -0.002275577 0.001900774 -0.005686877
v -0.002651657 -0.01844792 -0.005704752
v -0.001437431 -0.01876041 -0.005617335
v -0.003089559 -0.0202905 -0.002773588
v -0.00143743 -0.02026167 -0.002773587
v -0.001437431 -0.01876042 7.015297E-05
v -0.002655193 -0.01846388 0.0001526351
v -0.001437431 -0.01494567 0.0001396919
v -0.002401275 -0.005712412 0.0001396919
v -0.002278333 -7.361216E-06 0.0001396919
v 0.002278333 -7.359149E-06 0.0001396919
v 0.002298866 -0.001152601 0.0001396919
v -0.002298865 -0.001152542 0.0001396919
v -0.00143743 -0.01914635 -0.0003179783
v -0.001437431 -0.01839755 0.0001283901
v -0.001437431 -0.01494567 0.0001396918
v -0.001437431 -0.01494567 -0.005686874
v -0.00143743 -0.02012576 -0.002245243
v -0.00143743 -0.01993863 -0.003867761
v -0.001437431 -0.01914635 -0.005229199
v -0.001437431 -0.01839754 -0.005675572
v -0.002972028 -0.0142568 -0.001784769
v -0.002780511 -0.01755281 -0.0004537888
v -0.00274628 -0.0147131 -0.001343775
v -0.00274628 -0.01434899 -0.003895868
v -0.002913595 -0.01471482 -0.004265499
v -0.002770131 -0.0181534 -0.005115374
v 0.002318066 -1.211428E-05 0.0001588767
v 0.002851047 -0.0005727431 -0.001836714
v 0.002318641 -0.001155089 0.0001492498
v 0.003094189 0.0009052426 -0.002651963
v 0.003004217 -0.005668071 -0.001806394
v 0.003014401 -0.01423465 -0.003218868
v 0.002388184 0.001906296 -0.005718851
v 0.002909317 -0.01471277 -0.001305305
v 0.00289677 -0.01495355 -0.004366038
v 0.002512155 -0.005712733 0.0001809955
v 0.002807425 -0.01732668 -0.005033296
v 0.002675643 -0.01858995 -0.005655909
v 0.002820414 -0.01869483 -0.004670942
v 0.002917338 -0.01983616 -0.004184758
v 0.002961139 -0.01966669 -0.003217097
v 0.003050653 -0.02012641 -0.002773587
v 0.002917894 -0.01932615 -0.001504301
v 0.002916689 -0.01983619 -0.001362539
v 0.002885141 -0.01769852 -0.0004540864
v 0.002687416 -0.01856534 0.0001290613
v -0.002966766 -0.005655122 -0.00178465
v 0.002969346 -0.005631899 -0.001801304
v 0.002449089 -0.005710375 0.0001347373
v -0.002448347 -0.005711005 0.0001367093
v 0.001489998 -0.0003777643 -0.0009061871
v 0.001489998 5.796529E-05 -0.002154743
v 0.001489678 -0.006085278 -0.002122866
v 0.001489678 -0.006085278 -0.0008743108
v 0.002351769 -0.001149188 0.0001354231
v 0.00296345 -0.0006096384 -0.001821683
v -0.002350956 -0.001147724 0.0001380733
v -0.002961737 -0.0006120698 -0.001808412
v -0.002966766 -0.005655122 -0.00178465
v 0.002969346 -0.005631899 -0.001801304
v -0.001137114 -0.0003777656 -0.0009061872
v 0.001137114 -0.0003777643 -0.0009061871
v 0.00113687 -0.006085278 -0.0008743108
v -0.00113687 -0.006085278 -0.0008743108
v -0.001975031 -0.001157923 -0.0004706095
v -0.001975031 -0.001157923 -0.002083075
v 0.001975031 -0.001157922 -0.002083075
v 0.001975031 -0.001157922 -0.0004706095
v 0.001975031 -0.001411871 -0.002083075
v -0.001975031 -0.001411871 -0.002083075
v -0.001975031 -0.001411871 -0.0004706095
v 0.001975031 -0.001411871 -0.0004706095
v -0.001975031 -0.001736924 -0.0004706095
v -0.001975031 -0.001736925 -0.002083075
v 0.001975031 -0.001736923 -0.002083075
v 0.001975031 -0.001736923 -0.0004706095
v 0.001975031 -0.00199087 -0.002083075
v -0.001975031 -0.001990871 -0.002083075
v -0.001975031 -0.001990871 -0.0004706095
v 0.001975031 -0.00199087 -0.0004706095
v -0.001975031 -0.002315922 -0.0004706095
v -0.001975031 -0.002315922 -0.002083075
v 0.001975031 -0.002315922 -0.002083075
v 0.001975031 -0.002315922 -0.0004706095
v 0.001975031 -0.002569869 -0.002083075
v -0.001975031 -0.002569869 -0.002083075
v -0.001975031 -0.002569869 -0.0004706095
v 0.001975031 -0.002569869 -0.0004706095
v -0.001975031 -0.002894922 -0.0004706095
v -0.001975031 -0.002894923 -0.002083075
v 0.001975031 -0.002894921 -0.002083075
v 0.001975031 -0.002894921 -0.0004706095
v 0.001975031 -0.00314887 -0.002083075
v -0.001975031 -0.00314887 -0.002083075
v -0.001975031 -0.00314887 -0.0004706095
v 0.001975031 -0.00314887 -0.0004706095
v -0.001975031 -0.003473924 -0.0004706095
v -0.001975031 -0.003473924 -0.002083075
v 0.001975031 -0.003473922 -0.002083075
v 0.001975031 -0.003473922 -0.0004706095
v 0.001975031 -0.003727869 -0.002083075
v -0.001975031 -0.003727871 -0.002083075
v -0.001975031 -0.00372787 -0.0004706095
v 0.001975031 -0.003727869 -0.0004706095
v 0.00274628 -0.01869311 -0.004679403
v 0.00274628 -0.01966775 -0.003220751
v 0.00274628 -0.01949987 -0.001911939
v 0.00274628 -0.0186931 -0.000867763
v 0.00274628 -0.01732666 -0.005033455
v 0.00274628 -0.01732666 -0.000513711
v 0.00274628 -0.01491746 -0.004328762
v 0.00274628 -0.01465515 -0.001398304
v 0.00274628 -0.0142344 -0.003220753
v 0.002780512 -0.01755282 -0.0004537883
v 0.002972028 -0.0142568 -0.001784771
v 0.00274628 -0.0147131 -0.001343775
v 0.00274628 -0.01434899 -0.003895868
v 0.002913595 -0.01471482 -0.004265503
v 0.002770131 -0.0181534 -0.005115374
v -0.002319261 -1.207693E-05 0.0001593194
v -0.002321128 -0.001155107 0.0001504037
v -0.002848403 -0.000572804 -0.001837072
v -0.003093011 0.0009017829 -0.002641233
v -0.00301783 -0.005682637 -0.001798604
v -0.003013896 -0.0142346 -0.002328066
v -0.002912741 -0.0147128 -0.004242101
v -0.002894216 -0.01495353 -0.001181278
v -0.002415124 0.001912462 -0.005748393
v -0.002492439 -0.005712729 0.0001547792
v -0.00281878 -0.01732677 -0.005035307
v -0.002750665 -0.01856231 -0.005699745
v -0.002820413 -0.01869483 -0.004670942
v -0.002917337 -0.01983616 -0.004184758
v -0.002961139 -0.01966669 -0.003217098
v -0.003050653 -0.02012641 -0.002773587
v -0.002917894 -0.01932615 -0.001504301
v -0.002916689 -0.01983619 -0.001362539
v -0.002885164 -0.01769858 -0.0004541112
v -0.002781594 -0.01858356 0.0001463197
v -0.001489998 -0.0003777663 -0.0009061871
v -0.001489678 -0.006085278 -0.0008743108
v -0.001489678 -0.006085278 -0.002122866
v -0.001489998 5.796329E-05 -0.002154743
v -0.00274628 -0.01949987 -0.001911939
v -0.00274628 -0.01966775 -0.003220751
v -0.00274628 -0.01869311 -0.004679403
v -0.00274628 -0.0186931 -0.000867763
v -0.00274628 -0.01732666 -0.005033455
v -0.00274628 -0.01732666 -0.000513711
v -0.00274628 -0.01465515 -0.001398304
v -0.00274628 -0.01491746 -0.004328762
v -0.00274628 -0.0142344 -0.003220753
vt 0.8756266 0.3914241
vt 0.8778967 0.3992138
vt 0.8760846 0.374563
vt 0.447273 0.2147555
vt 0.4483057 0.2147555
vt 0.4462402 0.2147555
vt 0.8779554 0.2763865
vt 0.8759271 0.2975375
vt 0.875627 0.274311
vt 0.8760846 0.3745629
vt 0.8778967 0.3992138
vt 0.8756266 0.3914241
vt 0.5507343 0.5125508
vt 0.5497016 0.5125508
vt 0.5486689 0.5125508
vt 0.8691452 0.5262957
vt 0.8681124 0.5262957
vt 0.8670797 0.5262957
vt 0.5563674 0.171234
vt 0.5553347 0.171234
vt 0.554302 0.171234
vt 0.8779554 0.2763865
vt 0.875627 0.274311
vt 0.8759272 0.2975374
vt 0.9232793 0.02957883
vt 0.9173058 0.05119523
vt 0.9232793 0.02957886
vt 0.9173258 0.05114697
vt 0.9173058 0.05119523
vt 0.9232793 0.02957883
vt 0.9232793 0.02957886
vt 0.9212772 0.01255497
vt 0.9212771 0.01255493
vt 0.9171472 0.001714025
vt 0.9171472 0.001714025
vt 0.8270238 0.871358
vt 0.8233707 0.8771831
vt 0.823031 0.9051936
vt 0.837826 0.8645853
vt 0.8509002 0.8637745
vt 0.8664264 0.871358
vt 0.8704191 0.9051936
vt 0.8700794 0.8771831
vt 0.1536999 0.8721985
vt 0.1536999 0.8721985
vt 0.1063118 0.8721985
vt 0.1063118 0.8721985
vt 0.5788302 0.6708474
vt 0.5505223 0.6808279
vt 0.7158448 0.6776864
vt 0.5479885 0.6708474
vt 0.5217153 0.6835334
vt 0.5217726 0.6708474
vt 0.4957377 0.6708475
vt 0.4933326 0.68083
vt 0.4648961 0.6708474
vt 0.3898128 0.6786864
vt 0.3898128 0.6786862
vt 0.4648961 0.6708474
vt 0.7158448 0.6776864
vt 0.5788302 0.6708474
vt 0.7158448 0.6776865
vt 0.5505223 0.6808279
vt 0.5479885 0.6708474
vt 0.5217153 0.6835334
vt 0.5219536 0.6708474
vt 0.4957377 0.6708475
vt 0.4933327 0.68083
vt 0.4648961 0.6708474
vt 0.3898128 0.6786862
vt 0.186286 0.8082174
vt 0.186286 0.8082174
vt 0.186453 0.7989042
vt 0.186453 0.7989042
vt 0.8664264 0.871358
vt 0.8700794 0.8771831
vt 0.8704191 0.9051936
vt 0.823031 0.9051936
vt 0.8509002 0.8637745
vt 0.837826 0.8645853
vt 0.8270238 0.871358
vt 0.8233707 0.8771831
vt 0.8774679 0.3457379
vt 0.8760846 0.3745629
vt 0.8756262 0.3505724
vt 0.8756262 0.3294862
vt 0.8770479 0.3254443
vt 0.8760917 0.3018501
vt 0.2115128 0.4990818
vt 0.1948476 0.5044913
vt 0.2114212 0.508392
vt 0.1877467 0.4915583
vt 0.1948838 0.544369
vt 0.1827891 0.6152799
vt 0.1620405 0.4833992
vt 0.1973996 0.6195353
vt 0.1735956 0.6207247
vt 0.2109699 0.5454832
vt 0.1679071 0.6398802
vt 0.1631595 0.6498238
vt 0.1711383 0.6506256
vt 0.1747637 0.6599044
vt 0.1825692 0.6583248
vt 0.1860673 0.6627387
vt 0.1960749 0.6556689
vt 0.1973819 0.6599668
vt 0.2039138 0.6428519
vt 0.2091589 0.6497865
vt 0.9075147 0.8077305
vt 0.9075482 0.8079169
vt 0.9031299 0.7921963
vt 0.9031229 0.7921807
vt 0.2208682 0.3253292
vt 0.2310044 0.3289257
vt 0.2310044 0.2789614
vt 0.2208498 0.2789087
vt 0.9023083 0.8651776
vt 0.9075126 0.8487162
vt 0.9023007 0.8651937
vt 0.907497 0.8487614
vt 0.9075147 0.8077305
vt 0.9075482 0.8079169
vt 0.9529546 0.1718361
vt 0.9529546 0.1718361
vt 0.9529526 0.1254155
vt 0.9529526 0.1254155
vt 0.109925 0.388857
vt 0.1230393 0.388857
vt 0.1230393 0.388857
vt 0.109925 0.388857
vt 0.5583641 0.9775689
vt 0.5583641 0.9775689
vt 0.5583641 0.9906833
vt 0.5583641 0.9906833
vt 0.6570331 0.9775738
vt 0.6570331 0.9906881
vt 0.6570331 0.9906881
vt 0.6570331 0.9775738
vt 0.2997072 0.4048921
vt 0.2997072 0.4048921
vt 0.3128215 0.4048921
vt 0.3128215 0.4048921
vt 0.6765321 0.9775766
vt 0.6765321 0.9906909
vt 0.6765321 0.9906909
vt 0.6765321 0.9775766
vt 0.8452619 0.9752831
vt 0.8452619 0.9752831
vt 0.8452619 0.9883974
vt 0.8452619 0.9883974
vt 0.7289091 0.9775734
vt 0.7289091 0.9906877
vt 0.7289091 0.9906877
vt 0.7289091 0.9775734
vt 0.7484086 0.9775787
vt 0.7484086 0.9775787
vt 0.7484086 0.9906932
vt 0.7484086 0.9906932
vt 0.538865 0.9775771
vt 0.538865 0.9906915
vt 0.538865 0.9906915
vt 0.538865 0.9775771
vt 0.8963808 0.3751105
vt 0.8963808 0.3751105
vt 0.9094951 0.3751105
vt 0.9094951 0.3751105
vt 0.1017817 0.1937718
vt 0.09206142 0.1840518
vt 0.08161576 0.1826846
vt 0.07248823 0.1879453
vt 0.1028701 0.204891
vt 0.06722791 0.1978017
vt 0.0934016 0.2228297
vt 0.07064909 0.219861
vt 0.08370167 0.2260818
vt 0.8760846 0.374563
vt 0.8774679 0.3457379
vt 0.8756262 0.3505724
vt 0.8756262 0.3294862
vt 0.8770479 0.3254443
vt 0.8760917 0.3018501
vt 0.2115117 0.4990815
vt 0.2114208 0.5083918
vt 0.194845 0.5044909
vt 0.1878999 0.4915892
vt 0.1949597 0.5444129
vt 0.1897649 0.615298
vt 0.1751038 0.619468
vt 0.198894 0.6208052
vt 0.1620367 0.4833567
vt 0.211016 0.5454918
vt 0.1679135 0.639878
vt 0.1630521 0.6496495
vt 0.1711383 0.6506256
vt 0.1747637 0.6599044
vt 0.1825692 0.6583248
vt 0.1860673 0.6627387
vt 0.1960749 0.6556689
vt 0.1973819 0.6599669
vt 0.2039136 0.6428531
vt 0.2090275 0.6500382
vt 0.2208682 0.3253292
vt 0.2208498 0.2789087
vt 0.2310044 0.2789614
vt 0.2310044 0.3289257
vt 0.08161576 0.1826846
vt 0.09206142 0.1840518
vt 0.1017817 0.1937718
vt 0.07248823 0.1879453
vt 0.1028701 0.204891
vt 0.06722791 0.1978017
vt 0.07064909 0.219861
vt 0.0934016 0.2228297
vt 0.08370167 0.2260818
vn -0.8976573 0.316147 -0.3070218
vn 0.900807 0.4287654 0.06860734
vn -0.933342 0.06683733 -0.3527118
vn 0 0 1
vn 0 0 1
vn 0 0 1
vn -0.900807 0.4287654 0.06860734
vn -0.9525973 0.2200133 0.210125
vn 0.8976573 0.316147 -0.3070218
vn 0.933342 0.06683733 -0.3527118
vn -0.900807 0.4287654 0.06860734
vn 0.8976573 0.316147 -0.3070218
vn 0 0 1
vn 0 0 1
vn 0 0 1
vn 0 0 1
vn 0 0 1
vn 0 0 1
vn 0 0 1
vn 0 0 1
vn 0 0 1
vn 0.900807 0.4287654 0.06860734
vn -0.8976573 0.316147 -0.3070218
vn 0.9525973 0.2200133 0.210125
vn 0 0.9503425 0.311206
vn 0 0.9503425 0.311206
vn 0 0.9503425 0.311206
vn 0 0.9503425 0.311206
vn 0 0.9503425 0.311206
vn 0 0.9503425 0.311206
vn 0 0.9503425 0.311206
vn 0 0.9503425 0.311206
vn 0 0.9503425 0.311206
vn 0 0.9503425 0.311206
vn 0 0.9503425 0.311206
vn -1 0 0
vn -1 0 0
vn -1 0 0
vn -1 0 0
vn -1 0 0
vn -1 0 0
vn -1 0 0
vn -1 0 0
vn 0 -1 0
vn 0 -1 0
vn 0 -1 0
vn 0 -1 0
vn -0.01226864 -0.0009155698 -0.9999243
vn 0.05334753 -0.4339218 -0.8993698
vn -0.0005493499 0 -0.9999999
vn 0.04681656 -0.5567935 -0.8293306
vn 0.03396719 -0.9994229 -0.0003662231
vn -0.01742608 -0.9998481 0
vn 0.04397781 -0.5551702 0.8305733
vn 0.05267649 -0.4393878 0.8967516
vn -0.009155725 -0.0007934962 0.9999578
vn -0.0006103888 6.103887E-05 0.9999999
vn 0.0006103888 6.103887E-05 0.9999999
vn 0.009155725 -0.0007934962 0.9999578
vn -0.0005493499 0 -0.9999999
vn 0.01229915 -0.0009155695 -0.9999239
vn 0.0005493499 0 -0.9999999
vn -0.05334753 -0.4339218 -0.8993698
vn -0.04681656 -0.5567935 -0.8293306
vn -0.03396719 -0.9994229 -0.0003662231
vn 0.01742608 -0.9998481 0
vn -0.04397781 -0.5551702 0.8305733
vn -0.05267649 -0.4393878 0.8967516
vn 0.009155725 -0.0007934962 0.9999578
vn 0.0006103888 6.103887E-05 0.9999999
vn 0 0 1
vn 0 0 1
vn 0 0 1
vn 0 0 1
vn 1 0 0
vn 1 0 0
vn 1 0 0
vn 1 0 0
vn 1 0 0
vn 1 0 0
vn 1 0 0
vn 1 0 0
vn -0.7227963 -0.6556531 -0.2183679
vn 0.933342 0.06683733 -0.3527118
vn 0.5975766 -0.3843962 -0.7036632
vn 0.6679155 -0.6903777 0.27797
vn -0.6760668 -0.3473724 0.64982
vn -0.9525973 0.2200133 0.210125
vn 0.9654426 -0.00927782 0.2604504
vn 0.9537916 0.01147529 0.3002496
vn 0.9654426 -0.00927782 0.2604504
vn 0.9999646 0.006348012 -0.005523992
vn 0.9928248 -0.002868819 0.1195443
vn 0.9966462 0.001251263 -0.0818204
vn 0.9813693 0.008697918 -0.191934
vn 0.9868705 0.004638926 0.1614468
vn 0.9799132 0.0112311 -0.1991078
vn 0.9715508 0.003875949 0.2367991
vn 0.9792687 0.01232975 -0.2021895
vn 0.9792687 0.01232975 -0.2021895
vn 0.9836866 0.02023406 -0.1787495
vn 0.9945921 0.06204565 -0.08328705
vn 0.9930866 0.1106922 -0.03906425
vn 0.9933262 0.1147507 0.01162767
vn 0.9983992 0.04892199 0.02838269
vn 0.9958608 0.06613436 0.06235002
vn 0.981002 0.01010178 0.1937345
vn 0.9786429 0.01049843 0.2052992
vn 0.0005188251 0.6326309 0.7744532
vn 0.0005493415 0.6294844 0.7770131
vn -0.002136302 0.9993924 0.03479119
vn -0.002136302 0.9993924 0.03479119
vn 1 -3.051944E-05 0
vn 1 -3.051851E-05 0
vn 1 -3.051851E-05 0
vn 1 -3.051851E-05 0
vn -0.0004272668 -0.9640055 -0.265882
vn 0.00198375 -0.704384 0.7098164
vn -0.0002441554 -0.9641392 -0.265397
vn 0.002105835 -0.7053022 0.7089036
vn 0.0005188251 0.6326309 0.7744532
vn 0.0005493415 0.6294844 0.7770131
vn 0 0.005554453 0.9999846
vn 0 0.005554453 0.9999846
vn 0 0.005554453 0.9999846
vn 0 0.005554453 0.9999846
vn 0 1 0
vn 0 1 0
vn 0 1 0
vn 0 1 0
vn 0 -1 0
vn 0 -1 0
vn 0 -1 0
vn 0 -1 0
vn 0 1 0
vn 0 1 0
vn 0 1 0
vn 0 1 0
vn 0 -1 0
vn 0 -1 0
vn 0 -1 0
vn 0 -1 0
vn 0 1 0
vn 0 1 0
vn 0 1 0
vn 0 1 0
vn 0 -1 0
vn 0 -1 0
vn 0 -1 0
vn 0 -1 0
vn 0 1 0
vn 0 1 0
vn 0 1 0
vn 0 1 0
vn 0 -1 0
vn 0 -1 0
vn 0 -1 0
vn 0 -1 0
vn 0 1 0
vn 0 1 0
vn 0 1 0
vn 0 1 0
vn 0 -1 0
vn 0 -1 0
vn 0 -1 0
vn 0 -1 0
vn 1 0 0
vn 1 0 0
vn 1 0 0
vn 1 0 0
vn 1 0 0
vn 1 0 0
vn 1 0 0
vn 1 0 0
vn 1 0 0
vn -0.933342 0.06683733 -0.3527118
vn 0.7227963 -0.6556531 -0.2183679
vn -0.5975766 -0.3843962 -0.7036632
vn -0.6679465 -0.6903477 0.2779702
vn 0.6760833 -0.3473652 0.6498067
vn 0.9525973 0.2200133 0.210125
vn -0.9658117 -0.01086485 0.2590168
vn -0.9658117 -0.01086485 0.2590168
vn -0.9520717 0.01254332 0.3056176
vn -0.9998536 0.007171894 -0.01553402
vn -0.9966786 -0.001434377 0.08142381
vn -0.9991052 -0.006164867 0.04184174
vn -0.9920741 0.008423184 -0.1253712
vn -0.9897143 0.01159738 0.1425867
vn -0.9785266 0.01055953 -0.2058498
vn -0.9683049 0.005707041 0.2497059
vn -0.9925136 0.009003152 -0.121802
vn -0.9966779 0.009094557 -0.08093545
vn -0.9974046 0.03595186 -0.06238165
vn -0.9958419 0.07013315 -0.0581391
vn -0.9930866 0.1106922 -0.03906425
vn -0.9933262 0.1147507 0.01162767
vn -0.9983992 0.04892199 0.02838269
vn -0.9963611 0.06738645 0.05218787
vn -0.9899884 0.01754866 0.1400535
vn -0.988817 0.01846402 0.1479868
vn -1 -3.051944E-05 0
vn -1 -3.051851E-05 0
vn -1 -3.051851E-05 0
vn -1 -3.051851E-05 0
vn -1 0 0
vn -1 0 0
vn -1 0 0
vn -1 0 0
vn -1 0 0
vn -1 0 0
vn -1 0 0
vn -1 0 0
vn -1 0 0
g mp7smolboi_LOD3_0
f 3/3/3 2/2/2 1/1/1
f 6/6/6 5/5/5 4/4/4
f 9/9/9 8/8/8 7/7/7
f 12/12/12 11/11/11 10/10/10
f 15/15/15 14/14/14 13/13/13
f 18/18/18 17/17/17 16/16/16
f 21/21/21 20/20/20 19/19/19
f 24/24/24 23/23/23 22/22/22
f 27/27/27 26/26/26 25/25/25
f 30/30/30 29/29/29 28/28/28
f 32/32/32 31/31/31 30/30/30
f 33/33/33 31/31/31 32/32/32
f 33/33/33 32/32/32 34/34/34
f 32/32/32 35/35/35 34/34/34
f 38/38/38 37/37/37 36/36/36
f 39/39/39 38/38/38 36/36/36
f 40/40/40 38/38/38 39/39/39
f 40/40/40 41/41/41 38/38/38
f 41/41/41 42/42/42 38/38/38
f 43/43/43 42/42/42 41/41/41
f 46/46/46 45/45/45 44/44/44
f 46/46/46 44/44/44 47/47/47
f 50/50/50 49/49/49 48/48/48
f 48/48/48 49/49/49 51/51/51
f 49/49/49 52/52/52 51/51/51
f 51/51/51 52/52/52 53/53/53
f 54/54/54 53/53/53 52/52/52
f 54/54/54 52/52/52 55/55/55
f 55/55/55 56/56/56 54/54/54
f 56/56/56 55/55/55 57/57/57
f 57/57/57 58/58/58 56/56/56
f 58/58/58 59/59/59 56/56/56
f 48/48/48 61/61/61 60/60/60
f 61/61/61 62/62/62 60/60/60
f 63/63/63 62/62/62 61/61/61
f 61/61/61 64/64/64 63/63/63
f 64/64/64 65/65/65 63/63/63
f 64/64/64 66/66/66 65/65/65
f 66/66/66 67/67/67 65/65/65
f 65/65/65 67/67/67 68/68/68
f 67/67/67 69/69/69 68/68/68
f 68/68/68 69/69/69 70/70/70
f 73/73/73 72/72/72 71/71/71
f 74/74/74 73/73/73 71/71/71
f 77/77/77 76/76/76 75/75/75
f 78/78/78 77/77/77 75/75/75
f 79/79/79 78/78/78 75/75/75
f 78/78/78 79/79/79 80/80/80
f 78/78/78 80/80/80 81/81/81
f 81/81/81 82/82/82 78/78/78
f 85/85/85 84/84/84 83/83/83
f 86/86/86 85/85/85 83/83/83
f 86/86/86 83/83/83 87/87/87
f 88/88/88 86/86/86 87/87/87
f 91/91/91 90/90/90 89/89/89
f 90/90/90 92/92/92 89/89/89
f 92/92/92 90/90/90 93/93/93
f 92/92/92 93/93/93 94/94/94
f 95/95/95 92/92/92 94/94/94
f 93/93/93 96/96/96 94/94/94
f 97/97/97 95/95/95 94/94/94
f 93/93/93 98/98/98 96/96/96
f 95/95/95 97/97/97 99/99/99
f 100/100/100 95/95/95 99/99/99
f 100/100/100 99/99/99 101/101/101
f 101/101/101 102/102/102 100/100/100
f 103/103/103 102/102/102 101/101/101
f 104/104/104 102/102/102 103/103/103
f 104/104/104 103/103/103 105/105/105
f 106/106/106 104/104/104 105/105/105
f 107/107/107 96/96/96 98/98/98
f 107/107/107 106/106/106 105/105/105
f 107/107/107 98/98/98 108/108/108
f 108/108/108 106/106/106 107/107/107
f 111/111/111 110/110/110 109/109/109
f 112/112/112 111/111/111 109/109/109
f 115/115/115 114/114/114 113/113/113
f 116/116/116 115/115/115 113/113/113
f 119/119/119 118/118/118 117/117/117
f 120/120/120 118/118/118 119/119/119
f 120/120/120 121/121/121 118/118/118
f 121/121/121 122/122/122 118/118/118
f 125/125/125 124/124/124 123/123/123
f 126/126/126 125/125/125 123/123/123
f 129/129/129 128/128/128 127/127/127
f 130/130/130 129/129/129 127/127/127
f 133/133/133 132/132/132 131/131/131
f 134/134/134 133/133/133 131/131/131
f 137/137/137 136/136/136 135/135/135
f 138/138/138 137/137/137 135/135/135
f 141/141/141 140/140/140 139/139/139
f 142/142/142 141/141/141 139/139/139
f 145/145/145 144/144/144 143/143/143
f 146/146/146 145/145/145 143/143/143
f 149/149/149 148/148/148 147/147/147
f 150/150/150 149/149/149 147/147/147
f 153/153/153 152/152/152 151/151/151
f 154/154/154 153/153/153 151/151/151
f 157/157/157 156/156/156 155/155/155
f 158/158/158 157/157/157 155/155/155
f 161/161/161 160/160/160 159/159/159
f 162/162/162 161/161/161 159/159/159
f 165/165/165 164/164/164 163/163/163
f 166/166/166 165/165/165 163/163/163
f 169/169/169 168/168/168 167/167/167
f 167/167/167 170/170/170 169/169/169
f 167/167/167 171/171/171 170/170/170
f 171/171/171 172/172/172 170/170/170
f 171/171/171 173/173/173 172/172/172
f 173/173/173 174/174/174 172/172/172
f 173/173/173 175/175/175 174/174/174
f 178/178/178 177/177/177 176/176/176
f 178/178/178 179/179/179 177/177/177
f 180/180/180 177/177/177 179/179/179
f 181/181/181 180/180/180 179/179/179
f 184/184/184 183/183/183 182/182/182
f 185/185/185 184/184/184 182/182/182
f 184/184/184 185/185/185 186/186/186
f 187/187/187 186/186/186 185/185/185
f 188/188/188 187/187/187 185/185/185
f 189/189/189 186/186/186 187/187/187
f 185/185/185 190/190/190 188/188/188
f 191/191/191 186/186/186 189/189/189
f 190/190/190 192/192/192 188/188/188
f 192/192/192 190/190/190 193/193/193
f 194/194/194 192/192/192 193/193/193
f 195/195/195 194/194/194 193/193/193
f 196/196/196 194/194/194 195/195/195
f 196/196/196 195/195/195 197/197/197
f 196/196/196 197/197/197 198/198/198
f 197/197/197 199/199/199 198/198/198
f 191/191/191 189/189/189 200/200/200
f 200/200/200 198/198/198 199/199/199
f 201/201/201 191/191/191 200/200/200
f 200/200/200 199/199/199 201/201/201
f 204/204/204 203/203/203 202/202/202
f 205/205/205 204/204/204 202/202/202
f 208/208/208 207/207/207 206/206/206
f 206/206/206 209/209/209 208/208/208
f 209/209/209 210/210/210 208/208/208
f 209/209/209 211/211/211 210/210/210
f 211/211/211 212/212/212 210/210/210
f 212/212/212 213/213/213 210/210/210
f 212/212/212 214/214/214 213/213/213
