g mp7smollerboi_LOD0
v 0.0009644024 -0.01641416 0.007073277
v 0.0009644024 -0.0166866 0.007127468
v 0.002325153 -0.0166866 0.007127468
v 0.002325153 -0.01641416 0.007073277
v 0.0009644024 -0.01614173 0.007127468
v 0.002325153 -0.01614173 0.007127468
v 0.0009644024 -0.01591077 0.007281791
v 0.002325153 -0.01591077 0.007281791
v 0.0009644024 -0.01575644 0.007512752
v 0.002325153 -0.01575644 0.007512751
v 0.0009644024 -0.01570225 0.007785188
v 0.002325153 -0.01570225 0.007785188
v 0.0009644024 -0.01575644 0.008057624
v 0.002325153 -0.01575644 0.008057624
v 0.0009644024 -0.01591077 0.008288586
v 0.002325153 -0.01591077 0.008288586
v 0.0009644024 -0.01614172 0.008442909
v 0.002325153 -0.01614172 0.008442909
v 0.0009644024 -0.01641416 0.008497099
v 0.002325153 -0.01641416 0.008497099
v 0.0009644024 -0.0166866 0.008442909
v 0.002325153 -0.0166866 0.008442909
v 0.0009644024 -0.01691756 0.008288586
v 0.002325153 -0.01691756 0.008288586
v 0.0009644024 -0.01707188 0.008057624
v 0.002325153 -0.01707188 0.008057624
v 0.0009644024 -0.01712607 0.007785188
v 0.002325153 -0.01712607 0.007785188
v 0.0009644024 -0.01707188 0.007512752
v 0.002325153 -0.01707188 0.007512751
v 0.0009644024 -0.01691756 0.007281791
v 0.002325153 -0.01691756 0.007281791
v 0.0009644024 -0.0166866 0.007127468
v 0.002325153 -0.0166866 0.007127468
v 0.002277483 -0.01670959 0.007662817
v 0.002277483 -0.01673393 0.007785189
v 0.002277483 -0.01670959 0.007907561
v 0.002277483 -0.01664028 0.007559075
v 0.002277483 -0.01664028 0.008011303
v 0.002277483 -0.01653653 0.007489756
v 0.002277483 -0.01653653 0.008080621
v 0.002277483 -0.01641416 0.007465416
v 0.002277483 -0.01641416 0.008104962
v 0.002277483 -0.01629179 0.007489756
v 0.002277483 -0.01629179 0.008080621
v 0.002277483 -0.01618805 0.007559075
v 0.002277483 -0.01618805 0.008011303
v 0.002277483 -0.01611873 0.007662817
v 0.002277483 -0.01611873 0.007907561
v 0.002277483 -0.01609439 0.007785189
v 0.002325153 -0.01664028 0.008011303
v 0.002277483 -0.01664028 0.008011303
v 0.002277483 -0.01670959 0.007907561
v 0.002325153 -0.01670959 0.007907561
v 0.002277483 -0.01673393 0.007785189
v 0.002325153 -0.01673393 0.007785189
v 0.002277483 -0.01670959 0.007662817
v 0.002325153 -0.01670959 0.007662817
v 0.002277483 -0.01664028 0.007559075
v 0.002325153 -0.01664028 0.007559075
v 0.002277483 -0.01653653 0.007489756
v 0.002325153 -0.01653653 0.007489756
v 0.002277483 -0.01641416 0.007465416
v 0.002325153 -0.01641416 0.007465416
v 0.002277483 -0.01629179 0.007489756
v 0.002325153 -0.01629179 0.007489756
v 0.002277483 -0.01618805 0.007559075
v 0.002325153 -0.01618805 0.007559075
v 0.002277483 -0.01611873 0.007662817
v 0.002325153 -0.01611873 0.007662817
v 0.002277483 -0.01609439 0.007785189
v 0.002325153 -0.01609439 0.007785189
v 0.002277483 -0.01611873 0.007907561
v 0.002325153 -0.01611873 0.007907561
v 0.002277483 -0.01618805 0.008011303
v 0.002325153 -0.01618805 0.008011303
v 0.002277483 -0.01629179 0.008080621
v 0.002325153 -0.01629179 0.008080621
v 0.002277483 -0.01641416 0.008104962
v 0.002325153 -0.01641416 0.008104962
v 0.002277483 -0.01653653 0.008080621
v 0.002325153 -0.01653653 0.008080621
v 0.002277483 -0.01664028 0.008011303
v 0.002325153 -0.01664028 0.008011303
v 0.001268535 -0.01725682 0.008637917
v 0.001268535 -0.01556631 0.008637917
v 0.001268535 -0.01556631 0.006970294
v 0.001268535 -0.01725682 0.006970294
v 0.0008416486 -0.01556631 0.008637917
v 0.0008416486 -0.01556631 0.006970294
v 0.001268535 -0.01556631 0.006970294
v 0.001268535 -0.01556631 0.008637917
v 0.0008416486 -0.01725682 0.008637917
v 0.0008416486 -0.01556631 0.008637917
v 0.001268535 -0.01556631 0.008637917
v 0.001268535 -0.01725682 0.008637917
v 0.0008416486 -0.01725682 0.006970294
v 0.0008416486 -0.01725682 0.008637917
v 0.001268535 -0.01725682 0.008637917
v 0.001268535 -0.01725682 0.006970294
v 0.0008416486 -0.01556631 0.006970294
v 0.0008416486 -0.01725682 0.006970294
v 0.001268535 -0.01725682 0.006970294
v 0.001268535 -0.01556631 0.006970294
v 0.002325153 -0.01591077 0.007281791
v 0.002325153 -0.01618805 0.007559075
v 0.002325153 -0.01611873 0.007662817
v 0.002325153 -0.01575644 0.007512751
v 0.002325153 -0.01614173 0.007127468
v 0.002325153 -0.01609439 0.007785189
v 0.002325153 -0.01629179 0.007489756
v 0.002325153 -0.01570225 0.007785188
v 0.002325153 -0.01641416 0.007073277
v 0.002325153 -0.01611873 0.007907561
v 0.002325153 -0.01641416 0.007465416
v 0.002325153 -0.01575644 0.008057624
v 0.002325153 -0.0166866 0.007127468
v 0.002325153 -0.01618805 0.008011303
v 0.002325153 -0.01653653 0.007489756
v 0.002325153 -0.01591077 0.008288586
v 0.002325153 -0.01691756 0.007281791
v 0.002325153 -0.01629179 0.008080621
v 0.002325153 -0.01664028 0.007559075
v 0.002325153 -0.01614172 0.008442909
v 0.002325153 -0.01707188 0.007512751
v 0.002325153 -0.01641416 0.008104962
v 0.002325153 -0.01670959 0.007662817
v 0.002325153 -0.01641416 0.008497099
v 0.002325153 -0.01712607 0.007785188
v 0.002325153 -0.01653653 0.008080621
v 0.002325153 -0.01673393 0.007785189
v 0.002325153 -0.0166866 0.008442909
v 0.002325153 -0.01707188 0.008057624
v 0.002325153 -0.01664028 0.008011303
v 0.002325153 -0.01670959 0.007907561
v 0.002325153 -0.01691756 0.008288586
vt 0.9431913 0.7274125
vt 0.9431913 0.7296718
vt 0.9542585 0.7296718
vt 0.9542585 0.7274126
vt 0.9431913 0.7251534
vt 0.9542585 0.7251534
vt 0.9431913 0.7228943
vt 0.9542585 0.7228943
vt 0.9431913 0.7206351
vt 0.9542585 0.7206351
vt 0.9431913 0.7183759
vt 0.9542585 0.7183759
vt 0.9431913 0.7161167
vt 0.9542585 0.7161168
vt 0.9431913 0.7138576
vt 0.9542585 0.7138576
vt 0.9431913 0.7115985
vt 0.9542585 0.7115985
vt 0.9431913 0.7093393
vt 0.9542585 0.7093393
vt 0.9431913 0.7070801
vt 0.9542585 0.7070801
vt 0.9431913 0.7048209
vt 0.9542585 0.7048209
vt 0.9431915 0.7025617
vt 0.9542585 0.7025617
vt 0.9431915 0.7003025
vt 0.9542585 0.7003025
vt 0.9431915 0.6980435
vt 0.9542585 0.6980434
vt 0.9431913 0.6957842
vt 0.9542585 0.6957842
vt 0.9431913 0.6935251
vt 0.9542585 0.693525
vt 0.2836404 0.1265204
vt 0.2832521 0.127458
vt 0.283252 0.1284727
vt 0.2843579 0.1258029
vt 0.2836404 0.1294102
vt 0.2852955 0.1254146
vt 0.2843579 0.1301278
vt 0.2863103 0.1254146
vt 0.2852955 0.1305161
vt 0.2872477 0.1258029
vt 0.2863103 0.1305161
vt 0.2879653 0.1265204
vt 0.2872477 0.1301278
vt 0.2883537 0.127458
vt 0.2879653 0.1294102
vt 0.2883537 0.1284727
vt 0.998163 0.01317235
vt 0.9977754 0.01317235
vt 0.9977754 0.01418712
vt 0.998163 0.01418712
vt 0.9977754 0.01520183
vt 0.998163 0.01520183
vt 0.9977754 0.0162166
vt 0.998163 0.0162166
vt 0.9977754 0.01723137
vt 0.998163 0.01723137
vt 0.9977754 0.01824614
vt 0.998163 0.01824614
vt 0.9977754 0.01926097
vt 0.998163 0.01926097
vt 0.9977754 0.02027562
vt 0.998163 0.02027562
vt 0.9977754 0.02129038
vt 0.998163 0.02129038
vt 0.9977754 0.02230515
vt 0.998163 0.02230515
vt 0.9977754 0.0233198
vt 0.998163 0.0233198
vt 0.9977754 0.02433463
vt 0.998163 0.02433463
vt 0.9977754 0.0253494
vt 0.998163 0.0253494
vt 0.9977754 0.02636417
vt 0.998163 0.02636417
vt 0.9977754 0.02737894
vt 0.998163 0.02737894
vt 0.9977754 0.02839371
vt 0.998163 0.02839371
vt 0.9977754 0.02940842
vt 0.998163 0.02940842
vt 0.9240663 0.3086789
vt 0.9240663 0.2949297
vt 0.9105034 0.2949297
vt 0.9105034 0.3086789
vt 0.9963381 0.7666465
vt 0.9963381 0.7530835
vt 0.9928662 0.7530835
vt 0.9928662 0.7666465
vt 0.2313612 0.6316811
vt 0.2313612 0.617932
vt 0.2278893 0.617932
vt 0.2278893 0.6316811
vt 0.181904 0.6935196
vt 0.181904 0.7070825
vt 0.1853759 0.7070825
vt 0.1853759 0.6935196
vt 0.0228365 0.6545787
vt 0.0228365 0.6683278
vt 0.02630835 0.6683278
vt 0.02630835 0.6545787
vt 0.7979137 0.5812083
vt 0.8010417 0.5805861
vt 0.8010417 0.5795713
vt 0.7979137 0.5789492
vt 0.7987782 0.5832956
vt 0.80143 0.5786338
vt 0.80143 0.5815237
vt 0.7987782 0.576862
vt 0.8003758 0.584893
vt 0.8021476 0.5779163
vt 0.8021476 0.5822412
vt 0.8003758 0.5752645
vt 0.8024629 0.5857576
vt 0.8030851 0.5775279
vt 0.8030851 0.5826296
vt 0.8024629 0.5744
vt 0.804722 0.5857576
vt 0.8040999 0.5775279
vt 0.8040999 0.5826296
vt 0.804722 0.5744
vt 0.8068092 0.584893
vt 0.8050373 0.5779163
vt 0.8050373 0.5822413
vt 0.8068092 0.5752646
vt 0.8084068 0.5832956
vt 0.805755 0.5786338
vt 0.805755 0.5815237
vt 0.8084068 0.576862
vt 0.8092713 0.5812083
vt 0.8061432 0.5795714
vt 0.8061432 0.5805861
vt 0.8092713 0.5789493
vn 0 0 -1
vn 0 -0.3826815 -0.9238803
vn 0 -0.3826815 -0.9238803
vn 0 0 -1
vn 0 0.3826815 -0.9238803
vn 0 0.3826815 -0.9238803
vn 0 0.7071068 -0.7071068
vn 0 0.7071068 -0.7071068
vn 0 0.9238803 -0.3826815
vn 0 0.9238803 -0.3826815
vn 0 1 0
vn 0 1 0
vn 0 0.9238803 0.3826815
vn 0 0.9238803 0.3826815
vn 0 0.7071068 0.7071068
vn 0 0.7071068 0.7071068
vn 0 0.3826815 0.9238803
vn 0 0.3826815 0.9238803
vn 0 0 1
vn 0 0 1
vn 0 -0.3826815 0.9238803
vn 0 -0.3826815 0.9238803
vn 0 -0.7071068 0.7071068
vn 0 -0.7071068 0.7071068
vn 0 -0.9238803 0.3826815
vn 0 -0.9238803 0.3826815
vn 0 -1 0
vn 0 -1 0
vn 0 -0.9238803 -0.3826815
vn 0 -0.9238803 -0.3826815
vn 0 -0.7071068 -0.7071068
vn 0 -0.7071068 -0.7071068
vn 0 -0.3826815 -0.9238803
vn 0 -0.3826815 -0.9238803
vn 1 0 0
vn 1 0 0
vn 1 0 0
vn 1 0 0
vn 1 0 0
vn 1 0 0
vn 1 0 0
vn 1 0 0
vn 1 0 0
vn 1 0 0
vn 1 0 0
vn 1 0 0
vn 1 0 0
vn 1 0 0
vn 1 0 0
vn 1 0 0
vn 0 0.7071068 -0.7071068
vn 0 0.7071068 -0.7071068
vn 0 0.9238803 -0.3826815
vn 0 0.9238803 -0.3826815
vn 0 1 0
vn 0 1 0
vn 0 0.9238803 0.3826815
vn 0 0.9238803 0.3826815
vn 0 0.7071068 0.7071068
vn 0 0.7071068 0.7071068
vn 0 0.3826815 0.9238803
vn 0 0.3826815 0.9238803
vn 0 0 1
vn 0 0 1
vn 0 -0.3826815 0.9238803
vn 0 -0.3826815 0.9238803
vn 0 -0.7071068 0.7071068
vn 0 -0.7071068 0.7071068
vn 0 -0.9238803 0.3826815
vn 0 -0.9238803 0.3826815
vn 0 -1 0
vn 0 -1 0
vn 0 -0.9238803 -0.3826815
vn 0 -0.9238803 -0.3826815
vn 0 -0.7071068 -0.7071068
vn 0 -0.7071068 -0.7071068
vn 0 -0.3826815 -0.9238803
vn 0 -0.3826815 -0.9238803
vn 0 0 -1
vn 0 0 -1
vn 0 0.3826815 -0.9238803
vn 0 0.3826815 -0.9238803
vn 0 0.7071068 -0.7071068
vn 0 0.7071068 -0.7071068
vn 1 0 0
vn 1 0 0
vn 1 0 0
vn 1 0 0
vn 0 1 0
vn 0 1 0
vn 0 1 0
vn 0 1 0
vn 0 0 1
vn 0 0 1
vn 0 0 1
vn 0 0 1
vn 0 -1 0
vn 0 -1 0
vn 0 -1 0
vn 0 -1 0
vn 0 0 -1
vn 0 0 -1
vn 0 0 -1
vn 0 0 -1
vn 1 0 0
vn 1 0 0
vn 1 0 0
vn 1 0 0
vn 1 0 0
vn 1 0 0
vn 1 0 0
vn 1 0 0
vn 1 0 0
vn 1 0 0
vn 1 0 0
vn 1 0 0
vn 1 0 0
vn 1 0 0
vn 1 0 0
vn 1 0 0
vn 1 0 0
vn 1 0 0
vn 1 0 0
vn 1 0 0
vn 1 0 0
vn 1 0 0
vn 1 0 0
vn 1 0 0
vn 1 0 0
vn 1 0 0
vn 1 0 0
vn 1 0 0
vn 1 0 0
vn 1 0 0
vn 1 0 0
vn 1 0 0
g mp7smollerboi_LOD0_0
f 3/3/3 2/2/2 1/1/1
f 4/4/4 3/3/3 1/1/1
f 4/4/4 1/1/1 5/5/5
f 6/6/6 4/4/4 5/5/5
f 6/6/6 5/5/5 7/7/7
f 8/8/8 6/6/6 7/7/7
f 8/8/8 7/7/7 9/9/9
f 10/10/10 8/8/8 9/9/9
f 10/10/10 9/9/9 11/11/11
f 12/12/12 10/10/10 11/11/11
f 12/12/12 11/11/11 13/13/13
f 14/14/14 12/12/12 13/13/13
f 14/14/14 13/13/13 15/15/15
f 16/16/16 14/14/14 15/15/15
f 16/16/16 15/15/15 17/17/17
f 18/18/18 16/16/16 17/17/17
f 18/18/18 17/17/17 19/19/19
f 20/20/20 18/18/18 19/19/19
f 20/20/20 19/19/19 21/21/21
f 22/22/22 20/20/20 21/21/21
f 22/22/22 21/21/21 23/23/23
f 24/24/24 22/22/22 23/23/23
f 24/24/24 23/23/23 25/25/25
f 26/26/26 24/24/24 25/25/25
f 26/26/26 25/25/25 27/27/27
f 28/28/28 26/26/26 27/27/27
f 28/28/28 27/27/27 29/29/29
f 30/30/30 28/28/28 29/29/29
f 30/30/30 29/29/29 31/31/31
f 32/32/32 30/30/30 31/31/31
f 32/32/32 31/31/31 33/33/33
f 34/34/34 32/32/32 33/33/33
f 37/37/37 36/36/36 35/35/35
f 35/35/35 38/38/38 37/37/37
f 38/38/38 39/39/39 37/37/37
f 38/38/38 40/40/40 39/39/39
f 40/40/40 41/41/41 39/39/39
f 40/40/40 42/42/42 41/41/41
f 42/42/42 43/43/43 41/41/41
f 42/42/42 44/44/44 43/43/43
f 44/44/44 45/45/45 43/43/43
f 44/44/44 46/46/46 45/45/45
f 46/46/46 47/47/47 45/45/45
f 46/46/46 48/48/48 47/47/47
f 48/48/48 49/49/49 47/47/47
f 48/48/48 50/50/50 49/49/49
f 53/53/53 52/52/52 51/51/51
f 54/54/54 53/53/53 51/51/51
f 55/55/55 53/53/53 54/54/54
f 56/56/56 55/55/55 54/54/54
f 57/57/57 55/55/55 56/56/56
f 58/58/58 57/57/57 56/56/56
f 59/59/59 57/57/57 58/58/58
f 60/60/60 59/59/59 58/58/58
f 61/61/61 59/59/59 60/60/60
f 62/62/62 61/61/61 60/60/60
f 63/63/63 61/61/61 62/62/62
f 64/64/64 63/63/63 62/62/62
f 65/65/65 63/63/63 64/64/64
f 66/66/66 65/65/65 64/64/64
f 67/67/67 65/65/65 66/66/66
f 68/68/68 67/67/67 66/66/66
f 69/69/69 67/67/67 68/68/68
f 70/70/70 69/69/69 68/68/68
f 71/71/71 69/69/69 70/70/70
f 72/72/72 71/71/71 70/70/70
f 73/73/73 71/71/71 72/72/72
f 74/74/74 73/73/73 72/72/72
f 75/75/75 73/73/73 74/74/74
f 76/76/76 75/75/75 74/74/74
f 77/77/77 75/75/75 76/76/76
f 78/78/78 77/77/77 76/76/76
f 79/79/79 77/77/77 78/78/78
f 80/80/80 79/79/79 78/78/78
f 81/81/81 79/79/79 80/80/80
f 82/82/82 81/81/81 80/80/80
f 83/83/83 81/81/81 82/82/82
f 84/84/84 83/83/83 82/82/82
f 87/87/87 86/86/86 85/85/85
f 88/88/88 87/87/87 85/85/85
f 91/91/91 90/90/90 89/89/89
f 92/92/92 91/91/91 89/89/89
f 95/95/95 94/94/94 93/93/93
f 96/96/96 95/95/95 93/93/93
f 99/99/99 98/98/98 97/97/97
f 100/100/100 99/99/99 97/97/97
f 103/103/103 102/102/102 101/101/101
f 104/104/104 103/103/103 101/101/101
f 107/107/107 106/106/106 105/105/105
f 108/108/108 107/107/107 105/105/105
f 105/105/105 106/106/106 109/109/109
f 110/110/110 107/107/107 108/108/108
f 106/106/106 111/111/111 109/109/109
f 112/112/112 110/110/110 108/108/108
f 109/109/109 111/111/111 113/113/113
f 114/114/114 110/110/110 112/112/112
f 111/111/111 115/115/115 113/113/113
f 116/116/116 114/114/114 112/112/112
f 113/113/113 115/115/115 117/117/117
f 118/118/118 114/114/114 116/116/116
f 115/115/115 119/119/119 117/117/117
f 120/120/120 118/118/118 116/116/116
f 117/117/117 119/119/119 121/121/121
f 122/122/122 118/118/118 120/120/120
f 119/119/119 123/123/123 121/121/121
f 124/124/124 122/122/122 120/120/120
f 121/121/121 123/123/123 125/125/125
f 126/126/126 122/122/122 124/124/124
f 123/123/123 127/127/127 125/125/125
f 128/128/128 126/126/126 124/124/124
f 125/125/125 127/127/127 129/129/129
f 130/130/130 126/126/126 128/128/128
f 127/127/127 131/131/131 129/129/129
f 132/132/132 130/130/130 128/128/128
f 129/129/129 131/131/131 133/133/133
f 134/134/134 130/130/130 132/132/132
f 131/131/131 135/135/135 133/133/133
f 136/136/136 134/134/134 132/132/132
f 133/133/133 135/135/135 136/136/136
f 135/135/135 134/134/134 136/136/136
