g mp7trigger_LOD1
v 0.0005574033 0.01124347 -0.004215695
v 0.0005574033 0.01050061 -0.004215695
v -0.0005574033 0.01050061 -0.004215695
v -0.0005574033 0.01124347 -0.004215695
v -0.0005574033 0.01124347 -0.0002699116
v 0.0005574033 0.01124347 -0.0002699118
v 0.0005574033 0.01169949 -0.00125636
v -0.0005574033 0.01169949 -0.001256358
v -0.0005574033 0.01167253 -0.002242803
v 0.0005574033 0.01167253 -0.002242804
v 0.0005574033 0.01124347 -0.004215695
v -0.0005574033 0.01124347 -0.004215695
v 0.0005574033 0.01169949 -0.001256358
v 0.0005574033 0.01124347 -0.0002699118
v 0.0005574033 0.01135882 -0.001522223
v 0.0005574033 0.01122699 -0.002939315
v 0.0005574033 0.01167253 -0.002242804
v 0.0005574033 0.01102228 -0.003455551
v 0.0005574033 0.01124347 -0.004215695
v 0.0005574033 0.01050061 -0.004215695
v 0.0004452296 0.009159043 -0.004883186
v -0.0004452296 0.009159044 -0.004883186
v 0.0004452296 0.009025543 -0.004787828
v -0.0004452296 0.009025543 -0.004787829
v -0.0004452296 0.008968329 -0.004616185
v 0.0004452296 0.008968329 -0.004616186
v -0.0004452296 0.009082758 -0.004435006
v 0.0004452296 0.009082757 -0.004435006
v 0.0004452296 0.009635832 -0.004189674
v -0.0004452296 0.009635833 -0.004189674
v 0.0004452296 0.01014123 -0.003798285
v -0.0004452296 0.01014123 -0.003798287
v -0.0004452296 0.01061802 -0.003221283
v 0.0004452296 0.01061802 -0.003221282
v 0.0004452296 0.0111997 -0.001933951
v -0.0004452296 0.0111997 -0.00193395
v 0.0004452296 0.0113745 -0.0005900908
v -0.0004452296 0.0113745 -0.0005900927
v -0.0009825786 0.01259099 0.0007874219
v -0.0009825786 0.01081505 0.0009164949
v -0.0009825786 0.01124347 -0.0002699118
v -0.0009825786 0.01135882 -0.001522223
v -0.0009825786 0.01160232 -0.003780114
v -0.0009825786 0.01122699 -0.002939315
v -0.0009825786 0.01191906 -0.002906359
v -0.0009825786 0.01107904 -0.004528475
v -0.0009825786 0.01102228 -0.003455551
v -0.0009825786 0.01050061 -0.004215695
v -0.0009825786 0.01000763 -0.005427467
v -0.0009825786 0.009776945 -0.004883698
v -0.0009825786 0.00934852 -0.005559284
v -0.0009825786 0.009299088 -0.005130861
v -0.0009825786 0.009216699 -0.005378033
v -0.0009825786 0.01201793 -0.002543849
v -0.0009825786 0.01219918 -0.002313155
v -0.0009825786 0.01254522 -0.00216486
v -0.0009825786 0.01310592 -0.001032008
v -0.0009825786 0.01295716 -0.0001509015
v -0.0009825786 0.01452255 -0.001802342
v -0.0009825786 0.01452484 -0.001066332
v -0.0009825786 0.01310592 -0.001032008
v -0.0009825786 0.01452484 -0.001066332
v 0.0009825786 0.01452484 -0.001066332
v 0.0009825786 0.01310592 -0.001032008
v -0.0005574033 0.01124347 -0.004215695
v -0.0005574033 0.01050061 -0.004215695
v -0.0005574033 0.01102228 -0.003455551
v -0.0005574033 0.01167253 -0.002242804
v -0.0005574033 0.01122699 -0.002939315
v -0.0005574033 0.01169949 -0.001256358
v -0.0005574033 0.01135882 -0.001522223
v -0.0005574033 0.01124347 -0.0002699118
v 0.0009825786 0.01452484 -0.001066332
v -0.0009825786 0.01452484 -0.001066332
v -0.0009825786 0.01452256 -0.001802342
v 0.0009825786 0.01452255 -0.001802342
v 0 0.01081505 0.0009164949
v 0.0009825786 0.01259099 0.0007874219
v 0.0009825786 0.01081505 0.0009164949
v -0.0009825786 0.01259099 0.0007874219
v -0.0009825786 0.01081505 0.0009164949
v 0.0009825786 0.00934852 -0.005559284
v 0.0009825786 0.009216699 -0.005378033
v 0.0009825786 0.009299088 -0.005130861
v 0.0009825786 0.009776945 -0.004883698
v 0.0009825786 0.01000763 -0.005427467
v 0.0009825786 0.01050061 -0.004215695
v 0.0009825786 0.01107904 -0.004528475
v 0.0009825786 0.01102228 -0.003455551
v 0.0009825786 0.01122699 -0.002939315
v 0.0009825786 0.01160232 -0.003780114
v 0.0009825786 0.01135882 -0.001522223
v 0.0009825786 0.01259099 0.0007874219
v 0.0009825786 0.01124347 -0.0002699118
v 0.0009825786 0.01081505 0.0009164949
v 0.0009825786 0.01191906 -0.002906359
v 0.0009825786 0.01201793 -0.002543849
v 0.0009825786 0.01219918 -0.002313155
v 0.0009825786 0.01254522 -0.00216486
v 0.0009825786 0.01310592 -0.001032008
v 0.0009825786 0.01295716 -0.0001509015
v 0.0009825786 0.01452255 -0.001802342
v 0.0009825786 0.01452484 -0.001066332
v -0.0009825786 0.01259099 0.0007874219
v 0.0009825786 0.01295716 -0.0001509015
v 0.0009825786 0.01259099 0.0007874219
v 0 0.01295716 -0.0001509015
v -0.0009825786 0.01295716 -0.0001509015
v 0.0009825786 0.01310592 -0.001032008
v -0.0009825786 0.01310592 -0.001032008
v -0.0004452296 0.009159044 -0.004883186
v 0.0004452296 0.009159043 -0.004883186
v 0.0004452296 0.009635832 -0.004723676
v -0.0004452296 0.009635833 -0.004723676
v 0.0004452296 0.01015076 -0.004394187
v -0.0004452296 0.01015077 -0.004394186
v 0.0004452296 0.01059895 -0.004060432
v -0.0004452296 0.01059895 -0.004060433
v -0.0004452296 0.0114216 -0.003298443
v 0.0004452296 0.01142159 -0.003298449
v 0.00044523 0.01164144 -0.003065764
v 0 0.01164144 -0.003065764
v -0.00044523 0.01164144 -0.003065764
v 0.00044523 0.01164144 -0.003065764
v 0.0004452296 0.0113745 -0.0005900908
v 0.00044523 0.01159435 -0.0003574057
v 0.0004452296 0.01142159 -0.003298449
v 0.0004452296 0.0111997 -0.001933951
v 0.0004452296 0.01061802 -0.003221282
v 0.0004452296 0.01059895 -0.004060433
v 0.0004452296 0.01015076 -0.004394187
v 0.0004452296 0.01014123 -0.003798287
v 0.0004452296 0.009635832 -0.004189674
v 0.0004452296 0.009635832 -0.004723676
v 0.0004452296 0.009159043 -0.004883186
v 0.0004452296 0.009082757 -0.004435006
v 0.0004452296 0.009025543 -0.004787829
v 0.0004452296 0.008968329 -0.004616185
v 0.00044523 0.01159435 -0.0003574057
v 0.0004452296 0.0113745 -0.0005900908
v -0.0004452296 0.0113745 -0.0005900927
v 0 0.01159435 -0.0003574057
v -0.00044523 0.01159435 -0.0003574057
v -0.0009825786 0.01452255 -0.001802342
v -0.0009825786 0.01254522 -0.00216486
v 0 0.01452256 -0.001802342
v 0.0009825786 0.01452255 -0.001802342
v 0.0009825786 0.01254522 -0.00216486
v -0.0009825786 0.01219918 -0.002313156
v 0.0009825786 0.01219918 -0.002313155
v -0.0009825786 0.01201793 -0.002543849
v 0.0009825786 0.01201793 -0.002543849
v 0 0.01191906 -0.002906359
v -0.0009825786 0.01191906 -0.002906359
v 0.0009825786 0.01191906 -0.002906359
v -0.0009825786 0.01160233 -0.003780113
v 0.0009825786 0.01160232 -0.003780114
v 0.0009825786 0.01107904 -0.004528475
v -0.0009825786 0.01107904 -0.004528474
v -0.0009825786 0.01000763 -0.005427467
v 0.0009825786 0.01000763 -0.005427467
v -0.0009825786 0.009348521 -0.005559284
v 0.0009825786 0.00934852 -0.005559284
v -0.0009825786 0.0092167 -0.005378033
v 0.0009825786 0.009216699 -0.005378033
v -0.0009825786 0.009299088 -0.005130861
v 0.0009825786 0.009299088 -0.005130861
v -0.0009825786 0.009776946 -0.004883698
v 0.0009825786 0.009776945 -0.004883698
v 0.0005574033 0.01050061 -0.004215695
v 0.0009825786 0.01050061 -0.004215695
v 0.0009825786 0.01102228 -0.003455551
v 0.0005574033 0.01102228 -0.003455551
v 0.0005574033 0.01122699 -0.002939315
v 0.0009825786 0.01122699 -0.002939315
v 0.0005574033 0.01135882 -0.001522223
v 0.0009825786 0.01135882 -0.001522223
v -0.0005574033 0.01050061 -0.004215695
v -0.0009825786 0.01050061 -0.004215695
v 0.0005574033 0.01124347 -0.0002699118
v 0.0009825786 0.01124347 -0.0002699118
v 0.0009825786 0.01081505 0.0009164949
v -0.0009825786 0.01102228 -0.003455551
v -0.0005574033 0.01102228 -0.003455551
v -0.0005574033 0.01122699 -0.002939315
v -0.0009825786 0.01122699 -0.002939315
v -0.0005574033 0.01135882 -0.001522223
v -0.0009825786 0.01135882 -0.001522223
v -0.0005574033 0.01124347 -0.0002699116
v -0.0009825786 0.01081505 0.0009164949
v -0.0009825786 0.01124347 -0.0002699118
v -0.00044523 0.01164144 -0.003065764
v -0.00044523 0.01159435 -0.0003574057
v -0.0004452296 0.0113745 -0.0005900908
v -0.0004452296 0.01142159 -0.003298449
v -0.0004452296 0.0111997 -0.001933951
v -0.0004452296 0.01061802 -0.003221282
v -0.0004452296 0.01059895 -0.004060433
v -0.0004452296 0.01015076 -0.004394187
v -0.0004452296 0.01014123 -0.003798287
v -0.0004452296 0.009635832 -0.004723676
v -0.0004452296 0.009635832 -0.004189674
v -0.0004452296 0.009159043 -0.004883186
v -0.0004452296 0.009082757 -0.004435006
v -0.0004452296 0.009025543 -0.004787829
v -0.0004452296 0.008968329 -0.004616185
vt 0.9977066 0.7759829
vt 0.9916648 0.7759829
vt 0.9916648 0.7850498
vt 0.9977066 0.7850498
vt 0.3195632 0.120837
vt 0.3195634 0.1299122
vt 0.3274292 0.1289124
vt 0.3274292 0.1218366
vt 0.3336741 0.1217433
vt 0.3336741 0.1290056
vt 0.3460897 0.12818
vt 0.3460897 0.1225685
vt 0.3605263 0.9876037
vt 0.3677334 0.9824871
vt 0.3578926 0.9852762
vt 0.346366 0.9863349
vt 0.3525991 0.9888587
vt 0.3419333 0.9854677
vt 0.3361856 0.9883694
vt 0.3350782 0.98243
vt 0.5330316 0.9527506
vt 0.5330315 0.9455083
vt 0.5316972 0.9527506
vt 0.5316972 0.9455083
vt 0.5302257 0.9455083
vt 0.5302257 0.9527506
vt 0.528483 0.9455083
vt 0.5284829 0.9527506
vt 0.523562 0.9527506
vt 0.523562 0.9455083
vt 0.5183631 0.9527506
vt 0.5183631 0.9455083
vt 0.5122755 0.9455083
vt 0.5122755 0.9527506
vt 0.5007861 0.9527506
vt 0.5007861 0.9455083
vt 0.4897644 0.9527506
vt 0.4897644 0.9455083
vt 0.6812091 0.340019
vt 0.6955163 0.337776
vt 0.6899407 0.3291643
vt 0.6867241 0.3194549
vt 0.6806432 0.3020146
vt 0.6851628 0.3079856
vt 0.6797405 0.3095192
vt 0.6834128 0.2951234
vt 0.6858354 0.3035193
vt 0.6885706 0.2965378
vt 0.690248 0.2860312
vt 0.6930755 0.2899149
vt 0.6952274 0.2837748
vt 0.6964068 0.2870782
vt 0.6966051 0.2849684
vt 0.6796238 0.3125731
vt 0.6786119 0.314734
vt 0.6761431 0.3165451
vt 0.673784 0.3265512
vt 0.6765826 0.3332584
vt 0.6611443 0.3230531
vt 0.6624795 0.3288884
vt 0.1000422 0.9798659
vt 0.1000422 0.9914095
vt 0.116025 0.9914095
vt 0.116025 0.9798659
vt 0.4648382 0.9826455
vt 0.4637308 0.9885848
vt 0.470586 0.9855472
vt 0.4812517 0.9821561
vt 0.4750188 0.9846801
vt 0.4891789 0.9834111
vt 0.4865453 0.9857386
vt 0.496386 0.9885275
vt 0.8520926 0.01770546
vt 0.8520926 0.001722598
vt 0.8461064 0.001722599
vt 0.8461064 0.01770546
vt 0.04441502 0.3270031
vt 0.05240645 0.341485
vt 0.05240645 0.3270031
vt 0.03642359 0.341485
vt 0.03642359 0.3270031
vt 0.7332144 0.7327672
vt 0.7318368 0.7339609
vt 0.732035 0.7360706
vt 0.7353665 0.7389073
vt 0.738194 0.7350234
vt 0.7398715 0.7455302
vt 0.7450293 0.7441158
vt 0.7426068 0.7525117
vt 0.7432796 0.7569779
vt 0.747799 0.7510068
vt 0.7417184 0.7684474
vt 0.7472337 0.7890111
vt 0.738502 0.7781568
vt 0.7329263 0.7867684
vt 0.7487019 0.7585115
vt 0.7488186 0.7615653
vt 0.7498305 0.7637262
vt 0.7522994 0.7655373
vt 0.7546586 0.7755433
vt 0.75186 0.7822505
vt 0.7672983 0.7720451
vt 0.7659633 0.7778803
vt 0.3979314 0.9707056
vt 0.4139141 0.9788976
vt 0.4139141 0.9707056
vt 0.4059227 0.9788976
vt 0.3979312 0.9788976
vt 0.4139141 0.9861652
vt 0.3979312 0.9861652
vt 0.02616515 0.1759489
vt 0.03340729 0.175949
vt 0.03340729 0.1718599
vt 0.02616515 0.1718599
vt 0.03340736 0.1668881
vt 0.02616508 0.1668881
vt 0.03340736 0.1623431
vt 0.02616515 0.1623431
vt 0.02616508 0.1532234
vt 0.03340736 0.1532234
vt 0.03340729 0.1506197
vt 0.02978618 0.1506197
vt 0.02616508 0.1506197
vt 0.2319952 0.9479007
vt 0.2481834 0.9600692
vt 0.2507242 0.9595014
vt 0.2294542 0.9484685
vt 0.2380654 0.9556978
vt 0.2266491 0.9544048
vt 0.2207061 0.9510457
vt 0.2165087 0.9527884
vt 0.220633 0.9553351
vt 0.2157947 0.9572377
vt 0.2120633 0.9550152
vt 0.2089645 0.957683
vt 0.2117787 0.9600813
vt 0.2090752 0.9590127
vt 0.2100365 0.9601269
vt 0.5314324 0.4785014
vt 0.5314324 0.4758978
vt 0.5241902 0.4758976
vt 0.5278115 0.4785014
vt 0.5241902 0.4785014
vt 0.4309284 0.1165928
vt 0.4129635 0.1165928
vt 0.4309284 0.1253735
vt 0.4309284 0.1341543
vt 0.4129635 0.1341543
vt 0.409599 0.1165928
vt 0.4095991 0.1341543
vt 0.4069772 0.1165929
vt 0.4069774 0.1341544
vt 0.4036195 0.1253735
vt 0.4036194 0.1165929
vt 0.4036195 0.1341543
vt 0.3953137 0.1165931
vt 0.3953139 0.1341541
vt 0.3871534 0.1341538
vt 0.3871533 0.1165937
vt 0.3746548 0.1166005
vt 0.3746549 0.1341473
vt 0.3686497 0.1166148
vt 0.3686501 0.1341332
vt 0.3666503 0.1166223
vt 0.3666505 0.1341257
vt 0.3643258 0.1166337
vt 0.364326 0.1341144
vt 0.3595193 0.1166836
vt 0.3595196 0.1340644
vt 0.3506134 0.130423
vt 0.3506582 0.1340452
vt 0.3431731 0.1340581
vt 0.3431053 0.1309756
vt 0.3390864 0.1309661
vt 0.3391801 0.1340638
vt 0.3289428 0.1314443
vt 0.3287803 0.1344842
vt 0.3506134 0.1203254
vt 0.3506579 0.1167032
vt 0.3195634 0.1299122
vt 0.3192706 0.1332524
vt 0.3094258 0.1328354
vt 0.3431729 0.1166906
vt 0.3431052 0.119773
vt 0.3390863 0.1197826
vt 0.3391798 0.1166849
vt 0.3289427 0.1193045
vt 0.3287799 0.1162648
vt 0.3195632 0.120837
vt 0.3094255 0.1179141
vt 0.3192703 0.1174968
vt 0.3246224 0.1026279
vt 0.3058934 0.1142286
vt 0.3084342 0.1147964
vt 0.3271632 0.1031957
vt 0.318552 0.110425
vt 0.3299683 0.1091319
vt 0.3359114 0.1057728
vt 0.3401088 0.1075156
vt 0.3359846 0.1100623
vt 0.3445543 0.1097426
vt 0.3408228 0.111965
vt 0.3476532 0.1124103
vt 0.3448389 0.1148086
vt 0.3475425 0.11374
vt 0.3465812 0.1148543
vn 0 0 1
vn 0 -0.5835165 0.8121012
vn 0 -0.583531 0.8120909
vn 0 0 1
vn 0 -0.9077047 -0.4196097
vn 0 -0.9077047 -0.4196097
vn 0 -0.979498 -0.201454
vn 0 -0.979498 -0.201454
vn 0 -0.9927221 0.120428
vn 0 -0.9927221 0.120428
vn 0 -0.9771602 0.2125044
vn 0 -0.9771602 0.2125044
vn -1 0 0
vn -1 0 0
vn -1 0 0
vn -1 0 0
vn -1 0 0
vn -1 0 0
vn -1 0 0
vn -1 0 0
vn 0 -0.148139 -0.9889665
vn 0 -0.148139 -0.9889665
vn 0 -0.8043988 -0.5940898
vn 0 -0.8043988 -0.5940898
vn 0 -0.9927147 0.1204881
vn 0 -0.9927147 0.1204881
vn 0 -0.6537272 0.7567304
vn 0 -0.6537272 0.7567304
vn 0 -0.5126005 0.8586273
vn 0 -0.5126005 0.8586273
vn 0 -0.6958331 0.7182035
vn 0 -0.6958331 0.7182035
vn 0 -0.8485893 0.5290522
vn 0 -0.8485893 0.5290522
vn 0 -0.9619215 0.2733262
vn 0 -0.9619215 0.2733262
vn 0 -0.9033896 0.4288208
vn 0 -0.9033896 0.4288208
vn -1 0 0
vn -1 0 0
vn -1 0 0
vn -1 0 0
vn -1 0 0
vn -1 0 0
vn -1 0 0
vn -1 0 0
vn -1 0 0
vn -1 0 0
vn -1 0 0
vn -1 0 0
vn -1 0 0
vn -1 0 0
vn -1 0 0
vn -1 0 0
vn -1 0 0
vn -1 0 0
vn -1 0 0
vn -1 0 0
vn -1 0 0
vn -1 0 0
vn 0 0.02417097 0.9997078
vn 0 0.02417097 0.9997078
vn 0 0.02417097 0.9997078
vn 0 0.02417097 0.9997078
vn 1 0 0
vn 1 0 0
vn 1 0 0
vn 1 0 0
vn 1 0 0
vn 1 0 0
vn 1 0 0
vn 1 0 0
vn 0 0.9999952 -0.003082449
vn 0 0.9999952 -0.003082449
vn 0 0.9999952 -0.003082449
vn 0 0.9999952 -0.003082449
vn 0 0.07248326 0.9973696
vn 0 0.5936872 0.8046959
vn 0 0.07248326 0.9973696
vn 0 0.5936872 0.8046959
vn 0 0.07248326 0.9973696
vn 1 0 0
vn 1 0 0
vn 1 0 0
vn 1 0 0
vn 1 0 0
vn 1 0 0
vn 1 0 0
vn 1 0 0
vn 1 0 0
vn 1 0 0
vn 1 0 0
vn 1 0 0
vn 1 0 0
vn 1 0 0
vn 1 0 0
vn 1 0 0
vn 1 0 0
vn 1 0 0
vn 1 0 0
vn 1 0 0
vn 1 0 0
vn 1 0 0
vn 0 0.5936872 0.8046959
vn 0 0.9638617 0.2664033
vn 0 0.5936872 0.8046959
vn 0 0.9638617 0.2664033
vn 0 0.9638617 0.2664033
vn 0 0.9860495 0.1664525
vn 0 0.9860495 0.1664525
vn 0 -0.148139 -0.9889665
vn 0 -0.148139 -0.9889665
vn 0 0.4313842 -0.9021683
vn 0 0.4313842 -0.9021683
vn 0 0.5684766 -0.8226994
vn 0 0.5684766 -0.8226994
vn 0 0.6393225 -0.7689388
vn 0 0.6393225 -0.7689388
vn 0 0.7035884 -0.7106078
vn 0 0.7035884 -0.7106078
vn 0 0.7268735 -0.6867714
vn 0 0.7268735 -0.6867714
vn 0 0.7268735 -0.6867714
vn 1 0 0
vn 1 0 0
vn 1 0 0
vn 1 0 0
vn 1 0 0
vn 1 0 0
vn 1 0 0
vn 1 0 0
vn 1 0 0
vn 1 0 0
vn 1 0 0
vn 1 0 0
vn 1 0 0
vn 1 0 0
vn 1 0 0
vn 0 -0.7268735 0.6867714
vn 0 -0.9033896 0.4288208
vn 0 -0.9033896 0.4288208
vn 0 -0.7268735 0.6867714
vn 0 -0.7268735 0.6867714
vn 0 0.1803087 -0.9836102
vn 0 0.2889239 -0.9573521
vn 0 0.1803087 -0.9836102
vn 0 0.1803087 -0.9836102
vn 0 0.2889239 -0.9573521
vn 0 0.6090439 -0.7931365
vn 0 0.6090439 -0.7931365
vn 0 0.8933319 -0.4493974
vn 0 0.8933319 -0.4493974
vn 0 0.9532436 -0.3022033
vn 0 0.9532436 -0.3022033
vn 0 0.9532436 -0.3022033
vn 0 0.8874675 -0.4608703
vn 0 0.8874675 -0.4608703
vn 0 0.7374923 -0.6753556
vn 0 0.7374923 -0.6753556
vn 0 0.4329473 -0.9014192
vn 0 0.4329473 -0.9014192
vn 0 -0.3637537 -0.9314952
vn 0 -0.3637537 -0.9314952
vn 0 -0.9882415 -0.1529011
vn 0 -0.9882415 -0.1529011
vn 0 -0.7599327 0.6500019
vn 0 -0.7599327 0.6500019
vn 0 -0.5740009 0.8188546
vn 0 -0.5740009 0.8188546
vn 0 -0.5835165 0.8121012
vn 0 -0.7561349 0.6544157
vn 0 -0.8825741 0.4701731
vn 0 -0.8825741 0.4701731
vn 0 -0.9724814 0.2329805
vn 0 -0.9724814 0.2329805
vn 0 -0.9999999 0.0004272721
vn 0 -0.9999999 0.0004272721
vn 0 -0.583531 0.8120909
vn 0 -0.7561349 0.6544157
vn 0 -0.965915 -0.2588591
vn 0 -0.9760793 -0.2174152
vn 0 -0.9405547 -0.3396422
vn 0 -0.8825741 0.4701731
vn 0 -0.8825741 0.4701731
vn 0 -0.9724814 0.2329805
vn 0 -0.9724814 0.2329805
vn 0 -0.9999999 0.0004272721
vn 0 -0.9999999 0.0004272721
vn 0 -0.965915 -0.2588591
vn 0 -0.9405547 -0.3396422
vn 0 -0.9760778 -0.2174216
vn -1 0 0
vn -1 0 0
vn -1 0 0
vn -1 0 0
vn -1 0 0
vn -1 0 0
vn -1 0 0
vn -1 0 0
vn -1 0 0
vn -1 0 0
vn -1 0 0
vn -1 0 0
vn -1 0 0
vn -1 0 0
vn -1 0 0
g mp7trigger_LOD1_0
f 3/3/3 2/2/2 1/1/1
f 1/1/1 4/4/4 3/3/3
f 7/7/7 6/6/6 5/5/5
f 8/8/8 7/7/7 5/5/5
f 9/9/9 7/7/7 8/8/8
f 10/10/10 7/7/7 9/9/9
f 10/10/10 9/9/9 11/11/11
f 12/12/12 11/11/11 9/9/9
f 15/15/15 14/14/14 13/13/13
f 16/16/16 15/15/15 13/13/13
f 16/16/16 13/13/13 17/17/17
f 18/18/18 16/16/16 17/17/17
f 18/18/18 17/17/17 19/19/19
f 20/20/20 18/18/18 19/19/19
f 23/23/23 22/22/22 21/21/21
f 24/24/24 22/22/22 23/23/23
f 24/24/24 23/23/23 25/25/25
f 23/23/23 26/26/26 25/25/25
f 27/27/27 25/25/25 26/26/26
f 28/28/28 27/27/27 26/26/26
f 27/27/27 28/28/28 29/29/29
f 30/30/30 27/27/27 29/29/29
f 29/29/29 31/31/31 30/30/30
f 31/31/31 32/32/32 30/30/30
f 33/33/33 32/32/32 31/31/31
f 34/34/34 33/33/33 31/31/31
f 33/33/33 34/34/34 35/35/35
f 36/36/36 33/33/33 35/35/35
f 36/36/36 35/35/35 37/37/37
f 38/38/38 36/36/36 37/37/37
f 41/41/41 40/40/40 39/39/39
f 39/39/39 42/42/42 41/41/41
f 39/39/39 43/43/43 42/42/42
f 44/44/44 42/42/42 43/43/43
f 39/39/39 45/45/45 43/43/43
f 44/44/44 43/43/43 46/46/46
f 47/47/47 44/44/44 46/46/46
f 48/48/48 47/47/47 46/46/46
f 48/48/48 46/46/46 49/49/49
f 50/50/50 48/48/48 49/49/49
f 50/50/50 49/49/49 51/51/51
f 52/52/52 50/50/50 51/51/51
f 51/51/51 53/53/53 52/52/52
f 39/39/39 54/54/54 45/45/45
f 39/39/39 55/55/55 54/54/54
f 39/39/39 56/56/56 55/55/55
f 39/39/39 57/57/57 56/56/56
f 39/39/39 58/58/58 57/57/57
f 57/57/57 59/59/59 56/56/56
f 57/57/57 60/60/60 59/59/59
f 63/63/63 62/62/62 61/61/61
f 61/61/61 64/64/64 63/63/63
f 67/67/67 66/66/66 65/65/65
f 68/68/68 67/67/67 65/65/65
f 67/67/67 68/68/68 69/69/69
f 68/68/68 70/70/70 69/69/69
f 69/69/69 70/70/70 71/71/71
f 70/70/70 72/72/72 71/71/71
f 75/75/75 74/74/74 73/73/73
f 76/76/76 75/75/75 73/73/73
f 79/79/79 78/78/78 77/77/77
f 78/78/78 80/80/80 77/77/77
f 81/81/81 77/77/77 80/80/80
f 84/84/84 83/83/83 82/82/82
f 82/82/82 85/85/85 84/84/84
f 82/82/82 86/86/86 85/85/85
f 86/86/86 87/87/87 85/85/85
f 86/86/86 88/88/88 87/87/87
f 88/88/88 89/89/89 87/87/87
f 88/88/88 90/90/90 89/89/89
f 88/88/88 91/91/91 90/90/90
f 91/91/91 92/92/92 90/90/90
f 92/92/92 91/91/91 93/93/93
f 94/94/94 92/92/92 93/93/93
f 93/93/93 95/95/95 94/94/94
f 91/91/91 96/96/96 93/93/93
f 96/96/96 97/97/97 93/93/93
f 97/97/97 98/98/98 93/93/93
f 98/98/98 99/99/99 93/93/93
f 99/99/99 100/100/100 93/93/93
f 100/100/100 101/101/101 93/93/93
f 99/99/99 102/102/102 100/100/100
f 102/102/102 103/103/103 100/100/100
f 106/106/106 105/105/105 104/104/104
f 105/105/105 107/107/107 104/104/104
f 104/104/104 107/107/107 108/108/108
f 107/107/107 105/105/105 109/109/109
f 108/108/108 107/107/107 109/109/109
f 110/110/110 108/108/108 109/109/109
f 113/113/113 112/112/112 111/111/111
f 114/114/114 113/113/113 111/111/111
f 115/115/115 113/113/113 114/114/114
f 116/116/116 115/115/115 114/114/114
f 115/115/115 116/116/116 117/117/117
f 118/118/118 117/117/117 116/116/116
f 119/119/119 117/117/117 118/118/118
f 119/119/119 120/120/120 117/117/117
f 120/120/120 119/119/119 121/121/121
f 119/119/119 122/122/122 121/121/121
f 122/122/122 119/119/119 123/123/123
f 126/126/126 125/125/125 124/124/124
f 125/125/125 127/127/127 124/124/124
f 127/127/127 125/125/125 128/128/128
f 127/127/127 128/128/128 129/129/129
f 130/130/130 127/127/127 129/129/129
f 131/131/131 130/130/130 129/129/129
f 131/131/131 129/129/129 132/132/132
f 131/131/131 132/132/132 133/133/133
f 134/134/134 131/131/131 133/133/133
f 135/135/135 134/134/134 133/133/133
f 135/135/135 133/133/133 136/136/136
f 137/137/137 135/135/135 136/136/136
f 136/136/136 138/138/138 137/137/137
f 141/141/141 140/140/140 139/139/139
f 142/142/142 141/141/141 139/139/139
f 142/142/142 143/143/143 141/141/141
f 146/146/146 145/145/145 144/144/144
f 145/145/145 146/146/146 147/147/147
f 148/148/148 145/145/145 147/147/147
f 149/149/149 145/145/145 148/148/148
f 150/150/150 149/149/149 148/148/148
f 151/151/151 149/149/149 150/150/150
f 152/152/152 151/151/151 150/150/150
f 153/153/153 151/151/151 152/152/152
f 153/153/153 154/154/154 151/151/151
f 155/155/155 153/153/153 152/152/152
f 153/153/153 156/156/156 154/154/154
f 156/156/156 153/153/153 155/155/155
f 157/157/157 156/156/156 155/155/155
f 157/157/157 158/158/158 156/156/156
f 158/158/158 159/159/159 156/156/156
f 160/160/160 159/159/159 158/158/158
f 161/161/161 160/160/160 158/158/158
f 162/162/162 160/160/160 161/161/161
f 163/163/163 162/162/162 161/161/161
f 164/164/164 162/162/162 163/163/163
f 165/165/165 164/164/164 163/163/163
f 166/166/166 164/164/164 165/165/165
f 167/167/167 166/166/166 165/165/165
f 168/168/168 166/166/166 167/167/167
f 169/169/169 168/168/168 167/167/167
f 170/170/170 168/168/168 169/169/169
f 169/169/169 171/171/171 170/170/170
f 170/170/170 171/171/171 172/172/172
f 173/173/173 170/170/170 172/172/172
f 174/174/174 173/173/173 172/172/172
f 175/175/175 174/174/174 172/172/172
f 176/176/176 174/174/174 175/175/175
f 177/177/177 176/176/176 175/175/175
f 170/170/170 178/178/178 168/168/168
f 179/179/179 168/168/168 178/178/178
f 180/180/180 176/176/176 177/177/177
f 181/181/181 180/180/180 177/177/177
f 180/180/180 181/181/181 182/182/182
f 183/183/183 179/179/179 178/178/178
f 184/184/184 183/183/183 178/178/178
f 183/183/183 184/184/184 185/185/185
f 186/186/186 183/183/183 185/185/185
f 186/186/186 185/185/185 187/187/187
f 188/188/188 186/186/186 187/187/187
f 189/189/189 180/180/180 182/182/182
f 188/188/188 187/187/187 189/189/189
f 189/189/189 182/182/182 190/190/190
f 191/191/191 188/188/188 189/189/189
f 191/191/191 189/189/189 190/190/190
f 194/194/194 193/193/193 192/192/192
f 195/195/195 194/194/194 192/192/192
f 196/196/196 194/194/194 195/195/195
f 197/197/197 196/196/196 195/195/195
f 197/197/197 195/195/195 198/198/198
f 197/197/197 198/198/198 199/199/199
f 200/200/200 197/197/197 199/199/199
f 200/200/200 199/199/199 201/201/201
f 202/202/202 200/200/200 201/201/201
f 202/202/202 201/201/201 203/203/203
f 204/204/204 202/202/202 203/203/203
f 204/204/204 203/203/203 205/205/205
f 205/205/205 206/206/206 204/204/204
