g mp7trigger_LOD3
v -0.0009825786 0.01452256 -0.001802342
v 0.0009825786 0.01452369 -0.001434337
v -0.0009825786 0.01452484 -0.001066332
v 0.0009825786 0.01325391 -0.0009955955
v 0.0009825786 0.01081505 0.000916495
v -0.0009825781 0.01091498 0.001474791
v 0.0009825786 0.01325391 -0.0009955955
v -0.0009825781 0.01091498 0.001474791
v -0.0009825786 0.01317706 -0.001019083
v 0.0005574033 0.01124347 -0.004215695
v -0.0005574032 0.01158568 -0.0001181184
v 0.0005574033 0.01155409 -0.0001381017
v -0.0005574033 0.01124347 -0.004215695
v 0.0005574033 0.01124347 -0.004215695
v 0.0005574034 0.0117533 -0.001459884
v 0.0005574034 0.01081313 -0.004045115
v 0.0005574034 0.01134728 -0.0006188711
v -0.0004452296 0.00927671 -0.004780617
v -0.0004452298 0.0115827 -0.0003488325
v 0.0004452293 0.00917232 -0.004772147
v 0.0004452298 0.01154222 -0.0003102583
v -0.0009825786 0.01310592 -0.001032008
v -0.0009825786 0.01452484 -0.001066332
v 0.0009825786 0.01452484 -0.001066332
v 0.0009825786 0.01310592 -0.001032008
v -0.0004452296 0.00927671 -0.004780617
v 0.0004452297 0.01178521 -0.003211343
v -0.0004452298 0.01164696 -0.003070999
v 0.0004452293 0.00917232 -0.004772147
v 0.0009825786 0.009507271 -0.005623531
v 0.0009825786 0.00929954 -0.005301296
v 0.0009825786 0.01117483 -0.003163578
v 0.0009825786 0.01138919 -0.004188221
v 0.0009825786 0.01135305 -0.0007409093
v 0.0009825786 0.01259099 0.0007874219
v 0.0009825786 0.01081505 0.0009164949
v 0.0009825786 0.01212522 -0.00232316
v 0.0009825786 0.0131602 -0.00100795
v 0.0009825786 0.01456088 -0.001425231
v 0.0004452296 0.009930651 -0.004580494
v 0.0004452296 0.008984453 -0.004707924
v 0.0004452296 0.01102025 -0.002567504
v 0.0004452296 0.01164036 -0.003077397
v 0.0004452338 0.01150429 -0.0004361535
v -0.0009825786 0.01259099 0.0007874219
v -0.0009825786 0.01081505 0.0009164949
v -0.0009825786 0.01135305 -0.0007409093
v -0.0009825786 0.01138919 -0.004188221
v -0.0009825786 0.01117483 -0.003163578
v -0.0009825786 0.009507271 -0.005623531
v -0.0009825786 0.009299539 -0.005301296
v -0.0009825786 0.01212522 -0.00232316
v -0.0009825787 0.0131602 -0.00100795
v -0.0009825786 0.01456088 -0.001425231
v -0.0009825786 0.01452255 -0.001802342
v -0.0009825787 0.01220592 -0.002479664
v 0.0009825791 0.01431456 -0.0008609901
v -0.0009825785 0.009256257 -0.005465512
v 0.0009825785 0.009257457 -0.005448794
v 0.0005574034 0.01123527 -0.003876054
v 0.000982578 0.01146856 0.001131001
v -0.0005574034 0.01121573 -0.003913301
v 0.0005574033 0.01124347 -0.0002699118
v -0.000982578 0.01171063 0.001187835
v -0.0005574033 0.01124347 -0.0002699116
v -0.0005574033 0.01124347 -0.004215695
v -0.0005574034 0.01081313 -0.004045115
v -0.0005574034 0.0117533 -0.001459884
v -0.0005574034 0.01134728 -0.0006188711
v -0.0004452296 0.01102025 -0.002567504
v -0.0004452296 0.008984453 -0.004707924
v -0.0004452296 0.009930651 -0.004580494
v -0.0004452296 0.01164036 -0.003077397
v -0.0004452338 0.01150429 -0.0004361535
vt 0.8461064 0.001722599
vt 0.8490995 0.01770546
vt 0.8520926 0.001722598
vt 0.05240645 0.341485
vt 0.05240645 0.3270031
vt 0.03642359 0.3274845
vt 0.4139141 0.9861706
vt 0.3979314 0.9707056
vt 0.3979312 0.9861578
vt 0.3460897 0.12818
vt 0.3194793 0.1208284
vt 0.319599 0.1299082
vt 0.3460897 0.1225685
vt 0.3361856 0.9883694
vt 0.3589038 0.9878606
vt 0.3374446 0.9833168
vt 0.3649397 0.9832789
vt 0.5301601 0.9455084
vt 0.4898978 0.9455083
vt 0.5297658 0.9527506
vt 0.4897644 0.9527506
vt 0.1000422 0.9798659
vt 0.1000422 0.9914095
vt 0.116025 0.9914095
vt 0.116025 0.9798659
vt 0.02616514 0.1745741
vt 0.03340729 0.1505437
vt 0.02616508 0.1506199
vt 0.03340729 0.175949
vt 0.7342743 0.7332475
vt 0.7321731 0.7351707
vt 0.7430037 0.7551467
vt 0.7464141 0.7475612
vt 0.7397272 0.7744582
vt 0.7472337 0.7890111
vt 0.7329263 0.7867684
vt 0.749781 0.7631656
vt 0.7546126 0.7756535
vt 0.7666141 0.7750358
vt 0.214455 0.9538951
vt 0.2101315 0.9591792
vt 0.2328024 0.9551017
vt 0.2319221 0.947917
vt 0.249779 0.9597126
vt 0.6812091 0.340019
vt 0.6955163 0.337776
vt 0.6887154 0.3254657
vt 0.6820281 0.298569
vt 0.6854386 0.3061544
vt 0.6941676 0.2842551
vt 0.6962688 0.2861782
vt 0.6786616 0.3141735
vt 0.67383 0.3266614
vt 0.6618286 0.3260438
vt 0.4309284 0.1165928
vt 0.4080406 0.1165929
vt 0.4319243 0.1341543
vt 0.3670985 0.1166225
vt 0.3667067 0.134124
vt 0.3452343 0.1307045
vt 0.3088118 0.1328086
vt 0.3476931 0.1201726
vt 0.3195634 0.1299122
vt 0.3087521 0.1179434
vt 0.3195632 0.120837
vt 0.4648382 0.9826455
vt 0.4660972 0.987698
vt 0.4875564 0.9831542
vt 0.4935924 0.9877359
vt 0.323815 0.1098289
vt 0.3464862 0.1139066
vt 0.3421626 0.1086224
vt 0.3246954 0.1026442
vt 0.3068386 0.1144398
vn 0 0.9999952 -0.003082449
vn 0 0.9999952 -0.003082449
vn 0 0.9999952 -0.003082449
vn 0.06180171 0.699748 0.7117115
vn 0.2470507 0.5978657 0.7625763
vn 0.1442027 0.6587544 0.7384092
vn 0.06180171 0.699748 0.7117115
vn 0.1442027 0.6587544 0.7384092
vn -0.0369587 0.7401811 0.671391
vn -0.004516793 -0.9966242 0.08197369
vn -0.02227863 -0.9967705 0.07715122
vn -0.0268568 -0.9967535 0.07590098
vn 0 -0.9965308 0.08322481
vn -1 0 0
vn -1 0 0
vn -1 0 0
vn -1 0 0
vn -0.1640702 -0.6261892 -0.7622125
vn -0.06561558 -0.8816902 0.4672439
vn -0.06787433 -0.7219278 -0.6886315
vn -0.06033643 -0.8815467 0.4682254
vn 0 0.02417097 0.9997078
vn 0 0.02417097 0.9997078
vn 0 0.02417097 0.9997078
vn 0 0.02417097 0.9997078
vn -0.1640702 -0.6261892 -0.7622125
vn -0.1607766 0.5638473 -0.8100784
vn -0.2136029 0.5714696 -0.792336
vn -0.06787433 -0.7219278 -0.6886315
vn 1 0 0
vn 1 0 0
vn 1 0 0
vn 1 0 0
vn 1 0 0
vn 1 0 0
vn 1 0 0
vn 1 0 0
vn 1 0 0
vn 1 0 0
vn 1 0 0
vn 1 0 0
vn 1 0 0
vn 1 0 0
vn 1 0 0
vn -1 0 0
vn -1 0 0
vn -1 0 0
vn -1 0 0
vn -1 0 0
vn -1 0 0
vn -1 0 0
vn -1 0 0
vn -1 0 0
vn -1 0 0
vn 0.4396365 0.2520318 -0.8620903
vn 0.04941065 0.6134062 -0.7882205
vn 0.2308172 0.4701797 -0.8518535
vn 0.9947417 0.08957375 0.04965468
vn -0.9981749 0.05493365 0.02508637
vn -0.6703511 -0.5595364 0.4873894
vn -0.1566835 -0.9665913 0.2028584
vn 0.6437497 -0.5738903 0.5061979
vn 0.2870327 -0.9556159 0.0664097
vn -0.05710107 -0.9675442 0.2461663
vn -0.4994831 -0.8602549 0.1023626
vn 1 0 0
vn 1 0 0
vn 1 0 0
vn 1 0 0
vn -1 0 0
vn -1 0 0
vn -1 0 0
vn -1 0 0
vn -1 0 0
g mp7trigger_LOD3_0
f 3/3/3 2/2/2 1/1/1
f 6/6/6 5/5/5 4/4/4
f 9/9/9 8/8/8 7/7/7
f 12/12/12 11/11/11 10/10/10
f 13/13/13 10/10/10 11/11/11
f 16/16/16 15/15/15 14/14/14
f 16/16/16 17/17/17 15/15/15
f 20/20/20 19/19/19 18/18/18
f 20/20/20 21/21/21 19/19/19
f 24/24/24 23/23/23 22/22/22
f 22/22/22 25/25/25 24/24/24
f 28/28/28 27/27/27 26/26/26
f 29/29/29 26/26/26 27/27/27
f 32/32/32 31/31/31 30/30/30
f 30/30/30 33/33/33 32/32/32
f 33/33/33 34/34/34 32/32/32
f 34/34/34 33/33/33 35/35/35
f 35/35/35 36/36/36 34/34/34
f 33/33/33 37/37/37 35/35/35
f 37/37/37 38/38/38 35/35/35
f 37/37/37 39/39/39 38/38/38
f 42/42/42 41/41/41 40/40/40
f 40/40/40 43/43/43 42/42/42
f 43/43/43 44/44/44 42/42/42
f 47/47/47 46/46/46 45/45/45
f 45/45/45 48/48/48 47/47/47
f 49/49/49 47/47/47 48/48/48
f 49/49/49 48/48/48 50/50/50
f 50/50/50 51/51/51 49/49/49
f 45/45/45 52/52/52 48/48/48
f 45/45/45 53/53/53 52/52/52
f 53/53/53 54/54/54 52/52/52
f 57/57/57 56/56/56 55/55/55
f 58/58/58 56/56/56 57/57/57
f 59/59/59 58/58/58 57/57/57
f 59/59/59 60/60/60 58/58/58
f 59/59/59 61/61/61 60/60/60
f 60/60/60 62/62/62 58/58/58
f 60/60/60 61/61/61 63/63/63
f 58/58/58 62/62/62 64/64/64
f 65/65/65 63/63/63 61/61/61
f 64/64/64 65/65/65 61/61/61
f 62/62/62 65/65/65 64/64/64
f 68/68/68 67/67/67 66/66/66
f 67/67/67 68/68/68 69/69/69
f 72/72/72 71/71/71 70/70/70
f 70/70/70 73/73/73 72/72/72
f 70/70/70 74/74/74 73/73/73
