g mp7trigger_LOD2
v -0.0005574034 0.01091264 -0.004016844
v -0.0005574033 0.01124347 -0.004215695
v 0.0005574034 0.01123527 -0.003876054
v 0.0009825786 0.01310592 -0.001032008
v 0.0009825786 0.01265509 0.0007663695
v -0.0009825786 0.01317706 -0.001019083
v -0.0009825786 0.01259099 0.0007874219
v 0.0005574034 0.0117533 -0.001459884
v 0.0005574033 0.01124347 -0.0002699118
v 0.0005574033 0.01135882 -0.001522223
v 0.0005574034 0.01117483 -0.003163578
v 0.0005574033 0.01124347 -0.004215695
v 0.0005574033 0.01050061 -0.004215695
v 0.0004452296 0.0113745 -0.0005900908
v 0.00044523 0.01159435 -0.0003574057
v 0.0004452296 0.01164036 -0.003077397
v 0.0004452296 0.0111997 -0.001933951
v 0.0004452296 0.01061802 -0.003221282
v 0.0004452296 0.009930651 -0.004580494
v 0.0004452297 0.009894241 -0.004035757
v 0.0004452296 0.009097792 -0.004871407
v 0.0004452296 0.008980191 -0.004536146
v -0.0009825786 0.01259099 0.0007874219
v -0.0009825786 0.01081505 0.0009164949
v -0.0009825786 0.01135305 -0.0007409093
v -0.0009825786 0.01138919 -0.004188221
v -0.0009825786 0.01117483 -0.003163578
v -0.0009825786 0.01012995 -0.004638437
v -0.0009825786 0.01000763 -0.005427467
v -0.0009825786 0.00934852 -0.005559284
v -0.0009825786 0.009208908 -0.005260244
v -0.0009825786 0.01212522 -0.00232316
v -0.0009825786 0.01310592 -0.001032008
v -0.0009825786 0.01295716 -0.0001509015
v -0.0009825786 0.01452255 -0.001802342
v -0.0009825786 0.01452484 -0.001066332
v -0.0009825786 0.01310592 -0.001032008
v -0.0009825786 0.01452484 -0.001066332
v 0.0009825786 0.01452484 -0.001066332
v 0.0009825786 0.01310592 -0.001032008
v -0.0005574033 0.01124347 -0.0002699116
v 0.0005574033 0.01155409 -0.0001381017
v -0.0005574034 0.01175146 -0.001520821
v 0.0005574033 0.01124347 -0.004215695
v -0.0005574033 0.01124347 -0.004215695
v -0.0005574033 0.01124347 -0.004215695
v -0.0005574033 0.01050061 -0.004215695
v -0.0005574034 0.01117483 -0.003163578
v -0.0005574034 0.0117533 -0.001459884
v -0.0005574033 0.01135882 -0.001522223
v -0.0005574033 0.01124347 -0.0002699118
v -0.0004452296 0.009353694 -0.004918514
v 0.0004452297 0.01178521 -0.003211343
v -0.0004452298 0.01164696 -0.003070999
v 0.0004452296 0.008955523 -0.004698938
v 0.0009825786 0.01452484 -0.001066332
v -0.0009825786 0.01452484 -0.001066332
v -0.0009825786 0.01452256 -0.001802342
v 0.0009825786 0.01452255 -0.001802342
v 0.0009825786 0.00934852 -0.005559284
v 0.0009825786 0.009208908 -0.005260244
v 0.0009825786 0.01012995 -0.004638437
v 0.0009825786 0.01000763 -0.005427467
v 0.0009825786 0.01138919 -0.004188221
v 0.0009825786 0.01117483 -0.003163578
v 0.0009825786 0.01135305 -0.0007409093
v 0.0009825786 0.01259099 0.0007874219
v 0.0009825786 0.01081505 0.0009164949
v 0.0009825786 0.01212522 -0.00232316
v 0.0009825786 0.01310592 -0.001032008
v 0.0009825786 0.01295716 -0.0001509015
v 0.0009825786 0.01452255 -0.001802342
v 0.0009825786 0.01452484 -0.001066332
v 0.0009825786 0.01265509 0.0007663695
v 0.0009825786 0.01081505 0.000916495
v -0.0009825786 0.01259099 0.0007874219
v -0.0009825786 0.01081505 0.0009164949
v -0.0004452298 0.0115827 -0.0003488325
v 0.0004452298 0.01154222 -0.0003102583
v 0.0004452295 0.01052655 -0.003513421
v -0.0004452296 0.01026142 -0.003780029
v -0.0004452297 0.008950456 -0.004553838
v 0.0004452296 0.008955523 -0.004698938
v -0.0004452296 0.009353694 -0.004918514
v -0.0009825786 0.01452255 -0.001802342
v -0.0009825786 0.01212705 -0.002319489
v 0.0009825786 0.01452255 -0.001802343
v 0.0009825786 0.01211877 -0.002336284
v -0.0009825786 0.01140401 -0.004166364
v 0.0009825786 0.01133856 -0.004254354
v -0.0009825786 0.00952562 -0.005623301
v 0.0009825785 0.009257457 -0.005448794
v -0.0009825785 0.009241604 -0.005281334
v 0.0005574034 0.01123527 -0.003876054
v 0.0009825785 0.01148211 -0.002391684
v -0.0005574034 0.01091264 -0.004016844
v 0.0005574033 0.01124347 -0.0002699118
v -0.0009825785 0.01148211 -0.002391685
v 0.0009825786 0.01081505 0.0009164949
v -0.0005574033 0.01124347 -0.0002699116
v -0.0009825786 0.01081505 0.0009164949
v -0.0004452296 0.0113745 -0.0005900908
v -0.0004452296 0.01164036 -0.003077397
v -0.00044523 0.01159435 -0.0003574057
v -0.0004452296 0.0111997 -0.001933951
v -0.0004452296 0.01061802 -0.003221282
v -0.0004452296 0.009930651 -0.004580494
v -0.0004452297 0.009894241 -0.004035757
v -0.0004452296 0.009097792 -0.004871407
v -0.0004452296 0.008980191 -0.004536146
vt 0.9916648 0.7850498
vt 0.9977066 0.7850498
vt 0.9940388 0.7759829
vt 0.4139141 0.9861652
vt 0.4139141 0.9710547
vt 0.3979312 0.9861578
vt 0.3979314 0.9707056
vt 0.3589038 0.9878606
vt 0.3677334 0.9824871
vt 0.3578926 0.9852762
vt 0.3445486 0.9859794
vt 0.3361856 0.9883694
vt 0.3350782 0.98243
vt 0.2481834 0.9600692
vt 0.2507242 0.9595014
vt 0.2319221 0.947917
vt 0.2380654 0.9556978
vt 0.2266491 0.9544048
vt 0.214455 0.9538951
vt 0.2180544 0.9563491
vt 0.2090028 0.9581425
vt 0.2106382 0.9601111
vt 0.6812091 0.340019
vt 0.6955163 0.337776
vt 0.6887154 0.3254657
vt 0.6820281 0.298569
vt 0.6854386 0.3061544
vt 0.6911281 0.2927779
vt 0.690248 0.2860312
vt 0.6952274 0.2837748
vt 0.6965219 0.2858533
vt 0.6786616 0.3141735
vt 0.673784 0.3265512
vt 0.6765826 0.3332584
vt 0.6611443 0.3230531
vt 0.6624795 0.3288884
vt 0.1000422 0.9798659
vt 0.1000422 0.9914095
vt 0.116025 0.9914095
vt 0.116025 0.9798659
vt 0.3195632 0.120837
vt 0.319599 0.1299082
vt 0.3290932 0.1218117
vt 0.3460897 0.12818
vt 0.3460897 0.1225685
vt 0.4648382 0.9826455
vt 0.4637308 0.9885848
vt 0.4732013 0.9850357
vt 0.4875564 0.9831542
vt 0.4865453 0.9857386
vt 0.496386 0.9885275
vt 0.02616514 0.1745741
vt 0.03340729 0.1505437
vt 0.02616508 0.1506199
vt 0.03340729 0.175949
vt 0.8520926 0.01770546
vt 0.8520926 0.001722598
vt 0.8461064 0.001722599
vt 0.8461064 0.01770546
vt 0.7332144 0.7327672
vt 0.7319199 0.7348458
vt 0.737314 0.7417703
vt 0.738194 0.7350234
vt 0.7464141 0.7475612
vt 0.7430037 0.7551467
vt 0.7397272 0.7744582
vt 0.7472337 0.7890111
vt 0.7329263 0.7867684
vt 0.749781 0.7631656
vt 0.7546586 0.7755433
vt 0.75186 0.7822505
vt 0.7672983 0.7720451
vt 0.7659633 0.7778803
vt 0.05240645 0.341485
vt 0.05240645 0.3270031
vt 0.03642359 0.341485
vt 0.03642359 0.3270031
vt 0.4898978 0.9455083
vt 0.4897644 0.9527506
vt 0.5146355 0.9527506
vt 0.5175864 0.9455084
vt 0.5298321 0.9455084
vt 0.5308267 0.9527506
vt 0.5330315 0.9455083
vt 0.4309284 0.1165928
vt 0.4091115 0.1165928
vt 0.4309284 0.1341543
vt 0.4089599 0.1341543
vt 0.3914694 0.1165934
vt 0.39049 0.1341539
vt 0.370089 0.1166113
vt 0.3667067 0.134124
vt 0.3655593 0.1166282
vt 0.3452343 0.1307045
vt 0.3349718 0.133948
vt 0.3476931 0.1201726
vt 0.3195634 0.1299122
vt 0.3349715 0.1168008
vt 0.3094258 0.1328354
vt 0.3195632 0.120837
vt 0.3094255 0.1179141
vt 0.3084342 0.1147964
vt 0.3246954 0.1026442
vt 0.3058934 0.1142286
vt 0.318552 0.110425
vt 0.3299683 0.1091319
vt 0.3421626 0.1086224
vt 0.3385631 0.1110763
vt 0.3476149 0.1128698
vt 0.3459795 0.1148385
vn 0.3282312 -0.4449662 0.8332283
vn -0.249186 0.4989215 0.8300505
vn -0.5164421 -0.5832177 0.6270124
vn 0.03668347 0.9693349 0.2429899
vn 0.007996029 0.6428258 0.7659707
vn 0.003265525 0.9607969 0.277234
vn -0.0140081 0.6094592 0.7926937
vn -1 0 0
vn -1 0 0
vn -1 0 0
vn -1 0 0
vn -1 0 0
vn -1 0 0
vn 1 0 0
vn 1 0 0
vn 1 0 0
vn 1 0 0
vn 1 0 0
vn 1 0 0
vn 1 0 0
vn 1 0 0
vn 1 0 0
vn -1 0 0
vn -1 0 0
vn -1 0 0
vn -1 0 0
vn -1 0 0
vn -1 0 0
vn -1 0 0
vn -1 0 0
vn -1 0 0
vn -1 0 0
vn -1 0 0
vn -1 0 0
vn -1 0 0
vn -1 0 0
vn 0 0.02417097 0.9997078
vn 0 0.02417097 0.9997078
vn 0 0.02417097 0.9997078
vn 0 0.02417097 0.9997078
vn 0.2896577 -0.8867961 -0.3601264
vn 0.04409989 -0.9834123 -0.1759418
vn -0.1094091 -0.9939291 -0.01159706
vn -0.06656298 -0.9851687 0.1581519
vn 0 -0.9826965 0.1852227
vn 1 0 0
vn 1 0 0
vn 1 0 0
vn 1 0 0
vn 1 0 0
vn 1 0 0
vn 0.172068 0.03750826 -0.9843706
vn -0.09525148 0.595131 -0.7979639
vn -0.214978 0.6127056 -0.7605106
vn 0.5750166 -0.7544099 -0.3165781
vn 0 0.9999952 -0.003082449
vn 0 0.9999952 -0.003082449
vn 0 0.9999952 -0.003082449
vn 0 0.9999952 -0.003082449
vn 1 0 0
vn 1 0 0
vn 1 0 0
vn 1 0 0
vn 1 0 0
vn 1 0 0
vn 1 0 0
vn 1 0 0
vn 1 0 0
vn 1 0 0
vn 1 0 0
vn 1 0 0
vn 1 0 0
vn 1 0 0
vn 0.007996029 0.6428258 0.7659707
vn 0.004242207 0.07715324 0.9970102
vn -0.0140081 0.6094592 0.7926937
vn 0 0.07248326 0.9973696
vn -0.01934888 -0.9500176 0.3115962
vn -0.0563386 -0.9517133 0.3017747
vn 0.1011414 -0.8259478 0.5545994
vn 0.08569869 -0.7312466 0.6767083
vn -0.06341879 -0.9867145 0.1495743
vn 0.5750166 -0.7544099 -0.3165781
vn 0.172068 0.03750826 -0.9843706
vn 0 0.2110066 -0.9774846
vn 0.001800629 0.6448694 -0.7642907
vn -0.003173951 0.2135092 -0.9769359
vn 9.155843E-05 0.6498207 -0.7600875
vn 0.03714127 0.7836595 -0.6200792
vn 0.0391866 0.7704257 -0.6363245
vn 0.01675502 -0.08285955 -0.9964204
vn -0.2066763 -0.8009773 -0.5618897
vn 0.1319329 -0.9831027 0.1268973
vn -0.5164421 -0.5832177 0.6270124
vn 0.2701592 -0.9616105 0.04815987
vn 0.3282312 -0.4449662 0.8332283
vn -0.2022486 -0.9481604 -0.2451276
vn -0.5339598 -0.839058 0.1042528
vn -0.09030624 -0.9466132 -0.3094644
vn 0.1843659 -0.9524707 -0.2425048
vn 0.09030624 -0.9466132 -0.3094644
vn -1 0 0
vn -1 0 0
vn -1 0 0
vn -1 0 0
vn -1 0 0
vn -1 0 0
vn -1 0 0
vn -1 0 0
vn -1 0 0
g mp7trigger_LOD2_0
f 3/3/3 2/2/2 1/1/1
f 6/6/6 5/5/5 4/4/4
f 6/6/6 7/7/7 5/5/5
f 10/10/10 9/9/9 8/8/8
f 11/11/11 10/10/10 8/8/8
f 11/11/11 8/8/8 12/12/12
f 13/13/13 11/11/11 12/12/12
f 16/16/16 15/15/15 14/14/14
f 16/16/16 14/14/14 17/17/17
f 16/16/16 17/17/17 18/18/18
f 19/19/19 16/16/16 18/18/18
f 19/19/19 18/18/18 20/20/20
f 21/21/21 19/19/19 20/20/20
f 20/20/20 22/22/22 21/21/21
f 25/25/25 24/24/24 23/23/23
f 23/23/23 26/26/26 25/25/25
f 27/27/27 25/25/25 26/26/26
f 28/28/28 27/27/27 26/26/26
f 28/28/28 26/26/26 29/29/29
f 28/28/28 29/29/29 30/30/30
f 30/30/30 31/31/31 28/28/28
f 23/23/23 32/32/32 26/26/26
f 23/23/23 33/33/33 32/32/32
f 23/23/23 34/34/34 33/33/33
f 33/33/33 35/35/35 32/32/32
f 33/33/33 36/36/36 35/35/35
f 39/39/39 38/38/38 37/37/37
f 37/37/37 40/40/40 39/39/39
f 43/43/43 42/42/42 41/41/41
f 42/42/42 43/43/43 44/44/44
f 45/45/45 44/44/44 43/43/43
f 48/48/48 47/47/47 46/46/46
f 49/49/49 48/48/48 46/46/46
f 48/48/48 49/49/49 50/50/50
f 49/49/49 51/51/51 50/50/50
f 54/54/54 53/53/53 52/52/52
f 55/55/55 52/52/52 53/53/53
f 58/58/58 57/57/57 56/56/56
f 59/59/59 58/58/58 56/56/56
f 62/62/62 61/61/61 60/60/60
f 60/60/60 63/63/63 62/62/62
f 63/63/63 64/64/64 62/62/62
f 64/64/64 65/65/65 62/62/62
f 64/64/64 66/66/66 65/65/65
f 66/66/66 64/64/64 67/67/67
f 67/67/67 68/68/68 66/66/66
f 64/64/64 69/69/69 67/67/67
f 69/69/69 70/70/70 67/67/67
f 70/70/70 71/71/71 67/67/67
f 69/69/69 72/72/72 70/70/70
f 72/72/72 73/73/73 70/70/70
f 76/76/76 75/75/75 74/74/74
f 77/77/77 75/75/75 76/76/76
f 80/80/80 79/79/79 78/78/78
f 80/80/80 78/78/78 81/81/81
f 81/81/81 82/82/82 80/80/80
f 82/82/82 83/83/83 80/80/80
f 82/82/82 84/84/84 83/83/83
f 87/87/87 86/86/86 85/85/85
f 87/87/87 88/88/88 86/86/86
f 89/89/89 86/86/86 88/88/88
f 90/90/90 89/89/89 88/88/88
f 91/91/91 89/89/89 90/90/90
f 92/92/92 91/91/91 90/90/90
f 91/91/91 92/92/92 93/93/93
f 92/92/92 94/94/94 93/93/93
f 92/92/92 95/95/95 94/94/94
f 94/94/94 96/96/96 93/93/93
f 94/94/94 95/95/95 97/97/97
f 93/93/93 96/96/96 98/98/98
f 99/99/99 97/97/97 95/95/95
f 96/96/96 100/100/100 98/98/98
f 100/100/100 97/97/97 99/99/99
f 98/98/98 100/100/100 101/101/101
f 101/101/101 100/100/100 99/99/99
f 104/104/104 103/103/103 102/102/102
f 105/105/105 102/102/102 103/103/103
f 106/106/106 105/105/105 103/103/103
f 106/106/106 103/103/103 107/107/107
f 108/108/108 106/106/106 107/107/107
f 108/108/108 107/107/107 109/109/109
f 109/109/109 110/110/110 108/108/108
