g NTF human hands.R
v 0.008056174 0.009531772 -0.000302852
v 0.008475393 0.01008668 -0.0002636093
v 0.008045268 0.01002964 -0.0003032011
v 0.008467323 0.009650309 -0.000274629
v 0.008792078 0.01008446 -0.0001482214
v 0.008063435 0.008812696 -0.0004857904
v 0.008754512 0.009697144 -0.0001631065
v 0.00895988 0.01013591 2.865726E-05
v 0.0084561 0.008865437 -0.0004358616
v 0.008103189 0.007986667 -0.000591488
v 0.008941069 0.009715995 1.984041E-05
v 0.009139027 0.01015859 0.0002686149
v 0.008504516 0.008001577 -0.0005612148
v 0.008149042 0.007257752 -0.0007320557
v 0.008717422 0.008891725 -0.0002734884
v 0.009134484 0.009669345 0.0002633194
v 0.009156898 0.01013579 0.0009650323
v 0.008572882 0.007252719 -0.0006650335
v 0.00815257 0.006285872 -0.0008759674
v 0.008955194 0.008992004 -1.187323E-05
v 0.008794154 0.008007496 -0.0004074569
v 0.008625668 0.006301691 -0.0008306778
v 0.008125234 0.005162552 -0.00110826
v 0.008640686 0.005171488 -0.001053872
v 0.008858947 0.007253911 -0.0004899357
v 0.008947038 0.006281516 -0.0006647948
v 0.008994984 0.005171961 -0.0008689841
v 0.009050718 0.008037128 -9.863966E-05
v 0.009238502 0.006279983 -0.0003239234
v 0.009310706 0.005174775 -0.0004910627
v 0.009134316 0.007230365 -0.00015701
v 0.009384138 0.006255766 0.000101454
v 0.009473526 0.005142393 1.001304E-05
v 0.009504414 0.005097563 0.0006110311
v 0.009268714 0.007216337 0.0001989111
v 0.009407918 0.006215162 0.0006716537
v 0.009377752 0.005035473 0.001143419
v 0.009083718 0.009024452 0.0002389408
v 0.00917607 0.008056507 0.0002442735
v 0.009276235 0.007177179 0.0007194689
v 0.009271411 0.006151841 0.001183967
v 0.009224521 0.008086641 0.00081253
v 0.009179007 0.008966527 0.0008500951
v 0.009123672 0.007139147 0.00123322
v 0.009043409 0.006102447 0.001563479
v 0.009150275 0.004982261 0.001605189
v 0.009159503 0.009702801 0.000930112
v 0.009012254 0.01008504 0.001608123
v 0.009000761 0.00964289 0.00156943
v 0.008822714 0.01001836 0.002004808
v 0.009123508 0.008094712 0.00129878
v 0.008942857 0.007118471 0.001561043
v 0.00867938 0.006074618 0.001849693
v 0.008762311 0.004941819 0.001902169
v 0.009065687 0.008933318 0.001435886
v 0.008801217 0.009574379 0.001943071
v 0.008578351 0.00985173 0.002206
v 0.008913834 0.008057939 0.001680491
v 0.008802701 0.008994253 0.001872773
v 0.008554866 0.009423284 0.002122763
v 0.008231971 0.009609402 0.002338499
v 0.008564803 0.008914855 0.002087717
v 0.00825678 0.009244239 0.002282242
v 0.007885055 0.009448896 0.002340228
v 0.008574079 0.008028544 0.001994592
v 0.007924023 0.009160931 0.002295217
v 0.007593298 0.009400872 0.002178611
v 0.008269385 0.008806023 0.002239935
v 0.008611673 0.007079004 0.001869289
v 0.007622158 0.009131702 0.002103011
v 0.00740697 0.009441348 0.00186165
v 0.007941763 0.008719655 0.002236923
v 0.008300818 0.007955464 0.002124293
v 0.008374476 0.007060409 0.00200169
v 0.00745541 0.009181485 0.001819213
v 0.007462197 0.00963868 0.001350836
v 0.007672636 0.00867768 0.002009864
v 0.008005559 0.007951372 0.002143214
v 0.008387593 0.006075025 0.001960189
v 0.008439191 0.004936282 0.001970997
v 0.007337096 0.00927663 0.001341051
v 0.007438013 0.009761675 0.0008387488
v 0.008093008 0.007048398 0.002029775
v 0.00809327 0.006056196 0.001967845
v 0.008102076 0.004946137 0.001916991
v 0.007508675 0.008674436 0.001712167
v 0.007745753 0.007882903 0.001971934
v 0.007515394 0.007817521 0.001543286
v 0.00780728 0.007047075 0.001902126
v 0.007813277 0.006069907 0.001830763
v 0.007784739 0.004945915 0.00176253
v 0.00737129 0.008756769 0.00119851
v 0.007520203 0.007074616 0.001390716
v 0.00740232 0.007115595 0.000620461
v 0.00748235 0.006052835 0.001301851
v 0.007392381 0.004920953 0.001205161
v 0.007361943 0.006131304 0.0004651786
v 0.007237004 0.004977574 0.0003106726
v 0.007552547 0.00619666 -0.0003529543
v 0.007427245 0.004981618 -0.0005289619
v 0.007301558 0.009334571 0.0007781505
v 0.007423861 0.009747194 0.0003530096
v 0.0074547 0.009321832 0.0003066312
v 0.007570056 0.00978177 -1.052918E-05
v 0.007348378 0.008779912 0.0007164468
v 0.007590575 0.009336835 -7.480068E-05
v 0.007739428 0.009903295 -0.0002502996
v 0.007561003 0.007194956 -0.0002713574
v 0.007595473 0.007928492 -0.0002227784
v 0.007791041 0.006246005 -0.000693106
v 0.00772273 0.005104705 -0.0008998573
v 0.007783056 0.007239208 -0.000575999
v 0.00815257 0.006285872 -0.0008759674
v 0.008125234 0.005162552 -0.00110826
v 0.008149042 0.007257752 -0.0007320557
v 0.008103189 0.007986667 -0.000591488
v 0.007773076 0.007932488 -0.0004438855
v 0.008063435 0.008812696 -0.0004857904
v 0.007749831 0.008767257 -0.0003571546
v 0.008056174 0.009531772 -0.000302852
v 0.007744264 0.009390174 -0.000272154
v 0.008045268 0.01002964 -0.0003032011
v 0.007591994 0.008750288 -0.0001470423
v 0.007475059 0.008735561 0.0001985497
v 0.007475487 0.008277877 0.0001894938
v 0.007373 0.008424201 0.0006725419
v 0.007435268 0.007812781 0.0003579879
v 0.00739954 0.008256118 0.00118014
v 0.007377285 0.007826104 0.000949054
vt 0.546827 0.015138
vt 0.573975 0.0400833
vt 0.568937 0.0145632
vt 0.550065 0.0410023
vt 0.575956 0.0601663
vt 0.519461 0.0158455
vt 0.551979 0.0616619
vt 0.579181 0.0802207
vt 0.52276 0.0422813
vt 0.483713 0.0169937
vt 0.55488 0.082692
vt 0.58359 0.101581
vt 0.485872 0.0440529
vt 0.452601 0.0210973
vt 0.525088 0.0639212
vt 0.558663 0.105193
vt 0.58725 0.133382
vt 0.453669 0.0483312
vt 0.411399 0.0202123
vt 0.529406 0.0857488
vt 0.487758 0.0666079
vt 0.412181 0.0486124
vt 0.362671 0.0188046
vt 0.363296 0.0485948
vt 0.454834 0.0710239
vt 0.413313 0.0721878
vt 0.364346 0.0733281
vt 0.492333 0.0937195
vt 0.415985 0.100765
vt 0.367006 0.10331
vt 0.4574 0.0984506
vt 0.418511 0.125736
vt 0.369667 0.130987
vt 0.372793 0.16172
vt 0.459725 0.121062
vt 0.421821 0.156168
vt 0.375496 0.188594
vt 0.533077 0.104544
vt 0.496288 0.115226
vt 0.463228 0.151033
vt 0.424769 0.183104
vt 0.501761 0.145259
vt 0.538829 0.139657
vt 0.466387 0.177972
vt 0.427522 0.206898
vt 0.378195 0.21462
vt 0.569408 0.136491
vt 0.593116 0.163584
vt 0.575384 0.167305
vt 0.596095 0.18417
vt 0.506606 0.171436
vt 0.469327 0.199698
vt 0.430581 0.23257
vt 0.381054 0.241366
vt 0.544046 0.168666
vt 0.577154 0.189135
vt 0.59539 0.202266
vt 0.510621 0.194625
vt 0.553397 0.194403
vt 0.57704 0.207569
vt 0.592405 0.222827
vt 0.555086 0.212814
vt 0.575411 0.226646
vt 0.590674 0.240232
vt 0.514461 0.219787
vt 0.576529 0.243035
vt 0.5922 0.258151
vt 0.55536 0.231495
vt 0.472832 0.224416
vt 0.578795 0.261485
vt 0.595686 0.279201
vt 0.555477 0.248171
vt 0.515907 0.237104
vt 0.475741 0.241602
vt 0.582514 0.282078
vt 0.604491 0.303265
vt 0.556945 0.267383
vt 0.519182 0.254301
vt 0.43323 0.250325
vt 0.383606 0.2598
vt 0.588768 0.306197
vt 0.615115 0.337445
vt 0.478738 0.259286
vt 0.435867 0.268428
vt 0.386179 0.278585
vt 0.56058 0.288336
vt 0.520051 0.273724
vt 0.521202 0.301643
vt 0.482512 0.278646
vt 0.439533 0.288127
vt 0.389859 0.298956
vt 0.56669 0.314496
vt 0.489596 0.31683
vt 0.499782 0.357787
vt 0.446763 0.326902
vt 0.397332 0.338929
vt 0.458357 0.371139
vt 0.410448 0.387146
vt 0.470679 0.418983
vt 0.423283 0.434092
vt 0.59672 0.340553
vt 0.618758 0.363706
vt 0.60115 0.367572
vt 0.623123 0.382406
vt 0.572098 0.346644
vt 0.605375 0.386821
vt 0.629648 0.400805
vt 0.510976 0.406752
vt 0.544974 0.403392
vt 0.481516 0.447038
vt 0.434951 0.463211
vt 0.52151 0.433628
vt 0.491411 0.471678
vt 0.445764 0.488931
vt 0.530298 0.457952
vt 0.559011 0.445499
vt 0.550447 0.421735
vt 0.592972 0.434799
vt 0.583907 0.412009
vt 0.619069 0.427624
vt 0.610449 0.405268
vt 0.640146 0.422501
vt 0.579411 0.39392
vt 0.57573 0.374052
vt 0.554966 0.37618
vt 0.556126 0.351404
vt 0.533301 0.368634
vt 0.545562 0.320263
vt 0.527267 0.335862
vn -0.06173019 0.1064675 -0.9923982
vn 0.2435528 0.1243616 -0.9618816
vn -0.03965339 0.04107868 -0.9983688
vn 0.2309423 0.0923997 -0.9685701
vn 0.5458241 0.1583555 -0.8227999
vn -0.1772086 0.1745539 -0.9685702
vn 0.5661829 0.03943881 -0.8233356
vn 0.713324 0.1817962 -0.676845
vn 0.2650119 0.1720645 -0.948769
vn -0.159791 0.1432716 -0.9766986
vn 0.7495415 0.01441071 -0.6618006
vn 0.9235663 0.1470915 -0.3541034
vn 0.2979083 0.1587973 -0.9412938
vn -0.1510536 0.157122 -0.9759588
vn 0.591881 0.1350558 -0.7946301
vn 0.9396193 2.251929E-05 -0.3422216
vn 0.9971945 0.01268577 0.07377068
vn 0.3107653 0.1704727 -0.9350743
vn -0.1757453 0.1725738 -0.9691914
vn 0.8162729 0.07021561 -0.5733832
vn 0.6250538 0.1494529 -0.7661407
vn 0.2974295 0.1842918 -0.9367883
vn -0.1855884 0.2210787 -0.9574347
vn 0.2952555 0.1963395 -0.9350267
vn 0.6350777 0.1659571 -0.75441
vn 0.6255549 0.1775687 -0.7597042
vn 0.6281703 0.1568176 -0.7621091
vn 0.8448418 0.1287693 -0.5192887
vn 0.8622975 0.1505691 -0.4834996
vn 0.8652624 0.1215141 -0.4863697
vn 0.860325 0.1501102 -0.4871426
vn 0.9771189 0.119191 -0.1761594
vn 0.9787403 0.09831685 -0.1800035
vn 0.9913721 0.0871335 0.09792387
vn 0.9747717 0.1235297 -0.1859042
vn 0.9872664 0.1046605 0.1197965
vn 0.9318573 0.08351584 0.3530822
vn 0.9649038 0.01765737 -0.2620091
vn 0.9685684 0.09824979 -0.2285218
vn 0.9895949 0.08781511 0.1139759
vn 0.9194739 0.09459972 0.3816001
vn 0.9961246 0.0511485 0.07155153
vn 0.9983505 0.03181359 0.04779297
vn 0.9224321 0.04826993 0.3831304
vn 0.760218 0.07871915 0.6448813
vn 0.7530371 0.072623 0.653958
vn 0.9964665 -0.004765681 0.08385517
vn 0.945237 -0.08553705 0.3149769
vn 0.9349647 -0.03265703 0.3532342
vn 0.7999417 -0.1401801 0.5834748
vn 0.9353661 0.001679466 0.3536773
vn 0.779947 0.009572256 0.6257724
vn 0.494637 0.04222311 0.8680734
vn 0.410755 0.0329792 0.9111491
vn 0.9343222 0.006123189 0.3563769
vn 0.7825425 -0.09277041 0.6156467
vn 0.5755486 -0.1642898 0.8010947
vn 0.7889872 -0.04521535 0.6127436
vn 0.7716641 -0.0474376 0.6342588
vn 0.5756846 -0.1090232 0.810371
vn 0.2920446 -0.17703 0.9398778
vn 0.5760964 -0.07161112 0.8142387
vn 0.2849648 -0.114629 0.9516591
vn -0.1899559 -0.2254072 0.9555669
vn 0.5778618 -0.08206124 0.8119986
vn -0.233885 -0.1764262 0.9561232
vn -0.6858433 -0.2429696 0.6859916
vn 0.2648158 -0.1016061 0.958931
vn 0.5610315 -0.03086246 0.8272189
vn -0.7152636 -0.2156453 0.6647518
vn -0.9708062 -0.1837523 0.1541765
vn -0.2844289 -0.1437044 0.9478656
vn 0.269066 -0.1106645 0.9567429
vn 0.2691314 -0.06961024 0.9605845
vn -0.9415914 -0.1380522 0.3071597
vn -0.9514505 0.2651482 0.156328
vn -0.7431284 -0.1515065 0.6517714
vn -0.2475286 -0.1305046 0.9600511
vn 0.1758776 -0.01062913 0.9843547
vn 0.04065082 -0.01804659 0.9990104
vn -0.9785539 0.1050098 0.1772152
vn -0.9524777 0.3009095 0.04732547
vn -0.1846283 -0.09560526 0.9781472
vn -0.2256601 -0.04531097 0.9731517
vn -0.2983704 -0.05653796 0.9527741
vn -0.9246783 -0.1217981 0.3607428
vn -0.7148535 -0.1189095 0.6890899
vn -0.9365364 -0.08264953 0.3406886
vn -0.6809851 -0.08550996 0.7272876
vn -0.6647002 -0.0345414 0.7463112
vn -0.6515929 -0.04653431 0.7571402
vn -0.9873947 -0.08622891 0.1327265
vn -0.9419972 -0.04851465 0.332096
vn -0.9997324 0.001910746 -0.0230516
vn -0.9355367 0.0184456 0.3527475
vn -0.9195374 0.02108511 0.3924364
vn -0.9971747 0.06998726 -0.02727987
vn -0.9940854 0.1081287 -0.01011646
vn -0.9124451 0.1022662 -0.396214
vn -0.9040264 0.1797599 -0.3878438
vn -0.9940426 0.08311235 -0.07050964
vn -0.9611442 0.04825668 -0.2717959
vn -0.947508 -0.01350153 -0.3194469
vn -0.8798519 -0.01437788 -0.4750304
vn -0.9935487 -0.04560843 -0.1038305
vn -0.8805674 0.03346536 -0.4727378
vn -0.4921048 0.001163522 -0.8705351
vn -0.9143021 0.05282775 -0.4015732
vn -0.8991656 0.04042115 -0.4357378
vn -0.6489468 0.1345897 -0.7488349
vn -0.6455379 0.2113442 -0.7339036
vn -0.6297181 0.1090789 -0.7691275
vn -0.1757453 0.1725738 -0.9691914
vn -0.1855884 0.2210787 -0.9574347
vn -0.1510536 0.157122 -0.9759588
vn -0.159791 0.1432716 -0.9766986
vn -0.6217916 0.09995975 -0.7767774
vn -0.1772086 0.1745539 -0.9685702
vn -0.6065204 0.1060984 -0.787957
vn -0.06173019 0.1064675 -0.9923982
vn -0.5166098 0.073 -0.8531033
vn -0.03965339 0.04107868 -0.9983688
vn -0.8826749 0.04322308 -0.4679923
vn -0.9594266 0.005745302 -0.2819003
vn -0.9656845 0.001876493 -0.2597112
vn -0.9958548 -0.02978946 -0.08594008
vn -0.9840606 -0.002625975 -0.1778137
vn -0.9858313 -0.0466022 0.1611365
vn -0.9968364 -0.04058778 0.06833584
g NTF human hands.R_0
f 3/3/3 2/2/2 1/1/1
f 4/4/4 1/1/1 2/2/2
f 2/2/2 5/5/5 4/4/4
f 1/1/1 4/4/4 6/6/6
f 7/7/7 4/4/4 5/5/5
f 5/5/5 8/8/8 7/7/7
f 9/9/9 6/6/6 4/4/4
f 4/4/4 7/7/7 9/9/9
f 6/6/6 9/9/9 10/10/10
f 11/11/11 7/7/7 8/8/8
f 8/8/8 12/12/12 11/11/11
f 13/13/13 10/10/10 9/9/9
f 10/10/10 13/13/13 14/14/14
f 15/15/15 9/9/9 7/7/7
f 7/7/7 11/11/11 15/15/15
f 9/9/9 15/15/15 13/13/13
f 16/16/16 11/11/11 12/12/12
f 12/12/12 17/17/17 16/16/16
f 18/18/18 14/14/14 13/13/13
f 14/14/14 18/18/18 19/19/19
f 20/20/20 15/15/15 11/11/11
f 11/11/11 16/16/16 20/20/20
f 21/21/21 13/13/13 15/15/15
f 13/13/13 21/21/21 18/18/18
f 15/15/15 20/20/20 21/21/21
f 22/22/22 19/19/19 18/18/18
f 19/19/19 22/22/22 23/23/23
f 24/24/24 23/23/23 22/22/22
f 25/25/25 18/18/18 21/21/21
f 18/18/18 25/25/25 22/22/22
f 22/22/22 26/26/26 24/24/24
f 26/26/26 22/22/22 25/25/25
f 27/27/27 24/24/24 26/26/26
f 28/28/28 21/21/21 20/20/20
f 21/21/21 28/28/28 25/25/25
f 26/26/26 29/29/29 27/27/27
f 30/30/30 27/27/27 29/29/29
f 25/25/25 31/31/31 26/26/26
f 31/31/31 25/25/25 28/28/28
f 29/29/29 26/26/26 31/31/31
f 29/29/29 32/32/32 30/30/30
f 33/33/33 30/30/30 32/32/32
f 33/33/33 32/32/32 34/34/34
f 31/31/31 35/35/35 29/29/29
f 32/32/32 29/29/29 35/35/35
f 31/31/31 28/28/28 35/35/35
f 36/36/36 34/34/34 32/32/32
f 32/32/32 35/35/35 36/36/36
f 34/34/34 36/36/36 37/37/37
f 20/20/20 38/38/38 28/28/28
f 38/38/38 20/20/20 16/16/16
f 39/39/39 35/35/35 28/28/28
f 39/39/39 28/28/28 38/38/38
f 40/40/40 36/36/36 35/35/35
f 35/35/35 39/39/39 40/40/40
f 41/41/41 37/37/37 36/36/36
f 36/36/36 40/40/40 41/41/41
f 39/39/39 38/38/38 42/42/42
f 42/42/42 40/40/40 39/39/39
f 38/38/38 16/16/16 43/43/43
f 43/43/43 42/42/42 38/38/38
f 40/40/40 42/42/42 44/44/44
f 44/44/44 41/41/41 40/40/40
f 41/41/41 45/45/45 37/37/37
f 46/46/46 37/37/37 45/45/45
f 47/47/47 43/43/43 16/16/16
f 47/47/47 16/16/16 17/17/17
f 17/17/17 48/48/48 47/47/47
f 49/49/49 47/47/47 48/48/48
f 47/47/47 49/49/49 43/43/43
f 48/48/48 50/50/50 49/49/49
f 42/42/42 43/43/43 51/51/51
f 51/51/51 44/44/44 42/42/42
f 44/44/44 52/52/52 41/41/41
f 45/45/45 41/41/41 52/52/52
f 45/45/45 53/53/53 46/46/46
f 54/54/54 46/46/46 53/53/53
f 55/55/55 43/43/43 49/49/49
f 55/55/55 51/51/51 43/43/43
f 56/56/56 49/49/49 50/50/50
f 49/49/49 56/56/56 55/55/55
f 50/50/50 57/57/57 56/56/56
f 51/51/51 58/58/58 44/44/44
f 52/52/52 44/44/44 58/58/58
f 55/55/55 59/59/59 51/51/51
f 59/59/59 55/55/55 56/56/56
f 58/58/58 51/51/51 59/59/59
f 60/60/60 56/56/56 57/57/57
f 56/56/56 60/60/60 59/59/59
f 57/57/57 61/61/61 60/60/60
f 59/59/59 62/62/62 58/58/58
f 62/62/62 59/59/59 60/60/60
f 63/63/63 60/60/60 61/61/61
f 60/60/60 63/63/63 62/62/62
f 61/61/61 64/64/64 63/63/63
f 58/58/58 65/65/65 52/52/52
f 65/65/65 58/58/58 62/62/62
f 66/66/66 63/63/63 64/64/64
f 64/64/64 67/67/67 66/66/66
f 68/68/68 62/62/62 63/63/63
f 62/62/62 68/68/68 65/65/65
f 63/63/63 66/66/66 68/68/68
f 69/69/69 52/52/52 65/65/65
f 52/52/52 69/69/69 45/45/45
f 53/53/53 45/45/45 69/69/69
f 70/70/70 66/66/66 67/67/67
f 67/67/67 71/71/71 70/70/70
f 72/72/72 68/68/68 66/66/66
f 66/66/66 70/70/70 72/72/72
f 73/73/73 65/65/65 68/68/68
f 65/65/65 73/73/73 69/69/69
f 68/68/68 72/72/72 73/73/73
f 69/69/69 74/74/74 53/53/53
f 74/74/74 69/69/69 73/73/73
f 75/75/75 70/70/70 71/71/71
f 71/71/71 76/76/76 75/75/75
f 77/77/77 72/72/72 70/70/70
f 70/70/70 75/75/75 77/77/77
f 78/78/78 73/73/73 72/72/72
f 73/73/73 78/78/78 74/74/74
f 72/72/72 77/77/77 78/78/78
f 79/79/79 53/53/53 74/74/74
f 53/53/53 79/79/79 54/54/54
f 80/80/80 54/54/54 79/79/79
f 81/81/81 75/75/75 76/76/76
f 76/76/76 82/82/82 81/81/81
f 83/83/83 74/74/74 78/78/78
f 74/74/74 83/83/83 79/79/79
f 79/79/79 84/84/84 80/80/80
f 84/84/84 79/79/79 83/83/83
f 85/85/85 80/80/80 84/84/84
f 86/86/86 77/77/77 75/75/75
f 75/75/75 81/81/81 86/86/86
f 87/87/87 78/78/78 77/77/77
f 78/78/78 87/87/87 83/83/83
f 77/77/77 86/86/86 87/87/87
f 88/88/88 87/87/87 86/86/86
f 89/89/89 83/83/83 87/87/87
f 83/83/83 89/89/89 84/84/84
f 87/87/87 88/88/88 89/89/89
f 84/84/84 90/90/90 85/85/85
f 90/90/90 84/84/84 89/89/89
f 91/91/91 85/85/85 90/90/90
f 92/92/92 86/86/86 81/81/81
f 86/86/86 92/92/92 88/88/88
f 89/89/89 93/93/93 90/90/90
f 93/93/93 89/89/89 88/88/88
f 93/93/93 88/88/88 94/94/94
f 93/93/93 94/94/94 95/95/95
f 95/95/95 90/90/90 93/93/93
f 90/90/90 95/95/95 91/91/91
f 96/96/96 91/91/91 95/95/95
f 95/95/95 97/97/97 96/96/96
f 97/97/97 95/95/95 94/94/94
f 98/98/98 96/96/96 97/97/97
f 97/97/97 99/99/99 98/98/98
f 100/100/100 98/98/98 99/99/99
f 81/81/81 101/101/101 92/92/92
f 101/101/101 81/81/81 82/82/82
f 82/82/82 102/102/102 101/101/101
f 103/103/103 101/101/101 102/102/102
f 102/102/102 104/104/104 103/103/103
f 105/105/105 92/92/92 101/101/101
f 101/101/101 103/103/103 105/105/105
f 106/106/106 103/103/103 104/104/104
f 104/104/104 107/107/107 106/106/106
f 99/99/99 97/97/97 108/108/108
f 94/94/94 108/108/108 97/97/97
f 108/108/108 94/94/94 109/109/109
f 99/99/99 110/110/110 100/100/100
f 111/111/111 100/100/100 110/110/110
f 108/108/108 112/112/112 99/99/99
f 108/108/108 109/109/109 112/112/112
f 110/110/110 99/99/99 112/112/112
f 110/110/110 113/113/113 111/111/111
f 114/114/114 111/111/111 113/113/113
f 113/113/113 110/110/110 115/115/115
f 112/112/112 115/115/115 110/110/110
f 115/115/115 112/112/112 116/116/116
f 117/117/117 116/116/116 112/112/112
f 117/117/117 112/112/112 109/109/109
f 116/116/116 117/117/117 118/118/118
f 119/119/119 118/118/118 117/117/117
f 117/117/117 109/109/109 119/119/119
f 118/118/118 119/119/119 120/120/120
f 121/121/121 120/120/120 119/119/119
f 120/120/120 121/121/121 122/122/122
f 107/107/107 122/122/122 121/121/121
f 121/121/121 106/106/106 107/107/107
f 119/119/119 123/123/123 121/121/121
f 106/106/106 121/121/121 123/123/123
f 123/123/123 119/119/119 109/109/109
f 123/123/123 124/124/124 106/106/106
f 103/103/103 106/106/106 124/124/124
f 124/124/124 105/105/105 103/103/103
f 109/109/109 125/125/125 123/123/123
f 124/124/124 123/123/123 125/125/125
f 105/105/105 124/124/124 126/126/126
f 125/125/125 126/126/126 124/124/124
f 109/109/109 127/127/127 125/125/125
f 126/126/126 125/125/125 127/127/127
f 127/127/127 109/109/109 94/94/94
f 127/127/127 94/94/94 126/126/126
f 126/126/126 128/128/128 105/105/105
f 92/92/92 105/105/105 128/128/128
f 128/128/128 88/88/88 92/92/92
f 129/129/129 126/126/126 94/94/94
f 129/129/129 94/94/94 88/88/88
f 88/88/88 128/128/128 129/129/129
f 126/126/126 129/129/129 128/128/128
