g NTF human hands.R.001
v -0.008056174 -0.009531772 0.000302852
v -0.008045268 -0.01002964 0.0003032011
v -0.008475393 -0.01008668 0.0002636093
v -0.008467323 -0.009650309 0.000274629
v -0.008792078 -0.01008446 0.0001482214
v -0.008063435 -0.008812696 0.0004857904
v -0.008754512 -0.009697144 0.0001631065
v -0.00895988 -0.01013591 -2.865726E-05
v -0.0084561 -0.008865437 0.0004358616
v -0.008103189 -0.007986667 0.000591488
v -0.008941069 -0.009715995 -1.984041E-05
v -0.009139027 -0.01015859 -0.0002686149
v -0.008504516 -0.008001577 0.0005612148
v -0.008149042 -0.007257752 0.0007320557
v -0.008717422 -0.008891725 0.0002734884
v -0.009134484 -0.009669345 -0.0002633194
v -0.009156898 -0.01013579 -0.0009650323
v -0.008572882 -0.007252719 0.0006650335
v -0.00815257 -0.006285872 0.0008759674
v -0.008955194 -0.008992004 1.187323E-05
v -0.008794154 -0.008007496 0.0004074569
v -0.008625668 -0.006301691 0.0008306778
v -0.008125234 -0.005162552 0.00110826
v -0.008640686 -0.005171488 0.001053872
v -0.008858947 -0.007253911 0.0004899357
v -0.008947038 -0.006281516 0.0006647948
v -0.008994984 -0.005171961 0.0008689841
v -0.009050718 -0.008037128 9.863966E-05
v -0.009238502 -0.006279983 0.0003239234
v -0.009310706 -0.005174775 0.0004910627
v -0.009134316 -0.007230365 0.00015701
v -0.009384138 -0.006255766 -0.000101454
v -0.009473526 -0.005142393 -1.001304E-05
v -0.009504414 -0.005097563 -0.0006110311
v -0.009268714 -0.007216337 -0.0001989111
v -0.009407918 -0.006215162 -0.0006716537
v -0.009377752 -0.005035473 -0.001143419
v -0.009083718 -0.009024452 -0.0002389408
v -0.00917607 -0.008056507 -0.0002442735
v -0.009276235 -0.007177179 -0.0007194689
v -0.009271411 -0.006151841 -0.001183967
v -0.009224521 -0.008086641 -0.00081253
v -0.009179007 -0.008966527 -0.0008500951
v -0.009123672 -0.007139147 -0.00123322
v -0.009043409 -0.006102447 -0.001563479
v -0.009150275 -0.004982261 -0.001605189
v -0.009159503 -0.009702801 -0.000930112
v -0.009012254 -0.01008504 -0.001608123
v -0.009000761 -0.00964289 -0.00156943
v -0.008822714 -0.01001836 -0.002004808
v -0.009123508 -0.008094712 -0.00129878
v -0.008942857 -0.007118471 -0.001561043
v -0.00867938 -0.006074618 -0.001849693
v -0.008762311 -0.004941819 -0.001902169
v -0.009065687 -0.008933318 -0.001435886
v -0.008801217 -0.009574379 -0.001943071
v -0.008578351 -0.00985173 -0.002206
v -0.008913834 -0.008057939 -0.001680491
v -0.008802701 -0.008994253 -0.001872773
v -0.008554866 -0.009423284 -0.002122763
v -0.008231971 -0.009609402 -0.002338499
v -0.008564803 -0.008914855 -0.002087717
v -0.00825678 -0.009244239 -0.002282242
v -0.007885055 -0.009448896 -0.002340228
v -0.008574079 -0.008028544 -0.001994592
v -0.007924023 -0.009160931 -0.002295217
v -0.007593298 -0.009400872 -0.002178611
v -0.008269385 -0.008806023 -0.002239935
v -0.008611673 -0.007079004 -0.001869289
v -0.007622158 -0.009131702 -0.002103011
v -0.00740697 -0.009441348 -0.00186165
v -0.007941763 -0.008719655 -0.002236923
v -0.008300818 -0.007955464 -0.002124293
v -0.008374476 -0.007060409 -0.00200169
v -0.00745541 -0.009181485 -0.001819213
v -0.007462197 -0.00963868 -0.001350836
v -0.007672636 -0.00867768 -0.002009864
v -0.008005559 -0.007951372 -0.002143214
v -0.008387593 -0.006075025 -0.001960189
v -0.008439191 -0.004936282 -0.001970997
v -0.007337096 -0.00927663 -0.001341051
v -0.007438013 -0.009761675 -0.0008387488
v -0.008093008 -0.007048398 -0.002029775
v -0.00809327 -0.006056196 -0.001967845
v -0.008102076 -0.004946137 -0.001916991
v -0.007508675 -0.008674436 -0.001712167
v -0.007745753 -0.007882903 -0.001971934
v -0.007515394 -0.007817521 -0.001543286
v -0.00780728 -0.007047075 -0.001902126
v -0.007813277 -0.006069907 -0.001830763
v -0.007784739 -0.004945915 -0.00176253
v -0.00737129 -0.008756769 -0.00119851
v -0.007520203 -0.007074616 -0.001390716
v -0.00740232 -0.007115595 -0.000620461
v -0.00748235 -0.006052835 -0.001301851
v -0.007392381 -0.004920953 -0.001205161
v -0.007361943 -0.006131304 -0.0004651786
v -0.007237004 -0.004977574 -0.0003106726
v -0.007552547 -0.00619666 0.0003529543
v -0.007427245 -0.004981618 0.0005289619
v -0.007301558 -0.009334571 -0.0007781505
v -0.007423861 -0.009747194 -0.0003530096
v -0.0074547 -0.009321832 -0.0003066312
v -0.007570056 -0.00978177 1.052918E-05
v -0.007348378 -0.008779912 -0.0007164468
v -0.007590575 -0.009336835 7.480068E-05
v -0.007739428 -0.009903295 0.0002502996
v -0.007561003 -0.007194956 0.0002713574
v -0.007595473 -0.007928492 0.0002227784
v -0.007783056 -0.007239208 0.000575999
v -0.00739954 -0.008256118 -0.00118014
v -0.007475059 -0.008735561 -0.0001985497
v -0.007744264 -0.009390174 0.000272154
v -0.008045268 -0.01002964 0.0003032011
v -0.008056174 -0.009531772 0.000302852
v -0.007373 -0.008424201 -0.0006725419
v -0.007377285 -0.007826104 -0.000949054
v -0.007591994 -0.008750288 0.0001470423
v -0.007749831 -0.008767257 0.0003571546
v -0.008063435 -0.008812696 0.0004857904
v -0.007435268 -0.007812781 -0.0003579879
v -0.007475487 -0.008277877 -0.0001894938
v -0.007773076 -0.007932488 0.0004438855
v -0.008103189 -0.007986667 0.000591488
v -0.008149042 -0.007257752 0.0007320557
v -0.007791041 -0.006246005 0.000693106
v -0.00815257 -0.006285872 0.0008759674
v -0.00772273 -0.005104705 0.0008998573
v -0.008125234 -0.005162552 0.00110826
vt 0.546827 0.015138
vt 0.568937 0.0145632
vt 0.573975 0.0400833
vt 0.550065 0.0410023
vt 0.575956 0.0601663
vt 0.519461 0.0158455
vt 0.551979 0.0616619
vt 0.579181 0.0802207
vt 0.52276 0.0422813
vt 0.483713 0.0169937
vt 0.55488 0.082692
vt 0.58359 0.101581
vt 0.485872 0.0440529
vt 0.452601 0.0210973
vt 0.525088 0.0639212
vt 0.558663 0.105193
vt 0.58725 0.133382
vt 0.453669 0.0483312
vt 0.411399 0.0202123
vt 0.529406 0.0857488
vt 0.487758 0.0666079
vt 0.412181 0.0486124
vt 0.362671 0.0188046
vt 0.363296 0.0485948
vt 0.454834 0.0710239
vt 0.413313 0.0721878
vt 0.364346 0.0733281
vt 0.492333 0.0937195
vt 0.415985 0.100765
vt 0.367006 0.10331
vt 0.4574 0.0984506
vt 0.418511 0.125736
vt 0.369667 0.130987
vt 0.372793 0.16172
vt 0.459725 0.121062
vt 0.421821 0.156168
vt 0.375496 0.188594
vt 0.533077 0.104544
vt 0.496288 0.115226
vt 0.463228 0.151033
vt 0.424769 0.183104
vt 0.501761 0.145259
vt 0.538829 0.139657
vt 0.466387 0.177972
vt 0.427522 0.206898
vt 0.378195 0.21462
vt 0.569408 0.136491
vt 0.593116 0.163584
vt 0.575384 0.167305
vt 0.596095 0.18417
vt 0.506606 0.171436
vt 0.469327 0.199698
vt 0.430581 0.23257
vt 0.381054 0.241366
vt 0.544046 0.168666
vt 0.577154 0.189135
vt 0.59539 0.202266
vt 0.510621 0.194625
vt 0.553397 0.194403
vt 0.57704 0.207569
vt 0.592405 0.222827
vt 0.555086 0.212814
vt 0.575411 0.226646
vt 0.590674 0.240232
vt 0.514461 0.219787
vt 0.576529 0.243035
vt 0.5922 0.258151
vt 0.55536 0.231495
vt 0.472832 0.224416
vt 0.578795 0.261485
vt 0.595686 0.279201
vt 0.555477 0.248171
vt 0.515907 0.237104
vt 0.475741 0.241602
vt 0.582514 0.282078
vt 0.604491 0.303265
vt 0.556945 0.267383
vt 0.519182 0.254301
vt 0.43323 0.250325
vt 0.383606 0.2598
vt 0.588768 0.306197
vt 0.615115 0.337445
vt 0.478738 0.259286
vt 0.435867 0.268428
vt 0.386179 0.278585
vt 0.56058 0.288336
vt 0.520051 0.273724
vt 0.521202 0.301643
vt 0.482512 0.278646
vt 0.439533 0.288127
vt 0.389859 0.298956
vt 0.56669 0.314496
vt 0.489596 0.31683
vt 0.499782 0.357787
vt 0.446763 0.326902
vt 0.397332 0.338929
vt 0.458357 0.371139
vt 0.410448 0.387146
vt 0.470679 0.418983
vt 0.423283 0.434092
vt 0.59672 0.340553
vt 0.618758 0.363706
vt 0.60115 0.367572
vt 0.623123 0.382406
vt 0.572098 0.346644
vt 0.605375 0.386821
vt 0.629648 0.400805
vt 0.510976 0.406752
vt 0.544974 0.403392
vt 0.52151 0.433628
vt 0.545562 0.320263
vt 0.57573 0.374052
vt 0.610449 0.405268
vt 0.640146 0.422501
vt 0.619069 0.427624
vt 0.556126 0.351404
vt 0.527267 0.335862
vt 0.579411 0.39392
vt 0.583907 0.412009
vt 0.592972 0.434799
vt 0.533301 0.368634
vt 0.554966 0.37618
vt 0.550447 0.421735
vt 0.559011 0.445499
vt 0.530298 0.457952
vt 0.481516 0.447038
vt 0.491411 0.471678
vt 0.434951 0.463211
vt 0.445764 0.488931
vn 0.06301237 -0.105954 0.9923725
vn -0.01615921 0.01678832 0.9997285
vn -0.1962024 0.08384691 0.976972
vn -0.1667181 -0.1265209 0.9778535
vn -0.5915921 0.1682956 0.7884766
vn 0.1477837 -0.1631441 0.9754711
vn -0.5313427 -0.056484 0.8452718
vn -0.7846569 0.2267549 0.5769712
vn -0.325254 -0.1429744 0.9347557
vn 0.1971122 -0.1594132 0.9673336
vn -0.7445736 -0.02011844 0.6672371
vn -0.9448962 0.1355339 0.297996
vn -0.2591032 -0.1754034 0.949789
vn 0.1122301 -0.1401687 0.9837465
vn -0.6286296 -0.1109643 0.7697479
vn -0.9397052 -0.001166772 0.3419838
vn -0.9931385 0.02115948 -0.1150137
vn -0.358266 -0.1480734 0.9218025
vn 0.2000343 -0.1825516 0.9626324
vn -0.7945514 -0.08122272 0.6017398
vn -0.6106939 -0.1573954 0.7760668
vn -0.2749352 -0.1946303 0.9415571
vn 0.2249637 -0.1848463 0.956673
vn -0.2602636 -0.1852038 0.9476088
vn -0.6597368 -0.151884 0.7359882
vn -0.6112439 -0.1850934 0.7694943
vn -0.5924146 -0.1766646 0.7860246
vn -0.8620694 -0.1171621 0.4930615
vn -0.8576365 -0.1551719 0.4902869
vn -0.863655 -0.1328209 0.4862702
vn -0.8591297 -0.1508433 0.4890221
vn -0.9776988 -0.1136419 0.1766084
vn -0.9815406 -0.08830003 0.1696498
vn -0.9918458 -0.07062337 -0.1060861
vn -0.9762571 -0.1391166 0.1660382
vn -0.987739 -0.103243 -0.1171003
vn -0.9251994 -0.08413136 -0.3700378
vn -0.9392037 -0.006746181 0.3432941
vn -0.9765205 -0.09413271 0.19377
vn -0.9832576 -0.1048457 -0.1490365
vn -0.9084954 -0.08462268 -0.4092371
vn -0.9976441 -0.04240289 -0.05392673
vn -0.9993539 -0.0216809 -0.02866371
vn -0.9211761 -0.0593936 -0.3845868
vn -0.7451876 -0.065863 -0.6635944
vn -0.7636302 -0.1118645 -0.6358892
vn -0.9934353 -0.01022011 -0.1139385
vn -0.9424764 0.01151698 -0.3340744
vn -0.938351 0.02816024 -0.344535
vn -0.8358904 0.07488696 -0.543764
vn -0.9431245 0.003812965 -0.3324178
vn -0.7948251 -0.02267018 -0.6064149
vn -0.4962648 -0.03883789 -0.8673021
vn -0.4380423 -0.07421313 -0.8958858
vn -0.9348904 -0.009249531 -0.354816
vn -0.7705399 0.1107091 -0.6277035
vn -0.6287111 0.169446 -0.7589535
vn -0.7954958 0.03769742 -0.6047855
vn -0.7626671 0.05914278 -0.6440816
vn -0.5660269 0.1192808 -0.8157118
vn -0.3838272 0.1263751 -0.9147163
vn -0.5933564 0.05729416 -0.8028983
vn -0.3025086 0.08751743 -0.9491202
vn 0.1416846 0.1339267 -0.9808105
vn -0.5646931 0.08966617 -0.8204156
vn 0.2093333 0.1501035 -0.9662549
vn 0.6640084 0.2462261 -0.7060209
vn -0.257445 0.1088289 -0.960145
vn -0.6065928 0.008357591 -0.7949687
vn 0.7199141 0.2301703 -0.6547864
vn 0.9699018 0.2123755 -0.1191099
vn 0.3213336 0.1698385 -0.9316113
vn -0.2503249 0.1190423 -0.9608155
vn -0.3266658 0.04754664 -0.9439432
vn 0.9438276 0.1471358 -0.2958728
vn 0.9621204 -0.2503731 -0.1078779
vn 0.7657772 0.176767 -0.6183354
vn 0.2490707 0.1299178 -0.9597318
vn -0.2013631 0.003042023 -0.979512
vn -0.05054891 -0.0002371287 -0.9987215
vn 0.9782463 -0.1056831 -0.1785087
vn 0.9496148 -0.3041452 -0.07568091
vn 0.1391943 0.07804248 -0.9871851
vn 0.2160805 0.04220113 -0.9754631
vn 0.3036054 0.03559125 -0.9521329
vn 0.9238326 0.1206609 -0.3632826
vn 0.7098253 0.1136519 -0.6951483
vn 0.9273574 0.09587543 -0.3616849
vn 0.6628503 0.07867464 -0.7446072
vn 0.6781459 0.04172997 -0.7337415
vn 0.6740864 -0.006599713 -0.738623
vn 0.986643 0.07925353 -0.1423187
vn 0.9490433 0.02676554 -0.314007
vn 0.9998753 -0.0101716 0.01207519
vn 0.9360437 -0.0174091 -0.3514529
vn 0.936099 -0.07232555 -0.3442202
vn 0.9972394 -0.06756118 0.03080801
vn 0.9921406 -0.1135953 0.05247174
vn 0.9126413 -0.09532616 0.3974907
vn 0.9049152 -0.1170541 0.4091783
vn 0.9937652 -0.08120289 0.07639805
vn 0.9647241 -0.06013361 0.2563033
vn 0.9492936 0.005258308 0.314347
vn 0.8862277 -0.04638882 0.4609213
vn 0.9920834 0.05669455 0.1120543
vn 0.8812099 -0.03770325 0.4712192
vn 0.4351861 -0.07015729 0.897603
vn 0.9231353 -0.06715111 0.3785655
vn 0.8909009 -0.04043499 0.4523944
vn 0.6162861 -0.09933627 0.7812322
vn 0.9880904 0.04647509 -0.1466877
vn 0.9616626 -0.01273214 0.2739395
vn 0.5102306 -0.0689959 0.8572656
vn -0.01615921 0.01678832 0.9997285
vn 0.06301237 -0.105954 0.9923725
vn 0.9940901 0.02256135 0.1061867
vn 0.9864786 0.07878534 -0.143711
vn 0.8877531 -0.04571061 0.4580449
vn 0.6021157 -0.103938 0.7916147
vn 0.1477837 -0.1631441 0.9754711
vn 0.9611831 0.0497263 0.2713935
vn 0.9677455 -0.01092706 0.2516926
vn 0.6125651 -0.1115542 0.7825086
vn 0.1971122 -0.1594132 0.9673336
vn 0.1122301 -0.1401687 0.9837465
vn 0.6590215 -0.1391152 0.7391465
vn 0.2000343 -0.1825516 0.9626324
vn 0.673984 -0.141432 0.7250811
vn 0.2249637 -0.1848463 0.956673
g NTF human hands.R.001_0
f 3/3/3 2/2/2 1/1/1
f 1/1/1 4/4/4 3/3/3
f 5/5/5 3/3/3 4/4/4
f 4/4/4 1/1/1 6/6/6
f 4/4/4 7/7/7 5/5/5
f 8/8/8 5/5/5 7/7/7
f 6/6/6 9/9/9 4/4/4
f 7/7/7 4/4/4 9/9/9
f 9/9/9 6/6/6 10/10/10
f 7/7/7 11/11/11 8/8/8
f 12/12/12 8/8/8 11/11/11
f 10/10/10 13/13/13 9/9/9
f 13/13/13 10/10/10 14/14/14
f 9/9/9 15/15/15 7/7/7
f 11/11/11 7/7/7 15/15/15
f 15/15/15 9/9/9 13/13/13
f 11/11/11 16/16/16 12/12/12
f 17/17/17 12/12/12 16/16/16
f 14/14/14 18/18/18 13/13/13
f 18/18/18 14/14/14 19/19/19
f 15/15/15 20/20/20 11/11/11
f 16/16/16 11/11/11 20/20/20
f 13/13/13 21/21/21 15/15/15
f 21/21/21 13/13/13 18/18/18
f 20/20/20 15/15/15 21/21/21
f 19/19/19 22/22/22 18/18/18
f 22/22/22 19/19/19 23/23/23
f 23/23/23 24/24/24 22/22/22
f 18/18/18 25/25/25 21/21/21
f 25/25/25 18/18/18 22/22/22
f 26/26/26 22/22/22 24/24/24
f 22/22/22 26/26/26 25/25/25
f 24/24/24 27/27/27 26/26/26
f 21/21/21 28/28/28 20/20/20
f 28/28/28 21/21/21 25/25/25
f 29/29/29 26/26/26 27/27/27
f 27/27/27 30/30/30 29/29/29
f 31/31/31 25/25/25 26/26/26
f 25/25/25 31/31/31 28/28/28
f 26/26/26 29/29/29 31/31/31
f 32/32/32 29/29/29 30/30/30
f 30/30/30 33/33/33 32/32/32
f 32/32/32 33/33/33 34/34/34
f 35/35/35 31/31/31 29/29/29
f 29/29/29 32/32/32 35/35/35
f 28/28/28 31/31/31 35/35/35
f 34/34/34 36/36/36 32/32/32
f 35/35/35 32/32/32 36/36/36
f 36/36/36 34/34/34 37/37/37
f 38/38/38 20/20/20 28/28/28
f 20/20/20 38/38/38 16/16/16
f 35/35/35 39/39/39 28/28/28
f 28/28/28 39/39/39 38/38/38
f 36/36/36 40/40/40 35/35/35
f 39/39/39 35/35/35 40/40/40
f 37/37/37 41/41/41 36/36/36
f 40/40/40 36/36/36 41/41/41
f 38/38/38 39/39/39 42/42/42
f 40/40/40 42/42/42 39/39/39
f 16/16/16 38/38/38 43/43/43
f 42/42/42 43/43/43 38/38/38
f 42/42/42 40/40/40 44/44/44
f 41/41/41 44/44/44 40/40/40
f 45/45/45 41/41/41 37/37/37
f 37/37/37 46/46/46 45/45/45
f 43/43/43 47/47/47 16/16/16
f 16/16/16 47/47/47 17/17/17
f 48/48/48 17/17/17 47/47/47
f 47/47/47 49/49/49 48/48/48
f 49/49/49 47/47/47 43/43/43
f 50/50/50 48/48/48 49/49/49
f 43/43/43 42/42/42 51/51/51
f 44/44/44 51/51/51 42/42/42
f 52/52/52 44/44/44 41/41/41
f 41/41/41 45/45/45 52/52/52
f 53/53/53 45/45/45 46/46/46
f 46/46/46 54/54/54 53/53/53
f 43/43/43 55/55/55 49/49/49
f 51/51/51 55/55/55 43/43/43
f 49/49/49 56/56/56 50/50/50
f 56/56/56 49/49/49 55/55/55
f 57/57/57 50/50/50 56/56/56
f 58/58/58 51/51/51 44/44/44
f 44/44/44 52/52/52 58/58/58
f 59/59/59 55/55/55 51/51/51
f 55/55/55 59/59/59 56/56/56
f 51/51/51 58/58/58 59/59/59
f 56/56/56 60/60/60 57/57/57
f 60/60/60 56/56/56 59/59/59
f 61/61/61 57/57/57 60/60/60
f 62/62/62 59/59/59 58/58/58
f 59/59/59 62/62/62 60/60/60
f 60/60/60 63/63/63 61/61/61
f 63/63/63 60/60/60 62/62/62
f 64/64/64 61/61/61 63/63/63
f 65/65/65 58/58/58 52/52/52
f 58/58/58 65/65/65 62/62/62
f 63/63/63 66/66/66 64/64/64
f 67/67/67 64/64/64 66/66/66
f 62/62/62 68/68/68 63/63/63
f 68/68/68 62/62/62 65/65/65
f 66/66/66 63/63/63 68/68/68
f 52/52/52 69/69/69 65/65/65
f 69/69/69 52/52/52 45/45/45
f 45/45/45 53/53/53 69/69/69
f 66/66/66 70/70/70 67/67/67
f 71/71/71 67/67/67 70/70/70
f 68/68/68 72/72/72 66/66/66
f 70/70/70 66/66/66 72/72/72
f 65/65/65 73/73/73 68/68/68
f 73/73/73 65/65/65 69/69/69
f 72/72/72 68/68/68 73/73/73
f 74/74/74 69/69/69 53/53/53
f 69/69/69 74/74/74 73/73/73
f 70/70/70 75/75/75 71/71/71
f 76/76/76 71/71/71 75/75/75
f 72/72/72 77/77/77 70/70/70
f 75/75/75 70/70/70 77/77/77
f 73/73/73 78/78/78 72/72/72
f 78/78/78 73/73/73 74/74/74
f 77/77/77 72/72/72 78/78/78
f 53/53/53 79/79/79 74/74/74
f 79/79/79 53/53/53 54/54/54
f 54/54/54 80/80/80 79/79/79
f 75/75/75 81/81/81 76/76/76
f 82/82/82 76/76/76 81/81/81
f 74/74/74 83/83/83 78/78/78
f 83/83/83 74/74/74 79/79/79
f 84/84/84 79/79/79 80/80/80
f 79/79/79 84/84/84 83/83/83
f 80/80/80 85/85/85 84/84/84
f 77/77/77 86/86/86 75/75/75
f 81/81/81 75/75/75 86/86/86
f 78/78/78 87/87/87 77/77/77
f 87/87/87 78/78/78 83/83/83
f 86/86/86 77/77/77 87/87/87
f 87/87/87 88/88/88 86/86/86
f 83/83/83 89/89/89 87/87/87
f 89/89/89 83/83/83 84/84/84
f 88/88/88 87/87/87 89/89/89
f 90/90/90 84/84/84 85/85/85
f 84/84/84 90/90/90 89/89/89
f 85/85/85 91/91/91 90/90/90
f 86/86/86 92/92/92 81/81/81
f 92/92/92 86/86/86 88/88/88
f 93/93/93 89/89/89 90/90/90
f 89/89/89 93/93/93 88/88/88
f 88/88/88 93/93/93 94/94/94
f 94/94/94 93/93/93 95/95/95
f 90/90/90 95/95/95 93/93/93
f 95/95/95 90/90/90 91/91/91
f 91/91/91 96/96/96 95/95/95
f 97/97/97 95/95/95 96/96/96
f 95/95/95 97/97/97 94/94/94
f 96/96/96 98/98/98 97/97/97
f 99/99/99 97/97/97 98/98/98
f 98/98/98 100/100/100 99/99/99
f 101/101/101 81/81/81 92/92/92
f 81/81/81 101/101/101 82/82/82
f 102/102/102 82/82/82 101/101/101
f 101/101/101 103/103/103 102/102/102
f 104/104/104 102/102/102 103/103/103
f 92/92/92 105/105/105 101/101/101
f 103/103/103 101/101/101 105/105/105
f 103/103/103 106/106/106 104/104/104
f 107/107/107 104/104/104 106/106/106
f 97/97/97 99/99/99 108/108/108
f 108/108/108 94/94/94 97/97/97
f 94/94/94 108/108/108 109/109/109
f 110/110/110 108/108/108 99/99/99
f 109/109/109 108/108/108 110/110/110
f 105/105/105 92/92/92 111/111/111
f 88/88/88 111/111/111 92/92/92
f 105/105/105 112/112/112 103/103/103
f 106/106/106 103/103/103 112/112/112
f 106/106/106 113/113/113 107/107/107
f 114/114/114 107/107/107 113/113/113
f 113/113/113 115/115/115 114/114/114
f 111/111/111 116/116/116 105/105/105
f 112/112/112 105/105/105 116/116/116
f 111/111/111 88/88/88 117/117/117
f 117/117/117 116/116/116 111/111/111
f 94/94/94 117/117/117 88/88/88
f 116/116/116 117/117/117 94/94/94
f 112/112/112 118/118/118 106/106/106
f 113/113/113 106/106/106 118/118/118
f 115/115/115 113/113/113 119/119/119
f 118/118/118 119/119/119 113/113/113
f 119/119/119 120/120/120 115/115/115
f 94/94/94 121/121/121 116/116/116
f 109/109/109 121/121/121 94/94/94
f 119/119/119 118/118/118 109/109/109
f 116/116/116 122/122/122 112/112/112
f 122/122/122 116/116/116 121/121/121
f 118/118/118 112/112/112 122/122/122
f 122/122/122 109/109/109 118/118/118
f 121/121/121 109/109/109 122/122/122
f 120/120/120 119/119/119 123/123/123
f 109/109/109 123/123/123 119/119/119
f 123/123/123 124/124/124 120/120/120
f 110/110/110 123/123/123 109/109/109
f 124/124/124 123/123/123 110/110/110
f 110/110/110 125/125/125 124/124/124
f 125/125/125 110/110/110 126/126/126
f 99/99/99 126/126/126 110/110/110
f 126/126/126 99/99/99 100/100/100
f 126/126/126 127/127/127 125/125/125
f 100/100/100 128/128/128 126/126/126
f 127/127/127 126/126/126 128/128/128
f 128/128/128 129/129/129 127/127/127
