g obracadlo
v 0.006091425 -0.004797921 0.007491078
v 0.006091425 -0.005423849 0.004781933
v 0.006091425 -0.005423849 -2.384186E-09
v 0.006091425 0.005423849 0
v 0.006091425 -0.003087852 0.009474311
v 0.006091425 -0.000751853 0.01020022
v 0.006091425 0.000751853 0.01020022
v 0.006091425 0.003087852 0.009474311
v 0.006091425 0.004797919 0.007491078
v 0.006091425 0.005423849 0.004781933
v 0.006698286 -0.0007518554 0.01020022
v 0.006091425 0.000751853 0.01020022
v 0.006698286 0.000751853 0.01020022
v 0.006091425 -0.000751853 0.01020022
v 0.006091425 -0.003087852 0.009474311
v 0.006698286 -0.003087852 0.009474311
v 0.006091425 -0.004797921 0.007491078
v 0.006698286 -0.004797921 0.007491078
v 0.006091425 -0.005423849 0.004781933
v 0.006698286 -0.005423849 0.004781933
v 0.006091425 -0.005423849 -2.384186E-09
v 0.006698286 -0.005423849 -2.384186E-09
v 0.006091425 -0.005423849 -0.0008227849
v 0.006698286 -0.005423849 -0.0008227849
v 0 -0.005423849 -2.384186E-09
v 0 -0.005423849 -0.0008227849
v -0.006091425 -0.005423849 -0.0008227849
v -0.006091425 -0.005423849 -2.384186E-09
v -0.006698286 -0.005423849 -2.384186E-09
v -0.006698286 -0.005423849 -0.0008227849
v -0.006698286 -0.005423849 0.004781933
v -0.006091425 -0.005423849 0.004781933
v -0.006698286 -0.004797921 0.007491078
v -0.006091425 -0.004797921 0.007491078
v -0.006698286 -0.003087852 0.009474311
v -0.006091425 -0.003087852 0.009474311
v -0.006698286 -0.0007518554 0.01020022
v -0.006091425 -0.000751853 0.01020022
v -0.006091425 0.000751853 0.01020022
v -0.006698286 0.000751853 0.01020022
v 0.006698286 0.003087852 0.009474311
v 0.006698286 0.000751853 0.01020022
v 0.006091425 0.000751853 0.01020022
v 0.006091425 0.003087852 0.009474311
v 0.006698286 0.004797919 0.007491078
v 0.006091425 0.004797919 0.007491078
v 0.006698286 0.005423849 0.004781933
v 0.006091425 0.005423849 0.004781933
v 0.006698286 0.005423849 0
v 0.006091425 0.005423849 0
v 0.006698286 0.005423849 -0.0008227825
v 0.006091425 0.005423849 -0.0008227825
v 0 0.005423849 -0.0008227825
v 0 0.005423849 0
v -0.006091425 0.005423849 0
v -0.006091425 0.005423849 -0.0008227825
v -0.006698286 0.005423849 -0.0008227825
v -0.006698286 0.005423849 0
v -0.006091425 0.005423849 0.004781933
v -0.006698286 0.005423849 0.004781933
v -0.006091425 0.004797919 0.007491078
v -0.006698286 0.004797919 0.007491078
v -0.006091425 0.003087852 0.009474311
v -0.006698286 0.003087852 0.009474311
v -0.006091425 0.000751853 0.01020022
v -0.006698286 0.000751853 0.01020022
v 0.006698286 0.004797919 0.007491078
v 0.006698286 0.005423849 0.004781933
v 0.006698286 0.005423849 0
v 0.006698286 0.003087852 0.009474311
v 0.006698286 0.000751853 0.01020022
v 0.006698286 -0.0007518554 0.01020022
v 0.006698286 -0.003087852 0.009474311
v 0.006698286 -0.004797921 0.007491078
v 0.006698286 -0.005423849 0.004781933
v 0.006698286 -0.005423849 -2.384186E-09
v 0.006698286 -0.005423849 -0.0008227849
v 0.006698286 0.005423849 -0.0008227825
v 0.006698286 -0.005423849 -0.0008227849
v 0.006698286 0.005423849 -0.0008227825
v 0.006091425 0.005423849 -0.0008227825
v 0.006091425 -0.005423849 -0.0008227849
v 0 -0.005423849 -0.0008227849
v 0 0.005423849 -0.0008227825
v -0.006091425 0.005423849 -0.0008227825
v -0.006091425 -0.005423849 -0.0008227849
v -0.006698286 -0.005423849 -0.0008227849
v -0.006698286 0.005423849 -0.0008227825
v 0.006091425 -0.005423849 -2.384186E-09
v 0 0.005423849 0
v 0.006091425 0.005423849 0
v 0 -0.005423849 -2.384186E-09
v -0.006091425 -0.005423849 -2.384186E-09
v -0.006091425 0.005423849 0
v -0.006091425 0.005423849 0
v -0.006091425 -0.005423849 -2.384186E-09
v -0.006091425 -0.005423849 0.004781933
v -0.006091425 -0.004797921 0.007491078
v -0.006091425 -0.003087852 0.009474311
v -0.006091425 -0.000751853 0.01020022
v -0.006091425 0.000751853 0.01020022
v -0.006091425 0.003087852 0.009474311
v -0.006091425 0.004797919 0.007491078
v -0.006091425 0.005423849 0.004781933
v -0.006698286 -0.004797921 0.007491078
v -0.006698286 -0.005423849 0.004781933
v -0.006698286 -0.005423849 -2.384186E-09
v -0.006698286 0.005423849 0
v -0.006698286 -0.005423849 -0.0008227849
v -0.006698286 0.005423849 -0.0008227825
v -0.006698286 -0.003087852 0.009474311
v -0.006698286 -0.0007518554 0.01020022
v -0.006698286 0.000751853 0.01020022
v -0.006698286 0.003087852 0.009474311
v -0.006698286 0.004797919 0.007491078
v -0.006698286 0.005423849 0.004781933
vt 0.950982 0.4207508
vt 0.9633513 0.4236087
vt 0.9851846 0.4236087
vt 0.9851846 0.3740805
vt 0.941927 0.412943
vt 0.9386126 0.4022774
vt 0.9386126 0.3954118
vt 0.941927 0.3847461
vt 0.950982 0.3769383
vt 0.9633514 0.3740805
vt 0.9471101 0.6140652
vt 0.9443392 0.6209307
vt 0.94711 0.6209307
vt 0.9443393 0.6140652
vt 0.9443394 0.6028964
vt 0.9471101 0.6028964
vt 0.9443395 0.5909401
vt 0.9471102 0.5909401
vt 0.9443395 0.578245
vt 0.9471103 0.578245
vt 0.9443395 0.5564119
vt 0.9471103 0.5564119
vt 0.9443395 0.5526552
vt 0.9471103 0.5526552
vt 0.9165276 0.5564119
vt 0.9165276 0.5526552
vt 0.8887155 0.5526552
vt 0.8887155 0.5564119
vt 0.8859447 0.5564119
vt 0.8859447 0.5526552
vt 0.8859447 0.5782452
vt 0.8887155 0.5782452
vt 0.8859447 0.5909404
vt 0.8887155 0.5909404
vt 0.8859448 0.6028969
vt 0.8887155 0.6028969
vt 0.8859448 0.6140656
vt 0.8887155 0.6140656
vt 0.8887156 0.6209312
vt 0.8859448 0.6209313
vt 0.8127952 0.5654737
vt 0.8239638 0.5654738
vt 0.8239638 0.562703
vt 0.8127953 0.562703
vt 0.8008391 0.5654736
vt 0.8008391 0.5627029
vt 0.7881442 0.5654736
vt 0.7881442 0.5627028
vt 0.7663112 0.5654736
vt 0.7663112 0.5627028
vt 0.7625546 0.5654736
vt 0.7625546 0.5627028
vt 0.7625546 0.5348911
vt 0.7663112 0.5348911
vt 0.7663112 0.5070791
vt 0.7625546 0.5070791
vt 0.7625545 0.5043083
vt 0.7663112 0.5043083
vt 0.7881446 0.5070791
vt 0.7881446 0.5043083
vt 0.8008399 0.5070791
vt 0.8008399 0.5043083
vt 0.8127964 0.5070791
vt 0.8127964 0.5043083
vt 0.8239652 0.5070792
vt 0.8239652 0.5043083
vt 0.9667482 0.1554753
vt 0.969606 0.143106
vt 0.969606 0.1212727
vt 0.9589404 0.1645303
vt 0.9482748 0.1678447
vt 0.9414092 0.1678447
vt 0.9307435 0.1645303
vt 0.9229357 0.1554753
vt 0.9200779 0.143106
vt 0.9200779 0.1212727
vt 0.9200779 0.1175161
vt 0.969606 0.1175161
vt 0.9812436 0.05322009
vt 0.9812436 0.003691962
vt 0.9784729 0.003691962
vt 0.9784729 0.05322009
vt 0.9506608 0.05322009
vt 0.9506608 0.003691962
vt 0.9228487 0.003691962
vt 0.9228487 0.05322009
vt 0.9200779 0.05322009
vt 0.9200779 0.003691962
vt 0.975702 0.06060402
vt 0.94789 0.1101322
vt 0.975702 0.1101322
vt 0.94789 0.06060402
vt 0.9200779 0.06060402
vt 0.9200779 0.1101322
vt 0.7405555 0.439197
vt 0.6910273 0.439197
vt 0.6910273 0.4610302
vt 0.6938851 0.4733996
vt 0.7016929 0.4824546
vt 0.7123586 0.4857689
vt 0.7192242 0.4857689
vt 0.7298898 0.4824546
vt 0.7376976 0.4733996
vt 0.7405555 0.4610302
vt 0.8005137 0.4576379
vt 0.7881444 0.4547801
vt 0.7663112 0.4547801
vt 0.7663112 0.5043083
vt 0.7625545 0.4547801
vt 0.7625545 0.5043083
vt 0.8095687 0.4654457
vt 0.8128831 0.4761114
vt 0.8128831 0.482977
vt 0.8095687 0.4936426
vt 0.8005138 0.5014504
vt 0.7881444 0.5043083
vn -1 0 0
vn -1 0 0
vn -1 0 0
vn -1 0 0
vn -1 0 0
vn -1 0 0
vn -1 0 0
vn -1 0 0
vn -1 0 0
vn -1 0 0
vn 0 -0.1500639 0.9886763
vn 0 0.1500639 0.9886763
vn 0 0.1500639 0.9886763
vn 0 -0.1500639 0.9886763
vn 0 -0.5482464 0.8363168
vn 0 -0.5482464 0.8363168
vn 0 -0.8918859 0.4522604
vn 0 -0.8918859 0.4522604
vn 0 -0.9935626 0.1132849
vn 0 -0.9935626 0.1132849
vn 0 -1 0
vn 0 -1 0
vn 0 -1 0
vn 0 -1 0
vn 0 -1 0
vn 0 -1 0
vn 0 -1 0
vn 0 -1 0
vn 0 -1 0
vn 0 -1 0
vn 0 -0.9935626 0.1132849
vn 0 -0.9935626 0.1132849
vn 0 -0.8918859 0.4522604
vn 0 -0.8918859 0.4522604
vn 0 -0.5482464 0.8363168
vn 0 -0.5482464 0.8363168
vn 0 -0.1500639 0.9886763
vn 0 -0.1500639 0.9886763
vn 0 0.1500639 0.9886763
vn 0 0.1500639 0.9886763
vn 0 0.5482464 0.8363168
vn 0 0.1500639 0.9886763
vn 0 0.1500639 0.9886763
vn 0 0.5482464 0.8363168
vn 0 0.8918859 0.4522604
vn 0 0.8918859 0.4522604
vn 0 0.9935626 0.1132849
vn 0 0.9935626 0.1132849
vn 0 1 0
vn 0 1 0
vn 0 1 0
vn 0 1 0
vn 0 1 0
vn 0 1 0
vn 0 1 0
vn 0 1 0
vn 0 1 0
vn 0 1 0
vn 0 0.9935626 0.1132849
vn 0 0.9935626 0.1132849
vn 0 0.8918859 0.4522604
vn 0 0.8918859 0.4522604
vn 0 0.5482464 0.8363168
vn 0 0.5482464 0.8363168
vn 0 0.1500639 0.9886763
vn 0 0.1500639 0.9886763
vn 1 0 0
vn 1 0 0
vn 1 0 0
vn 1 0 0
vn 1 0 0
vn 1 0 0
vn 1 0 0
vn 1 0 0
vn 1 0 0
vn 1 0 0
vn 1 0 0
vn 1 0 0
vn 0 0 -1
vn 0 0 -1
vn 0 0 -1
vn 0 0 -1
vn 0 0 -1
vn 0 0 -1
vn 0 0 -1
vn 0 0 -1
vn 0 0 -1
vn 0 0 -1
vn 0 0 1
vn 0 0 1
vn 0 0 1
vn 0 0 1
vn 0 0 1
vn 0 0 1
vn 1 0 0
vn 1 0 0
vn 1 0 0
vn 1 0 0
vn 1 0 0
vn 1 0 0
vn 1 0 0
vn 1 0 0
vn 1 0 0
vn 1 0 0
vn -1 0 0
vn -1 0 0
vn -1 0 0
vn -1 0 0
vn -1 0 0
vn -1 0 0
vn -1 0 0
vn -1 0 0
vn -1 0 0
vn -1 0 0
vn -1 0 0
vn -1 0 0
g obracadlo_0
f 3/3/3 2/2/2 1/1/1
f 1/1/1 4/4/4 3/3/3
f 1/1/1 5/5/5 4/4/4
f 5/5/5 6/6/6 4/4/4
f 6/6/6 7/7/7 4/4/4
f 7/7/7 8/8/8 4/4/4
f 8/8/8 9/9/9 4/4/4
f 9/9/9 10/10/10 4/4/4
f 13/13/13 12/12/12 11/11/11
f 12/12/12 14/14/14 11/11/11
f 14/14/14 15/15/15 11/11/11
f 15/15/15 16/16/16 11/11/11
f 15/15/15 17/17/17 16/16/16
f 17/17/17 18/18/18 16/16/16
f 17/17/17 19/19/19 18/18/18
f 19/19/19 20/20/20 18/18/18
f 20/20/20 19/19/19 21/21/21
f 22/22/22 20/20/20 21/21/21
f 21/21/21 23/23/23 22/22/22
f 23/23/23 24/24/24 22/22/22
f 21/21/21 25/25/25 23/23/23
f 25/25/25 26/26/26 23/23/23
f 26/26/26 25/25/25 27/27/27
f 25/25/25 28/28/28 27/27/27
f 27/27/27 28/28/28 29/29/29
f 30/30/30 27/27/27 29/29/29
f 31/31/31 29/29/29 28/28/28
f 32/32/32 31/31/31 28/28/28
f 31/31/31 32/32/32 33/33/33
f 32/32/32 34/34/34 33/33/33
f 33/33/33 34/34/34 35/35/35
f 34/34/34 36/36/36 35/35/35
f 35/35/35 36/36/36 37/37/37
f 36/36/36 38/38/38 37/37/37
f 38/38/38 39/39/39 37/37/37
f 39/39/39 40/40/40 37/37/37
f 43/43/43 42/42/42 41/41/41
f 44/44/44 43/43/43 41/41/41
f 44/44/44 41/41/41 45/45/45
f 46/46/46 44/44/44 45/45/45
f 46/46/46 45/45/45 47/47/47
f 48/48/48 46/46/46 47/47/47
f 48/48/48 47/47/47 49/49/49
f 50/50/50 48/48/48 49/49/49
f 49/49/49 51/51/51 50/50/50
f 51/51/51 52/52/52 50/50/50
f 52/52/52 53/53/53 50/50/50
f 53/53/53 54/54/54 50/50/50
f 54/54/54 53/53/53 55/55/55
f 53/53/53 56/56/56 55/55/55
f 56/56/56 57/57/57 55/55/55
f 57/57/57 58/58/58 55/55/55
f 59/59/59 55/55/55 58/58/58
f 60/60/60 59/59/59 58/58/58
f 61/61/61 59/59/59 60/60/60
f 62/62/62 61/61/61 60/60/60
f 63/63/63 61/61/61 62/62/62
f 64/64/64 63/63/63 62/62/62
f 65/65/65 63/63/63 64/64/64
f 66/66/66 65/65/65 64/64/64
f 69/69/69 68/68/68 67/67/67
f 69/69/69 67/67/67 70/70/70
f 69/69/69 70/70/70 71/71/71
f 69/69/69 71/71/71 72/72/72
f 69/69/69 72/72/72 73/73/73
f 69/69/69 73/73/73 74/74/74
f 69/69/69 74/74/74 75/75/75
f 75/75/75 76/76/76 69/69/69
f 76/76/76 77/77/77 69/69/69
f 77/77/77 78/78/78 69/69/69
f 81/81/81 80/80/80 79/79/79
f 82/82/82 81/81/81 79/79/79
f 82/82/82 83/83/83 81/81/81
f 83/83/83 84/84/84 81/81/81
f 84/84/84 83/83/83 85/85/85
f 83/83/83 86/86/86 85/85/85
f 85/85/85 86/86/86 87/87/87
f 88/88/88 85/85/85 87/87/87
f 91/91/91 90/90/90 89/89/89
f 90/90/90 92/92/92 89/89/89
f 92/92/92 90/90/90 93/93/93
f 90/90/90 94/94/94 93/93/93
f 97/97/97 96/96/96 95/95/95
f 95/95/95 98/98/98 97/97/97
f 95/95/95 99/99/99 98/98/98
f 95/95/95 100/100/100 99/99/99
f 95/95/95 101/101/101 100/100/100
f 95/95/95 102/102/102 101/101/101
f 95/95/95 103/103/103 102/102/102
f 95/95/95 104/104/104 103/103/103
f 107/107/107 106/106/106 105/105/105
f 105/105/105 108/108/108 107/107/107
f 109/109/109 107/107/107 108/108/108
f 110/110/110 109/109/109 108/108/108
f 105/105/105 111/111/111 108/108/108
f 111/111/111 112/112/112 108/108/108
f 112/112/112 113/113/113 108/108/108
f 113/113/113 114/114/114 108/108/108
f 114/114/114 115/115/115 108/108/108
f 115/115/115 116/116/116 108/108/108
