g plate_LOD2
v -0.008023272 -0.008956514 0.0007981921
v -0.002492595 -0.0009151536 0.0007981933
v -0.002492595 -0.0009151536 0.001240036
v -0.008023272 -0.008956514 0.001240035
v -0.002277521 -0.001313075 0.001793249
v -0.007574745 -0.009015004 0.001793247
v -0.006194886 -0.009239358 0.0007322346
v -0.005466231 -0.01214652 0.0007322346
v -0.007905255 -0.01275784 0.0005604111
v -0.008633913 -0.009850677 0.0005604111
v -0.009002773 -0.009943129 0.0008980894
v -0.008274117 -0.01285029 0.0008980893
v -0.009467897 -0.01005971 0.0008961313
v -0.00873924 -0.01296687 0.0008961313
v -0.009757774 -0.01013236 0.0003523362
v -0.009029116 -0.01303953 0.0003523362
v -0.009416129 -0.01004673 3.064712E-06
v -0.008687473 -0.0129539 3.064831E-06
v -0.00625159 -0.009253568 0.0005400453
v -0.005522935 -0.01216073 0.0005400453
v -0.001502446 -0.002379313 0.0006585681
v 0.001494644 -1.033328E-05 0.0002790596
v 0.001494644 -0.002379313 0.0006585681
v -0.001502446 -1.033328E-05 0.0002790596
v 0.001494644 0.0008282632 0.0001176166
v -0.001502446 0.0008282632 0.0001176166
v 0.001494644 0.001097539 0.0003695062
v -0.001502446 0.001097539 0.0003695062
v 0.001494644 0.0008561723 0.000792943
v -0.001502446 0.0008561723 0.000792943
v 0.001494645 0.0004803831 0.0007857941
v -0.001502446 0.0004803831 0.0007857941
v 0.001494644 9.648721E-05 0.0004468119
v -0.001502446 9.648721E-05 0.0004468119
v -0.001502446 -0.002464938 0.0006124809
v 0.001494644 -0.002464938 0.0006124809
v 0.006348517 -0.02192759 0.001240036
v 0.006190401 -0.02143856 0.001762166
v 0.01424817 -0.009722915 0.001762168
v 0.0147614 -0.009695625 0.001240038
v 0.0147614 -0.009695625 0.0007981951
v 0.006348517 -0.02192759 0.000798193
v 0.001494644 0.0008641244 3.064712E-06
v -0.001502446 -0.0023983 0.0005400452
v 0.001494644 -0.002398301 0.0005400452
v -0.001502446 0.0008641244 3.064831E-06
v 0.001494644 0.001216337 0.0003523362
v -0.001502446 0.001216337 0.0003523362
v 0.001494644 0.0009174927 0.0008961311
v -0.001502446 0.0009174927 0.0008961312
v 0.001494644 0.0004379816 0.0008980894
v -0.001502445 0.0004379835 0.0008980894
v 0.001494644 5.771069E-05 0.0005604111
v -0.001502445 5.771069E-05 0.0005604111
v -0.001502445 -0.002456759 0.0007322346
v 0.001494644 -0.002456758 0.0007322346
v 0.002525315 -0.001279903 0.0007981941
v -0.002492595 -0.0009151536 0.001240036
v -0.002492595 -0.0009151536 0.0007981933
v 0.002525315 -0.001279902 0.001240037
v -0.002277521 -0.001313075 0.001793249
v 0.002528579 -0.001662428 0.001762167
v 0.01424817 -0.009722915 0.001762168
v 0.0147614 -0.009695625 0.001240038
v 0.0147614 -0.009695625 0.0007981951
v 0.006348517 -0.02192759 0.000798193
v 0.0147614 -0.009695625 0.0007981951
v 0.002525315 -0.001279903 0.0007981941
v -0.005887571 -0.01351187 0.0007981922
v -0.002492595 -0.0009151536 0.0007981933
v -0.008023272 -0.008956514 0.0007981921
v -0.007942867 -0.01276727 0.0004468116
v -0.005458295 -0.01214453 0.0006124809
v -0.006186953 -0.00923737 0.000612481
v -0.008671522 -0.009860104 0.0004468116
v -0.009043902 -0.009953437 0.0007857943
v -0.008315244 -0.0128606 0.0007857939
v -0.009408415 -0.0100448 0.000792943
v -0.00867976 -0.01295197 0.0007929432
v -0.00964254 -0.01010348 0.0003695061
v -0.008913883 -0.01301065 0.0003695062
v -0.009381345 -0.01003802 0.0001176166
v -0.008652689 -0.01294518 0.0001176167
v -0.00856791 -0.009834132 0.0002790595
v -0.007839254 -0.0127413 0.0002790595
v -0.006270007 -0.009258186 0.0006585681
v -0.005541349 -0.01216535 0.0006585681
v 0.006348517 -0.02192759 0.001240036
v -0.005529194 -0.01337807 0.001762165
v 0.006190401 -0.02143856 0.001762166
v -0.005887572 -0.01351187 0.001240035
v 0.006348517 -0.02192759 0.000798193
v -0.005887571 -0.01351187 0.0007981922
v -0.008023272 -0.008956514 0.0007981921
v -0.008023272 -0.008956514 0.001240035
v -0.007574745 -0.009015004 0.001793247
v 0.002528579 -0.001662428 0.001762167
v 0.01424817 -0.009722915 0.001762168
v 0.006190401 -0.02143856 0.001762166
v -0.005529194 -0.01337807 0.001762165
v -0.002277521 -0.001313075 0.001793249
v -0.007574745 -0.009015004 0.001793247
vt 0.2229648 0.4841129
vt 0.2229649 0.3496136
vt 0.2168755 0.3496136
vt 0.2168756 0.4841129
vt 0.2074455 0.3524523
vt 0.2074457 0.4812745
vt 0.9315538 0.7975731
vt 0.9774596 0.7975731
vt 0.9774595 0.7589698
vt 0.9315538 0.7589698
vt 0.9315538 0.7511803
vt 0.9774596 0.7511803
vt 0.9315538 0.7438358
vt 0.9774596 0.7438357
vt 0.9315538 0.7343315
vt 0.9774596 0.7343315
vt 0.9315539 0.7267339
vt 0.9774596 0.7267338
vt 0.9315538 0.6760905
vt 0.9774596 0.6760905
vt 0.382039 0.9279929
vt 0.3452911 0.9738985
vt 0.382039 0.9738987
vt 0.345291 0.9279929
vt 0.3322107 0.9738985
vt 0.3322107 0.9279929
vt 0.326563 0.9738985
vt 0.326563 0.9279929
vt 0.3190977 0.9738985
vt 0.3190977 0.9279929
vt 0.3133409 0.9738985
vt 0.3133409 0.9279929
vt 0.3054965 0.9738985
vt 0.3054964 0.9279929
vt 0.2661816 0.9279931
vt 0.2661816 0.9738988
vt 0.7870249 0.9582708
vt 0.791343 0.9673976
vt 0.9872985 0.967398
vt 0.9916166 0.9582714
vt 0.9916165 0.9521821
vt 0.7870249 0.9521822
vt 0.2014703 0.4204533
vt 0.1555646 0.471097
vt 0.2014703 0.4710968
vt 0.1555646 0.4204533
vt 0.2014703 0.412856
vt 0.1555646 0.412856
vt 0.2014703 0.4033518
vt 0.1555646 0.4033521
vt 0.2014703 0.3960071
vt 0.1555646 0.396007
vt 0.2014703 0.3882177
vt 0.1555646 0.3882176
vt 0.1555645 0.3496142
vt 0.2014703 0.3496143
vt 0.6206252 0.974359
vt 0.6881191 0.9876418
vt 0.68876 0.9816582
vt 0.6204149 0.9804049
vt 0.6836248 0.9967759
vt 0.6183982 0.9888742
vt 0.423126 0.9969535
vt 0.4169207 0.9884274
vt 0.4166826 0.9823589
vt 0.302171 0.7853928
vt 0.5067629 0.7853928
vt 0.5067626 0.5807326
vt 0.3021709 0.5807326
vt 0.4717164 0.5209071
vt 0.3372168 0.5209069
vt 0.4273271 0.9279999
vt 0.3880123 0.9279999
vt 0.3880124 0.9739058
vt 0.4273271 0.9739058
vt 0.4351714 0.9739058
vt 0.4351714 0.9279999
vt 0.4409283 0.9739057
vt 0.4409283 0.9279999
vt 0.4483938 0.9739056
vt 0.4483938 0.9279998
vt 0.4540414 0.9739056
vt 0.4540414 0.9279998
vt 0.4671218 0.9739057
vt 0.4671217 0.9279998
vt 0.5038697 0.9739056
vt 0.5038697 0.9279997
vt 0.7806859 0.9643719
vt 0.580269 0.9645929
vt 0.7745039 0.9728459
vt 0.5782514 0.9561581
vt 0.7809364 0.9580435
vt 0.5780486 0.9501596
vt 0.5100902 0.9573451
vt 0.5107653 0.9635829
vt 0.5152747 0.9726742
vt 0.1990043 0.5289755
vt 0.002982765 0.5289757
vt 0.002982765 0.7249315
vt 0.1990044 0.7249312
vt 0.2563062 0.5625422
vt 0.2563061 0.6913645
vn -0.7893897 0.06490397 -0.6104518
vn -0.3430023 0.7139312 -0.6104521
vn -0.4148071 0.8557543 0.3092244
vn -0.9474952 0.0812223 0.3092828
vn -0.2263189 0.4797832 0.8476956
vn -0.5314853 0.03732483 0.8462448
vn -0.2186707 0.674164 0.7054686
vn 0.1251506 -0.6976097 0.7054631
vn 0.3965282 -0.5496107 0.7353186
vn 0.09042857 0.6716623 0.7353179
vn 0.1103769 0.6821812 0.7228041
vn 0.4190794 -0.5494784 0.7228042
vn -0.5411379 0.49197 0.6820083
vn -0.2451292 -0.6890403 0.6820082
vn -0.9169764 0.3819639 -0.1151434
vn -0.6284211 -0.7693044 -0.1151428
vn -0.3821777 0.5409517 -0.7492073
vn -0.08185872 -0.6572581 -0.7492069
vn -0.06090095 0.7147049 -0.6967697
vn 0.2833897 -0.6589471 -0.6967633
vn -0.7071049 0.1118518 0.6982062
vn 0.7035968 0.1233849 0.6998054
vn 0.7071071 0.1118519 0.6982039
vn -0.7035962 0.1233845 0.699806
vn 0.6177979 -0.2180117 0.7555109
vn -0.6177976 -0.2180116 0.7555111
vn 0.5906617 -0.7978183 0.1208495
vn -0.5906612 -0.7978186 0.1208505
vn 0.6082314 -0.3922288 -0.6900805
vn -0.6082324 -0.3922293 -0.6900793
vn 0.6370856 0.2795816 -0.7183008
vn -0.6370854 0.2795816 -0.7183009
vn 0.6300532 0.2511803 -0.7348071
vn -0.6300541 0.2511801 -0.7348065
vn -0.7062944 -0.04569167 -0.7064421
vn 0.7062922 -0.04569145 -0.7064444
vn 0.181072 -0.926912 0.3287052
vn 0.05619793 -0.5254928 0.84894
vn 0.510821 0.1355093 0.8489399
vn 0.9303473 0.1625013 0.3287054
vn 0.8028743 0.1485232 -0.5773506
vn 0.1485232 -0.8028742 -0.5773507
vn 0.6176379 0.2391952 -0.7492055
vn -0.7080708 -0.1146848 -0.6967662
vn 0.7080687 -0.1146847 -0.6967683
vn -0.6176385 0.2391954 -0.7492052
vn 0.593439 0.7966008 -0.1151403
vn -0.5934392 0.7966008 -0.115139
vn 0.6087692 0.4052928 0.6820102
vn -0.6087692 0.4052924 0.6820104
vn 0.6348772 -0.2729153 0.7228058
vn -0.6348768 -0.2729148 0.7228063
vn 0.6295231 -0.2510082 0.7353201
vn -0.6295231 -0.251008 0.7353202
vn -0.7070985 0.04820742 0.7054698
vn 0.7071007 0.04820766 0.7054676
vn 0.2508996 0.7149188 -0.6526412
vn -0.4148071 0.8557543 0.3092244
vn -0.3430023 0.7139312 -0.6104521
vn 0.3079222 0.9067281 0.288146
vn -0.2263189 0.4797832 0.8476956
vn 0.1932346 0.4857138 0.852492
vn 0.510821 0.1355093 0.8489399
vn 0.9303473 0.1625013 0.3287054
vn 0.8028743 0.1485232 -0.5773506
vn 0.1485232 -0.8028742 -0.5773507
vn 0.8028743 0.1485232 -0.5773506
vn 0.2508996 0.7149188 -0.6526412
vn -0.5778511 -0.4900486 -0.6526411
vn -0.3430023 0.7139312 -0.6104521
vn -0.7893897 0.06490397 -0.6104518
vn -0.09046531 -0.6722142 -0.7348089
vn 0.2160337 -0.673988 -0.7064487
vn -0.1273927 0.6962101 -0.7064437
vn -0.39682 0.5500819 -0.7348087
vn -0.4260796 0.5499981 -0.7183024
vn -0.1163032 -0.6859406 -0.7183029
vn 0.232588 0.6853393 -0.6900817
vn 0.5283338 -0.4946227 -0.690081
vn 0.6302784 0.7669066 0.1208444
vn 0.9174833 -0.3789734 0.1208457
vn 0.0612749 0.6522657 0.7555097
vn 0.3616727 -0.5462592 0.7555089
vn -0.2907411 0.6524919 0.6998028
vn 0.05137588 -0.7124845 0.6998045
vn -0.2804075 0.6586988 0.698203
vn 0.06341378 -0.7130799 0.698209
vn 0.181072 -0.926912 0.3287052
vn -0.3844869 -0.356689 0.8514357
vn 0.05619793 -0.5254928 0.84894
vn -0.7395039 -0.6110819 0.2823348
vn 0.1485232 -0.8028742 -0.5773507
vn -0.5778511 -0.4900486 -0.6526411
vn -0.7893897 0.06490397 -0.6104518
vn -0.9474952 0.0812223 0.3092828
vn -0.5314853 0.03732483 0.8462448
vn 0.1932346 0.4857138 0.852492
vn 0.510821 0.1355093 0.8489399
vn 0.05619793 -0.5254928 0.84894
vn -0.3844869 -0.356689 0.8514357
vn -0.2263189 0.4797832 0.8476956
vn -0.5314853 0.03732483 0.8462448
g plate_LOD2_0
f 3/3/3 2/2/2 1/1/1
f 4/4/4 3/3/3 1/1/1
f 5/5/5 3/3/3 4/4/4
f 6/6/6 5/5/5 4/4/4
f 9/9/9 8/8/8 7/7/7
f 10/10/10 9/9/9 7/7/7
f 9/9/9 10/10/10 11/11/11
f 12/12/12 9/9/9 11/11/11
f 11/11/11 13/13/13 12/12/12
f 13/13/13 14/14/14 12/12/12
f 14/14/14 13/13/13 15/15/15
f 16/16/16 14/14/14 15/15/15
f 16/16/16 15/15/15 17/17/17
f 18/18/18 16/16/16 17/17/17
f 18/18/18 17/17/17 19/19/19
f 20/20/20 18/18/18 19/19/19
f 23/23/23 22/22/22 21/21/21
f 22/22/22 24/24/24 21/21/21
f 22/22/22 25/25/25 24/24/24
f 25/25/25 26/26/26 24/24/24
f 25/25/25 27/27/27 26/26/26
f 27/27/27 28/28/28 26/26/26
f 27/27/27 29/29/29 28/28/28
f 29/29/29 30/30/30 28/28/28
f 30/30/30 29/29/29 31/31/31
f 32/32/32 30/30/30 31/31/31
f 31/31/31 33/33/33 32/32/32
f 33/33/33 34/34/34 32/32/32
f 34/34/34 33/33/33 35/35/35
f 33/33/33 36/36/36 35/35/35
f 39/39/39 38/38/38 37/37/37
f 40/40/40 39/39/39 37/37/37
f 40/40/40 37/37/37 41/41/41
f 37/37/37 42/42/42 41/41/41
f 45/45/45 44/44/44 43/43/43
f 44/44/44 46/46/46 43/43/43
f 43/43/43 46/46/46 47/47/47
f 46/46/46 48/48/48 47/47/47
f 47/47/47 48/48/48 49/49/49
f 48/48/48 50/50/50 49/49/49
f 51/51/51 49/49/49 50/50/50
f 52/52/52 51/51/51 50/50/50
f 51/51/51 52/52/52 53/53/53
f 52/52/52 54/54/54 53/53/53
f 54/54/54 55/55/55 53/53/53
f 55/55/55 56/56/56 53/53/53
f 59/59/59 58/58/58 57/57/57
f 58/58/58 60/60/60 57/57/57
f 58/58/58 61/61/61 60/60/60
f 62/62/62 60/60/60 61/61/61
f 62/62/62 63/63/63 60/60/60
f 63/63/63 64/64/64 60/60/60
f 60/60/60 64/64/64 57/57/57
f 64/64/64 65/65/65 57/57/57
f 68/68/68 67/67/67 66/66/66
f 66/66/66 69/69/69 68/68/68
f 69/69/69 70/70/70 68/68/68
f 69/69/69 71/71/71 70/70/70
f 74/74/74 73/73/73 72/72/72
f 75/75/75 74/74/74 72/72/72
f 76/76/76 75/75/75 72/72/72
f 77/77/77 76/76/76 72/72/72
f 76/76/76 77/77/77 78/78/78
f 77/77/77 79/79/79 78/78/78
f 80/80/80 78/78/78 79/79/79
f 81/81/81 80/80/80 79/79/79
f 82/82/82 80/80/80 81/81/81
f 83/83/83 82/82/82 81/81/81
f 84/84/84 82/82/82 83/83/83
f 85/85/85 84/84/84 83/83/83
f 86/86/86 84/84/84 85/85/85
f 87/87/87 86/86/86 85/85/85
f 90/90/90 89/89/89 88/88/88
f 89/89/89 91/91/91 88/88/88
f 88/88/88 91/91/91 92/92/92
f 91/91/91 93/93/93 92/92/92
f 93/93/93 91/91/91 94/94/94
f 91/91/91 95/95/95 94/94/94
f 91/91/91 89/89/89 95/95/95
f 96/96/96 95/95/95 89/89/89
f 99/99/99 98/98/98 97/97/97
f 97/97/97 100/100/100 99/99/99
f 97/97/97 101/101/101 100/100/100
f 101/101/101 102/102/102 100/100/100
