g polySurface299_polySurface292
v -0.7193865 -0.823782 1.01803
v -1.225365 -1.058158 -0.577206
v -1.593332 -0.8483055 0.374508
v -0.192552 -1.086408 0.14505
v -0.5666955 -0.872016 -1.104674
v 0.496155 -0.8643705 -0.62154
v 0.137517 -0.703635 1.525536
v 0.8044635 -0.833976 0.9775366
v 1.333227 -0.759519 0.1166175
v 0.9467055 -0.3097725 1.595967
v 0.1565115 -0.2950875 1.675311
v 0.2035365 0.4239345 2.026063
v 1.80934 -0.3583395 0.1389105
v 1.743294 -0.4394565 1.033564
v 1.34541 -0.308529 -0.7988265
v 0.496155 -0.8643705 -0.62154
v 0.29454 -0.302694 -1.471691
v -0.5666955 -0.872016 -1.104674
v -0.7228305 -0.4712235 -1.531979
v 0.321657 0.56349 -1.248015
v -0.6967275 0.408921 -1.323942
v -0.635517 0.955092 -1.146258
v 1.126318 0.527304 -0.5251155
v 1.730454 0.477468 0.2016525
v 1.428001 0.536685 0.936501
v 0.0200355 1.252849 -0.91857
v 0.9000255 1.103624 -0.099576
v 0.363762 1.289334 0.678891
v 0.793083 0.537336 1.459963
v -0.631515 1.16397 -0.0703875
v -1.061315 1.08242 -0.938115
v -0.6967275 0.408921 -1.323942
v -1.25757 0.4571505 -1.104357
v -0.7228305 -0.4712235 -1.531979
v -1.254637 0.8338621 -0.0713505
v -1.210081 0.9219705 0.943671
v -1.193508 -0.590379 -1.140527
v -0.5666955 -0.872016 -1.104674
v -1.225365 -1.058158 -0.577206
v -1.793825 -0.39246 -0.2309055
v -1.449599 0.7247085 0.4676025
v -1.70526 -0.389184 0.406833
v -1.593332 -0.8483055 0.374508
v -0.383646 0.860742 1.458812
v -1.359729 0.517926 1.123515
v -1.374732 -0.3473505 1.1073
v -0.7193865 -0.823782 1.01803
v -0.42078 0.549144 1.789808
v -0.4280115 -0.302493 1.73615
v 0.1565115 -0.2950875 1.675311
v 0.137517 -0.703635 1.525536
vt 0.355638 0.635753
vt 0.399077 0.584862
vt 0.359187 0.593006
vt 0.396787 0.632346
vt 0.430568 0.594328
vt 0.438352 0.638947
vt 0.354123 0.679399
vt 0.390522 0.679283
vt 0.43796 0.683984
vt 0.370075 0.703856
vt 0.345127 0.698473
vt 0.337113 0.740629
vt 0.430206 0.705062
vt 0.403126 0.701327
vt 0.458275 0.722287
vt 0.490783 0.712546
vt 0.487642 0.755107
vt 0.524305 0.754574
vt 0.513755 0.778663
vt 0.46344 0.775672
vt 0.480053 0.806074
vt 0.454692 0.818075
vt 0.440883 0.746057
vt 0.418841 0.728171
vt 0.395252 0.729582
vt 0.442887 0.792215
vt 0.421053 0.758793
vt 0.393506 0.765051
vt 0.369353 0.734456
vt 0.410957 0.800409
vt 0.436338 0.822203
vt 0.451454 0.846438
vt 0.431054 0.844102
vt 0.438339 0.884803
vt 0.401943 0.820777
vt 0.371822 0.800933
vt 0.416232 0.881003
vt 0.423125 0.904062
vt 0.388662 0.892531
vt 0.379046 0.861035
vt 0.380985 0.817856
vt 0.357367 0.849221
vt 0.346534 0.863177
vt 0.358987 0.770827
vt 0.358337 0.80799
vt 0.337955 0.825882
vt 0.309672 0.821838
vt 0.343896 0.768246
vt 0.318341 0.784161
vt 0.307556 0.766982
vt 0.2944 0.779814
vn -0.2780947 -0.8117549 0.513534
vn -0.4614701 -0.8472645 -0.2630365
vn -0.5989084 -0.7610618 0.2491859
vn 0.04597024 -0.9971603 0.05965074
vn 0.01238726 -0.8638056 -0.503673
vn 0.2959176 -0.8788213 -0.374307
vn 0.02611724 -0.7898368 0.6127609
vn 0.2622145 -0.8994079 0.3497272
vn 0.4161915 -0.9030498 -0.1062338
vn 0.4290513 -0.3127416 0.8474123
vn -0.001869994 -0.5083917 0.861124
vn 0.1700901 0.2720771 0.9471238
vn 0.9033582 -0.3849331 -0.1891304
vn 0.7546206 -0.3801952 0.5347891
vn 0.6849245 -0.2918133 -0.6676252
vn 0.2959176 -0.8788213 -0.374307
vn 0.3616662 -0.2888554 -0.8864311
vn 0.01238726 -0.8638056 -0.503673
vn -0.1674154 -0.3458266 -0.9232422
vn 0.3324294 0.3979217 -0.8550726
vn -0.1942973 0.2745333 -0.9417431
vn -0.1560975 0.6391834 -0.7530459
vn 0.6705122 0.4419448 -0.5959011
vn 0.8303335 0.5304223 -0.1708754
vn 0.691569 0.5616379 0.4541973
vn 0.1385337 0.9044576 -0.4034413
vn 0.5376357 0.8030511 -0.2570154
vn 0.1417405 0.9580685 0.2490268
vn 0.5008272 0.5450826 0.6723519
vn -0.2960916 0.9551462 0.005036408
vn -0.5546221 0.7684211 -0.3192544
vn -0.1942973 0.2745333 -0.9417431
vn -0.7125807 0.2158965 -0.6675458
vn -0.1674154 -0.3458266 -0.9232422
vn -0.7542621 0.6560252 -0.02682854
vn -0.4745244 0.8294061 0.2948088
vn -0.6726788 -0.3107395 -0.6715239
vn 0.01238726 -0.8638056 -0.503673
vn -0.4614701 -0.8472645 -0.2630365
vn -0.9595594 -0.05900257 -0.2752536
vn -0.8749682 0.468591 0.1218737
vn -0.9616465 -0.1769288 0.2096
vn -0.5989084 -0.7610618 0.2491859
vn -0.1260847 0.7985712 0.5885463
vn -0.7683616 0.3057107 0.5622823
vn -0.6938654 -0.3147519 0.6476743
vn -0.2780947 -0.8117549 0.513534
vn -0.3605165 0.2987339 0.8836209
vn -0.3442011 -0.4163227 0.8415468
vn -0.001869994 -0.5083917 0.861124
vn 0.02611724 -0.7898368 0.6127609
g polySurface299_polySurface292_0
f 3/3/3 2/2/2 1/1/1
f 2/2/2 4/4/4 1/1/1
f 2/2/2 5/5/5 4/4/4
f 5/5/5 6/6/6 4/4/4
f 1/1/1 4/4/4 7/7/7
f 4/4/4 6/6/6 8/8/8
f 4/4/4 8/8/8 7/7/7
f 6/6/6 9/9/9 8/8/8
f 8/8/8 10/10/10 7/7/7
f 10/10/10 11/11/11 7/7/7
f 10/10/10 12/12/12 11/11/11
f 9/9/9 13/13/13 8/8/8
f 14/14/14 10/10/10 8/8/8
f 13/13/13 14/14/14 8/8/8
f 15/15/15 13/13/13 9/9/9
f 16/16/16 15/15/15 9/9/9
f 17/17/17 15/15/15 16/16/16
f 16/16/16 18/18/18 17/17/17
f 18/18/18 19/19/19 17/17/17
f 17/17/17 19/19/19 20/20/20
f 17/17/17 20/20/20 15/15/15
f 19/19/19 21/21/21 20/20/20
f 20/20/20 21/21/21 22/22/22
f 15/15/15 23/23/23 13/13/13
f 20/20/20 23/23/23 15/15/15
f 13/13/13 24/24/24 14/14/14
f 23/23/23 24/24/24 13/13/13
f 14/14/14 25/25/25 10/10/10
f 24/24/24 25/25/25 14/14/14
f 23/23/23 20/20/20 26/26/26
f 26/26/26 20/20/20 22/22/22
f 24/24/24 23/23/23 27/27/27
f 25/25/25 24/24/24 27/27/27
f 27/27/27 23/23/23 26/26/26
f 28/28/28 25/25/25 27/27/27
f 27/27/27 26/26/26 28/28/28
f 25/25/25 29/29/29 10/10/10
f 29/29/29 25/25/25 28/28/28
f 10/10/10 29/29/29 12/12/12
f 12/12/12 29/29/29 28/28/28
f 26/26/26 22/22/22 30/30/30
f 26/26/26 30/30/30 28/28/28
f 22/22/22 31/31/31 30/30/30
f 31/31/31 22/22/22 32/32/32
f 33/33/33 31/31/31 32/32/32
f 33/33/33 32/32/32 34/34/34
f 31/31/31 35/35/35 30/30/30
f 35/35/35 31/31/31 33/33/33
f 28/28/28 30/30/30 36/36/36
f 30/30/30 35/35/35 36/36/36
f 37/37/37 33/33/33 34/34/34
f 37/37/37 34/34/34 38/38/38
f 39/39/39 37/37/37 38/38/38
f 37/37/37 40/40/40 33/33/33
f 40/40/40 35/35/35 33/33/33
f 40/40/40 37/37/37 39/39/39
f 41/41/41 35/35/35 40/40/40
f 35/35/35 41/41/41 36/36/36
f 42/42/42 40/40/40 39/39/39
f 42/42/42 41/41/41 40/40/40
f 43/43/43 42/42/42 39/39/39
f 28/28/28 36/36/36 44/44/44
f 44/44/44 12/12/12 28/28/28
f 45/45/45 36/36/36 41/41/41
f 45/45/45 41/41/41 42/42/42
f 44/44/44 36/36/36 45/45/45
f 46/46/46 42/42/42 43/43/43
f 46/46/46 45/45/45 42/42/42
f 47/47/47 46/46/46 43/43/43
f 48/48/48 44/44/44 45/45/45
f 12/12/12 44/44/44 48/48/48
f 48/48/48 45/45/45 46/46/46
f 12/12/12 48/48/48 49/49/49
f 49/49/49 48/48/48 46/46/46
f 49/49/49 46/46/46 47/47/47
f 50/50/50 12/12/12 49/49/49
f 50/50/50 49/49/49 47/47/47
f 51/51/51 50/50/50 47/47/47
