g polySurface301_polySurface292
v 1.860887 -1.754287 -1.953801
v 2.495309 -1.148718 -1.839722
v 1.683562 -0.7670592 -2.701784
v 2.177562 -0.1159038 -2.678924
v 3.64406 0.638262 -1.546702
v 0.9216882 0.1160388 -2.916857
v 0.5787216 -0.6543468 -3.0672
v -0.65952 0.4490496 -3.098684
v -0.9025542 -0.4024134 -3.450441
v -1.911593 -0.0405828 -2.598889
v 1.251059 1.562821 -2.548877
v 2.888489 1.074368 -2.27023
v 3.40834 2.563468 -1.660459
v 3.642592 1.930091 -0.241947
v 2.146986 3.466454 -1.91567
v 3.179686 3.168383 -0.992493
v 3.31735 2.675048 0.2835666
v 0.1983024 4.135561 -2.013741
v 1.959194 3.982243 -1.073277
v 1.872293 3.806406 0.3425652
v -0.2145654 2.169128 -2.802087
v 0.326727 4.340415 -0.9804996
v 1.775784 2.348985 2.607466
v 0.177633 3.969162 0.578871
v -0.9986562 3.83267 -0.6858774
v -1.389623 3.520515 -1.375695
v -1.598566 1.991045 -1.957127
v -1.770395 0.6803532 -2.370683
v -2.654474 1.860311 -0.8240598
v -3.063177 0.1674936 -1.495962
v -2.452143 -0.8049024 -1.850796
v -2.240854 3.031392 0.0715896
v -1.208959 3.242587 0.54234
v -3.525327 -0.391707 -0.5723622
v -2.948024 -1.462775 -0.8043048
v -2.981999 -2.34547 1.358851
v -2.999871 -1.78887 2.036756
v -3.691204 1.128985 0.373383
v -3.112515 -0.4685868 3.186851
v -2.068911 0.903231 3.11101
v -2.806999 2.358068 1.246554
v -1.948433 2.660042 1.920067
v -0.1231866 2.643406 2.666381
v -1.544629 1.449723 2.886021
v -0.4604004 0.5526594 3.499414
v -0.1332936 1.27724 3.164749
v 1.070842 1.131878 3.178627
v 0.9214633 0.33408 3.182863
v -1.303486 -1.012487 3.721856
v -3.112515 -0.4685868 3.186851
v -2.999871 -1.78887 2.036756
v 2.106864 0.708768 2.820236
v 0.3831534 -1.058233 2.949818
v -1.217189 -2.150345 1.828622
v -2.981999 -2.34547 1.358851
v 2.633087 1.514174 1.878744
v 3.642592 1.930091 -0.241947
v 2.690922 0.7749467 1.610662
v 2.512307 -0.6312204 0.9598248
v 3.64406 0.638262 -1.546702
v 2.495309 -1.148718 -1.839722
v 2.091191 0.0080352 2.609728
v 1.809313 -1.111 2.054237
v 1.942799 -1.830307 0.114705
v 1.860887 -1.754287 -1.953801
v 1.481144 -2.252365 -0.2424978
v 1.107086 -2.448261 0.7912152
v 1.653734 -2.338596 1.399979
v 0.3920832 -2.515869 1.722373
v 0.039231 -2.795141 1.009453
v 0.203796 -2.75567 -0.3206034
v 1.481144 -2.252365 -0.2424978
v 1.860887 -1.754287 -1.953801
v -1.390541 -2.627291 1.129549
v -1.520557 -2.548166 -0.2763144
v -1.203989 -1.483094 -2.385785
v -2.948024 -1.462775 -0.8043048
v -2.452143 -0.8049024 -1.850796
v -1.911593 -0.0405828 -2.598889
v -0.9025542 -0.4024134 -3.450441
v 0.5787216 -0.6543468 -3.0672
v 0.2374596 -2.042802 -2.471465
v 1.683562 -0.7670592 -2.701784
vt 0.842753 0.750314
vt 0.853946 0.724314
vt 0.813149 0.722703
vt 0.822271 0.698286
vt 0.873981 0.64828
vt 0.780465 0.70383
vt 0.772302 0.728631
vt 0.725537 0.698241
vt 0.716097 0.7248
vt 0.672788 0.69503
vt 0.78783 0.659654
vt 0.837994 0.653447
vt 0.842178 0.60328
vt 0.87699 0.570886
vt 0.805689 0.603803
vt 0.838541 0.576071
vt 0.858288 0.531715
vt 0.762164 0.606228
vt 0.801428 0.579658
vt 0.801196 0.545604
vt 0.746064 0.651373
vt 0.764162 0.582502
vt 0.778352 0.486301
vt 0.755928 0.548973
vt 0.731633 0.584471
vt 0.723606 0.605562
vt 0.704324 0.640891
vt 0.686482 0.675791
vt 0.673471 0.61181
vt 0.641031 0.649383
vt 0.62741 0.68087
vt 0.694881 0.576075
vt 0.717146 0.554117
vt 0.611324 0.626482
vt 0.584756 0.649331
vt 0.538208 0.579249
vt 0.549096 0.552032
vt 0.637118 0.58399
vt 0.585335 0.500701
vt 0.645891 0.47398
vt 0.668669 0.550383
vt 0.686442 0.525489
vt 0.727963 0.497644
vt 0.671508 0.482298
vt 0.700755 0.445166
vt 0.714438 0.463686
vt 0.75076 0.456047
vt 0.745301 0.43445
vt 0.681352 0.406082
vt 0.626539 0.412657
vt 0.642434 0.352728
vt 0.783038 0.44653
vt 0.734088 0.395404
vt 0.701009 0.344033
vt 0.648613 0.32507
vt 0.814228 0.47461
vt 0.881176 0.497745
vt 0.820614 0.451362
vt 0.826867 0.400146
vt 0.914157 0.43518
vt 0.903482 0.358166
vt 0.78516 0.426569
vt 0.785296 0.390407
vt 0.831258 0.346965
vt 0.895911 0.330309
vt 0.833043 0.325208
vt 0.791193 0.320573
vt 0.790184 0.34747
vt 0.753958 0.340746
vt 0.749396 0.31774
vt 0.758033 0.280445
vt 0.800834 0.279056
vt 0.804109 0.215659
vt 0.701339 0.318885
vt 0.70132 0.278117
vt 0.706132 0.207629
vt 0.649857 0.25148
vt 0.660244 0.211337
vt 0.668385 0.174078
vt 0.70844 0.160082
vt 0.75636 0.168664
vt 0.75194 0.213397
vt 0.79298 0.175815
vn 0.5252374 -0.7636639 -0.3754239
vn 0.7666758 -0.5327524 -0.3583061
vn 0.3794819 -0.3220387 -0.8673434
vn 0.4434043 -0.1002347 -0.8906995
vn 0.9098911 -0.2144026 -0.3551473
vn 0.2014523 0.09746333 -0.9746373
vn 0.1562709 -0.1858818 -0.9700657
vn -0.1535826 0.2878112 -0.9452921
vn -0.2565106 -0.1234912 -0.95862
vn -0.621137 0.02984433 -0.7831335
vn 0.2078455 0.2123492 -0.9548341
vn 0.4472981 0.1178716 -0.8865837
vn 0.8092834 0.328159 -0.4872086
vn 0.9772357 0.04551475 0.2072165
vn 0.3922021 0.5501068 -0.7372652
vn 0.7364908 0.6732839 -0.06534547
vn 0.8006833 0.4710836 0.3701166
vn -0.05823793 0.7839141 -0.6181318
vn 0.3782751 0.9126227 -0.1550089
vn 0.3826491 0.8729168 0.3026482
vn -0.2219775 0.3193133 -0.9212844
vn -0.03181604 0.998437 0.04594996
vn 0.4477091 0.5414587 0.7116031
vn -0.1331926 0.9066929 0.4002094
vn -0.4215372 0.9024602 0.08872487
vn -0.6299759 0.6043112 -0.4877894
vn -0.5939565 0.3205733 -0.7378675
vn -0.581385 0.347457 -0.7357072
vn -0.7717215 0.4473752 -0.451997
vn -0.7789322 0.1412088 -0.611003
vn -0.6797739 -0.3439852 -0.6477513
vn -0.6064281 0.7931411 0.0563193
vn -0.3303289 0.8802813 0.3405696
vn -0.9410685 -0.2157845 -0.2604364
vn -0.6576085 -0.6025085 -0.4522549
vn -0.5514383 -0.8198411 0.1541959
vn -0.7106673 -0.5564338 0.4305037
vn -0.9642996 0.264061 0.01995479
vn -0.7209003 -0.008201725 0.6929902
vn -0.44632 0.4171886 0.7916768
vn -0.7837247 0.5819175 0.217135
vn -0.3757586 0.7560417 0.5359165
vn -0.1160062 0.6415559 0.7582538
vn -0.1865823 0.4729447 0.86111
vn 0.07914259 0.2029692 0.9759815
vn 0.003791964 0.2979361 0.9545783
vn 0.1659109 0.1799377 0.9695855
vn 0.2782082 -0.1570967 0.9475868
vn -0.05582614 -0.3969901 0.9161236
vn -0.7209003 -0.008201725 0.6929902
vn -0.7106673 -0.5564338 0.4305037
vn 0.6497545 -0.02408705 0.7597623
vn 0.2888982 -0.4829653 0.826609
vn -0.05271251 -0.8145705 0.5776645
vn -0.5514383 -0.8198411 0.1541959
vn 0.8603691 0.09247944 0.5012111
vn 0.9772357 0.04551475 0.2072165
vn 0.9076324 -0.1690418 0.3842244
vn 0.8931405 -0.3798438 0.2408708
vn 0.9098911 -0.2144026 -0.3551473
vn 0.7666758 -0.5327524 -0.3583061
vn 0.7090965 -0.3401394 0.6176467
vn 0.5565502 -0.4563383 0.6942675
vn 0.7287812 -0.6842174 -0.02691439
vn 0.5252374 -0.7636639 -0.3754239
vn 0.5282456 -0.8476362 -0.04969403
vn 0.3829539 -0.9237328 0.007996373
vn 0.6248187 -0.7383232 0.25393
vn 0.1677851 -0.823647 0.5417138
vn 0.03313812 -0.9798495 0.1969689
vn 0.1069236 -0.9741537 -0.1989772
vn 0.5282456 -0.8476362 -0.04969403
vn 0.5252374 -0.7636639 -0.3754239
vn -0.1083467 -0.9538298 0.2801242
vn -0.2504977 -0.938159 -0.2389741
vn -0.3746083 -0.6631942 -0.6479521
vn -0.6576085 -0.6025085 -0.4522549
vn -0.6797739 -0.3439852 -0.6477513
vn -0.621137 0.02984433 -0.7831335
vn -0.2565106 -0.1234912 -0.95862
vn 0.1562709 -0.1858818 -0.9700657
vn 0.06600724 -0.6994842 -0.7115932
vn 0.3794819 -0.3220387 -0.8673434
g polySurface301_polySurface292_0
f 3/3/3 2/2/2 1/1/1
f 3/3/3 4/4/4 2/2/2
f 4/4/4 5/5/5 2/2/2
f 3/3/3 6/6/6 4/4/4
f 3/3/3 7/7/7 6/6/6
f 7/7/7 8/8/8 6/6/6
f 7/7/7 9/9/9 8/8/8
f 10/10/10 8/8/8 9/9/9
f 4/4/4 6/6/6 11/11/11
f 8/8/8 11/11/11 6/6/6
f 4/4/4 12/12/12 5/5/5
f 4/4/4 11/11/11 12/12/12
f 13/13/13 5/5/5 12/12/12
f 13/13/13 14/14/14 5/5/5
f 12/12/12 15/15/15 13/13/13
f 12/12/12 11/11/11 15/15/15
f 16/16/16 14/14/14 13/13/13
f 15/15/15 16/16/16 13/13/13
f 16/16/16 17/17/17 14/14/14
f 11/11/11 18/18/18 15/15/15
f 15/15/15 19/19/19 16/16/16
f 18/18/18 19/19/19 15/15/15
f 16/16/16 19/19/19 20/20/20
f 16/16/16 20/20/20 17/17/17
f 8/8/8 21/21/21 11/11/11
f 11/11/11 21/21/21 18/18/18
f 22/22/22 20/20/20 19/19/19
f 18/18/18 22/22/22 19/19/19
f 17/17/17 20/20/20 23/23/23
f 22/22/22 24/24/24 20/20/20
f 24/24/24 23/23/23 20/20/20
f 18/18/18 25/25/25 22/22/22
f 25/25/25 24/24/24 22/22/22
f 21/21/21 26/26/26 18/18/18
f 18/18/18 26/26/26 25/25/25
f 8/8/8 27/27/27 21/21/21
f 21/21/21 27/27/27 26/26/26
f 8/8/8 28/28/28 27/27/27
f 10/10/10 28/28/28 8/8/8
f 26/26/26 27/27/27 29/29/29
f 29/29/29 27/27/27 28/28/28
f 30/30/30 28/28/28 10/10/10
f 29/29/29 28/28/28 30/30/30
f 30/30/30 10/10/10 31/31/31
f 25/25/25 26/26/26 32/32/32
f 26/26/26 29/29/29 32/32/32
f 25/25/25 33/33/33 24/24/24
f 25/25/25 32/32/32 33/33/33
f 34/34/34 30/30/30 31/31/31
f 34/34/34 31/31/31 35/35/35
f 34/34/34 35/35/35 36/36/36
f 34/34/34 36/36/36 37/37/37
f 38/38/38 30/30/30 34/34/34
f 38/38/38 34/34/34 37/37/37
f 38/38/38 29/29/29 30/30/30
f 38/38/38 37/37/37 39/39/39
f 40/40/40 38/38/38 39/39/39
f 41/41/41 29/29/29 38/38/38
f 41/41/41 32/32/32 29/29/29
f 40/40/40 41/41/41 38/38/38
f 42/42/42 32/32/32 41/41/41
f 42/42/42 33/33/33 32/32/32
f 42/42/42 41/41/41 40/40/40
f 33/33/33 43/43/43 24/24/24
f 33/33/33 42/42/42 43/43/43
f 24/24/24 43/43/43 23/23/23
f 42/42/42 40/40/40 44/44/44
f 43/43/43 42/42/42 44/44/44
f 44/44/44 40/40/40 45/45/45
f 43/43/43 44/44/44 46/46/46
f 44/44/44 45/45/45 46/46/46
f 43/43/43 46/46/46 47/47/47
f 43/43/43 47/47/47 23/23/23
f 46/46/46 48/48/48 47/47/47
f 46/46/46 45/45/45 48/48/48
f 40/40/40 49/49/49 45/45/45
f 40/40/40 50/50/50 49/49/49
f 49/49/49 50/50/50 51/51/51
f 23/23/23 47/47/47 52/52/52
f 52/52/52 47/47/47 48/48/48
f 45/45/45 49/49/49 53/53/53
f 45/45/45 53/53/53 48/48/48
f 49/49/49 51/51/51 54/54/54
f 53/53/53 49/49/49 54/54/54
f 54/54/54 51/51/51 55/55/55
f 56/56/56 23/23/23 52/52/52
f 17/17/17 23/23/23 56/56/56
f 57/57/57 17/17/17 56/56/56
f 58/58/58 56/56/56 52/52/52
f 57/57/57 56/56/56 58/58/58
f 57/57/57 58/58/58 59/59/59
f 57/57/57 59/59/59 60/60/60
f 61/61/61 60/60/60 59/59/59
f 58/58/58 52/52/52 62/62/62
f 59/59/59 58/58/58 62/62/62
f 52/52/52 48/48/48 62/62/62
f 48/48/48 63/63/63 62/62/62
f 48/48/48 53/53/53 63/63/63
f 59/59/59 62/62/62 63/63/63
f 61/61/61 59/59/59 64/64/64
f 65/65/65 61/61/61 64/64/64
f 65/65/65 64/64/64 66/66/66
f 64/64/64 67/67/67 66/66/66
f 59/59/59 68/68/68 64/64/64
f 59/59/59 63/63/63 68/68/68
f 64/64/64 68/68/68 67/67/67
f 63/63/63 53/53/53 69/69/69
f 63/63/63 69/69/69 68/68/68
f 69/69/69 67/67/67 68/68/68
f 53/53/53 54/54/54 69/69/69
f 69/69/69 70/70/70 67/67/67
f 54/54/54 70/70/70 69/69/69
f 67/67/67 70/70/70 71/71/71
f 67/67/67 71/71/71 72/72/72
f 71/71/71 73/73/73 72/72/72
f 54/54/54 74/74/74 70/70/70
f 54/54/54 55/55/55 74/74/74
f 70/70/70 74/74/74 75/75/75
f 55/55/55 75/75/75 74/74/74
f 70/70/70 75/75/75 71/71/71
f 71/71/71 75/75/75 76/76/76
f 55/55/55 77/77/77 75/75/75
f 77/77/77 76/76/76 75/75/75
f 77/77/77 78/78/78 76/76/76
f 76/76/76 78/78/78 79/79/79
f 76/76/76 79/79/79 80/80/80
f 76/76/76 80/80/80 81/81/81
f 71/71/71 82/82/82 73/73/73
f 71/71/71 76/76/76 82/82/82
f 76/76/76 81/81/81 82/82/82
f 82/82/82 83/83/83 73/73/73
f 82/82/82 81/81/81 83/83/83
