g Pumpkin1_LOD2
v 0.001585495 0.000997589 0.009216088
v 0.0008477538 -5.674555E-05 0.009454154
v 0.0004471841 0.0007001137 0.009291803
v -0.0001637771 0.001661229 0.009058396
v -0.0004096573 0.0005544899 0.009183383
v -0.002151699 2.167959E-05 0.008718124
v -0.0004413106 -0.0007015655 0.009204544
v 0.0002217901 0.002413212 0.008666777
v -0.001810298 0.001608758 0.008523137
v 0.001799453 0.001806394 0.008615986
v 0.002642376 0.0002920798 0.008668321
v 0.002944869 0.001893288 0.006967984
v 0.003512495 4.779879E-05 0.006886916
v 0.003869089 0.0006133732 0.003701868
v 0.001523286 0.003076272 0.007185809
v -0.0004869903 0.003150989 0.007603234
v 0.003240946 0.00220328 0.004585408
v -0.001819087 -0.001370379 0.008675749
v -0.0007563543 -0.002259326 0.008676989
v 0.0006069503 -0.0006375234 0.009357091
v 0.001709337 -0.0009804618 0.009201665
v 0.0008477538 -5.674555E-05 0.009454154
v 0.001585495 0.000997589 0.009216088
v 0.002642376 0.0002920798 0.008668321
v 0.002243818 -0.001522427 0.008639676
v 0.003512495 4.779879E-05 0.006886916
v 0.001033865 -0.002570519 0.00844711
v 0.002945585 -0.002016766 0.006724986
v 0.003772815 -0.001045461 0.004527091
v 0.003869089 0.0006133732 0.003701868
v 0.00361162 -0.00106967 0.002873466
v 0.003298803 -7.867012E-05 0.001650607
v 0.002997272 -0.002522388 0.003701868
v 0.001562765 -0.00331721 0.006325302
v -0.0004819885 -0.003433159 0.007086726
v 0.002747705 -0.001840939 0.001669154
v 0.00164102 -0.001893839 0.0005985575
v 0.002352763 0.000714172 0.0005988003
v 0.001069918 0.001234749 0.0002262311
v 0.00159413 -0.003591144 0.004526102
v 0.001518564 -0.003224431 0.00210285
v -0.002094459 -0.002665861 0.007281555
v -0.0002662846 -0.003537233 0.00206156
v -0.0006147488 -0.00386318 0.004644073
v 0.0005483216 -0.001457714 0.0002508843
v 4.009767E-10 -9.482558E-10 0.000497909
v -0.001041738 -0.002227178 0.0005988004
v -0.001611585 -8.640323E-10 0.0002489763
v 0.001069918 0.001234749 0.0002262311
v -0.001630485 -0.003252098 0.002284329
v -0.003066399 -0.001892336 0.00219281
v -0.002567804 -0.002965035 0.004586047
v -0.002348284 -0.0006895191 0.0006449208
v -0.002031624 0.001440731 0.000609717
v -0.003340799 -0.001937531 0.005532558
v -0.003272098 -0.0008066036 0.00733099
v 0.000457125 0.002461425 0.0006234762
v 0.002352763 0.000714172 0.0005988003
v -0.003287633 0.0005955814 0.001628885
v -0.003922378 -1.069285E-06 0.004586046
v -0.003106056 0.0008500134 0.007547744
v -0.003760815 4.459484E-05 0.002829319
v -0.003665836 0.001229187 0.005527077
v -0.002378556 0.002381498 0.007337068
v -0.003113057 0.002116341 0.002877545
v -0.002117754 0.002540483 0.001669154
v -0.002608677 0.002919233 0.004527091
v -0.001585389 0.003326501 0.006200984
v -0.000297183 0.003502618 0.001995158
v -0.001509819 0.003453923 0.00292246
v -0.000600931 0.00387952 0.004645173
v 0.000478738 0.003635509 0.006325303
v 0.00157175 0.003585627 0.004527091
v 0.001514601 0.00325427 0.002144164
v 0.002794104 0.001738002 0.001625467
v 0.003298803 -7.867012E-05 0.001650607
v 0.003173511 0.002028994 0.002873466
v 0.001096332 -3.331714E-05 0.01025431
v 0.0008477538 -5.674555E-05 0.009454154
v 0.0006069503 -0.0006375234 0.009357091
v 0.001047775 -0.0003349646 0.01063028
v 0.002260101 -0.0003154483 0.01033946
v -0.0004413106 -0.0007015655 0.009204544
v 0.002224287 -4.074146E-05 0.01087441
v 0.0007254915 2.484085E-05 0.01085362
v -0.0004096573 0.0005544899 0.009183383
v 0.0008570812 0.0003178117 0.01055763
v 0.002260101 -0.0003154483 0.01033946
v 0.001096332 -3.331714E-05 0.01025431
v 0.0008477538 -5.674555E-05 0.009454154
v 0.0002574786 0.0004375004 0.009793871
v 0.0004471841 0.0007001137 0.009291803
vt 0.2040855 0.7912593
vt 0.2732517 0.8690414
vt 0.2981371 0.8364319
vt 0.2790606 0.7315363
vt 0.3825668 0.8169869
vt 0.4520676 0.6598031
vt 0.5379964 0.8036458
vt 0.2268143 0.6697012
vt 0.3473522 0.6460631
vt 0.1598459 0.7030905
vt 0.1336175 0.7633005
vt 0.08824307 0.5624861
vt 0.02945706 0.5683026
vt 0.05346157 0.2529887
vt 0.1461863 0.553707
vt 0.2308157 0.5678906
vt 0.08723701 0.3540086
vt 0.5443836 0.6492983
vt 0.6289835 0.6532916
vt 0.6570234 0.8099607
vt 0.7404934 0.7558876
vt 0.6831318 0.8476286
vt 0.7530305 0.8078786
vt 0.8054345 0.7369712
vt 0.7787283 0.6799499
vt 0.8797876 0.572628
vt 0.7163955 0.6278412
vt 0.8265778 0.5267049
vt 0.8647897 0.3793367
vt 0.9065064 0.2996016
vt 0.8292229 0.2487506
vt 0.803171 0.1303316
vt 0.8022887 0.316652
vt 0.7670081 0.4821776
vt 0.6768992 0.5268192
vt 0.7574605 0.1777523
vt 0.6757445 0.1196246
vt 0.702561 0.03887514
vt 0.5971011 0.006968711
vt 0.7598106 0.3754243
vt 0.7200859 0.2361613
vt 0.5935196 0.5343607
vt 0.6538538 0.2488858
vt 0.6742459 0.3792346
vt 0.590992 0.08731486
vt 0.4606422 0.03791985
vt 0.5764143 0.1742558
vt 0.458571 0.133155
vt 0.340135 0.06395299
vt 0.6015146 0.2705096
vt 0.5292144 0.271657
vt 0.5866613 0.382991
vt 0.4847592 0.1903938
vt 0.3867923 0.1829611
vt 0.5304855 0.4327821
vt 0.4915801 0.5344257
vt 0.2862223 0.1403196
vt 0.2627788 0.05155352
vt 0.4279404 0.2490029
vt 0.4489049 0.3851346
vt 0.4072019 0.5522192
vt 0.4482028 0.3057485
vt 0.3927132 0.4338632
vt 0.3187668 0.5402012
vt 0.3623511 0.3012688
vt 0.337843 0.2386378
vt 0.314875 0.3811432
vt 0.2661163 0.47351
vt 0.2579545 0.2379873
vt 0.282989 0.2902232
vt 0.2270352 0.3744565
vt 0.1794298 0.477579
vt 0.1490283 0.365209
vt 0.1996258 0.220955
vt 0.1813813 0.1475681
vt 0.1670273 0.09139889
vt 0.1290061 0.2268818
vt 0.8328559 0.7945885
vt 0.7701994 0.8251086
vt 0.7790148 0.8810538
vt 0.8711413 0.809041
vt 0.8864083 0.7131996
vt 0.8126724 0.9646935
vt 0.9382466 0.7370505
vt 0.8954376 0.8389657
vt 0.9001479 0.9915148
vt 0.9285328 0.8420957
vt 0.9776883 0.7493697
vt 0.9617497 0.8399764
vt 0.9854625 0.9059544
vt 0.9254352 0.9170227
vt 0.9600989 0.9574474
vn 0.3309548 0.2845436 0.8997244
vn 0.7189668 0.1506004 0.6785325
vn 0.0679602 0.4368386 0.8969691
vn -0.1539993 0.3640045 0.9185777
vn -0.3950019 0.2334818 0.8885155
vn -0.5493395 0.02217732 0.8353048
vn -0.3420555 -0.262058 0.9023989
vn 0.006569344 0.6813574 0.7319214
vn -0.4662775 0.4208503 0.7781197
vn 0.4939045 0.5668358 0.6593599
vn 0.7535725 0.09384068 0.6506324
vn 0.7995015 0.5140907 0.3106575
vn 0.9544461 0.00876529 0.2982544
vn 0.9833461 0.1603145 -0.08561347
vn 0.41954 0.8243171 0.3801149
vn -0.1614753 0.8559541 0.4911909
vn 0.815668 0.5760824 0.05305475
vn -0.5043798 -0.3341461 0.7962081
vn -0.2149609 -0.584857 0.7821343
vn 0.1886547 -0.6494939 0.7365915
vn 0.3356381 -0.2557955 0.9065958
vn 0.7189668 0.1506004 0.6785325
vn 0.3309548 0.2845436 0.8997244
vn 0.7535725 0.09384068 0.6506324
vn 0.6459221 -0.4509618 0.6159692
vn 0.9544461 0.00876529 0.2982544
vn 0.2388786 -0.7220637 0.6492773
vn 0.7888222 -0.5420907 0.28965
vn 0.9631608 -0.26314 0.05548519
vn 0.9833461 0.1603145 -0.08561347
vn 0.9313179 -0.2722892 -0.2418791
vn 0.8580112 -0.02298742 -0.5131161
vn 0.7527465 -0.6529049 -0.0841897
vn 0.4076182 -0.8790463 0.2472349
vn -0.1268071 -0.9289753 0.3477426
vn 0.7258199 -0.4609879 -0.5105641
vn 0.3831643 -0.4441043 -0.8099113
vn 0.5636244 0.1581456 -0.8107513
vn 0.1814149 0.2061541 -0.9615556
vn 0.3862265 -0.9221031 0.02355934
vn 0.357655 -0.8450132 -0.3975368
vn -0.5671449 -0.7131196 0.4120765
vn -0.02704029 -0.9122149 -0.4088187
vn -0.1431929 -0.9890742 0.03504491
vn 0.06753846 -0.2168957 -0.9738556
vn -0.0001768309 -0.03780821 -0.999285
vn -0.2402663 -0.5445163 -0.8036007
vn -0.2336514 0.0115703 -0.9722516
vn 0.1814149 0.2061541 -0.9615556
vn -0.4464812 -0.8266622 -0.3424676
vn -0.7975917 -0.4760367 -0.3704544
vn -0.6313064 -0.7753487 0.01692768
vn -0.5978499 -0.2018903 -0.7757679
vn -0.4515371 0.3773305 -0.8085395
vn -0.871847 -0.4727795 0.1279156
vn -0.8708376 -0.2158175 0.4416612
vn 0.08874772 0.5818293 -0.8084545
vn 0.5636244 0.1581456 -0.8107513
vn -0.8488271 0.1466774 -0.5079157
vn -0.9996396 -0.02604835 0.006491919
vn -0.8417571 0.2223093 0.4919591
vn -0.9771786 -0.01464569 -0.2119138
vn -0.9330622 0.3285515 0.1464538
vn -0.6255072 0.6406404 0.445332
vn -0.8169091 0.5326575 -0.2212141
vn -0.530828 0.6739249 -0.513855
vn -0.667452 0.7442435 0.02468742
vn -0.4044327 0.8848487 0.231251
vn -0.08076251 0.902114 -0.4238722
vn -0.4080718 0.8883013 -0.2107091
vn -0.1359767 0.9905596 0.01737657
vn 0.1001727 0.9650472 0.2421764
vn 0.4131281 0.9106717 0.001558577
vn 0.4045909 0.8345891 -0.3738544
vn 0.7172066 0.4674103 -0.5168583
vn 0.8580112 -0.02298742 -0.5131161
vn 0.8096973 0.5389037 -0.2323211
vn 0.6987547 0.2233618 -0.6795964
vn 0.7189668 0.1506004 0.6785325
vn 0.1886547 -0.6494939 0.7365915
vn 0.02546254 -0.9256879 0.3774301
vn 0.8075451 -0.3382629 -0.4831658
vn -0.3420555 -0.262058 0.9023989
vn 0.7986435 0.1915992 0.5704896
vn -0.405754 0.06517595 0.9116555
vn -0.3950019 0.2334818 0.8885155
vn 0.04107367 0.9721396 0.2307759
vn 0.8075451 -0.3382629 -0.4831658
vn 0.6987547 0.2233618 -0.6795964
vn 0.7189668 0.1506004 0.6785325
vn 0.1042564 0.9229428 0.3705501
vn 0.0679602 0.4368386 0.8969691
g Pumpkin1_LOD2_0
f 3/3/3 2/2/2 1/1/1
f 4/4/4 3/3/3 1/1/1
f 5/5/5 3/3/3 4/4/4
f 6/6/6 5/5/5 4/4/4
f 7/7/7 5/5/5 6/6/6
f 4/4/4 1/1/1 8/8/8
f 6/6/6 4/4/4 9/9/9
f 9/9/9 4/4/4 8/8/8
f 8/8/8 1/1/1 10/10/10
f 10/10/10 1/1/1 11/11/11
f 10/10/10 11/11/11 12/12/12
f 12/12/12 11/11/11 13/13/13
f 13/13/13 14/14/14 12/12/12
f 8/8/8 10/10/10 15/15/15
f 15/15/15 10/10/10 12/12/12
f 8/8/8 16/16/16 9/9/9
f 16/16/16 8/8/8 15/15/15
f 14/14/14 17/17/17 12/12/12
f 12/12/12 17/17/17 15/15/15
f 7/7/7 6/6/6 18/18/18
f 7/7/7 18/18/18 19/19/19
f 20/20/20 7/7/7 19/19/19
f 21/21/21 20/20/20 19/19/19
f 22/22/22 20/20/20 21/21/21
f 22/22/22 21/21/21 23/23/23
f 23/23/23 21/21/21 24/24/24
f 24/24/24 21/21/21 25/25/25
f 26/26/26 24/24/24 25/25/25
f 21/21/21 27/27/27 25/25/25
f 21/21/21 19/19/19 27/27/27
f 25/25/25 28/28/28 26/26/26
f 25/25/25 27/27/27 28/28/28
f 26/26/26 28/28/28 29/29/29
f 26/26/26 29/29/29 30/30/30
f 31/31/31 30/30/30 29/29/29
f 32/32/32 30/30/30 31/31/31
f 29/29/29 28/28/28 33/33/33
f 31/31/31 29/29/29 33/33/33
f 28/28/28 27/27/27 34/34/34
f 33/33/33 28/28/28 34/34/34
f 27/27/27 19/19/19 35/35/35
f 27/27/27 35/35/35 34/34/34
f 36/36/36 32/32/32 31/31/31
f 36/36/36 31/31/31 33/33/33
f 32/32/32 36/36/36 37/37/37
f 38/38/38 32/32/32 37/37/37
f 38/38/38 37/37/37 39/39/39
f 40/40/40 33/33/33 34/34/34
f 40/40/40 34/34/34 35/35/35
f 36/36/36 33/33/33 41/41/41
f 37/37/37 36/36/36 41/41/41
f 41/41/41 33/33/33 40/40/40
f 19/19/19 42/42/42 35/35/35
f 19/19/19 18/18/18 42/42/42
f 41/41/41 40/40/40 43/43/43
f 41/41/41 43/43/43 37/37/37
f 44/44/44 40/40/40 35/35/35
f 44/44/44 35/35/35 42/42/42
f 40/40/40 44/44/44 43/43/43
f 37/37/37 45/45/45 39/39/39
f 45/45/45 46/46/46 39/39/39
f 43/43/43 47/47/47 37/37/37
f 47/47/47 45/45/45 37/37/37
f 48/48/48 46/46/46 45/45/45
f 48/48/48 45/45/45 47/47/47
f 49/49/49 46/46/46 48/48/48
f 50/50/50 43/43/43 44/44/44
f 47/47/47 43/43/43 50/50/50
f 51/51/51 47/47/47 50/50/50
f 50/50/50 44/44/44 52/52/52
f 52/52/52 44/44/44 42/42/42
f 51/51/51 50/50/50 52/52/52
f 53/53/53 48/48/48 47/47/47
f 53/53/53 47/47/47 51/51/51
f 48/48/48 54/54/54 49/49/49
f 54/54/54 48/48/48 53/53/53
f 42/42/42 55/55/55 52/52/52
f 51/51/51 52/52/52 55/55/55
f 42/42/42 56/56/56 55/55/55
f 18/18/18 56/56/56 42/42/42
f 18/18/18 6/6/6 56/56/56
f 54/54/54 57/57/57 49/49/49
f 49/49/49 57/57/57 58/58/58
f 59/59/59 53/53/53 51/51/51
f 54/54/54 53/53/53 59/59/59
f 55/55/55 60/60/60 51/51/51
f 56/56/56 60/60/60 55/55/55
f 6/6/6 61/61/61 56/56/56
f 6/6/6 9/9/9 61/61/61
f 60/60/60 62/62/62 51/51/51
f 59/59/59 51/51/51 62/62/62
f 56/56/56 63/63/63 60/60/60
f 61/61/61 63/63/63 56/56/56
f 60/60/60 63/63/63 62/62/62
f 61/61/61 9/9/9 64/64/64
f 61/61/61 64/64/64 63/63/63
f 16/16/16 64/64/64 9/9/9
f 65/65/65 59/59/59 62/62/62
f 63/63/63 65/65/65 62/62/62
f 66/66/66 54/54/54 59/59/59
f 66/66/66 59/59/59 65/65/65
f 64/64/64 67/67/67 63/63/63
f 65/65/65 63/63/63 67/67/67
f 64/64/64 16/16/16 68/68/68
f 64/64/64 68/68/68 67/67/67
f 66/66/66 69/69/69 54/54/54
f 69/69/69 57/57/57 54/54/54
f 70/70/70 66/66/66 65/65/65
f 70/70/70 65/65/65 67/67/67
f 69/69/69 66/66/66 70/70/70
f 70/70/70 67/67/67 71/71/71
f 67/67/67 68/68/68 71/71/71
f 69/69/69 70/70/70 71/71/71
f 68/68/68 16/16/16 72/72/72
f 68/68/68 72/72/72 71/71/71
f 16/16/16 15/15/15 72/72/72
f 72/72/72 73/73/73 71/71/71
f 72/72/72 15/15/15 73/73/73
f 71/71/71 73/73/73 69/69/69
f 17/17/17 73/73/73 15/15/15
f 73/73/73 74/74/74 69/69/69
f 57/57/57 69/69/69 74/74/74
f 73/73/73 17/17/17 74/74/74
f 74/74/74 75/75/75 57/57/57
f 75/75/75 58/58/58 57/57/57
f 76/76/76 58/58/58 75/75/75
f 14/14/14 76/76/76 75/75/75
f 77/77/77 17/17/17 14/14/14
f 17/17/17 77/77/77 74/74/74
f 77/77/77 14/14/14 75/75/75
f 75/75/75 74/74/74 77/77/77
f 80/80/80 79/79/79 78/78/78
f 81/81/81 80/80/80 78/78/78
f 78/78/78 82/82/82 81/81/81
f 80/80/80 81/81/81 83/83/83
f 82/82/82 84/84/84 81/81/81
f 81/81/81 85/85/85 83/83/83
f 81/81/81 84/84/84 85/85/85
f 83/83/83 85/85/85 86/86/86
f 84/84/84 87/87/87 85/85/85
f 84/84/84 88/88/88 87/87/87
f 87/87/87 88/88/88 89/89/89
f 89/89/89 90/90/90 87/87/87
f 85/85/85 91/91/91 86/86/86
f 87/87/87 91/91/91 85/85/85
f 90/90/90 91/91/91 87/87/87
f 86/86/86 91/91/91 92/92/92
f 92/92/92 91/91/91 90/90/90
