g Pumpkin1_LOD1
v 0.001096332 -3.331714E-05 0.01025431
v 0.002262621 -0.0004157437 0.01046572
v 0.002228097 -4.003649E-05 0.01036362
v 0.001091235 -0.0002986538 0.01051048
v 0.001022609 -0.0002826218 0.01073196
v 0.0001165242 -0.0004648103 0.009963034
v 0.002239136 -0.0002048467 0.01086938
v 0.0006436839 -0.0004922684 0.009747572
v 0.0008010296 -3.739808E-05 0.009657989
v 0.0009791142 -1.59493E-06 0.009350533
v 0.0005941681 -0.0007841134 0.009254806
v -0.0001877773 -0.0008087831 0.00918194
v -0.0006329085 -0.0002980751 0.009166794
v 0.0008325293 -1.287383E-05 0.01087589
v 0.002197265 4.049883E-05 0.01074537
v 9.143865E-05 0.0001039451 0.0101519
v -0.0004096573 0.0005544899 0.009183383
v 0.0008595806 0.0002715644 0.01068302
v 0.0002574786 0.0004375004 0.009793871
v 0.0004471841 0.0007001137 0.009291803
v 0.0009791142 -1.59493E-06 0.009350533
v 0.0008010296 -3.739808E-05 0.009657989
v 0.0008609009 0.0002846107 0.01044265
v 0.002228097 -4.003649E-05 0.01036362
v 0.001096332 -3.331714E-05 0.01025431
v 0.0004471841 0.0007001137 0.009291803
v 0.0017837 0.0005457978 0.009212583
v 0.0009791142 -1.59493E-06 0.009350533
v 0.001159812 0.001398464 0.009147726
v -0.0001637771 0.001661229 0.009058396
v -0.0004096573 0.0005544899 0.009183383
v 0.002405246 0.0009612055 0.008631798
v 0.002654698 -6.158523E-05 0.008627197
v 0.003138604 3.804539E-05 0.007728299
v 0.002699706 0.001763334 0.00756041
v 0.003644078 -2.955143E-09 0.006388971
v 0.001799453 0.001806394 0.008615986
v 0.00084624 0.002312095 0.008609091
v 0.001261461 0.002949024 0.007578995
v 0.003132158 0.001941301 0.006200985
v 0.003844674 0.0005527776 0.004582363
v 0.00197368 0.003071099 0.006227016
v 0.003240946 0.00220328 0.004585408
v -0.001642696 0.0001905469 0.008909969
v -0.0006329085 -0.0002980751 0.009166794
v -0.0001270398 0.00238443 0.008632448
v -0.001810298 0.001608758 0.008523137
v -0.0004869903 0.003150989 0.007603234
v 0.000478738 0.003635509 0.006325303
v 0.003173511 0.002028994 0.002873466
v 0.003696571 0.0005314838 0.002894426
v 0.00157175 0.003585627 0.004527091
v 0.001572771 0.003422628 0.002873466
v 0.002794104 0.001738002 0.001625467
v 0.003298803 -7.867012E-05 0.001650607
v 0.002447422 -2.115965E-09 0.0006449208
v 0.001400764 0.002984079 0.001639439
v 0.002058903 0.001323174 0.0006449208
v 0.001446141 0.000350168 0.0002557683
v 0.001016698 0.002226252 0.0006449208
v 0.0002137915 0.001486945 0.0002523561
v 4.009767E-10 -9.482558E-10 0.000497909
v -0.0003483043 0.00242251 0.0006449208
v -0.0004349202 0.003267677 0.001639439
v 1.804367E-11 0.003734584 0.002894426
v -0.00160272 0.001849638 0.0006449208
v 1.113685E-11 0.003884209 0.004582363
v -0.001509819 0.003453923 0.00292246
v -0.001094308 0.003726871 0.004582363
v -0.001585389 0.003326501 0.006200984
v -0.001288907 0.0007434096 0.0002557683
v -0.002117754 0.002540483 0.001669154
v -0.002608677 0.002919233 0.004527091
v -0.002134245 0.002426917 0.007547944
v -0.003113057 0.002116341 0.002877545
v -0.002998711 0.001369465 0.001706605
v -0.003760815 4.459484E-05 0.002829319
v -0.002758958 0.00239065 0.006227016
v -0.003533201 0.001613559 0.004582363
v -0.002348284 0.0006895179 0.0006449208
v -0.003530495 0.001027393 0.006266834
v -0.003106056 0.0008500134 0.007547744
v -0.003318548 -5.526846E-10 0.001709976
v -0.002348284 -0.0006895191 0.0006449208
v -0.003844673 0.0005527802 0.004582363
v -0.003844673 -0.000552781 0.004582363
v -0.002837863 -0.001756784 0.001731754
v -0.001240351 -0.0007971258 0.0002582834
v -0.00160272 -0.001849639 0.0006449208
v -0.003173509 -0.002028998 0.002873466
v -0.003613466 -0.0005195385 0.006227016
v -0.0002054708 -0.001429082 0.0002569346
v -0.001782287 -0.002773294 0.001706605
v -0.0035332 -0.001613559 0.004582363
v 0.000965532 -0.001114284 0.0002582833
v 0.001446141 0.000350168 0.0002557683
v -0.0003483045 -0.002422511 0.0006449208
v 0.002058902 -0.001323178 0.0006449208
v 0.002447422 -2.115965E-09 0.0006449208
v 0.003298803 -7.867012E-05 0.001650607
v 0.001016695 -0.002226254 0.0006449208
v -0.0004546212 -0.003288954 0.001670874
v -0.001621578 -0.003402884 0.00292246
v -0.002935489 -0.002543616 0.004582363
v 0.001385718 -0.002970202 0.001622105
v 0.002747705 -0.001840939 0.001669154
v 0.001554827 -0.003404602 0.002781441
v 0.00361162 -0.00106967 0.002873466
v 0.003696571 0.0005314838 0.002894426
v -0.003101366 -0.001932628 0.006323609
v -5.458627E-10 -0.003734584 0.002894426
v 0.002822409 -0.002445634 0.002894426
v 0.003772815 -0.001045461 0.004527091
v 0.003844674 0.0005527776 0.004582363
v 0.003644078 -2.955143E-09 0.006388971
v 0.002935488 -0.002543617 0.004582363
v 0.002099961 -0.003267605 0.004582363
v 0.001094307 -0.003726871 0.004582363
v -0.0006147488 -0.00386318 0.004644073
v 0.003320724 -0.001516526 0.006227016
v 0.001562765 -0.00331721 0.006325302
v 0.002532237 -0.001119796 0.008500845
v 0.003138604 3.804539E-05 0.007728299
v 0.002654698 -6.158523E-05 0.008627197
v 0.001709337 -0.0009804618 0.009201665
v 0.0017837 0.0005457978 0.009212583
v 0.0009791142 -1.59493E-06 0.009350533
v 0.0005941681 -0.0007841134 0.009254806
v -0.0004399027 -0.001776562 0.00890901
v -0.0001877773 -0.0008087831 0.00918194
v 0.002583721 -0.002336369 0.006876295
v 0.001824471 -0.001908817 0.00858413
v 0.0005453408 -0.002556445 0.008524023
v 0.001277637 -0.002907319 0.007634885
v -0.0004318701 -0.003171663 0.007597249
v -0.001350111 -0.0009814582 0.008916421
v -0.0008272056 -0.002374466 0.00854895
v -0.001924595 -0.001461787 0.008556998
v -0.0005144941 -0.003640773 0.006266834
v -0.002081514 -0.002440048 0.007582773
v -0.002351865 -0.0001064527 0.008552573
v -0.003073793 -0.0009280266 0.007575323
v -0.001973676 -0.003071101 0.006227016
v -0.002099962 -0.003267605 0.004582363
v 0.002228097 -4.003649E-05 0.01036362
v 0.002262621 -0.0004157437 0.01046572
v 0.002197265 4.049883E-05 0.01074537
v 0.002239136 -0.0002048467 0.01086938
vt 0.8328559 0.7945885
vt 0.8957449 0.7154644
vt 0.8675883 0.7086345
vt 0.8629923 0.8041832
vt 0.8782061 0.8132527
vt 0.8378823 0.8982683
vt 0.9284384 0.7313023
vt 0.8045011 0.8607543
vt 0.7853563 0.8221591
vt 0.7578607 0.8275099
vt 0.7689101 0.8891021
vt 0.7884994 0.9472438
vt 0.8298409 0.98343
vt 0.8965359 0.8310426
vt 0.9472766 0.7423425
vt 0.8845799 0.917293
vt 0.9001479 0.9915148
vt 0.9175308 0.8372627
vt 0.9254352 0.9170227
vt 0.9600989 0.9574474
vt 0.9955865 0.9143705
vt 0.9730262 0.8956159
vt 0.9382707 0.8463734
vt 0.9776883 0.7493697
vt 0.9617497 0.8399764
vt 0.2981371 0.8364319
vt 0.1954818 0.8116748
vt 0.2732517 0.8690414
vt 0.2144343 0.7667031
vt 0.2790606 0.7315363
vt 0.3825668 0.8169869
vt 0.1383796 0.7382067
vt 0.1312793 0.7756214
vt 0.05892226 0.665291
vt 0.1002274 0.6181196
vt 0.01298887 0.5140956
vt 0.1598459 0.7030905
vt 0.1970933 0.6791967
vt 0.1576458 0.5855309
vt 0.07372326 0.4950823
vt 0.0188782 0.3339549
vt 0.120936 0.4835851
vt 0.08723701 0.3540086
vt 0.4392161 0.7041535
vt 0.5000054 0.8067812
vt 0.2430446 0.6645157
vt 0.3473522 0.6460631
vt 0.2308157 0.5678906
vt 0.1794298 0.477579
vt 0.1290061 0.2268818
vt 0.08591795 0.1770021
vt 0.1490283 0.365209
vt 0.1788 0.2597595
vt 0.1813813 0.1475681
vt 0.1670273 0.09139889
vt 0.2722112 0.01708359
vt 0.2157333 0.1909421
vt 0.2539399 0.08385473
vt 0.33856 0.02723385
vt 0.2694997 0.1271083
vt 0.3415732 0.09748177
vt 0.4606422 0.03791985
vt 0.308763 0.1581272
vt 0.2712861 0.2200342
vt 0.2283898 0.2778011
vt 0.3617182 0.17855
vt 0.2043849 0.3722443
vt 0.282989 0.2902232
vt 0.246437 0.3763515
vt 0.2661163 0.47351
vt 0.4169804 0.1330804
vt 0.337843 0.2386378
vt 0.314875 0.3811432
vt 0.315465 0.5575175
vt 0.3623511 0.3012688
vt 0.3950344 0.2474883
vt 0.4482028 0.3057485
vt 0.3317631 0.4720436
vt 0.3801363 0.3840391
vt 0.4217625 0.189113
vt 0.4021633 0.4713008
vt 0.4072019 0.5522192
vt 0.4515294 0.2500886
vt 0.4847592 0.1903938
vt 0.4258652 0.3850087
vt 0.4718557 0.38526
vt 0.5253305 0.2474613
vt 0.5044504 0.1332373
vt 0.5476332 0.1825727
vt 0.5343745 0.3038021
vt 0.4723528 0.4710685
vt 0.5683267 0.1126603
vt 0.5840719 0.2401004
vt 0.5178831 0.3848313
vt 0.6064714 0.0700051
vt 0.5971011 0.006968711
vt 0.6071278 0.1653804
vt 0.6931242 0.1008781
vt 0.702561 0.03887514
vt 0.803171 0.1303316
vt 0.6583647 0.1383711
vt 0.6395139 0.228091
vt 0.6163105 0.2963043
vt 0.563813 0.3837883
vt 0.7065816 0.2054666
vt 0.7574605 0.1777523
vt 0.7371286 0.274899
vt 0.8292229 0.2487506
vt 0.8901485 0.2192957
vt 0.5406116 0.4713111
vt 0.6799709 0.2867589
vt 0.7879804 0.2621083
vt 0.8647897 0.3793367
vt 0.9239362 0.3851702
vt 0.8921145 0.5305248
vt 0.8175346 0.3747702
vt 0.7813564 0.3747154
vt 0.7412903 0.3760336
vt 0.6742459 0.3792346
vt 0.8505746 0.5036038
vt 0.7670081 0.4821776
vt 0.7943855 0.6865774
vt 0.8577321 0.6479598
vt 0.8054345 0.7369712
vt 0.7404934 0.7558876
vt 0.7530305 0.8078786
vt 0.6831318 0.8476286
vt 0.6570234 0.8099607
vt 0.6235663 0.7028999
vt 0.5861837 0.799669
vt 0.8116806 0.5410461
vt 0.7612023 0.6725314
vt 0.7021564 0.6496031
vt 0.7500509 0.5764053
vt 0.6741119 0.5621248
vt 0.5351549 0.6994827
vt 0.6305425 0.6390147
vt 0.5468866 0.6356872
vt 0.6810175 0.4746558
vt 0.5872998 0.5544654
vt 0.4584754 0.6376898
vt 0.4968011 0.5516298
vt 0.6127448 0.472217
vt 0.6094216 0.3821968
vt 0.9483363 0.6969671
vt 0.9228591 0.7011927
vt 0.946494 0.7263492
vt 0.9284384 0.7313023
vn 0.5545125 0.1165029 -0.82398
vn 0.6222336 -0.7237644 -0.2983128
vn 0.6440378 0.3947973 -0.6552483
vn 0.1279547 -0.9739289 -0.1873239
vn -0.1444532 -0.8109608 0.5669884
vn -0.4309922 -0.6899008 0.5816208
vn 0.6195652 -0.2229483 0.7526174
vn 0.5402026 -0.8191202 0.1929333
vn 0.9798859 0.1892994 0.06316219
vn 0.4349636 0.05402528 0.8988258
vn 0.1450356 -0.5031335 0.8519515
vn -0.2521809 -0.4577125 0.8525867
vn -0.4653833 -0.1224124 0.8766035
vn -0.3474367 0.04745115 0.936502
vn 0.5946411 0.7120528 0.3733399
vn -0.6994228 0.2481059 0.6702621
vn -0.3840195 0.290316 0.8764963
vn -0.1261699 0.8609118 0.4928612
vn 0.02807447 0.8960867 0.4429902
vn 0.09267622 0.4392819 0.8935562
vn 0.4349636 0.05402528 0.8988258
vn 0.9798859 0.1892994 0.06316219
vn 0.3062615 0.9345088 -0.1813762
vn 0.6440378 0.3947973 -0.6552483
vn 0.5545125 0.1165029 -0.82398
vn 0.09267622 0.4392819 0.8935562
vn 0.3759127 0.1512662 0.9142255
vn 0.4349636 0.05402528 0.8988258
vn 0.1987499 0.3644726 0.9097572
vn -0.1426897 0.3631956 0.9207218
vn -0.3840195 0.290316 0.8764963
vn 0.6948165 0.3140795 0.6469808
vn 0.7658383 0.013687 0.6428875
vn 0.9174196 0.02987629 0.3967978
vn 0.7619196 0.4976742 0.4144863
vn 0.9659483 0.02335349 0.257679
vn 0.4935376 0.562203 0.6635876
vn 0.181648 0.6806656 0.7097172
vn 0.3569017 0.8192051 0.4489144
vn 0.8241388 0.5135347 0.2389088
vn 0.9877639 0.1540597 0.02424925
vn 0.5421451 0.8077667 0.2314987
vn 0.8226751 0.5678686 0.02703883
vn -0.3760942 0.06330783 0.9244162
vn -0.4653833 -0.1224124 0.8766035
vn -0.1011518 0.66922 0.7361474
vn -0.4809978 0.415186 0.7721799
vn -0.1529709 0.8591101 0.488395
vn 0.1071736 0.9631755 0.2465905
vn 0.8109976 0.5392425 -0.2269369
vn 0.9650474 0.1519925 -0.2134988
vn 0.4307887 0.902299 0.01665688
vn 0.4221853 0.8769526 -0.2295945
vn 0.7295552 0.4603987 -0.5057491
vn 0.8634991 -0.007683861 -0.5042918
vn 0.6046135 -0.01068587 -0.7964473
vn 0.3726312 0.779386 -0.5036898
vn 0.5030438 0.3303805 -0.7986211
vn 0.1661221 0.04161692 -0.9852267
vn 0.259715 0.543713 -0.7980753
vn 0.02488918 0.1731074 -0.9845884
vn -0.0007523771 -0.005232877 -0.9999861
vn -0.09523218 0.5954232 -0.7977482
vn -0.1051175 0.856607 -0.5051483
vn 0.01730348 0.9754742 -0.2194327
vn -0.3845862 0.4621728 -0.7990555
vn 0.0003565174 0.9996746 0.02550723
vn -0.3999612 0.8903036 -0.2176936
vn -0.2890409 0.9566254 0.03637635
vn -0.3957434 0.8884153 0.2326056
vn -0.1476681 0.08673324 -0.9852267
vn -0.5489192 0.6711128 -0.4982924
vn -0.6701991 0.7418348 0.02268073
vn -0.5783152 0.654039 0.4876316
vn -0.8137985 0.5344283 -0.2282948
vn -0.7976015 0.3548055 -0.4877961
vn -0.9735304 0.009393463 -0.2283642
vn -0.7445511 0.6236715 0.2380705
vn -0.905438 0.4242448 0.0140824
vn -0.5774382 0.1707718 -0.7983747
vn -0.9277108 0.2767646 0.2505074
vn -0.834511 0.2321876 0.4996802
vn -0.8793688 -0.008861364 -0.4760587
vn -0.5802924 -0.1629837 -0.797933
vn -0.9879819 0.1537005 0.0163713
vn -0.9874477 -0.1553269 0.0286487
vn -0.7529078 -0.4562932 -0.4742643
vn -0.1404594 -0.0890969 -0.9860694
vn -0.3879288 -0.4655998 -0.795442
vn -0.8228458 -0.521441 -0.2258849
vn -0.9628571 -0.1293995 0.2369851
vn -0.02162968 -0.1504378 -0.9883829
vn -0.4830055 -0.7265221 -0.4887446
vn -0.9166875 -0.3991543 0.01897322
vn 0.1096683 -0.1250599 -0.9860694
vn 0.1661221 0.04161692 -0.9852267
vn -0.07981385 -0.5903156 -0.8032168
vn 0.511678 -0.3201989 -0.7972819
vn 0.6046135 -0.01068587 -0.7964473
vn 0.8634991 -0.007683861 -0.5042918
vn 0.2475813 -0.5544816 -0.7945147
vn -0.1017558 -0.8607063 -0.498829
vn -0.4392711 -0.8711409 -0.219441
vn -0.745834 -0.6657441 0.02272632
vn 0.3603847 -0.7780091 -0.5146113
vn 0.7139961 -0.4868544 -0.5031723
vn 0.3948699 -0.8858963 -0.2434448
vn 0.9350139 -0.2777984 -0.2204019
vn 0.9650474 0.1519925 -0.2134988
vn -0.8198909 -0.5180545 0.2437178
vn 0.010523 -0.9754005 -0.2201889
vn 0.7348056 -0.6432025 -0.2152934
vn 0.958913 -0.2828062 0.02250539
vn 0.9877639 0.1540597 0.02424925
vn 0.9659483 0.02335349 0.257679
vn 0.7594041 -0.649966 0.02914632
vn 0.5504419 -0.8344311 0.02717458
vn 0.2483248 -0.9681531 0.03184883
vn -0.1310932 -0.9906231 0.03847741
vn 0.8903532 -0.3897152 0.2353574
vn 0.3889277 -0.8891307 0.2412088
vn 0.7482225 -0.3379902 0.570899
vn 0.9174196 0.02987629 0.3967978
vn 0.7658383 0.013687 0.6428875
vn 0.3236517 -0.2619879 0.909182
vn 0.3759127 0.1512662 0.9142255
vn 0.4349636 0.05402528 0.8988258
vn 0.1450356 -0.5031335 0.8519515
vn -0.1273628 -0.3556769 0.9258902
vn -0.2521809 -0.4577125 0.8525867
vn 0.7123663 -0.6304932 0.3082408
vn 0.4722931 -0.5960175 0.649386
vn 0.1086686 -0.6885623 0.7169889
vn 0.3408232 -0.8367907 0.4285102
vn -0.1229469 -0.8889045 0.4412856
vn -0.3094281 -0.1900141 0.9317451
vn -0.2576698 -0.6141556 0.745935
vn -0.5221455 -0.3590807 0.7735795
vn -0.1226546 -0.9602882 0.2506039
vn -0.5698774 -0.6752029 0.4683383
vn -0.6274154 -0.007339985 0.7786502
vn -0.8396428 -0.2377497 0.4883391
vn -0.5169511 -0.82303 0.2353361
vn -0.5421432 -0.8397077 0.03117434
vn 0.6440378 0.3947973 -0.6552483
vn 0.6222336 -0.7237644 -0.2983128
vn 0.5946411 0.7120528 0.3733399
vn 0.6195652 -0.2229483 0.7526174
g Pumpkin1_LOD1_0
f 3/3/3 2/2/2 1/1/1
f 1/1/1 2/2/2 4/4/4
f 2/2/2 5/5/5 4/4/4
f 5/5/5 6/6/6 4/4/4
f 2/2/2 7/7/7 5/5/5
f 4/4/4 8/8/8 1/1/1
f 6/6/6 8/8/8 4/4/4
f 8/8/8 9/9/9 1/1/1
f 10/10/10 9/9/9 8/8/8
f 11/11/11 10/10/10 8/8/8
f 11/11/11 8/8/8 6/6/6
f 12/12/12 11/11/11 6/6/6
f 6/6/6 13/13/13 12/12/12
f 5/5/5 7/7/7 14/14/14
f 5/5/5 14/14/14 6/6/6
f 7/7/7 15/15/15 14/14/14
f 6/6/6 16/16/16 13/13/13
f 6/6/6 14/14/14 16/16/16
f 13/13/13 16/16/16 17/17/17
f 15/15/15 18/18/18 14/14/14
f 16/16/16 14/14/14 18/18/18
f 16/16/16 19/19/19 17/17/17
f 19/19/19 16/16/16 18/18/18
f 17/17/17 19/19/19 20/20/20
f 21/21/21 20/20/20 19/19/19
f 22/22/22 21/21/21 19/19/19
f 15/15/15 23/23/23 18/18/18
f 18/18/18 23/23/23 19/19/19
f 22/22/22 19/19/19 23/23/23
f 15/15/15 24/24/24 23/23/23
f 25/25/25 22/22/22 23/23/23
f 23/23/23 24/24/24 25/25/25
f 28/28/28 27/27/27 26/26/26
f 27/27/27 29/29/29 26/26/26
f 30/30/30 26/26/26 29/29/29
f 31/31/31 26/26/26 30/30/30
f 27/27/27 32/32/32 29/29/29
f 27/27/27 33/33/33 32/32/32
f 33/33/33 34/34/34 32/32/32
f 34/34/34 35/35/35 32/32/32
f 34/34/34 36/36/36 35/35/35
f 32/32/32 37/37/37 29/29/29
f 37/37/37 32/32/32 35/35/35
f 38/38/38 29/29/29 37/37/37
f 29/29/29 38/38/38 30/30/30
f 38/38/38 37/37/37 39/39/39
f 39/39/39 37/37/37 35/35/35
f 36/36/36 40/40/40 35/35/35
f 36/36/36 41/41/41 40/40/40
f 40/40/40 42/42/42 35/35/35
f 42/42/42 39/39/39 35/35/35
f 41/41/41 43/43/43 40/40/40
f 40/40/40 43/43/43 42/42/42
f 44/44/44 31/31/31 30/30/30
f 45/45/45 31/31/31 44/44/44
f 38/38/38 46/46/46 30/30/30
f 38/38/38 39/39/39 46/46/46
f 47/47/47 30/30/30 46/46/46
f 44/44/44 30/30/30 47/47/47
f 39/39/39 48/48/48 46/46/46
f 46/46/46 48/48/48 47/47/47
f 39/39/39 42/42/42 49/49/49
f 48/48/48 39/39/39 49/49/49
f 43/43/43 41/41/41 50/50/50
f 41/41/41 51/51/51 50/50/50
f 43/43/43 52/52/52 42/42/42
f 49/49/49 42/42/42 52/52/52
f 43/43/43 50/50/50 53/53/53
f 52/52/52 43/43/43 53/53/53
f 50/50/50 51/51/51 54/54/54
f 51/51/51 55/55/55 54/54/54
f 54/54/54 55/55/55 56/56/56
f 53/53/53 50/50/50 57/57/57
f 50/50/50 54/54/54 57/57/57
f 58/58/58 54/54/54 56/56/56
f 59/59/59 58/58/58 56/56/56
f 54/54/54 58/58/58 60/60/60
f 57/57/57 54/54/54 60/60/60
f 58/58/58 59/59/59 61/61/61
f 60/60/60 58/58/58 61/61/61
f 59/59/59 62/62/62 61/61/61
f 57/57/57 60/60/60 63/63/63
f 61/61/61 63/63/63 60/60/60
f 53/53/53 57/57/57 64/64/64
f 64/64/64 57/57/57 63/63/63
f 52/52/52 53/53/53 65/65/65
f 65/65/65 53/53/53 64/64/64
f 66/66/66 63/63/63 61/61/61
f 64/64/64 63/63/63 66/66/66
f 67/67/67 52/52/52 65/65/65
f 49/49/49 52/52/52 67/67/67
f 64/64/64 68/68/68 65/65/65
f 67/67/67 65/65/65 68/68/68
f 67/67/67 69/69/69 49/49/49
f 69/69/69 67/67/67 68/68/68
f 69/69/69 70/70/70 49/49/49
f 70/70/70 48/48/48 49/49/49
f 71/71/71 66/66/66 61/61/61
f 61/61/61 62/62/62 71/71/71
f 64/64/64 72/72/72 68/68/68
f 72/72/72 64/64/64 66/66/66
f 68/68/68 73/73/73 69/69/69
f 73/73/73 70/70/70 69/69/69
f 74/74/74 48/48/48 70/70/70
f 48/48/48 74/74/74 47/47/47
f 68/68/68 72/72/72 75/75/75
f 68/68/68 75/75/75 73/73/73
f 76/76/76 72/72/72 66/66/66
f 72/72/72 76/76/76 75/75/75
f 77/77/77 75/75/75 76/76/76
f 78/78/78 70/70/70 73/73/73
f 74/74/74 70/70/70 78/78/78
f 75/75/75 79/79/79 73/73/73
f 73/73/73 79/79/79 78/78/78
f 79/79/79 75/75/75 77/77/77
f 80/80/80 76/76/76 66/66/66
f 66/66/66 71/71/71 80/80/80
f 78/78/78 81/81/81 74/74/74
f 79/79/79 81/81/81 78/78/78
f 82/82/82 47/47/47 74/74/74
f 81/81/81 82/82/82 74/74/74
f 76/76/76 80/80/80 83/83/83
f 83/83/83 77/77/77 76/76/76
f 84/84/84 80/80/80 71/71/71
f 80/80/80 84/84/84 83/83/83
f 81/81/81 79/79/79 85/85/85
f 85/85/85 79/79/79 77/77/77
f 85/85/85 86/86/86 81/81/81
f 77/77/77 86/86/86 85/85/85
f 77/77/77 83/83/83 87/87/87
f 83/83/83 84/84/84 87/87/87
f 88/88/88 84/84/84 71/71/71
f 71/71/71 62/62/62 88/88/88
f 84/84/84 88/88/88 89/89/89
f 84/84/84 89/89/89 87/87/87
f 90/90/90 77/77/77 87/87/87
f 86/86/86 77/77/77 90/90/90
f 86/86/86 91/91/91 81/81/81
f 81/81/81 91/91/91 82/82/82
f 88/88/88 62/62/62 92/92/92
f 89/89/89 88/88/88 92/92/92
f 87/87/87 89/89/89 93/93/93
f 90/90/90 87/87/87 93/93/93
f 94/94/94 86/86/86 90/90/90
f 86/86/86 94/94/94 91/91/91
f 92/92/92 62/62/62 95/95/95
f 95/95/95 62/62/62 96/96/96
f 97/97/97 89/89/89 92/92/92
f 93/93/93 89/89/89 97/97/97
f 98/98/98 95/95/95 96/96/96
f 99/99/99 98/98/98 96/96/96
f 99/99/99 100/100/100 98/98/98
f 95/95/95 101/101/101 92/92/92
f 101/101/101 97/97/97 92/92/92
f 95/95/95 98/98/98 101/101/101
f 102/102/102 93/93/93 97/97/97
f 102/102/102 97/97/97 101/101/101
f 103/103/103 90/90/90 93/93/93
f 93/93/93 102/102/102 103/103/103
f 90/90/90 104/104/104 94/94/94
f 104/104/104 90/90/90 103/103/103
f 105/105/105 101/101/101 98/98/98
f 105/105/105 102/102/102 101/101/101
f 100/100/100 106/106/106 98/98/98
f 106/106/106 105/105/105 98/98/98
f 105/105/105 107/107/107 102/102/102
f 107/107/107 105/105/105 106/106/106
f 106/106/106 100/100/100 108/108/108
f 100/100/100 109/109/109 108/108/108
f 110/110/110 94/94/94 104/104/104
f 94/94/94 110/110/110 91/91/91
f 103/103/103 102/102/102 111/111/111
f 107/107/107 111/111/111 102/102/102
f 106/106/106 108/108/108 112/112/112
f 112/112/112 107/107/107 106/106/106
f 113/113/113 108/108/108 109/109/109
f 114/114/114 113/113/113 109/109/109
f 115/115/115 113/113/113 114/114/114
f 116/116/116 112/112/112 108/108/108
f 113/113/113 116/116/116 108/108/108
f 117/117/117 107/107/107 112/112/112
f 116/116/116 117/117/117 112/112/112
f 107/107/107 118/118/118 111/111/111
f 118/118/118 107/107/107 117/117/117
f 103/103/103 111/111/111 119/119/119
f 118/118/118 119/119/119 111/111/111
f 115/115/115 120/120/120 113/113/113
f 116/116/116 113/113/113 120/120/120
f 121/121/121 118/118/118 117/117/117
f 117/117/117 116/116/116 121/121/121
f 120/120/120 115/115/115 122/122/122
f 115/115/115 123/123/123 122/122/122
f 123/123/123 124/124/124 122/122/122
f 124/124/124 125/125/125 122/122/122
f 126/126/126 125/125/125 124/124/124
f 127/127/127 125/125/125 126/126/126
f 127/127/127 128/128/128 125/125/125
f 125/125/125 128/128/128 129/129/129
f 128/128/128 130/130/130 129/129/129
f 129/129/129 130/130/130 45/45/45
f 131/131/131 116/116/116 120/120/120
f 122/122/122 131/131/131 120/120/120
f 116/116/116 131/131/131 121/121/121
f 125/125/125 132/132/132 122/122/122
f 132/132/132 131/131/131 122/122/122
f 125/125/125 133/133/133 132/132/132
f 125/125/125 129/129/129 133/133/133
f 132/132/132 134/134/134 131/131/131
f 131/131/131 134/134/134 121/121/121
f 132/132/132 133/133/133 134/134/134
f 121/121/121 134/134/134 135/135/135
f 133/133/133 135/135/135 134/134/134
f 136/136/136 129/129/129 45/45/45
f 45/45/45 44/44/44 136/136/136
f 133/133/133 129/129/129 137/137/137
f 133/133/133 137/137/137 135/135/135
f 136/136/136 138/138/138 129/129/129
f 138/138/138 136/136/136 44/44/44
f 138/138/138 137/137/137 129/129/129
f 139/139/139 121/121/121 135/135/135
f 118/118/118 121/121/121 139/139/139
f 119/119/119 118/118/118 139/139/139
f 137/137/137 140/140/140 135/135/135
f 139/139/139 135/135/135 140/140/140
f 137/137/137 138/138/138 140/140/140
f 141/141/141 138/138/138 44/44/44
f 44/44/44 47/47/47 141/141/141
f 141/141/141 47/47/47 82/82/82
f 138/138/138 141/141/141 142/142/142
f 141/141/141 82/82/82 142/142/142
f 138/138/138 142/142/142 140/140/140
f 91/91/91 142/142/142 82/82/82
f 142/142/142 91/91/91 110/110/110
f 140/140/140 142/142/142 110/110/110
f 143/143/143 139/139/139 140/140/140
f 140/140/140 110/110/110 143/143/143
f 119/119/119 139/139/139 143/143/143
f 110/110/110 104/104/104 143/143/143
f 144/144/144 119/119/119 143/143/143
f 104/104/104 144/144/144 143/143/143
f 103/103/103 119/119/119 144/144/144
f 144/144/144 104/104/104 103/103/103
f 147/147/147 146/146/146 145/145/145
f 146/146/146 147/147/147 148/148/148
