g Pumpkin2_LOD2
v 0.001616282 -0.001344997 0.01253109
v -0.0001260047 -0.003148564 0.01575169
v 0.0013929 -0.002018291 0.01429434
v -0.001109657 0.007717854 0.0006148227
v -0.005967886 0.003905697 0.0003175074
v 0.004900005 0.005461066 0.0004059052
v 0.003681082 -0.008249593 0.01016061
v 0.001214541 -0.005487413 0.01321018
v 0.00388302 -0.004465828 0.01304038
v -0.001057413 -0.009093306 0.009850644
v 0.001311138 -0.009883665 0.005768647
v 0.006393611 -0.007611012 0.005954063
v 0.006108207 -0.006973776 0.002634916
v 0.001304428 -0.009072507 0.002478711
v 0.006419966 -0.004510933 0.0005907781
v -0.001090324 -0.007702949 0.0005947204
v 0.003954999 -0.004564315 0.0003242153
v -0.00503409 -0.003430412 0.0003069167
v -0.003896043 -0.008412168 0.002634914
v -0.00742249 -0.002523304 0.0005834039
v -0.005623624 -0.00836532 0.00569423
v -0.005967886 0.003905697 0.0003175074
v 9.211627E-10 -2.33E-09 0.001955201
v -0.007759757 -0.004900681 0.002524747
v -0.009270451 4.942275E-05 0.002634915
v -0.00955661 -0.002806076 0.00605338
v -0.006243579 -0.007205476 0.008675109
v -0.003011786 -0.007379631 0.01152794
v -0.003893729 -0.00331096 0.01296125
v -0.005505305 -0.004960461 0.01220499
v -0.0007385378 -0.00216879 0.01124823
v 0.001812068 -0.001724361 0.01128079
v -0.0022983 4.267019E-05 0.01125295
v -0.008607251 -0.00228708 0.01039586
v -0.006622572 -0.000683119 0.01229954
v -0.008629077 0.002575567 0.01028011
v -0.009573103 0.002655866 0.005770343
v -0.007842836 0.005849028 0.003834493
v -0.004879091 0.004298727 0.0124107
v -0.003982924 -0.0001984064 0.01249328
v -0.002908132 0.003749598 0.01275168
v -0.0008321708 0.002294092 0.0112616
v -0.004202629 0.008864368 0.003836832
v -0.001109657 0.007717854 0.0006148227
v -0.00606394 0.006600128 0.01033452
v -0.002688623 0.008228319 0.01098488
v 0.001875396 0.003845135 0.01248851
v 0.002152778 0.001589038 0.01130353
v 0.00131776 0.009165193 0.002589927
v 0.004900005 0.005461066 0.0004059052
v 0.001418439 0.009865437 0.007195798
v 0.002055184 0.005675143 0.01267776
v 0.004779845 -0.001468286 0.01299776
v 0.001812068 -0.001724361 0.01128079
v 0.001214541 -0.005487413 0.01321018
v 0.00388302 -0.004465828 0.01304038
v 0.006119951 0.007595857 0.003711773
v 0.006139408 0.006728909 0.01006069
v 0.003230593 0.00779208 0.01094897
v 0.004731605 0.003533452 0.01297478
v 0.007038813 -0.0004400795 0.01254181
v 0.00887588 0.002499483 0.002563561
v 0.006851309 0.001852926 0.0003301306
v 0.007088811 -0.005319957 0.01040823
v 0.003681082 -0.008249593 0.01016061
v 0.006393611 -0.007611012 0.005954063
v 0.009535164 -0.002913173 0.005768648
v 0.006108207 -0.006973776 0.002634916
v 0.008839038 -0.002134365 0.009997399
v 0.008206085 0.002341153 0.01081883
v 0.009590348 0.002444467 0.007244329
v 0.008276223 0.00549564 0.005770342
v 0.008826112 -0.002515996 0.002524747
v 0.006419966 -0.004510933 0.0005907781
v 0.003954999 -0.004564315 0.0003242153
v 0.003954999 -0.004564315 0.0003242153
v 9.211627E-10 -2.33E-09 0.001955201
v -0.00503409 -0.003430412 0.0003069167
v 0.006851309 0.001852926 0.0003301306
v 0.004900005 0.005461066 0.0004059052
v -0.005967886 0.003905697 0.0003175074
v 0.001812068 -0.001724361 0.01128079
v -0.0007385378 -0.00216879 0.01124823
v 0.001616282 -0.001344997 0.01253109
v -0.0003798071 -0.0005356488 0.01273657
v -0.0022983 4.267019E-05 0.01125295
v -0.0008321708 0.002294092 0.0112616
v -0.000258353 -0.001428856 0.01426545
v -0.0001260047 -0.003148564 0.01575169
v -0.001109729 -0.002360121 0.01559617
v 0.0009683382 -0.0004598979 0.01423986
v -0.001109729 -0.002360121 0.01559617
v -0.0001260047 -0.003148564 0.01575169
v 0.0013929 -0.002018291 0.01429434
v 0.002152778 0.001589038 0.01130353
v 0.001616282 -0.001344997 0.01253109
v 0.001812068 -0.001724361 0.01128079
vt 0.7061014 0.6598037
vt 0.8652378 0.572246
vt 0.7782153 0.6281674
vt 0.6532688 0.5340794
vt 0.4829549 0.5643866
vt 0.8035701 0.500331
vt 0.1089764 0.1175314
vt 0.213242 0.06256392
vt 0.2049355 0.03286934
vt 0.1330232 0.1809625
vt 0.07982959 0.2587135
vt 0.03954142 0.2143554
vt 0.02663852 0.3309189
vt 0.07291749 0.3543036
vt 0.02987854 0.4126182
vt 0.1122896 0.4532959
vt 0.06516125 0.4977012
vt 0.2362771 0.5750678
vt 0.1387375 0.4016671
vt 0.2785264 0.5270259
vt 0.1709247 0.3296211
vt 0.4829549 0.5643866
vt 0.4237854 0.7843162
vt 0.2320864 0.4453588
vt 0.3448609 0.4737811
vt 0.2931847 0.3856169
vt 0.2034549 0.2731075
vt 0.1980966 0.1660866
vt 0.3041072 0.1468812
vt 0.2674877 0.1971535
vt 0.364039 0.03861406
vt 0.3431248 0.001409211
vt 0.4544572 0.07857374
vt 0.31904 0.2822427
vt 0.368758 0.2262431
vt 0.41987 0.3088869
vt 0.4060455 0.4082009
vt 0.4812543 0.4568255
vt 0.5065358 0.2476288
vt 0.4104735 0.1506197
vt 0.5327103 0.1943059
vt 0.571593 0.09990945
vt 0.5880674 0.4532439
vt 0.6532688 0.5340794
vt 0.5155917 0.3243551
vt 0.6004886 0.3044156
vt 0.6807281 0.1556263
vt 0.6874932 0.08866532
vt 0.7037077 0.4647364
vt 0.8035701 0.500331
vt 0.6928899 0.3756874
vt 0.6941672 0.2147764
vt 0.8306299 0.1090389
vt 0.7424358 0.03795006
vt 0.8006526 0.04001901
vt 0.8590937 0.08270511
vt 0.795698 0.4164634
vt 0.79036 0.2792406
vt 0.7210197 0.2769974
vt 0.7664869 0.183305
vt 0.8500085 0.1524897
vt 0.8857027 0.4037341
vt 0.8780342 0.4758874
vt 0.9253154 0.1638692
vt 0.9434351 0.1387512
vt 0.9767936 0.2539313
vt 0.9348513 0.2894138
vt 0.9799504 0.3487737
vt 0.9042372 0.2091598
vt 0.8472254 0.219091
vt 0.879123 0.2939706
vt 0.8387378 0.3521064
vt 0.938794 0.3698825
vt 0.9571353 0.4301994
vt 0.9465799 0.48357
vt 0.3026296 0.8878487
vt 0.4237854 0.7843162
vt 0.2682034 0.6619399
vt 0.5778815 0.8905773
vt 0.6177764 0.7594972
vt 0.5245504 0.6492864
vt 0.6464654 0.6493129
vt 0.6326876 0.7153568
vt 0.7061014 0.6598037
vt 0.7330794 0.7551181
vt 0.6308146 0.8114276
vt 0.6835265 0.9003838
vt 0.8270117 0.6894124
vt 0.8652378 0.572246
vt 0.8978089 0.6117866
vt 0.84962 0.7644961
vt 0.9190373 0.6134238
vt 0.9798669 0.6631962
vt 0.9299308 0.7683505
vt 0.80617 0.9411345
vt 0.9194417 0.856616
vt 0.9607216 0.9094359
vn 0.6921563 -0.7081791 0.1392919
vn 0.166421 -0.8521559 0.4961194
vn 0.8197815 -0.4294385 0.3788678
vn -0.09589179 0.5702235 -0.8158737
vn -0.3582333 0.2377744 -0.9028468
vn 0.295301 0.3212115 -0.8997891
vn 0.3484982 -0.8054919 0.4793033
vn 0.01300107 -0.2193092 0.9755687
vn 0.2916983 -0.3069577 0.9059189
vn -0.1005609 -0.901691 0.4205246
vn 0.1159115 -0.9930602 -0.01989844
vn 0.6526173 -0.7576636 -0.006042753
vn 0.5637607 -0.6953923 -0.4456493
vn 0.1544893 -0.8793253 -0.4504665
vn 0.4719449 -0.3283227 -0.8182128
vn -0.07803761 -0.5469652 -0.8335101
vn 0.02267586 -0.05722373 -0.9981039
vn -0.05316464 -0.06793597 -0.9962722
vn -0.3711172 -0.8067526 -0.4598069
vn -0.5566064 -0.1718222 -0.8128139
vn -0.5521283 -0.8333961 -0.02459872
vn -0.3582333 0.2377744 -0.9028468
vn 0.01690767 0.03360171 -0.9992923
vn -0.7341346 -0.5119562 -0.4460352
vn -0.9006504 0.04995984 -0.4316628
vn -0.9558548 -0.2936843 0.009552444
vn -0.6472822 -0.6920844 0.3194447
vn -0.2639927 -0.665811 0.6978564
vn -0.01406929 -0.003021389 0.9998965
vn -0.4565325 -0.4166138 0.7861368
vn 0.01791467 0.05853548 0.9981245
vn -0.01263479 -0.03750762 0.9992164
vn 0.1210394 -0.02371347 0.9923644
vn -0.8508175 -0.2300241 0.472439
vn -0.4734115 0.0009460906 0.8808408
vn -0.8332645 0.2548655 0.4906259
vn -0.963331 0.2682922 0.003570718
vn -0.7608191 0.5780076 -0.2950619
vn -0.3234699 0.273663 0.9058011
vn 0.5102533 0.07297181 0.8569229
vn 0.03460899 0.005096738 0.999388
vn 0.04056014 -0.168375 0.9848882
vn -0.4229982 0.8720599 -0.2461386
vn -0.09589179 0.5702235 -0.8158737
vn -0.6146698 0.6461358 0.4524263
vn -0.2306337 0.7717089 0.5926831
vn -0.1545199 -0.2434842 0.9575171
vn -0.2454056 -0.06207623 0.9674309
vn 0.1567169 0.893729 -0.4203431
vn 0.295301 0.3212115 -0.8997891
vn 0.1318726 0.983322 0.12525
vn 0.0852406 0.3270456 0.9411563
vn -0.08035577 0.03558482 0.9961308
vn -0.01263479 -0.03750762 0.9992164
vn 0.01300107 -0.2193092 0.9755687
vn 0.2916983 -0.3069577 0.9059189
vn 0.5771502 0.7546504 -0.3120902
vn 0.6020278 0.6527512 0.459868
vn 0.2745797 0.7495169 0.6023541
vn 0.2421982 0.2293497 0.9427294
vn 0.5588327 -0.02426258 0.8289255
vn 0.8620718 0.2280689 -0.452567
vn 0.3617723 0.1211605 -0.9243597
vn 0.6866158 -0.5316099 0.4959332
vn 0.3484982 -0.8054919 0.4793033
vn 0.6526173 -0.7576636 -0.006042753
vn 0.9545234 -0.2969839 -0.02618561
vn 0.5637607 -0.6953923 -0.4456493
vn 0.8817503 -0.2265108 0.4137744
vn 0.7897515 0.26616 0.5526765
vn 0.9682499 0.2204702 0.1178343
vn 0.8282259 0.5601466 -0.0166634
vn 0.8743641 -0.2136928 -0.4356866
vn 0.4719449 -0.3283227 -0.8182128
vn 0.02267586 -0.05722373 -0.9981039
vn 0.02267586 -0.05722373 -0.9981039
vn 0.01690767 0.03360171 -0.9992923
vn -0.05316464 -0.06793597 -0.9962722
vn 0.3617723 0.1211605 -0.9243597
vn 0.295301 0.3212115 -0.8997891
vn -0.3582333 0.2377744 -0.9028468
vn -0.01263479 -0.03750762 0.9992164
vn 0.01791467 0.05853548 0.9981245
vn 0.6921563 -0.7081791 0.1392919
vn -0.7339044 -0.1878785 0.6527528
vn 0.1210394 -0.02371347 0.9923644
vn 0.04056014 -0.168375 0.9848882
vn -0.9588302 0.1131052 -0.2604837
vn 0.166421 -0.8521559 0.4961194
vn -0.6087382 -0.5722065 0.5495612
vn 0.224134 0.5922278 0.7739704
vn -0.6087382 -0.5722065 0.5495612
vn 0.166421 -0.8521559 0.4961194
vn 0.8197815 -0.4294385 0.3788678
vn -0.2454056 -0.06207623 0.9674309
vn 0.6921563 -0.7081791 0.1392919
vn -0.01263479 -0.03750762 0.9992164
g Pumpkin2_LOD2_0
f 3/3/3 2/2/2 1/1/1
f 6/6/6 5/5/5 4/4/4
f 9/9/9 8/8/8 7/7/7
f 8/8/8 10/10/10 7/7/7
f 7/7/7 10/10/10 11/11/11
f 7/7/7 11/11/11 12/12/12
f 12/12/12 11/11/11 13/13/13
f 11/11/11 14/14/14 13/13/13
f 13/13/13 14/14/14 15/15/15
f 14/14/14 16/16/16 15/15/15
f 17/17/17 15/15/15 16/16/16
f 18/18/18 17/17/17 16/16/16
f 14/14/14 11/11/11 19/19/19
f 19/19/19 16/16/16 14/14/14
f 18/18/18 16/16/16 20/20/20
f 16/16/16 19/19/19 20/20/20
f 11/11/11 21/21/21 19/19/19
f 10/10/10 21/21/21 11/11/11
f 22/22/22 18/18/18 20/20/20
f 22/22/22 23/23/23 18/18/18
f 19/19/19 24/24/24 20/20/20
f 24/24/24 19/19/19 21/21/21
f 25/25/25 20/20/20 24/24/24
f 20/20/20 25/25/25 22/22/22
f 26/26/26 24/24/24 21/21/21
f 25/25/25 24/24/24 26/26/26
f 10/10/10 27/27/27 21/21/21
f 26/26/26 21/21/21 27/27/27
f 10/10/10 28/28/28 27/27/27
f 8/8/8 28/28/28 10/10/10
f 8/8/8 29/29/29 28/28/28
f 28/28/28 30/30/30 27/27/27
f 28/28/28 29/29/29 30/30/30
f 31/31/31 29/29/29 8/8/8
f 32/32/32 31/31/31 8/8/8
f 29/29/29 31/31/31 33/33/33
f 30/30/30 34/34/34 27/27/27
f 34/34/34 26/26/26 27/27/27
f 30/30/30 35/35/35 34/34/34
f 30/30/30 29/29/29 35/35/35
f 26/26/26 34/34/34 36/36/36
f 35/35/35 36/36/36 34/34/34
f 25/25/25 26/26/26 37/37/37
f 37/37/37 26/26/26 36/36/36
f 38/38/38 25/25/25 37/37/37
f 38/38/38 37/37/37 36/36/36
f 25/25/25 38/38/38 22/22/22
f 29/29/29 39/39/39 35/35/35
f 35/35/35 39/39/39 36/36/36
f 40/40/40 29/29/29 33/33/33
f 29/29/29 40/40/40 39/39/39
f 41/41/41 40/40/40 33/33/33
f 40/40/40 41/41/41 39/39/39
f 42/42/42 41/41/41 33/33/33
f 38/38/38 43/43/43 22/22/22
f 43/43/43 44/44/44 22/22/22
f 45/45/45 38/38/38 36/36/36
f 36/36/36 39/39/39 45/45/45
f 45/45/45 43/43/43 38/38/38
f 39/39/39 46/46/46 45/45/45
f 39/39/39 41/41/41 46/46/46
f 45/45/45 46/46/46 43/43/43
f 41/41/41 42/42/42 47/47/47
f 42/42/42 48/48/48 47/47/47
f 44/44/44 43/43/43 49/49/49
f 44/44/44 49/49/49 50/50/50
f 51/51/51 49/49/49 43/43/43
f 43/43/43 46/46/46 51/51/51
f 46/46/46 41/41/41 52/52/52
f 41/41/41 47/47/47 52/52/52
f 48/48/48 53/53/53 47/47/47
f 48/48/48 54/54/54 53/53/53
f 54/54/54 55/55/55 53/53/53
f 53/53/53 55/55/55 56/56/56
f 49/49/49 57/57/57 50/50/50
f 49/49/49 51/51/51 57/57/57
f 58/58/58 57/57/57 51/51/51
f 59/59/59 58/58/58 51/51/51
f 46/46/46 59/59/59 51/51/51
f 46/46/46 52/52/52 59/59/59
f 58/58/58 59/59/59 52/52/52
f 47/47/47 60/60/60 52/52/52
f 47/47/47 53/53/53 60/60/60
f 60/60/60 58/58/58 52/52/52
f 60/60/60 53/53/53 61/61/61
f 61/61/61 53/53/53 56/56/56
f 58/58/58 60/60/60 61/61/61
f 57/57/57 62/62/62 50/50/50
f 62/62/62 63/63/63 50/50/50
f 61/61/61 56/56/56 64/64/64
f 56/56/56 65/65/65 64/64/64
f 64/64/64 65/65/65 66/66/66
f 66/66/66 67/67/67 64/64/64
f 67/67/67 66/66/66 68/68/68
f 61/61/61 64/64/64 69/69/69
f 67/67/67 69/69/69 64/64/64
f 70/70/70 61/61/61 69/69/69
f 70/70/70 58/58/58 61/61/61
f 71/71/71 70/70/70 69/69/69
f 70/70/70 71/71/71 58/58/58
f 69/69/69 67/67/67 71/71/71
f 71/71/71 67/67/67 62/62/62
f 58/58/58 72/72/72 57/57/57
f 58/58/58 71/71/71 72/72/72
f 62/62/62 72/72/72 71/71/71
f 62/62/62 57/57/57 72/72/72
f 73/73/73 67/67/67 68/68/68
f 67/67/67 73/73/73 62/62/62
f 62/62/62 73/73/73 63/63/63
f 74/74/74 73/73/73 68/68/68
f 73/73/73 74/74/74 63/63/63
f 75/75/75 63/63/63 74/74/74
f 78/78/78 77/77/77 76/76/76
f 76/76/76 77/77/77 79/79/79
f 79/79/79 77/77/77 80/80/80
f 80/80/80 77/77/77 81/81/81
f 84/84/84 83/83/83 82/82/82
f 84/84/84 85/85/85 83/83/83
f 85/85/85 86/86/86 83/83/83
f 87/87/87 86/86/86 85/85/85
f 85/85/85 84/84/84 88/88/88
f 84/84/84 89/89/89 88/88/88
f 89/89/89 90/90/90 88/88/88
f 91/91/91 87/87/87 85/85/85
f 88/88/88 91/91/91 85/85/85
f 92/92/92 91/91/91 88/88/88
f 91/91/91 92/92/92 93/93/93
f 94/94/94 91/91/91 93/93/93
f 87/87/87 91/91/91 95/95/95
f 91/91/91 94/94/94 95/95/95
f 95/95/95 94/94/94 96/96/96
f 95/95/95 96/96/96 97/97/97
