g Revolver_Hammer_Mesh_LOD3
v 5.386485E-06 0.001432595 0.0007401727
v -0.0001299003 0.001856077 0.0002611692
v 0.0001355541 0.001821026 0.000245365
v 0.0001441573 0.002036078 -0.0005004999
v 0.0001441573 0.002129076 -0.0002655177
v 0.0001441573 0.002272905 -0.0004403866
v 0.0001441573 0.002036078 -0.0005004999
v 0.0001441573 0.001772672 -4.495489E-06
v 5.386486E-06 0.001289965 -0.0006765361
v 0.0001441573 0.002036078 -0.0006765361
v 0.0001441573 0.001255463 0.000208012
v 0.0001355541 0.001821026 0.000245365
v 0.0002905194 0.002164849 0.0003073995
v 5.386485E-06 0.001432595 0.0007401727
v 5.386486E-06 0.001227861 0.0007404779
v -0.0001333843 0.002036078 -0.0005004999
v -0.0001333843 0.002272905 -0.0004403866
v -0.0001333843 0.002129076 -0.0002655177
v -0.0001333843 0.002036078 -0.0005004999
v -0.0001333843 0.001770193 -4.771044E-06
v 5.386486E-06 0.001289965 -0.0006765361
v -0.0001333843 0.002036078 -0.0006765361
v -0.0001333843 0.001269263 0.000208012
v -0.0001299003 0.001856077 0.0002611692
v -0.0002763358 0.002203152 0.0003669974
v 5.386485E-06 0.001432595 0.0007401727
v 5.386486E-06 0.001227861 0.0007404779
v 0.0002905194 0.002164849 0.0003073995
v 0.0001355541 0.001821026 0.000245365
v 0.0002231614 0.002458688 0.0004069596
v 0.0002905194 0.002164849 0.0003073995
v 0.0002231614 0.002458688 0.0004069596
v -7.96393E-05 0.002541213 0.0003273973
v 0.0001441573 0.001255463 0.000208012
v -0.0001333843 0.001269263 0.000208012
v 5.386486E-06 0.001227861 0.0007404779
v 5.386486E-06 0.001289965 -0.0006765361
v -0.0001333843 0.001770193 -4.771044E-06
v 0.0001441573 0.001772672 -4.495489E-06
v -0.0002763358 0.002203152 0.0003669974
v 0.0002905194 0.002164849 0.0003073995
v -7.96393E-05 0.002541213 0.0003273973
v 0.0002231614 0.002458688 0.0004069596
v -0.0002763358 0.002203152 0.0003669974
v -7.96393E-05 0.002541213 0.0003273973
v 0.0001355541 0.001821026 0.000245365
v -0.0001299003 0.001856077 0.0002611692
v 5.386486E-06 0.00232026 -0.0005988629
v -0.0001333843 0.002129076 -0.0002655177
v -0.0001333843 0.002272905 -0.0004403866
v 0.0001441573 0.001772672 -4.495489E-06
v -0.0001333843 0.001770193 -4.771044E-06
v -0.0001333843 0.002036078 -0.0006765361
v 5.386487E-06 0.002036078 -0.0006765361
v 5.386486E-06 0.00232026 -0.0005988629
v 0.0001441573 0.002036078 -0.0006765361
v 0.0001441573 0.002272905 -0.0004403866
v 0.0001441573 0.002129076 -0.0002655177
v 5.386486E-06 0.00232026 -0.0005988629
v 0.0001441573 0.001772672 -4.495489E-06
v 5.386486E-06 0.00232026 -0.0005988629
v -0.0001333843 0.002272905 -0.0004403866
v -0.0001333843 0.002036078 -0.0005004999
v -0.0001333843 0.002036078 -0.0006765361
v 5.386486E-06 0.001289965 -0.0006765361
v 5.386487E-06 0.002036078 -0.0006765361
v -0.0001333843 0.002036078 -0.0006765361
v 0.0001441573 0.002036078 -0.0006765361
v 5.386486E-06 0.00232026 -0.0005988629
v 0.0001441573 0.002036078 -0.0006765361
v 0.0001441573 0.002036078 -0.0005004999
v 0.0001441573 0.002272905 -0.0004403866
vt 0.8721749 0.7769998
vt 0.9170443 0.7876467
vt 0.9138101 0.7653959
vt 0.7701979 0.09976436
vt 0.7750583 0.1166132
vt 0.7872199 0.1045928
vt 0.769936 0.09981181
vt 0.7531641 0.1348965
vt 0.7152894 0.08607043
vt 0.7696172 0.08615293
vt 0.7127358 0.1492991
vt 0.7528169 0.1555596
vt 0.7817646 0.1571126
vt 0.7279938 0.1920884
vt 0.7107512 0.192054
vt 0.770198 0.284491
vt 0.7872201 0.2796625
vt 0.7750583 0.2676422
vt 0.7699363 0.2844434
vt 0.7531891 0.2492112
vt 0.7152896 0.2981851
vt 0.7696176 0.2981024
vt 0.7137281 0.2349563
vt 0.7555591 0.2281061
vt 0.783393 0.2216944
vt 0.7279938 0.1920884
vt 0.7107512 0.192054
vt 0.7817646 0.1571126
vt 0.7528169 0.1555596
vt 0.8016161 0.1661091
vt 0.7817646 0.1571126
vt 0.8016161 0.1661091
vt 0.8109918 0.1603768
vt 0.661814 0.4082666
vt 0.662809 0.3882554
vt 0.626579 0.3982878
vt 0.7280785 0.398261
vt 0.9374714 0.7983027
vt 0.9373181 0.8183134
vt 0.9696072 0.791116
vt 0.9726791 0.8262141
vt 0.9942874 0.8029689
vt 0.9603864 0.7644333
vt 0.9475523 0.7943795
vt 0.9651412 0.7873096
vt 0.9138101 0.7653959
vt 0.9170443 0.7876467
vt 0.8769588 0.8081528
vt 0.905355 0.7982202
vt 0.8890301 0.7981783
vt 0.9373181 0.8183134
vt 0.9374714 0.7983027
vt 0.4855767 0.3839196
vt 0.4855393 0.3938989
vt 0.5025851 0.393899
vt 0.4855767 0.4038784
vt 0.8889787 0.8181891
vt 0.9053037 0.8182311
vt 0.8769588 0.8081528
vt 0.9373181 0.8183134
vt 0.7880424 0.2975919
vt 0.7872201 0.2796625
vt 0.7701962 0.2848226
vt 0.770101 0.298114
vt 0.4315303 0.3938992
vt 0.4851909 0.3938989
vt 0.4852303 0.3839214
vt 0.4852303 0.403877
vt 0.7880422 0.08666338
vt 0.770101 0.08614124
vt 0.7701962 0.09943272
vt 0.7872199 0.1045928
vn 0.1382251 0.761049 0.6337967
vn 0.1382251 0.761049 0.6337967
vn 0.1382251 0.761049 0.6337967
vn 1 0 0
vn 1 0 0
vn 1 0 0
vn 0.9908718 -0.1308608 -0.03237838
vn 0.9926065 -0.1160627 -0.03552279
vn 0.9867072 -0.1254257 -0.1033306
vn 0.9831398 -0.1828557 0
vn 0.9970593 -0.02265665 0.07320791
vn 0.9732352 -0.1934248 0.1240974
vn 0.8980079 -0.4251676 0.1132002
vn 0.9675304 -0.00135007 0.2527511
vn 0.9675304 -0.00135007 0.2527511
vn -1 0 0
vn -1 0 0
vn -1 0 0
vn -0.9908997 -0.130604 -0.03256342
vn -0.9936206 -0.1050223 -0.0410899
vn -0.9866052 -0.1267833 -0.1026455
vn -0.9831398 -0.1828557 0
vn -0.9969943 -0.02990961 0.07147029
vn -0.9658809 -0.2187895 0.138583
vn -0.8941997 -0.4224464 0.1481419
vn -0.9665922 -0.01283857 0.2559974
vn -0.9665922 -0.01283857 0.2559974
vn 0.2185962 -0.2678249 0.9383419
vn 0.06725338 -0.2659999 0.9616241
vn -0.007783344 -0.08591142 0.9962723
vn 0.026205 0.4165286 -0.9087449
vn 0.3290918 0.3698319 -0.868863
vn 0.02998267 0.0824177 -0.9961468
vn -0.04960789 -0.9976484 -0.04729451
vn -0.04960802 -0.997651 -0.04723853
vn -0.04955979 -0.996681 -0.06458142
vn -0.04963937 -0.9982814 -0.03115036
vn -0.005055666 0.6504889 -0.759499
vn -0.02178002 0.6408991 -0.7673161
vn -0.07107595 0.3298453 -0.9413555
vn 0.026205 0.4165286 -0.9087449
vn 0.02998267 0.0824177 -0.9961468
vn -0.007783344 -0.08591142 0.9962723
vn -0.01871859 -0.1364689 0.9904675
vn -0.1904833 0.2228224 0.9560682
vn 0.06725338 -0.2659999 0.9616241
vn 0.01956653 -0.28404 0.9586127
vn 0.3123879 0.6963903 0.6461071
vn 0.2571718 0.6897895 0.6767962
vn 0.4193164 0.7011439 0.5766896
vn 0.232489 0.6859941 0.6894643
vn 0.232489 0.6859941 0.6894643
vn 0 0.2636517 -0.964618
vn 0 0.2636517 -0.964618
vn 0 0.2636518 -0.964618
vn 0 0.2636518 -0.964618
vn -0.4193161 0.701144 0.5766897
vn -0.7132341 0.4373434 0.5477481
vn -0.56752 0.5897868 0.5745195
vn -0.7470986 0.392754 0.5362723
vn -0.8896175 0.3224774 -0.3234022
vn -0.8896175 0.3224774 -0.3234022
vn -0.8896175 0.3224774 -0.3234022
vn -0.8896175 0.3224774 -0.3234022
vn 0 0 -1
vn 0 0 -1
vn 0 0 -1
vn 0 0 -1
vn 0.8896175 0.3224773 -0.3234022
vn 0.8896175 0.3224773 -0.3234022
vn 0.8896175 0.3224773 -0.3234022
vn 0.8896175 0.3224773 -0.3234022
g Revolver_Hammer_Mesh_LOD3_0
f 3/3/3 2/2/2 1/1/1
f 6/6/6 5/5/5 4/4/4
f 5/5/5 8/8/8 7/7/7
f 8/8/8 9/9/9 7/7/7
f 10/10/10 7/7/7 9/9/9
f 9/9/9 8/8/8 11/11/11
f 11/11/11 8/8/8 12/12/12
f 13/13/13 12/12/12 8/8/8
f 11/11/11 12/12/12 14/14/14
f 15/15/15 11/11/11 14/14/14
f 18/18/18 17/17/17 16/16/16
f 20/20/20 18/18/18 19/19/19
f 19/19/19 21/21/21 20/20/20
f 22/22/22 21/21/21 19/19/19
f 21/21/21 23/23/23 20/20/20
f 24/24/24 20/20/20 23/23/23
f 24/24/24 25/25/25 20/20/20
f 24/24/24 23/23/23 26/26/26
f 23/23/23 27/27/27 26/26/26
f 30/30/30 29/29/29 28/28/28
f 33/33/33 32/32/32 31/31/31
f 36/36/36 35/35/35 34/34/34
f 34/34/34 35/35/35 37/37/37
f 40/40/40 39/39/39 38/38/38
f 41/41/41 39/39/39 40/40/40
f 40/40/40 42/42/42 41/41/41
f 45/45/45 44/44/44 43/43/43
f 43/43/43 44/44/44 46/46/46
f 46/46/46 44/44/44 47/47/47
f 50/50/50 49/49/49 48/48/48
f 51/51/51 48/48/48 49/49/49
f 52/52/52 51/51/51 49/49/49
f 55/55/55 54/54/54 53/53/53
f 56/56/56 54/54/54 55/55/55
f 59/59/59 58/58/58 57/57/57
f 59/59/59 60/60/60 58/58/58
f 63/63/63 62/62/62 61/61/61
f 64/64/64 63/63/63 61/61/61
f 67/67/67 66/66/66 65/65/65
f 68/68/68 65/65/65 66/66/66
f 71/71/71 70/70/70 69/69/69
f 72/72/72 71/71/71 69/69/69
