g Revolver_PistolGrip_Mesh_LOD3
v 0.0004779256 0.002807743 -0.005369649
v 0.0005280606 0.002701513 -0.004945843
v 0.0005941798 0.003081733 -0.005372188
v 0.0006463137 0.002683352 -0.004599317
v 0.0004858589 0.002350485 -0.004621307
v 0.0004663702 0.002474736 -0.004407042
v 0.0007423954 0.003320072 -0.004509842
v 0.0005741206 0.004140224 -0.005441598
v 0.0006502095 0.002853476 -0.004297343
v 0.0004827823 0.002426988 -0.004035424
v 0.0006270374 0.002420366 -0.003685569
v 0.0004666758 0.002137045 -0.003729564
v 0.0004563393 0.002258418 -0.003376045
v 0.0006003518 0.00438686 -0.005002762
v 0.000423682 0.004576616 -0.005395832
v 0.0004321307 0.004730206 -0.00513328
v 0.0004535605 0.004681406 -0.004720583
v 0.0007575249 0.003072756 -0.003645099
v 0.000650088 0.004043229 -0.003878726
v 0.0004374217 0.003968007 -0.002900366
v 0.0007194185 0.003798099 -0.003979392
v 0.0005633784 0.003508284 -0.002442596
v 0.0004251415 0.003142704 -0.001202152
v 0.000678473 0.003473928 -0.003202626
v 0.000684966 0.002960069 -0.003296934
v 0.0006583906 0.003103197 -0.002620246
v 0.0005786191 0.002906058 -0.001079568
v 0.000587264 0.002496953 -0.003383384
v 0.00060369 0.002352774 -0.002890367
v 0.0004594699 0.001900061 -0.00280898
v 0.0005144383 0.002940432 -0.0007422392
v 0.0003510172 0.003051253 -0.0006334838
v 0.0006203819 0.002737665 -0.001182266
v 0.0006083318 0.002423118 -0.001632128
v 0.0004519863 0.002356007 -0.0005311726
v 0.0004626119 0.002728571 -0.0005679938
v 8.47062E-06 0.002466375 -0.0004799565
v 3.366406E-06 0.00309835 -0.0005938589
v 0.0003563534 0.002224509 -0.0004980797
v -1.070636E-06 0.002149285 -0.0004998756
v 7.125287E-06 0.002083085 -0.0007228879
v 0.0003388922 0.002170838 -0.001275712
v 7.882918E-06 0.001460402 -0.001436264
v 0.0005541521 0.002098974 -0.001982824
v 0.0003246842 0.001645503 -0.001650252
v 5.386487E-06 0.001097163 -0.001766432
v 0.0004570583 0.001225692 -0.001959211
v 0.0003629281 0.001109925 -0.001858388
v 5.386487E-06 0.001046698 -0.001967655
v 0.000362466 0.001052545 -0.002458451
v -0.0003556114 0.001049518 -0.002429097
v 0.0002545219 0.0009915605 -0.002863114
v 0.0003297137 0.001296164 -0.002871231
v -3.699181E-06 0.001722416 -0.002870293
v 4.823758E-06 0.001094733 -0.002951732
v 1.186929E-05 0.004869927 -0.005271611
v 0.000423682 0.004576616 -0.005395832
v 0.0004321307 0.004730206 -0.00513328
v 5.350887E-06 0.004909765 -0.004797315
v -0.0004012294 0.004695614 -0.005317599
v 0.0004535605 0.004681406 -0.004720583
v -0.0004450168 0.004683833 -0.004749087
v 4.217738E-06 0.004559259 -0.003967605
v 0.0004374217 0.003968007 -0.002900366
v -0.0004137413 0.003868682 -0.002665824
v 4.651541E-06 0.003939057 -0.002473205
v 1.55686E-05 0.003193271 -0.001095332
v 0.0004251415 0.003142704 -0.001202152
v -0.0004224593 0.003140744 -0.001207742
v 0.0003510172 0.003051253 -0.0006334838
v -0.0003717325 0.003079418 -0.0007566909
v 3.366406E-06 0.00309835 -0.0005938589
v -0.0003836476 0.003006184 -0.000630444
v 0.0005280606 0.002701513 -0.004945843
v 0.0004779256 0.002807743 -0.005369649
v -3.851394E-06 0.002688844 -0.005350493
v 1.483305E-05 0.002560463 -0.004912339
v 0.0004858589 0.002350485 -0.004621307
v -0.0005165988 0.002693871 -0.004930293
v -0.0004669518 0.002807768 -0.005370738
v -0.0004767393 0.002351272 -0.004625796
v 3.497969E-06 0.002223305 -0.00462644
v 5.386487E-06 0.002352117 -0.004422884
v 0.0004663702 0.002474736 -0.004407042
v -0.0004432554 0.00249297 -0.004313377
v 1.272366E-05 0.00230808 -0.004027493
v 0.0004827823 0.002426988 -0.004035424
v -0.0004848288 0.002219455 -0.003793481
v 0.0004666758 0.002137045 -0.003729564
v 3.428591E-06 0.002020258 -0.003757128
v -0.0004498277 0.002178823 -0.003625804
v 4.896385E-06 0.002148488 -0.003461289
v 0.0004563393 0.002258418 -0.003376045
v -0.0004528641 0.002204827 -0.00321107
v 1.045349E-05 0.001973271 -0.003015814
v 0.0004594699 0.001900061 -0.00280898
v -0.0004541228 0.001901185 -0.002808432
v -3.699181E-06 0.001722416 -0.002870293
v -0.0005306649 0.004378105 -0.005380549
v -0.0004012294 0.004695614 -0.005317599
v -0.0004450168 0.004683833 -0.004749087
v -0.000593188 0.004369023 -0.00466023
v -0.0006903179 0.003962058 -0.004690232
v -0.000583637 0.003751436 -0.00543951
v -0.000619669 0.003944539 -0.003590824
v -0.0004137413 0.003868682 -0.002665824
v -0.0007313341 0.003326085 -0.004501455
v -0.0005831022 0.003075973 -0.005373116
v -0.0005804757 0.00337506 -0.002337956
v -0.0004224593 0.003140744 -0.001207742
v -0.0007128255 0.003666583 -0.003685973
v -0.0006846138 0.003354477 -0.003208688
v -0.0007476525 0.003080088 -0.003643129
v -0.0006349184 0.002680605 -0.004598533
v -0.0005165988 0.002693871 -0.004930293
v -0.0004669518 0.002807768 -0.005370738
v -0.0004767393 0.002351272 -0.004625796
v -0.0004432554 0.00249297 -0.004313377
v -0.0006401555 0.002855783 -0.004299488
v -0.0006190864 0.002425027 -0.003690027
v -0.0004848288 0.002219455 -0.003793481
v -0.0004498277 0.002178823 -0.003625804
v -0.0005970621 0.00254666 -0.003371191
v -0.0004528641 0.002204827 -0.00321107
v -0.0006423239 0.002739781 -0.002899032
v -0.0005526 0.002137774 -0.00272763
v -0.0005495351 0.002085157 -0.002012509
v -0.0004541228 0.001901185 -0.002808432
v -0.0002757424 0.001027284 -0.002889249
v -3.699181E-06 0.001722416 -0.002870293
v 4.823758E-06 0.001094733 -0.002951732
v 0.0002545219 0.0009915605 -0.002863114
v -0.0003556114 0.001049518 -0.002429097
v -0.000601512 0.002798463 -0.001106494
v -0.0005981521 0.002431415 -0.001617543
v -0.0005404108 0.003049736 -0.001324235
v -0.0004905753 0.002957657 -0.0007425679
v -0.0003717325 0.003079418 -0.0007566909
v -0.0003836476 0.003006184 -0.000630444
v -0.0004557419 0.002391422 -0.0005370175
v -0.0004500932 0.002738166 -0.0005683477
v 3.366406E-06 0.00309835 -0.0005938589
v 8.47062E-06 0.002466375 -0.0004799565
v -0.0003455279 0.002222086 -0.0004990166
v -1.070636E-06 0.002149285 -0.0004998756
v 7.125287E-06 0.002083085 -0.0007228879
v -0.0003741529 0.002226416 -0.001237021
v 7.882918E-06 0.001460402 -0.001436264
v -0.0002980023 0.001755178 -0.001592246
v 5.386487E-06 0.001097163 -0.001766432
v -0.00045259 0.001257275 -0.001959311
v -0.0003556229 0.001115876 -0.001855833
v 5.386487E-06 0.001046698 -0.001967655
v -0.0005306649 0.004378105 -0.005380549
v -0.0004093306 0.004258651 -0.005513752
v -0.0004012294 0.004695614 -0.005317599
v 1.186929E-05 0.004869927 -0.005271611
v -0.000583637 0.003751436 -0.00543951
v 0.000423682 0.004576616 -0.005395832
v -0.0004775695 0.00354674 -0.005536194
v -0.0005831022 0.003075973 -0.005373116
v -0.0004669518 0.002807768 -0.005370738
v 6.539449E-06 0.00354479 -0.00557996
v -3.851394E-06 0.002688844 -0.005350493
v 0.0004779256 0.002807743 -0.005369649
v 0.0004870336 0.003714234 -0.005552425
v 0.0005741206 0.004140224 -0.005441598
v 0.0005941798 0.003081733 -0.005372188
vt 0.7986555 0.7237874
vt 0.8009584 0.7443563
vt 0.8142977 0.7159356
vt 0.8111787 0.7635036
vt 0.7925282 0.7692293
vt 0.8005753 0.7794515
vt 0.8462722 0.753235
vt 0.8694307 0.6911237
vt 0.8245198 0.7765521
vt 0.805169 0.7996684
vt 0.8182949 0.8177253
vt 0.8008976 0.8224403
vt 0.8105341 0.8396145
vt 0.8888398 0.708818
vt 0.8996231 0.6830499
vt 0.9077852 0.6924245
vt 0.9128304 0.715145
vt 0.8530811 0.8071467
vt 0.8988636 0.7727733
vt 0.9155161 0.8251058
vt 0.8799888 0.7730123
vt 0.9006532 0.8584592
vt 0.9102762 0.930659
vt 0.8812696 0.8198205
vt 0.8533571 0.8255099
vt 0.874555 0.8623676
vt 0.893949 0.9380969
vt 0.8243818 0.8330668
vt 0.8340678 0.8639685
vt 0.8076504 0.8755825
vt 0.9011497 0.9558231
vt 0.907782 0.9620768
vt 0.8845862 0.937444
vt 0.8659651 0.925075
vt 0.8803834 0.9702489
vt 0.8939418 0.9654458
vt 0.8867611 0.9880464
vt 0.9154189 0.9796197
vt 0.8769035 0.9741826
vt 0.8709797 0.9868779
vt 0.8604136 0.9818225
vt 0.8539186 0.948861
vt 0.813887 0.9612677
vt 0.8379939 0.9142629
vt 0.8216109 0.9385662
vt 0.7900307 0.9508421
vt 0.7992764 0.9282919
vt 0.7957733 0.9339423
vt 0.7804834 0.9438833
vt 0.7850893 0.9166501
vt 0.7671376 0.9252288
vt 0.7705037 0.9004653
vt 0.780594 0.8920144
vt 0.7836417 0.8643121
vt 0.7609854 0.8919061
vt 0.667394 0.2965066
vt 0.6473214 0.2917486
vt 0.6476966 0.3016998
vt 0.667394 0.3154752
vt 0.6873663 0.294413
vt 0.6465693 0.3204554
vt 0.6881222 0.3192194
vt 0.667394 0.35346
vt 0.6471134 0.4067758
vt 0.687328 0.4180156
vt 0.667394 0.4242581
vt 0.667394 0.4933884
vt 0.648766 0.4897635
vt 0.6860243 0.4895934
vt 0.6534641 0.5142026
vt 0.6837871 0.5093411
vt 0.667394 0.5150157
vt 0.6805735 0.5156534
vt 0.06486659 0.312631
vt 0.06307798 0.2926924
vt 0.03629357 0.29545
vt 0.03629357 0.31646
vt 0.06136748 0.3379162
vt 0.007745955 0.3135568
vt 0.009508907 0.2926924
vt 0.0111868 0.3376634
vt 0.03629357 0.3387451
vt 0.03629356 0.3510451
vt 0.06182724 0.350607
vt 0.01043736 0.3554904
vt 0.03629357 0.3724988
vt 0.06277231 0.3705137
vt 0.01102702 0.3872081
vt 0.06074289 0.3927703
vt 0.03629357 0.3928522
vt 0.01193776 0.3985869
vt 0.03629357 0.4096252
vt 0.06192876 0.4122069
vt 0.01003045 0.4211577
vt 0.03629357 0.436913
vt 0.06186216 0.4480373
vt 0.01072364 0.4480059
vt 0.03629357 0.4529717
vt 0.8021956 0.08088991
vt 0.7818873 0.0763327
vt 0.7709852 0.1043641
vt 0.78749 0.1163825
vt 0.8077099 0.1237095
vt 0.8365734 0.08914328
vt 0.7839325 0.1804308
vt 0.7681137 0.2301745
vt 0.8373507 0.1448038
vt 0.868477 0.1055392
vt 0.7888371 0.2541633
vt 0.7734027 0.3212169
vt 0.802133 0.1814942
vt 0.8096399 0.2138537
vt 0.8302481 0.1979854
vt 0.8725214 0.1544013
vt 0.8828626 0.1361008
vt 0.8850404 0.1145601
vt 0.891169 0.1597355
vt 0.881437 0.1751143
vt 0.8587939 0.1672519
vt 0.8653334 0.2081754
vt 0.882287 0.2076001
vt 0.8803073 0.2184036
vt 0.8554562 0.2225948
vt 0.870302 0.2391813
vt 0.8362709 0.2455794
vt 0.8577936 0.2651319
vt 0.8459272 0.3025072
vt 0.8760315 0.266325
vt 0.9116717 0.2906545
vt 0.9000541 0.255085
vt 0.9227103 0.2826791
vt 0.9248075 0.2908684
vt 0.8995855 0.3078583
vt 0.7939789 0.3302065
vt 0.8168482 0.3161415
vt 0.7829581 0.316223
vt 0.7838438 0.3452489
vt 0.7733161 0.3466834
vt 0.7778131 0.3531244
vt 0.8021169 0.3601897
vt 0.7886438 0.3558339
vt 0.768277 0.3703925
vt 0.7969347 0.3788191
vt 0.8068506 0.3649099
vt 0.8127161 0.3776508
vt 0.8232822 0.3725953
vt 0.8270961 0.3411511
vt 0.8698089 0.3520406
vt 0.8553604 0.3303734
vt 0.8936652 0.3416149
vt 0.8831156 0.3188888
vt 0.8877838 0.3248453
vt 0.9032124 0.3346562
vt 0.8610439 0.4016908
vt 0.8688984 0.4074439
vt 0.8688701 0.384144
vt 0.8904249 0.3739184
vt 0.8574492 0.434229
vt 0.9123616 0.3877374
vt 0.8645445 0.443095
vt 0.8580969 0.4692411
vt 0.8639319 0.4836908
vt 0.890192 0.4431731
vt 0.890033 0.4904649
vt 0.9161369 0.4840116
vt 0.9155802 0.4343768
vt 0.9206297 0.4116415
vt 0.9219887 0.4715419
vn 0.4963627 -0.5808396 -0.6451739
vn 0.6214411 -0.6682888 -0.4089023
vn 0.8091561 -0.1914165 -0.5555413
vn 0.9362468 -0.3510048 -0.01541235
vn 0.5520906 -0.8260605 -0.1132259
vn 0.6499776 -0.7381185 0.1808596
vn 0.9966102 -0.03390703 -0.0749556
vn 0.7638662 0.1838785 -0.6186252
vn 0.9577394 -0.287273 -0.01446589
vn 0.6210928 -0.6969021 -0.3585681
vn 0.9215233 -0.3870733 -0.03112945
vn 0.5462271 -0.8226366 -0.1578132
vn 0.6768517 -0.7347769 -0.04443575
vn 0.9555255 0.2835233 -0.08115053
vn 0.5226478 0.463806 -0.7153484
vn 0.6710806 0.7178357 -0.185372
vn 0.6785678 0.718121 0.154428
vn 0.9954441 -0.07886156 0.05359168
vn 0.9127666 0.3804822 0.1486282
vn 0.6111471 0.7218403 0.3247243
vn 0.9867381 0.1564706 0.04318429
vn 0.9133262 0.3651657 0.1802481
vn 0.5734864 0.7683515 0.2841643
vn 0.9853865 0.1232038 0.1176189
vn 0.9901226 -0.1039166 0.0941201
vn 0.9966347 0.05017355 0.06482276
vn 0.9313577 0.3355293 0.141396
vn 0.9469263 -0.3186838 0.0420863
vn 0.9686582 -0.2381741 -0.07053055
vn 0.8005885 -0.3987988 -0.4472333
vn 0.8530522 0.3943127 0.3417885
vn 0.3717587 0.672895 0.6395372
vn 0.9930605 -0.00866742 0.1172848
vn 0.9558401 -0.2745534 0.1048345
vn 0.7473452 -0.2097559 0.6304581
vn 0.6303158 0.1395954 0.7636852
vn 0.003082462 0.08182257 0.9966422
vn -0.004791479 0.7154868 0.6986098
vn 0.4753112 -0.5611625 0.6776251
vn -0.011994 -0.7337401 0.6793246
vn -0.005340764 -0.9724158 0.233193
vn 0.7669561 -0.591133 0.2496804
vn 0.005218802 -0.5803552 0.8143468
vn 0.968442 -0.2228222 0.1116705
vn 0.7650596 -0.3038203 0.5677825
vn -0.005157684 -0.7801225 0.6256056
vn 0.9411108 -0.2803769 0.1889424
vn 0.5836212 -0.6930025 0.4232421
vn -0.008545208 -0.9910914 0.1329085
vn 0.6810306 -0.7307764 -0.0465109
vn -0.6664743 -0.7442674 -0.04333701
vn 0.4761591 -0.7284911 -0.4925174
vn 0.7016383 -0.06970605 -0.7091156
vn -0.01013225 -0.1498474 -0.9886572
vn -0.001617508 -0.235729 -0.9718175
vn -0.001312319 0.8702504 -0.4926078
vn 0.5226478 0.463806 -0.7153484
vn 0.6710806 0.7178357 -0.185372
vn -0.01443556 0.9867759 0.1614463
vn -0.5554559 0.6606568 -0.5049766
vn 0.6785678 0.718121 0.154428
vn -0.6850899 0.7198816 0.1114553
vn -0.009460802 0.9274638 0.3737932
vn 0.6111471 0.7218403 0.3247243
vn -0.6138388 0.7155908 0.3333645
vn 0.001678526 0.9012463 0.4333039
vn 0.01104779 0.9535581 0.3010063
vn 0.5734864 0.7683515 0.2841643
vn -0.5383306 0.7987827 0.2686007
vn 0.3717587 0.672895 0.6395372
vn -0.4256819 0.8621676 0.2747034
vn -0.004791479 0.7154868 0.6986098
vn -0.4490252 0.5552616 0.7000435
vn 0.6214411 -0.6682888 -0.4089023
vn 0.4963627 -0.5808396 -0.6451739
vn 0.002411023 -0.7348739 -0.6781995
vn 0.004974694 -0.8284543 -0.5600345
vn 0.5520906 -0.8260605 -0.1132259
vn -0.615516 -0.6700848 -0.4148813
vn -0.4897395 -0.5883772 -0.6434031
vn -0.5549537 -0.8197348 -0.1416377
vn 0.002868826 -0.9889208 -0.148416
vn -0.01101736 -0.9707175 0.2399708
vn 0.6499776 -0.7381185 0.1808596
vn -0.6522613 -0.7579501 0.008179208
vn 0.01544292 -0.8839392 -0.4673467
vn 0.6210928 -0.6969021 -0.3585681
vn -0.597845 -0.7457421 -0.2940241
vn 0.5462271 -0.8226366 -0.1578132
vn -0.0242935 -0.9778746 -0.2077766
vn -0.5703425 -0.8188908 0.06424289
vn 0.01266524 -0.9988756 0.04568642
vn 0.6768517 -0.7347769 -0.04443575
vn -0.662035 -0.708303 -0.2449822
vn -0.01104799 -0.76457 -0.644446
vn 0.8005885 -0.3987988 -0.4472333
vn -0.7779339 -0.4224465 -0.4651428
vn -0.01013225 -0.1498474 -0.9886572
vn -0.8258399 0.2960023 -0.4799699
vn -0.5554559 0.6606568 -0.5049766
vn -0.6850899 0.7198816 0.1114553
vn -0.9345233 0.3541429 0.03534104
vn -0.9882386 0.1426767 -0.05502591
vn -0.8661328 0.0575896 -0.4964852
vn -0.9050463 0.3887228 0.1725859
vn -0.6138388 0.7155908 0.3333645
vn -0.9965198 -0.04751873 -0.06848556
vn -0.8175439 -0.2052405 -0.5380505
vn -0.9484924 0.2824206 0.1435297
vn -0.5383306 0.7987827 0.2686007
vn -0.981747 0.1655981 0.09354186
vn -0.9912187 0.05798564 0.11884
vn -0.9936756 -0.0910999 0.06564686
vn -0.9373645 -0.3477349 -0.02069197
vn -0.615516 -0.6700848 -0.4148813
vn -0.4897395 -0.5883772 -0.6434031
vn -0.5549537 -0.8197348 -0.1416377
vn -0.6522613 -0.7579501 0.008179208
vn -0.9595577 -0.2809608 -0.01760964
vn -0.9191482 -0.3939119 6.10385E-05
vn -0.597845 -0.7457421 -0.2940241
vn -0.5703425 -0.8188908 0.06424289
vn -0.9643547 -0.2594767 0.05188312
vn -0.662035 -0.708303 -0.2449822
vn -0.9970422 -0.0766627 0.005432309
vn -0.9531201 -0.2914906 -0.08121206
vn -0.9729614 -0.208265 0.09985977
vn -0.7779339 -0.4224465 -0.4651428
vn -0.5419887 -0.6048581 -0.5834337
vn -0.01013225 -0.1498474 -0.9886572
vn -0.001617508 -0.235729 -0.9718175
vn 0.4761591 -0.7284911 -0.4925174
vn -0.6664743 -0.7442674 -0.04333701
vn -0.9869528 0.08139407 0.1389223
vn -0.9666159 -0.232918 0.1067846
vn -0.8737467 0.4534303 0.1759762
vn -0.8548836 0.4021869 0.3277496
vn -0.4256819 0.8621676 0.2747034
vn -0.4490252 0.5552616 0.7000435
vn -0.7489393 -0.1758207 0.6388874
vn -0.6304713 0.1533604 0.7609116
vn -0.004791479 0.7154868 0.6986098
vn 0.003082462 0.08182257 0.9966422
vn -0.4876908 -0.5657274 0.6649136
vn -0.011994 -0.7337401 0.6793246
vn -0.005340764 -0.9724158 0.233193
vn -0.750918 -0.6252716 0.2125032
vn 0.005218802 -0.5803552 0.8143468
vn -0.7960043 -0.3538102 0.4911165
vn -0.005157684 -0.7801225 0.6256056
vn -0.9464126 -0.254686 0.198591
vn -0.5990642 -0.6679463 0.4415538
vn -0.008545208 -0.9910914 0.1329085
vn -0.8258399 0.2960023 -0.4799699
vn -0.3035135 0.2083546 -0.9297676
vn -0.5554559 0.6606568 -0.5049766
vn -0.001312319 0.8702504 -0.4926078
vn -0.8661328 0.0575896 -0.4964852
vn 0.5226478 0.463806 -0.7153484
vn -0.4108437 -0.07767028 -0.9083912
vn -0.8175439 -0.2052405 -0.5380505
vn -0.4897395 -0.5883772 -0.6434031
vn 0.0006103802 -0.09412064 -0.9955606
vn 0.002411023 -0.7348739 -0.6781995
vn 0.4963627 -0.5808396 -0.6451739
vn 0.4412393 -0.009308203 -0.8973413
vn 0.7638662 0.1838785 -0.6186252
vn 0.8091561 -0.1914165 -0.5555413
g Revolver_PistolGrip_Mesh_LOD3_0
f 3/3/3 2/2/2 1/1/1
f 2/2/2 3/3/3 4/4/4
f 4/4/4 5/5/5 2/2/2
f 5/5/5 4/4/4 6/6/6
f 3/3/3 7/7/7 4/4/4
f 3/3/3 8/8/8 7/7/7
f 4/4/4 9/9/9 6/6/6
f 9/9/9 4/4/4 7/7/7
f 10/10/10 6/6/6 9/9/9
f 10/10/10 9/9/9 11/11/11
f 11/11/11 12/12/12 10/10/10
f 12/12/12 11/11/11 13/13/13
f 7/7/7 8/8/8 14/14/14
f 8/8/8 15/15/15 14/14/14
f 15/15/15 16/16/16 14/14/14
f 14/14/14 16/16/16 17/17/17
f 7/7/7 18/18/18 9/9/9
f 11/11/11 9/9/9 18/18/18
f 19/19/19 14/14/14 17/17/17
f 19/19/19 17/17/17 20/20/20
f 7/7/7 14/14/14 21/21/21
f 21/21/21 18/18/18 7/7/7
f 21/21/21 14/14/14 19/19/19
f 22/22/22 19/19/19 20/20/20
f 20/20/20 23/23/23 22/22/22
f 19/19/19 24/24/24 21/21/21
f 21/21/21 24/24/24 18/18/18
f 24/24/24 19/19/19 22/22/22
f 11/11/11 18/18/18 25/25/25
f 24/24/24 25/25/25 18/18/18
f 22/22/22 26/26/26 24/24/24
f 24/24/24 26/26/26 25/25/25
f 23/23/23 27/27/27 22/22/22
f 27/27/27 26/26/26 22/22/22
f 28/28/28 11/11/11 25/25/25
f 11/11/11 28/28/28 13/13/13
f 29/29/29 28/28/28 25/25/25
f 13/13/13 28/28/28 29/29/29
f 25/25/25 26/26/26 29/29/29
f 30/30/30 13/13/13 29/29/29
f 31/31/31 27/27/27 23/23/23
f 32/32/32 31/31/31 23/23/23
f 27/27/27 33/33/33 26/26/26
f 31/31/31 33/33/33 27/27/27
f 29/29/29 26/26/26 34/34/34
f 26/26/26 33/33/33 34/34/34
f 35/35/35 33/33/33 31/31/31
f 35/35/35 34/34/34 33/33/33
f 36/36/36 31/31/31 32/32/32
f 35/35/35 31/31/31 36/36/36
f 37/37/37 36/36/36 32/32/32
f 38/38/38 37/37/37 32/32/32
f 39/39/39 35/35/35 36/36/36
f 36/36/36 37/37/37 39/39/39
f 39/39/39 34/34/34 35/35/35
f 37/37/37 40/40/40 39/39/39
f 40/40/40 41/41/41 39/39/39
f 41/41/41 42/42/42 39/39/39
f 34/34/34 39/39/39 42/42/42
f 41/41/41 43/43/43 42/42/42
f 34/34/34 44/44/44 29/29/29
f 42/42/42 44/44/44 34/34/34
f 44/44/44 30/30/30 29/29/29
f 45/45/45 42/42/42 43/43/43
f 42/42/42 45/45/45 44/44/44
f 43/43/43 46/46/46 45/45/45
f 44/44/44 47/47/47 30/30/30
f 47/47/47 44/44/44 45/45/45
f 46/46/46 48/48/48 45/45/45
f 48/48/48 47/47/47 45/45/45
f 48/48/48 46/46/46 49/49/49
f 48/48/48 49/49/49 50/50/50
f 50/50/50 47/47/47 48/48/48
f 49/49/49 51/51/51 50/50/50
f 52/52/52 50/50/50 51/51/51
f 47/47/47 53/53/53 30/30/30
f 47/47/47 50/50/50 53/53/53
f 52/52/52 53/53/53 50/50/50
f 54/54/54 30/30/30 53/53/53
f 55/55/55 53/53/53 52/52/52
f 53/53/53 55/55/55 54/54/54
f 58/58/58 57/57/57 56/56/56
f 56/56/56 59/59/59 58/58/58
f 59/59/59 56/56/56 60/60/60
f 59/59/59 61/61/61 58/58/58
f 62/62/62 59/59/59 60/60/60
f 59/59/59 63/63/63 61/61/61
f 63/63/63 59/59/59 62/62/62
f 63/63/63 64/64/64 61/61/61
f 62/62/62 65/65/65 63/63/63
f 64/64/64 63/63/63 66/66/66
f 66/66/66 63/63/63 65/65/65
f 66/66/66 67/67/67 64/64/64
f 67/67/67 66/66/66 65/65/65
f 67/67/67 68/68/68 64/64/64
f 69/69/69 67/67/67 65/65/65
f 70/70/70 68/68/68 67/67/67
f 69/69/69 71/71/71 67/67/67
f 72/72/72 70/70/70 67/67/67
f 71/71/71 72/72/72 67/67/67
f 71/71/71 73/73/73 72/72/72
f 76/76/76 75/75/75 74/74/74
f 77/77/77 76/76/76 74/74/74
f 77/77/77 74/74/74 78/78/78
f 76/76/76 77/77/77 79/79/79
f 80/80/80 76/76/76 79/79/79
f 79/79/79 77/77/77 81/81/81
f 82/82/82 77/77/77 78/78/78
f 77/77/77 82/82/82 81/81/81
f 82/82/82 78/78/78 83/83/83
f 82/82/82 83/83/83 81/81/81
f 78/78/78 84/84/84 83/83/83
f 83/83/83 85/85/85 81/81/81
f 83/83/83 84/84/84 86/86/86
f 83/83/83 86/86/86 85/85/85
f 84/84/84 87/87/87 86/86/86
f 85/85/85 86/86/86 88/88/88
f 86/86/86 87/87/87 89/89/89
f 90/90/90 88/88/88 86/86/86
f 90/90/90 86/86/86 89/89/89
f 88/88/88 90/90/90 91/91/91
f 90/90/90 89/89/89 92/92/92
f 91/91/91 90/90/90 92/92/92
f 89/89/89 93/93/93 92/92/92
f 92/92/92 94/94/94 91/91/91
f 93/93/93 95/95/95 92/92/92
f 95/95/95 94/94/94 92/92/92
f 93/93/93 96/96/96 95/95/95
f 97/97/97 94/94/94 95/95/95
f 96/96/96 98/98/98 95/95/95
f 98/98/98 97/97/97 95/95/95
f 101/101/101 100/100/100 99/99/99
f 102/102/102 101/101/101 99/99/99
f 102/102/102 99/99/99 103/103/103
f 103/103/103 99/99/99 104/104/104
f 102/102/102 105/105/105 101/101/101
f 102/102/102 103/103/103 105/105/105
f 101/101/101 105/105/105 106/106/106
f 104/104/104 107/107/107 103/103/103
f 107/107/107 104/104/104 108/108/108
f 109/109/109 106/106/106 105/105/105
f 106/106/106 109/109/109 110/110/110
f 103/103/103 111/111/111 105/105/105
f 103/103/103 107/107/107 111/111/111
f 112/112/112 105/105/105 111/111/111
f 109/109/109 105/105/105 112/112/112
f 107/107/107 113/113/113 111/111/111
f 111/111/111 113/113/113 112/112/112
f 107/107/107 108/108/108 114/114/114
f 114/114/114 108/108/108 115/115/115
f 115/115/115 108/108/108 116/116/116
f 117/117/117 114/114/114 115/115/115
f 117/117/117 118/118/118 114/114/114
f 107/107/107 114/114/114 119/119/119
f 118/118/118 119/119/119 114/114/114
f 113/113/113 107/107/107 119/119/119
f 119/119/119 118/118/118 120/120/120
f 120/120/120 113/113/113 119/119/119
f 118/118/118 121/121/121 120/120/120
f 122/122/122 120/120/120 121/121/121
f 113/113/113 120/120/120 123/123/123
f 123/123/123 120/120/120 122/122/122
f 112/112/112 113/113/113 123/123/123
f 123/123/123 122/122/122 124/124/124
f 125/125/125 112/112/112 123/123/123
f 125/125/125 109/109/109 112/112/112
f 123/123/123 124/124/124 126/126/126
f 126/126/126 125/125/125 123/123/123
f 125/125/125 126/126/126 127/127/127
f 124/124/124 128/128/128 126/126/126
f 128/128/128 127/127/127 126/126/126
f 128/128/128 129/129/129 127/127/127
f 128/128/128 130/130/130 129/129/129
f 130/130/130 131/131/131 129/129/129
f 131/131/131 132/132/132 129/129/129
f 132/132/132 133/133/133 129/129/129
f 127/127/127 129/129/129 133/133/133
f 125/125/125 134/134/134 109/109/109
f 135/135/135 125/125/125 127/127/127
f 135/135/135 134/134/134 125/125/125
f 109/109/109 134/134/134 136/136/136
f 109/109/109 136/136/136 110/110/110
f 136/136/136 137/137/137 110/110/110
f 137/137/137 136/136/136 134/134/134
f 137/137/137 138/138/138 110/110/110
f 139/139/139 138/138/138 137/137/137
f 140/140/140 137/137/137 134/134/134
f 135/135/135 140/140/140 134/134/134
f 141/141/141 139/139/139 137/137/137
f 141/141/141 137/137/137 140/140/140
f 139/139/139 141/141/141 142/142/142
f 142/142/142 141/141/141 143/143/143
f 144/144/144 141/141/141 140/140/140
f 141/141/141 144/144/144 143/143/143
f 144/144/144 140/140/140 135/135/135
f 144/144/144 145/145/145 143/143/143
f 145/145/145 144/144/144 146/146/146
f 144/144/144 147/147/147 146/146/146
f 144/144/144 135/135/135 147/147/147
f 146/146/146 147/147/147 148/148/148
f 147/147/147 135/135/135 149/149/149
f 147/147/147 149/149/149 148/148/148
f 135/135/135 127/127/127 149/149/149
f 148/148/148 149/149/149 150/150/150
f 149/149/149 127/127/127 151/151/151
f 133/133/133 151/151/151 127/127/127
f 149/149/149 152/152/152 150/150/150
f 151/151/151 152/152/152 149/149/149
f 151/151/151 133/133/133 152/152/152
f 153/153/153 150/150/150 152/152/152
f 153/153/153 152/152/152 133/133/133
f 156/156/156 155/155/155 154/154/154
f 157/157/157 155/155/155 156/156/156
f 158/158/158 154/154/154 155/155/155
f 157/157/157 159/159/159 155/155/155
f 160/160/160 158/158/158 155/155/155
f 161/161/161 158/158/158 160/160/160
f 161/161/161 160/160/160 162/162/162
f 162/162/162 160/160/160 163/163/163
f 163/163/163 160/160/160 155/155/155
f 164/164/164 162/162/162 163/163/163
f 165/165/165 164/164/164 163/163/163
f 159/159/159 166/166/166 155/155/155
f 155/155/155 166/166/166 163/163/163
f 166/166/166 165/165/165 163/163/163
f 167/167/167 166/166/166 159/159/159
f 166/166/166 168/168/168 165/165/165
f 167/167/167 168/168/168 166/166/166
