g Revolver_Rail_Mesh_LOD3
v 0.0004116244 0.001140741 0.001193494
v -0.0004199425 0.001145499 0.001193476
v -0.0003626691 0.001063318 0.001190783
v 0.000317352 -0.002703774 0.001738397
v 0.0004467143 -0.002703774 0.001594065
v 0.0003820332 -0.002891761 0.001666231
v 0.0001611427 -0.00102128 0.001714313
v -3.980298E-05 -0.001168332 0.001738397
v 2.344008E-05 -0.001168881 0.001690228
v -3.980298E-05 -0.001168332 0.001738397
v -0.0001061372 -0.0009353188 0.001728764
v -0.0001348085 -0.001031928 0.001690228
v 0.0003173518 0.001243976 0.001738397
v 0.0004467142 0.001243976 0.001594065
v 0.000382033 0.001055988 0.001666231
v -0.0004008538 -0.003606305 0.001190785
v -0.0003626691 0.001063318 0.001190783
v -0.0004199425 0.001145499 0.001193476
v -0.0004336488 -0.003070053 0.001594065
v 0.0003843693 -0.003070053 0.001646541
v -0.0003090827 -0.003070053 0.001725256
v 0.000317352 -0.002703774 0.001738397
v -0.0003564489 -0.002703774 0.001666231
v 0.0004467143 -0.002703774 0.001594065
v 0.0003820332 -0.002496987 0.001666231
v -0.00042113 -0.002496987 0.001594065
v -0.0002917677 -0.002496987 0.001738397
v -0.00042113 -0.002496987 0.001594065
v -0.0003564489 -0.002308999 0.001666231
v -0.0002917677 -0.002496987 0.001738397
v 0.0003820332 -0.002102212 0.001666231
v -0.00042113 -0.002102212 0.001594065
v -0.0002917677 -0.002102212 0.001738397
v -0.00042113 -0.002102212 0.001594065
v -0.0003564489 -0.001914224 0.001666231
v -0.0002917677 -0.002102212 0.001738397
v -3.980298E-05 -0.001168332 0.001738397
v -0.0001348085 -0.001031928 0.001690228
v 2.344008E-05 -0.001168881 0.001690228
v 0.0003173519 5.965113E-05 0.001738397
v -0.000356449 5.965113E-05 0.001666231
v 0.0004467142 5.965113E-05 0.001594065
v 0.0004467142 5.965113E-05 0.001594065
v 0.0003820331 -0.0001283365 0.001666231
v 0.0003173519 5.965113E-05 0.001738397
v 0.0003820331 0.0002664381 0.001666231
v -0.0004211302 0.0002664381 0.001594065
v -0.0002917679 0.0002664381 0.001738397
v -0.0004211302 0.0002664381 0.001594065
v -0.0003564491 0.0004544264 0.001666231
v -0.0002917679 0.0002664381 0.001738397
v 0.0003820331 0.0006612132 0.001666231
v -0.0004211302 0.0006612132 0.001594065
v -0.0002917679 0.0006612132 0.001738397
v -0.0004211302 0.0006612132 0.001594065
v -0.0003564491 0.0008492011 0.001666231
v -0.0002917679 0.0006612132 0.001738397
v 0.0003173518 0.001243976 0.001738397
v -0.0003564491 0.001243976 0.001666231
v 0.0004467142 0.001243976 0.001594065
v 0.0003734412 -0.003614461 0.0013441
v 0.0003995204 -0.00361134 0.001519266
v 0.0004116244 -0.003606063 0.001190783
v 5.386933E-06 -0.003657124 0.001594053
v 5.386656E-06 -0.003656879 0.001344092
v -0.0003992721 -0.00360955 0.001390415
v -0.0004285357 -0.003606006 0.001594065
v 5.386656E-06 -0.003656879 0.001344092
v 0.0003734412 -0.003614461 0.0013441
v 0.0003734421 0.00107062 0.001344096
v -0.0003626691 0.00107062 0.001344096
v -0.0003992721 -0.00360955 0.001390415
v 0.0004154281 -0.003624089 0.001595764
v 0.0003094452 -0.003622695 0.001725276
v 0.0003843693 -0.003070053 0.001646541
v -0.0003090827 -0.003070053 0.001725256
v -0.0002673008 -0.003642363 0.001727243
v -0.0004315629 -0.003610016 0.001594293
v -0.0004336488 -0.003070053 0.001594065
v 0.0004154281 -0.003624089 0.001595764
v -0.0004315629 -0.003610016 0.001594293
v -0.0002673008 -0.003642363 0.001727243
v 0.0003094452 -0.003622695 0.001725276
v -0.0004315629 -0.003610016 0.001594293
v 0.0004154281 -0.003624089 0.001595764
v -0.0004336488 -0.003070053 0.001594065
v 0.0003843693 -0.003070053 0.001646541
v -0.0004211301 -0.001707437 0.001594065
v 0.0004467143 -0.001707437 0.001594065
v 0.0004467143 -0.0003351234 0.001594065
v -0.0004211302 -0.0003351238 0.001594065
v 0.0004116244 0.001140741 0.001193494
v 0.0004116244 -0.003606063 0.001190783
v 0.0003995204 -0.00361134 0.001519266
v 0.0004064398 0.001228176 0.001449791
v 0.0004393087 0.001251892 0.001594065
v 0.0003734412 -0.003614461 0.0013441
v 0.0004116244 -0.003606063 0.001190783
v 0.0004116244 0.001140741 0.001193494
v 0.0003734421 0.00107062 0.001344096
v -0.0004285357 0.001251892 0.001594065
v 0.0004064398 0.001228176 0.001449791
v 0.0004393087 0.001251892 0.001594065
v -0.0003948767 0.001237475 0.001457506
v -0.0004199425 0.001145499 0.001193476
v 0.0004116244 0.001140741 0.001193494
v 0.0003734421 0.00107062 0.001344096
v 0.0004116244 0.001140741 0.001193494
v -0.0003626691 0.001063318 0.001190783
v -0.0003626691 0.00107062 0.001344096
v -0.0004285357 -0.003606006 0.001594065
v -0.0003948767 0.001237475 0.001457506
v -0.0004285357 0.001251892 0.001594065
v -0.0003992721 -0.00360955 0.001390415
v -0.0004199425 0.001145499 0.001193476
v -0.0004008538 -0.003606305 0.001190785
v -0.0004285357 -0.003606006 0.001594065
v -0.0004285357 0.001251892 0.001594065
v 5.386933E-06 -0.003657124 0.001594053
v 0.0003995204 -0.00361134 0.001519266
v 0.0004393087 0.001251892 0.001594065
v -0.0003626691 0.001063318 0.001190783
v -0.0004008538 -0.003606305 0.001190785
v -0.0003992721 -0.00360955 0.001390415
v -0.0003626691 0.00107062 0.001344096
v -0.0003564489 -0.002891761 0.001666231
v -0.0003564489 -0.002703774 0.001666231
v 0.000317352 -0.002703774 0.001738397
v 0.0003820332 -0.002891761 0.001666231
v 0.0003820332 -0.002308999 0.001666231
v -0.0003564489 -0.002308999 0.001666231
v -0.00042113 -0.002496987 0.001594065
v 0.0003820332 -0.002496987 0.001666231
v -0.0002917677 -0.002496987 0.001738397
v -0.0003564489 -0.002308999 0.001666231
v 0.0003820332 -0.002308999 0.001666231
v 0.0003820332 -0.002496987 0.001666231
v 0.0003820332 -0.001914224 0.001666231
v -0.0003564489 -0.001914224 0.001666231
v -0.00042113 -0.002102212 0.001594065
v 0.0003820332 -0.002102212 0.001666231
v -0.0002917677 -0.002102212 0.001738397
v -0.0003564489 -0.001914224 0.001666231
v 0.0003820332 -0.001914224 0.001666231
v 0.0003820332 -0.002102212 0.001666231
v 0.0004467142 5.965113E-05 0.001594065
v -0.000356449 5.965113E-05 0.001666231
v -0.000356449 -0.0001283365 0.001666231
v 0.0003820331 -0.0001283365 0.001666231
v -0.0004211301 -0.001707437 0.001594065
v -0.0002917678 -0.001707437 0.001738397
v 0.000317352 -0.001707437 0.001738397
v 0.0004467143 -0.001707437 0.001594065
v -0.0002917679 -0.0003351238 0.001738397
v -0.0002917678 -0.001707437 0.001738397
v -0.0004211301 -0.001707437 0.001594065
v -0.0004211302 -0.0003351238 0.001594065
v 0.0004467143 -0.001707437 0.001594065
v 0.000317352 -0.001707437 0.001738397
v 0.0003173519 -0.0003351234 0.001738397
v 0.0004467143 -0.0003351234 0.001594065
v 0.0003173519 -0.0003351234 0.001738397
v -0.0002917679 -0.0003351238 0.001738397
v -0.0004211302 -0.0003351238 0.001594065
v 0.0004467143 -0.0003351234 0.001594065
v -0.000356449 -0.0001283365 0.001666231
v -0.000356449 5.965113E-05 0.001666231
v 0.0003173519 5.965113E-05 0.001738397
v 0.0003820331 -0.0001283365 0.001666231
v 0.0003820331 0.0004544264 0.001666231
v -0.0003564491 0.0004544264 0.001666231
v -0.0004211302 0.0002664381 0.001594065
v 0.0003820331 0.0002664381 0.001666231
v -0.0002917679 0.0002664381 0.001738397
v -0.0003564491 0.0004544264 0.001666231
v 0.0003820331 0.0004544264 0.001666231
v 0.0003820331 0.0002664381 0.001666231
v 0.000382033 0.0008492011 0.001666231
v -0.0003564491 0.0008492011 0.001666231
v -0.0004211302 0.0006612132 0.001594065
v 0.0003820331 0.0006612132 0.001666231
v -0.0002917679 0.0006612132 0.001738397
v -0.0003564491 0.0008492011 0.001666231
v 0.000382033 0.0008492011 0.001666231
v 0.0003820331 0.0006612132 0.001666231
v 0.0004467142 0.001243976 0.001594065
v -0.0003564491 0.001243976 0.001666231
v -0.000356449 0.001055988 0.001666231
v 0.000382033 0.001055988 0.001666231
v -0.000356449 0.001055988 0.001666231
v -0.0003564491 0.001243976 0.001666231
v 0.0003173518 0.001243976 0.001738397
v 0.000382033 0.001055988 0.001666231
v 0.0004467143 -0.002703774 0.001594065
v -0.0003564489 -0.002703774 0.001666231
v -0.0003564489 -0.002891761 0.001666231
v 0.0003820332 -0.002891761 0.001666231
v 4.94995E-05 -0.0008842869 0.0017007
v -0.0001348085 -0.001031928 0.001690228
v -0.0001061372 -0.0009353188 0.001728764
v 2.344008E-05 -0.001168881 0.001690228
v 0.0001611427 -0.00102128 0.001714313
v -0.0002917679 -0.0003351238 0.001738397
v -3.980298E-05 -0.001168332 0.001738397
v 0.0003173519 -0.0003351234 0.001738397
v -0.0002917678 -0.001707437 0.001738397
v 0.000317352 -0.001707437 0.001738397
vt 0.6205102 0.413756
vt 0.6211108 0.3799298
vt 0.6170441 0.3799298
vt 0.5629543 0.2832807
vt 0.5629543 0.2743742
vt 0.5543157 0.2788275
vt 0.5341476 0.3080433
vt 0.5272431 0.3029268
vt 0.5294646 0.303895
vt 0.5272431 0.3029268
vt 0.5244736 0.3113202
vt 0.5250332 0.3077452
vt 0.6267322 0.3106016
vt 0.6267322 0.3195082
vt 0.6180937 0.3150549
vt 0.449934 0.6261389
vt 0.6451298 0.6284078
vt 0.6488444 0.6250022
vt 0.6301465 0.5008508
vt 0.6240776 0.4614744
vt 0.6240673 0.4951003
vt 0.5629543 0.2832807
vt 0.5662705 0.3142439
vt 0.5695868 0.2773362
vt 0.5815619 0.4078218
vt 0.5782456 0.3709143
vt 0.5848781 0.3768587
vt 0.5543361 0.3679521
vt 0.5629747 0.3724054
vt 0.5543358 0.3768587
vt 0.6139655 0.2796387
vt 0.6106492 0.3165461
vt 0.6172818 0.3106016
vt 0.5867397 0.3195082
vt 0.5953783 0.3150549
vt 0.5867398 0.3106016
vt 0.5272431 0.3029268
vt 0.5250332 0.3077452
vt 0.5294646 0.303895
vt 0.5943286 0.330243
vt 0.5976448 0.3612058
vt 0.600961 0.3242983
vt 0.5943285 0.3213364
vt 0.58569 0.3257897
vt 0.5943286 0.330243
vt 0.5815617 0.3272706
vt 0.5782456 0.3641781
vt 0.5848778 0.3582336
vt 0.5543358 0.3671402
vt 0.5629745 0.3626869
vt 0.5543358 0.3582336
vt 0.6129159 0.3738865
vt 0.6095996 0.4107941
vt 0.6162322 0.4048494
vt 0.58569 0.413756
vt 0.5943285 0.4093027
vt 0.58569 0.4048494
vt 0.6267322 0.3106016
vt 0.6300486 0.2796387
vt 0.6333649 0.3165461
vt 0.4555377 0.5788469
vt 0.4645715 0.576925
vt 0.4476072 0.5762055
vt 0.4675159 0.598327
vt 0.4548038 0.5983402
vt 0.4582098 0.61859
vt 0.4690709 0.6202232
vt 0.6847073 0.5423723
vt 0.6830294 0.5194021
vt 0.4627303 0.5191983
vt 0.4630327 0.5519923
vt 0.6816862 0.5650987
vt 0.5992818 0.4581133
vt 0.5985425 0.4664969
vt 0.6240776 0.4614744
vt 0.6240673 0.4951003
vt 0.5983664 0.4930928
vt 0.59927 0.5034705
vt 0.6240673 0.5034705
vt 0.6548264 0.4620913
vt 0.6547456 0.5003475
vt 0.661501 0.4932821
vt 0.6614014 0.4663131
vt 0.6547456 0.5003475
vt 0.6548264 0.4620913
vt 0.6301465 0.5008508
vt 0.6277242 0.4630482
vt 0.5093807 0.4095939
vt 0.5488808 0.4095908
vt 0.5488954 0.3471317
vt 0.5093561 0.347134
vt 0.4526254 0.6965882
vt 0.7095169 0.6949854
vt 0.7096566 0.6756067
vt 0.4472531 0.6802949
vt 0.4458896 0.669754
vt 0.6830294 0.5194021
vt 0.6828345 0.5120155
vt 0.4576815 0.5120155
vt 0.4627303 0.5191983
vt 0.7099 0.6198424
vt 0.7178288 0.5787716
vt 0.7099 0.5768284
vt 0.7174582 0.6176823
vt 0.7310761 0.6194205
vt 0.7308756 0.5772504
vt 0.4627303 0.5191983
vt 0.4576815 0.5120155
vt 0.4554944 0.5593079
vt 0.4630327 0.5519923
vt 0.4463443 0.6415161
vt 0.7086054 0.6514357
vt 0.7094352 0.6415161
vt 0.4461982 0.6521792
vt 0.7039261 0.6685933
vt 0.4464676 0.6667584
vt 0.4690709 0.6202232
vt 0.7099 0.6198424
vt 0.4675159 0.598327
vt 0.4645715 0.576925
vt 0.7099 0.5768284
vt 0.4554944 0.5593079
vt 0.6810588 0.5724876
vt 0.6816862 0.5650987
vt 0.4630327 0.5519923
vt 0.5543157 0.315725
vt 0.5629543 0.315725
vt 0.5629543 0.2832807
vt 0.5543157 0.2788275
vt 0.5662907 0.4078218
vt 0.5662909 0.3738865
vt 0.5782456 0.3709143
vt 0.5815619 0.4078218
vt 0.5543358 0.3768587
vt 0.5629747 0.3724054
vt 0.5629746 0.4093027
vt 0.5543358 0.4093027
vt 0.5986946 0.2796387
vt 0.5986945 0.3135738
vt 0.6106492 0.3165461
vt 0.6139655 0.2796387
vt 0.5867398 0.3106016
vt 0.5953783 0.3150549
vt 0.5953783 0.2781577
vt 0.5867397 0.2781577
vt 0.600961 0.3242983
vt 0.5976448 0.3612058
vt 0.6129159 0.3612058
vt 0.6129159 0.3272706
vt 0.5093807 0.4095939
vt 0.5152693 0.4161626
vt 0.5429933 0.4161605
vt 0.5488808 0.4095908
vt 0.5152341 0.3405534
vt 0.5152477 0.2755793
vt 0.5060331 0.2754503
vt 0.5060276 0.3406729
vt 0.552233 0.2754503
vt 0.5430155 0.2755771
vt 0.5430166 0.3405523
vt 0.5522208 0.3406748
vt 0.5430166 0.3405523
vt 0.5152341 0.3405534
vt 0.5093561 0.347134
vt 0.5488954 0.3471317
vt 0.58569 0.3626869
vt 0.5943286 0.3626869
vt 0.5943286 0.330243
vt 0.58569 0.3257897
vt 0.5662907 0.3272706
vt 0.5662907 0.3612058
vt 0.5782456 0.3641781
vt 0.5815617 0.3272706
vt 0.5543358 0.3582336
vt 0.5629745 0.3626869
vt 0.5629745 0.3257897
vt 0.5543358 0.3257897
vt 0.5976448 0.3738865
vt 0.5976447 0.4078218
vt 0.6095996 0.4107941
vt 0.6129159 0.3738865
vt 0.58569 0.4048494
vt 0.5943285 0.4093027
vt 0.5943286 0.3724054
vt 0.58569 0.3724054
vt 0.6333649 0.3165461
vt 0.6300486 0.2796387
vt 0.6453197 0.2796387
vt 0.6453197 0.3135738
vt 0.6180937 0.2781575
vt 0.6267322 0.2781576
vt 0.6267322 0.3106016
vt 0.6180937 0.3150549
vt 0.5695868 0.2773362
vt 0.5662705 0.3142439
vt 0.5815415 0.3142439
vt 0.5815415 0.2803085
vt 0.5302461 0.3128324
vt 0.5250332 0.3077452
vt 0.5244736 0.3113202
vt 0.5294646 0.303895
vt 0.5341476 0.3080433
vt 0.5152341 0.3405534
vt 0.5272431 0.3029268
vt 0.5430166 0.3405523
vt 0.5152477 0.2755793
vt 0.5430155 0.2755771
vn 0.0002099132 0.03289046 -0.999459
vn -0.01786192 0.02030152 -0.9996344
vn -0.02536464 0.01507042 -0.9995647
vn 0.7446705 -3.195067E-07 0.6674322
vn 0.7446705 -3.195067E-07 0.6674322
vn 0.7446705 -3.195067E-07 0.6674322
vn -0.4951182 0.5690435 -0.656542
vn -0.4951182 0.5690435 -0.656542
vn -0.4951182 0.5690435 -0.656542
vn 0.5978785 0.1375553 -0.789696
vn 0.5978785 0.1375553 -0.789696
vn 0.5978785 0.1375553 -0.789696
vn 0.7446704 -3.195055E-07 0.6674324
vn 0.7446704 -3.195055E-07 0.6674324
vn 0.7446704 -3.195055E-07 0.6674324
vn -0.04641447 0.0003792447 -0.9989222
vn -0.02536464 0.01507042 -0.9995647
vn -0.01786192 0.02030152 -0.9996344
vn 0 1 -3.696438E-06
vn 0 1 -3.696438E-06
vn 0 1 -3.696438E-06
vn 0 1 0
vn 0 1 0
vn 0 1 0
vn -2.017812E-07 -1 -3.495064E-06
vn -2.017812E-07 -1 -3.495064E-06
vn -2.017812E-07 -1 -3.495064E-06
vn -0.7446722 -2.396293E-07 0.6674303
vn -0.7446722 -2.396293E-07 0.6674303
vn -0.7446722 -2.396293E-07 0.6674303
vn -2.017812E-07 -1 -3.058181E-06
vn -2.017812E-07 -1 -3.058181E-06
vn -2.017812E-07 -1 -3.058181E-06
vn -0.7446705 1.597534E-07 0.6674322
vn -0.7446705 1.597534E-07 0.6674322
vn -0.7446705 1.597534E-07 0.6674322
vn 0.498473 0.5759787 0.6478992
vn 0.498473 0.5759787 0.6478992
vn 0.498473 0.5759787 0.6478992
vn 0 1 0
vn 0 1 0
vn 0 1 0
vn 0.7446706 -3.195068E-07 0.6674322
vn 0.7446706 -3.195068E-07 0.6674322
vn 0.7446706 -3.195068E-07 0.6674322
vn 0 -1 2.184415E-07
vn 0 -1 2.184415E-07
vn 0 -1 2.184415E-07
vn -0.7446701 0 0.6674327
vn -0.7446701 0 0.6674327
vn -0.7446701 0 0.6674327
vn 0 -1 1.092208E-07
vn 0 -1 1.092208E-07
vn 0 -1 1.092208E-07
vn -0.7446709 -4.792595E-07 0.6674318
vn -0.7446709 -4.792595E-07 0.6674318
vn -0.7446709 -4.792595E-07 0.6674318
vn 0 1 0
vn 0 1 0
vn 0 1 0
vn 0.1547516 -0.9879372 -0.005657492
vn 0.1221907 -0.9925066 -0.0005126461
vn 0.1794517 -0.9837239 -0.009193371
vn -0.008198856 -0.9999663 -0.0005468232
vn 0.003442733 -0.9999937 -0.0009798064
vn -0.1167695 -0.9931591 1.757281E-05
vn -0.1169964 -0.9931323 0.0004733598
vn -0.05438808 -0.004235011 -0.9985109
vn 2.073969E-05 -7.31532E-07 -1
vn 1.025866E-06 8.326866E-07 -1
vn -0.006257972 -0.0004862996 -0.9999803
vn -0.1147568 -0.008933466 -0.9933535
vn 0.7737429 -0.01466894 0.6333299
vn 0.4130177 0.03683829 0.9099777
vn 0.2372101 0.1054269 0.9657208
vn -0.3523192 0.0188462 0.9356901
vn -0.3305298 -0.01023215 0.9437401
vn -0.6761868 -0.02520246 0.736299
vn -0.6761868 -0.02520246 0.736299
vn 0.02329873 -0.9995673 -0.01794986
vn -0.01583558 -0.9758517 -0.2178597
vn -0.01203706 -0.9799845 -0.1987102
vn 0.03418886 -0.9986649 0.03872291
vn 0.001729804 -0.0004169252 -0.9999985
vn 0.04060482 0.05916851 -0.9974219
vn 0.0247169 0.03481452 -0.999088
vn 0.06373184 0.09462372 -0.993471
vn 0 0 -1
vn 0 0 -1
vn 0 0 -1
vn 0 0 -1
vn 0.999561 -0.0005151795 0.02962358
vn 0.999561 -0.0005151795 0.02962358
vn 0.9996932 -0.0005942948 0.02476617
vn 0.9932208 -0.002880117 -0.1162069
vn 0.9751692 -0.004572825 -0.2214142
vn -0.9698565 7.003925E-05 -0.2436766
vn -0.9698565 7.003925E-05 -0.2436766
vn -0.9698565 7.003925E-05 -0.2436766
vn -0.9698565 7.003925E-05 -0.2436766
vn 0.004898493 0.9908969 -0.1345337
vn 0.005732442 0.9740117 -0.2264256
vn 0.004898493 0.9908969 -0.1345337
vn 0.00573432 0.9739625 -0.2266366
vn 0.006600178 0.9452814 -0.3261893
vn 0.006600178 0.9452814 -0.3261893
vn 0.05054949 -0.9792865 -0.1960685
vn 0.05054949 -0.9792865 -0.1960685
vn 0.05054949 -0.9792865 -0.1960685
vn 0.05054949 -0.9792865 -0.1960685
vn -0.9833053 0.001703217 -0.1819554
vn -0.9966523 0.0001693702 -0.08175614
vn -0.9833053 0.001703217 -0.1819554
vn -0.9981099 -0.0001400842 -0.06145342
vn -0.9983292 -0.001948006 0.05774858
vn -0.9983292 -0.001948006 0.05774858
vn 2.474158E-05 0 1
vn 0.05602334 -0.004954044 0.9984171
vn 0.03151935 -0.002786241 0.9994993
vn 0.05934771 -0.005248141 0.9982236
vn 0.05934771 -0.005248141 0.9982236
vn 0.9999583 -0.008020265 -0.004388946
vn 0.9999583 -0.008020265 -0.004388946
vn 0.9999583 -0.008020265 -0.004388946
vn 0.9999583 -0.008020265 -0.004388946
vn -0.05003694 -0.1965631 0.9792137
vn -0.05003694 -0.1965631 0.9792137
vn -0.05003694 -0.1965631 0.9792137
vn -0.05003694 -0.1965631 0.9792137
vn 0.04599094 0.1806671 -0.9824685
vn 0.04599094 0.1806671 -0.9824685
vn 0.04599094 0.1806671 -0.9824685
vn 0.04599094 0.1806671 -0.9824685
vn 0.05003691 0.1965619 0.9792139
vn 0.05003691 0.1965619 0.9792139
vn 0.05003691 0.1965619 0.9792139
vn 0.05003691 0.1965619 0.9792139
vn 0.04599075 0.1806671 -0.9824685
vn 0.04599075 0.1806671 -0.9824685
vn 0.04599075 0.1806671 -0.9824685
vn 0.04599075 0.1806671 -0.9824685
vn 0.05003687 0.1965628 0.9792137
vn 0.05003687 0.1965628 0.9792137
vn 0.05003687 0.1965628 0.9792137
vn 0.05003687 0.1965628 0.9792137
vn -0.0459906 -0.1806675 -0.9824684
vn -0.0459906 -0.1806675 -0.9824684
vn -0.0459906 -0.1806675 -0.9824684
vn -0.0459906 -0.1806675 -0.9824684
vn 0 -1 8.737659E-07
vn 0 -1 8.737659E-07
vn 0 -1 8.737659E-07
vn 0 -1 8.737659E-07
vn -0.7446707 0 0.667432
vn -0.7446707 0 0.667432
vn -0.7446707 0 0.667432
vn -0.7446707 0 0.667432
vn 0.7446705 0 0.6674322
vn 0.7446705 0 0.6674322
vn 0.7446705 0 0.6674322
vn 0.7446705 0 0.6674322
vn -4.792299E-07 1 2.457467E-07
vn -4.792299E-07 1 2.457467E-07
vn -4.792299E-07 1 2.457467E-07
vn -4.792299E-07 1 2.457467E-07
vn -0.05003693 -0.1965626 0.9792137
vn -0.05003693 -0.1965626 0.9792137
vn -0.05003693 -0.1965626 0.9792137
vn -0.05003693 -0.1965626 0.9792137
vn 0.04599061 0.1806667 -0.9824685
vn 0.04599061 0.1806667 -0.9824685
vn 0.04599061 0.1806667 -0.9824685
vn 0.04599061 0.1806667 -0.9824685
vn 0.05003678 0.1965624 0.9792138
vn 0.05003678 0.1965624 0.9792138
vn 0.05003678 0.1965624 0.9792138
vn 0.05003678 0.1965624 0.9792138
vn 0.0459907 0.1806674 -0.9824684
vn 0.0459907 0.1806674 -0.9824684
vn 0.0459907 0.1806674 -0.9824684
vn 0.0459907 0.1806674 -0.9824684
vn 0.05003688 0.1965625 0.9792137
vn 0.05003688 0.1965625 0.9792137
vn 0.05003688 0.1965625 0.9792137
vn 0.05003688 0.1965625 0.9792137
vn -0.04599056 -0.1806665 -0.9824686
vn -0.04599056 -0.1806665 -0.9824686
vn -0.04599056 -0.1806665 -0.9824686
vn -0.04599056 -0.1806665 -0.9824686
vn -0.05003688 -0.1965622 0.9792138
vn -0.05003688 -0.1965622 0.9792138
vn -0.05003688 -0.1965622 0.9792138
vn -0.05003688 -0.1965622 0.9792138
vn -0.04599061 -0.1806672 -0.9824684
vn -0.04599061 -0.1806672 -0.9824684
vn -0.04599061 -0.1806672 -0.9824684
vn -0.04599061 -0.1806672 -0.9824684
vn -0.008450072 -0.04121486 0.9991146
vn 0.07866231 -0.1678953 0.9826614
vn 0.1439426 -0.1236662 0.9818285
vn -0.07852765 -0.02947433 0.9964761
vn -0.1065025 0.002794995 0.9943085
vn 0.03181064 -0.03707904 0.9988059
vn 0.03668287 0.02033644 0.9991201
vn -0.04077468 -0.04954911 0.9979389
vn 0.006396217 0.001934246 0.9999777
vn -0.003405139 0.01229514 0.9999186
g Revolver_Rail_Mesh_LOD3_0
f 3/3/3 2/2/2 1/1/1
f 6/6/6 5/5/5 4/4/4
f 9/9/9 8/8/8 7/7/7
f 12/12/12 11/11/11 10/10/10
f 15/15/15 14/14/14 13/13/13
f 18/18/18 17/17/17 16/16/16
f 21/21/21 20/20/20 19/19/19
f 24/24/24 23/23/23 22/22/22
f 27/27/27 26/26/26 25/25/25
f 30/30/30 29/29/29 28/28/28
f 33/33/33 32/32/32 31/31/31
f 36/36/36 35/35/35 34/34/34
f 39/39/39 38/38/38 37/37/37
f 42/42/42 41/41/41 40/40/40
f 45/45/45 44/44/44 43/43/43
f 48/48/48 47/47/47 46/46/46
f 51/51/51 50/50/50 49/49/49
f 54/54/54 53/53/53 52/52/52
f 57/57/57 56/56/56 55/55/55
f 60/60/60 59/59/59 58/58/58
f 63/63/63 62/62/62 61/61/61
f 64/64/64 61/61/61 62/62/62
f 64/64/64 65/65/65 61/61/61
f 66/66/66 65/65/65 64/64/64
f 67/67/67 66/66/66 64/64/64
f 70/70/70 69/69/69 68/68/68
f 70/70/70 68/68/68 71/71/71
f 72/72/72 71/71/71 68/68/68
f 75/75/75 74/74/74 73/73/73
f 75/75/75 76/76/76 74/74/74
f 74/74/74 76/76/76 77/77/77
f 78/78/78 77/77/77 76/76/76
f 79/79/79 78/78/78 76/76/76
f 82/82/82 81/81/81 80/80/80
f 82/82/82 80/80/80 83/83/83
f 86/86/86 85/85/85 84/84/84
f 86/86/86 87/87/87 85/85/85
f 90/90/90 89/89/89 88/88/88
f 88/88/88 91/91/91 90/90/90
f 94/94/94 93/93/93 92/92/92
f 95/95/95 94/94/94 92/92/92
f 96/96/96 94/94/94 95/95/95
f 99/99/99 98/98/98 97/97/97
f 100/100/100 99/99/99 97/97/97
f 103/103/103 102/102/102 101/101/101
f 102/102/102 104/104/104 101/101/101
f 104/104/104 102/102/102 105/105/105
f 102/102/102 106/106/106 105/105/105
f 109/109/109 108/108/108 107/107/107
f 110/110/110 109/109/109 107/107/107
f 113/113/113 112/112/112 111/111/111
f 112/112/112 114/114/114 111/111/111
f 114/114/114 112/112/112 115/115/115
f 116/116/116 114/114/114 115/115/115
f 119/119/119 118/118/118 117/117/117
f 118/118/118 119/119/119 120/120/120
f 121/121/121 118/118/118 120/120/120
f 124/124/124 123/123/123 122/122/122
f 125/125/125 124/124/124 122/122/122
f 128/128/128 127/127/127 126/126/126
f 129/129/129 128/128/128 126/126/126
f 132/132/132 131/131/131 130/130/130
f 133/133/133 132/132/132 130/130/130
f 136/136/136 135/135/135 134/134/134
f 137/137/137 136/136/136 134/134/134
f 140/140/140 139/139/139 138/138/138
f 141/141/141 140/140/140 138/138/138
f 144/144/144 143/143/143 142/142/142
f 145/145/145 144/144/144 142/142/142
f 148/148/148 147/147/147 146/146/146
f 149/149/149 148/148/148 146/146/146
f 152/152/152 151/151/151 150/150/150
f 153/153/153 152/152/152 150/150/150
f 156/156/156 155/155/155 154/154/154
f 157/157/157 156/156/156 154/154/154
f 160/160/160 159/159/159 158/158/158
f 161/161/161 160/160/160 158/158/158
f 164/164/164 163/163/163 162/162/162
f 165/165/165 164/164/164 162/162/162
f 168/168/168 167/167/167 166/166/166
f 169/169/169 168/168/168 166/166/166
f 172/172/172 171/171/171 170/170/170
f 173/173/173 172/172/172 170/170/170
f 176/176/176 175/175/175 174/174/174
f 177/177/177 176/176/176 174/174/174
f 180/180/180 179/179/179 178/178/178
f 181/181/181 180/180/180 178/178/178
f 184/184/184 183/183/183 182/182/182
f 185/185/185 184/184/184 182/182/182
f 188/188/188 187/187/187 186/186/186
f 189/189/189 188/188/188 186/186/186
f 192/192/192 191/191/191 190/190/190
f 193/193/193 192/192/192 190/190/190
f 196/196/196 195/195/195 194/194/194
f 197/197/197 196/196/196 194/194/194
f 200/200/200 199/199/199 198/198/198
f 201/201/201 198/198/198 199/199/199
f 198/198/198 201/201/201 202/202/202
f 200/200/200 198/198/198 203/203/203
f 200/200/200 203/203/203 204/204/204
f 198/198/198 205/205/205 203/203/203
f 198/198/198 202/202/202 205/205/205
f 203/203/203 206/206/206 204/204/204
f 202/202/202 207/207/207 205/205/205
f 202/202/202 204/204/204 207/207/207
f 207/207/207 204/204/204 206/206/206
