g ROOT
v -38.7794 -26.4356 -3.94165
v 38.3962 -26.4356 -3.94165
v -39.1971 -25.9911 -3.94165
v -38.7794 25.9098 -3.94164
v -39.1971 25.4652 -3.94164
v 38.8139 25.4652 -3.94164
v 38.3962 25.9098 -3.94164
v 38.8139 -25.9911 -3.94165
v 36.8433 23.8126 -0.661293
v 36.8433 -24.3385 -0.661301
v -37.2265 23.8126 -0.661297
v -37.2265 -24.3385 -0.661304
v 38.8139 25.4652 -3.94164
v 38.8139 -25.9911 -3.94165
v 38.8139 25.4652 0.498676
v 38.8139 -25.9911 0.498669
v 38.3962 25.9098 0.498676
v -38.7794 25.9098 0.498674
v 38.3962 25.9098 -3.94164
v -38.7794 25.9098 -3.94164
v -39.1971 25.4652 0.498674
v -39.1971 25.4652 -3.94164
v -39.1971 -25.9911 0.498665
v -39.1971 -25.9911 -3.94165
v -38.7794 -26.4356 0.498665
v -38.7794 -26.4356 -3.94165
v 38.3962 -26.4356 -3.94165
v -38.7794 -26.4356 -3.94165
v 38.3962 -26.4356 0.498669
v -38.7794 -26.4356 0.498665
v 36.8433 23.8126 0.498676
v 36.8433 -24.3385 0.498669
v 36.8433 23.8126 -0.661293
v 36.8433 -24.3385 -0.661301
v -37.2265 23.8126 0.498672
v 36.8433 23.8126 0.498676
v -37.2265 23.8126 -0.661297
v 36.8433 23.8126 -0.661293
v -37.2265 -24.3385 0.498667
v -37.2265 23.8126 0.498672
v -37.2265 -24.3385 -0.661304
v -37.2265 23.8126 -0.661297
v 36.8433 -24.3385 0.498669
v -37.2265 -24.3385 0.498667
v 36.8433 -24.3385 -0.661301
v -37.2265 -24.3385 -0.661304
v 38.3962 25.9098 -3.94164
v 38.8139 25.4652 -3.94164
v 38.3962 25.9098 0.498676
v 38.8139 25.4652 0.498676
v 38.3962 -26.4356 0.498669
v 38.8139 -25.9911 0.498669
v 38.3962 -26.4356 -3.94165
v 38.8139 -25.9911 -3.94165
v 25.0823 -26.774 0.791359
v 27.067 -26.774 0.791359
v 25.0823 -26.774 0.053381
v 27.067 -26.774 0.0533829
v 27.067 -25.7234 0.0533829
v 27.067 -25.7234 0.791359
v 25.0823 -25.7234 0.053381
v 25.0823 -25.7234 0.791359
v 27.067 -26.774 0.0533829
v 27.067 -26.774 0.791359
v 27.067 -25.7234 0.0533829
v 27.067 -25.7234 0.791359
v 25.0823 -26.774 0.053381
v 27.067 -26.774 0.0533829
v 25.0823 -25.7234 0.053381
v 27.067 -25.7234 0.0533829
v 25.0823 -26.774 0.791359
v 25.0823 -26.774 0.053381
v 25.0823 -25.7234 0.791359
v 25.0823 -25.7234 0.053381
v 27.067 -26.774 0.791359
v 25.0823 -26.774 0.791359
v 27.067 -25.7234 0.791359
v 25.0823 -25.7234 0.791359
v 27.5001 -26.774 0.791359
v 29.4847 -26.774 0.791359
v 27.5001 -26.774 0.0533829
v 29.4847 -26.774 0.0533829
v 29.4847 -25.7234 0.0533829
v 29.4847 -25.7234 0.791359
v 27.5001 -25.7234 0.0533829
v 27.5001 -25.7234 0.791359
v 29.4847 -26.774 0.0533829
v 29.4847 -26.774 0.791359
v 29.4847 -25.7234 0.0533829
v 29.4847 -25.7234 0.791359
v 27.5001 -26.774 0.0533829
v 29.4847 -26.774 0.0533829
v 27.5001 -25.7234 0.0533829
v 29.4847 -25.7234 0.0533829
v 27.5001 -26.774 0.791359
v 27.5001 -26.774 0.0533829
v 27.5001 -25.7234 0.791359
v 27.5001 -25.7234 0.0533829
v 29.4847 -26.774 0.791359
v 27.5001 -26.774 0.791359
v 29.4847 -25.7234 0.791359
v 27.5001 -25.7234 0.791359
v 30.096 -26.774 0.791359
v 34.6029 -26.774 0.791359
v 30.096 -26.774 0.0533829
v 34.6029 -26.774 0.0533829
v 34.6029 -25.7234 0.0533829
v 34.6029 -25.7234 0.791359
v 30.096 -25.7234 0.0533829
v 30.096 -25.7234 0.791359
v 34.6029 -26.774 0.0533829
v 34.6029 -26.774 0.791359
v 34.6029 -25.7234 0.0533829
v 34.6029 -25.7234 0.791359
v 30.096 -26.774 0.0533829
v 34.6029 -26.774 0.0533829
v 30.096 -25.7234 0.0533829
v 34.6029 -25.7234 0.0533829
v 30.096 -26.774 0.791359
v 30.096 -26.774 0.0533829
v 30.096 -25.7234 0.791359
v 30.096 -25.7234 0.0533829
v 34.6029 -26.774 0.791359
v 30.096 -26.774 0.791359
v 34.6029 -25.7234 0.791359
v 30.096 -25.7234 0.791359
v 26.6072 19.3877 -6.75994
v 26.6072 -19.4205 -6.75994
v 26.6072 19.3877 -3.72036
v 26.6072 -19.4205 -3.72037
v -26.9905 19.3877 -6.75994
v 26.6072 19.3877 -6.75994
v -26.9905 19.3877 -3.72036
v 26.6072 19.3877 -3.72036
v -26.9905 -19.4205 -6.75995
v -26.9905 19.3877 -6.75994
v -26.9905 -19.4205 -3.72037
v -26.9905 19.3877 -3.72036
v 26.6072 -19.4205 -6.75994
v -26.9905 -19.4205 -6.75995
v 26.6072 -19.4205 -3.72037
v -26.9905 -19.4205 -3.72037
v 15.2624 10.3313 -15.584
v 15.2624 -0.72253 -15.5841
v 15.2624 10.3313 -8.01293
v 15.2624 -0.722528 -8.013
v 13.9008 10.3313 -15.584
v 15.2624 10.3313 -15.584
v 13.9008 10.3313 -8.01293
v 15.2624 10.3313 -8.01293
v 13.9008 -0.72253 -15.5841
v 13.9008 10.3313 -15.584
v 13.9008 -0.722528 -8.013
v 13.9008 10.3313 -8.01293
v 15.2624 -0.72253 -15.5841
v 13.9008 -0.72253 -15.5841
v 15.2624 -0.722528 -8.013
v 13.9008 -0.722528 -8.013
v -14.284 10.3313 -15.584
v -14.284 -0.72253 -15.5841
v -14.284 10.3313 -8.01293
v -14.284 -0.722528 -8.013
v -15.6457 10.3313 -15.584
v -14.284 10.3313 -15.584
v -15.6457 10.3313 -8.01293
v -14.284 10.3313 -8.01293
v -15.6457 -0.72253 -15.5841
v -15.6457 10.3313 -15.584
v -15.6457 -0.722528 -8.013
v -15.6457 10.3313 -8.01293
v -14.284 -0.72253 -15.5841
v -15.6457 -0.72253 -15.5841
v -14.284 -0.722528 -8.013
v -15.6457 -0.722528 -8.013
v -23.963 13.3258 -15.584
v 23.5798 13.3258 -15.584
v -23.963 -3.71702 -15.584
v 23.5798 -3.71702 -15.584
v 23.5798 -3.71702 -15.584
v 23.5798 13.3258 -15.584
v 23.5798 -3.71702 -16.9188
v 23.5798 13.3258 -16.9188
v -23.963 -3.71702 -15.584
v 23.5798 -3.71702 -15.584
v -23.963 -3.71702 -16.9188
v 23.5798 -3.71702 -16.9188
v -23.963 13.3258 -15.584
v -23.963 -3.71702 -15.584
v -23.963 13.3258 -16.9188
v -23.963 -3.71702 -16.9188
v 23.5798 13.3258 -15.584
v -23.963 13.3258 -15.584
v 23.5798 13.3258 -16.9188
v -23.963 13.3258 -16.9188
v 38.8139 25.4652 0.498676
v 38.8139 -25.9911 0.498669
v 38.5185 25.5954 0.498676
v 38.3962 25.9098 0.498676
v 36.8433 23.8126 0.498676
v 36.8433 -24.3385 0.498669
v -37.2265 23.8126 0.498672
v 38.5185 -26.1213 0.498669
v 38.3962 -26.4356 0.498669
v -38.7794 -26.4356 0.498665
v -37.2265 -24.3385 0.498667
v -38.9017 25.5954 0.498674
v -38.7794 25.9098 0.498674
v -39.1971 25.4652 0.498674
v -38.9017 -26.1213 0.498665
v -39.1971 -25.9911 0.498665
v -26.9905 -19.4205 -6.75995
v 26.6072 -19.4205 -6.75994
v -19.8892 -12.3192 -8.01293
v -19.8892 12.2865 -8.01293
v -26.9905 19.3877 -6.75994
v 19.506 -12.3192 -8.01293
v 26.6072 19.3877 -6.75994
v 19.506 12.2865 -8.01293
vt 0.545243 0.206059
vt 0.0777078 0.206059
vt 0.547774 0.208752
vt 0.545243 0.523171
vt 0.547774 0.520478
vt 0.0751772 0.520478
vt 0.0777078 0.523171
vt 0.0751772 0.208752
vt 0.588451 0.978181
vt 0.588451 0.611201
vt 0.0239332 0.978181
vt 0.0239332 0.611201
vt 0.666505 0.974022
vt 0.666505 0.591571
vt 0.633502 0.974022
vt 0.633502 0.591571
vt 0.633502 0.0134258
vt 0.633502 0.587037
vt 0.666505 0.0134258
vt 0.666505 0.587037
vt 0.633502 0.591571
vt 0.666505 0.591571
vt 0.633502 0.974022
vt 0.666505 0.974022
vt 0.633502 0.978556
vt 0.666505 0.978556
vt 0.717012 0.587027
vt 0.717012 0.0134163
vt 0.684009 0.587027
vt 0.684009 0.0134163
vt 0.693427 0.988719
vt 0.693427 0.621739
vt 0.684586 0.988719
vt 0.684586 0.621739
vt 0.729189 0.016674
vt 0.729189 0.581191
vt 0.73803 0.016674
vt 0.73803 0.581191
vt 0.684586 0.621738
vt 0.684586 0.988719
vt 0.693427 0.621738
vt 0.693427 0.988719
vt 0.729189 0.016674
vt 0.729189 0.581191
vt 0.73803 0.016674
vt 0.73803 0.581191
vt 0.666505 0.591571
vt 0.666505 0.587037
vt 0.633502 0.591571
vt 0.633502 0.587037
vt 0.666505 0.978556
vt 0.666505 0.974022
vt 0.633502 0.978556
vt 0.633502 0.974022
vt 0.926039 0.705238
vt 0.926039 0.767394
vt 0.94915 0.705238
vt 0.94915 0.767394
vt 0.870023 0.767394
vt 0.893135 0.767394
vt 0.870023 0.705238
vt 0.893135 0.705238
vt 0.94915 0.767394
vt 0.926039 0.767394
vt 0.94915 0.800297
vt 0.926039 0.800297
vt 0.94915 0.705238
vt 0.94915 0.767394
vt 0.982054 0.705238
vt 0.982054 0.767394
vt 0.926039 0.705238
vt 0.94915 0.705238
vt 0.926039 0.672335
vt 0.94915 0.672335
vt 0.926039 0.767394
vt 0.926039 0.705238
vt 0.893135 0.767394
vt 0.893135 0.705238
vt 0.926039 0.705238
vt 0.926039 0.767394
vt 0.94915 0.705238
vt 0.94915 0.767394
vt 0.870023 0.767394
vt 0.893135 0.767394
vt 0.870023 0.705238
vt 0.893135 0.705238
vt 0.94915 0.767394
vt 0.926039 0.767394
vt 0.94915 0.800297
vt 0.926039 0.800297
vt 0.94915 0.705238
vt 0.94915 0.767394
vt 0.982054 0.705238
vt 0.982054 0.767394
vt 0.926039 0.705238
vt 0.94915 0.705238
vt 0.926039 0.672335
vt 0.94915 0.672335
vt 0.926039 0.767394
vt 0.926039 0.705238
vt 0.893135 0.767394
vt 0.893135 0.705238
vt 0.946875 0.872414
vt 0.946875 0.959687
vt 0.961166 0.872414
vt 0.961166 0.959687
vt 0.912241 0.959687
vt 0.926531 0.959687
vt 0.912241 0.872414
vt 0.926531 0.872414
vt 0.961166 0.959687
vt 0.946875 0.959687
vt 0.961166 0.980032
vt 0.946875 0.980032
vt 0.961166 0.872414
vt 0.961166 0.959687
vt 0.981511 0.872414
vt 0.981511 0.959687
vt 0.946875 0.872414
vt 0.961166 0.872414
vt 0.946875 0.852069
vt 0.961166 0.852069
vt 0.946875 0.959687
vt 0.946875 0.872414
vt 0.926531 0.959687
vt 0.926531 0.872414
vt 0.76587 0.187494
vt 0.978838 0.187494
vt 0.76617 0.170561
vt 0.978538 0.170561
vt 0.76587 0.481394
vt 0.76587 0.187494
vt 0.748936 0.481094
vt 0.748936 0.187794
vt 0.978838 0.481394
vt 0.76587 0.481394
vt 0.978538 0.498327
vt 0.76617 0.498327
vt 0.978838 0.187494
vt 0.978838 0.481394
vt 0.995771 0.187794
vt 0.995771 0.481094
vt 0.765098 0.686855
vt 0.765099 0.615483
vt 0.716214 0.686855
vt 0.716214 0.615483
vt 0.765098 0.695647
vt 0.765098 0.686855
vt 0.716214 0.695647
vt 0.716214 0.686855
vt 0.765099 0.767019
vt 0.765098 0.695647
vt 0.716214 0.767019
vt 0.716214 0.695647
vt 0.765099 0.615483
vt 0.765099 0.606691
vt 0.716214 0.615483
vt 0.716214 0.606691
vt 0.769164 0.869729
vt 0.769165 0.798357
vt 0.720279 0.869729
vt 0.72028 0.798357
vt 0.769164 0.878521
vt 0.769164 0.869729
vt 0.720279 0.878521
vt 0.720279 0.869729
vt 0.769165 0.949893
vt 0.769164 0.878521
vt 0.72028 0.949893
vt 0.720279 0.878521
vt 0.769165 0.798357
vt 0.769165 0.789565
vt 0.72028 0.798357
vt 0.72028 0.789565
vt 0.028091 0.128531
vt 0.322905 0.128531
vt 0.028091 0.0228476
vt 0.322905 0.0228476
vt 0.322905 0.0228476
vt 0.322905 0.128531
vt 0.331183 0.0228476
vt 0.331183 0.128531
vt 0.028091 0.0228476
vt 0.322905 0.0228476
vt 0.028091 0.0145702
vt 0.322905 0.0145702
vt 0.028091 0.128531
vt 0.028091 0.0228476
vt 0.0198136 0.128531
vt 0.0198136 0.0228476
vt 0.322905 0.128531
vt 0.028091 0.128531
vt 0.322905 0.136808
vt 0.028091 0.136808
vt 0.605821 0.560701
vt 0.605821 0.16853
vt 0.603569 0.561693
vt 0.602637 0.564089
vt 0.590801 0.548105
vt 0.590801 0.181125
vt 0.026284 0.548105
vt 0.603569 0.167538
vt 0.602637 0.165142
vt 0.0144488 0.165142
vt 0.026284 0.181125
vt 0.013516 0.561693
vt 0.0144488 0.564089
vt 0.0112646 0.560701
vt 0.013516 0.167538
vt 0.0112646 0.16853
vt 0.978838 0.481394
vt 0.978838 0.187494
vt 0.939678 0.442234
vt 0.805029 0.442234
vt 0.76587 0.481394
vt 0.939678 0.226654
vt 0.76587 0.187494
vt 0.805029 0.226654
vn 0 0 -1
vn 0 0 -1
vn 0 0 -1
vn 0 0 -1
vn 0 0 -1
vn 0 0 -1
vn 0 0 -1
vn 0 0 -1
vn 0 0 1
vn 0 0 1
vn 0 0 1
vn 0 0 1
vn 0.8735393 0.4867538 0
vn 0.9699233 -0.2434104 0
vn 0.9699317 0.2433769 0
vn 0.8735019 -0.4868208 0
vn 0.5239682 0.8517379 0
vn -0.2619841 0.9650722 0
vn 0.2619841 0.9650722 0
vn -0.5239682 0.8517379 0
vn -0.8735393 0.4867538 0
vn -0.9699317 0.2433769 0
vn -0.9699233 -0.2434104 0
vn -0.8735019 -0.4868208 0
vn -0.5239024 -0.8517784 0
vn -0.2619512 -0.9650812 0
vn 0.5239024 -0.8517784 0
vn -0.2619512 -0.9650812 0
vn 0.2619512 -0.9650812 0
vn -0.5239024 -0.8517784 0
vn -1 0 0
vn -1 0 0
vn -1 0 0
vn -1 0 0
vn 0 -1 0
vn 0 -1 0
vn 0 -1 0
vn 0 -1 0
vn 1 0 0
vn 1 0 0
vn 1 0 0
vn 1 0 0
vn 0 1 0
vn 0 1 0
vn 0 1 0
vn 0 1 0
vn 0.2619841 0.9650722 0
vn 0.8735393 0.4867538 0
vn 0.5239682 0.8517379 0
vn 0.9699317 0.2433769 0
vn 0.2619512 -0.9650812 0
vn 0.8735019 -0.4868208 0
vn 0.5239024 -0.8517784 0
vn 0.9699233 -0.2434104 0
vn 0 -1 0
vn 0 -1 0
vn 0 -1 0
vn 0 -1 0
vn 0 1 0
vn 0 1 0
vn 0 1 0
vn 0 1 0
vn 1 0 0
vn 1 0 0
vn 1 0 0
vn 1 0 0
vn 0 0 -1
vn 0 0 -1
vn 0 0 -1
vn 0 0 -1
vn -1 0 0
vn -1 0 0
vn -1 0 0
vn -1 0 0
vn 0 0 1
vn 0 0 1
vn 0 0 1
vn 0 0 1
vn 0 -1 0
vn 0 -1 0
vn 0 -1 0
vn 0 -1 0
vn 0 1 0
vn 0 1 0
vn 0 1 0
vn 0 1 0
vn 1 0 0
vn 1 0 0
vn 1 0 0
vn 1 0 0
vn 0 0 -1
vn 0 0 -1
vn 0 0 -1
vn 0 0 -1
vn -1 0 0
vn -1 0 0
vn -1 0 0
vn -1 0 0
vn 0 0 1
vn 0 0 1
vn 0 0 1
vn 0 0 1
vn 0 -1 0
vn 0 -1 0
vn 0 -1 0
vn 0 -1 0
vn 0 1 0
vn 0 1 0
vn 0 1 0
vn 0 1 0
vn 1 0 0
vn 1 0 0
vn 1 0 0
vn 1 0 0
vn 0 0 -1
vn 0 0 -1
vn 0 0 -1
vn 0 0 -1
vn -1 0 0
vn -1 0 0
vn -1 0 0
vn -1 0 0
vn 0 0 1
vn 0 0 1
vn 0 0 1
vn 0 0 1
vn 1 0 0
vn 1 0 0
vn 1 0 0
vn 1 0 0
vn 0 1 0
vn 0 1 0
vn 0 1 0
vn 0 1 0
vn -1 0 0
vn -1 0 0
vn -1 0 0
vn -1 0 0
vn 0 -1 0
vn 0 -1 0
vn 0 -1 0
vn 0 -1 0
vn 1 0 0
vn 1 0 0
vn 1 0 0
vn 1 0 0
vn 0 1 0
vn 0 1 0
vn 0 1 0
vn 0 1 0
vn -1 0 0
vn -1 0 0
vn -1 0 0
vn -1 0 0
vn 0 -1 0
vn 0 -1 0
vn 0 -1 0
vn 0 -1 0
vn 1 0 0
vn 1 0 0
vn 1 0 0
vn 1 0 0
vn 0 1 0
vn 0 1 0
vn 0 1 0
vn 0 1 0
vn -1 0 0
vn -1 0 0
vn -1 0 0
vn -1 0 0
vn 0 -1 0
vn 0 -1 0
vn 0 -1 0
vn 0 -1 0
vn 0 0 1
vn 0 0 1
vn 0 0 1
vn 0 0 1
vn 1 0 0
vn 1 0 0
vn 1 0 0
vn 1 0 0
vn 0 -1 0
vn 0 -1 0
vn 0 -1 0
vn 0 -1 0
vn -1 0 0
vn -1 0 0
vn -1 0 0
vn -1 0 0
vn 0 1 0
vn 0 1 0
vn 0 1 0
vn 0 1 0
vn 0 0 1
vn 0 0 1
vn 0 0 1
vn 0 0 1
vn 0 0 1
vn 0 0 1
vn 0 0 1
vn 0 0 1
vn 0 0 1
vn 0 0 1
vn 0 0 1
vn 0 0 1
vn 0 0 1
vn 0 0 1
vn 0 0 1
vn 0 0 1
vn -0.1166252 -0.05831243 -0.9914626
vn 0.05831377 -0.1166254 -0.9914625
vn -0.04373062 -0.08746169 -0.9952075
vn -0.0699296 0.0349655 -0.9969389
vn -0.05831283 0.1166275 -0.9914624
vn 0.06993089 -0.03496496 -0.9969389
vn 0.1166274 0.05831372 -0.9914623
vn 0.0437316 0.08746321 -0.9952074
g ROOT_0
f 3/3/3 2/2/2 1/1/1
f 4/4/4 2/2/2 3/3/3
f 4/4/4 3/3/3 5/5/5
f 6/6/6 2/2/2 4/4/4
f 6/6/6 4/4/4 7/7/7
f 6/6/6 8/8/8 2/2/2
f 11/11/11 10/10/10 9/9/9
f 10/10/10 11/11/11 12/12/12
f 15/15/15 14/14/14 13/13/13
f 14/14/14 15/15/15 16/16/16
f 19/19/19 18/18/18 17/17/17
f 18/18/18 19/19/19 20/20/20
f 20/20/20 21/21/21 18/18/18
f 21/21/21 20/20/20 22/22/22
f 22/22/22 23/23/23 21/21/21
f 23/23/23 22/22/22 24/24/24
f 24/24/24 25/25/25 23/23/23
f 25/25/25 24/24/24 26/26/26
f 29/29/29 28/28/28 27/27/27
f 28/28/28 29/29/29 30/30/30
f 33/33/33 32/32/32 31/31/31
f 32/32/32 33/33/33 34/34/34
f 37/37/37 36/36/36 35/35/35
f 36/36/36 37/37/37 38/38/38
f 41/41/41 40/40/40 39/39/39
f 40/40/40 41/41/41 42/42/42
f 45/45/45 44/44/44 43/43/43
f 44/44/44 45/45/45 46/46/46
f 49/49/49 48/48/48 47/47/47
f 48/48/48 49/49/49 50/50/50
f 53/53/53 52/52/52 51/51/51
f 52/52/52 53/53/53 54/54/54
f 57/57/57 56/56/56 55/55/55
f 56/56/56 57/57/57 58/58/58
f 61/61/61 60/60/60 59/59/59
f 60/60/60 61/61/61 62/62/62
f 65/65/65 64/64/64 63/63/63
f 64/64/64 65/65/65 66/66/66
f 69/69/69 68/68/68 67/67/67
f 68/68/68 69/69/69 70/70/70
f 73/73/73 72/72/72 71/71/71
f 72/72/72 73/73/73 74/74/74
f 77/77/77 76/76/76 75/75/75
f 76/76/76 77/77/77 78/78/78
f 81/81/81 80/80/80 79/79/79
f 80/80/80 81/81/81 82/82/82
f 85/85/85 84/84/84 83/83/83
f 84/84/84 85/85/85 86/86/86
f 89/89/89 88/88/88 87/87/87
f 88/88/88 89/89/89 90/90/90
f 93/93/93 92/92/92 91/91/91
f 92/92/92 93/93/93 94/94/94
f 97/97/97 96/96/96 95/95/95
f 96/96/96 97/97/97 98/98/98
f 101/101/101 100/100/100 99/99/99
f 100/100/100 101/101/101 102/102/102
f 105/105/105 104/104/104 103/103/103
f 104/104/104 105/105/105 106/106/106
f 109/109/109 108/108/108 107/107/107
f 108/108/108 109/109/109 110/110/110
f 113/113/113 112/112/112 111/111/111
f 112/112/112 113/113/113 114/114/114
f 117/117/117 116/116/116 115/115/115
f 116/116/116 117/117/117 118/118/118
f 121/121/121 120/120/120 119/119/119
f 120/120/120 121/121/121 122/122/122
f 125/125/125 124/124/124 123/123/123
f 124/124/124 125/125/125 126/126/126
f 129/129/129 128/128/128 127/127/127
f 128/128/128 129/129/129 130/130/130
f 133/133/133 132/132/132 131/131/131
f 132/132/132 133/133/133 134/134/134
f 137/137/137 136/136/136 135/135/135
f 136/136/136 137/137/137 138/138/138
f 141/141/141 140/140/140 139/139/139
f 140/140/140 141/141/141 142/142/142
f 145/145/145 144/144/144 143/143/143
f 144/144/144 145/145/145 146/146/146
f 149/149/149 148/148/148 147/147/147
f 148/148/148 149/149/149 150/150/150
f 153/153/153 152/152/152 151/151/151
f 152/152/152 153/153/153 154/154/154
f 157/157/157 156/156/156 155/155/155
f 156/156/156 157/157/157 158/158/158
f 161/161/161 160/160/160 159/159/159
f 160/160/160 161/161/161 162/162/162
f 165/165/165 164/164/164 163/163/163
f 164/164/164 165/165/165 166/166/166
f 169/169/169 168/168/168 167/167/167
f 168/168/168 169/169/169 170/170/170
f 173/173/173 172/172/172 171/171/171
f 172/172/172 173/173/173 174/174/174
f 177/177/177 176/176/176 175/175/175
f 176/176/176 177/177/177 178/178/178
f 181/181/181 180/180/180 179/179/179
f 180/180/180 181/181/181 182/182/182
f 185/185/185 184/184/184 183/183/183
f 184/184/184 185/185/185 186/186/186
f 189/189/189 188/188/188 187/187/187
f 188/188/188 189/189/189 190/190/190
f 193/193/193 192/192/192 191/191/191
f 192/192/192 193/193/193 194/194/194
f 197/197/197 196/196/196 195/195/195
f 195/195/195 198/198/198 197/197/197
f 199/199/199 196/196/196 197/197/197
f 199/199/199 197/197/197 198/198/198
f 200/200/200 196/196/196 199/199/199
f 199/199/199 198/198/198 201/201/201
f 200/200/200 202/202/202 196/196/196
f 203/203/203 196/196/196 202/202/202
f 202/202/202 204/204/204 203/203/203
f 200/200/200 204/204/204 202/202/202
f 205/205/205 204/204/204 200/200/200
f 201/201/201 198/198/198 206/206/206
f 206/206/206 198/198/198 207/207/207
f 207/207/207 208/208/208 206/206/206
f 201/201/201 206/206/206 208/208/208
f 201/201/201 208/208/208 205/205/205
f 205/205/205 209/209/209 204/204/204
f 205/205/205 208/208/208 209/209/209
f 210/210/210 204/204/204 209/209/209
f 209/209/209 208/208/208 210/210/210
f 213/213/213 212/212/212 211/211/211
f 211/211/211 214/214/214 213/213/213
f 214/214/214 211/211/211 215/215/215
f 212/212/212 213/213/213 216/216/216
f 214/214/214 216/216/216 213/213/213
f 216/216/216 217/217/217 212/212/212
f 218/218/218 215/215/215 217/217/217
f 215/215/215 218/218/218 214/214/214
f 216/216/216 214/214/214 218/218/218
f 217/217/217 216/216/216 218/218/218
