g Server_001
v 0.3425 -0.163765 0.665931
v 0.2825 -0.163765 0.665931
v 0.2825 -0.122824 0.663893
v 0.3425 -0.122824 0.663893
v 0.2825 -0.081883 0.662561
v 0.3425 -0.081883 0.662561
v 0.2825 -0.040941 0.662849
v 0.3425 -0.040941 0.662849
v 0.2825 0 0.660124
v 0.3425 0 0.660124
v 0.3425 0.040941 0.662849
v 0.2825 0.040941 0.662849
v 0.3425 0.081883 0.662561
v 0.2825 0.081883 0.662561
v 0.3425 0.122824 0.663893
v 0.3425 0.081883 0.662561
v 0.2825 0.081883 0.662561
v 0.2825 0.122824 0.663893
v 0.3425 0.163765 0.665931
v 0.2825 0.163765 0.665931
vt 0.230906 0.930971
vt 0.253346 0.930971
vt 0.253346 0.91866
vt 0.230906 0.91866
vt 0.253346 0.905502
vt 0.230906 0.905502
vt 0.253346 0.891937
vt 0.230906 0.891937
vt 0.253346 0.877918
vt 0.230906 0.877918
vt 0.230906 0.863565
vt 0.253346 0.863565
vt 0.230906 0.848757
vt 0.253346 0.848757
vt 0.207283 0.91866
vt 0.207283 0.905502
vt 0.229724 0.905502
vt 0.229724 0.91866
vt 0.207283 0.930971
vt 0.229724 0.930971
vn 0 0.04968479 0.998765
vn 0 0.04968479 0.998765
vn 0 0.04110836 0.9991547
vn 0 0.04110836 0.9991547
vn 0 0.01272614 0.9999191
vn 0 0.01272614 0.9999191
vn 0 0.02969551 0.999559
vn 0 0.02969551 0.999559
vn 0 0 1
vn 0 0 1
vn 0 -0.02969551 0.999559
vn 0 -0.02969551 0.999559
vn 0 0.007019045 0.9999754
vn 0 0.007019045 0.9999754
vn 0 -0.04110836 0.9991547
vn 0 -0.03253364 0.9994707
vn 0 -0.03253364 0.9994707
vn 0 -0.04110836 0.9991547
vn 0 -0.04968479 0.998765
vn 0 -0.04968479 0.998765
g Server_001_0
f 3/3/3 2/2/2 1/1/1
f 4/4/4 3/3/3 1/1/1
f 5/5/5 3/3/3 4/4/4
f 6/6/6 5/5/5 4/4/4
f 7/7/7 5/5/5 6/6/6
f 8/8/8 7/7/7 6/6/6
f 9/9/9 7/7/7 8/8/8
f 10/10/10 9/9/9 8/8/8
f 9/9/9 10/10/10 11/11/11
f 12/12/12 9/9/9 11/11/11
f 12/12/12 11/11/11 13/13/13
f 14/14/14 12/12/12 13/13/13
f 17/17/17 16/16/16 15/15/15
f 18/18/18 17/17/17 15/15/15
f 18/18/18 15/15/15 19/19/19
f 20/20/20 18/18/18 19/19/19
