g USP_hammer
v 0.0001668804 -0.004136174 0.002016054
v 0.0001668803 -0.003518727 0.001087607
v 3.813906E-06 -0.003518727 0.001087607
v 3.813973E-06 -0.004136174 0.002016054
v 0.0001668804 -0.004154024 0.002061926
v -0.0001592524 -0.004136174 0.002016054
v -0.0001592525 -0.003518727 0.001087607
v -0.0001592524 -0.004154024 0.002061926
v 3.813976E-06 -0.004154024 0.002061926
v 0.0001668804 -0.004146549 0.002110579
v -0.0001592524 -0.004146549 0.002110579
v 3.813978E-06 -0.004146549 0.002110579
v 0.0001668804 -0.004115749 0.002148976
v -0.0001592524 -0.004115749 0.002148976
v 3.813978E-06 -0.004115749 0.002148976
v 0.0001668804 -0.00404278 0.002202509
v -0.0001592524 -0.00404278 0.002202509
v 3.813977E-06 -0.00404278 0.002202509
v 0.0001668804 -0.003996908 0.002220361
v -0.0001592524 -0.003996908 0.002220361
v 3.813976E-06 -0.003996906 0.002220361
v 0.0001668804 -0.003948255 0.002212885
v -0.0001592524 -0.003948255 0.002212885
v 3.813973E-06 -0.003948255 0.002212885
v 0.0001668804 -0.003909857 0.002182085
v 3.81397E-06 -0.003909857 0.002182085
v -0.0001592524 -0.003909857 0.002182085
v 0.0001035876 -0.003853629 0.002096215
v 0.0001499211 -0.003839508 0.002051764
v 0.0001668804 -0.003820219 0.001991041
v 5.749744E-05 -0.003857393 0.002108064
v 3.813965E-06 -0.003858798 0.002112487
v -4.986952E-05 -0.003857393 0.002108064
v -9.595966E-05 -0.003853629 0.002096215
v -0.0001422932 -0.003839508 0.002051764
v -0.0001592524 -0.003820219 0.001991041
v 0.0001668804 -0.003606396 0.002032767
v 0.0001668804 -0.003377091 0.001184948
v 0.0001668803 -0.003518727 0.001087607
v 0.0001668804 -0.003820219 0.001991041
v 0.0001499211 -0.003619269 0.002094742
v 0.0001499211 -0.003839508 0.002051764
v 0.0001035876 -0.003628692 0.00214011
v 0.0001035876 -0.003853629 0.002096215
v 0.0001668804 -0.003909857 0.002182085
v 5.749744E-05 -0.003631204 0.002152203
v 5.749744E-05 -0.003857393 0.002108064
v 0.0001668804 -0.003948255 0.002212885
v 3.813965E-06 -0.003858798 0.002112487
v 3.813957E-06 -0.003632141 0.002156716
v 0.0001668804 -0.003996908 0.002220361
v 0.0001668804 -0.00404278 0.002202509
v 0.0001668804 -0.004115749 0.002148976
v 0.0001668804 -0.004136174 0.002016054
v 0.0001668804 -0.004146549 0.002110579
v 0.0001668804 -0.004154024 0.002061926
v -4.986953E-05 -0.003631204 0.002152203
v -4.986952E-05 -0.003857393 0.002108064
v -9.595966E-05 -0.003853629 0.002096215
v -9.595967E-05 -0.003628692 0.00214011
v -0.0001422932 -0.003839508 0.002051764
v -0.0001422932 -0.003619269 0.002094742
v -0.0001592524 -0.003820219 0.001991041
v -0.0001592524 -0.003606396 0.002032767
v -0.0001592525 -0.003518727 0.001087607
v -0.0001592525 -0.003377091 0.001184948
v -0.0001592524 -0.003909857 0.002182085
v -0.0001592524 -0.003948255 0.002212885
v -0.0001592524 -0.003996908 0.002220361
v -0.0001592524 -0.00404278 0.002202509
v -0.0001592524 -0.004115749 0.002148976
v -0.0001592524 -0.004136174 0.002016054
v -0.0001592524 -0.004146549 0.002110579
v -0.0001592524 -0.004154024 0.002061926
v 3.813906E-06 -0.003518727 0.001087607
v 0.0001668803 -0.003518727 0.001087607
v 0.0001668804 -0.003377091 0.001184948
v 3.813904E-06 -0.003377091 0.001184947
v -0.0001592525 -0.003377091 0.001184948
v -0.0001592525 -0.003518727 0.001087607
v 0.0001035876 -0.003628692 0.00214011
v 5.749744E-05 -0.003631204 0.002152203
v 3.813957E-06 -0.003632141 0.002156716
v 0.0001499211 -0.003619269 0.002094742
v 0.0001668804 -0.003606396 0.002032767
v 0.0001668804 -0.003377091 0.001184948
v 3.813904E-06 -0.003377091 0.001184947
v -0.0001592525 -0.003377091 0.001184948
v -0.0001592524 -0.003606396 0.002032767
v -0.0001422932 -0.003619269 0.002094742
v -9.595967E-05 -0.003628692 0.00214011
v -4.986953E-05 -0.003631204 0.002152203
vt 0.8893789 0.166438
vt 0.8279682 0.166438
vt 0.8279681 0.1754191
vt 0.8893789 0.1754192
vt 0.8920899 0.166438
vt 0.8893788 0.1844002
vt 0.8279681 0.1844002
vt 0.8920898 0.1844003
vt 0.8920899 0.1754192
vt 0.894801 0.166438
vt 0.894801 0.1844003
vt 0.894801 0.1754191
vt 0.8975121 0.166438
vt 0.8975121 0.1844003
vt 0.8975121 0.1754191
vt 0.9024965 0.1664379
vt 0.9024965 0.1844004
vt 0.9024966 0.1754191
vt 0.9052075 0.1664379
vt 0.9052075 0.1844004
vt 0.9052078 0.1754191
vt 0.9079186 0.1664378
vt 0.9079186 0.1844005
vt 0.9079189 0.1754191
vt 0.9106296 0.1664377
vt 0.9106302 0.1754192
vt 0.9106296 0.1844006
vt 0.9162868 0.1699165
vt 0.9187934 0.1673037
vt 0.9222492 0.1661888
vt 0.9156269 0.1724615
vt 0.9153847 0.1754192
vt 0.9156269 0.1783769
vt 0.9162868 0.1809218
vt 0.9187934 0.1835347
vt 0.9222492 0.1846496
vt 0.7869208 0.4127398
vt 0.8351701 0.4161919
vt 0.8389379 0.4075087
vt 0.7869208 0.400741
vt 0.7833119 0.4126977
vt 0.7833119 0.4003389
vt 0.779703 0.4126669
vt 0.779703 0.4000444
vt 0.775648 0.3979108
vt 0.777075 0.4126587
vt 0.777075 0.399966
vt 0.773578 0.39616
vt 0.7741074 0.3999367
vt 0.7741074 0.4126556
vt 0.7726607 0.3936088
vt 0.7731418 0.3909408
vt 0.7752659 0.3864317
vt 0.7822359 0.3839255
vt 0.7770166 0.3843617
vt 0.7795678 0.3834444
vt 0.7711398 0.4126587
vt 0.7711398 0.399966
vt 0.7685117 0.4000444
vt 0.7685117 0.4126669
vt 0.7649028 0.4003389
vt 0.7649028 0.4126977
vt 0.7612939 0.400741
vt 0.7612939 0.4127398
vt 0.7092769 0.4075086
vt 0.7130447 0.4161919
vt 0.7725668 0.3979108
vt 0.7746367 0.39616
vt 0.7755541 0.3936088
vt 0.7750729 0.3909408
vt 0.7729488 0.3864317
vt 0.7659789 0.3839254
vt 0.7711982 0.3843617
vt 0.7686469 0.3834444
vt 0.2507888 0.4505131
vt 0.2507888 0.4594942
vt 0.2602543 0.4594942
vt 0.2602543 0.4505131
vt 0.2602543 0.441532
vt 0.2507888 0.441532
vt 0.05734615 0.9469797
vt 0.05802544 0.9444411
vt 0.05827899 0.9414843
vt 0.05479734 0.9495347
vt 0.0513144 0.9504811
vt 0.002941709 0.9504654
vt 0.002944633 0.9414842
vt 0.002941709 0.9325031
vt 0.0513144 0.9324872
vt 0.05479728 0.9334337
vt 0.05734615 0.9359888
vt 0.05802546 0.9385275
vn 0 -0.8874675 -0.4608703
vn 0 -0.8326883 -0.5537421
vn 0 -0.8326883 -0.5537421
vn 0 -0.8874675 -0.4608703
vn 0 -0.9940302 -0.109105
vn 0 -0.8874675 -0.4608703
vn 0 -0.8326883 -0.5537421
vn 0 -0.9940302 -0.109105
vn 0 -0.9940302 -0.109105
vn 0 -0.9154252 0.402488
vn 0 -0.9154252 0.402488
vn 0 -0.9154252 0.402488
vn 0 -0.6916978 0.722187
vn 0 -0.6916978 0.722187
vn 0 -0.6916978 0.722187
vn 0 -0.4812239 0.8765977
vn 0 -0.4812239 0.8765977
vn 0 -0.4812239 0.8765977
vn 0 -0.109105 0.9940302
vn 0 -0.109105 0.9940302
vn 0 -0.109105 0.9940302
vn 0 0.4025136 0.9154139
vn 0 0.402488 0.9154252
vn 0 0.4025136 0.9154139
vn 0.04754906 0.7489434 0.6609257
vn 0 0.7305111 0.682901
vn -0.04754906 0.7489434 0.6609257
vn 0.09018388 0.8553584 0.5101265
vn 0.3749562 0.8353044 0.4020875
vn 0.4408804 0.8125738 0.3812459
vn 0.01998973 0.8213186 0.5701194
vn 0 0.8062876 0.5915237
vn -0.01998973 0.8213186 0.5701194
vn -0.09018388 0.8553584 0.5101265
vn -0.3749562 0.8353044 0.4020875
vn -0.4408804 0.8125738 0.3812459
vn 0.9918887 -0.02432341 0.1247605
vn 1 0 0
vn 1 0 0
vn 0.9974572 -0.01364206 0.06994987
vn 0.8668875 -0.09546291 0.4892779
vn 0.8576238 -0.09848589 0.5047593
vn 0.5008562 -0.1657516 0.8495114
vn 0.4916064 -0.1667885 0.8546957
vn 1 0 0
vn 0.1729525 -0.1886394 0.9666968
vn 0.1717314 -0.1886695 0.9669086
vn 1 0 0
vn 0 -0.1915068 0.9814913
vn 0 -0.1915068 0.9814913
vn 1 0 0
vn 1 0 0
vn 1 0 0
vn 1 0 0
vn 1 0 0
vn 1 0 0
vn -0.1729525 -0.1886394 0.9666968
vn -0.1717314 -0.1886695 0.9669086
vn -0.4916295 -0.166786 0.8546829
vn -0.5008562 -0.1657516 0.8495114
vn -0.8576238 -0.09848589 0.5047593
vn -0.8668875 -0.09546291 0.4892779
vn -0.9974572 -0.01364206 0.06994987
vn -0.9918887 -0.02432341 0.1247605
vn -1 0 0
vn -1 0 0
vn -1 0 0
vn -1 0 0
vn -1 0 0
vn -1 0 0
vn -1 0 0
vn -1 0 0
vn -1 0 0
vn -1 0 0
vn 0 0.5663785 -0.8241452
vn 0 0.5663993 -0.824131
vn 0 0.5663993 -0.824131
vn 0 0.5663785 -0.8241452
vn 0 0.5663785 -0.8241452
vn 0 0.5663785 -0.8241452
vn 0.02063106 0.9666997 0.2550805
vn 0.02063106 0.9666997 0.2550805
vn 0 0.9669043 0.2551392
vn 0.02063106 0.9666997 0.2550805
vn 0.02063106 0.9666997 0.2550805
vn 0.02063106 0.9666997 0.2550805
vn 0 0.9669043 0.2551392
vn -0.02063106 0.9666997 0.2550805
vn -0.02063106 0.9666997 0.2550805
vn -0.02063106 0.9666997 0.2550805
vn -0.02063106 0.9666997 0.2550805
vn -0.02063106 0.9666997 0.2550805
g USP_hammer_0
f 3/3/3 2/2/2 1/1/1
f 4/4/4 3/3/3 1/1/1
f 4/4/4 1/1/1 5/5/5
f 3/3/3 4/4/4 6/6/6
f 7/7/7 3/3/3 6/6/6
f 6/6/6 4/4/4 8/8/8
f 9/9/9 4/4/4 5/5/5
f 4/4/4 9/9/9 8/8/8
f 9/9/9 5/5/5 10/10/10
f 8/8/8 9/9/9 11/11/11
f 12/12/12 9/9/9 10/10/10
f 9/9/9 12/12/12 11/11/11
f 12/12/12 10/10/10 13/13/13
f 11/11/11 12/12/12 14/14/14
f 15/15/15 12/12/12 13/13/13
f 12/12/12 15/15/15 14/14/14
f 15/15/15 13/13/13 16/16/16
f 14/14/14 15/15/15 17/17/17
f 18/18/18 15/15/15 16/16/16
f 15/15/15 18/18/18 17/17/17
f 18/18/18 16/16/16 19/19/19
f 17/17/17 18/18/18 20/20/20
f 21/21/21 18/18/18 19/19/19
f 18/18/18 21/21/21 20/20/20
f 21/21/21 19/19/19 22/22/22
f 20/20/20 21/21/21 23/23/23
f 24/24/24 21/21/21 22/22/22
f 21/21/21 24/24/24 23/23/23
f 24/24/24 22/22/22 25/25/25
f 26/26/26 24/24/24 25/25/25
f 23/23/23 24/24/24 27/27/27
f 24/24/24 26/26/26 27/27/27
f 25/25/25 28/28/28 26/26/26
f 25/25/25 29/29/29 28/28/28
f 25/25/25 30/30/30 29/29/29
f 28/28/28 31/31/31 26/26/26
f 32/32/32 26/26/26 31/31/31
f 26/26/26 32/32/32 33/33/33
f 33/33/33 34/34/34 26/26/26
f 34/34/34 27/27/27 26/26/26
f 35/35/35 27/27/27 34/34/34
f 36/36/36 27/27/27 35/35/35
f 39/39/39 38/38/38 37/37/37
f 40/40/40 39/39/39 37/37/37
f 37/37/37 41/41/41 40/40/40
f 41/41/41 42/42/42 40/40/40
f 41/41/41 43/43/43 42/42/42
f 43/43/43 44/44/44 42/42/42
f 39/39/39 40/40/40 45/45/45
f 43/43/43 46/46/46 44/44/44
f 46/46/46 47/47/47 44/44/44
f 39/39/39 45/45/45 48/48/48
f 47/47/47 46/46/46 49/49/49
f 46/46/46 50/50/50 49/49/49
f 39/39/39 48/48/48 51/51/51
f 39/39/39 51/51/51 52/52/52
f 39/39/39 52/52/52 53/53/53
f 54/54/54 39/39/39 53/53/53
f 54/54/54 53/53/53 55/55/55
f 55/55/55 56/56/56 54/54/54
f 50/50/50 57/57/57 49/49/49
f 57/57/57 58/58/58 49/49/49
f 58/58/58 57/57/57 59/59/59
f 57/57/57 60/60/60 59/59/59
f 59/59/59 60/60/60 61/61/61
f 60/60/60 62/62/62 61/61/61
f 61/61/61 62/62/62 63/63/63
f 62/62/62 64/64/64 63/63/63
f 65/65/65 63/63/63 64/64/64
f 66/66/66 65/65/65 64/64/64
f 67/67/67 63/63/63 65/65/65
f 68/68/68 67/67/67 65/65/65
f 69/69/69 68/68/68 65/65/65
f 70/70/70 69/69/69 65/65/65
f 71/71/71 70/70/70 65/65/65
f 71/71/71 65/65/65 72/72/72
f 73/73/73 71/71/71 72/72/72
f 72/72/72 74/74/74 73/73/73
f 77/77/77 76/76/76 75/75/75
f 78/78/78 77/77/77 75/75/75
f 79/79/79 78/78/78 75/75/75
f 80/80/80 79/79/79 75/75/75
f 83/83/83 82/82/82 81/81/81
f 83/83/83 81/81/81 84/84/84
f 83/83/83 84/84/84 85/85/85
f 83/83/83 85/85/85 86/86/86
f 86/86/86 87/87/87 83/83/83
f 83/83/83 87/87/87 88/88/88
f 88/88/88 89/89/89 83/83/83
f 89/89/89 90/90/90 83/83/83
f 90/90/90 91/91/91 83/83/83
f 91/91/91 92/92/92 83/83/83
