g USP_trigger
v 7.622056E-11 2.24521E-05 0.0009547633
v 0.0001697528 0.0002237215 0.0009547633
v 0.0001697528 2.752107E-05 0.0009547633
v 6.550383E-11 0.0002676225 0.0009547633
v -0.0001697526 0.0002237215 0.0009547633
v -0.0001697526 2.752107E-05 0.0009547633
v 0.0001697527 2.842752E-05 0.000533044
v 0.0001697528 2.752107E-05 0.0009547633
v 0.0001697528 0.0002237215 0.0009547633
v 0.0001697527 7.448566E-05 0.0004870848
v 0.0001697527 0.0002247268 0.0004870848
v 0.0001697527 1.254955E-05 0.0004439919
v 0.0001697527 9.477594E-05 0.0003810648
v 0.0001697527 0.0001618173 0.0004124027
v 0.0001697527 0.0001301536 0.0003407505
v 0.0001697527 0.0001074451 0.0001668981
v 0.0001697527 3.51786E-05 0.0003810648
v 0.0001697527 5.196035E-06 0.0004241578
v 0.0001697527 -1.905851E-05 0.0003358572
v 0.0001697527 4.851063E-05 0.0001151461
v 0.0001697527 0.0001103168 6.383311E-05
v 0.0001697527 -1.351271E-05 0.0001151461
v 0.0001697527 -5.119424E-05 0.0001603538
v 0.0001697527 -4.600258E-05 7.120486E-05
v 0.0001697527 2.373748E-05 -0.000156308
v 0.0001697527 7.595016E-05 -0.0001755265
v 0.0001697527 7.033418E-05 -0.0002321059
v 0.0001697527 0.0001712958 -0.0003454624
v 0.0001697527 0.0001046474 -0.0001184646
v 0.0001697527 0.0001324676 -5.417716E-05
v 0.0001697527 0.0001660022 -0.00012963
v 0.0001697527 0.0002429818 -0.0002310228
v 0.0001697527 0.0002220778 -0.0003348858
v 0.0001697527 0.000250167 -0.0003817636
v 0.0001697527 0.0002524843 -0.0003039314
v 0.0001697527 0.0003070481 -0.0002842342
v 0.0001697527 0.000444808 -0.0004428033
v 0.0001697527 0.000455371 -0.0003589754
v 0.0001697527 0.0005670589 -0.0004280367
v 0.0001697527 0.0005586446 -0.0003670554
v 0.0001697527 0.0005733531 -0.0003738458
v 0.0001697527 0.000580044 -0.0004206629
v 0.0001697527 0.0005811109 -0.0003880677
v 0.0001697527 0.0005837574 -0.0004061993
v 0.0001697528 0.0002237215 0.0009547633
v 4.501701E-11 0.0002686277 0.0004870848
v 0.0001697527 0.0002247268 0.0004870848
v 6.550383E-11 0.0002676225 0.0009547633
v -0.0001697526 0.0002237215 0.0009547633
v -0.0001697526 0.0002247268 0.0004870848
v 0.0001697527 1.254955E-05 0.0004439919
v 5.162822E-11 5.445391E-05 0.0004241578
v 5.217377E-11 6.180743E-05 0.0004439919
v 0.0001697527 5.196035E-06 0.0004241578
v 4.882867E-11 3.019934E-05 0.0003358572
v 0.0001697527 -1.905851E-05 0.0003358572
v 4.256188E-11 -1.936387E-06 0.0001603538
v 0.0001697527 -5.119424E-05 0.0001603538
v 3.843812E-11 3.255289E-06 7.120486E-05
v 0.0001697527 -4.600258E-05 7.120486E-05
v 2.544478E-11 7.299535E-05 -0.000156308
v 0.0001697527 2.373748E-05 -0.000156308
v 2.060208E-11 0.0001079857 -0.0002321059
v 0.0001697527 7.033418E-05 -0.0002321059
v 1.07266E-11 0.0002205537 -0.0003454624
v 0.0001697527 0.0001712958 -0.0003454624
v 8.596469E-12 0.000250167 -0.0003645809
v 0.0001697527 0.000250167 -0.0003817636
v -2.579688E-12 0.000444808 -0.0004256206
v 0.0001697527 0.000444808 -0.0004428033
v -8.076297E-12 0.0005670589 -0.0004291174
v 0.0001697527 0.0005670589 -0.0004280367
v 4.501701E-11 0.0002686277 0.0004870848
v 0.0001697527 0.0001618173 0.0004124027
v 0.0001697527 0.0002247268 0.0004870848
v 4.493133E-11 0.0001959059 0.0004124027
v 0.0001697527 0.0001301536 0.0003407505
v -0.0001697526 0.0001618173 0.0004124027
v -0.0001697526 0.0002247268 0.0004870848
v -0.0001697526 0.0001301536 0.0003407505
v 4.318337E-11 0.0001642422 0.0003407505
v 0.0001697527 0.0001074451 0.0001668981
v -0.0001697526 0.0001074451 0.0001668981
v 3.657667E-11 0.0001415337 0.0001668981
v 0.0001697527 0.0001103168 6.383311E-05
v -0.0001697526 0.0001103168 6.383311E-05
v 3.194603E-11 0.0001444054 6.383311E-05
v 0.0001697527 0.0001324676 -5.417716E-05
v -0.0001697527 0.0001324676 -5.417716E-05
v 2.581939E-11 0.0001665562 -5.417716E-05
v 0.0001697527 0.0001660022 -0.00012963
v -0.0001697527 0.0001660022 -0.00012963
v 2.10554E-11 0.0002000908 -0.00012963
v 0.0001697527 0.0002429818 -0.0002310228
v -0.0001697527 0.0002429818 -0.0002310228
v 1.325849E-11 0.0002770704 -0.0002310228
v 0.0001697527 0.0003070481 -0.0002842342
v -0.0001697527 0.000307048 -0.0002842342
v 8.146838E-12 0.0003414905 -0.0002835437
v 0.0001697527 0.000455371 -0.0003589754
v -0.0001697527 0.000455371 -0.0003589754
v -1.435092E-12 0.0004894596 -0.0003547837
v 0.0001697527 0.0005586446 -0.0003670554
v -0.0001697527 0.0005586446 -0.0003670554
v -4.812456E-12 0.0005586446 -0.0003628637
v 0.0001697527 0.0005733531 -0.0003738458
v -0.0001697527 0.0005733531 -0.0003738458
v -5.935427E-12 0.0005733531 -0.0003738458
v 0.0001697527 0.0005811109 -0.0003880677
v -0.0001697527 0.0005811109 -0.0003880677
v -6.89619E-12 0.0005811109 -0.0003880677
v -7.804426E-12 0.0005837574 -0.0004061993
v 0.0001697527 0.0005837574 -0.0004061993
v -0.0001697527 0.0005837574 -0.0004061993
v 0.0001697527 0.000580044 -0.0004206629
v -0.0001697527 0.000580044 -0.0004206629
v -8.274337E-12 0.000580044 -0.0004206629
v 0.0001697527 0.0005670589 -0.0004280367
v -0.0001697527 0.0005670589 -0.0004280367
v -8.076297E-12 0.0005670589 -0.0004291174
v 0.0001697527 2.842752E-05 0.000533044
v 0.0001697527 1.254955E-05 0.0004439919
v 5.217377E-11 6.180743E-05 0.0004439919
v 5.774701E-11 2.335858E-05 0.000533044
v 7.622056E-11 2.24521E-05 0.0009547633
v 0.0001697528 2.752107E-05 0.0009547633
v 0.0001697527 2.842752E-05 0.000533044
v 5.774701E-11 2.335858E-05 0.000533044
v -0.0001697526 2.842752E-05 0.000533044
v -0.0001697526 2.752107E-05 0.0009547633
v -0.0001697526 0.0002237215 0.0009547633
v -0.0001697526 2.752107E-05 0.0009547633
v -0.0001697526 2.842752E-05 0.000533044
v -0.0001697526 7.448564E-05 0.0004870848
v -0.0001697526 1.254955E-05 0.0004439919
v -0.0001697526 0.0002247268 0.0004870848
v -0.0001697526 3.51786E-05 0.0003810648
v -0.0001697526 5.196035E-06 0.0004241578
v -0.0001697526 -1.905851E-05 0.0003358572
v -0.0001697526 9.477592E-05 0.0003810648
v -0.0001697526 0.0001618173 0.0004124027
v -0.0001697526 0.0001301536 0.0003407505
v -0.0001697526 0.0001074451 0.0001668981
v -0.0001697526 4.851061E-05 0.0001151461
v -0.0001697526 0.0001103168 6.383311E-05
v -0.0001697526 -1.351271E-05 0.0001151461
v -0.0001697526 -5.119424E-05 0.0001603538
v -0.0001697526 -4.600258E-05 7.120486E-05
v -0.0001697527 2.373748E-05 -0.000156308
v -0.0001697527 7.595015E-05 -0.0001755265
v -0.0001697527 7.033416E-05 -0.0002321059
v -0.0001697527 0.0001712958 -0.0003454624
v -0.0001697527 0.0001046474 -0.0001184646
v -0.0001697527 0.0001324676 -5.417716E-05
v -0.0001697527 0.0001660022 -0.00012963
v -0.0001697527 0.0002429818 -0.0002310228
v -0.0001697527 0.0002220778 -0.0003348858
v -0.0001697527 0.000250167 -0.0003817636
v -0.0001697527 0.0002524843 -0.0003039314
v -0.0001697527 0.000307048 -0.0002842342
v -0.0001697527 0.000444808 -0.0004428033
v -0.0001697527 0.000455371 -0.0003589754
v -0.0001697527 0.0005670589 -0.0004280367
v -0.0001697527 0.0005586446 -0.0003670554
v -0.0001697527 0.0005733531 -0.0003738458
v -0.0001697527 0.000580044 -0.0004206629
v -0.0001697527 0.0005811109 -0.0003880677
v -0.0001697527 0.0005837574 -0.0004061993
v -0.0001697526 1.254955E-05 0.0004439919
v 5.217377E-11 6.180743E-05 0.0004439919
v 5.162822E-11 5.445391E-05 0.0004241578
v -0.0001697526 5.196035E-06 0.0004241578
v 4.882867E-11 3.019934E-05 0.0003358572
v -0.0001697526 -1.905851E-05 0.0003358572
v 4.256188E-11 -1.936387E-06 0.0001603538
v -0.0001697526 -5.119424E-05 0.0001603538
v 3.843812E-11 3.255289E-06 7.120486E-05
v -0.0001697526 -4.600258E-05 7.120486E-05
v 2.544478E-11 7.299535E-05 -0.000156308
v -0.0001697527 2.373748E-05 -0.000156308
v 2.060208E-11 0.0001079857 -0.0002321059
v -0.0001697527 7.033416E-05 -0.0002321059
v 1.07266E-11 0.0002205537 -0.0003454624
v -0.0001697527 0.0001712958 -0.0003454624
v 8.596469E-12 0.000250167 -0.0003645809
v -0.0001697527 0.000250167 -0.0003817636
v -2.579688E-12 0.000444808 -0.0004256206
v -0.0001697527 0.000444808 -0.0004428033
v -8.076297E-12 0.0005670589 -0.0004291174
v -0.0001697527 0.0005670589 -0.0004280367
v -0.0001697526 2.842752E-05 0.000533044
v 5.774701E-11 2.335858E-05 0.000533044
v 5.217377E-11 6.180743E-05 0.0004439919
v -0.0001697526 1.254955E-05 0.0004439919
vt 0.8707573 0.5953023
vt 0.8801066 0.6063875
vt 0.8801066 0.5955815
vt 0.8707573 0.6088054
vt 0.8614079 0.6063875
vt 0.8614079 0.5955815
vt 0.887271 0.1489312
vt 0.9094926 0.1421717
vt 0.9063255 0.1318402
vt 0.8841075 0.1472477
vt 0.8816823 0.1393363
vt 0.882838 0.1512047
vt 0.8781971 0.1478906
vt 0.8787652 0.1438545
vt 0.8755032 0.1466784
vt 0.866715 0.1506805
vt 0.8791591 0.1510289
vt 0.8819123 0.1519121
vt 0.877654 0.1546146
vt 0.8649411 0.1546192
vt 0.8612415 0.1521929
vt 0.8659423 0.1578852
vt 0.8689311 0.1591397
vt 0.8641529 0.1603053
vt 0.8510468 0.1603054
vt 0.8491921 0.1578662
vt 0.8463033 0.1590752
vt 0.8387045 0.1555885
vt 0.8517336 0.155434
vt 0.8546697 0.1529313
vt 0.8501553 0.1523834
vt 0.8435735 0.1499664
vt 0.8384418 0.1527437
vt 0.8355199 0.1520212
vt 0.8395809 0.1506429
vt 0.8397374 0.1474517
vt 0.8291639 0.1427571
vt 0.8334075 0.1408478
vt 0.8279681 0.1360813
vt 0.8313151 0.13554
vt 0.8307201 0.1348751
vt 0.8281468 0.1352785
vt 0.829846 0.1346962
vt 0.8288485 0.1348495
vt 0.226068 0.9194965
vt 0.2016968 0.9100592
vt 0.2009137 0.9193182
vt 0.2261298 0.9100658
vt 0.2260733 0.9006352
vt 0.2009188 0.9007996
vt 0.1479723 0.9436525
vt 0.1457424 0.9530842
vt 0.1468821 0.9533263
vt 0.1468326 0.9434105
vt 0.1407861 0.9521511
vt 0.1418763 0.9424773
vt 0.1310887 0.9505619
vt 0.1321788 0.9408881
vt 0.126193 0.9500903
vt 0.1272831 0.9404166
vt 0.113093 0.9496913
vt 0.1141832 0.9400175
vt 0.1084951 0.9497292
vt 0.1092856 0.9401852
vt 0.09971911 0.9503604
vt 0.1009411 0.9407024
vt 0.09779068 0.9505841
vt 0.0961995 0.9413227
vt 0.08666573 0.952152
vt 0.08507452 0.9428905
vt 0.08003297 0.9533263
vt 0.07840474 0.9441196
vt 0.2016968 0.9100592
vt 0.1955712 0.9196777
vt 0.2009137 0.9193182
vt 0.1961023 0.9100576
vt 0.1912688 0.9198182
vt 0.1955765 0.9004371
vt 0.2009188 0.9007996
vt 0.1912742 0.9002943
vt 0.1916609 0.9100564
vt 0.1815241 0.9198969
vt 0.1815295 0.9002102
vt 0.181547 0.9100536
vt 0.1757841 0.9198967
vt 0.1757896 0.9002072
vt 0.1755927 0.9100519
vt 0.1691498 0.9198678
vt 0.1691552 0.9002324
vt 0.1686078 0.91005
vt 0.1646161 0.9197969
vt 0.1646215 0.9003009
vt 0.1638242 0.9100486
vt 0.1576836 0.9196456
vt 0.1576889 0.9004483
vt 0.1564784 0.9100466
vt 0.1531555 0.9195553
vt 0.1531608 0.9005362
vt 0.1517687 0.9100453
vt 0.1441593 0.9194027
vt 0.1441644 0.9006838
vt 0.142553 0.9100428
vt 0.1385723 0.9192905
vt 0.1385774 0.9007929
vt 0.1387166 0.9100417
vt 0.1376911 0.919288
vt 0.1376961 0.9007949
vt 0.1377159 0.9100415
vt 0.1368093 0.9192858
vt 0.1368144 0.9007967
vt 0.1368331 0.9100412
vt 0.1358346 0.910041
vt 0.135812 0.9192833
vt 0.1358171 0.9007986
vt 0.1349993 0.9192812
vt 0.1350044 0.9008002
vt 0.1350216 0.9100407
vt 0.1341866 0.9192793
vt 0.1341917 0.9008017
vt 0.134178 0.9100404
vt 0.2374486 0.9601681
vt 0.2374225 0.9551861
vt 0.2276936 0.9548409
vt 0.2280951 0.9601681
vt 0.9721439 0.8641195
vt 0.9721434 0.8547659
vt 0.9489166 0.8547657
vt 0.9489171 0.8641193
vt 0.9489164 0.8734728
vt 0.9721432 0.873473
vt 0.9067344 0.5441621
vt 0.9099014 0.5338306
vt 0.8876798 0.5270712
vt 0.8845162 0.5287547
vt 0.8832468 0.5247976
vt 0.8820912 0.536666
vt 0.879568 0.5249735
vt 0.8823211 0.5240903
vt 0.8780628 0.5213878
vt 0.878606 0.5281118
vt 0.8791741 0.5321479
vt 0.8759121 0.5293239
vt 0.8671238 0.525322
vt 0.8653499 0.5213832
vt 0.8616503 0.5238096
vt 0.8663512 0.5181172
vt 0.8693399 0.5168627
vt 0.8645617 0.5156971
vt 0.8514556 0.5156971
vt 0.8496008 0.5181363
vt 0.8467121 0.5169272
vt 0.8391134 0.520414
vt 0.8521423 0.5205685
vt 0.8550785 0.5230712
vt 0.8505641 0.5236191
vt 0.8439823 0.526036
vt 0.8388506 0.5232587
vt 0.8359287 0.5239813
vt 0.8399898 0.5253596
vt 0.8401462 0.5285507
vt 0.8295727 0.5332454
vt 0.8338163 0.5351547
vt 0.8283769 0.5399212
vt 0.8317239 0.5404624
vt 0.831129 0.5411274
vt 0.8285556 0.540724
vt 0.8302547 0.5413063
vt 0.8292572 0.541153
vt 0.5599451 0.9434817
vt 0.558855 0.9338079
vt 0.5577153 0.9340498
vt 0.5588055 0.9437237
vt 0.552759 0.9349831
vt 0.5538492 0.9446568
vt 0.5430616 0.9365723
vt 0.5441517 0.9462461
vt 0.5381659 0.9370438
vt 0.539256 0.9467176
vt 0.5250659 0.9374428
vt 0.5261561 0.9471167
vt 0.520468 0.9374049
vt 0.5212585 0.9469489
vt 0.511692 0.9367738
vt 0.5129139 0.9464318
vt 0.5097636 0.93655
vt 0.5081724 0.9458115
vt 0.4986386 0.9349821
vt 0.4970474 0.9442436
vt 0.4920059 0.9338078
vt 0.4903776 0.9430145
vt 0.695455 0.9053946
vt 0.6951232 0.9147423
vt 0.7004328 0.9153324
vt 0.7004329 0.9055974
vn 0 0 1
vn 0 0 1
vn 0 0 1
vn 0 0 1
vn 0 0 1
vn 0 0 1
vn 1 0 0
vn 1 0 0
vn 1 0 0
vn 1 0 0
vn 1 0 0
vn 1 0 0
vn 1 0 0
vn 1 0 0
vn 1 0 0
vn 1 0 0
vn 1 0 0
vn 1 0 0
vn 1 0 0
vn 1 0 0
vn 1 0 0
vn 1 0 0
vn 1 0 0
vn 1 0 0
vn 1 0 0
vn 1 0 0
vn 1 0 0
vn 1 0 0
vn 1 0 0
vn 1 0 0
vn 1 0 0
vn 1 0 0
vn 1 0 0
vn 1 0 0
vn 1 0 0
vn 1 0 0
vn 1 0 0
vn 1 0 0
vn 1 0 0
vn 1 0 0
vn 1 0 0
vn 1 0 0
vn 1 0 0
vn 1 0 0
vn 0.2503758 0.9681465 0.002075275
vn 0 0.9999977 0.002136356
vn 0.2503758 0.9681465 0.002075275
vn 0 0.9999977 0.002136356
vn -0.2503758 0.9681465 0.002075275
vn -0.2503758 0.9681465 0.002075275
vn -0.2625268 -0.9047439 0.3354374
vn -0.2660333 -0.916849 0.2976814
vn -0.2625268 -0.9047439 0.3354374
vn -0.2664062 -0.9181538 0.293294
vn -0.2721079 -0.9377285 0.2159223
vn -0.2722948 -0.9384128 0.2126902
vn -0.2781534 -0.9586436 0.06027573
vn -0.2782101 -0.9587812 0.05777225
vn -0.2744277 -0.9457868 -0.1737147
vn -0.274761 -0.9469689 -0.1666023
vn -0.2432974 -0.8924974 -0.3798089
vn -0.2465332 -0.896773 -0.3674499
vn -0.2018251 -0.7884392 -0.5810595
vn -0.2047513 -0.799931 -0.564081
vn -0.1439301 -0.5743775 -0.8058378
vn -0.1543063 -0.6118537 -0.7757736
vn -0.1037954 -0.3783754 -0.9198144
vn -0.103459 -0.3745276 -0.9214257
vn -0.07309364 -0.1297069 -0.9888546
vn -0.07269694 -0.1268687 -0.989252
vn 0 0.2922495 -0.956342
vn -0.02298081 0.2927383 -0.9559164
vn 0 0.7403308 -0.6722428
vn 0.1767701 0.8307462 -0.5278382
vn 0.1676446 0.7298477 -0.6627349
vn 0 0.8321254 -0.5545875
vn 0.1900748 0.9466506 -0.2602389
vn -0.1767701 0.8307462 -0.5278382
vn -0.1676446 0.7298477 -0.6627349
vn -0.1900748 0.9466506 -0.2602389
vn 0 0.9616252 -0.2743664
vn 0.1966328 0.9792268 -0.04950152
vn -0.1966328 0.9792268 -0.04950152
vn 0 0.9986738 -0.05148559
vn 0.1958102 0.9751754 0.1033986
vn -0.1958102 0.9751754 0.1033986
vn 0 0.9941996 0.1075503
vn 0.1885164 0.938889 0.2880086
vn -0.1885164 0.938889 0.2880086
vn 0 0.9534561 0.3015316
vn 0.1710325 0.8518054 0.4951519
vn -0.1710325 0.8518054 0.4951519
vn 0 0.8570375 0.5152541
vn 0.145576 0.7199451 0.6785917
vn -0.145576 0.7199451 0.6785917
vn 0 0.713653 0.7004994
vn 0.1173461 0.5485203 0.8278619
vn -0.1173461 0.5485203 0.8278619
vn 0 0.5319452 0.8467788
vn 0.07290929 0.291454 0.9538023
vn -0.07290929 0.291454 0.9538023
vn 0 0.2514154 0.9678793
vn 0.02276729 0.3139201 0.9491764
vn -0.02276729 0.3139201 0.9491764
vn 0 0.311903 0.9501139
vn 0.005462999 0.7225197 0.6913288
vn -0.005462999 0.7225197 0.6913288
vn 0 0.7225298 0.6913398
vn 0 0.9485582 0.3166031
vn 0 0.9485582 0.3166031
vn 0 0.9485582 0.3166031
vn 0 0.9985874 -0.05313388
vn 0 0.9985874 -0.05313388
vn 0 0.9985874 -0.05313388
vn 0.001464913 0.8036574 -0.5950904
vn -0.001464913 0.8036574 -0.5950904
vn 0 0.8036582 -0.5950911
vn -0.02298081 0.2927383 -0.9559164
vn 0.02298081 0.2927383 -0.9559164
vn 0 0.2922495 -0.956342
vn -0.1280574 -0.9838997 -0.1246698
vn -0.1280574 -0.9838997 -0.1246698
vn -0.1280574 -0.9838997 -0.1246698
vn -0.1280574 -0.9838997 -0.1246698
vn 0 -0.9999977 -0.002136356
vn 0.0298474 -0.9995522 -0.002136317
vn 0.0298474 -0.9995522 -0.002136317
vn 0 -0.9999977 -0.002136356
vn -0.0298474 -0.9995522 -0.002136317
vn -0.0298474 -0.9995522 -0.002136317
vn -1 0 0
vn -1 0 0
vn -1 0 0
vn -1 0 0
vn -1 0 0
vn -1 0 0
vn -1 0 0
vn -1 0 0
vn -1 0 0
vn -1 0 0
vn -1 0 0
vn -1 0 0
vn -1 0 0
vn -1 0 0
vn -1 0 0
vn -1 0 0
vn -1 0 0
vn -1 0 0
vn -1 0 0
vn -1 0 0
vn -1 0 0
vn -1 0 0
vn -1 0 0
vn -1 0 0
vn -1 0 0
vn -1 0 0
vn -1 0 0
vn -1 0 0
vn -1 0 0
vn -1 0 0
vn -1 0 0
vn -1 0 0
vn -1 0 0
vn -1 0 0
vn -1 0 0
vn -1 0 0
vn -1 0 0
vn -1 0 0
vn 0.2625268 -0.9047439 0.3354374
vn 0.2625268 -0.9047439 0.3354374
vn 0.2660333 -0.916849 0.2976814
vn 0.2664062 -0.9181538 0.293294
vn 0.2721079 -0.9377285 0.2159223
vn 0.2722948 -0.9384128 0.2126902
vn 0.2781534 -0.9586436 0.06027573
vn 0.2782101 -0.9587812 0.05777225
vn 0.2744277 -0.9457868 -0.1737147
vn 0.274761 -0.9469689 -0.1666023
vn 0.2432974 -0.8924974 -0.3798089
vn 0.2465332 -0.896773 -0.3674499
vn 0.2018251 -0.7884392 -0.5810595
vn 0.2047513 -0.799931 -0.564081
vn 0.1439301 -0.5743775 -0.8058378
vn 0.1543063 -0.6118537 -0.7757736
vn 0.1037954 -0.3783754 -0.9198144
vn 0.103459 -0.3745276 -0.9214257
vn 0.07309364 -0.1297069 -0.9888546
vn 0.07269694 -0.1268687 -0.989252
vn 0 0.2922495 -0.956342
vn 0.02298081 0.2927383 -0.9559164
vn 0.1280574 -0.9838997 -0.1246698
vn 0.1280574 -0.9838997 -0.1246698
vn 0.1280574 -0.9838997 -0.1246698
vn 0.1280574 -0.9838997 -0.1246698
g USP_trigger_0
f 3/3/3 2/2/2 1/1/1
f 2/2/2 4/4/4 1/1/1
f 4/4/4 5/5/5 1/1/1
f 5/5/5 6/6/6 1/1/1
f 9/9/9 8/8/8 7/7/7
f 7/7/7 10/10/10 9/9/9
f 10/10/10 11/11/11 9/9/9
f 12/12/12 10/10/10 7/7/7
f 13/13/13 11/11/11 10/10/10
f 13/13/13 14/14/14 11/11/11
f 14/14/14 13/13/13 15/15/15
f 16/16/16 15/15/15 13/13/13
f 17/17/17 10/10/10 12/12/12
f 17/17/17 13/13/13 10/10/10
f 12/12/12 18/18/18 17/17/17
f 19/19/19 17/17/17 18/18/18
f 20/20/20 16/16/16 13/13/13
f 20/20/20 13/13/13 17/17/17
f 16/16/16 20/20/20 21/21/21
f 22/22/22 17/17/17 19/19/19
f 22/22/22 20/20/20 17/17/17
f 19/19/19 23/23/23 22/22/22
f 24/24/24 22/22/22 23/23/23
f 22/22/22 24/24/24 25/25/25
f 25/25/25 20/20/20 22/22/22
f 25/25/25 26/26/26 20/20/20
f 26/26/26 21/21/21 20/20/20
f 27/27/27 26/26/26 25/25/25
f 26/26/26 27/27/27 28/28/28
f 26/26/26 29/29/29 21/21/21
f 28/28/28 29/29/29 26/26/26
f 29/29/29 30/30/30 21/21/21
f 30/30/30 29/29/29 31/31/31
f 28/28/28 31/31/31 29/29/29
f 28/28/28 32/32/32 31/31/31
f 28/28/28 33/33/33 32/32/32
f 34/34/34 33/33/33 28/28/28
f 33/33/33 35/35/35 32/32/32
f 35/35/35 33/33/33 34/34/34
f 32/32/32 35/35/35 36/36/36
f 34/34/34 37/37/37 35/35/35
f 37/37/37 36/36/36 35/35/35
f 37/37/37 38/38/38 36/36/36
f 38/38/38 37/37/37 39/39/39
f 39/39/39 40/40/40 38/38/38
f 39/39/39 41/41/41 40/40/40
f 39/39/39 42/42/42 41/41/41
f 42/42/42 43/43/43 41/41/41
f 42/42/42 44/44/44 43/43/43
f 47/47/47 46/46/46 45/45/45
f 46/46/46 48/48/48 45/45/45
f 48/48/48 46/46/46 49/49/49
f 46/46/46 50/50/50 49/49/49
f 53/53/53 52/52/52 51/51/51
f 52/52/52 54/54/54 51/51/51
f 52/52/52 55/55/55 54/54/54
f 55/55/55 56/56/56 54/54/54
f 55/55/55 57/57/57 56/56/56
f 57/57/57 58/58/58 56/56/56
f 57/57/57 59/59/59 58/58/58
f 59/59/59 60/60/60 58/58/58
f 59/59/59 61/61/61 60/60/60
f 61/61/61 62/62/62 60/60/60
f 61/61/61 63/63/63 62/62/62
f 63/63/63 64/64/64 62/62/62
f 63/63/63 65/65/65 64/64/64
f 65/65/65 66/66/66 64/64/64
f 65/65/65 67/67/67 66/66/66
f 67/67/67 68/68/68 66/66/66
f 67/67/67 69/69/69 68/68/68
f 69/69/69 70/70/70 68/68/68
f 69/69/69 71/71/71 70/70/70
f 71/71/71 72/72/72 70/70/70
f 75/75/75 74/74/74 73/73/73
f 74/74/74 76/76/76 73/73/73
f 76/76/76 74/74/74 77/77/77
f 76/76/76 78/78/78 73/73/73
f 78/78/78 79/79/79 73/73/73
f 78/78/78 76/76/76 80/80/80
f 81/81/81 76/76/76 77/77/77
f 76/76/76 81/81/81 80/80/80
f 77/77/77 82/82/82 81/81/81
f 83/83/83 80/80/80 81/81/81
f 82/82/82 84/84/84 81/81/81
f 84/84/84 83/83/83 81/81/81
f 84/84/84 82/82/82 85/85/85
f 83/83/83 84/84/84 86/86/86
f 87/87/87 84/84/84 85/85/85
f 84/84/84 87/87/87 86/86/86
f 85/85/85 88/88/88 87/87/87
f 89/89/89 86/86/86 87/87/87
f 88/88/88 90/90/90 87/87/87
f 90/90/90 89/89/89 87/87/87
f 90/90/90 88/88/88 91/91/91
f 89/89/89 90/90/90 92/92/92
f 93/93/93 90/90/90 91/91/91
f 90/90/90 93/93/93 92/92/92
f 91/91/91 94/94/94 93/93/93
f 95/95/95 92/92/92 93/93/93
f 94/94/94 96/96/96 93/93/93
f 96/96/96 95/95/95 93/93/93
f 96/96/96 94/94/94 97/97/97
f 95/95/95 96/96/96 98/98/98
f 99/99/99 96/96/96 97/97/97
f 96/96/96 99/99/99 98/98/98
f 97/97/97 100/100/100 99/99/99
f 101/101/101 98/98/98 99/99/99
f 100/100/100 102/102/102 99/99/99
f 102/102/102 101/101/101 99/99/99
f 100/100/100 103/103/103 102/102/102
f 104/104/104 101/101/101 102/102/102
f 103/103/103 105/105/105 102/102/102
f 105/105/105 104/104/104 102/102/102
f 105/105/105 103/103/103 106/106/106
f 104/104/104 105/105/105 107/107/107
f 108/108/108 105/105/105 106/106/106
f 105/105/105 108/108/108 107/107/107
f 108/108/108 106/106/106 109/109/109
f 107/107/107 108/108/108 110/110/110
f 111/111/111 108/108/108 109/109/109
f 108/108/108 111/111/111 110/110/110
f 111/111/111 109/109/109 112/112/112
f 110/110/110 111/111/111 112/112/112
f 109/109/109 113/113/113 112/112/112
f 114/114/114 110/110/110 112/112/112
f 112/112/112 113/113/113 115/115/115
f 114/114/114 112/112/112 116/116/116
f 117/117/117 112/112/112 115/115/115
f 112/112/112 117/117/117 116/116/116
f 117/117/117 115/115/115 118/118/118
f 116/116/116 117/117/117 119/119/119
f 120/120/120 117/117/117 118/118/118
f 117/117/117 120/120/120 119/119/119
f 123/123/123 122/122/122 121/121/121
f 124/124/124 123/123/123 121/121/121
f 127/127/127 126/126/126 125/125/125
f 128/128/128 127/127/127 125/125/125
f 129/129/129 128/128/128 125/125/125
f 130/130/130 129/129/129 125/125/125
f 133/133/133 132/132/132 131/131/131
f 131/131/131 134/134/134 133/133/133
f 134/134/134 135/135/135 133/133/133
f 131/131/131 136/136/136 134/134/134
f 135/135/135 134/134/134 137/137/137
f 137/137/137 138/138/138 135/135/135
f 137/137/137 139/139/139 138/138/138
f 134/134/134 136/136/136 140/140/140
f 134/134/134 140/140/140 137/137/137
f 136/136/136 141/141/141 140/140/140
f 140/140/140 141/141/141 142/142/142
f 140/140/140 142/142/142 143/143/143
f 140/140/140 143/143/143 144/144/144
f 137/137/137 140/140/140 144/144/144
f 144/144/144 143/143/143 145/145/145
f 139/139/139 137/137/137 146/146/146
f 137/137/137 144/144/144 146/146/146
f 146/146/146 147/147/147 139/139/139
f 146/146/146 148/148/148 147/147/147
f 149/149/149 148/148/148 146/146/146
f 146/146/146 144/144/144 149/149/149
f 144/144/144 150/150/150 149/149/149
f 144/144/144 145/145/145 150/150/150
f 150/150/150 151/151/151 149/149/149
f 152/152/152 151/151/151 150/150/150
f 145/145/145 153/153/153 150/150/150
f 150/150/150 153/153/153 152/152/152
f 145/145/145 154/154/154 153/153/153
f 153/153/153 154/154/154 155/155/155
f 153/153/153 155/155/155 152/152/152
f 155/155/155 156/156/156 152/152/152
f 156/156/156 157/157/157 152/152/152
f 157/157/157 158/158/158 152/152/152
f 156/156/156 159/159/159 157/157/157
f 158/158/158 157/157/157 159/159/159
f 159/159/159 156/156/156 160/160/160
f 159/159/159 161/161/161 158/158/158
f 159/159/159 160/160/160 161/161/161
f 160/160/160 162/162/162 161/161/161
f 163/163/163 161/161/161 162/162/162
f 162/162/162 164/164/164 163/163/163
f 164/164/164 165/165/165 163/163/163
f 165/165/165 166/166/166 163/163/163
f 165/165/165 167/167/167 166/166/166
f 167/167/167 168/168/168 166/166/166
f 171/171/171 170/170/170 169/169/169
f 172/172/172 171/171/171 169/169/169
f 173/173/173 171/171/171 172/172/172
f 174/174/174 173/173/173 172/172/172
f 175/175/175 173/173/173 174/174/174
f 176/176/176 175/175/175 174/174/174
f 177/177/177 175/175/175 176/176/176
f 178/178/178 177/177/177 176/176/176
f 179/179/179 177/177/177 178/178/178
f 180/180/180 179/179/179 178/178/178
f 181/181/181 179/179/179 180/180/180
f 182/182/182 181/181/181 180/180/180
f 183/183/183 181/181/181 182/182/182
f 184/184/184 183/183/183 182/182/182
f 185/185/185 183/183/183 184/184/184
f 186/186/186 185/185/185 184/184/184
f 187/187/187 185/185/185 186/186/186
f 188/188/188 187/187/187 186/186/186
f 189/189/189 187/187/187 188/188/188
f 190/190/190 189/189/189 188/188/188
f 193/193/193 192/192/192 191/191/191
f 194/194/194 193/193/193 191/191/191
